<?xml version="1.0" encoding="UTF-8" standalone="no"?>
<!DOCTYPE svg PUBLIC "-//W3C//DTD SVG 1.1//EN"
 "http://www.w3.org/Graphics/SVG/1.1/DTD/svg11.dtd">
<!-- Generated by graphviz version 5.0.0 (20220707.1540)
 -->
<!-- Title: machine_learning::update_weights Pages: 1 -->
<svg width="354pt" height="256pt"
 viewBox="0.00 0.00 354.00 256.00" xmlns="http://www.w3.org/2000/svg" xmlns:xlink="http://www.w3.org/1999/xlink">
<g id="graph0" class="graph" transform="scale(1 1) rotate(0) translate(4 252)">
<title>machine_learning::update_weights</title>
<polygon fill="white" stroke="transparent" points="-4,4 -4,-252 350,-252 350,4 -4,4"/>
<!-- Node1 -->
<g id="node1" class="node">
<title>Node1</title>
<g id="a_node1"><a xlink:title=" ">
<polygon fill="#bfbfbf" stroke="black" points="0,-109 0,-139 128,-139 128,-109 0,-109"/>
<text text-anchor="start" x="8" y="-127" font-family="Helvetica,sans-Serif" font-size="10.00">machine_learning::update</text>
<text text-anchor="middle" x="64" y="-116" font-family="Helvetica,sans-Serif" font-size="10.00">_weights</text>
</a>
</g>
</g>
<!-- Node2 -->
<g id="node2" class="node">
<title>Node2</title>
<g id="a_node2"><a target="_blank" xlink:href="http://en.cppreference.com/w/cpp/iterator/begin.html#" xlink:title=" ">
<polygon fill="white" stroke="black" points="180.5,-228.5 180.5,-247.5 239.5,-247.5 239.5,-228.5 180.5,-228.5"/>
<text text-anchor="middle" x="210" y="-235.5" font-family="Helvetica,sans-Serif" font-size="10.00">std::begin</text>
</a>
</g>
</g>
<!-- Node1&#45;&gt;Node2 -->
<g id="edge1" class="edge">
<title>Node1&#45;&gt;Node2</title>
<path fill="none" stroke="midnightblue" d="M77.7,-139.28C95.32,-159.69 128.98,-195.95 164,-219 166.76,-220.82 169.73,-222.52 172.77,-224.11"/>
<polygon fill="midnightblue" stroke="midnightblue" points="171.47,-227.36 182,-228.49 174.47,-221.04 171.47,-227.36"/>
</g>
<!-- Node3 -->
<g id="node3" class="node">
<title>Node3</title>
<g id="a_node3"><a target="_blank" xlink:href="http://en.cppreference.com/w/cpp/iterator/distance.html#" xlink:title=" ">
<polygon fill="white" stroke="black" points="173.5,-190.5 173.5,-209.5 246.5,-209.5 246.5,-190.5 173.5,-190.5"/>
<text text-anchor="middle" x="210" y="-197.5" font-family="Helvetica,sans-Serif" font-size="10.00">std::distance</text>
</a>
</g>
</g>
<!-- Node1&#45;&gt;Node3 -->
<g id="edge2" class="edge">
<title>Node1&#45;&gt;Node3</title>
<path fill="none" stroke="midnightblue" d="M89.36,-139.15C109.12,-151.16 137.89,-168.03 164,-181 167.76,-182.87 171.75,-184.72 175.74,-186.5"/>
<polygon fill="midnightblue" stroke="midnightblue" points="174.36,-189.72 184.93,-190.48 177.14,-183.3 174.36,-189.72"/>
</g>
<!-- Node4 -->
<g id="node4" class="node">
<title>Node4</title>
<g id="a_node4"><a target="_blank" xlink:href="http://en.cppreference.com/w/cpp/iterator/end.html#" xlink:title=" ">
<polygon fill="white" stroke="black" points="184,-152.5 184,-171.5 236,-171.5 236,-152.5 184,-152.5"/>
<text text-anchor="middle" x="210" y="-159.5" font-family="Helvetica,sans-Serif" font-size="10.00">std::end</text>
</a>
</g>
</g>
<!-- Node1&#45;&gt;Node4 -->
<g id="edge3" class="edge">
<title>Node1&#45;&gt;Node4</title>
<path fill="none" stroke="midnightblue" d="M121.91,-139.02C139.45,-143.65 158.25,-148.61 173.87,-152.73"/>
<polygon fill="midnightblue" stroke="midnightblue" points="173.07,-156.14 183.63,-155.3 174.85,-149.37 173.07,-156.14"/>
</g>
<!-- Node5 -->
<g id="node5" class="node">
<title>Node5</title>
<g id="a_node5"><a xlink:href="../../d4/d18/composite__simpson__rule_8cpp.html#a6d50f1b8eb533b54721812d16a3699cc" target="_top" xlink:title="Another test function.">
<polygon fill="white" stroke="black" points="195.5,-114.5 195.5,-133.5 224.5,-133.5 224.5,-114.5 195.5,-114.5"/>
<text text-anchor="middle" x="210" y="-121.5" font-family="Helvetica,sans-Serif" font-size="10.00">k</text>
</a>
</g>
</g>
<!-- Node1&#45;&gt;Node5 -->
<g id="edge4" class="edge">
<title>Node1&#45;&gt;Node5</title>
<path fill="none" stroke="midnightblue" d="M128.16,-124C148.35,-124 169.48,-124 185.07,-124"/>
<polygon fill="midnightblue" stroke="midnightblue" points="185.35,-127.5 195.35,-124 185.35,-120.5 185.35,-127.5"/>
</g>
<!-- Node8 -->
<g id="node8" class="node">
<title>Node8</title>
<g id="a_node8"><a target="_blank" xlink:href="http://en.cppreference.com/w/cpp/algorithm/max.html#" xlink:title=" ">
<polygon fill="white" stroke="black" points="182.5,-76.5 182.5,-95.5 237.5,-95.5 237.5,-76.5 182.5,-76.5"/>
<text text-anchor="middle" x="210" y="-83.5" font-family="Helvetica,sans-Serif" font-size="10.00">std::max</text>
</a>
</g>
</g>
<!-- Node1&#45;&gt;Node8 -->
<g id="edge7" class="edge">
<title>Node1&#45;&gt;Node8</title>
<path fill="none" stroke="midnightblue" d="M121.91,-108.98C138.9,-104.5 157.07,-99.7 172.39,-95.66"/>
<polygon fill="midnightblue" stroke="midnightblue" points="173.71,-98.93 182.49,-93 171.93,-92.16 173.71,-98.93"/>
</g>
<!-- Node9 -->
<g id="node9" class="node">
<title>Node9</title>
<g id="a_node9"><a target="_blank" xlink:href="http://en.cppreference.com/w/cpp/algorithm/min.html#" xlink:title=" ">
<polygon fill="white" stroke="black" points="184,-38.5 184,-57.5 236,-57.5 236,-38.5 184,-38.5"/>
<text text-anchor="middle" x="210" y="-45.5" font-family="Helvetica,sans-Serif" font-size="10.00">std::min</text>
</a>
</g>
</g>
<!-- Node1&#45;&gt;Node9 -->
<g id="edge8" class="edge">
<title>Node1&#45;&gt;Node9</title>
<path fill="none" stroke="midnightblue" d="M89.36,-108.85C109.12,-96.84 137.89,-79.97 164,-67 167.76,-65.13 171.75,-63.28 175.74,-61.5"/>
<polygon fill="midnightblue" stroke="midnightblue" points="177.14,-64.7 184.93,-57.52 174.36,-58.28 177.14,-64.7"/>
</g>
<!-- Node10 -->
<g id="node10" class="node">
<title>Node10</title>
<g id="a_node10"><a target="_blank" xlink:href="http://en.cppreference.com/w/cpp/algorithm/min_element.html#" xlink:title=" ">
<polygon fill="white" stroke="black" points="164,-0.5 164,-19.5 256,-19.5 256,-0.5 164,-0.5"/>
<text text-anchor="middle" x="210" y="-7.5" font-family="Helvetica,sans-Serif" font-size="10.00">std::min_element</text>
</a>
</g>
</g>
<!-- Node1&#45;&gt;Node10 -->
<g id="edge9" class="edge">
<title>Node1&#45;&gt;Node10</title>
<path fill="none" stroke="midnightblue" d="M77.7,-108.72C95.32,-88.31 128.98,-52.05 164,-29 166.76,-27.18 169.73,-25.48 172.77,-23.89"/>
<polygon fill="midnightblue" stroke="midnightblue" points="174.47,-26.96 182,-19.51 171.47,-20.64 174.47,-26.96"/>
</g>
<!-- Node6 -->
<g id="node6" class="node">
<title>Node6</title>
<g id="a_node6"><a target="_blank" xlink:href="http://en.cppreference.com/w/cpp/numeric/math/pow.html#" xlink:title=" ">
<polygon fill="white" stroke="black" points="292,-133.5 292,-152.5 346,-152.5 346,-133.5 292,-133.5"/>
<text text-anchor="middle" x="319" y="-140.5" font-family="Helvetica,sans-Serif" font-size="10.00">std::pow</text>
</a>
</g>
</g>
<!-- Node5&#45;&gt;Node6 -->
<g id="edge5" class="edge">
<title>Node5&#45;&gt;Node6</title>
<path fill="none" stroke="midnightblue" d="M224.55,-126.41C238.92,-128.96 262.21,-133.09 281.95,-136.6"/>
<polygon fill="midnightblue" stroke="midnightblue" points="281.42,-140.06 291.88,-138.36 282.65,-133.17 281.42,-140.06"/>
</g>
<!-- Node7 -->
<g id="node7" class="node">
<title>Node7</title>
<g id="a_node7"><a target="_blank" xlink:href="http://en.cppreference.com/w/cpp/numeric/math/sqrt.html#" xlink:title=" ">
<polygon fill="white" stroke="black" points="292.5,-95.5 292.5,-114.5 345.5,-114.5 345.5,-95.5 292.5,-95.5"/>
<text text-anchor="middle" x="319" y="-102.5" font-family="Helvetica,sans-Serif" font-size="10.00">std::sqrt</text>
</a>
</g>
</g>
<!-- Node5&#45;&gt;Node7 -->
<g id="edge6" class="edge">
<title>Node5&#45;&gt;Node7</title>
<path fill="none" stroke="midnightblue" d="M224.55,-121.59C239.01,-119.03 262.52,-114.85 282.34,-111.33"/>
<polygon fill="midnightblue" stroke="midnightblue" points="283.07,-114.76 292.3,-109.56 281.85,-107.87 283.07,-114.76"/>
</g>
</g>
</svg>
