<?xml version="1.0" encoding="UTF-8" standalone="no"?>
<!DOCTYPE svg PUBLIC "-//W3C//DTD SVG 1.1//EN"
 "http://www.w3.org/Graphics/SVG/1.1/DTD/svg11.dtd">
<!-- Generated by graphviz version 5.0.0 (20220707.1540)
 -->
<!-- Title: machine_learning::multiply Pages: 1 -->
<svg width="382pt" height="192pt"
 viewBox="0.00 0.00 382.00 192.00" xmlns="http://www.w3.org/2000/svg" xmlns:xlink="http://www.w3.org/1999/xlink">
<g id="graph0" class="graph" transform="scale(1 1) rotate(0) translate(4 188)">
<title>machine_learning::multiply</title>
<polygon fill="white" stroke="transparent" points="-4,4 -4,-188 378,-188 378,4 -4,4"/>
<!-- Node1 -->
<g id="node1" class="node">
<title>Node1</title>
<g id="a_node1"><a xlink:title=" ">
<polygon fill="#bfbfbf" stroke="black" points="0,-82.5 0,-101.5 132,-101.5 132,-82.5 0,-82.5"/>
<text text-anchor="middle" x="66" y="-89.5" font-family="Helvetica,sans-Serif" font-size="10.00">machine_learning::multiply</text>
</a>
</g>
</g>
<!-- Node2 -->
<g id="node2" class="node">
<title>Node2</title>
<g id="a_node2"><a target="_blank" xlink:href="http://en.cppreference.com/w/cpp/io/manip/endl.html#" xlink:title=" ">
<polygon fill="white" stroke="black" points="199,-164.5 199,-183.5 253,-183.5 253,-164.5 199,-164.5"/>
<text text-anchor="middle" x="226" y="-171.5" font-family="Helvetica,sans-Serif" font-size="10.00">std::endl</text>
</a>
</g>
</g>
<!-- Node1&#45;&gt;Node2 -->
<g id="edge1" class="edge">
<title>Node1&#45;&gt;Node2</title>
<path fill="none" stroke="midnightblue" d="M80.14,-101.62C98.89,-115 134.71,-139.34 168,-155 174.75,-158.17 182.17,-161.06 189.37,-163.57"/>
<polygon fill="midnightblue" stroke="midnightblue" points="188.37,-166.92 198.96,-166.74 190.57,-160.28 188.37,-166.92"/>
</g>
<!-- Node3 -->
<g id="node3" class="node">
<title>Node3</title>
<g id="a_node3"><a target="_blank" xlink:href="http://en.cppreference.com/w/cpp/utility/program/exit.html#" xlink:title=" ">
<polygon fill="white" stroke="black" points="200,-126.5 200,-145.5 252,-145.5 252,-126.5 200,-126.5"/>
<text text-anchor="middle" x="226" y="-133.5" font-family="Helvetica,sans-Serif" font-size="10.00">std::exit</text>
</a>
</g>
</g>
<!-- Node1&#45;&gt;Node3 -->
<g id="edge2" class="edge">
<title>Node1&#45;&gt;Node3</title>
<path fill="none" stroke="midnightblue" d="M101.28,-101.55C127.4,-108.82 163.25,-118.8 189.63,-126.15"/>
<polygon fill="midnightblue" stroke="midnightblue" points="189.02,-129.61 199.6,-128.93 190.9,-122.87 189.02,-129.61"/>
</g>
<!-- Node4 -->
<g id="node4" class="node">
<title>Node4</title>
<g id="a_node4"><a xlink:href="../../d8/d77/namespacemachine__learning.html#aa4bbf61e65f8cd297255fa94b983d078" target="_top" xlink:title=" ">
<polygon fill="white" stroke="black" points="170,-77 170,-107 282,-107 282,-77 170,-77"/>
<text text-anchor="start" x="178" y="-95" font-family="Helvetica,sans-Serif" font-size="10.00">machine_learning::get</text>
<text text-anchor="middle" x="226" y="-84" font-family="Helvetica,sans-Serif" font-size="10.00">_shape</text>
</a>
</g>
</g>
<!-- Node1&#45;&gt;Node4 -->
<g id="edge3" class="edge">
<title>Node1&#45;&gt;Node4</title>
<path fill="none" stroke="midnightblue" d="M132.18,-92C141.19,-92 150.46,-92 159.48,-92"/>
<polygon fill="midnightblue" stroke="midnightblue" points="159.54,-95.5 169.54,-92 159.54,-88.5 159.54,-95.5"/>
</g>
<!-- Node5 -->
<g id="node5" class="node">
<title>Node5</title>
<g id="a_node5"><a xlink:href="../../d4/d18/composite__simpson__rule_8cpp.html#a6d50f1b8eb533b54721812d16a3699cc" target="_top" xlink:title="Another test function.">
<polygon fill="white" stroke="black" points="211.5,-38.5 211.5,-57.5 240.5,-57.5 240.5,-38.5 211.5,-38.5"/>
<text text-anchor="middle" x="226" y="-45.5" font-family="Helvetica,sans-Serif" font-size="10.00">k</text>
</a>
</g>
</g>
<!-- Node1&#45;&gt;Node5 -->
<g id="edge4" class="edge">
<title>Node1&#45;&gt;Node5</title>
<path fill="none" stroke="midnightblue" d="M101.28,-82.45C131.6,-74.01 175,-61.92 201.53,-54.54"/>
<polygon fill="midnightblue" stroke="midnightblue" points="202.75,-57.83 211.45,-51.77 200.88,-51.09 202.75,-57.83"/>
</g>
<!-- Node8 -->
<g id="node8" class="node">
<title>Node8</title>
<g id="a_node8"><a target="_blank" xlink:href="http://en.cppreference.com/w/cpp/container/vector/push_back.html#" xlink:title=" ">
<polygon fill="white" stroke="black" points="168,-0.5 168,-19.5 284,-19.5 284,-0.5 168,-0.5"/>
<text text-anchor="middle" x="226" y="-7.5" font-family="Helvetica,sans-Serif" font-size="10.00">std::vector::push_back</text>
</a>
</g>
</g>
<!-- Node1&#45;&gt;Node8 -->
<g id="edge7" class="edge">
<title>Node1&#45;&gt;Node8</title>
<path fill="none" stroke="midnightblue" d="M80.14,-82.38C98.89,-69 134.71,-44.66 168,-29 172.6,-26.84 177.52,-24.81 182.46,-22.94"/>
<polygon fill="midnightblue" stroke="midnightblue" points="183.69,-26.22 191.93,-19.56 181.33,-19.63 183.69,-26.22"/>
</g>
<!-- Node6 -->
<g id="node6" class="node">
<title>Node6</title>
<g id="a_node6"><a target="_blank" xlink:href="http://en.cppreference.com/w/cpp/numeric/math/pow.html#" xlink:title=" ">
<polygon fill="white" stroke="black" points="320,-57.5 320,-76.5 374,-76.5 374,-57.5 320,-57.5"/>
<text text-anchor="middle" x="347" y="-64.5" font-family="Helvetica,sans-Serif" font-size="10.00">std::pow</text>
</a>
</g>
</g>
<!-- Node5&#45;&gt;Node6 -->
<g id="edge5" class="edge">
<title>Node5&#45;&gt;Node6</title>
<path fill="none" stroke="midnightblue" d="M240.65,-50.18C257.46,-52.86 286.64,-57.52 310.04,-61.26"/>
<polygon fill="midnightblue" stroke="midnightblue" points="309.56,-64.73 319.99,-62.85 310.66,-57.81 309.56,-64.73"/>
</g>
<!-- Node7 -->
<g id="node7" class="node">
<title>Node7</title>
<g id="a_node7"><a target="_blank" xlink:href="http://en.cppreference.com/w/cpp/numeric/math/sqrt.html#" xlink:title=" ">
<polygon fill="white" stroke="black" points="320.5,-19.5 320.5,-38.5 373.5,-38.5 373.5,-19.5 320.5,-19.5"/>
<text text-anchor="middle" x="347" y="-26.5" font-family="Helvetica,sans-Serif" font-size="10.00">std::sqrt</text>
</a>
</g>
</g>
<!-- Node5&#45;&gt;Node7 -->
<g id="edge6" class="edge">
<title>Node5&#45;&gt;Node7</title>
<path fill="none" stroke="midnightblue" d="M240.65,-45.82C257.56,-43.12 287.01,-38.42 310.48,-34.67"/>
<polygon fill="midnightblue" stroke="midnightblue" points="311.13,-38.11 320.45,-33.08 310.02,-31.2 311.13,-38.11"/>
</g>
</g>
</svg>
