<?xml version="1.0" encoding="UTF-8" standalone="no"?>
<!DOCTYPE svg PUBLIC "-//W3C//DTD SVG 1.1//EN"
 "http://www.w3.org/Graphics/SVG/1.1/DTD/svg11.dtd">
<!-- Generated by graphviz version 5.0.0 (20220707.1540)
 -->
<!-- Title: test Pages: 1 -->
<!--zoomable 565 -->
<svg id="main" version="1.1" xmlns="http://www.w3.org/2000/svg" xmlns:xlink="http://www.w3.org/1999/xlink" xml:space="preserve" onload="init(evt)">
<style type="text/css"><![CDATA[
.edge:hover path { stroke: red; }
.edge:hover polygon { stroke: red; fill: red; }
]]></style>
<script type="text/javascript"><![CDATA[
var edges = document.getElementsByTagName('g');
if (edges && edges.length) {
  for (var i=0;i<edges.length;i++) {
    if (edges[i].id.substr(0,4)=='edge') {
      edges[i].setAttribute('class','edge');
    }
  }
}
]]></script>
        <defs>
                <circle id="rim" cx="0" cy="0" r="7"/>
                <circle id="rim2" cx="0" cy="0" r="3.5"/>
                <g id="zoomPlus">
                        <use xlink:href="#rim" fill="#404040">
                                <set attributeName="fill" to="#808080" begin="zoomplus.mouseover" end="zoomplus.mouseout"/>
                        </use>
                        <path d="M-4,0h8M0,-4v8" fill="none" stroke="white" stroke-width="1.5" pointer-events="none"/>
                </g>
                <g id="zoomMin">
                        <use xlink:href="#rim" fill="#404040">
                                <set attributeName="fill" to="#808080" begin="zoomminus.mouseover" end="zoomminus.mouseout"/>
                        </use>
                        <path d="M-4,0h8" fill="none" stroke="white" stroke-width="1.5" pointer-events="none"/>
                </g>
                <g id="dirArrow">
                        <path fill="none" stroke="white" stroke-width="1.5" d="M0,-3.0v7 M-2.5,-0.5L0,-3.0L2.5,-0.5"/>
                </g>
               <g id="resetDef">
                       <use xlink:href="#rim2" fill="#404040">
                               <set attributeName="fill" to="#808080" begin="reset.mouseover" end="reset.mouseout"/>
                       </use>
               </g>
        </defs>

<script type="text/javascript">
var viewWidth = 693;
var viewHeight = 565;
var sectionId = 'dynsection-2';
</script>
<script xlink:href="../../svgpan.js"/>
<svg id="graph" class="graph">
<g id="viewport">
<title>test</title>
<polygon fill="white" stroke="transparent" points="-4,4 -4,-561 689,-561 689,4 -4,4"/>
<!-- Node1 -->
<g id="node1" class="node">
<title>Node1</title>
<g id="a_node1"><a xlink:title="Function to test the correctness of get_union() function.">
<polygon fill="#bfbfbf" stroke="black" points="0,-216.5 0,-235.5 33,-235.5 33,-216.5 0,-216.5"/>
<text text-anchor="middle" x="16.5" y="-223.5" font-family="Helvetica,sans-Serif" font-size="10.00">test</text>
</a>
</g>
</g>
<!-- Node2 -->
<g id="node2" class="node">
<title>Node2</title>
<g id="a_node2"><a xlink:href="../../d9/df4/namespacetests.html#a167c24bd817469ae47358d12e034f2d5" target="_top" xlink:title="&lt; Use the BinaryTree">
<polygon fill="white" stroke="black" points="69,-335.5 69,-354.5 135,-354.5 135,-335.5 69,-335.5"/>
<text text-anchor="middle" x="102" y="-342.5" font-family="Helvetica,sans-Serif" font-size="10.00">tests::test1</text>
</a>
</g>
</g>
<!-- Node1&#45;&gt;Node2 -->
<g id="edge1" class="edge">
<title>Node1&#45;&gt;Node2</title>
<path fill="none" stroke="midnightblue" d="M24.33,-235.74C38.35,-255.71 70.53,-301.57 88.42,-327.07"/>
<polygon fill="midnightblue" stroke="midnightblue" points="85.7,-329.28 94.31,-335.46 91.43,-325.26 85.7,-329.28"/>
</g>
<!-- Node14 -->
<g id="node14" class="node">
<title>Node14</title>
<g id="a_node14"><a xlink:href="../../d9/df4/namespacetests.html#abdd77344d4af8fd56d14a5cabbf2f669" target="_top" xlink:title="A Test to check an edge case (NULL root element)">
<polygon fill="white" stroke="black" points="69,-240.5 69,-259.5 135,-259.5 135,-240.5 69,-240.5"/>
<text text-anchor="middle" x="102" y="-247.5" font-family="Helvetica,sans-Serif" font-size="10.00">tests::test2</text>
</a>
</g>
</g>
<!-- Node1&#45;&gt;Node14 -->
<g id="edge16" class="edge">
<title>Node1&#45;&gt;Node14</title>
<path fill="none" stroke="midnightblue" d="M33.21,-230.51C40.56,-232.63 49.71,-235.26 58.89,-237.9"/>
<polygon fill="midnightblue" stroke="midnightblue" points="58.19,-241.34 68.77,-240.73 60.12,-234.61 58.19,-241.34"/>
</g>
<!-- Node15 -->
<g id="node15" class="node">
<title>Node15</title>
<g id="a_node15"><a xlink:href="../../d9/df4/namespacetests.html#aa515639572647508b94986489aab6d76" target="_top" xlink:title="A Test to check correct reversal of a Binary Tree.">
<polygon fill="white" stroke="black" points="69,-382.5 69,-401.5 135,-401.5 135,-382.5 69,-382.5"/>
<text text-anchor="middle" x="102" y="-389.5" font-family="Helvetica,sans-Serif" font-size="10.00">tests::test3</text>
</a>
</g>
</g>
<!-- Node1&#45;&gt;Node15 -->
<g id="edge21" class="edge">
<title>Node1&#45;&gt;Node15</title>
<path fill="none" stroke="midnightblue" d="M19.41,-235.8C24.4,-259.54 39.49,-321.29 69,-364 71.89,-368.18 75.54,-372.14 79.33,-375.69"/>
<polygon fill="midnightblue" stroke="midnightblue" points="77.25,-378.52 87.12,-382.36 81.8,-373.2 77.25,-378.52"/>
</g>
<!-- Node16 -->
<g id="node16" class="node">
<title>Node16</title>
<g id="a_node16"><a xlink:href="../../d9/df4/namespacetests.html#a2b9769e44683dcb67fe1083ad91e134d" target="_top" xlink:title="A Test to check correct functionality with duplicate values.">
<polygon fill="white" stroke="black" points="69,-175.5 69,-194.5 135,-194.5 135,-175.5 69,-175.5"/>
<text text-anchor="middle" x="102" y="-182.5" font-family="Helvetica,sans-Serif" font-size="10.00">tests::test4</text>
</a>
</g>
</g>
<!-- Node1&#45;&gt;Node16 -->
<g id="edge26" class="edge">
<title>Node1&#45;&gt;Node16</title>
<path fill="none" stroke="midnightblue" d="M33.21,-218.29C44.23,-212.88 59.29,-205.48 72.41,-199.04"/>
<polygon fill="midnightblue" stroke="midnightblue" points="74.11,-202.1 81.54,-194.55 71.02,-195.82 74.11,-202.1"/>
</g>
<!-- Node23 -->
<g id="node23" class="node">
<title>Node23</title>
<g id="a_node23"><a xlink:href="../../d9/df4/namespacetests.html#af7b81d7a1534216af6a36a80135beb86" target="_top" xlink:title="A Test to check correct functionality with a harder test case.">
<polygon fill="white" stroke="black" points="69,-137.5 69,-156.5 135,-156.5 135,-137.5 69,-137.5"/>
<text text-anchor="middle" x="102" y="-144.5" font-family="Helvetica,sans-Serif" font-size="10.00">tests::test5</text>
</a>
</g>
</g>
<!-- Node1&#45;&gt;Node23 -->
<g id="edge34" class="edge">
<title>Node1&#45;&gt;Node23</title>
<path fill="none" stroke="midnightblue" d="M24.34,-216.2C33.49,-203.56 50.71,-181.36 69,-166 70.52,-164.72 72.14,-163.48 73.81,-162.28"/>
<polygon fill="midnightblue" stroke="midnightblue" points="75.91,-165.08 82.37,-156.68 72.08,-159.22 75.91,-165.08"/>
</g>
<!-- Node24 -->
<g id="node24" class="node">
<title>Node24</title>
<g id="a_node24"><a xlink:href="../../d9/df4/namespacetests.html#aacafde185abd8670abee51157f273dc2" target="_top" xlink:title="A Test to check correct functionality with an array sorted using std::sort.">
<polygon fill="white" stroke="black" points="69,-96.5 69,-115.5 135,-115.5 135,-96.5 69,-96.5"/>
<text text-anchor="middle" x="102" y="-103.5" font-family="Helvetica,sans-Serif" font-size="10.00">tests::test6</text>
</a>
</g>
</g>
<!-- Node1&#45;&gt;Node24 -->
<g id="edge37" class="edge">
<title>Node1&#45;&gt;Node24</title>
<path fill="none" stroke="midnightblue" d="M20.74,-216.45C27.43,-197.78 44.24,-155.88 69,-128 70.97,-125.78 73.21,-123.67 75.57,-121.7"/>
<polygon fill="midnightblue" stroke="midnightblue" points="77.88,-124.35 83.83,-115.59 73.71,-118.73 77.88,-124.35"/>
</g>
<!-- Node3 -->
<g id="node3" class="node">
<title>Node3</title>
<g id="a_node3"><a xlink:href="../../de/dcf/classoperations__on__datastructures_1_1reverse__binary__tree_1_1_binary_tree.html#a534645d1aabdf1a7e5897c85376f173d" target="_top" xlink:title="Adds a new Node to the Binary Tree.">
<polygon fill="white" stroke="black" points="172.5,-503 172.5,-533 355.5,-533 355.5,-503 172.5,-503"/>
<text text-anchor="start" x="180.5" y="-521" font-family="Helvetica,sans-Serif" font-size="10.00">operations_on_datastructures</text>
<text text-anchor="middle" x="264" y="-510" font-family="Helvetica,sans-Serif" font-size="10.00">::reverse_binary_tree::BinaryTree::add</text>
</a>
</g>
</g>
<!-- Node2&#45;&gt;Node3 -->
<g id="edge2" class="edge">
<title>Node2&#45;&gt;Node3</title>
<path fill="none" stroke="midnightblue" d="M116.31,-354.57C122.56,-359.54 129.77,-366.04 135,-373 157.7,-403.2 147.08,-420.76 171,-450 186.53,-468.98 208.47,-485.46 227.04,-497.45"/>
<polygon fill="midnightblue" stroke="midnightblue" points="225.23,-500.45 235.56,-502.8 228.95,-494.52 225.23,-500.45"/>
</g>
<!-- Node5 -->
<g id="node5" class="node">
<title>Node5</title>
<g id="a_node5"><a xlink:href="../../de/dcf/classoperations__on__datastructures_1_1reverse__binary__tree_1_1_binary_tree.html#a2e683b271d8d5cd63e0d09cf8aaa325c" target="_top" xlink:title="Level order traversal of a tree consists of visiting its elements, top to bottom, left to right....">
<polygon fill="white" stroke="black" points="393,-405.5 393,-446.5 554,-446.5 554,-405.5 393,-405.5"/>
<text text-anchor="start" x="401" y="-434.5" font-family="Helvetica,sans-Serif" font-size="10.00">operations_on_datastructures</text>
<text text-anchor="start" x="401" y="-423.5" font-family="Helvetica,sans-Serif" font-size="10.00">::reverse_binary_tree::BinaryTree</text>
<text text-anchor="middle" x="473.5" y="-412.5" font-family="Helvetica,sans-Serif" font-size="10.00">::get_level_order</text>
</a>
</g>
</g>
<!-- Node2&#45;&gt;Node5 -->
<g id="edge5" class="edge">
<title>Node2&#45;&gt;Node5</title>
<path fill="none" stroke="midnightblue" d="M114.98,-354.66C121.18,-359.86 128.74,-366.53 135,-373 152.57,-391.16 148.33,-405.84 171,-417 236.53,-449.26 320.16,-449.04 382.71,-442.15"/>
<polygon fill="midnightblue" stroke="midnightblue" points="383.43,-445.59 392.95,-440.95 382.61,-438.64 383.43,-445.59"/>
</g>
<!-- Node10 -->
<g id="node10" class="node">
<title>Node10</title>
<g id="a_node10"><a xlink:href="../../de/dcf/classoperations__on__datastructures_1_1reverse__binary__tree_1_1_binary_tree.html#a5cf972a2c994a4fa1a89fc77bd5ad503" target="_top" xlink:title="Prints all of the elements in the tree to stdout level&#45;by&#45;level, using the get_level_order() function...">
<polygon fill="white" stroke="black" points="171,-377 171,-407 357,-407 357,-377 171,-377"/>
<text text-anchor="start" x="179" y="-395" font-family="Helvetica,sans-Serif" font-size="10.00">operations_on_datastructures</text>
<text text-anchor="middle" x="264" y="-384" font-family="Helvetica,sans-Serif" font-size="10.00">::reverse_binary_tree::BinaryTree::print</text>
</a>
</g>
</g>
<!-- Node2&#45;&gt;Node10 -->
<g id="edge10" class="edge">
<title>Node2&#45;&gt;Node10</title>
<path fill="none" stroke="midnightblue" d="M131.36,-354.51C143.52,-358.5 157.92,-363.11 171,-367 179.1,-369.41 187.62,-371.85 196.08,-374.22"/>
<polygon fill="midnightblue" stroke="midnightblue" points="195.38,-377.65 205.95,-376.95 197.25,-370.91 195.38,-377.65"/>
</g>
<!-- Node11 -->
<g id="node11" class="node">
<title>Node11</title>
<g id="a_node11"><a xlink:href="../../de/dcf/classoperations__on__datastructures_1_1reverse__binary__tree_1_1_binary_tree.html#a1c0d27198372b36ef71bc58af8336b9c" target="_top" xlink:title=" ">
<polygon fill="white" stroke="black" points="183.5,-316.5 183.5,-357.5 344.5,-357.5 344.5,-316.5 183.5,-316.5"/>
<text text-anchor="start" x="191.5" y="-345.5" font-family="Helvetica,sans-Serif" font-size="10.00">operations_on_datastructures</text>
<text text-anchor="start" x="191.5" y="-334.5" font-family="Helvetica,sans-Serif" font-size="10.00">::reverse_binary_tree::BinaryTree</text>
<text text-anchor="middle" x="264" y="-323.5" font-family="Helvetica,sans-Serif" font-size="10.00">::reverse</text>
</a>
</g>
</g>
<!-- Node2&#45;&gt;Node11 -->
<g id="edge12" class="edge">
<title>Node2&#45;&gt;Node11</title>
<path fill="none" stroke="midnightblue" d="M135.38,-343.38C146.51,-342.82 159.58,-342.17 173.03,-341.5"/>
<polygon fill="midnightblue" stroke="midnightblue" points="173.55,-344.98 183.36,-340.98 173.2,-337.99 173.55,-344.98"/>
</g>
<!-- Node13 -->
<g id="node13" class="node">
<title>Node13</title>
<g id="a_node13"><a target="_blank" xlink:href="http://en.cppreference.com/w/cpp/container/vector/size.html#" xlink:title=" ">
<polygon fill="white" stroke="black" points="430,-228.5 430,-247.5 517,-247.5 517,-228.5 430,-228.5"/>
<text text-anchor="middle" x="473.5" y="-235.5" font-family="Helvetica,sans-Serif" font-size="10.00">std::vector::size</text>
</a>
</g>
</g>
<!-- Node2&#45;&gt;Node13 -->
<g id="edge15" class="edge">
<title>Node2&#45;&gt;Node13</title>
<path fill="none" stroke="midnightblue" d="M117.27,-335.44C130.63,-326.87 151.44,-314.53 171,-307 255.09,-274.65 358.47,-255.06 419.73,-245.41"/>
<polygon fill="midnightblue" stroke="midnightblue" points="420.58,-248.82 429.93,-243.83 419.51,-241.9 420.58,-248.82"/>
</g>
<!-- Node4 -->
<g id="node4" class="node">
<title>Node4</title>
<g id="a_node4"><a xlink:href="../../de/dcf/classoperations__on__datastructures_1_1reverse__binary__tree_1_1_binary_tree.html#adb2b6be741b0500ee75d89b6d06b5d50" target="_top" xlink:title="inserts a node in the Binary Tree, with the behaviouur of a Binary Search Tree.">
<polygon fill="white" stroke="black" points="393,-497.5 393,-538.5 554,-538.5 554,-497.5 393,-497.5"/>
<text text-anchor="start" x="401" y="-526.5" font-family="Helvetica,sans-Serif" font-size="10.00">operations_on_datastructures</text>
<text text-anchor="start" x="401" y="-515.5" font-family="Helvetica,sans-Serif" font-size="10.00">::reverse_binary_tree::BinaryTree</text>
<text text-anchor="middle" x="473.5" y="-504.5" font-family="Helvetica,sans-Serif" font-size="10.00">::insert</text>
</a>
</g>
</g>
<!-- Node3&#45;&gt;Node4 -->
<g id="edge3" class="edge">
<title>Node3&#45;&gt;Node4</title>
<path fill="none" stroke="midnightblue" d="M355.71,-518C364.66,-518 373.75,-518 382.69,-518"/>
<polygon fill="midnightblue" stroke="midnightblue" points="382.72,-521.5 392.72,-518 382.72,-514.5 382.72,-521.5"/>
</g>
<!-- Node4&#45;&gt;Node4 -->
<g id="edge4" class="edge">
<title>Node4&#45;&gt;Node4</title>
<path fill="none" stroke="midnightblue" d="M443.36,-538.86C440.07,-548.54 450.12,-557 473.5,-557 488.11,-557 497.52,-553.7 501.72,-548.86"/>
<polygon fill="midnightblue" stroke="midnightblue" points="505.19,-549.35 503.64,-538.86 498.31,-548.02 505.19,-549.35"/>
</g>
<!-- Node6 -->
<g id="node6" class="node">
<title>Node6</title>
<g id="a_node6"><a target="_blank" xlink:href="http://en.cppreference.com/w/cpp/container/queue/empty.html#" xlink:title=" ">
<polygon fill="white" stroke="black" points="590,-473.5 590,-492.5 685,-492.5 685,-473.5 590,-473.5"/>
<text text-anchor="middle" x="637.5" y="-480.5" font-family="Helvetica,sans-Serif" font-size="10.00">std::queue::empty</text>
</a>
</g>
</g>
<!-- Node5&#45;&gt;Node6 -->
<g id="edge6" class="edge">
<title>Node5&#45;&gt;Node6</title>
<path fill="none" stroke="midnightblue" d="M532.99,-446.58C555.31,-454.43 580.12,-463.16 599.86,-470.11"/>
<polygon fill="midnightblue" stroke="midnightblue" points="598.79,-473.44 609.38,-473.46 601.11,-466.84 598.79,-473.44"/>
</g>
<!-- Node7 -->
<g id="node7" class="node">
<title>Node7</title>
<g id="a_node7"><a target="_blank" xlink:href="http://en.cppreference.com/w/cpp/container/queue/front.html#" xlink:title=" ">
<polygon fill="white" stroke="black" points="593.5,-435.5 593.5,-454.5 681.5,-454.5 681.5,-435.5 593.5,-435.5"/>
<text text-anchor="middle" x="637.5" y="-442.5" font-family="Helvetica,sans-Serif" font-size="10.00">std::queue::front</text>
</a>
</g>
</g>
<!-- Node5&#45;&gt;Node7 -->
<g id="edge7" class="edge">
<title>Node5&#45;&gt;Node7</title>
<path fill="none" stroke="midnightblue" d="M554.08,-435.33C563.84,-436.48 573.64,-437.63 582.89,-438.71"/>
<polygon fill="midnightblue" stroke="midnightblue" points="582.74,-442.22 593.08,-439.91 583.56,-435.27 582.74,-442.22"/>
</g>
<!-- Node8 -->
<g id="node8" class="node">
<title>Node8</title>
<g id="a_node8"><a target="_blank" xlink:href="http://en.cppreference.com/w/cpp/container/queue/pop.html#" xlink:title=" ">
<polygon fill="white" stroke="black" points="595.5,-397.5 595.5,-416.5 679.5,-416.5 679.5,-397.5 595.5,-397.5"/>
<text text-anchor="middle" x="637.5" y="-404.5" font-family="Helvetica,sans-Serif" font-size="10.00">std::queue::pop</text>
</a>
</g>
</g>
<!-- Node5&#45;&gt;Node8 -->
<g id="edge8" class="edge">
<title>Node5&#45;&gt;Node8</title>
<path fill="none" stroke="midnightblue" d="M554.08,-416.67C564.65,-415.43 575.25,-414.18 585.17,-413.02"/>
<polygon fill="midnightblue" stroke="midnightblue" points="585.7,-416.48 595.22,-411.84 584.88,-409.53 585.7,-416.48"/>
</g>
<!-- Node9 -->
<g id="node9" class="node">
<title>Node9</title>
<g id="a_node9"><a target="_blank" xlink:href="http://en.cppreference.com/w/cpp/container/queue/push.html#" xlink:title=" ">
<polygon fill="white" stroke="black" points="593,-359.5 593,-378.5 682,-378.5 682,-359.5 593,-359.5"/>
<text text-anchor="middle" x="637.5" y="-366.5" font-family="Helvetica,sans-Serif" font-size="10.00">std::queue::push</text>
</a>
</g>
</g>
<!-- Node5&#45;&gt;Node9 -->
<g id="edge9" class="edge">
<title>Node5&#45;&gt;Node9</title>
<path fill="none" stroke="midnightblue" d="M532.99,-405.42C555.31,-397.57 580.12,-388.84 599.86,-381.89"/>
<polygon fill="midnightblue" stroke="midnightblue" points="601.11,-385.16 609.38,-378.54 598.79,-378.56 601.11,-385.16"/>
</g>
<!-- Node10&#45;&gt;Node5 -->
<g id="edge11" class="edge">
<title>Node10&#45;&gt;Node5</title>
<path fill="none" stroke="midnightblue" d="M356.62,-407.01C365.28,-408.43 374.05,-409.87 382.7,-411.29"/>
<polygon fill="midnightblue" stroke="midnightblue" points="382.34,-414.77 392.77,-412.94 383.47,-407.86 382.34,-414.77"/>
</g>
<!-- Node12 -->
<g id="node12" class="node">
<title>Node12</title>
<g id="a_node12"><a xlink:href="../../de/dcf/classoperations__on__datastructures_1_1reverse__binary__tree_1_1_binary_tree.html#af6f974381f523fdb981fc2d843bbf4a1" target="_top" xlink:title="Reverses a Binary Tree recursively by swapping the left and right subtrees and their children.">
<polygon fill="white" stroke="black" points="393,-316.5 393,-357.5 554,-357.5 554,-316.5 393,-316.5"/>
<text text-anchor="start" x="401" y="-345.5" font-family="Helvetica,sans-Serif" font-size="10.00">operations_on_datastructures</text>
<text text-anchor="start" x="401" y="-334.5" font-family="Helvetica,sans-Serif" font-size="10.00">::reverse_binary_tree::BinaryTree</text>
<text text-anchor="middle" x="473.5" y="-323.5" font-family="Helvetica,sans-Serif" font-size="10.00">::reverseBinaryTree</text>
</a>
</g>
</g>
<!-- Node11&#45;&gt;Node12 -->
<g id="edge13" class="edge">
<title>Node11&#45;&gt;Node12</title>
<path fill="none" stroke="midnightblue" d="M344.63,-337C357.08,-337 370.01,-337 382.67,-337"/>
<polygon fill="midnightblue" stroke="midnightblue" points="382.74,-340.5 392.74,-337 382.74,-333.5 382.74,-340.5"/>
</g>
<!-- Node12&#45;&gt;Node12 -->
<g id="edge14" class="edge">
<title>Node12&#45;&gt;Node12</title>
<path fill="none" stroke="midnightblue" d="M443.36,-357.86C440.07,-367.54 450.12,-376 473.5,-376 488.11,-376 497.52,-372.7 501.72,-367.86"/>
<polygon fill="midnightblue" stroke="midnightblue" points="505.19,-368.35 503.64,-357.86 498.31,-367.02 505.19,-368.35"/>
</g>
<!-- Node14&#45;&gt;Node5 -->
<g id="edge17" class="edge">
<title>Node14&#45;&gt;Node5</title>
<path fill="none" stroke="midnightblue" d="M135.34,-248.6C187.72,-248.05 291.79,-254.31 357,-307 386.7,-331 366.6,-357.42 393,-385 398.44,-390.68 404.83,-395.72 411.59,-400.14"/>
<polygon fill="midnightblue" stroke="midnightblue" points="409.94,-403.23 420.31,-405.42 413.57,-397.25 409.94,-403.23"/>
</g>
<!-- Node14&#45;&gt;Node10 -->
<g id="edge18" class="edge">
<title>Node14&#45;&gt;Node10</title>
<path fill="none" stroke="midnightblue" d="M105.78,-259.56C112.78,-281.96 133.36,-338.1 171,-367 173.34,-368.8 175.8,-370.46 178.35,-372.01"/>
<polygon fill="midnightblue" stroke="midnightblue" points="176.86,-375.19 187.33,-376.82 180.17,-369.01 176.86,-375.19"/>
</g>
<!-- Node14&#45;&gt;Node11 -->
<g id="edge19" class="edge">
<title>Node14&#45;&gt;Node11</title>
<path fill="none" stroke="midnightblue" d="M120.73,-259.64C143.54,-272.04 184.02,-294.06 215.99,-311.44"/>
<polygon fill="midnightblue" stroke="midnightblue" points="214.72,-314.73 225.18,-316.43 218.06,-308.58 214.72,-314.73"/>
</g>
<!-- Node14&#45;&gt;Node13 -->
<g id="edge20" class="edge">
<title>Node14&#45;&gt;Node13</title>
<path fill="none" stroke="midnightblue" d="M135.31,-241.95C146.53,-239.53 159.25,-237.2 171,-236 257.89,-227.15 359.59,-230.68 419.88,-234.22"/>
<polygon fill="midnightblue" stroke="midnightblue" points="419.73,-237.72 429.92,-234.83 420.15,-230.73 419.73,-237.72"/>
</g>
<!-- Node15&#45;&gt;Node3 -->
<g id="edge22" class="edge">
<title>Node15&#45;&gt;Node3</title>
<path fill="none" stroke="midnightblue" d="M107.28,-401.73C116.26,-421.04 138.93,-464.38 171,-488 176.54,-492.08 182.67,-495.63 189.05,-498.7"/>
<polygon fill="midnightblue" stroke="midnightblue" points="187.98,-502.06 198.54,-502.88 190.8,-495.65 187.98,-502.06"/>
</g>
<!-- Node15&#45;&gt;Node5 -->
<g id="edge23" class="edge">
<title>Node15&#45;&gt;Node5</title>
<path fill="none" stroke="midnightblue" d="M110.49,-401.75C121.82,-415.59 144.79,-440.34 171,-450 244.78,-477.19 335.4,-464.36 397.92,-449.03"/>
<polygon fill="midnightblue" stroke="midnightblue" points="398.87,-452.4 407.7,-446.55 397.15,-445.61 398.87,-452.4"/>
</g>
<!-- Node15&#45;&gt;Node10 -->
<g id="edge24" class="edge">
<title>Node15&#45;&gt;Node10</title>
<path fill="none" stroke="midnightblue" d="M135.38,-392C143.01,-392 151.55,-392 160.49,-392"/>
<polygon fill="midnightblue" stroke="midnightblue" points="160.74,-395.5 170.74,-392 160.74,-388.5 160.74,-395.5"/>
</g>
<!-- Node15&#45;&gt;Node11 -->
<g id="edge25" class="edge">
<title>Node15&#45;&gt;Node11</title>
<path fill="none" stroke="midnightblue" d="M129.78,-382.45C142.29,-378.01 157.39,-372.69 171,-368 177.79,-365.66 184.87,-363.24 191.96,-360.83"/>
<polygon fill="midnightblue" stroke="midnightblue" points="193.25,-364.08 201.59,-357.56 191,-357.45 193.25,-364.08"/>
</g>
<!-- Node17 -->
<g id="node17" class="node">
<title>Node17</title>
<g id="a_node17"><a xlink:href="../../da/d6d/namespaceoperations__on__datastructures.html#a2b8ff06a84b041457873840bf82e2d74" target="_top" xlink:title="Gets the union of two sorted arrays, and returns them in a vector.">
<polygon fill="white" stroke="black" points="191.5,-153 191.5,-183 336.5,-183 336.5,-153 191.5,-153"/>
<text text-anchor="start" x="199.5" y="-171" font-family="Helvetica,sans-Serif" font-size="10.00">operations_on_datastructures</text>
<text text-anchor="middle" x="264" y="-160" font-family="Helvetica,sans-Serif" font-size="10.00">::get_union</text>
</a>
</g>
</g>
<!-- Node16&#45;&gt;Node17 -->
<g id="edge27" class="edge">
<title>Node16&#45;&gt;Node17</title>
<path fill="none" stroke="midnightblue" d="M135.38,-181.56C148.76,-180.14 164.94,-178.42 181.22,-176.69"/>
<polygon fill="midnightblue" stroke="midnightblue" points="181.77,-180.15 191.35,-175.61 181.03,-173.19 181.77,-180.15"/>
</g>
<!-- Node20 -->
<g id="node20" class="node">
<title>Node20</title>
<g id="a_node20"><a xlink:href="../../d8/ddf/sieve__of__eratosthenes_8cpp.html#a235843bdf82d2a6cc8596ae8fd3b8df9" target="_top" xlink:title=" ">
<polygon fill="white" stroke="black" points="246.5,-114.5 246.5,-133.5 281.5,-133.5 281.5,-114.5 246.5,-114.5"/>
<text text-anchor="middle" x="264" y="-121.5" font-family="Helvetica,sans-Serif" font-size="10.00">print</text>
</a>
</g>
</g>
<!-- Node16&#45;&gt;Node20 -->
<g id="edge31" class="edge">
<title>Node16&#45;&gt;Node20</title>
<path fill="none" stroke="midnightblue" d="M119.3,-175.37C124.34,-172.38 129.91,-169.07 135,-166 151.06,-156.32 153.6,-150.98 171,-144 192.15,-135.52 217.55,-130.34 236.3,-127.39"/>
<polygon fill="midnightblue" stroke="midnightblue" points="236.83,-130.85 246.22,-125.93 235.82,-123.92 236.83,-130.85"/>
</g>
<!-- Node17&#45;&gt;Node13 -->
<g id="edge30" class="edge">
<title>Node17&#45;&gt;Node13</title>
<path fill="none" stroke="midnightblue" d="M317.79,-183.08C330.81,-187.38 344.58,-192.43 357,-198 373.9,-205.58 375.81,-212.11 393,-219 401.51,-222.41 410.79,-225.31 419.91,-227.74"/>
<polygon fill="midnightblue" stroke="midnightblue" points="419.15,-231.16 429.7,-230.2 420.85,-224.37 419.15,-231.16"/>
</g>
<!-- Node18 -->
<g id="node18" class="node">
<title>Node18</title>
<g id="a_node18"><a target="_blank" xlink:href="http://en.cppreference.com/w/cpp/container/vector/back.html#" xlink:title=" ">
<polygon fill="white" stroke="black" points="428.5,-190.5 428.5,-209.5 518.5,-209.5 518.5,-190.5 428.5,-190.5"/>
<text text-anchor="middle" x="473.5" y="-197.5" font-family="Helvetica,sans-Serif" font-size="10.00">std::vector::back</text>
</a>
</g>
</g>
<!-- Node17&#45;&gt;Node18 -->
<g id="edge28" class="edge">
<title>Node17&#45;&gt;Node18</title>
<path fill="none" stroke="midnightblue" d="M336.7,-179.06C363.47,-183.19 393.39,-187.8 418.33,-191.65"/>
<polygon fill="midnightblue" stroke="midnightblue" points="417.91,-195.12 428.33,-193.19 418.98,-188.2 417.91,-195.12"/>
</g>
<!-- Node19 -->
<g id="node19" class="node">
<title>Node19</title>
<g id="a_node19"><a target="_blank" xlink:href="http://en.cppreference.com/w/cpp/container/vector/push_back.html#" xlink:title=" ">
<polygon fill="white" stroke="black" points="415.5,-152.5 415.5,-171.5 531.5,-171.5 531.5,-152.5 415.5,-152.5"/>
<text text-anchor="middle" x="473.5" y="-159.5" font-family="Helvetica,sans-Serif" font-size="10.00">std::vector::push_back</text>
</a>
</g>
</g>
<!-- Node17&#45;&gt;Node19 -->
<g id="edge29" class="edge">
<title>Node17&#45;&gt;Node19</title>
<path fill="none" stroke="midnightblue" d="M336.7,-165.93C358.85,-165.29 383.15,-164.58 405.01,-163.95"/>
<polygon fill="midnightblue" stroke="midnightblue" points="405.29,-167.44 415.19,-163.66 405.09,-160.45 405.29,-167.44"/>
</g>
<!-- Node21 -->
<g id="node21" class="node">
<title>Node21</title>
<g id="a_node21"><a target="_blank" xlink:href="http://en.cppreference.com/w/cpp/io/manip/endl.html#" xlink:title=" ">
<polygon fill="white" stroke="black" points="446.5,-114.5 446.5,-133.5 500.5,-133.5 500.5,-114.5 446.5,-114.5"/>
<text text-anchor="middle" x="473.5" y="-121.5" font-family="Helvetica,sans-Serif" font-size="10.00">std::endl</text>
</a>
</g>
</g>
<!-- Node20&#45;&gt;Node21 -->
<g id="edge32" class="edge">
<title>Node20&#45;&gt;Node21</title>
<path fill="none" stroke="midnightblue" d="M281.63,-124C315,-124 390.8,-124 436.19,-124"/>
<polygon fill="midnightblue" stroke="midnightblue" points="436.22,-127.5 446.22,-124 436.22,-120.5 436.22,-127.5"/>
</g>
<!-- Node22 -->
<g id="node22" class="node">
<title>Node22</title>
<g id="a_node22"><a xlink:href="../../db/d93/check__prime_8cpp.html#aa18b3517017d99bb4024853bddba5532" target="_top" xlink:title=" ">
<polygon fill="white" stroke="black" points="447,-76.5 447,-95.5 500,-95.5 500,-76.5 447,-76.5"/>
<text text-anchor="middle" x="473.5" y="-83.5" font-family="Helvetica,sans-Serif" font-size="10.00">is_prime</text>
</a>
</g>
</g>
<!-- Node20&#45;&gt;Node22 -->
<g id="edge33" class="edge">
<title>Node20&#45;&gt;Node22</title>
<path fill="none" stroke="midnightblue" d="M281.63,-120.95C315.18,-114.81 391.61,-100.81 436.92,-92.52"/>
<polygon fill="midnightblue" stroke="midnightblue" points="437.7,-95.93 446.91,-90.69 436.44,-89.05 437.7,-95.93"/>
</g>
<!-- Node23&#45;&gt;Node17 -->
<g id="edge35" class="edge">
<title>Node23&#45;&gt;Node17</title>
<path fill="none" stroke="midnightblue" d="M135.38,-151.25C148.76,-153.01 164.94,-155.13 181.22,-157.27"/>
<polygon fill="midnightblue" stroke="midnightblue" points="180.98,-160.76 191.35,-158.6 181.89,-153.82 180.98,-160.76"/>
</g>
<!-- Node23&#45;&gt;Node20 -->
<g id="edge36" class="edge">
<title>Node23&#45;&gt;Node20</title>
<path fill="none" stroke="midnightblue" d="M135.38,-142.35C165.04,-138.08 208.45,-131.84 236.21,-127.85"/>
<polygon fill="midnightblue" stroke="midnightblue" points="236.97,-131.28 246.37,-126.39 235.97,-124.35 236.97,-131.28"/>
</g>
<!-- Node24&#45;&gt;Node17 -->
<g id="edge40" class="edge">
<title>Node24&#45;&gt;Node17</title>
<path fill="none" stroke="midnightblue" d="M118.16,-115.59C131.62,-123.77 152.04,-135.39 171,-143 177.19,-145.49 183.71,-147.81 190.31,-149.96"/>
<polygon fill="midnightblue" stroke="midnightblue" points="189.41,-153.34 200,-152.98 191.5,-146.66 189.41,-153.34"/>
</g>
<!-- Node24&#45;&gt;Node20 -->
<g id="edge41" class="edge">
<title>Node24&#45;&gt;Node20</title>
<path fill="none" stroke="midnightblue" d="M135.38,-109.64C165.04,-112.98 208.45,-117.86 236.21,-120.99"/>
<polygon fill="midnightblue" stroke="midnightblue" points="236.04,-124.49 246.37,-122.13 236.82,-117.53 236.04,-124.49"/>
</g>
<!-- Node25 -->
<g id="node25" class="node">
<title>Node25</title>
<g id="a_node25"><a target="_blank" xlink:href="http://en.cppreference.com/w/cpp/container/vector/begin.html#" xlink:title=" ">
<polygon fill="white" stroke="black" points="218,-0.5 218,-19.5 310,-19.5 310,-0.5 218,-0.5"/>
<text text-anchor="middle" x="264" y="-7.5" font-family="Helvetica,sans-Serif" font-size="10.00">std::vector::begin</text>
</a>
</g>
</g>
<!-- Node24&#45;&gt;Node25 -->
<g id="edge38" class="edge">
<title>Node24&#45;&gt;Node25</title>
<path fill="none" stroke="midnightblue" d="M108.54,-96.41C118.67,-79.82 141.84,-45.91 171,-29 182.13,-22.54 195.14,-18.26 207.82,-15.43"/>
<polygon fill="midnightblue" stroke="midnightblue" points="208.73,-18.82 217.86,-13.45 207.38,-11.95 208.73,-18.82"/>
</g>
<!-- Node26 -->
<g id="node26" class="node">
<title>Node26</title>
<g id="a_node26"><a target="_blank" xlink:href="http://en.cppreference.com/w/cpp/container/vector/end.html#" xlink:title=" ">
<polygon fill="white" stroke="black" points="221.5,-76.5 221.5,-95.5 306.5,-95.5 306.5,-76.5 221.5,-76.5"/>
<text text-anchor="middle" x="264" y="-83.5" font-family="Helvetica,sans-Serif" font-size="10.00">std::vector::end</text>
</a>
</g>
</g>
<!-- Node24&#45;&gt;Node26 -->
<g id="edge39" class="edge">
<title>Node24&#45;&gt;Node26</title>
<path fill="none" stroke="midnightblue" d="M135.38,-101.95C157.13,-99.23 186.26,-95.59 211.2,-92.47"/>
<polygon fill="midnightblue" stroke="midnightblue" points="211.75,-95.93 221.24,-91.22 210.88,-88.99 211.75,-95.93"/>
</g>
<!-- Node27 -->
<g id="node27" class="node">
<title>Node27</title>
<g id="a_node27"><a target="_blank" xlink:href="http://en.cppreference.com/w/cpp/algorithm/sort.html#" xlink:title=" ">
<polygon fill="white" stroke="black" points="237.5,-38.5 237.5,-57.5 290.5,-57.5 290.5,-38.5 237.5,-38.5"/>
<text text-anchor="middle" x="264" y="-45.5" font-family="Helvetica,sans-Serif" font-size="10.00">std::sort</text>
</a>
</g>
</g>
<!-- Node24&#45;&gt;Node27 -->
<g id="edge42" class="edge">
<title>Node24&#45;&gt;Node27</title>
<path fill="none" stroke="midnightblue" d="M116.68,-96.41C129.97,-87.52 151.02,-74.57 171,-67 188.93,-60.2 209.8,-55.64 227.13,-52.7"/>
<polygon fill="midnightblue" stroke="midnightblue" points="228.07,-56.09 237.4,-51.07 226.98,-49.18 228.07,-56.09"/>
</g>
</g>
</svg>
        <g id="navigator" transform="translate(0 0)" fill="#404254">
                <rect fill="#f2f5e9" fill-opacity="0.5" stroke="#606060" stroke-width=".5" x="0" y="0" width="60" height="60"/>
                <use id="zoomplus" xlink:href="#zoomPlus" x="17" y="9" onmousedown="handleZoom(evt,'in')"/>
                <use id="zoomminus" xlink:href="#zoomMin" x="42" y="9" onmousedown="handleZoom(evt,'out')"/>
                <use id="reset" xlink:href="#resetDef" x="30" y="36" onmousedown="handleReset()"/>
                <g id="arrowUp" xlink:href="#dirArrow" transform="translate(30 24)" onmousedown="handlePan(0,-1)">
                  <use xlink:href="#rim" fill="#404040">
                        <set attributeName="fill" to="#808080" begin="arrowUp.mouseover" end="arrowUp.mouseout"/>
                  </use>
                  <path fill="none" stroke="white" stroke-width="1.5" d="M0,-3.0v7 M-2.5,-0.5L0,-3.0L2.5,-0.5"/>
                </g>
                <g id="arrowRight" xlink:href="#dirArrow" transform="rotate(90) translate(36 -43)" onmousedown="handlePan(1,0)">
                  <use xlink:href="#rim" fill="#404040">
                        <set attributeName="fill" to="#808080" begin="arrowRight.mouseover" end="arrowRight.mouseout"/>
                  </use>
                  <path fill="none" stroke="white" stroke-width="1.5" d="M0,-3.0v7 M-2.5,-0.5L0,-3.0L2.5,-0.5"/>
                </g>
                <g id="arrowDown" xlink:href="#dirArrow" transform="rotate(180) translate(-30 -48)" onmousedown="handlePan(0,1)">
                  <use xlink:href="#rim" fill="#404040">
                        <set attributeName="fill" to="#808080" begin="arrowDown.mouseover" end="arrowDown.mouseout"/>
                  </use>
                  <path fill="none" stroke="white" stroke-width="1.5" d="M0,-3.0v7 M-2.5,-0.5L0,-3.0L2.5,-0.5"/>
                </g>
                <g id="arrowLeft" xlink:href="#dirArrow" transform="rotate(270) translate(-36 17)" onmousedown="handlePan(-1,0)">
                  <use xlink:href="#rim" fill="#404040">
                        <set attributeName="fill" to="#808080" begin="arrowLeft.mouseover" end="arrowLeft.mouseout"/>
                  </use>
                  <path fill="none" stroke="white" stroke-width="1.5" d="M0,-3.0v7 M-2.5,-0.5L0,-3.0L2.5,-0.5"/>
                </g>
        </g>
        <svg viewBox="0 0 15 15" width="100%" height="30px" preserveAspectRatio="xMaxYMin meet">
         <g id="arrow_out" transform="scale(0.3 0.3)">
          <a xlink:href="union__of__two__arrays_8cpp_aa8dca7b867074164d5f45b0f3851269d_cgraph_org.svg" target="_base">
           <rect id="button" ry="5" rx="5" y="6" x="6" height="38" width="38"
                fill="#f2f5e9" fill-opacity="0.5" stroke="#606060" stroke-width="1.0"/>
           <path id="arrow"
             d="M 11.500037,31.436501 C 11.940474,20.09759 22.043105,11.32322 32.158766,21.979434 L 37.068811,17.246167 C 37.068811,17.246167 37.088388,32 37.088388,32 L 22.160133,31.978069 C 22.160133,31.978069 26.997745,27.140456 26.997745,27.140456 C 18.528582,18.264221 13.291696,25.230495 11.500037,31.436501 z"
             style="fill:#404040;"/>
          </a>
         </g>
        </svg>
</svg>
