<?xml version="1.0" encoding="UTF-8" standalone="no"?>
<!DOCTYPE svg PUBLIC "-//W3C//DTD SVG 1.1//EN"
 "http://www.w3.org/Graphics/SVG/1.1/DTD/svg11.dtd">
<!-- Generated by graphviz version 5.0.0 (20220707.1540)
 -->
<!-- Title: main Pages: 1 -->
<svg width="767pt" height="565pt"
 viewBox="0.00 0.00 767.00 565.00" xmlns="http://www.w3.org/2000/svg" xmlns:xlink="http://www.w3.org/1999/xlink">
<g id="graph0" class="graph" transform="scale(1 1) rotate(0) translate(4 561)">
<title>main</title>
<polygon fill="white" stroke="transparent" points="-4,4 -4,-561 763,-561 763,4 -4,4"/>
<!-- Node1 -->
<g id="node1" class="node">
<title>Node1</title>
<g id="a_node1"><a xlink:title="main function">
<polygon fill="#bfbfbf" stroke="black" points="0,-216.5 0,-235.5 38,-235.5 38,-216.5 0,-216.5"/>
<text text-anchor="middle" x="19" y="-223.5" font-family="Helvetica,sans-Serif" font-size="10.00">main</text>
</a>
</g>
</g>
<!-- Node2 -->
<g id="node2" class="node">
<title>Node2</title>
<g id="a_node2"><a xlink:href="../../d8/d9c/union__of__two__arrays_8cpp.html#aa8dca7b867074164d5f45b0f3851269d" target="_top" xlink:title="Function to test the correctness of get_union() function.">
<polygon fill="white" stroke="black" points="74,-216.5 74,-235.5 107,-235.5 107,-216.5 74,-216.5"/>
<text text-anchor="middle" x="90.5" y="-223.5" font-family="Helvetica,sans-Serif" font-size="10.00">test</text>
</a>
</g>
</g>
<!-- Node1&#45;&gt;Node2 -->
<g id="edge1" class="edge">
<title>Node1&#45;&gt;Node2</title>
<path fill="none" stroke="midnightblue" d="M38.26,-226C46.07,-226 55.31,-226 63.79,-226"/>
<polygon fill="midnightblue" stroke="midnightblue" points="63.95,-229.5 73.95,-226 63.95,-222.5 63.95,-229.5"/>
</g>
<!-- Node3 -->
<g id="node3" class="node">
<title>Node3</title>
<g id="a_node3"><a xlink:href="../../d9/df4/namespacetests.html#a167c24bd817469ae47358d12e034f2d5" target="_top" xlink:title="&lt; Use the BinaryTree">
<polygon fill="white" stroke="black" points="143,-335.5 143,-354.5 209,-354.5 209,-335.5 143,-335.5"/>
<text text-anchor="middle" x="176" y="-342.5" font-family="Helvetica,sans-Serif" font-size="10.00">tests::test1</text>
</a>
</g>
</g>
<!-- Node2&#45;&gt;Node3 -->
<g id="edge2" class="edge">
<title>Node2&#45;&gt;Node3</title>
<path fill="none" stroke="midnightblue" d="M98.33,-235.74C112.35,-255.71 144.53,-301.57 162.42,-327.07"/>
<polygon fill="midnightblue" stroke="midnightblue" points="159.7,-329.28 168.31,-335.46 165.43,-325.26 159.7,-329.28"/>
</g>
<!-- Node15 -->
<g id="node15" class="node">
<title>Node15</title>
<g id="a_node15"><a xlink:href="../../d9/df4/namespacetests.html#abdd77344d4af8fd56d14a5cabbf2f669" target="_top" xlink:title="A Test to check an edge case (NULL root element)">
<polygon fill="white" stroke="black" points="143,-240.5 143,-259.5 209,-259.5 209,-240.5 143,-240.5"/>
<text text-anchor="middle" x="176" y="-247.5" font-family="Helvetica,sans-Serif" font-size="10.00">tests::test2</text>
</a>
</g>
</g>
<!-- Node2&#45;&gt;Node15 -->
<g id="edge17" class="edge">
<title>Node2&#45;&gt;Node15</title>
<path fill="none" stroke="midnightblue" d="M107.21,-230.51C114.56,-232.63 123.71,-235.26 132.89,-237.9"/>
<polygon fill="midnightblue" stroke="midnightblue" points="132.19,-241.34 142.77,-240.73 134.12,-234.61 132.19,-241.34"/>
</g>
<!-- Node16 -->
<g id="node16" class="node">
<title>Node16</title>
<g id="a_node16"><a xlink:href="../../d9/df4/namespacetests.html#aa515639572647508b94986489aab6d76" target="_top" xlink:title="A Test to check correct reversal of a Binary Tree.">
<polygon fill="white" stroke="black" points="143,-382.5 143,-401.5 209,-401.5 209,-382.5 143,-382.5"/>
<text text-anchor="middle" x="176" y="-389.5" font-family="Helvetica,sans-Serif" font-size="10.00">tests::test3</text>
</a>
</g>
</g>
<!-- Node2&#45;&gt;Node16 -->
<g id="edge22" class="edge">
<title>Node2&#45;&gt;Node16</title>
<path fill="none" stroke="midnightblue" d="M93.41,-235.8C98.4,-259.54 113.49,-321.29 143,-364 145.89,-368.18 149.54,-372.14 153.33,-375.69"/>
<polygon fill="midnightblue" stroke="midnightblue" points="151.25,-378.52 161.12,-382.36 155.8,-373.2 151.25,-378.52"/>
</g>
<!-- Node17 -->
<g id="node17" class="node">
<title>Node17</title>
<g id="a_node17"><a xlink:href="../../d9/df4/namespacetests.html#a2b9769e44683dcb67fe1083ad91e134d" target="_top" xlink:title="A Test to check correct functionality with duplicate values.">
<polygon fill="white" stroke="black" points="143,-175.5 143,-194.5 209,-194.5 209,-175.5 143,-175.5"/>
<text text-anchor="middle" x="176" y="-182.5" font-family="Helvetica,sans-Serif" font-size="10.00">tests::test4</text>
</a>
</g>
</g>
<!-- Node2&#45;&gt;Node17 -->
<g id="edge27" class="edge">
<title>Node2&#45;&gt;Node17</title>
<path fill="none" stroke="midnightblue" d="M107.21,-218.29C118.23,-212.88 133.29,-205.48 146.41,-199.04"/>
<polygon fill="midnightblue" stroke="midnightblue" points="148.11,-202.1 155.54,-194.55 145.02,-195.82 148.11,-202.1"/>
</g>
<!-- Node24 -->
<g id="node24" class="node">
<title>Node24</title>
<g id="a_node24"><a xlink:href="../../d9/df4/namespacetests.html#af7b81d7a1534216af6a36a80135beb86" target="_top" xlink:title="A Test to check correct functionality with a harder test case.">
<polygon fill="white" stroke="black" points="143,-137.5 143,-156.5 209,-156.5 209,-137.5 143,-137.5"/>
<text text-anchor="middle" x="176" y="-144.5" font-family="Helvetica,sans-Serif" font-size="10.00">tests::test5</text>
</a>
</g>
</g>
<!-- Node2&#45;&gt;Node24 -->
<g id="edge35" class="edge">
<title>Node2&#45;&gt;Node24</title>
<path fill="none" stroke="midnightblue" d="M98.34,-216.2C107.49,-203.56 124.71,-181.36 143,-166 144.52,-164.72 146.14,-163.48 147.81,-162.28"/>
<polygon fill="midnightblue" stroke="midnightblue" points="149.91,-165.08 156.37,-156.68 146.08,-159.22 149.91,-165.08"/>
</g>
<!-- Node25 -->
<g id="node25" class="node">
<title>Node25</title>
<g id="a_node25"><a xlink:href="../../d9/df4/namespacetests.html#aacafde185abd8670abee51157f273dc2" target="_top" xlink:title="A Test to check correct functionality with an array sorted using std::sort.">
<polygon fill="white" stroke="black" points="143,-96.5 143,-115.5 209,-115.5 209,-96.5 143,-96.5"/>
<text text-anchor="middle" x="176" y="-103.5" font-family="Helvetica,sans-Serif" font-size="10.00">tests::test6</text>
</a>
</g>
</g>
<!-- Node2&#45;&gt;Node25 -->
<g id="edge38" class="edge">
<title>Node2&#45;&gt;Node25</title>
<path fill="none" stroke="midnightblue" d="M94.74,-216.45C101.43,-197.78 118.24,-155.88 143,-128 144.97,-125.78 147.21,-123.67 149.57,-121.7"/>
<polygon fill="midnightblue" stroke="midnightblue" points="151.88,-124.35 157.83,-115.59 147.71,-118.73 151.88,-124.35"/>
</g>
<!-- Node4 -->
<g id="node4" class="node">
<title>Node4</title>
<g id="a_node4"><a xlink:href="../../de/dcf/classoperations__on__datastructures_1_1reverse__binary__tree_1_1_binary_tree.html#a534645d1aabdf1a7e5897c85376f173d" target="_top" xlink:title="Adds a new Node to the Binary Tree.">
<polygon fill="white" stroke="black" points="246.5,-503 246.5,-533 429.5,-533 429.5,-503 246.5,-503"/>
<text text-anchor="start" x="254.5" y="-521" font-family="Helvetica,sans-Serif" font-size="10.00">operations_on_datastructures</text>
<text text-anchor="middle" x="338" y="-510" font-family="Helvetica,sans-Serif" font-size="10.00">::reverse_binary_tree::BinaryTree::add</text>
</a>
</g>
</g>
<!-- Node3&#45;&gt;Node4 -->
<g id="edge3" class="edge">
<title>Node3&#45;&gt;Node4</title>
<path fill="none" stroke="midnightblue" d="M190.31,-354.57C196.56,-359.54 203.77,-366.04 209,-373 231.7,-403.2 221.08,-420.76 245,-450 260.53,-468.98 282.47,-485.46 301.04,-497.45"/>
<polygon fill="midnightblue" stroke="midnightblue" points="299.23,-500.45 309.56,-502.8 302.95,-494.52 299.23,-500.45"/>
</g>
<!-- Node6 -->
<g id="node6" class="node">
<title>Node6</title>
<g id="a_node6"><a xlink:href="../../de/dcf/classoperations__on__datastructures_1_1reverse__binary__tree_1_1_binary_tree.html#a2e683b271d8d5cd63e0d09cf8aaa325c" target="_top" xlink:title="Level order traversal of a tree consists of visiting its elements, top to bottom, left to right....">
<polygon fill="white" stroke="black" points="467,-405.5 467,-446.5 628,-446.5 628,-405.5 467,-405.5"/>
<text text-anchor="start" x="475" y="-434.5" font-family="Helvetica,sans-Serif" font-size="10.00">operations_on_datastructures</text>
<text text-anchor="start" x="475" y="-423.5" font-family="Helvetica,sans-Serif" font-size="10.00">::reverse_binary_tree::BinaryTree</text>
<text text-anchor="middle" x="547.5" y="-412.5" font-family="Helvetica,sans-Serif" font-size="10.00">::get_level_order</text>
</a>
</g>
</g>
<!-- Node3&#45;&gt;Node6 -->
<g id="edge6" class="edge">
<title>Node3&#45;&gt;Node6</title>
<path fill="none" stroke="midnightblue" d="M188.98,-354.66C195.18,-359.86 202.74,-366.53 209,-373 226.57,-391.16 222.33,-405.84 245,-417 310.53,-449.26 394.16,-449.04 456.71,-442.15"/>
<polygon fill="midnightblue" stroke="midnightblue" points="457.43,-445.59 466.95,-440.95 456.61,-438.64 457.43,-445.59"/>
</g>
<!-- Node11 -->
<g id="node11" class="node">
<title>Node11</title>
<g id="a_node11"><a xlink:href="../../de/dcf/classoperations__on__datastructures_1_1reverse__binary__tree_1_1_binary_tree.html#a5cf972a2c994a4fa1a89fc77bd5ad503" target="_top" xlink:title="Prints all of the elements in the tree to stdout level&#45;by&#45;level, using the get_level_order() function...">
<polygon fill="white" stroke="black" points="245,-377 245,-407 431,-407 431,-377 245,-377"/>
<text text-anchor="start" x="253" y="-395" font-family="Helvetica,sans-Serif" font-size="10.00">operations_on_datastructures</text>
<text text-anchor="middle" x="338" y="-384" font-family="Helvetica,sans-Serif" font-size="10.00">::reverse_binary_tree::BinaryTree::print</text>
</a>
</g>
</g>
<!-- Node3&#45;&gt;Node11 -->
<g id="edge11" class="edge">
<title>Node3&#45;&gt;Node11</title>
<path fill="none" stroke="midnightblue" d="M205.36,-354.51C217.52,-358.5 231.92,-363.11 245,-367 253.1,-369.41 261.62,-371.85 270.08,-374.22"/>
<polygon fill="midnightblue" stroke="midnightblue" points="269.38,-377.65 279.95,-376.95 271.25,-370.91 269.38,-377.65"/>
</g>
<!-- Node12 -->
<g id="node12" class="node">
<title>Node12</title>
<g id="a_node12"><a xlink:href="../../de/dcf/classoperations__on__datastructures_1_1reverse__binary__tree_1_1_binary_tree.html#a1c0d27198372b36ef71bc58af8336b9c" target="_top" xlink:title=" ">
<polygon fill="white" stroke="black" points="257.5,-316.5 257.5,-357.5 418.5,-357.5 418.5,-316.5 257.5,-316.5"/>
<text text-anchor="start" x="265.5" y="-345.5" font-family="Helvetica,sans-Serif" font-size="10.00">operations_on_datastructures</text>
<text text-anchor="start" x="265.5" y="-334.5" font-family="Helvetica,sans-Serif" font-size="10.00">::reverse_binary_tree::BinaryTree</text>
<text text-anchor="middle" x="338" y="-323.5" font-family="Helvetica,sans-Serif" font-size="10.00">::reverse</text>
</a>
</g>
</g>
<!-- Node3&#45;&gt;Node12 -->
<g id="edge13" class="edge">
<title>Node3&#45;&gt;Node12</title>
<path fill="none" stroke="midnightblue" d="M209.38,-343.38C220.51,-342.82 233.58,-342.17 247.03,-341.5"/>
<polygon fill="midnightblue" stroke="midnightblue" points="247.55,-344.98 257.36,-340.98 247.2,-337.99 247.55,-344.98"/>
</g>
<!-- Node14 -->
<g id="node14" class="node">
<title>Node14</title>
<g id="a_node14"><a target="_blank" xlink:href="http://en.cppreference.com/w/cpp/container/vector/size.html#" xlink:title=" ">
<polygon fill="white" stroke="black" points="504,-228.5 504,-247.5 591,-247.5 591,-228.5 504,-228.5"/>
<text text-anchor="middle" x="547.5" y="-235.5" font-family="Helvetica,sans-Serif" font-size="10.00">std::vector::size</text>
</a>
</g>
</g>
<!-- Node3&#45;&gt;Node14 -->
<g id="edge16" class="edge">
<title>Node3&#45;&gt;Node14</title>
<path fill="none" stroke="midnightblue" d="M191.27,-335.44C204.63,-326.87 225.44,-314.53 245,-307 329.09,-274.65 432.47,-255.06 493.73,-245.41"/>
<polygon fill="midnightblue" stroke="midnightblue" points="494.58,-248.82 503.93,-243.83 493.51,-241.9 494.58,-248.82"/>
</g>
<!-- Node5 -->
<g id="node5" class="node">
<title>Node5</title>
<g id="a_node5"><a xlink:href="../../de/dcf/classoperations__on__datastructures_1_1reverse__binary__tree_1_1_binary_tree.html#adb2b6be741b0500ee75d89b6d06b5d50" target="_top" xlink:title="inserts a node in the Binary Tree, with the behaviouur of a Binary Search Tree.">
<polygon fill="white" stroke="black" points="467,-497.5 467,-538.5 628,-538.5 628,-497.5 467,-497.5"/>
<text text-anchor="start" x="475" y="-526.5" font-family="Helvetica,sans-Serif" font-size="10.00">operations_on_datastructures</text>
<text text-anchor="start" x="475" y="-515.5" font-family="Helvetica,sans-Serif" font-size="10.00">::reverse_binary_tree::BinaryTree</text>
<text text-anchor="middle" x="547.5" y="-504.5" font-family="Helvetica,sans-Serif" font-size="10.00">::insert</text>
</a>
</g>
</g>
<!-- Node4&#45;&gt;Node5 -->
<g id="edge4" class="edge">
<title>Node4&#45;&gt;Node5</title>
<path fill="none" stroke="midnightblue" d="M429.71,-518C438.66,-518 447.75,-518 456.69,-518"/>
<polygon fill="midnightblue" stroke="midnightblue" points="456.72,-521.5 466.72,-518 456.72,-514.5 456.72,-521.5"/>
</g>
<!-- Node5&#45;&gt;Node5 -->
<g id="edge5" class="edge">
<title>Node5&#45;&gt;Node5</title>
<path fill="none" stroke="midnightblue" d="M517.36,-538.86C514.07,-548.54 524.12,-557 547.5,-557 562.11,-557 571.52,-553.7 575.72,-548.86"/>
<polygon fill="midnightblue" stroke="midnightblue" points="579.19,-549.35 577.64,-538.86 572.31,-548.02 579.19,-549.35"/>
</g>
<!-- Node7 -->
<g id="node7" class="node">
<title>Node7</title>
<g id="a_node7"><a target="_blank" xlink:href="http://en.cppreference.com/w/cpp/container/queue/empty.html#" xlink:title=" ">
<polygon fill="white" stroke="black" points="664,-473.5 664,-492.5 759,-492.5 759,-473.5 664,-473.5"/>
<text text-anchor="middle" x="711.5" y="-480.5" font-family="Helvetica,sans-Serif" font-size="10.00">std::queue::empty</text>
</a>
</g>
</g>
<!-- Node6&#45;&gt;Node7 -->
<g id="edge7" class="edge">
<title>Node6&#45;&gt;Node7</title>
<path fill="none" stroke="midnightblue" d="M606.99,-446.58C629.31,-454.43 654.12,-463.16 673.86,-470.11"/>
<polygon fill="midnightblue" stroke="midnightblue" points="672.79,-473.44 683.38,-473.46 675.11,-466.84 672.79,-473.44"/>
</g>
<!-- Node8 -->
<g id="node8" class="node">
<title>Node8</title>
<g id="a_node8"><a target="_blank" xlink:href="http://en.cppreference.com/w/cpp/container/queue/front.html#" xlink:title=" ">
<polygon fill="white" stroke="black" points="667.5,-435.5 667.5,-454.5 755.5,-454.5 755.5,-435.5 667.5,-435.5"/>
<text text-anchor="middle" x="711.5" y="-442.5" font-family="Helvetica,sans-Serif" font-size="10.00">std::queue::front</text>
</a>
</g>
</g>
<!-- Node6&#45;&gt;Node8 -->
<g id="edge8" class="edge">
<title>Node6&#45;&gt;Node8</title>
<path fill="none" stroke="midnightblue" d="M628.08,-435.33C637.84,-436.48 647.64,-437.63 656.89,-438.71"/>
<polygon fill="midnightblue" stroke="midnightblue" points="656.74,-442.22 667.08,-439.91 657.56,-435.27 656.74,-442.22"/>
</g>
<!-- Node9 -->
<g id="node9" class="node">
<title>Node9</title>
<g id="a_node9"><a target="_blank" xlink:href="http://en.cppreference.com/w/cpp/container/queue/pop.html#" xlink:title=" ">
<polygon fill="white" stroke="black" points="669.5,-397.5 669.5,-416.5 753.5,-416.5 753.5,-397.5 669.5,-397.5"/>
<text text-anchor="middle" x="711.5" y="-404.5" font-family="Helvetica,sans-Serif" font-size="10.00">std::queue::pop</text>
</a>
</g>
</g>
<!-- Node6&#45;&gt;Node9 -->
<g id="edge9" class="edge">
<title>Node6&#45;&gt;Node9</title>
<path fill="none" stroke="midnightblue" d="M628.08,-416.67C638.65,-415.43 649.25,-414.18 659.17,-413.02"/>
<polygon fill="midnightblue" stroke="midnightblue" points="659.7,-416.48 669.22,-411.84 658.88,-409.53 659.7,-416.48"/>
</g>
<!-- Node10 -->
<g id="node10" class="node">
<title>Node10</title>
<g id="a_node10"><a target="_blank" xlink:href="http://en.cppreference.com/w/cpp/container/queue/push.html#" xlink:title=" ">
<polygon fill="white" stroke="black" points="667,-359.5 667,-378.5 756,-378.5 756,-359.5 667,-359.5"/>
<text text-anchor="middle" x="711.5" y="-366.5" font-family="Helvetica,sans-Serif" font-size="10.00">std::queue::push</text>
</a>
</g>
</g>
<!-- Node6&#45;&gt;Node10 -->
<g id="edge10" class="edge">
<title>Node6&#45;&gt;Node10</title>
<path fill="none" stroke="midnightblue" d="M606.99,-405.42C629.31,-397.57 654.12,-388.84 673.86,-381.89"/>
<polygon fill="midnightblue" stroke="midnightblue" points="675.11,-385.16 683.38,-378.54 672.79,-378.56 675.11,-385.16"/>
</g>
<!-- Node11&#45;&gt;Node6 -->
<g id="edge12" class="edge">
<title>Node11&#45;&gt;Node6</title>
<path fill="none" stroke="midnightblue" d="M430.62,-407.01C439.28,-408.43 448.05,-409.87 456.7,-411.29"/>
<polygon fill="midnightblue" stroke="midnightblue" points="456.34,-414.77 466.77,-412.94 457.47,-407.86 456.34,-414.77"/>
</g>
<!-- Node13 -->
<g id="node13" class="node">
<title>Node13</title>
<g id="a_node13"><a xlink:href="../../de/dcf/classoperations__on__datastructures_1_1reverse__binary__tree_1_1_binary_tree.html#af6f974381f523fdb981fc2d843bbf4a1" target="_top" xlink:title="Reverses a Binary Tree recursively by swapping the left and right subtrees and their children.">
<polygon fill="white" stroke="black" points="467,-316.5 467,-357.5 628,-357.5 628,-316.5 467,-316.5"/>
<text text-anchor="start" x="475" y="-345.5" font-family="Helvetica,sans-Serif" font-size="10.00">operations_on_datastructures</text>
<text text-anchor="start" x="475" y="-334.5" font-family="Helvetica,sans-Serif" font-size="10.00">::reverse_binary_tree::BinaryTree</text>
<text text-anchor="middle" x="547.5" y="-323.5" font-family="Helvetica,sans-Serif" font-size="10.00">::reverseBinaryTree</text>
</a>
</g>
</g>
<!-- Node12&#45;&gt;Node13 -->
<g id="edge14" class="edge">
<title>Node12&#45;&gt;Node13</title>
<path fill="none" stroke="midnightblue" d="M418.63,-337C431.08,-337 444.01,-337 456.67,-337"/>
<polygon fill="midnightblue" stroke="midnightblue" points="456.74,-340.5 466.74,-337 456.74,-333.5 456.74,-340.5"/>
</g>
<!-- Node13&#45;&gt;Node13 -->
<g id="edge15" class="edge">
<title>Node13&#45;&gt;Node13</title>
<path fill="none" stroke="midnightblue" d="M517.36,-357.86C514.07,-367.54 524.12,-376 547.5,-376 562.11,-376 571.52,-372.7 575.72,-367.86"/>
<polygon fill="midnightblue" stroke="midnightblue" points="579.19,-368.35 577.64,-357.86 572.31,-367.02 579.19,-368.35"/>
</g>
<!-- Node15&#45;&gt;Node6 -->
<g id="edge18" class="edge">
<title>Node15&#45;&gt;Node6</title>
<path fill="none" stroke="midnightblue" d="M209.34,-248.6C261.72,-248.05 365.79,-254.31 431,-307 460.7,-331 440.6,-357.42 467,-385 472.44,-390.68 478.83,-395.72 485.59,-400.14"/>
<polygon fill="midnightblue" stroke="midnightblue" points="483.94,-403.23 494.31,-405.42 487.57,-397.25 483.94,-403.23"/>
</g>
<!-- Node15&#45;&gt;Node11 -->
<g id="edge19" class="edge">
<title>Node15&#45;&gt;Node11</title>
<path fill="none" stroke="midnightblue" d="M179.78,-259.56C186.78,-281.96 207.36,-338.1 245,-367 247.34,-368.8 249.8,-370.46 252.35,-372.01"/>
<polygon fill="midnightblue" stroke="midnightblue" points="250.86,-375.19 261.33,-376.82 254.17,-369.01 250.86,-375.19"/>
</g>
<!-- Node15&#45;&gt;Node12 -->
<g id="edge20" class="edge">
<title>Node15&#45;&gt;Node12</title>
<path fill="none" stroke="midnightblue" d="M194.73,-259.64C217.54,-272.04 258.02,-294.06 289.99,-311.44"/>
<polygon fill="midnightblue" stroke="midnightblue" points="288.72,-314.73 299.18,-316.43 292.06,-308.58 288.72,-314.73"/>
</g>
<!-- Node15&#45;&gt;Node14 -->
<g id="edge21" class="edge">
<title>Node15&#45;&gt;Node14</title>
<path fill="none" stroke="midnightblue" d="M209.31,-241.95C220.53,-239.53 233.25,-237.2 245,-236 331.89,-227.15 433.59,-230.68 493.88,-234.22"/>
<polygon fill="midnightblue" stroke="midnightblue" points="493.73,-237.72 503.92,-234.83 494.15,-230.73 493.73,-237.72"/>
</g>
<!-- Node16&#45;&gt;Node4 -->
<g id="edge23" class="edge">
<title>Node16&#45;&gt;Node4</title>
<path fill="none" stroke="midnightblue" d="M181.28,-401.73C190.26,-421.04 212.93,-464.38 245,-488 250.54,-492.08 256.67,-495.63 263.05,-498.7"/>
<polygon fill="midnightblue" stroke="midnightblue" points="261.98,-502.06 272.54,-502.88 264.8,-495.65 261.98,-502.06"/>
</g>
<!-- Node16&#45;&gt;Node6 -->
<g id="edge24" class="edge">
<title>Node16&#45;&gt;Node6</title>
<path fill="none" stroke="midnightblue" d="M184.49,-401.75C195.82,-415.59 218.79,-440.34 245,-450 318.78,-477.19 409.4,-464.36 471.92,-449.03"/>
<polygon fill="midnightblue" stroke="midnightblue" points="472.87,-452.4 481.7,-446.55 471.15,-445.61 472.87,-452.4"/>
</g>
<!-- Node16&#45;&gt;Node11 -->
<g id="edge25" class="edge">
<title>Node16&#45;&gt;Node11</title>
<path fill="none" stroke="midnightblue" d="M209.38,-392C217.01,-392 225.55,-392 234.49,-392"/>
<polygon fill="midnightblue" stroke="midnightblue" points="234.74,-395.5 244.74,-392 234.74,-388.5 234.74,-395.5"/>
</g>
<!-- Node16&#45;&gt;Node12 -->
<g id="edge26" class="edge">
<title>Node16&#45;&gt;Node12</title>
<path fill="none" stroke="midnightblue" d="M203.78,-382.45C216.29,-378.01 231.39,-372.69 245,-368 251.79,-365.66 258.87,-363.24 265.96,-360.83"/>
<polygon fill="midnightblue" stroke="midnightblue" points="267.25,-364.08 275.59,-357.56 265,-357.45 267.25,-364.08"/>
</g>
<!-- Node18 -->
<g id="node18" class="node">
<title>Node18</title>
<g id="a_node18"><a xlink:href="../../da/d6d/namespaceoperations__on__datastructures.html#a2b8ff06a84b041457873840bf82e2d74" target="_top" xlink:title="Gets the union of two sorted arrays, and returns them in a vector.">
<polygon fill="white" stroke="black" points="265.5,-153 265.5,-183 410.5,-183 410.5,-153 265.5,-153"/>
<text text-anchor="start" x="273.5" y="-171" font-family="Helvetica,sans-Serif" font-size="10.00">operations_on_datastructures</text>
<text text-anchor="middle" x="338" y="-160" font-family="Helvetica,sans-Serif" font-size="10.00">::get_union</text>
</a>
</g>
</g>
<!-- Node17&#45;&gt;Node18 -->
<g id="edge28" class="edge">
<title>Node17&#45;&gt;Node18</title>
<path fill="none" stroke="midnightblue" d="M209.38,-181.56C222.76,-180.14 238.94,-178.42 255.22,-176.69"/>
<polygon fill="midnightblue" stroke="midnightblue" points="255.77,-180.15 265.35,-175.61 255.03,-173.19 255.77,-180.15"/>
</g>
<!-- Node21 -->
<g id="node21" class="node">
<title>Node21</title>
<g id="a_node21"><a xlink:href="../../d8/ddf/sieve__of__eratosthenes_8cpp.html#a235843bdf82d2a6cc8596ae8fd3b8df9" target="_top" xlink:title=" ">
<polygon fill="white" stroke="black" points="320.5,-114.5 320.5,-133.5 355.5,-133.5 355.5,-114.5 320.5,-114.5"/>
<text text-anchor="middle" x="338" y="-121.5" font-family="Helvetica,sans-Serif" font-size="10.00">print</text>
</a>
</g>
</g>
<!-- Node17&#45;&gt;Node21 -->
<g id="edge32" class="edge">
<title>Node17&#45;&gt;Node21</title>
<path fill="none" stroke="midnightblue" d="M193.3,-175.37C198.34,-172.38 203.91,-169.07 209,-166 225.06,-156.32 227.6,-150.98 245,-144 266.15,-135.52 291.55,-130.34 310.3,-127.39"/>
<polygon fill="midnightblue" stroke="midnightblue" points="310.83,-130.85 320.22,-125.93 309.82,-123.92 310.83,-130.85"/>
</g>
<!-- Node18&#45;&gt;Node14 -->
<g id="edge31" class="edge">
<title>Node18&#45;&gt;Node14</title>
<path fill="none" stroke="midnightblue" d="M391.79,-183.08C404.81,-187.38 418.58,-192.43 431,-198 447.9,-205.58 449.81,-212.11 467,-219 475.51,-222.41 484.79,-225.31 493.91,-227.74"/>
<polygon fill="midnightblue" stroke="midnightblue" points="493.15,-231.16 503.7,-230.2 494.85,-224.37 493.15,-231.16"/>
</g>
<!-- Node19 -->
<g id="node19" class="node">
<title>Node19</title>
<g id="a_node19"><a target="_blank" xlink:href="http://en.cppreference.com/w/cpp/container/vector/back.html#" xlink:title=" ">
<polygon fill="white" stroke="black" points="502.5,-190.5 502.5,-209.5 592.5,-209.5 592.5,-190.5 502.5,-190.5"/>
<text text-anchor="middle" x="547.5" y="-197.5" font-family="Helvetica,sans-Serif" font-size="10.00">std::vector::back</text>
</a>
</g>
</g>
<!-- Node18&#45;&gt;Node19 -->
<g id="edge29" class="edge">
<title>Node18&#45;&gt;Node19</title>
<path fill="none" stroke="midnightblue" d="M410.7,-179.06C437.47,-183.19 467.39,-187.8 492.33,-191.65"/>
<polygon fill="midnightblue" stroke="midnightblue" points="491.91,-195.12 502.33,-193.19 492.98,-188.2 491.91,-195.12"/>
</g>
<!-- Node20 -->
<g id="node20" class="node">
<title>Node20</title>
<g id="a_node20"><a target="_blank" xlink:href="http://en.cppreference.com/w/cpp/container/vector/push_back.html#" xlink:title=" ">
<polygon fill="white" stroke="black" points="489.5,-152.5 489.5,-171.5 605.5,-171.5 605.5,-152.5 489.5,-152.5"/>
<text text-anchor="middle" x="547.5" y="-159.5" font-family="Helvetica,sans-Serif" font-size="10.00">std::vector::push_back</text>
</a>
</g>
</g>
<!-- Node18&#45;&gt;Node20 -->
<g id="edge30" class="edge">
<title>Node18&#45;&gt;Node20</title>
<path fill="none" stroke="midnightblue" d="M410.7,-165.93C432.85,-165.29 457.15,-164.58 479.01,-163.95"/>
<polygon fill="midnightblue" stroke="midnightblue" points="479.29,-167.44 489.19,-163.66 479.09,-160.45 479.29,-167.44"/>
</g>
<!-- Node22 -->
<g id="node22" class="node">
<title>Node22</title>
<g id="a_node22"><a target="_blank" xlink:href="http://en.cppreference.com/w/cpp/io/manip/endl.html#" xlink:title=" ">
<polygon fill="white" stroke="black" points="520.5,-114.5 520.5,-133.5 574.5,-133.5 574.5,-114.5 520.5,-114.5"/>
<text text-anchor="middle" x="547.5" y="-121.5" font-family="Helvetica,sans-Serif" font-size="10.00">std::endl</text>
</a>
</g>
</g>
<!-- Node21&#45;&gt;Node22 -->
<g id="edge33" class="edge">
<title>Node21&#45;&gt;Node22</title>
<path fill="none" stroke="midnightblue" d="M355.63,-124C389,-124 464.8,-124 510.19,-124"/>
<polygon fill="midnightblue" stroke="midnightblue" points="510.22,-127.5 520.22,-124 510.22,-120.5 510.22,-127.5"/>
</g>
<!-- Node23 -->
<g id="node23" class="node">
<title>Node23</title>
<g id="a_node23"><a xlink:href="../../db/d93/check__prime_8cpp.html#aa18b3517017d99bb4024853bddba5532" target="_top" xlink:title=" ">
<polygon fill="white" stroke="black" points="521,-76.5 521,-95.5 574,-95.5 574,-76.5 521,-76.5"/>
<text text-anchor="middle" x="547.5" y="-83.5" font-family="Helvetica,sans-Serif" font-size="10.00">is_prime</text>
</a>
</g>
</g>
<!-- Node21&#45;&gt;Node23 -->
<g id="edge34" class="edge">
<title>Node21&#45;&gt;Node23</title>
<path fill="none" stroke="midnightblue" d="M355.63,-120.95C389.18,-114.81 465.61,-100.81 510.92,-92.52"/>
<polygon fill="midnightblue" stroke="midnightblue" points="511.7,-95.93 520.91,-90.69 510.44,-89.05 511.7,-95.93"/>
</g>
<!-- Node24&#45;&gt;Node18 -->
<g id="edge36" class="edge">
<title>Node24&#45;&gt;Node18</title>
<path fill="none" stroke="midnightblue" d="M209.38,-151.25C222.76,-153.01 238.94,-155.13 255.22,-157.27"/>
<polygon fill="midnightblue" stroke="midnightblue" points="254.98,-160.76 265.35,-158.6 255.89,-153.82 254.98,-160.76"/>
</g>
<!-- Node24&#45;&gt;Node21 -->
<g id="edge37" class="edge">
<title>Node24&#45;&gt;Node21</title>
<path fill="none" stroke="midnightblue" d="M209.38,-142.35C239.04,-138.08 282.45,-131.84 310.21,-127.85"/>
<polygon fill="midnightblue" stroke="midnightblue" points="310.97,-131.28 320.37,-126.39 309.97,-124.35 310.97,-131.28"/>
</g>
<!-- Node25&#45;&gt;Node18 -->
<g id="edge41" class="edge">
<title>Node25&#45;&gt;Node18</title>
<path fill="none" stroke="midnightblue" d="M192.16,-115.59C205.62,-123.77 226.04,-135.39 245,-143 251.19,-145.49 257.71,-147.81 264.31,-149.96"/>
<polygon fill="midnightblue" stroke="midnightblue" points="263.41,-153.34 274,-152.98 265.5,-146.66 263.41,-153.34"/>
</g>
<!-- Node25&#45;&gt;Node21 -->
<g id="edge42" class="edge">
<title>Node25&#45;&gt;Node21</title>
<path fill="none" stroke="midnightblue" d="M209.38,-109.64C239.04,-112.98 282.45,-117.86 310.21,-120.99"/>
<polygon fill="midnightblue" stroke="midnightblue" points="310.04,-124.49 320.37,-122.13 310.82,-117.53 310.04,-124.49"/>
</g>
<!-- Node26 -->
<g id="node26" class="node">
<title>Node26</title>
<g id="a_node26"><a target="_blank" xlink:href="http://en.cppreference.com/w/cpp/container/vector/begin.html#" xlink:title=" ">
<polygon fill="white" stroke="black" points="292,-0.5 292,-19.5 384,-19.5 384,-0.5 292,-0.5"/>
<text text-anchor="middle" x="338" y="-7.5" font-family="Helvetica,sans-Serif" font-size="10.00">std::vector::begin</text>
</a>
</g>
</g>
<!-- Node25&#45;&gt;Node26 -->
<g id="edge39" class="edge">
<title>Node25&#45;&gt;Node26</title>
<path fill="none" stroke="midnightblue" d="M182.54,-96.41C192.67,-79.82 215.84,-45.91 245,-29 256.13,-22.54 269.14,-18.26 281.82,-15.43"/>
<polygon fill="midnightblue" stroke="midnightblue" points="282.73,-18.82 291.86,-13.45 281.38,-11.95 282.73,-18.82"/>
</g>
<!-- Node27 -->
<g id="node27" class="node">
<title>Node27</title>
<g id="a_node27"><a target="_blank" xlink:href="http://en.cppreference.com/w/cpp/container/vector/end.html#" xlink:title=" ">
<polygon fill="white" stroke="black" points="295.5,-76.5 295.5,-95.5 380.5,-95.5 380.5,-76.5 295.5,-76.5"/>
<text text-anchor="middle" x="338" y="-83.5" font-family="Helvetica,sans-Serif" font-size="10.00">std::vector::end</text>
</a>
</g>
</g>
<!-- Node25&#45;&gt;Node27 -->
<g id="edge40" class="edge">
<title>Node25&#45;&gt;Node27</title>
<path fill="none" stroke="midnightblue" d="M209.38,-101.95C231.13,-99.23 260.26,-95.59 285.2,-92.47"/>
<polygon fill="midnightblue" stroke="midnightblue" points="285.75,-95.93 295.24,-91.22 284.88,-88.99 285.75,-95.93"/>
</g>
<!-- Node28 -->
<g id="node28" class="node">
<title>Node28</title>
<g id="a_node28"><a target="_blank" xlink:href="http://en.cppreference.com/w/cpp/algorithm/sort.html#" xlink:title=" ">
<polygon fill="white" stroke="black" points="311.5,-38.5 311.5,-57.5 364.5,-57.5 364.5,-38.5 311.5,-38.5"/>
<text text-anchor="middle" x="338" y="-45.5" font-family="Helvetica,sans-Serif" font-size="10.00">std::sort</text>
</a>
</g>
</g>
<!-- Node25&#45;&gt;Node28 -->
<g id="edge43" class="edge">
<title>Node25&#45;&gt;Node28</title>
<path fill="none" stroke="midnightblue" d="M190.68,-96.41C203.97,-87.52 225.02,-74.57 245,-67 262.93,-60.2 283.8,-55.64 301.13,-52.7"/>
<polygon fill="midnightblue" stroke="midnightblue" points="302.07,-56.09 311.4,-51.07 300.98,-49.18 302.07,-56.09"/>
</g>
</g>
</svg>
