<?xml version="1.0" encoding="UTF-8" standalone="no"?>
<!DOCTYPE svg PUBLIC "-//W3C//DTD SVG 1.1//EN"
 "http://www.w3.org/Graphics/SVG/1.1/DTD/svg11.dtd">
<!-- Generated by graphviz version 5.0.0 (20220707.1540)
 -->
<!-- Title: tests Pages: 1 -->
<svg width="334pt" height="221pt"
 viewBox="0.00 0.00 334.00 221.00" xmlns="http://www.w3.org/2000/svg" xmlns:xlink="http://www.w3.org/1999/xlink">
<g id="graph0" class="graph" transform="scale(1 1) rotate(0) translate(4 217)">
<title>tests</title>
<polygon fill="white" stroke="transparent" points="-4,4 -4,-217 330,-217 330,4 -4,4"/>
<!-- Node1 -->
<g id="node1" class="node">
<title>Node1</title>
<g id="a_node1"><a xlink:title=" ">
<polygon fill="#bfbfbf" stroke="black" points="0,-96.5 0,-115.5 38,-115.5 38,-96.5 0,-96.5"/>
<text text-anchor="middle" x="19" y="-103.5" font-family="Helvetica,sans-Serif" font-size="10.00">tests</text>
</a>
</g>
</g>
<!-- Node2 -->
<g id="node2" class="node">
<title>Node2</title>
<g id="a_node2"><a xlink:href="../../dc/d61/classgraph_1_1_graph.html#a877b2cba40d8d46dde6fb4209effed19" target="_top" xlink:title=" ">
<polygon fill="white" stroke="black" points="74,-162.5 74,-181.5 195,-181.5 195,-162.5 74,-162.5"/>
<text text-anchor="middle" x="134.5" y="-169.5" font-family="Helvetica,sans-Serif" font-size="10.00">graph::Graph::add_edge</text>
</a>
</g>
</g>
<!-- Node1&#45;&gt;Node2 -->
<g id="edge1" class="edge">
<title>Node1&#45;&gt;Node2</title>
<path fill="none" stroke="midnightblue" d="M28.66,-115.59C38.65,-126.12 56.02,-142.88 74,-153 77.88,-155.18 82.04,-157.15 86.3,-158.93"/>
<polygon fill="midnightblue" stroke="midnightblue" points="85.11,-162.22 95.7,-162.49 87.59,-155.67 85.11,-162.22"/>
</g>
<!-- Node3 -->
<g id="node3" class="node">
<title>Node3</title>
<g id="a_node3"><a xlink:href="../../dc/d61/classgraph_1_1_graph.html#a3755ec9e6a842238c7f4aac10b661981" target="_top" xlink:title=" ">
<polygon fill="white" stroke="black" points="79,-113 79,-143 190,-143 190,-113 79,-113"/>
<text text-anchor="start" x="87" y="-131" font-family="Helvetica,sans-Serif" font-size="10.00">graph::Graph::breadth</text>
<text text-anchor="middle" x="134.5" y="-120" font-family="Helvetica,sans-Serif" font-size="10.00">_first_search</text>
</a>
</g>
</g>
<!-- Node1&#45;&gt;Node3 -->
<g id="edge2" class="edge">
<title>Node1&#45;&gt;Node3</title>
<path fill="none" stroke="midnightblue" d="M38.24,-109.53C46.77,-111.19 57.49,-113.27 68.65,-115.43"/>
<polygon fill="midnightblue" stroke="midnightblue" points="68.03,-118.88 78.52,-117.34 69.37,-112 68.03,-118.88"/>
</g>
<!-- Node8 -->
<g id="node8" class="node">
<title>Node8</title>
<g id="a_node8"><a target="_blank" xlink:href="http://en.cppreference.com/w/cpp/io/manip/endl.html#" xlink:title=" ">
<polygon fill="white" stroke="black" points="107.5,-74.5 107.5,-93.5 161.5,-93.5 161.5,-74.5 107.5,-74.5"/>
<text text-anchor="middle" x="134.5" y="-81.5" font-family="Helvetica,sans-Serif" font-size="10.00">std::endl</text>
</a>
</g>
</g>
<!-- Node1&#45;&gt;Node8 -->
<g id="edge7" class="edge">
<title>Node1&#45;&gt;Node8</title>
<path fill="none" stroke="midnightblue" d="M38.24,-102.47C54.14,-99.38 77.68,-94.82 97.38,-91"/>
<polygon fill="midnightblue" stroke="midnightblue" points="98.12,-94.42 107.27,-89.08 96.79,-87.55 98.12,-94.42"/>
</g>
<!-- Node9 -->
<g id="node9" class="node">
<title>Node9</title>
<g id="a_node9"><a xlink:href="../../d4/d18/composite__simpson__rule_8cpp.html#ac84831571c8f3d0bca83c1747a32e8d6" target="_top" xlink:title="Another test function.">
<polygon fill="white" stroke="black" points="120,-36.5 120,-55.5 149,-55.5 149,-36.5 120,-36.5"/>
<text text-anchor="middle" x="134.5" y="-43.5" font-family="Helvetica,sans-Serif" font-size="10.00">g</text>
</a>
</g>
</g>
<!-- Node1&#45;&gt;Node9 -->
<g id="edge8" class="edge">
<title>Node1&#45;&gt;Node9</title>
<path fill="none" stroke="midnightblue" d="M30.43,-96.35C40.8,-87.18 57.5,-73.58 74,-65 85.23,-59.16 98.59,-54.7 109.8,-51.57"/>
<polygon fill="midnightblue" stroke="midnightblue" points="110.95,-54.89 119.75,-48.98 109.19,-48.11 110.95,-54.89"/>
</g>
<!-- Node4 -->
<g id="node4" class="node">
<title>Node4</title>
<g id="a_node4"><a target="_blank" xlink:href="http://en.cppreference.com/w/cpp/container/queue/empty.html#" xlink:title=" ">
<polygon fill="white" stroke="black" points="231,-193.5 231,-212.5 326,-212.5 326,-193.5 231,-193.5"/>
<text text-anchor="middle" x="278.5" y="-200.5" font-family="Helvetica,sans-Serif" font-size="10.00">std::queue::empty</text>
</a>
</g>
</g>
<!-- Node3&#45;&gt;Node4 -->
<g id="edge3" class="edge">
<title>Node3&#45;&gt;Node4</title>
<path fill="none" stroke="midnightblue" d="M176.04,-143.01C182.56,-145.99 189.09,-149.34 195,-153 212.95,-164.11 212.99,-172.97 231,-184 233.99,-185.83 237.19,-187.56 240.46,-189.16"/>
<polygon fill="midnightblue" stroke="midnightblue" points="239.18,-192.43 249.73,-193.37 242.07,-186.05 239.18,-192.43"/>
</g>
<!-- Node5 -->
<g id="node5" class="node">
<title>Node5</title>
<g id="a_node5"><a target="_blank" xlink:href="http://en.cppreference.com/w/cpp/container/queue/front.html#" xlink:title=" ">
<polygon fill="white" stroke="black" points="234.5,-155.5 234.5,-174.5 322.5,-174.5 322.5,-155.5 234.5,-155.5"/>
<text text-anchor="middle" x="278.5" y="-162.5" font-family="Helvetica,sans-Serif" font-size="10.00">std::queue::front</text>
</a>
</g>
</g>
<!-- Node3&#45;&gt;Node5 -->
<g id="edge4" class="edge">
<title>Node3&#45;&gt;Node5</title>
<path fill="none" stroke="midnightblue" d="M190.4,-142.31C203.7,-145.77 217.8,-149.44 230.69,-152.8"/>
<polygon fill="midnightblue" stroke="midnightblue" points="230.17,-156.28 240.73,-155.42 231.94,-149.51 230.17,-156.28"/>
</g>
<!-- Node6 -->
<g id="node6" class="node">
<title>Node6</title>
<g id="a_node6"><a target="_blank" xlink:href="http://en.cppreference.com/w/cpp/container/queue/pop.html#" xlink:title=" ">
<polygon fill="white" stroke="black" points="236.5,-117.5 236.5,-136.5 320.5,-136.5 320.5,-117.5 236.5,-117.5"/>
<text text-anchor="middle" x="278.5" y="-124.5" font-family="Helvetica,sans-Serif" font-size="10.00">std::queue::pop</text>
</a>
</g>
</g>
<!-- Node3&#45;&gt;Node6 -->
<g id="edge5" class="edge">
<title>Node3&#45;&gt;Node6</title>
<path fill="none" stroke="midnightblue" d="M190.4,-127.61C202.23,-127.53 214.69,-127.44 226.37,-127.36"/>
<polygon fill="midnightblue" stroke="midnightblue" points="226.43,-130.86 236.4,-127.29 226.38,-123.86 226.43,-130.86"/>
</g>
<!-- Node7 -->
<g id="node7" class="node">
<title>Node7</title>
<g id="a_node7"><a target="_blank" xlink:href="http://en.cppreference.com/w/cpp/container/queue/push.html#" xlink:title=" ">
<polygon fill="white" stroke="black" points="234,-79.5 234,-98.5 323,-98.5 323,-79.5 234,-79.5"/>
<text text-anchor="middle" x="278.5" y="-86.5" font-family="Helvetica,sans-Serif" font-size="10.00">std::queue::push</text>
</a>
</g>
</g>
<!-- Node3&#45;&gt;Node7 -->
<g id="edge6" class="edge">
<title>Node3&#45;&gt;Node7</title>
<path fill="none" stroke="midnightblue" d="M190.4,-112.92C204.46,-109.06 219.4,-104.96 232.87,-101.26"/>
<polygon fill="midnightblue" stroke="midnightblue" points="234.12,-104.54 242.84,-98.52 232.27,-97.79 234.12,-104.54"/>
</g>
<!-- Node10 -->
<g id="node10" class="node">
<title>Node10</title>
<g id="a_node10"><a target="_blank" xlink:href="http://en.cppreference.com/w/cpp/numeric/math/exp.html#" xlink:title=" ">
<polygon fill="white" stroke="black" points="252.5,-38.5 252.5,-57.5 304.5,-57.5 304.5,-38.5 252.5,-38.5"/>
<text text-anchor="middle" x="278.5" y="-45.5" font-family="Helvetica,sans-Serif" font-size="10.00">std::exp</text>
</a>
</g>
</g>
<!-- Node9&#45;&gt;Node10 -->
<g id="edge9" class="edge">
<title>Node9&#45;&gt;Node10</title>
<path fill="none" stroke="midnightblue" d="M149.12,-46.19C170.35,-46.49 212.05,-47.08 242.17,-47.5"/>
<polygon fill="midnightblue" stroke="midnightblue" points="242.24,-51 252.29,-47.64 242.34,-44 242.24,-51"/>
</g>
<!-- Node11 -->
<g id="node11" class="node">
<title>Node11</title>
<g id="a_node11"><a target="_blank" xlink:href="http://en.cppreference.com/w/cpp/numeric/math/pow.html#" xlink:title=" ">
<polygon fill="white" stroke="black" points="251.5,-0.5 251.5,-19.5 305.5,-19.5 305.5,-0.5 251.5,-0.5"/>
<text text-anchor="middle" x="278.5" y="-7.5" font-family="Helvetica,sans-Serif" font-size="10.00">std::pow</text>
</a>
</g>
</g>
<!-- Node9&#45;&gt;Node11 -->
<g id="edge10" class="edge">
<title>Node9&#45;&gt;Node11</title>
<path fill="none" stroke="midnightblue" d="M149.12,-42.55C170.26,-37.19 211.68,-26.69 241.77,-19.06"/>
<polygon fill="midnightblue" stroke="midnightblue" points="242.66,-22.44 251.49,-16.59 240.94,-15.66 242.66,-22.44"/>
</g>
</g>
</svg>
