<?xml version="1.0" encoding="UTF-8" standalone="no"?>
<!DOCTYPE svg PUBLIC "-//W3C//DTD SVG 1.1//EN"
 "http://www.w3.org/Graphics/SVG/1.1/DTD/svg11.dtd">
<!-- Generated by graphviz version 5.0.0 (20220707.1540)
 -->
<!-- Title: main Pages: 1 -->
<svg width="408pt" height="222pt"
 viewBox="0.00 0.00 408.00 222.00" xmlns="http://www.w3.org/2000/svg" xmlns:xlink="http://www.w3.org/1999/xlink">
<g id="graph0" class="graph" transform="scale(1 1) rotate(0) translate(4 218)">
<title>main</title>
<polygon fill="white" stroke="transparent" points="-4,4 -4,-218 404,-218 404,4 -4,4"/>
<!-- Node1 -->
<g id="node1" class="node">
<title>Node1</title>
<g id="a_node1"><a xlink:title=" ">
<polygon fill="#bfbfbf" stroke="black" points="0,-156.5 0,-175.5 38,-175.5 38,-156.5 0,-156.5"/>
<text text-anchor="middle" x="19" y="-163.5" font-family="Helvetica,sans-Serif" font-size="10.00">main</text>
</a>
</g>
</g>
<!-- Node2 -->
<g id="node2" class="node">
<title>Node2</title>
<g id="a_node2"><a target="_blank" xlink:href="http://en.cppreference.com/w/cpp/io/manip/endl.html#" xlink:title=" ">
<polygon fill="white" stroke="black" points="181.5,-194.5 181.5,-213.5 235.5,-213.5 235.5,-194.5 181.5,-194.5"/>
<text text-anchor="middle" x="208.5" y="-201.5" font-family="Helvetica,sans-Serif" font-size="10.00">std::endl</text>
</a>
</g>
</g>
<!-- Node1&#45;&gt;Node2 -->
<g id="edge1" class="edge">
<title>Node1&#45;&gt;Node2</title>
<path fill="none" stroke="midnightblue" d="M38.41,-171.14C48.81,-173.95 62.08,-177.39 74,-180 106.69,-187.17 144.24,-193.77 171.16,-198.23"/>
<polygon fill="midnightblue" stroke="midnightblue" points="170.86,-201.73 181.29,-199.89 171.99,-194.82 170.86,-201.73"/>
</g>
<!-- Node3 -->
<g id="node3" class="node">
<title>Node3</title>
<g id="a_node3"><a xlink:href="../../d4/d18/composite__simpson__rule_8cpp.html#ac84831571c8f3d0bca83c1747a32e8d6" target="_top" xlink:title="Another test function.">
<polygon fill="white" stroke="black" points="194,-156.5 194,-175.5 223,-175.5 223,-156.5 194,-156.5"/>
<text text-anchor="middle" x="208.5" y="-163.5" font-family="Helvetica,sans-Serif" font-size="10.00">g</text>
</a>
</g>
</g>
<!-- Node1&#45;&gt;Node3 -->
<g id="edge2" class="edge">
<title>Node1&#45;&gt;Node3</title>
<path fill="none" stroke="midnightblue" d="M38.32,-166C72.37,-166 145.39,-166 183.4,-166"/>
<polygon fill="midnightblue" stroke="midnightblue" points="183.56,-169.5 193.56,-166 183.56,-162.5 183.56,-169.5"/>
</g>
<!-- Node6 -->
<g id="node6" class="node">
<title>Node6</title>
<g id="a_node6"><a xlink:href="../../df/d82/breadth__first__search_8cpp.html#a483bb8ccf42aaf7375a83e91490eda1e" target="_top" xlink:title=" ">
<polygon fill="white" stroke="black" points="74,-118.5 74,-137.5 112,-137.5 112,-118.5 74,-118.5"/>
<text text-anchor="middle" x="93" y="-125.5" font-family="Helvetica,sans-Serif" font-size="10.00">tests</text>
</a>
</g>
</g>
<!-- Node1&#45;&gt;Node6 -->
<g id="edge5" class="edge">
<title>Node1&#45;&gt;Node6</title>
<path fill="none" stroke="midnightblue" d="M38.17,-156.41C46.21,-152.17 55.83,-147.09 64.71,-142.4"/>
<polygon fill="midnightblue" stroke="midnightblue" points="66.38,-145.48 73.59,-137.72 63.11,-139.29 66.38,-145.48"/>
</g>
<!-- Node4 -->
<g id="node4" class="node">
<title>Node4</title>
<g id="a_node4"><a target="_blank" xlink:href="http://en.cppreference.com/w/cpp/numeric/math/exp.html#" xlink:title=" ">
<polygon fill="white" stroke="black" points="326.5,-193.5 326.5,-212.5 378.5,-212.5 378.5,-193.5 326.5,-193.5"/>
<text text-anchor="middle" x="352.5" y="-200.5" font-family="Helvetica,sans-Serif" font-size="10.00">std::exp</text>
</a>
</g>
</g>
<!-- Node3&#45;&gt;Node4 -->
<g id="edge3" class="edge">
<title>Node3&#45;&gt;Node4</title>
<path fill="none" stroke="midnightblue" d="M223.12,-169.55C244.44,-175.11 286.41,-186.04 316.56,-193.9"/>
<polygon fill="midnightblue" stroke="midnightblue" points="315.73,-197.3 326.29,-196.43 317.5,-190.52 315.73,-197.3"/>
</g>
<!-- Node5 -->
<g id="node5" class="node">
<title>Node5</title>
<g id="a_node5"><a target="_blank" xlink:href="http://en.cppreference.com/w/cpp/numeric/math/pow.html#" xlink:title=" ">
<polygon fill="white" stroke="black" points="325.5,-155.5 325.5,-174.5 379.5,-174.5 379.5,-155.5 325.5,-155.5"/>
<text text-anchor="middle" x="352.5" y="-162.5" font-family="Helvetica,sans-Serif" font-size="10.00">std::pow</text>
</a>
</g>
</g>
<!-- Node3&#45;&gt;Node5 -->
<g id="edge4" class="edge">
<title>Node3&#45;&gt;Node5</title>
<path fill="none" stroke="midnightblue" d="M223.12,-165.9C244.17,-165.76 285.32,-165.47 315.37,-165.25"/>
<polygon fill="midnightblue" stroke="midnightblue" points="315.52,-168.75 325.49,-165.18 315.47,-161.75 315.52,-168.75"/>
</g>
<!-- Node6&#45;&gt;Node2 -->
<g id="edge12" class="edge">
<title>Node6&#45;&gt;Node2</title>
<path fill="none" stroke="midnightblue" d="M100.89,-137.92C110.19,-150.59 127.91,-172.39 148,-185 155.18,-189.51 163.53,-193.04 171.66,-195.76"/>
<polygon fill="midnightblue" stroke="midnightblue" points="170.79,-199.16 181.37,-198.7 172.81,-192.46 170.79,-199.16"/>
</g>
<!-- Node6&#45;&gt;Node3 -->
<g id="edge13" class="edge">
<title>Node6&#45;&gt;Node3</title>
<path fill="none" stroke="midnightblue" d="M112.45,-134.64C122.86,-138.35 136.13,-143.02 148,-147 159.84,-150.97 173.07,-155.22 184.05,-158.68"/>
<polygon fill="midnightblue" stroke="midnightblue" points="183.17,-162.08 193.76,-161.74 185.27,-155.4 183.17,-162.08"/>
</g>
<!-- Node7 -->
<g id="node7" class="node">
<title>Node7</title>
<g id="a_node7"><a xlink:href="../../dc/d61/classgraph_1_1_graph.html#a877b2cba40d8d46dde6fb4209effed19" target="_top" xlink:title=" ">
<polygon fill="white" stroke="black" points="148,-118.5 148,-137.5 269,-137.5 269,-118.5 148,-118.5"/>
<text text-anchor="middle" x="208.5" y="-125.5" font-family="Helvetica,sans-Serif" font-size="10.00">graph::Graph::add_edge</text>
</a>
</g>
</g>
<!-- Node6&#45;&gt;Node7 -->
<g id="edge6" class="edge">
<title>Node6&#45;&gt;Node7</title>
<path fill="none" stroke="midnightblue" d="M112.24,-128C119.41,-128 128.15,-128 137.39,-128"/>
<polygon fill="midnightblue" stroke="midnightblue" points="137.56,-131.5 147.56,-128 137.56,-124.5 137.56,-131.5"/>
</g>
<!-- Node8 -->
<g id="node8" class="node">
<title>Node8</title>
<g id="a_node8"><a xlink:href="../../dc/d61/classgraph_1_1_graph.html#a3755ec9e6a842238c7f4aac10b661981" target="_top" xlink:title=" ">
<polygon fill="white" stroke="black" points="153,-69 153,-99 264,-99 264,-69 153,-69"/>
<text text-anchor="start" x="161" y="-87" font-family="Helvetica,sans-Serif" font-size="10.00">graph::Graph::breadth</text>
<text text-anchor="middle" x="208.5" y="-76" font-family="Helvetica,sans-Serif" font-size="10.00">_first_search</text>
</a>
</g>
</g>
<!-- Node6&#45;&gt;Node8 -->
<g id="edge7" class="edge">
<title>Node6&#45;&gt;Node8</title>
<path fill="none" stroke="midnightblue" d="M112.24,-120.93C124.91,-116.02 142.44,-109.22 159.01,-102.8"/>
<polygon fill="midnightblue" stroke="midnightblue" points="160.56,-105.95 168.62,-99.07 158.03,-99.43 160.56,-105.95"/>
</g>
<!-- Node9 -->
<g id="node9" class="node">
<title>Node9</title>
<g id="a_node9"><a target="_blank" xlink:href="http://en.cppreference.com/w/cpp/container/queue/empty.html#" xlink:title=" ">
<polygon fill="white" stroke="black" points="305,-38.5 305,-57.5 400,-57.5 400,-38.5 305,-38.5"/>
<text text-anchor="middle" x="352.5" y="-45.5" font-family="Helvetica,sans-Serif" font-size="10.00">std::queue::empty</text>
</a>
</g>
</g>
<!-- Node8&#45;&gt;Node9 -->
<g id="edge8" class="edge">
<title>Node8&#45;&gt;Node9</title>
<path fill="none" stroke="midnightblue" d="M264.4,-70.08C277.46,-66.77 291.28,-63.27 303.97,-60.05"/>
<polygon fill="midnightblue" stroke="midnightblue" points="305.04,-63.39 313.87,-57.54 303.32,-56.6 305.04,-63.39"/>
</g>
<!-- Node10 -->
<g id="node10" class="node">
<title>Node10</title>
<g id="a_node10"><a target="_blank" xlink:href="http://en.cppreference.com/w/cpp/container/queue/front.html#" xlink:title=" ">
<polygon fill="white" stroke="black" points="308.5,-0.5 308.5,-19.5 396.5,-19.5 396.5,-0.5 308.5,-0.5"/>
<text text-anchor="middle" x="352.5" y="-7.5" font-family="Helvetica,sans-Serif" font-size="10.00">std::queue::front</text>
</a>
</g>
</g>
<!-- Node8&#45;&gt;Node10 -->
<g id="edge9" class="edge">
<title>Node8&#45;&gt;Node10</title>
<path fill="none" stroke="midnightblue" d="M233.74,-68.83C252.75,-57.22 280.08,-41.2 305,-29 308.79,-27.15 312.81,-25.31 316.83,-23.56"/>
<polygon fill="midnightblue" stroke="midnightblue" points="318.27,-26.75 326.13,-19.65 315.55,-20.3 318.27,-26.75"/>
</g>
<!-- Node11 -->
<g id="node11" class="node">
<title>Node11</title>
<g id="a_node11"><a target="_blank" xlink:href="http://en.cppreference.com/w/cpp/container/queue/pop.html#" xlink:title=" ">
<polygon fill="white" stroke="black" points="310.5,-114.5 310.5,-133.5 394.5,-133.5 394.5,-114.5 310.5,-114.5"/>
<text text-anchor="middle" x="352.5" y="-121.5" font-family="Helvetica,sans-Serif" font-size="10.00">std::queue::pop</text>
</a>
</g>
</g>
<!-- Node8&#45;&gt;Node11 -->
<g id="edge10" class="edge">
<title>Node8&#45;&gt;Node11</title>
<path fill="none" stroke="midnightblue" d="M262.78,-99.01C277.6,-103.18 293.52,-107.67 307.72,-111.67"/>
<polygon fill="midnightblue" stroke="midnightblue" points="307.15,-115.14 317.72,-114.49 309.05,-108.4 307.15,-115.14"/>
</g>
<!-- Node12 -->
<g id="node12" class="node">
<title>Node12</title>
<g id="a_node12"><a target="_blank" xlink:href="http://en.cppreference.com/w/cpp/container/queue/push.html#" xlink:title=" ">
<polygon fill="white" stroke="black" points="308,-76.5 308,-95.5 397,-95.5 397,-76.5 308,-76.5"/>
<text text-anchor="middle" x="352.5" y="-83.5" font-family="Helvetica,sans-Serif" font-size="10.00">std::queue::push</text>
</a>
</g>
</g>
<!-- Node8&#45;&gt;Node12 -->
<g id="edge11" class="edge">
<title>Node8&#45;&gt;Node12</title>
<path fill="none" stroke="midnightblue" d="M264.4,-84.77C275.28,-84.93 286.7,-85.09 297.55,-85.24"/>
<polygon fill="midnightblue" stroke="midnightblue" points="297.69,-88.74 307.74,-85.38 297.79,-81.74 297.69,-88.74"/>
</g>
</g>
</svg>
