<?xml version="1.0" encoding="UTF-8" standalone="no"?>
<!DOCTYPE svg PUBLIC "-//W3C//DTD SVG 1.1//EN"
 "http://www.w3.org/Graphics/SVG/1.1/DTD/svg11.dtd">
<!-- Generated by graphviz version 5.0.0 (20220707.1540)
 -->
<!-- Title: test Pages: 1 -->
<svg width="676pt" height="470pt"
 viewBox="0.00 0.00 676.00 470.25" xmlns="http://www.w3.org/2000/svg" xmlns:xlink="http://www.w3.org/1999/xlink">
<g id="graph0" class="graph" transform="scale(1 1) rotate(0) translate(4 466.25)">
<title>test</title>
<polygon fill="white" stroke="transparent" points="-4,4 -4,-466.25 672,-466.25 672,4 -4,4"/>
<!-- Node1 -->
<g id="node1" class="node">
<title>Node1</title>
<g id="a_node1"><a xlink:title="Self&#45;test implementations.">
<polygon fill="#bfbfbf" stroke="black" points="0,-230.75 0,-249.75 33,-249.75 33,-230.75 0,-230.75"/>
<text text-anchor="middle" x="16.5" y="-237.75" font-family="Helvetica,sans-Serif" font-size="10.00">test</text>
</a>
</g>
</g>
<!-- Node2 -->
<g id="node2" class="node">
<title>Node2</title>
<g id="a_node2"><a xlink:href="../../da/d19/classprobability_1_1geometric__dist_1_1geometric__distribution.html#a08328dc7d62188427111f176b56a105a" target="_top" xlink:title="The cumulative distribution function.">
<polygon fill="white" stroke="black" points="244,-420.75 244,-461.75 383,-461.75 383,-420.75 244,-420.75"/>
<text text-anchor="start" x="252" y="-449.75" font-family="Helvetica,sans-Serif" font-size="10.00">probability::geometric</text>
<text text-anchor="start" x="252" y="-438.75" font-family="Helvetica,sans-Serif" font-size="10.00">_dist::geometric_distribution</text>
<text text-anchor="middle" x="313.5" y="-427.75" font-family="Helvetica,sans-Serif" font-size="10.00">::cumulative_distribution</text>
</a>
</g>
</g>
<!-- Node1&#45;&gt;Node2 -->
<g id="edge1" class="edge">
<title>Node1&#45;&gt;Node2</title>
<path fill="none" stroke="midnightblue" d="M18.8,-250.07C23.6,-284.6 41.44,-399.67 69,-422.25 114.2,-459.29 181.3,-461.96 233.62,-456.53"/>
<polygon fill="midnightblue" stroke="midnightblue" points="234.35,-459.97 243.88,-455.34 233.55,-453.01 234.35,-459.97"/>
</g>
<!-- Node6 -->
<g id="node6" class="node">
<title>Node6</title>
<g id="a_node6"><a target="_blank" xlink:href="http://en.cppreference.com/w/cpp/io/manip/endl.html#" xlink:title=" ">
<polygon fill="white" stroke="black" points="286.5,-186.75 286.5,-205.75 340.5,-205.75 340.5,-186.75 286.5,-186.75"/>
<text text-anchor="middle" x="313.5" y="-193.75" font-family="Helvetica,sans-Serif" font-size="10.00">std::endl</text>
</a>
</g>
</g>
<!-- Node1&#45;&gt;Node6 -->
<g id="edge6" class="edge">
<title>Node1&#45;&gt;Node6</title>
<path fill="none" stroke="midnightblue" d="M33.36,-237.89C79.05,-231.07 211.79,-211.28 276.37,-201.64"/>
<polygon fill="midnightblue" stroke="midnightblue" points="277.12,-205.07 286.49,-200.13 276.08,-198.15 277.12,-205.07"/>
</g>
<!-- Node7 -->
<g id="node7" class="node">
<title>Node7</title>
<g id="a_node7"><a xlink:href="../../da/d19/classprobability_1_1geometric__dist_1_1geometric__distribution.html#a41051365f8ac7700f2ed5880a6760413" target="_top" xlink:title="The expected value of a geometrically distributed random variable X.">
<polygon fill="white" stroke="black" points="244,-28.75 244,-69.75 383,-69.75 383,-28.75 244,-28.75"/>
<text text-anchor="start" x="252" y="-57.75" font-family="Helvetica,sans-Serif" font-size="10.00">probability::geometric</text>
<text text-anchor="start" x="252" y="-46.75" font-family="Helvetica,sans-Serif" font-size="10.00">_dist::geometric_distribution</text>
<text text-anchor="middle" x="313.5" y="-35.75" font-family="Helvetica,sans-Serif" font-size="10.00">::expected_value</text>
</a>
</g>
</g>
<!-- Node1&#45;&gt;Node7 -->
<g id="edge7" class="edge">
<title>Node1&#45;&gt;Node7</title>
<path fill="none" stroke="midnightblue" d="M19.54,-230.45C24.37,-209.56 38.51,-160.39 69,-133.25 114.98,-92.34 181.9,-71.14 233.95,-60.28"/>
<polygon fill="midnightblue" stroke="midnightblue" points="234.7,-63.7 243.82,-58.31 233.33,-56.84 234.7,-63.7"/>
</g>
<!-- Node8 -->
<g id="node8" class="node">
<title>Node8</title>
<g id="a_node8"><a xlink:href="../../da/d19/classprobability_1_1geometric__dist_1_1geometric__distribution.html#aaf762e88c66918d7afda4234f28a7ddf" target="_top" xlink:title="The inverse cumulative distribution function.">
<polygon fill="white" stroke="black" points="419,-25.75 419,-66.75 578,-66.75 578,-25.75 419,-25.75"/>
<text text-anchor="start" x="427" y="-54.75" font-family="Helvetica,sans-Serif" font-size="10.00">probability::geometric</text>
<text text-anchor="start" x="427" y="-43.75" font-family="Helvetica,sans-Serif" font-size="10.00">_dist::geometric_distribution</text>
<text text-anchor="middle" x="498.5" y="-32.75" font-family="Helvetica,sans-Serif" font-size="10.00">::inverse_cumulative_distribution</text>
</a>
</g>
</g>
<!-- Node1&#45;&gt;Node8 -->
<g id="edge8" class="edge">
<title>Node1&#45;&gt;Node8</title>
<path fill="none" stroke="midnightblue" d="M17.24,-230.6C17.01,-201.09 20.49,-111.19 69,-64.25 162.41,26.13 327.69,1.61 423.37,-23.13"/>
<polygon fill="midnightblue" stroke="midnightblue" points="422.7,-26.57 433.27,-25.75 424.5,-19.8 422.7,-26.57"/>
</g>
<!-- Node10 -->
<g id="node10" class="node">
<title>Node10</title>
<g id="a_node10"><a xlink:href="../../da/d19/classprobability_1_1geometric__dist_1_1geometric__distribution.html#aee973db9f0435e0cb4cc70f8eb3447a1" target="_top" xlink:title="The probability density function.">
<polygon fill="white" stroke="black" points="244,-322.75 244,-363.75 383,-363.75 383,-322.75 244,-322.75"/>
<text text-anchor="start" x="252" y="-351.75" font-family="Helvetica,sans-Serif" font-size="10.00">probability::geometric</text>
<text text-anchor="start" x="252" y="-340.75" font-family="Helvetica,sans-Serif" font-size="10.00">_dist::geometric_distribution</text>
<text text-anchor="middle" x="313.5" y="-329.75" font-family="Helvetica,sans-Serif" font-size="10.00">::probability_density</text>
</a>
</g>
</g>
<!-- Node1&#45;&gt;Node10 -->
<g id="edge10" class="edge">
<title>Node1&#45;&gt;Node10</title>
<path fill="none" stroke="midnightblue" d="M20.6,-249.81C26.76,-267.04 42.27,-303.03 69,-319.25 118,-349.01 183.01,-354.06 233.53,-352.19"/>
<polygon fill="midnightblue" stroke="midnightblue" points="233.93,-355.67 243.75,-351.71 233.6,-348.68 233.93,-355.67"/>
</g>
<!-- Node11 -->
<g id="node11" class="node">
<title>Node11</title>
<g id="a_node11"><a xlink:href="../../da/d19/classprobability_1_1geometric__dist_1_1geometric__distribution.html#a4620163a196709484225774d87de6d69" target="_top" xlink:title="This function computes the probability to have success in a given range of tries.">
<polygon fill="white" stroke="black" points="69,-371.75 69,-412.75 208,-412.75 208,-371.75 69,-371.75"/>
<text text-anchor="start" x="77" y="-400.75" font-family="Helvetica,sans-Serif" font-size="10.00">probability::geometric</text>
<text text-anchor="start" x="77" y="-389.75" font-family="Helvetica,sans-Serif" font-size="10.00">_dist::geometric_distribution</text>
<text text-anchor="middle" x="138.5" y="-378.75" font-family="Helvetica,sans-Serif" font-size="10.00">::range_tries</text>
</a>
</g>
</g>
<!-- Node1&#45;&gt;Node11 -->
<g id="edge13" class="edge">
<title>Node1&#45;&gt;Node11</title>
<path fill="none" stroke="midnightblue" d="M19.62,-250.07C24.69,-271.56 39.38,-323.35 69,-355.25 72.59,-359.12 76.67,-362.66 81.02,-365.9"/>
<polygon fill="midnightblue" stroke="midnightblue" points="79.39,-369.02 89.64,-371.73 83.32,-363.23 79.39,-369.02"/>
</g>
<!-- Node13 -->
<g id="node13" class="node">
<title>Node13</title>
<g id="a_node13"><a xlink:href="../../de/d72/geometric__dist_8cpp.html#a70fd1cc5c3a2813f28683dc75dcd65b6" target="_top" xlink:title="Tests the sampling method of the geometric distribution.">
<polygon fill="white" stroke="black" points="103.5,-142.75 103.5,-161.75 173.5,-161.75 173.5,-142.75 103.5,-142.75"/>
<text text-anchor="middle" x="138.5" y="-149.75" font-family="Helvetica,sans-Serif" font-size="10.00">sample_test</text>
</a>
</g>
</g>
<!-- Node1&#45;&gt;Node13 -->
<g id="edge16" class="edge">
<title>Node1&#45;&gt;Node13</title>
<path fill="none" stroke="midnightblue" d="M24.64,-230.68C33.85,-218.82 50.87,-198.58 69,-185.25 79.31,-177.68 91.62,-171.12 102.95,-165.88"/>
<polygon fill="midnightblue" stroke="midnightblue" points="104.44,-169.05 112.17,-161.8 101.61,-162.65 104.44,-169.05"/>
</g>
<!-- Node17 -->
<g id="node17" class="node">
<title>Node17</title>
<g id="a_node17"><a xlink:href="../../da/d19/classprobability_1_1geometric__dist_1_1geometric__distribution.html#aea8b0d649f0dc9a6f8baf3341a0b4960" target="_top" xlink:title="The variance of a geometrically distributed random variable X.">
<polygon fill="white" stroke="black" points="244,-224.75 244,-265.75 383,-265.75 383,-224.75 244,-224.75"/>
<text text-anchor="start" x="252" y="-253.75" font-family="Helvetica,sans-Serif" font-size="10.00">probability::geometric</text>
<text text-anchor="start" x="252" y="-242.75" font-family="Helvetica,sans-Serif" font-size="10.00">_dist::geometric_distribution</text>
<text text-anchor="middle" x="313.5" y="-231.75" font-family="Helvetica,sans-Serif" font-size="10.00">::variance</text>
</a>
</g>
</g>
<!-- Node1&#45;&gt;Node17 -->
<g id="edge28" class="edge">
<title>Node1&#45;&gt;Node17</title>
<path fill="none" stroke="midnightblue" d="M33.36,-240.52C70.41,-241.15 164.73,-242.75 233.5,-243.92"/>
<polygon fill="midnightblue" stroke="midnightblue" points="233.82,-247.42 243.88,-244.09 233.94,-240.42 233.82,-247.42"/>
</g>
<!-- Node18 -->
<g id="node18" class="node">
<title>Node18</title>
<g id="a_node18"><a xlink:href="../../da/d19/classprobability_1_1geometric__dist_1_1geometric__distribution.html#a0a10c512e13dd3a052e1c6d7f4d6f0f2" target="_top" xlink:title="The standard deviation of a geometrically distributed random variable X.">
<polygon fill="white" stroke="black" points="69,-268.75 69,-309.75 208,-309.75 208,-268.75 69,-268.75"/>
<text text-anchor="start" x="77" y="-297.75" font-family="Helvetica,sans-Serif" font-size="10.00">probability::geometric</text>
<text text-anchor="start" x="77" y="-286.75" font-family="Helvetica,sans-Serif" font-size="10.00">_dist::geometric_distribution</text>
<text text-anchor="middle" x="138.5" y="-275.75" font-family="Helvetica,sans-Serif" font-size="10.00">::standard_deviation</text>
</a>
</g>
</g>
<!-- Node1&#45;&gt;Node18 -->
<g id="edge25" class="edge">
<title>Node1&#45;&gt;Node18</title>
<path fill="none" stroke="midnightblue" d="M33.19,-246.66C44.71,-251.37 61.16,-258.08 77.61,-264.8"/>
<polygon fill="midnightblue" stroke="midnightblue" points="76.67,-268.19 87.25,-268.74 79.31,-261.71 76.67,-268.19"/>
</g>
<!-- Node3 -->
<g id="node3" class="node">
<title>Node3</title>
<g id="a_node3"><a xlink:href="../../d4/d18/composite__simpson__rule_8cpp.html#a6d50f1b8eb533b54721812d16a3699cc" target="_top" xlink:title="Another test function.">
<polygon fill="white" stroke="black" points="484,-371.75 484,-390.75 513,-390.75 513,-371.75 484,-371.75"/>
<text text-anchor="middle" x="498.5" y="-378.75" font-family="Helvetica,sans-Serif" font-size="10.00">k</text>
</a>
</g>
</g>
<!-- Node2&#45;&gt;Node3 -->
<g id="edge2" class="edge">
<title>Node2&#45;&gt;Node3</title>
<path fill="none" stroke="midnightblue" d="M377.22,-420.69C410.57,-409.76 449.6,-396.96 473.94,-388.98"/>
<polygon fill="midnightblue" stroke="midnightblue" points="475.3,-392.22 483.71,-385.78 473.12,-385.57 475.3,-392.22"/>
</g>
<!-- Node4 -->
<g id="node4" class="node">
<title>Node4</title>
<g id="a_node4"><a target="_blank" xlink:href="http://en.cppreference.com/w/cpp/numeric/math/pow.html#" xlink:title=" ">
<polygon fill="white" stroke="black" points="614,-371.75 614,-390.75 668,-390.75 668,-371.75 614,-371.75"/>
<text text-anchor="middle" x="641" y="-378.75" font-family="Helvetica,sans-Serif" font-size="10.00">std::pow</text>
</a>
</g>
</g>
<!-- Node2&#45;&gt;Node4 -->
<g id="edge5" class="edge">
<title>Node2&#45;&gt;Node4</title>
<path fill="none" stroke="midnightblue" d="M383.26,-433.29C436.73,-426.45 512.57,-415.29 578,-400.25 586.6,-398.28 595.74,-395.73 604.28,-393.15"/>
<polygon fill="midnightblue" stroke="midnightblue" points="605.47,-396.45 613.98,-390.14 603.39,-389.76 605.47,-396.45"/>
</g>
<!-- Node3&#45;&gt;Node4 -->
<g id="edge3" class="edge">
<title>Node3&#45;&gt;Node4</title>
<path fill="none" stroke="midnightblue" d="M513.23,-381.25C533.95,-381.25 573.94,-381.25 603.49,-381.25"/>
<polygon fill="midnightblue" stroke="midnightblue" points="603.85,-384.75 613.85,-381.25 603.85,-377.75 603.85,-384.75"/>
</g>
<!-- Node5 -->
<g id="node5" class="node">
<title>Node5</title>
<g id="a_node5"><a target="_blank" xlink:href="http://en.cppreference.com/w/cpp/numeric/math/sqrt.html#" xlink:title=" ">
<polygon fill="white" stroke="black" points="614.5,-308.75 614.5,-327.75 667.5,-327.75 667.5,-308.75 614.5,-308.75"/>
<text text-anchor="middle" x="641" y="-315.75" font-family="Helvetica,sans-Serif" font-size="10.00">std::sqrt</text>
</a>
</g>
</g>
<!-- Node3&#45;&gt;Node5 -->
<g id="edge4" class="edge">
<title>Node3&#45;&gt;Node5</title>
<path fill="none" stroke="midnightblue" d="M513.23,-375.1C535.41,-365.15 579.66,-345.31 609.56,-331.91"/>
<polygon fill="midnightblue" stroke="midnightblue" points="611.02,-335.09 618.71,-327.8 608.15,-328.7 611.02,-335.09"/>
</g>
<!-- Node9 -->
<g id="node9" class="node">
<title>Node9</title>
<g id="a_node9"><a target="_blank" xlink:href="http://en.cppreference.com/w/cpp/numeric/math/log.html#" xlink:title=" ">
<polygon fill="white" stroke="black" points="616.5,-36.75 616.5,-55.75 665.5,-55.75 665.5,-36.75 616.5,-36.75"/>
<text text-anchor="middle" x="641" y="-43.75" font-family="Helvetica,sans-Serif" font-size="10.00">std::log</text>
</a>
</g>
</g>
<!-- Node8&#45;&gt;Node9 -->
<g id="edge9" class="edge">
<title>Node8&#45;&gt;Node9</title>
<path fill="none" stroke="midnightblue" d="M578.37,-46.25C588.14,-46.25 597.68,-46.25 606.22,-46.25"/>
<polygon fill="midnightblue" stroke="midnightblue" points="606.45,-49.75 616.45,-46.25 606.45,-42.75 606.45,-49.75"/>
</g>
<!-- Node10&#45;&gt;Node3 -->
<g id="edge11" class="edge">
<title>Node10&#45;&gt;Node3</title>
<path fill="none" stroke="midnightblue" d="M383.16,-357.51C415.21,-364.17 451.24,-371.65 474.14,-376.4"/>
<polygon fill="midnightblue" stroke="midnightblue" points="473.46,-379.84 483.97,-378.44 474.89,-372.98 473.46,-379.84"/>
</g>
<!-- Node10&#45;&gt;Node4 -->
<g id="edge12" class="edge">
<title>Node10&#45;&gt;Node4</title>
<path fill="none" stroke="midnightblue" d="M383.01,-343.98C436.51,-345.55 512.51,-350.02 578,-362.25 586.59,-363.86 595.67,-366.24 604.16,-368.77"/>
<polygon fill="midnightblue" stroke="midnightblue" points="603.19,-372.14 613.78,-371.79 605.28,-365.46 603.19,-372.14"/>
</g>
<!-- Node11&#45;&gt;Node2 -->
<g id="edge14" class="edge">
<title>Node11&#45;&gt;Node2</title>
<path fill="none" stroke="midnightblue" d="M208.37,-411.76C216.86,-414.17 225.59,-416.64 234.2,-419.08"/>
<polygon fill="midnightblue" stroke="midnightblue" points="233.29,-422.46 243.87,-421.82 235.2,-415.72 233.29,-422.46"/>
</g>
<!-- Node12 -->
<g id="node12" class="node">
<title>Node12</title>
<g id="a_node12"><a target="_blank" xlink:href="http://en.cppreference.com/w/cpp/types/numeric_limits/max.html#" xlink:title=" ">
<polygon fill="white" stroke="black" points="251.5,-382.75 251.5,-401.75 375.5,-401.75 375.5,-382.75 251.5,-382.75"/>
<text text-anchor="middle" x="313.5" y="-389.75" font-family="Helvetica,sans-Serif" font-size="10.00">std::numeric_limits::max</text>
</a>
</g>
</g>
<!-- Node11&#45;&gt;Node12 -->
<g id="edge15" class="edge">
<title>Node11&#45;&gt;Node12</title>
<path fill="none" stroke="midnightblue" d="M208.37,-392.25C219.15,-392.25 230.32,-392.25 241.15,-392.25"/>
<polygon fill="midnightblue" stroke="midnightblue" points="241.42,-395.75 251.42,-392.25 241.42,-388.75 241.42,-395.75"/>
</g>
<!-- Node13&#45;&gt;Node6 -->
<g id="edge21" class="edge">
<title>Node13&#45;&gt;Node6</title>
<path fill="none" stroke="midnightblue" d="M173.68,-160.95C203.41,-168.51 246.34,-179.43 276.57,-187.12"/>
<polygon fill="midnightblue" stroke="midnightblue" points="275.74,-190.52 286.3,-189.59 277.47,-183.73 275.74,-190.52"/>
</g>
<!-- Node13&#45;&gt;Node7 -->
<g id="edge22" class="edge">
<title>Node13&#45;&gt;Node7</title>
<path fill="none" stroke="midnightblue" d="M151.53,-142.67C170.46,-127.86 208.68,-99.07 244,-79.25 246.89,-77.63 249.88,-76.04 252.93,-74.48"/>
<polygon fill="midnightblue" stroke="midnightblue" points="254.76,-77.48 262.18,-69.92 251.66,-71.2 254.76,-77.48"/>
</g>
<!-- Node14 -->
<g id="node14" class="node">
<title>Node14</title>
<g id="a_node14"><a xlink:href="../../da/d19/classprobability_1_1geometric__dist_1_1geometric__distribution.html#a8aae1cebcf42ed2332f1c7217c401aa3" target="_top" xlink:title="Generates a (discrete) sample according to the geometrical distribution.">
<polygon fill="white" stroke="black" points="244,-126.75 244,-167.75 383,-167.75 383,-126.75 244,-126.75"/>
<text text-anchor="start" x="252" y="-155.75" font-family="Helvetica,sans-Serif" font-size="10.00">probability::geometric</text>
<text text-anchor="start" x="252" y="-144.75" font-family="Helvetica,sans-Serif" font-size="10.00">_dist::geometric_distribution</text>
<text text-anchor="middle" x="313.5" y="-133.75" font-family="Helvetica,sans-Serif" font-size="10.00">::draw_sample</text>
</a>
</g>
</g>
<!-- Node13&#45;&gt;Node14 -->
<g id="edge17" class="edge">
<title>Node13&#45;&gt;Node14</title>
<path fill="none" stroke="midnightblue" d="M173.68,-151.27C190.86,-150.77 212.45,-150.15 233.45,-149.54"/>
<polygon fill="midnightblue" stroke="midnightblue" points="233.79,-153.03 243.69,-149.24 233.59,-146.03 233.79,-153.03"/>
</g>
<!-- Node16 -->
<g id="node16" class="node">
<title>Node16</title>
<g id="a_node16"><a target="_blank" xlink:href="http://en.cppreference.com/w/cpp/container/vector/resize.html#" xlink:title=" ">
<polygon fill="white" stroke="black" points="266,-88.75 266,-107.75 361,-107.75 361,-88.75 266,-88.75"/>
<text text-anchor="middle" x="313.5" y="-95.75" font-family="Helvetica,sans-Serif" font-size="10.00">std::vector::resize</text>
</a>
</g>
</g>
<!-- Node13&#45;&gt;Node16 -->
<g id="edge23" class="edge">
<title>Node13&#45;&gt;Node16</title>
<path fill="none" stroke="midnightblue" d="M166.88,-142.65C187.88,-135.38 217.65,-125.31 244,-117.25 251.47,-114.97 259.43,-112.65 267.18,-110.46"/>
<polygon fill="midnightblue" stroke="midnightblue" points="268.15,-113.82 276.84,-107.76 266.27,-107.08 268.15,-113.82"/>
</g>
<!-- Node13&#45;&gt;Node17 -->
<g id="edge24" class="edge">
<title>Node13&#45;&gt;Node17</title>
<path fill="none" stroke="midnightblue" d="M154.04,-161.85C173.91,-174.77 210.89,-198.12 244,-215.25 247.31,-216.97 250.73,-218.67 254.21,-220.35"/>
<polygon fill="midnightblue" stroke="midnightblue" points="252.95,-223.62 263.49,-224.72 255.93,-217.29 252.95,-223.62"/>
</g>
<!-- Node14&#45;&gt;Node8 -->
<g id="edge20" class="edge">
<title>Node14&#45;&gt;Node8</title>
<path fill="none" stroke="midnightblue" d="M363.92,-126.62C370.4,-123.62 376.91,-120.46 383,-117.25 408.84,-103.67 436.7,-86.46 458.47,-72.38"/>
<polygon fill="midnightblue" stroke="midnightblue" points="460.63,-75.15 467.1,-66.76 456.81,-69.29 460.63,-75.15"/>
</g>
<!-- Node15 -->
<g id="node15" class="node">
<title>Node15</title>
<g id="a_node15"><a xlink:href="../../de/d72/geometric__dist_8cpp.html#a82964ca6180507deb5fafc71050012ba" target="_top" xlink:title="Returns a random number between [0,1].">
<polygon fill="white" stroke="black" points="439,-132.25 439,-162.25 558,-162.25 558,-132.25 439,-132.25"/>
<text text-anchor="start" x="447" y="-150.25" font-family="Helvetica,sans-Serif" font-size="10.00">probability::geometric</text>
<text text-anchor="middle" x="498.5" y="-139.25" font-family="Helvetica,sans-Serif" font-size="10.00">_dist::generate_uniform</text>
</a>
</g>
</g>
<!-- Node14&#45;&gt;Node15 -->
<g id="edge18" class="edge">
<title>Node14&#45;&gt;Node15</title>
<path fill="none" stroke="midnightblue" d="M383.16,-147.25C398.08,-147.25 413.86,-147.25 428.78,-147.25"/>
<polygon fill="midnightblue" stroke="midnightblue" points="428.94,-150.75 438.94,-147.25 428.94,-143.75 428.94,-150.75"/>
</g>
<!-- Node15&#45;&gt;Node15 -->
<g id="edge19" class="edge">
<title>Node15&#45;&gt;Node15</title>
<path fill="none" stroke="midnightblue" d="M473.75,-162.41C467.79,-171.81 476.04,-180.75 498.5,-180.75 512.19,-180.75 520.6,-177.43 523.73,-172.71"/>
<polygon fill="midnightblue" stroke="midnightblue" points="527.21,-172.24 523.25,-162.41 520.22,-172.57 527.21,-172.24"/>
</g>
<!-- Node18&#45;&gt;Node5 -->
<g id="edge26" class="edge">
<title>Node18&#45;&gt;Node5</title>
<path fill="none" stroke="midnightblue" d="M208.04,-293.23C315.89,-299.48 521.44,-311.39 604.18,-316.18"/>
<polygon fill="midnightblue" stroke="midnightblue" points="604.14,-319.68 614.33,-316.77 604.55,-312.69 604.14,-319.68"/>
</g>
<!-- Node18&#45;&gt;Node17 -->
<g id="edge27" class="edge">
<title>Node18&#45;&gt;Node17</title>
<path fill="none" stroke="midnightblue" d="M208.37,-271.74C216.77,-269.6 225.4,-267.41 233.92,-265.24"/>
<polygon fill="midnightblue" stroke="midnightblue" points="235.04,-268.57 243.87,-262.71 233.31,-261.78 235.04,-268.57"/>
</g>
</g>
</svg>
