<?xml version="1.0" encoding="UTF-8" standalone="no"?>
<!DOCTYPE svg PUBLIC "-//W3C//DTD SVG 1.1//EN"
 "http://www.w3.org/Graphics/SVG/1.1/DTD/svg11.dtd">
<!-- Generated by graphviz version 5.0.0 (20220707.1540)
 -->
<!-- Title: main Pages: 1 -->
<svg width="750pt" height="470pt"
 viewBox="0.00 0.00 750.00 470.25" xmlns="http://www.w3.org/2000/svg" xmlns:xlink="http://www.w3.org/1999/xlink">
<g id="graph0" class="graph" transform="scale(1 1) rotate(0) translate(4 466.25)">
<title>main</title>
<polygon fill="white" stroke="transparent" points="-4,4 -4,-466.25 746,-466.25 746,4 -4,4"/>
<!-- Node1 -->
<g id="node1" class="node">
<title>Node1</title>
<g id="a_node1"><a xlink:title="Main function.">
<polygon fill="#bfbfbf" stroke="black" points="0,-230.75 0,-249.75 38,-249.75 38,-230.75 0,-230.75"/>
<text text-anchor="middle" x="19" y="-237.75" font-family="Helvetica,sans-Serif" font-size="10.00">main</text>
</a>
</g>
</g>
<!-- Node2 -->
<g id="node2" class="node">
<title>Node2</title>
<g id="a_node2"><a xlink:href="../../de/d72/geometric__dist_8cpp.html#aa8dca7b867074164d5f45b0f3851269d" target="_top" xlink:title="Self&#45;test implementations.">
<polygon fill="white" stroke="black" points="74,-230.75 74,-249.75 107,-249.75 107,-230.75 74,-230.75"/>
<text text-anchor="middle" x="90.5" y="-237.75" font-family="Helvetica,sans-Serif" font-size="10.00">test</text>
</a>
</g>
</g>
<!-- Node1&#45;&gt;Node2 -->
<g id="edge1" class="edge">
<title>Node1&#45;&gt;Node2</title>
<path fill="none" stroke="midnightblue" d="M38.26,-240.25C46.07,-240.25 55.31,-240.25 63.79,-240.25"/>
<polygon fill="midnightblue" stroke="midnightblue" points="63.95,-243.75 73.95,-240.25 63.95,-236.75 63.95,-243.75"/>
</g>
<!-- Node3 -->
<g id="node3" class="node">
<title>Node3</title>
<g id="a_node3"><a xlink:href="../../da/d19/classprobability_1_1geometric__dist_1_1geometric__distribution.html#a08328dc7d62188427111f176b56a105a" target="_top" xlink:title="The cumulative distribution function.">
<polygon fill="white" stroke="black" points="318,-420.75 318,-461.75 457,-461.75 457,-420.75 318,-420.75"/>
<text text-anchor="start" x="326" y="-449.75" font-family="Helvetica,sans-Serif" font-size="10.00">probability::geometric</text>
<text text-anchor="start" x="326" y="-438.75" font-family="Helvetica,sans-Serif" font-size="10.00">_dist::geometric_distribution</text>
<text text-anchor="middle" x="387.5" y="-427.75" font-family="Helvetica,sans-Serif" font-size="10.00">::cumulative_distribution</text>
</a>
</g>
</g>
<!-- Node2&#45;&gt;Node3 -->
<g id="edge2" class="edge">
<title>Node2&#45;&gt;Node3</title>
<path fill="none" stroke="midnightblue" d="M92.8,-250.07C97.6,-284.6 115.44,-399.67 143,-422.25 188.2,-459.29 255.3,-461.96 307.62,-456.53"/>
<polygon fill="midnightblue" stroke="midnightblue" points="308.35,-459.97 317.88,-455.34 307.55,-453.01 308.35,-459.97"/>
</g>
<!-- Node7 -->
<g id="node7" class="node">
<title>Node7</title>
<g id="a_node7"><a target="_blank" xlink:href="http://en.cppreference.com/w/cpp/io/manip/endl.html#" xlink:title=" ">
<polygon fill="white" stroke="black" points="360.5,-186.75 360.5,-205.75 414.5,-205.75 414.5,-186.75 360.5,-186.75"/>
<text text-anchor="middle" x="387.5" y="-193.75" font-family="Helvetica,sans-Serif" font-size="10.00">std::endl</text>
</a>
</g>
</g>
<!-- Node2&#45;&gt;Node7 -->
<g id="edge7" class="edge">
<title>Node2&#45;&gt;Node7</title>
<path fill="none" stroke="midnightblue" d="M107.36,-237.89C153.05,-231.07 285.79,-211.28 350.37,-201.64"/>
<polygon fill="midnightblue" stroke="midnightblue" points="351.12,-205.07 360.49,-200.13 350.08,-198.15 351.12,-205.07"/>
</g>
<!-- Node8 -->
<g id="node8" class="node">
<title>Node8</title>
<g id="a_node8"><a xlink:href="../../da/d19/classprobability_1_1geometric__dist_1_1geometric__distribution.html#a41051365f8ac7700f2ed5880a6760413" target="_top" xlink:title="The expected value of a geometrically distributed random variable X.">
<polygon fill="white" stroke="black" points="318,-28.75 318,-69.75 457,-69.75 457,-28.75 318,-28.75"/>
<text text-anchor="start" x="326" y="-57.75" font-family="Helvetica,sans-Serif" font-size="10.00">probability::geometric</text>
<text text-anchor="start" x="326" y="-46.75" font-family="Helvetica,sans-Serif" font-size="10.00">_dist::geometric_distribution</text>
<text text-anchor="middle" x="387.5" y="-35.75" font-family="Helvetica,sans-Serif" font-size="10.00">::expected_value</text>
</a>
</g>
</g>
<!-- Node2&#45;&gt;Node8 -->
<g id="edge8" class="edge">
<title>Node2&#45;&gt;Node8</title>
<path fill="none" stroke="midnightblue" d="M93.54,-230.45C98.37,-209.56 112.51,-160.39 143,-133.25 188.98,-92.34 255.9,-71.14 307.95,-60.28"/>
<polygon fill="midnightblue" stroke="midnightblue" points="308.7,-63.7 317.82,-58.31 307.33,-56.84 308.7,-63.7"/>
</g>
<!-- Node9 -->
<g id="node9" class="node">
<title>Node9</title>
<g id="a_node9"><a xlink:href="../../da/d19/classprobability_1_1geometric__dist_1_1geometric__distribution.html#aaf762e88c66918d7afda4234f28a7ddf" target="_top" xlink:title="The inverse cumulative distribution function.">
<polygon fill="white" stroke="black" points="493,-25.75 493,-66.75 652,-66.75 652,-25.75 493,-25.75"/>
<text text-anchor="start" x="501" y="-54.75" font-family="Helvetica,sans-Serif" font-size="10.00">probability::geometric</text>
<text text-anchor="start" x="501" y="-43.75" font-family="Helvetica,sans-Serif" font-size="10.00">_dist::geometric_distribution</text>
<text text-anchor="middle" x="572.5" y="-32.75" font-family="Helvetica,sans-Serif" font-size="10.00">::inverse_cumulative_distribution</text>
</a>
</g>
</g>
<!-- Node2&#45;&gt;Node9 -->
<g id="edge9" class="edge">
<title>Node2&#45;&gt;Node9</title>
<path fill="none" stroke="midnightblue" d="M91.24,-230.6C91.01,-201.09 94.49,-111.19 143,-64.25 236.41,26.13 401.69,1.61 497.37,-23.13"/>
<polygon fill="midnightblue" stroke="midnightblue" points="496.7,-26.57 507.27,-25.75 498.5,-19.8 496.7,-26.57"/>
</g>
<!-- Node11 -->
<g id="node11" class="node">
<title>Node11</title>
<g id="a_node11"><a xlink:href="../../da/d19/classprobability_1_1geometric__dist_1_1geometric__distribution.html#aee973db9f0435e0cb4cc70f8eb3447a1" target="_top" xlink:title="The probability density function.">
<polygon fill="white" stroke="black" points="318,-322.75 318,-363.75 457,-363.75 457,-322.75 318,-322.75"/>
<text text-anchor="start" x="326" y="-351.75" font-family="Helvetica,sans-Serif" font-size="10.00">probability::geometric</text>
<text text-anchor="start" x="326" y="-340.75" font-family="Helvetica,sans-Serif" font-size="10.00">_dist::geometric_distribution</text>
<text text-anchor="middle" x="387.5" y="-329.75" font-family="Helvetica,sans-Serif" font-size="10.00">::probability_density</text>
</a>
</g>
</g>
<!-- Node2&#45;&gt;Node11 -->
<g id="edge11" class="edge">
<title>Node2&#45;&gt;Node11</title>
<path fill="none" stroke="midnightblue" d="M94.6,-249.81C100.76,-267.04 116.27,-303.03 143,-319.25 192,-349.01 257.01,-354.06 307.53,-352.19"/>
<polygon fill="midnightblue" stroke="midnightblue" points="307.93,-355.67 317.75,-351.71 307.6,-348.68 307.93,-355.67"/>
</g>
<!-- Node12 -->
<g id="node12" class="node">
<title>Node12</title>
<g id="a_node12"><a xlink:href="../../da/d19/classprobability_1_1geometric__dist_1_1geometric__distribution.html#a4620163a196709484225774d87de6d69" target="_top" xlink:title="This function computes the probability to have success in a given range of tries.">
<polygon fill="white" stroke="black" points="143,-371.75 143,-412.75 282,-412.75 282,-371.75 143,-371.75"/>
<text text-anchor="start" x="151" y="-400.75" font-family="Helvetica,sans-Serif" font-size="10.00">probability::geometric</text>
<text text-anchor="start" x="151" y="-389.75" font-family="Helvetica,sans-Serif" font-size="10.00">_dist::geometric_distribution</text>
<text text-anchor="middle" x="212.5" y="-378.75" font-family="Helvetica,sans-Serif" font-size="10.00">::range_tries</text>
</a>
</g>
</g>
<!-- Node2&#45;&gt;Node12 -->
<g id="edge14" class="edge">
<title>Node2&#45;&gt;Node12</title>
<path fill="none" stroke="midnightblue" d="M93.62,-250.07C98.69,-271.56 113.38,-323.35 143,-355.25 146.59,-359.12 150.67,-362.66 155.02,-365.9"/>
<polygon fill="midnightblue" stroke="midnightblue" points="153.39,-369.02 163.64,-371.73 157.32,-363.23 153.39,-369.02"/>
</g>
<!-- Node14 -->
<g id="node14" class="node">
<title>Node14</title>
<g id="a_node14"><a xlink:href="../../de/d72/geometric__dist_8cpp.html#a70fd1cc5c3a2813f28683dc75dcd65b6" target="_top" xlink:title="Tests the sampling method of the geometric distribution.">
<polygon fill="white" stroke="black" points="177.5,-142.75 177.5,-161.75 247.5,-161.75 247.5,-142.75 177.5,-142.75"/>
<text text-anchor="middle" x="212.5" y="-149.75" font-family="Helvetica,sans-Serif" font-size="10.00">sample_test</text>
</a>
</g>
</g>
<!-- Node2&#45;&gt;Node14 -->
<g id="edge17" class="edge">
<title>Node2&#45;&gt;Node14</title>
<path fill="none" stroke="midnightblue" d="M98.64,-230.68C107.85,-218.82 124.87,-198.58 143,-185.25 153.31,-177.68 165.62,-171.12 176.95,-165.88"/>
<polygon fill="midnightblue" stroke="midnightblue" points="178.44,-169.05 186.17,-161.8 175.61,-162.65 178.44,-169.05"/>
</g>
<!-- Node18 -->
<g id="node18" class="node">
<title>Node18</title>
<g id="a_node18"><a xlink:href="../../da/d19/classprobability_1_1geometric__dist_1_1geometric__distribution.html#aea8b0d649f0dc9a6f8baf3341a0b4960" target="_top" xlink:title="The variance of a geometrically distributed random variable X.">
<polygon fill="white" stroke="black" points="318,-224.75 318,-265.75 457,-265.75 457,-224.75 318,-224.75"/>
<text text-anchor="start" x="326" y="-253.75" font-family="Helvetica,sans-Serif" font-size="10.00">probability::geometric</text>
<text text-anchor="start" x="326" y="-242.75" font-family="Helvetica,sans-Serif" font-size="10.00">_dist::geometric_distribution</text>
<text text-anchor="middle" x="387.5" y="-231.75" font-family="Helvetica,sans-Serif" font-size="10.00">::variance</text>
</a>
</g>
</g>
<!-- Node2&#45;&gt;Node18 -->
<g id="edge29" class="edge">
<title>Node2&#45;&gt;Node18</title>
<path fill="none" stroke="midnightblue" d="M107.36,-240.52C144.41,-241.15 238.73,-242.75 307.5,-243.92"/>
<polygon fill="midnightblue" stroke="midnightblue" points="307.82,-247.42 317.88,-244.09 307.94,-240.42 307.82,-247.42"/>
</g>
<!-- Node19 -->
<g id="node19" class="node">
<title>Node19</title>
<g id="a_node19"><a xlink:href="../../da/d19/classprobability_1_1geometric__dist_1_1geometric__distribution.html#a0a10c512e13dd3a052e1c6d7f4d6f0f2" target="_top" xlink:title="The standard deviation of a geometrically distributed random variable X.">
<polygon fill="white" stroke="black" points="143,-268.75 143,-309.75 282,-309.75 282,-268.75 143,-268.75"/>
<text text-anchor="start" x="151" y="-297.75" font-family="Helvetica,sans-Serif" font-size="10.00">probability::geometric</text>
<text text-anchor="start" x="151" y="-286.75" font-family="Helvetica,sans-Serif" font-size="10.00">_dist::geometric_distribution</text>
<text text-anchor="middle" x="212.5" y="-275.75" font-family="Helvetica,sans-Serif" font-size="10.00">::standard_deviation</text>
</a>
</g>
</g>
<!-- Node2&#45;&gt;Node19 -->
<g id="edge26" class="edge">
<title>Node2&#45;&gt;Node19</title>
<path fill="none" stroke="midnightblue" d="M107.19,-246.66C118.71,-251.37 135.16,-258.08 151.61,-264.8"/>
<polygon fill="midnightblue" stroke="midnightblue" points="150.67,-268.19 161.25,-268.74 153.31,-261.71 150.67,-268.19"/>
</g>
<!-- Node4 -->
<g id="node4" class="node">
<title>Node4</title>
<g id="a_node4"><a xlink:href="../../d4/d18/composite__simpson__rule_8cpp.html#a6d50f1b8eb533b54721812d16a3699cc" target="_top" xlink:title="Another test function.">
<polygon fill="white" stroke="black" points="558,-371.75 558,-390.75 587,-390.75 587,-371.75 558,-371.75"/>
<text text-anchor="middle" x="572.5" y="-378.75" font-family="Helvetica,sans-Serif" font-size="10.00">k</text>
</a>
</g>
</g>
<!-- Node3&#45;&gt;Node4 -->
<g id="edge3" class="edge">
<title>Node3&#45;&gt;Node4</title>
<path fill="none" stroke="midnightblue" d="M451.22,-420.69C484.57,-409.76 523.6,-396.96 547.94,-388.98"/>
<polygon fill="midnightblue" stroke="midnightblue" points="549.3,-392.22 557.71,-385.78 547.12,-385.57 549.3,-392.22"/>
</g>
<!-- Node5 -->
<g id="node5" class="node">
<title>Node5</title>
<g id="a_node5"><a target="_blank" xlink:href="http://en.cppreference.com/w/cpp/numeric/math/pow.html#" xlink:title=" ">
<polygon fill="white" stroke="black" points="688,-371.75 688,-390.75 742,-390.75 742,-371.75 688,-371.75"/>
<text text-anchor="middle" x="715" y="-378.75" font-family="Helvetica,sans-Serif" font-size="10.00">std::pow</text>
</a>
</g>
</g>
<!-- Node3&#45;&gt;Node5 -->
<g id="edge6" class="edge">
<title>Node3&#45;&gt;Node5</title>
<path fill="none" stroke="midnightblue" d="M457.26,-433.29C510.73,-426.45 586.57,-415.29 652,-400.25 660.6,-398.28 669.74,-395.73 678.28,-393.15"/>
<polygon fill="midnightblue" stroke="midnightblue" points="679.47,-396.45 687.98,-390.14 677.39,-389.76 679.47,-396.45"/>
</g>
<!-- Node4&#45;&gt;Node5 -->
<g id="edge4" class="edge">
<title>Node4&#45;&gt;Node5</title>
<path fill="none" stroke="midnightblue" d="M587.23,-381.25C607.95,-381.25 647.94,-381.25 677.49,-381.25"/>
<polygon fill="midnightblue" stroke="midnightblue" points="677.85,-384.75 687.85,-381.25 677.85,-377.75 677.85,-384.75"/>
</g>
<!-- Node6 -->
<g id="node6" class="node">
<title>Node6</title>
<g id="a_node6"><a target="_blank" xlink:href="http://en.cppreference.com/w/cpp/numeric/math/sqrt.html#" xlink:title=" ">
<polygon fill="white" stroke="black" points="688.5,-308.75 688.5,-327.75 741.5,-327.75 741.5,-308.75 688.5,-308.75"/>
<text text-anchor="middle" x="715" y="-315.75" font-family="Helvetica,sans-Serif" font-size="10.00">std::sqrt</text>
</a>
</g>
</g>
<!-- Node4&#45;&gt;Node6 -->
<g id="edge5" class="edge">
<title>Node4&#45;&gt;Node6</title>
<path fill="none" stroke="midnightblue" d="M587.23,-375.1C609.41,-365.15 653.66,-345.31 683.56,-331.91"/>
<polygon fill="midnightblue" stroke="midnightblue" points="685.02,-335.09 692.71,-327.8 682.15,-328.7 685.02,-335.09"/>
</g>
<!-- Node10 -->
<g id="node10" class="node">
<title>Node10</title>
<g id="a_node10"><a target="_blank" xlink:href="http://en.cppreference.com/w/cpp/numeric/math/log.html#" xlink:title=" ">
<polygon fill="white" stroke="black" points="690.5,-36.75 690.5,-55.75 739.5,-55.75 739.5,-36.75 690.5,-36.75"/>
<text text-anchor="middle" x="715" y="-43.75" font-family="Helvetica,sans-Serif" font-size="10.00">std::log</text>
</a>
</g>
</g>
<!-- Node9&#45;&gt;Node10 -->
<g id="edge10" class="edge">
<title>Node9&#45;&gt;Node10</title>
<path fill="none" stroke="midnightblue" d="M652.37,-46.25C662.14,-46.25 671.68,-46.25 680.22,-46.25"/>
<polygon fill="midnightblue" stroke="midnightblue" points="680.45,-49.75 690.45,-46.25 680.45,-42.75 680.45,-49.75"/>
</g>
<!-- Node11&#45;&gt;Node4 -->
<g id="edge12" class="edge">
<title>Node11&#45;&gt;Node4</title>
<path fill="none" stroke="midnightblue" d="M457.16,-357.51C489.21,-364.17 525.24,-371.65 548.14,-376.4"/>
<polygon fill="midnightblue" stroke="midnightblue" points="547.46,-379.84 557.97,-378.44 548.89,-372.98 547.46,-379.84"/>
</g>
<!-- Node11&#45;&gt;Node5 -->
<g id="edge13" class="edge">
<title>Node11&#45;&gt;Node5</title>
<path fill="none" stroke="midnightblue" d="M457.01,-343.98C510.51,-345.55 586.51,-350.02 652,-362.25 660.59,-363.86 669.67,-366.24 678.16,-368.77"/>
<polygon fill="midnightblue" stroke="midnightblue" points="677.19,-372.14 687.78,-371.79 679.28,-365.46 677.19,-372.14"/>
</g>
<!-- Node12&#45;&gt;Node3 -->
<g id="edge15" class="edge">
<title>Node12&#45;&gt;Node3</title>
<path fill="none" stroke="midnightblue" d="M282.37,-411.76C290.86,-414.17 299.59,-416.64 308.2,-419.08"/>
<polygon fill="midnightblue" stroke="midnightblue" points="307.29,-422.46 317.87,-421.82 309.2,-415.72 307.29,-422.46"/>
</g>
<!-- Node13 -->
<g id="node13" class="node">
<title>Node13</title>
<g id="a_node13"><a target="_blank" xlink:href="http://en.cppreference.com/w/cpp/types/numeric_limits/max.html#" xlink:title=" ">
<polygon fill="white" stroke="black" points="325.5,-382.75 325.5,-401.75 449.5,-401.75 449.5,-382.75 325.5,-382.75"/>
<text text-anchor="middle" x="387.5" y="-389.75" font-family="Helvetica,sans-Serif" font-size="10.00">std::numeric_limits::max</text>
</a>
</g>
</g>
<!-- Node12&#45;&gt;Node13 -->
<g id="edge16" class="edge">
<title>Node12&#45;&gt;Node13</title>
<path fill="none" stroke="midnightblue" d="M282.37,-392.25C293.15,-392.25 304.32,-392.25 315.15,-392.25"/>
<polygon fill="midnightblue" stroke="midnightblue" points="315.42,-395.75 325.42,-392.25 315.42,-388.75 315.42,-395.75"/>
</g>
<!-- Node14&#45;&gt;Node7 -->
<g id="edge22" class="edge">
<title>Node14&#45;&gt;Node7</title>
<path fill="none" stroke="midnightblue" d="M247.68,-160.95C277.41,-168.51 320.34,-179.43 350.57,-187.12"/>
<polygon fill="midnightblue" stroke="midnightblue" points="349.74,-190.52 360.3,-189.59 351.47,-183.73 349.74,-190.52"/>
</g>
<!-- Node14&#45;&gt;Node8 -->
<g id="edge23" class="edge">
<title>Node14&#45;&gt;Node8</title>
<path fill="none" stroke="midnightblue" d="M225.53,-142.67C244.46,-127.86 282.68,-99.07 318,-79.25 320.89,-77.63 323.88,-76.04 326.93,-74.48"/>
<polygon fill="midnightblue" stroke="midnightblue" points="328.76,-77.48 336.18,-69.92 325.66,-71.2 328.76,-77.48"/>
</g>
<!-- Node15 -->
<g id="node15" class="node">
<title>Node15</title>
<g id="a_node15"><a xlink:href="../../da/d19/classprobability_1_1geometric__dist_1_1geometric__distribution.html#a8aae1cebcf42ed2332f1c7217c401aa3" target="_top" xlink:title="Generates a (discrete) sample according to the geometrical distribution.">
<polygon fill="white" stroke="black" points="318,-126.75 318,-167.75 457,-167.75 457,-126.75 318,-126.75"/>
<text text-anchor="start" x="326" y="-155.75" font-family="Helvetica,sans-Serif" font-size="10.00">probability::geometric</text>
<text text-anchor="start" x="326" y="-144.75" font-family="Helvetica,sans-Serif" font-size="10.00">_dist::geometric_distribution</text>
<text text-anchor="middle" x="387.5" y="-133.75" font-family="Helvetica,sans-Serif" font-size="10.00">::draw_sample</text>
</a>
</g>
</g>
<!-- Node14&#45;&gt;Node15 -->
<g id="edge18" class="edge">
<title>Node14&#45;&gt;Node15</title>
<path fill="none" stroke="midnightblue" d="M247.68,-151.27C264.86,-150.77 286.45,-150.15 307.45,-149.54"/>
<polygon fill="midnightblue" stroke="midnightblue" points="307.79,-153.03 317.69,-149.24 307.59,-146.03 307.79,-153.03"/>
</g>
<!-- Node17 -->
<g id="node17" class="node">
<title>Node17</title>
<g id="a_node17"><a target="_blank" xlink:href="http://en.cppreference.com/w/cpp/container/vector/resize.html#" xlink:title=" ">
<polygon fill="white" stroke="black" points="340,-88.75 340,-107.75 435,-107.75 435,-88.75 340,-88.75"/>
<text text-anchor="middle" x="387.5" y="-95.75" font-family="Helvetica,sans-Serif" font-size="10.00">std::vector::resize</text>
</a>
</g>
</g>
<!-- Node14&#45;&gt;Node17 -->
<g id="edge24" class="edge">
<title>Node14&#45;&gt;Node17</title>
<path fill="none" stroke="midnightblue" d="M240.88,-142.65C261.88,-135.38 291.65,-125.31 318,-117.25 325.47,-114.97 333.43,-112.65 341.18,-110.46"/>
<polygon fill="midnightblue" stroke="midnightblue" points="342.15,-113.82 350.84,-107.76 340.27,-107.08 342.15,-113.82"/>
</g>
<!-- Node14&#45;&gt;Node18 -->
<g id="edge25" class="edge">
<title>Node14&#45;&gt;Node18</title>
<path fill="none" stroke="midnightblue" d="M228.04,-161.85C247.91,-174.77 284.89,-198.12 318,-215.25 321.31,-216.97 324.73,-218.67 328.21,-220.35"/>
<polygon fill="midnightblue" stroke="midnightblue" points="326.95,-223.62 337.49,-224.72 329.93,-217.29 326.95,-223.62"/>
</g>
<!-- Node15&#45;&gt;Node9 -->
<g id="edge21" class="edge">
<title>Node15&#45;&gt;Node9</title>
<path fill="none" stroke="midnightblue" d="M437.92,-126.62C444.4,-123.62 450.91,-120.46 457,-117.25 482.84,-103.67 510.7,-86.46 532.47,-72.38"/>
<polygon fill="midnightblue" stroke="midnightblue" points="534.63,-75.15 541.1,-66.76 530.81,-69.29 534.63,-75.15"/>
</g>
<!-- Node16 -->
<g id="node16" class="node">
<title>Node16</title>
<g id="a_node16"><a xlink:href="../../de/d72/geometric__dist_8cpp.html#a82964ca6180507deb5fafc71050012ba" target="_top" xlink:title="Returns a random number between [0,1].">
<polygon fill="white" stroke="black" points="513,-132.25 513,-162.25 632,-162.25 632,-132.25 513,-132.25"/>
<text text-anchor="start" x="521" y="-150.25" font-family="Helvetica,sans-Serif" font-size="10.00">probability::geometric</text>
<text text-anchor="middle" x="572.5" y="-139.25" font-family="Helvetica,sans-Serif" font-size="10.00">_dist::generate_uniform</text>
</a>
</g>
</g>
<!-- Node15&#45;&gt;Node16 -->
<g id="edge19" class="edge">
<title>Node15&#45;&gt;Node16</title>
<path fill="none" stroke="midnightblue" d="M457.16,-147.25C472.08,-147.25 487.86,-147.25 502.78,-147.25"/>
<polygon fill="midnightblue" stroke="midnightblue" points="502.94,-150.75 512.94,-147.25 502.94,-143.75 502.94,-150.75"/>
</g>
<!-- Node16&#45;&gt;Node16 -->
<g id="edge20" class="edge">
<title>Node16&#45;&gt;Node16</title>
<path fill="none" stroke="midnightblue" d="M547.75,-162.41C541.79,-171.81 550.04,-180.75 572.5,-180.75 586.19,-180.75 594.6,-177.43 597.73,-172.71"/>
<polygon fill="midnightblue" stroke="midnightblue" points="601.21,-172.24 597.25,-162.41 594.22,-172.57 601.21,-172.24"/>
</g>
<!-- Node19&#45;&gt;Node6 -->
<g id="edge27" class="edge">
<title>Node19&#45;&gt;Node6</title>
<path fill="none" stroke="midnightblue" d="M282.04,-293.23C389.89,-299.48 595.44,-311.39 678.18,-316.18"/>
<polygon fill="midnightblue" stroke="midnightblue" points="678.14,-319.68 688.33,-316.77 678.55,-312.69 678.14,-319.68"/>
</g>
<!-- Node19&#45;&gt;Node18 -->
<g id="edge28" class="edge">
<title>Node19&#45;&gt;Node18</title>
<path fill="none" stroke="midnightblue" d="M282.37,-271.74C290.77,-269.6 299.4,-267.41 307.92,-265.24"/>
<polygon fill="midnightblue" stroke="midnightblue" points="309.04,-268.57 317.87,-262.71 307.31,-261.78 309.04,-268.57"/>
</g>
</g>
</svg>
