<?xml version="1.0" encoding="UTF-8" standalone="no"?>
<!DOCTYPE svg PUBLIC "-//W3C//DTD SVG 1.1//EN"
 "http://www.w3.org/Graphics/SVG/1.1/DTD/svg11.dtd">
<!-- Generated by graphviz version 5.0.0 (20220707.1540)
 -->
<!-- Title: test_int Pages: 1 -->
<svg width="472pt" height="180pt"
 viewBox="0.00 0.00 472.00 180.00" xmlns="http://www.w3.org/2000/svg" xmlns:xlink="http://www.w3.org/1999/xlink">
<g id="graph0" class="graph" transform="scale(1 1) rotate(0) translate(4 176)">
<title>test_int</title>
<polygon fill="white" stroke="transparent" points="-4,4 -4,-176 468,-176 468,4 -4,4"/>
<!-- Node1 -->
<g id="node1" class="node">
<title>Node1</title>
<g id="a_node1"><a xlink:title=" ">
<polygon fill="#bfbfbf" stroke="black" points="0,-95.5 0,-114.5 49,-114.5 49,-95.5 0,-95.5"/>
<text text-anchor="middle" x="24.5" y="-102.5" font-family="Helvetica,sans-Serif" font-size="10.00">test_int</text>
</a>
</g>
</g>
<!-- Node2 -->
<g id="node2" class="node">
<title>Node2</title>
<g id="a_node2"><a target="_blank" xlink:href="http://en.cppreference.com/w/cpp/chrono/c/clock.html#" xlink:title=" ">
<polygon fill="white" stroke="black" points="102.5,-152.5 102.5,-171.5 161.5,-171.5 161.5,-152.5 102.5,-152.5"/>
<text text-anchor="middle" x="132" y="-159.5" font-family="Helvetica,sans-Serif" font-size="10.00">std::clock</text>
</a>
</g>
</g>
<!-- Node1&#45;&gt;Node2 -->
<g id="edge1" class="edge">
<title>Node1&#45;&gt;Node2</title>
<path fill="none" stroke="midnightblue" d="M39.27,-114.78C51.07,-122.92 68.69,-134.51 85,-143 88.52,-144.83 92.26,-146.62 96.02,-148.32"/>
<polygon fill="midnightblue" stroke="midnightblue" points="94.76,-151.58 105.33,-152.33 97.53,-145.16 94.76,-151.58"/>
</g>
<!-- Node3 -->
<g id="node3" class="node">
<title>Node3</title>
<g id="a_node3"><a target="_blank" xlink:href="http://en.cppreference.com/w/cpp/algorithm/qsort.html#" xlink:title=" ">
<polygon fill="white" stroke="black" points="103,-114.5 103,-133.5 161,-133.5 161,-114.5 103,-114.5"/>
<text text-anchor="middle" x="132" y="-121.5" font-family="Helvetica,sans-Serif" font-size="10.00">std::qsort</text>
</a>
</g>
</g>
<!-- Node1&#45;&gt;Node3 -->
<g id="edge2" class="edge">
<title>Node1&#45;&gt;Node3</title>
<path fill="none" stroke="midnightblue" d="M49.18,-109.26C61.98,-111.57 78.12,-114.48 92.67,-117.1"/>
<polygon fill="midnightblue" stroke="midnightblue" points="92.45,-120.61 102.91,-118.94 93.69,-113.72 92.45,-120.61"/>
</g>
<!-- Node4 -->
<g id="node4" class="node">
<title>Node4</title>
<g id="a_node4"><a target="_blank" xlink:href="http://en.cppreference.com/w/cpp/numeric/random/rand.html#" xlink:title=" ">
<polygon fill="white" stroke="black" points="104.5,-76.5 104.5,-95.5 159.5,-95.5 159.5,-76.5 104.5,-76.5"/>
<text text-anchor="middle" x="132" y="-83.5" font-family="Helvetica,sans-Serif" font-size="10.00">std::rand</text>
</a>
</g>
</g>
<!-- Node1&#45;&gt;Node4 -->
<g id="edge3" class="edge">
<title>Node1&#45;&gt;Node4</title>
<path fill="none" stroke="midnightblue" d="M49.18,-100.74C62.5,-98.34 79.43,-95.29 94.43,-92.59"/>
<polygon fill="midnightblue" stroke="midnightblue" points="95.21,-96 104.43,-90.78 93.97,-89.11 95.21,-96"/>
</g>
<!-- Node5 -->
<g id="node5" class="node">
<title>Node5</title>
<g id="a_node5"><a xlink:href="../../d5/d91/namespacesorting.html#af2c5b92cbfe73f63f6074c61b0a45331" target="_top" xlink:title=" ">
<polygon fill="white" stroke="black" points="85,-38.5 85,-57.5 179,-57.5 179,-38.5 85,-38.5"/>
<text text-anchor="middle" x="132" y="-45.5" font-family="Helvetica,sans-Serif" font-size="10.00">sorting::shell_sort</text>
</a>
</g>
</g>
<!-- Node1&#45;&gt;Node5 -->
<g id="edge4" class="edge">
<title>Node1&#45;&gt;Node5</title>
<path fill="none" stroke="midnightblue" d="M39.27,-95.22C51.07,-87.08 68.69,-75.49 85,-67 88.52,-65.17 92.26,-63.38 96.02,-61.68"/>
<polygon fill="midnightblue" stroke="midnightblue" points="97.53,-64.84 105.33,-57.67 94.76,-58.42 97.53,-64.84"/>
</g>
<!-- Node6 -->
<g id="node6" class="node">
<title>Node6</title>
<g id="a_node6"><a target="_blank" xlink:href="http://en.cppreference.com/w/cpp/container/vector/data.html#" xlink:title=" ">
<polygon fill="white" stroke="black" points="218,-76.5 218,-95.5 306,-95.5 306,-76.5 218,-76.5"/>
<text text-anchor="middle" x="262" y="-83.5" font-family="Helvetica,sans-Serif" font-size="10.00">std::vector::data</text>
</a>
</g>
</g>
<!-- Node5&#45;&gt;Node6 -->
<g id="edge5" class="edge">
<title>Node5&#45;&gt;Node6</title>
<path fill="none" stroke="midnightblue" d="M165.3,-57.59C181.52,-62.4 201.38,-68.3 218.79,-73.47"/>
<polygon fill="midnightblue" stroke="midnightblue" points="218.13,-76.92 228.71,-76.41 220.12,-70.21 218.13,-76.92"/>
</g>
<!-- Node7 -->
<g id="node7" class="node">
<title>Node7</title>
<g id="a_node7"><a xlink:href="../../d5/d91/namespacesorting.html#a5669396c6a6b1e14b97589b6e37980aa" target="_top" xlink:title=" ">
<polygon fill="white" stroke="black" points="215,-38.5 215,-57.5 309,-57.5 309,-38.5 215,-38.5"/>
<text text-anchor="middle" x="262" y="-45.5" font-family="Helvetica,sans-Serif" font-size="10.00">sorting::shell_sort</text>
</a>
</g>
</g>
<!-- Node5&#45;&gt;Node7 -->
<g id="edge6" class="edge">
<title>Node5&#45;&gt;Node7</title>
<path fill="none" stroke="midnightblue" d="M179.21,-48C187.46,-48 196.13,-48 204.63,-48"/>
<polygon fill="midnightblue" stroke="midnightblue" points="204.86,-51.5 214.86,-48 204.86,-44.5 204.86,-51.5"/>
</g>
<!-- Node11 -->
<g id="node11" class="node">
<title>Node11</title>
<g id="a_node11"><a target="_blank" xlink:href="http://en.cppreference.com/w/cpp/container/vector/size.html#" xlink:title=" ">
<polygon fill="white" stroke="black" points="218.5,-0.5 218.5,-19.5 305.5,-19.5 305.5,-0.5 218.5,-0.5"/>
<text text-anchor="middle" x="262" y="-7.5" font-family="Helvetica,sans-Serif" font-size="10.00">std::vector::size</text>
</a>
</g>
</g>
<!-- Node5&#45;&gt;Node11 -->
<g id="edge10" class="edge">
<title>Node5&#45;&gt;Node11</title>
<path fill="none" stroke="midnightblue" d="M165.3,-38.41C181.52,-33.6 201.38,-27.7 218.79,-22.53"/>
<polygon fill="midnightblue" stroke="midnightblue" points="220.12,-25.79 228.71,-19.59 218.13,-19.08 220.12,-25.79"/>
</g>
<!-- Node8 -->
<g id="node8" class="node">
<title>Node8</title>
<g id="a_node8"><a xlink:href="../../d4/d18/composite__simpson__rule_8cpp.html#ac84831571c8f3d0bca83c1747a32e8d6" target="_top" xlink:title="Another test function.">
<polygon fill="white" stroke="black" points="345,-38.5 345,-57.5 374,-57.5 374,-38.5 345,-38.5"/>
<text text-anchor="middle" x="359.5" y="-45.5" font-family="Helvetica,sans-Serif" font-size="10.00">g</text>
</a>
</g>
</g>
<!-- Node7&#45;&gt;Node8 -->
<g id="edge7" class="edge">
<title>Node7&#45;&gt;Node8</title>
<path fill="none" stroke="midnightblue" d="M309.07,-48C317.89,-48 326.78,-48 334.55,-48"/>
<polygon fill="midnightblue" stroke="midnightblue" points="334.65,-51.5 344.65,-48 334.65,-44.5 334.65,-51.5"/>
</g>
<!-- Node9 -->
<g id="node9" class="node">
<title>Node9</title>
<g id="a_node9"><a target="_blank" xlink:href="http://en.cppreference.com/w/cpp/numeric/math/exp.html#" xlink:title=" ">
<polygon fill="white" stroke="black" points="411,-57.5 411,-76.5 463,-76.5 463,-57.5 411,-57.5"/>
<text text-anchor="middle" x="437" y="-64.5" font-family="Helvetica,sans-Serif" font-size="10.00">std::exp</text>
</a>
</g>
</g>
<!-- Node8&#45;&gt;Node9 -->
<g id="edge8" class="edge">
<title>Node8&#45;&gt;Node9</title>
<path fill="none" stroke="midnightblue" d="M374.35,-51.48C381.93,-53.39 391.7,-55.85 401.22,-58.25"/>
<polygon fill="midnightblue" stroke="midnightblue" points="400.39,-61.65 410.94,-60.69 402.09,-54.86 400.39,-61.65"/>
</g>
<!-- Node10 -->
<g id="node10" class="node">
<title>Node10</title>
<g id="a_node10"><a target="_blank" xlink:href="http://en.cppreference.com/w/cpp/numeric/math/pow.html#" xlink:title=" ">
<polygon fill="white" stroke="black" points="410,-19.5 410,-38.5 464,-38.5 464,-19.5 410,-19.5"/>
<text text-anchor="middle" x="437" y="-26.5" font-family="Helvetica,sans-Serif" font-size="10.00">std::pow</text>
</a>
</g>
</g>
<!-- Node8&#45;&gt;Node10 -->
<g id="edge9" class="edge">
<title>Node8&#45;&gt;Node10</title>
<path fill="none" stroke="midnightblue" d="M374.35,-44.52C381.6,-42.69 390.85,-40.36 399.97,-38.07"/>
<polygon fill="midnightblue" stroke="midnightblue" points="400.87,-41.45 409.71,-35.62 399.16,-34.66 400.87,-41.45"/>
</g>
</g>
</svg>
