<?xml version="1.0" encoding="UTF-8" standalone="no"?>
<!DOCTYPE svg PUBLIC "-//W3C//DTD SVG 1.1//EN"
 "http://www.w3.org/Graphics/SVG/1.1/DTD/svg11.dtd">
<!-- Generated by graphviz version 5.0.0 (20220707.1540)
 -->
<!-- Title: main Pages: 1 -->
<svg width="560pt" height="125pt"
 viewBox="0.00 0.00 560.00 125.00" xmlns="http://www.w3.org/2000/svg" xmlns:xlink="http://www.w3.org/1999/xlink">
<g id="graph0" class="graph" transform="scale(1 1) rotate(0) translate(4 121)">
<title>main</title>
<polygon fill="white" stroke="transparent" points="-4,4 -4,-121 556,-121 556,4 -4,4"/>
<!-- Node1 -->
<g id="node1" class="node">
<title>Node1</title>
<g id="a_node1"><a xlink:title="Main function.">
<polygon fill="#bfbfbf" stroke="black" points="0,-67.5 0,-86.5 38,-86.5 38,-67.5 0,-67.5"/>
<text text-anchor="middle" x="19" y="-74.5" font-family="Helvetica,sans-Serif" font-size="10.00">main</text>
</a>
</g>
</g>
<!-- Node2 -->
<g id="node2" class="node">
<title>Node2</title>
<g id="a_node2"><a xlink:href="../../d8/d69/classgraph_1_1_h_k_graph.html#a3b49011c09cf90a116ab53bef61cd95a" target="_top" xlink:title="function to add edge from u to v">
<polygon fill="white" stroke="black" points="148,-97.5 148,-116.5 279,-116.5 279,-97.5 148,-97.5"/>
<text text-anchor="middle" x="213.5" y="-104.5" font-family="Helvetica,sans-Serif" font-size="10.00">graph::HKGraph::addEdge</text>
</a>
</g>
</g>
<!-- Node1&#45;&gt;Node2 -->
<g id="edge1" class="edge">
<title>Node1&#45;&gt;Node2</title>
<path fill="none" stroke="midnightblue" d="M38.16,-84.71C48.48,-88.76 61.75,-93.4 74,-96 94.48,-100.34 117,-103 137.81,-104.62"/>
<polygon fill="midnightblue" stroke="midnightblue" points="137.65,-108.12 147.87,-105.34 138.15,-101.14 137.65,-108.12"/>
</g>
<!-- Node4 -->
<g id="node4" class="node">
<title>Node4</title>
<g id="a_node4"><a xlink:href="../../d8/d69/classgraph_1_1_h_k_graph.html#a9dbda80d02bdc26c3e8ff7330c9be75d" target="_top" xlink:title="This function counts the number of augmenting paths between left and right sides of the Bipartite gra...">
<polygon fill="white" stroke="black" points="149.5,-40 149.5,-70 277.5,-70 277.5,-40 149.5,-40"/>
<text text-anchor="start" x="157.5" y="-58" font-family="Helvetica,sans-Serif" font-size="10.00">graph::HKGraph::hopcroft</text>
<text text-anchor="middle" x="213.5" y="-47" font-family="Helvetica,sans-Serif" font-size="10.00">KarpAlgorithm</text>
</a>
</g>
</g>
<!-- Node1&#45;&gt;Node4 -->
<g id="edge3" class="edge">
<title>Node1&#45;&gt;Node4</title>
<path fill="none" stroke="midnightblue" d="M38.1,-69.01C48.41,-64.88 61.68,-60.24 74,-58 94.94,-54.19 117.96,-52.65 139.12,-52.28"/>
<polygon fill="midnightblue" stroke="midnightblue" points="139.37,-55.78 149.34,-52.18 139.3,-48.78 139.37,-55.78"/>
</g>
<!-- Node8 -->
<g id="node8" class="node">
<title>Node8</title>
<g id="a_node8"><a xlink:href="../../d1/d9a/hopcroft__karp_8cpp.html#a88ec9ad42717780d6caaff9d3d6977f9" target="_top" xlink:title=" ">
<polygon fill="white" stroke="black" points="74,-67.5 74,-86.5 112,-86.5 112,-67.5 74,-67.5"/>
<text text-anchor="middle" x="93" y="-74.5" font-family="Helvetica,sans-Serif" font-size="10.00">tests</text>
</a>
</g>
</g>
<!-- Node1&#45;&gt;Node8 -->
<g id="edge9" class="edge">
<title>Node1&#45;&gt;Node8</title>
<path fill="none" stroke="midnightblue" d="M38.17,-77C45.87,-77 55.03,-77 63.58,-77"/>
<polygon fill="midnightblue" stroke="midnightblue" points="63.59,-80.5 73.59,-77 63.59,-73.5 63.59,-80.5"/>
</g>
<!-- Node3 -->
<g id="node3" class="node">
<title>Node3</title>
<g id="a_node3"><a target="_blank" xlink:href="http://en.cppreference.com/w/cpp/container/vector/push_back.html#" xlink:title=" ">
<polygon fill="white" stroke="black" points="315,-97.5 315,-116.5 431,-116.5 431,-97.5 315,-97.5"/>
<text text-anchor="middle" x="373" y="-104.5" font-family="Helvetica,sans-Serif" font-size="10.00">std::vector::push_back</text>
</a>
</g>
</g>
<!-- Node2&#45;&gt;Node3 -->
<g id="edge2" class="edge">
<title>Node2&#45;&gt;Node3</title>
<path fill="none" stroke="midnightblue" d="M279.02,-107C287.47,-107 296.15,-107 304.65,-107"/>
<polygon fill="midnightblue" stroke="midnightblue" points="304.91,-110.5 314.91,-107 304.91,-103.5 304.91,-110.5"/>
</g>
<!-- Node5 -->
<g id="node5" class="node">
<title>Node5</title>
<g id="a_node5"><a xlink:href="../../d8/d69/classgraph_1_1_h_k_graph.html#a7491add14d9fc04f679114ca6d6f0f93" target="_top" xlink:title="This function checks for the possibility of augmented path availability.">
<polygon fill="white" stroke="black" points="319.5,-56.5 319.5,-75.5 426.5,-75.5 426.5,-56.5 319.5,-56.5"/>
<text text-anchor="middle" x="373" y="-63.5" font-family="Helvetica,sans-Serif" font-size="10.00">graph::HKGraph::bfs</text>
</a>
</g>
</g>
<!-- Node4&#45;&gt;Node5 -->
<g id="edge4" class="edge">
<title>Node4&#45;&gt;Node5</title>
<path fill="none" stroke="midnightblue" d="M277.65,-59.41C288.05,-60.14 298.83,-60.89 309.22,-61.62"/>
<polygon fill="midnightblue" stroke="midnightblue" points="309.23,-65.12 319.45,-62.33 309.72,-58.14 309.23,-65.12"/>
</g>
<!-- Node7 -->
<g id="node7" class="node">
<title>Node7</title>
<g id="a_node7"><a xlink:href="../../d8/d69/classgraph_1_1_h_k_graph.html#ae794950cb3407b6b47d3dc986cf714c0" target="_top" xlink:title="This functions checks whether an augmenting path is available exists beginning with free vertex u.">
<polygon fill="white" stroke="black" points="319.5,-0.5 319.5,-19.5 426.5,-19.5 426.5,-0.5 319.5,-0.5"/>
<text text-anchor="middle" x="373" y="-7.5" font-family="Helvetica,sans-Serif" font-size="10.00">graph::HKGraph::dfs</text>
</a>
</g>
</g>
<!-- Node4&#45;&gt;Node7 -->
<g id="edge6" class="edge">
<title>Node4&#45;&gt;Node7</title>
<path fill="none" stroke="midnightblue" d="M267.38,-39.89C287.38,-34.18 309.88,-27.75 328.88,-22.32"/>
<polygon fill="midnightblue" stroke="midnightblue" points="330.09,-25.61 338.75,-19.5 328.17,-18.88 330.09,-25.61"/>
</g>
<!-- Node6 -->
<g id="node6" class="node">
<title>Node6</title>
<g id="a_node6"><a target="_blank" xlink:href="http://en.cppreference.com/w/cpp/container/vector/end.html#" xlink:title=" ">
<polygon fill="white" stroke="black" points="467,-28.5 467,-47.5 552,-47.5 552,-28.5 467,-28.5"/>
<text text-anchor="middle" x="509.5" y="-35.5" font-family="Helvetica,sans-Serif" font-size="10.00">std::vector::end</text>
</a>
</g>
</g>
<!-- Node5&#45;&gt;Node6 -->
<g id="edge5" class="edge">
<title>Node5&#45;&gt;Node6</title>
<path fill="none" stroke="midnightblue" d="M419.91,-56.44C431.8,-53.97 444.69,-51.28 456.85,-48.75"/>
<polygon fill="midnightblue" stroke="midnightblue" points="457.78,-52.13 466.86,-46.67 456.36,-45.28 457.78,-52.13"/>
</g>
<!-- Node7&#45;&gt;Node6 -->
<g id="edge8" class="edge">
<title>Node7&#45;&gt;Node6</title>
<path fill="none" stroke="midnightblue" d="M419.91,-19.56C431.8,-22.03 444.69,-24.72 456.85,-27.25"/>
<polygon fill="midnightblue" stroke="midnightblue" points="456.36,-30.72 466.86,-29.33 457.78,-23.87 456.36,-30.72"/>
</g>
<!-- Node7&#45;&gt;Node7 -->
<g id="edge7" class="edge">
<title>Node7&#45;&gt;Node7</title>
<path fill="none" stroke="midnightblue" d="M352.04,-19.76C341.84,-28.57 348.83,-38 373,-38 388.49,-38 396.92,-34.13 398.3,-29.03"/>
<polygon fill="midnightblue" stroke="midnightblue" points="401.37,-27.33 393.96,-19.76 395.03,-30.3 401.37,-27.33"/>
</g>
<!-- Node8&#45;&gt;Node2 -->
<g id="edge10" class="edge">
<title>Node8&#45;&gt;Node2</title>
<path fill="none" stroke="midnightblue" d="M112.26,-81.62C126.34,-85.19 146.5,-90.29 165.04,-94.99"/>
<polygon fill="midnightblue" stroke="midnightblue" points="164.29,-98.41 174.84,-97.47 166.01,-91.62 164.29,-98.41"/>
</g>
<!-- Node8&#45;&gt;Node4 -->
<g id="edge11" class="edge">
<title>Node8&#45;&gt;Node4</title>
<path fill="none" stroke="midnightblue" d="M112.26,-73.61C119.9,-72.19 129.33,-70.44 139.32,-68.59"/>
<polygon fill="midnightblue" stroke="midnightblue" points="140.26,-71.97 149.45,-66.7 138.98,-65.09 140.26,-71.97"/>
</g>
</g>
</svg>
