<?xml version="1.0" encoding="UTF-8" standalone="no"?>
<!DOCTYPE svg PUBLIC "-//W3C//DTD SVG 1.1//EN"
 "http://www.w3.org/Graphics/SVG/1.1/DTD/svg11.dtd">
<!-- Generated by graphviz version 5.0.0 (20220707.1540)
 -->
<!-- Title: main Pages: 1 -->
<svg width="462pt" height="135pt"
 viewBox="0.00 0.00 462.00 134.50" xmlns="http://www.w3.org/2000/svg" xmlns:xlink="http://www.w3.org/1999/xlink">
<g id="graph0" class="graph" transform="scale(1 1) rotate(0) translate(4 130.5)">
<title>main</title>
<polygon fill="white" stroke="transparent" points="-4,4 -4,-130.5 458,-130.5 458,4 -4,4"/>
<!-- Node1 -->
<g id="node1" class="node">
<title>Node1</title>
<g id="a_node1"><a xlink:title=" ">
<polygon fill="#bfbfbf" stroke="black" points="0,-76.5 0,-95.5 38,-95.5 38,-76.5 0,-76.5"/>
<text text-anchor="middle" x="19" y="-83.5" font-family="Helvetica,sans-Serif" font-size="10.00">main</text>
</a>
</g>
</g>
<!-- Node2 -->
<g id="node2" class="node">
<title>Node2</title>
<g id="a_node2"><a target="_blank" xlink:href="http://en.cppreference.com/w/cpp/io/manip/endl.html#" xlink:title=" ">
<polygon fill="white" stroke="black" points="97,-95.5 97,-114.5 151,-114.5 151,-95.5 97,-95.5"/>
<text text-anchor="middle" x="124" y="-102.5" font-family="Helvetica,sans-Serif" font-size="10.00">std::endl</text>
</a>
</g>
</g>
<!-- Node1&#45;&gt;Node2 -->
<g id="edge1" class="edge">
<title>Node1&#45;&gt;Node2</title>
<path fill="none" stroke="midnightblue" d="M38.41,-89.4C51.71,-91.85 70.09,-95.24 86.33,-98.24"/>
<polygon fill="midnightblue" stroke="midnightblue" points="86.15,-101.76 96.62,-100.13 87.42,-94.88 86.15,-101.76"/>
</g>
<!-- Node3 -->
<g id="node3" class="node">
<title>Node3</title>
<g id="a_node3"><a xlink:href="../../d9/d03/namespacestring__search.html#a26a58225ce7d3fa9d4c2f5349a65ed93" target="_top" xlink:title=" ">
<polygon fill="white" stroke="black" points="74,-57.5 74,-76.5 174,-76.5 174,-57.5 74,-57.5"/>
<text text-anchor="middle" x="124" y="-64.5" font-family="Helvetica,sans-Serif" font-size="10.00">string_search::kmp</text>
</a>
</g>
</g>
<!-- Node1&#45;&gt;Node3 -->
<g id="edge2" class="edge">
<title>Node1&#45;&gt;Node3</title>
<path fill="none" stroke="midnightblue" d="M38.41,-82.6C45.72,-81.25 54.57,-79.62 63.76,-77.93"/>
<polygon fill="midnightblue" stroke="midnightblue" points="64.61,-81.33 73.8,-76.07 63.34,-74.45 64.61,-81.33"/>
</g>
<!-- Node4 -->
<g id="node4" class="node">
<title>Node4</title>
<g id="a_node4"><a xlink:href="../../d9/d03/namespacestring__search.html#a996573527312d5255e1495b879e8a34f" target="_top" xlink:title=" ">
<polygon fill="white" stroke="black" points="210,-96 210,-126 334,-126 334,-96 210,-96"/>
<text text-anchor="start" x="218" y="-114" font-family="Helvetica,sans-Serif" font-size="10.00">string_search::getFailure</text>
<text text-anchor="middle" x="272" y="-103" font-family="Helvetica,sans-Serif" font-size="10.00">Array</text>
</a>
</g>
</g>
<!-- Node3&#45;&gt;Node4 -->
<g id="edge3" class="edge">
<title>Node3&#45;&gt;Node4</title>
<path fill="none" stroke="midnightblue" d="M156.68,-76.55C172.68,-81.37 192.62,-87.38 211.35,-93.02"/>
<polygon fill="midnightblue" stroke="midnightblue" points="210.43,-96.4 221.01,-95.93 212.45,-89.7 210.43,-96.4"/>
</g>
<!-- Node5 -->
<g id="node5" class="node">
<title>Node5</title>
<g id="a_node5"><a target="_blank" xlink:href="http://en.cppreference.com/w/cpp/string/basic_string/size.html#" xlink:title=" ">
<polygon fill="white" stroke="black" points="370,-88.5 370,-107.5 454,-107.5 454,-88.5 370,-88.5"/>
<text text-anchor="middle" x="412" y="-95.5" font-family="Helvetica,sans-Serif" font-size="10.00">std::string::size</text>
</a>
</g>
</g>
<!-- Node3&#45;&gt;Node5 -->
<g id="edge8" class="edge">
<title>Node3&#45;&gt;Node5</title>
<path fill="none" stroke="midnightblue" d="M174.05,-71.05C216.45,-74.7 279.35,-80.48 334,-87 342.38,-88 351.27,-89.17 359.9,-90.36"/>
<polygon fill="midnightblue" stroke="midnightblue" points="359.5,-93.84 369.89,-91.77 360.47,-86.91 359.5,-93.84"/>
</g>
<!-- Node6 -->
<g id="node6" class="node">
<title>Node6</title>
<g id="a_node6"><a xlink:href="../../d4/d18/composite__simpson__rule_8cpp.html#a6d50f1b8eb533b54721812d16a3699cc" target="_top" xlink:title="Another test function.">
<polygon fill="white" stroke="black" points="257.5,-19.5 257.5,-38.5 286.5,-38.5 286.5,-19.5 257.5,-19.5"/>
<text text-anchor="middle" x="272" y="-26.5" font-family="Helvetica,sans-Serif" font-size="10.00">k</text>
</a>
</g>
</g>
<!-- Node3&#45;&gt;Node6 -->
<g id="edge5" class="edge">
<title>Node3&#45;&gt;Node6</title>
<path fill="none" stroke="midnightblue" d="M161.84,-57.41C188.68,-50.43 224.24,-41.17 247.36,-35.15"/>
<polygon fill="midnightblue" stroke="midnightblue" points="248.53,-38.46 257.33,-32.56 246.77,-31.69 248.53,-38.46"/>
</g>
<!-- Node4&#45;&gt;Node5 -->
<g id="edge4" class="edge">
<title>Node4&#45;&gt;Node5</title>
<path fill="none" stroke="midnightblue" d="M334.33,-105.22C342.73,-104.43 351.29,-103.62 359.49,-102.85"/>
<polygon fill="midnightblue" stroke="midnightblue" points="360.03,-106.32 369.66,-101.89 359.37,-99.35 360.03,-106.32"/>
</g>
<!-- Node7 -->
<g id="node7" class="node">
<title>Node7</title>
<g id="a_node7"><a target="_blank" xlink:href="http://en.cppreference.com/w/cpp/numeric/math/pow.html#" xlink:title=" ">
<polygon fill="white" stroke="black" points="385,-38.5 385,-57.5 439,-57.5 439,-38.5 385,-38.5"/>
<text text-anchor="middle" x="412" y="-45.5" font-family="Helvetica,sans-Serif" font-size="10.00">std::pow</text>
</a>
</g>
</g>
<!-- Node6&#45;&gt;Node7 -->
<g id="edge6" class="edge">
<title>Node6&#45;&gt;Node7</title>
<path fill="none" stroke="midnightblue" d="M286.74,-30.89C307.08,-33.69 345.91,-39.04 374.77,-43.01"/>
<polygon fill="midnightblue" stroke="midnightblue" points="374.52,-46.51 384.9,-44.41 375.47,-39.58 374.52,-46.51"/>
</g>
<!-- Node8 -->
<g id="node8" class="node">
<title>Node8</title>
<g id="a_node8"><a target="_blank" xlink:href="http://en.cppreference.com/w/cpp/numeric/math/sqrt.html#" xlink:title=" ">
<polygon fill="white" stroke="black" points="385.5,-0.5 385.5,-19.5 438.5,-19.5 438.5,-0.5 385.5,-0.5"/>
<text text-anchor="middle" x="412" y="-7.5" font-family="Helvetica,sans-Serif" font-size="10.00">std::sqrt</text>
</a>
</g>
</g>
<!-- Node6&#45;&gt;Node8 -->
<g id="edge7" class="edge">
<title>Node6&#45;&gt;Node8</title>
<path fill="none" stroke="midnightblue" d="M286.74,-27.11C307.2,-24.29 346.37,-18.9 375.29,-14.92"/>
<polygon fill="midnightblue" stroke="midnightblue" points="376,-18.35 385.42,-13.52 375.04,-11.42 376,-18.35"/>
</g>
</g>
</svg>
