<?xml version="1.0" encoding="UTF-8" standalone="no"?>
<!DOCTYPE svg PUBLIC "-//W3C//DTD SVG 1.1//EN"
 "http://www.w3.org/Graphics/SVG/1.1/DTD/svg11.dtd">
<!-- Generated by graphviz version 5.0.0 (20220707.1540)
 -->
<!-- Title: uint128_t::operator/ Pages: 1 -->
<svg width="499pt" height="28pt"
 viewBox="0.00 0.00 499.00 28.00" xmlns="http://www.w3.org/2000/svg" xmlns:xlink="http://www.w3.org/1999/xlink">
<g id="graph0" class="graph" transform="scale(1 1) rotate(0) translate(4 24)">
<title>uint128_t::operator/</title>
<polygon fill="white" stroke="transparent" points="-4,4 -4,-24 495,-24 495,4 -4,4"/>
<!-- Node1 -->
<g id="node1" class="node">
<title>Node1</title>
<g id="a_node1"><a xlink:title="operator / for uint128_t and other integer types.">
<polygon fill="#bfbfbf" stroke="black" points="0,-0.5 0,-19.5 101,-19.5 101,-0.5 0,-0.5"/>
<text text-anchor="middle" x="50.5" y="-7.5" font-family="Helvetica,sans-Serif" font-size="10.00">uint128_t::operator/</text>
</a>
</g>
</g>
<!-- Node2 -->
<g id="node2" class="node">
<title>Node2</title>
<g id="a_node2"><a xlink:href="../../db/d9a/classuint128__t.html#a8bf81f7f5f5c98f197822ec88e106c6c" target="_top" xlink:title="divide function for uint128_t and other integer types.">
<polygon fill="white" stroke="black" points="137,-0.5 137,-19.5 225,-19.5 225,-0.5 137,-0.5"/>
<text text-anchor="middle" x="181" y="-7.5" font-family="Helvetica,sans-Serif" font-size="10.00">uint128_t::divide</text>
</a>
</g>
</g>
<!-- Node1&#45;&gt;Node2 -->
<g id="edge1" class="edge">
<title>Node1&#45;&gt;Node2</title>
<path fill="none" stroke="midnightblue" d="M101.18,-10C109.52,-10 118.2,-10 126.62,-10"/>
<polygon fill="midnightblue" stroke="midnightblue" points="126.73,-13.5 136.73,-10 126.73,-6.5 126.73,-13.5"/>
</g>
<!-- Node3 -->
<g id="node3" class="node">
<title>Node3</title>
<g id="a_node3"><a xlink:href="../../db/d9a/classuint128__t.html#af139bb6e630f1a61919f180978611cd2" target="_top" xlink:title="Leading zeroes in binary.">
<polygon fill="white" stroke="black" points="261,-0.5 261,-19.5 341,-19.5 341,-0.5 261,-0.5"/>
<text text-anchor="middle" x="301" y="-7.5" font-family="Helvetica,sans-Serif" font-size="10.00">uint128_t::_lez</text>
</a>
</g>
</g>
<!-- Node2&#45;&gt;Node3 -->
<g id="edge2" class="edge">
<title>Node2&#45;&gt;Node3</title>
<path fill="none" stroke="midnightblue" d="M225.27,-10C233.5,-10 242.17,-10 250.57,-10"/>
<polygon fill="midnightblue" stroke="midnightblue" points="250.65,-13.5 260.65,-10 250.65,-6.5 250.65,-13.5"/>
</g>
<!-- Node4 -->
<g id="node4" class="node">
<title>Node4</title>
<g id="a_node4"><a xlink:href="../../d4/d18/composite__simpson__rule_8cpp.html#a995716bc040dc6cf32b5cb3df51c4529" target="_top" xlink:title="Another test function.">
<polygon fill="white" stroke="black" points="377,-0.5 377,-19.5 406,-19.5 406,-0.5 377,-0.5"/>
<text text-anchor="middle" x="391.5" y="-7.5" font-family="Helvetica,sans-Serif" font-size="10.00">l</text>
</a>
</g>
</g>
<!-- Node3&#45;&gt;Node4 -->
<g id="edge3" class="edge">
<title>Node3&#45;&gt;Node4</title>
<path fill="none" stroke="midnightblue" d="M341.08,-10C349.76,-10 358.72,-10 366.58,-10"/>
<polygon fill="midnightblue" stroke="midnightblue" points="366.82,-13.5 376.82,-10 366.82,-6.5 366.82,-13.5"/>
</g>
<!-- Node5 -->
<g id="node5" class="node">
<title>Node5</title>
<g id="a_node5"><a target="_blank" xlink:href="http://en.cppreference.com/w/cpp/numeric/math/log.html#" xlink:title=" ">
<polygon fill="white" stroke="black" points="442,-0.5 442,-19.5 491,-19.5 491,-0.5 442,-0.5"/>
<text text-anchor="middle" x="466.5" y="-7.5" font-family="Helvetica,sans-Serif" font-size="10.00">std::log</text>
</a>
</g>
</g>
<!-- Node4&#45;&gt;Node5 -->
<g id="edge4" class="edge">
<title>Node4&#45;&gt;Node5</title>
<path fill="none" stroke="midnightblue" d="M406.23,-10C413.41,-10 422.56,-10 431.5,-10"/>
<polygon fill="midnightblue" stroke="midnightblue" points="431.78,-13.5 441.78,-10 431.78,-6.5 431.78,-13.5"/>
</g>
</g>
</svg>
