<?xml version="1.0" encoding="UTF-8" standalone="no"?>
<!DOCTYPE svg PUBLIC "-//W3C//DTD SVG 1.1//EN"
 "http://www.w3.org/Graphics/SVG/1.1/DTD/svg11.dtd">
<!-- Generated by graphviz version 5.0.0 (20220707.1540)
 -->
<!-- Title: linear_algebra::gram_schmidt::gram_schmidt Pages: 1 -->
<!--zoomable 172 -->
<svg id="main" version="1.1" xmlns="http://www.w3.org/2000/svg" xmlns:xlink="http://www.w3.org/1999/xlink" xml:space="preserve" onload="init(evt)">
<style type="text/css"><![CDATA[
.edge:hover path { stroke: red; }
.edge:hover polygon { stroke: red; fill: red; }
]]></style>
<script type="text/javascript"><![CDATA[
var edges = document.getElementsByTagName('g');
if (edges && edges.length) {
  for (var i=0;i<edges.length;i++) {
    if (edges[i].id.substr(0,4)=='edge') {
      edges[i].setAttribute('class','edge');
    }
  }
}
]]></script>
        <defs>
                <circle id="rim" cx="0" cy="0" r="7"/>
                <circle id="rim2" cx="0" cy="0" r="3.5"/>
                <g id="zoomPlus">
                        <use xlink:href="#rim" fill="#404040">
                                <set attributeName="fill" to="#808080" begin="zoomplus.mouseover" end="zoomplus.mouseout"/>
                        </use>
                        <path d="M-4,0h8M0,-4v8" fill="none" stroke="white" stroke-width="1.5" pointer-events="none"/>
                </g>
                <g id="zoomMin">
                        <use xlink:href="#rim" fill="#404040">
                                <set attributeName="fill" to="#808080" begin="zoomminus.mouseover" end="zoomminus.mouseout"/>
                        </use>
                        <path d="M-4,0h8" fill="none" stroke="white" stroke-width="1.5" pointer-events="none"/>
                </g>
                <g id="dirArrow">
                        <path fill="none" stroke="white" stroke-width="1.5" d="M0,-3.0v7 M-2.5,-0.5L0,-3.0L2.5,-0.5"/>
                </g>
               <g id="resetDef">
                       <use xlink:href="#rim2" fill="#404040">
                               <set attributeName="fill" to="#808080" begin="reset.mouseover" end="reset.mouseout"/>
                       </use>
               </g>
        </defs>

<script type="text/javascript">
var viewWidth = 574;
var viewHeight = 172;
var sectionId = 'dynsection-2';
</script>
<script xlink:href="../../svgpan.js"/>
<svg id="graph" class="graph">
<g id="viewport">
<title>linear_algebra::gram_schmidt::gram_schmidt</title>
<polygon fill="white" stroke="transparent" points="-4,4 -4,-167.5 570,-167.5 570,4 -4,4"/>
<!-- Node1 -->
<g id="node1" class="node">
<title>Node1</title>
<g id="a_node1"><a xlink:title=" ">
<polygon fill="#bfbfbf" stroke="black" points="0,-62.5 0,-92.5 124,-92.5 124,-62.5 0,-62.5"/>
<text text-anchor="start" x="8" y="-80.5" font-family="Helvetica,sans-Serif" font-size="10.00">linear_algebra::gram</text>
<text text-anchor="middle" x="62" y="-69.5" font-family="Helvetica,sans-Serif" font-size="10.00">_schmidt::gram_schmidt</text>
</a>
</g>
</g>
<!-- Node2 -->
<g id="node2" class="node">
<title>Node2</title>
<g id="a_node2"><a xlink:href="../../d4/d18/composite__simpson__rule_8cpp.html#a6d50f1b8eb533b54721812d16a3699cc" target="_top" xlink:title="Another test function.">
<polygon fill="white" stroke="black" points="197.5,-106 197.5,-125 226.5,-125 226.5,-106 197.5,-106"/>
<text text-anchor="middle" x="212" y="-113" font-family="Helvetica,sans-Serif" font-size="10.00">k</text>
</a>
</g>
</g>
<!-- Node1&#45;&gt;Node2 -->
<g id="edge1" class="edge">
<title>Node1&#45;&gt;Node2</title>
<path fill="none" stroke="midnightblue" d="M121.49,-92.52C144.62,-98.46 169.86,-104.94 187.63,-109.5"/>
<polygon fill="midnightblue" stroke="midnightblue" points="186.84,-112.91 197.39,-112.01 188.58,-106.13 186.84,-112.91"/>
</g>
<!-- Node5 -->
<g id="node5" class="node">
<title>Node5</title>
<g id="a_node5"><a xlink:href="../../d4/d18/composite__simpson__rule_8cpp.html#a995716bc040dc6cf32b5cb3df51c4529" target="_top" xlink:title="Another test function.">
<polygon fill="white" stroke="black" points="197.5,-68 197.5,-87 226.5,-87 226.5,-68 197.5,-68"/>
<text text-anchor="middle" x="212" y="-75" font-family="Helvetica,sans-Serif" font-size="10.00">l</text>
</a>
</g>
</g>
<!-- Node1&#45;&gt;Node5 -->
<g id="edge4" class="edge">
<title>Node1&#45;&gt;Node5</title>
<path fill="none" stroke="midnightblue" d="M124.05,-77.5C146.26,-77.5 170.07,-77.5 187.15,-77.5"/>
<polygon fill="midnightblue" stroke="midnightblue" points="187.32,-81 197.32,-77.5 187.32,-74 187.32,-81"/>
</g>
<!-- Node7 -->
<g id="node7" class="node">
<title>Node7</title>
<g id="a_node7"><a xlink:href="../../d5/d33/gram__schmidt_8cpp.html#a46e459aff5eafffb5ad9ceb129b4d274" target="_top" xlink:title=" ">
<polygon fill="white" stroke="black" points="160,-0.5 160,-30.5 264,-30.5 264,-0.5 160,-0.5"/>
<text text-anchor="start" x="168" y="-18.5" font-family="Helvetica,sans-Serif" font-size="10.00">linear_algebra::gram</text>
<text text-anchor="middle" x="212" y="-7.5" font-family="Helvetica,sans-Serif" font-size="10.00">_schmidt::projection</text>
</a>
</g>
</g>
<!-- Node1&#45;&gt;Node7 -->
<g id="edge6" class="edge">
<title>Node1&#45;&gt;Node7</title>
<path fill="none" stroke="midnightblue" d="M98.83,-62.49C118.95,-54.06 144.25,-43.46 165.73,-34.46"/>
<polygon fill="midnightblue" stroke="midnightblue" points="167.12,-37.68 174.99,-30.59 164.41,-31.22 167.12,-37.68"/>
</g>
<!-- Node3 -->
<g id="node3" class="node">
<title>Node3</title>
<g id="a_node3"><a target="_blank" xlink:href="http://en.cppreference.com/w/cpp/numeric/math/pow.html#" xlink:title=" ">
<polygon fill="white" stroke="black" points="329.5,-144 329.5,-163 383.5,-163 383.5,-144 329.5,-144"/>
<text text-anchor="middle" x="356.5" y="-151" font-family="Helvetica,sans-Serif" font-size="10.00">std::pow</text>
</a>
</g>
</g>
<!-- Node2&#45;&gt;Node3 -->
<g id="edge2" class="edge">
<title>Node2&#45;&gt;Node3</title>
<path fill="none" stroke="midnightblue" d="M226.66,-119.14C247.88,-124.8 289.45,-135.89 319.64,-143.94"/>
<polygon fill="midnightblue" stroke="midnightblue" points="318.84,-147.35 329.4,-146.54 320.64,-140.58 318.84,-147.35"/>
</g>
<!-- Node4 -->
<g id="node4" class="node">
<title>Node4</title>
<g id="a_node4"><a target="_blank" xlink:href="http://en.cppreference.com/w/cpp/numeric/math/sqrt.html#" xlink:title=" ">
<polygon fill="white" stroke="black" points="330,-106 330,-125 383,-125 383,-106 330,-106"/>
<text text-anchor="middle" x="356.5" y="-113" font-family="Helvetica,sans-Serif" font-size="10.00">std::sqrt</text>
</a>
</g>
</g>
<!-- Node2&#45;&gt;Node4 -->
<g id="edge3" class="edge">
<title>Node2&#45;&gt;Node4</title>
<path fill="none" stroke="midnightblue" d="M226.66,-115.5C247.91,-115.5 289.57,-115.5 319.78,-115.5"/>
<polygon fill="midnightblue" stroke="midnightblue" points="319.94,-119 329.94,-115.5 319.94,-112 319.94,-119"/>
</g>
<!-- Node6 -->
<g id="node6" class="node">
<title>Node6</title>
<g id="a_node6"><a target="_blank" xlink:href="http://en.cppreference.com/w/cpp/numeric/math/log.html#" xlink:title=" ">
<polygon fill="white" stroke="black" points="332,-68 332,-87 381,-87 381,-68 332,-68"/>
<text text-anchor="middle" x="356.5" y="-75" font-family="Helvetica,sans-Serif" font-size="10.00">std::log</text>
</a>
</g>
</g>
<!-- Node5&#45;&gt;Node6 -->
<g id="edge5" class="edge">
<title>Node5&#45;&gt;Node6</title>
<path fill="none" stroke="midnightblue" d="M226.66,-77.5C248.35,-77.5 291.29,-77.5 321.63,-77.5"/>
<polygon fill="midnightblue" stroke="midnightblue" points="321.77,-81 331.77,-77.5 321.77,-74 321.77,-81"/>
</g>
<!-- Node7&#45;&gt;Node7 -->
<g id="edge10" class="edge">
<title>Node7&#45;&gt;Node7</title>
<path fill="none" stroke="midnightblue" d="M186.91,-30.66C180.85,-40.06 189.22,-49 212,-49 225.88,-49 234.41,-45.68 237.59,-40.96"/>
<polygon fill="midnightblue" stroke="midnightblue" points="241.07,-40.48 237.09,-30.66 234.08,-40.81 241.07,-40.48"/>
</g>
<!-- Node8 -->
<g id="node8" class="node">
<title>Node8</title>
<g id="a_node8"><a xlink:href="../../d5/d33/gram__schmidt_8cpp.html#aed4d308f46ca1d91e348ca260ec1d2fb" target="_top" xlink:title=" ">
<polygon fill="white" stroke="black" points="300,-0.5 300,-30.5 413,-30.5 413,-0.5 300,-0.5"/>
<text text-anchor="start" x="308" y="-18.5" font-family="Helvetica,sans-Serif" font-size="10.00">linear_algebra::gram</text>
<text text-anchor="middle" x="356.5" y="-7.5" font-family="Helvetica,sans-Serif" font-size="10.00">_schmidt::dot_product</text>
</a>
</g>
</g>
<!-- Node7&#45;&gt;Node8 -->
<g id="edge7" class="edge">
<title>Node7&#45;&gt;Node8</title>
<path fill="none" stroke="midnightblue" d="M264.04,-15.5C272.42,-15.5 281.21,-15.5 289.89,-15.5"/>
<polygon fill="midnightblue" stroke="midnightblue" points="289.99,-19 299.99,-15.5 289.99,-12 289.99,-19"/>
</g>
<!-- Node8&#45;&gt;Node8 -->
<g id="edge8" class="edge">
<title>Node8&#45;&gt;Node8</title>
<path fill="none" stroke="midnightblue" d="M331.41,-30.66C325.35,-40.06 333.72,-49 356.5,-49 370.38,-49 378.91,-45.68 382.09,-40.96"/>
<polygon fill="midnightblue" stroke="midnightblue" points="385.57,-40.48 381.59,-30.66 378.58,-40.81 385.57,-40.48"/>
</g>
<!-- Node9 -->
<g id="node9" class="node">
<title>Node9</title>
<g id="a_node9"><a xlink:href="../../d8/d77/namespacemachine__learning.html#a6f1c98c016ad34ff3d9f39372161bd35" target="_top" xlink:title=" ">
<polygon fill="white" stroke="black" points="449,-6 449,-25 566,-25 566,-6 449,-6"/>
<text text-anchor="middle" x="507.5" y="-13" font-family="Helvetica,sans-Serif" font-size="10.00">machine_learning::sum</text>
</a>
</g>
</g>
<!-- Node8&#45;&gt;Node9 -->
<g id="edge9" class="edge">
<title>Node8&#45;&gt;Node9</title>
<path fill="none" stroke="midnightblue" d="M413.41,-15.5C421.62,-15.5 430.17,-15.5 438.59,-15.5"/>
<polygon fill="midnightblue" stroke="midnightblue" points="438.79,-19 448.79,-15.5 438.79,-12 438.79,-19"/>
</g>
</g>
</svg>
        <g id="navigator" transform="translate(0 0)" fill="#404254">
                <rect fill="#f2f5e9" fill-opacity="0.5" stroke="#606060" stroke-width=".5" x="0" y="0" width="60" height="60"/>
                <use id="zoomplus" xlink:href="#zoomPlus" x="17" y="9" onmousedown="handleZoom(evt,'in')"/>
                <use id="zoomminus" xlink:href="#zoomMin" x="42" y="9" onmousedown="handleZoom(evt,'out')"/>
                <use id="reset" xlink:href="#resetDef" x="30" y="36" onmousedown="handleReset()"/>
                <g id="arrowUp" xlink:href="#dirArrow" transform="translate(30 24)" onmousedown="handlePan(0,-1)">
                  <use xlink:href="#rim" fill="#404040">
                        <set attributeName="fill" to="#808080" begin="arrowUp.mouseover" end="arrowUp.mouseout"/>
                  </use>
                  <path fill="none" stroke="white" stroke-width="1.5" d="M0,-3.0v7 M-2.5,-0.5L0,-3.0L2.5,-0.5"/>
                </g>
                <g id="arrowRight" xlink:href="#dirArrow" transform="rotate(90) translate(36 -43)" onmousedown="handlePan(1,0)">
                  <use xlink:href="#rim" fill="#404040">
                        <set attributeName="fill" to="#808080" begin="arrowRight.mouseover" end="arrowRight.mouseout"/>
                  </use>
                  <path fill="none" stroke="white" stroke-width="1.5" d="M0,-3.0v7 M-2.5,-0.5L0,-3.0L2.5,-0.5"/>
                </g>
                <g id="arrowDown" xlink:href="#dirArrow" transform="rotate(180) translate(-30 -48)" onmousedown="handlePan(0,1)">
                  <use xlink:href="#rim" fill="#404040">
                        <set attributeName="fill" to="#808080" begin="arrowDown.mouseover" end="arrowDown.mouseout"/>
                  </use>
                  <path fill="none" stroke="white" stroke-width="1.5" d="M0,-3.0v7 M-2.5,-0.5L0,-3.0L2.5,-0.5"/>
                </g>
                <g id="arrowLeft" xlink:href="#dirArrow" transform="rotate(270) translate(-36 17)" onmousedown="handlePan(-1,0)">
                  <use xlink:href="#rim" fill="#404040">
                        <set attributeName="fill" to="#808080" begin="arrowLeft.mouseover" end="arrowLeft.mouseout"/>
                  </use>
                  <path fill="none" stroke="white" stroke-width="1.5" d="M0,-3.0v7 M-2.5,-0.5L0,-3.0L2.5,-0.5"/>
                </g>
        </g>
        <svg viewBox="0 0 15 15" width="100%" height="30px" preserveAspectRatio="xMaxYMin meet">
         <g id="arrow_out" transform="scale(0.3 0.3)">
          <a xlink:href="gram__schmidt_8cpp_aa31ca28f60c880802462335eedc5d91f_cgraph_org.svg" target="_base">
           <rect id="button" ry="5" rx="5" y="6" x="6" height="38" width="38"
                fill="#f2f5e9" fill-opacity="0.5" stroke="#606060" stroke-width="1.0"/>
           <path id="arrow"
             d="M 11.500037,31.436501 C 11.940474,20.09759 22.043105,11.32322 32.158766,21.979434 L 37.068811,17.246167 C 37.068811,17.246167 37.088388,32 37.088388,32 L 22.160133,31.978069 C 22.160133,31.978069 26.997745,27.140456 26.997745,27.140456 C 18.528582,18.264221 13.291696,25.230495 11.500037,31.436501 z"
             style="fill:#404040;"/>
          </a>
         </g>
        </svg>
</svg>
