<?xml version="1.0" encoding="UTF-8" standalone="no"?>
<!DOCTYPE svg PUBLIC "-//W3C//DTD SVG 1.1//EN"
 "http://www.w3.org/Graphics/SVG/1.1/DTD/svg11.dtd">
<!-- Generated by graphviz version 5.0.0 (20220707.1540)
 -->
<!-- Title: hashing::sha1::hash_bs Pages: 1 -->
<svg width="346pt" height="123pt"
 viewBox="0.00 0.00 346.00 123.00" xmlns="http://www.w3.org/2000/svg" xmlns:xlink="http://www.w3.org/1999/xlink">
<g id="graph0" class="graph" transform="scale(1 1) rotate(0) translate(4 119)">
<title>hashing::sha1::hash_bs</title>
<polygon fill="white" stroke="transparent" points="-4,4 -4,-119 342,-119 342,4 -4,4"/>
<!-- Node1 -->
<g id="node1" class="node">
<title>Node1</title>
<g id="a_node1"><a xlink:title="The SHA&#45;1 algorithm itself, taking in a bytestring.">
<polygon fill="#bfbfbf" stroke="black" points="0,-57.5 0,-76.5 120,-76.5 120,-57.5 0,-57.5"/>
<text text-anchor="middle" x="60" y="-64.5" font-family="Helvetica,sans-Serif" font-size="10.00">hashing::sha1::hash_bs</text>
</a>
</g>
</g>
<!-- Node2 -->
<g id="node2" class="node">
<title>Node2</title>
<g id="a_node2"><a target="_blank" xlink:href="http://en.cppreference.com/w/cpp/container/vector/begin.html#" xlink:title=" ">
<polygon fill="white" stroke="black" points="156,-95.5 156,-114.5 248,-114.5 248,-95.5 156,-95.5"/>
<text text-anchor="middle" x="202" y="-102.5" font-family="Helvetica,sans-Serif" font-size="10.00">std::vector::begin</text>
</a>
</g>
</g>
<!-- Node1&#45;&gt;Node2 -->
<g id="edge1" class="edge">
<title>Node1&#45;&gt;Node2</title>
<path fill="none" stroke="midnightblue" d="M96.33,-76.59C114.4,-81.49 136.6,-87.52 155.89,-92.76"/>
<polygon fill="midnightblue" stroke="midnightblue" points="155.12,-96.17 165.68,-95.41 156.95,-89.42 155.12,-96.17"/>
</g>
<!-- Node3 -->
<g id="node3" class="node">
<title>Node3</title>
<g id="a_node3"><a target="_blank" xlink:href="http://en.cppreference.com/w/cpp/algorithm/copy.html#" xlink:title=" ">
<polygon fill="white" stroke="black" points="173.5,-57.5 173.5,-76.5 230.5,-76.5 230.5,-57.5 173.5,-57.5"/>
<text text-anchor="middle" x="202" y="-64.5" font-family="Helvetica,sans-Serif" font-size="10.00">std::copy</text>
</a>
</g>
</g>
<!-- Node1&#45;&gt;Node3 -->
<g id="edge2" class="edge">
<title>Node1&#45;&gt;Node3</title>
<path fill="none" stroke="midnightblue" d="M120.37,-67C134.84,-67 149.92,-67 163.08,-67"/>
<polygon fill="midnightblue" stroke="midnightblue" points="163.17,-70.5 173.17,-67 163.17,-63.5 163.17,-70.5"/>
</g>
<!-- Node4 -->
<g id="node4" class="node">
<title>Node4</title>
<g id="a_node4"><a xlink:href="../../d4/d18/composite__simpson__rule_8cpp.html#ac84831571c8f3d0bca83c1747a32e8d6" target="_top" xlink:title="Another test function.">
<polygon fill="white" stroke="black" points="187.5,-19.5 187.5,-38.5 216.5,-38.5 216.5,-19.5 187.5,-19.5"/>
<text text-anchor="middle" x="202" y="-26.5" font-family="Helvetica,sans-Serif" font-size="10.00">g</text>
</a>
</g>
</g>
<!-- Node1&#45;&gt;Node4 -->
<g id="edge3" class="edge">
<title>Node1&#45;&gt;Node4</title>
<path fill="none" stroke="midnightblue" d="M96.33,-57.41C121.67,-50.53 155.11,-41.45 177.31,-35.43"/>
<polygon fill="midnightblue" stroke="midnightblue" points="178.48,-38.74 187.21,-32.74 176.64,-31.99 178.48,-38.74"/>
</g>
<!-- Node5 -->
<g id="node5" class="node">
<title>Node5</title>
<g id="a_node5"><a target="_blank" xlink:href="http://en.cppreference.com/w/cpp/numeric/math/exp.html#" xlink:title=" ">
<polygon fill="white" stroke="black" points="285,-38.5 285,-57.5 337,-57.5 337,-38.5 285,-38.5"/>
<text text-anchor="middle" x="311" y="-45.5" font-family="Helvetica,sans-Serif" font-size="10.00">std::exp</text>
</a>
</g>
</g>
<!-- Node4&#45;&gt;Node5 -->
<g id="edge4" class="edge">
<title>Node4&#45;&gt;Node5</title>
<path fill="none" stroke="midnightblue" d="M216.55,-31.41C231.11,-33.99 254.84,-38.2 274.74,-41.74"/>
<polygon fill="midnightblue" stroke="midnightblue" points="274.27,-45.21 284.73,-43.51 275.49,-38.32 274.27,-45.21"/>
</g>
<!-- Node6 -->
<g id="node6" class="node">
<title>Node6</title>
<g id="a_node6"><a target="_blank" xlink:href="http://en.cppreference.com/w/cpp/numeric/math/pow.html#" xlink:title=" ">
<polygon fill="white" stroke="black" points="284,-0.5 284,-19.5 338,-19.5 338,-0.5 284,-0.5"/>
<text text-anchor="middle" x="311" y="-7.5" font-family="Helvetica,sans-Serif" font-size="10.00">std::pow</text>
</a>
</g>
</g>
<!-- Node4&#45;&gt;Node6 -->
<g id="edge5" class="edge">
<title>Node4&#45;&gt;Node6</title>
<path fill="none" stroke="midnightblue" d="M216.55,-26.59C230.92,-24.04 254.21,-19.91 273.95,-16.4"/>
<polygon fill="midnightblue" stroke="midnightblue" points="274.65,-19.83 283.88,-14.64 273.42,-12.94 274.65,-19.83"/>
</g>
</g>
</svg>
