<?xml version="1.0" encoding="UTF-8" standalone="no"?>
<!DOCTYPE svg PUBLIC "-//W3C//DTD SVG 1.1//EN"
 "http://www.w3.org/Graphics/SVG/1.1/DTD/svg11.dtd">
<!-- Generated by graphviz version 5.0.0 (20220707.1540)
 -->
<!-- Title: numerical_methods/composite_simpson_rule.cpp Pages: 1 -->
<svg width="385pt" height="95pt"
 viewBox="0.00 0.00 384.50 95.00" xmlns="http://www.w3.org/2000/svg" xmlns:xlink="http://www.w3.org/1999/xlink">
<g id="graph0" class="graph" transform="scale(1 1) rotate(0) translate(4 91)">
<title>numerical_methods/composite_simpson_rule.cpp</title>
<polygon fill="white" stroke="transparent" points="-4,4 -4,-91 380.5,-91 380.5,4 -4,4"/>
<!-- Node1 -->
<g id="node1" class="node">
<title>Node1</title>
<g id="a_node1"><a xlink:title="Implementation of the Composite Simpson Rule for the approximation.">
<polygon fill="#bfbfbf" stroke="black" points="114.5,-56.5 114.5,-86.5 263.5,-86.5 263.5,-56.5 114.5,-56.5"/>
<text text-anchor="start" x="122.5" y="-74.5" font-family="Helvetica,sans-Serif" font-size="10.00">numerical_methods/composite</text>
<text text-anchor="middle" x="189" y="-63.5" font-family="Helvetica,sans-Serif" font-size="10.00">_simpson_rule.cpp</text>
</a>
</g>
</g>
<!-- Node2 -->
<g id="node2" class="node">
<title>Node2</title>
<g id="a_node2"><a xlink:title=" ">
<polygon fill="white" stroke="#bfbfbf" points="0,-0.5 0,-19.5 54,-19.5 54,-0.5 0,-0.5"/>
<text text-anchor="middle" x="27" y="-7.5" font-family="Helvetica,sans-Serif" font-size="10.00">iostream</text>
</a>
</g>
</g>
<!-- Node1&#45;&gt;Node2 -->
<g id="edge1" class="edge">
<title>Node1&#45;&gt;Node2</title>
<path fill="none" stroke="midnightblue" d="M150.61,-56.4C123.06,-46.28 86.33,-32.79 60.08,-23.15"/>
<polygon fill="midnightblue" stroke="midnightblue" points="61.17,-19.82 50.57,-19.66 58.75,-26.39 61.17,-19.82"/>
</g>
<!-- Node3 -->
<g id="node3" class="node">
<title>Node3</title>
<g id="a_node3"><a xlink:title=" ">
<polygon fill="white" stroke="#bfbfbf" points="72,-0.5 72,-19.5 116,-19.5 116,-0.5 72,-0.5"/>
<text text-anchor="middle" x="94" y="-7.5" font-family="Helvetica,sans-Serif" font-size="10.00">cmath</text>
</a>
</g>
</g>
<!-- Node1&#45;&gt;Node3 -->
<g id="edge2" class="edge">
<title>Node1&#45;&gt;Node3</title>
<path fill="none" stroke="midnightblue" d="M166.49,-56.4C151.4,-46.95 131.61,-34.56 116.53,-25.11"/>
<polygon fill="midnightblue" stroke="midnightblue" points="118.16,-22 107.82,-19.66 114.44,-27.93 118.16,-22"/>
</g>
<!-- Node4 -->
<g id="node4" class="node">
<title>Node4</title>
<g id="a_node4"><a xlink:title=" ">
<polygon fill="white" stroke="#bfbfbf" points="134.5,-0.5 134.5,-19.5 179.5,-19.5 179.5,-0.5 134.5,-0.5"/>
<text text-anchor="middle" x="157" y="-7.5" font-family="Helvetica,sans-Serif" font-size="10.00">cstdlib</text>
</a>
</g>
</g>
<!-- Node1&#45;&gt;Node4 -->
<g id="edge3" class="edge">
<title>Node1&#45;&gt;Node4</title>
<path fill="none" stroke="midnightblue" d="M181.42,-56.4C176.96,-48.11 171.28,-37.55 166.52,-28.71"/>
<polygon fill="midnightblue" stroke="midnightblue" points="169.48,-26.81 161.66,-19.66 163.31,-30.12 169.48,-26.81"/>
</g>
<!-- Node5 -->
<g id="node5" class="node">
<title>Node5</title>
<g id="a_node5"><a xlink:title=" ">
<polygon fill="white" stroke="#bfbfbf" points="197.5,-0.5 197.5,-19.5 246.5,-19.5 246.5,-0.5 197.5,-0.5"/>
<text text-anchor="middle" x="222" y="-7.5" font-family="Helvetica,sans-Serif" font-size="10.00">cassert</text>
</a>
</g>
</g>
<!-- Node1&#45;&gt;Node5 -->
<g id="edge4" class="edge">
<title>Node1&#45;&gt;Node5</title>
<path fill="none" stroke="midnightblue" d="M196.82,-56.4C201.47,-48.02 207.4,-37.33 212.34,-28.42"/>
<polygon fill="midnightblue" stroke="midnightblue" points="215.41,-30.1 217.2,-19.66 209.29,-26.71 215.41,-30.1"/>
</g>
<!-- Node6 -->
<g id="node6" class="node">
<title>Node6</title>
<g id="a_node6"><a xlink:title=" ">
<polygon fill="white" stroke="#bfbfbf" points="264.5,-0.5 264.5,-19.5 323.5,-19.5 323.5,-0.5 264.5,-0.5"/>
<text text-anchor="middle" x="294" y="-7.5" font-family="Helvetica,sans-Serif" font-size="10.00">functional</text>
</a>
</g>
</g>
<!-- Node1&#45;&gt;Node6 -->
<g id="edge5" class="edge">
<title>Node1&#45;&gt;Node6</title>
<path fill="none" stroke="midnightblue" d="M213.88,-56.4C230.71,-46.86 252.84,-34.32 269.57,-24.84"/>
<polygon fill="midnightblue" stroke="midnightblue" points="271.75,-27.63 278.72,-19.66 268.3,-21.54 271.75,-27.63"/>
</g>
<!-- Node7 -->
<g id="node7" class="node">
<title>Node7</title>
<g id="a_node7"><a xlink:title=" ">
<polygon fill="white" stroke="#bfbfbf" points="341.5,-0.5 341.5,-19.5 376.5,-19.5 376.5,-0.5 341.5,-0.5"/>
<text text-anchor="middle" x="359" y="-7.5" font-family="Helvetica,sans-Serif" font-size="10.00">map</text>
</a>
</g>
</g>
<!-- Node1&#45;&gt;Node7 -->
<g id="edge6" class="edge">
<title>Node1&#45;&gt;Node7</title>
<path fill="none" stroke="midnightblue" d="M229.29,-56.4C260.94,-45.32 304.17,-30.19 331.84,-20.51"/>
<polygon fill="midnightblue" stroke="midnightblue" points="332.99,-23.81 341.28,-17.2 330.68,-17.2 332.99,-23.81"/>
</g>
</g>
</svg>
