<?xml version="1.0" encoding="UTF-8" standalone="no"?>
<!DOCTYPE svg PUBLIC "-//W3C//DTD SVG 1.1//EN"
 "http://www.w3.org/Graphics/SVG/1.1/DTD/svg11.dtd">
<!-- Generated by graphviz version 2.49.1 (20210923.0004)
 -->
<!-- Title: numerical_methods/composite_simpson_rule.cpp Pages: 1 -->
<svg width="388pt" height="95pt"
 viewBox="0.00 0.00 387.50 95.00" xmlns="http://www.w3.org/2000/svg" xmlns:xlink="http://www.w3.org/1999/xlink">
<g id="graph0" class="graph" transform="scale(1 1) rotate(0) translate(4 91)">
<title>numerical_methods/composite_simpson_rule.cpp</title>
<polygon fill="white" stroke="transparent" points="-4,4 -4,-91 383.5,-91 383.5,4 -4,4"/>
<!-- Node1 -->
<g id="node1" class="node">
<title>Node1</title>
<g id="a_node1"><a xlink:title="Implementation of the Composite Simpson Rule for the approximation.">
<polygon fill="#bfbfbf" stroke="black" points="116.5,-56.5 116.5,-86.5 268.5,-86.5 268.5,-56.5 116.5,-56.5"/>
<text text-anchor="start" x="124.5" y="-74.5" font-family="Helvetica,sans-Serif" font-size="10.00">numerical_methods/composite</text>
<text text-anchor="middle" x="192.5" y="-63.5" font-family="Helvetica,sans-Serif" font-size="10.00">_simpson_rule.cpp</text>
</a>
</g>
</g>
<!-- Node2 -->
<g id="node2" class="node">
<title>Node2</title>
<g id="a_node2"><a xlink:title=" ">
<polygon fill="white" stroke="#bfbfbf" points="0,-0.5 0,-19.5 55,-19.5 55,-0.5 0,-0.5"/>
<text text-anchor="middle" x="27.5" y="-7.5" font-family="Helvetica,sans-Serif" font-size="10.00">iostream</text>
</a>
</g>
</g>
<!-- Node1&#45;&gt;Node2 -->
<g id="edge1" class="edge">
<title>Node1&#45;&gt;Node2</title>
<path fill="none" stroke="midnightblue" d="M153.4,-56.4C125.34,-46.28 87.93,-32.79 61.19,-23.15"/>
<polygon fill="midnightblue" stroke="midnightblue" points="62.1,-19.76 51.51,-19.66 59.73,-26.34 62.1,-19.76"/>
</g>
<!-- Node3 -->
<g id="node3" class="node">
<title>Node3</title>
<g id="a_node3"><a xlink:title=" ">
<polygon fill="white" stroke="#bfbfbf" points="73.5,-0.5 73.5,-19.5 117.5,-19.5 117.5,-0.5 73.5,-0.5"/>
<text text-anchor="middle" x="95.5" y="-7.5" font-family="Helvetica,sans-Serif" font-size="10.00">cmath</text>
</a>
</g>
</g>
<!-- Node1&#45;&gt;Node3 -->
<g id="edge2" class="edge">
<title>Node1&#45;&gt;Node3</title>
<path fill="none" stroke="midnightblue" d="M169.51,-56.4C154.11,-46.95 133.91,-34.56 118.5,-25.11"/>
<polygon fill="midnightblue" stroke="midnightblue" points="119.97,-21.9 109.61,-19.66 116.31,-27.87 119.97,-21.9"/>
</g>
<!-- Node4 -->
<g id="node4" class="node">
<title>Node4</title>
<g id="a_node4"><a xlink:title=" ">
<polygon fill="white" stroke="#bfbfbf" points="136,-0.5 136,-19.5 185,-19.5 185,-0.5 136,-0.5"/>
<text text-anchor="middle" x="160.5" y="-7.5" font-family="Helvetica,sans-Serif" font-size="10.00">cassert</text>
</a>
</g>
</g>
<!-- Node1&#45;&gt;Node4 -->
<g id="edge3" class="edge">
<title>Node1&#45;&gt;Node4</title>
<path fill="none" stroke="midnightblue" d="M184.92,-56.4C180.46,-48.11 174.78,-37.55 170.02,-28.71"/>
<polygon fill="midnightblue" stroke="midnightblue" points="172.98,-26.81 165.16,-19.66 166.81,-30.12 172.98,-26.81"/>
</g>
<!-- Node5 -->
<g id="node5" class="node">
<title>Node5</title>
<g id="a_node5"><a xlink:title=" ">
<polygon fill="white" stroke="#bfbfbf" points="203,-0.5 203,-19.5 248,-19.5 248,-0.5 203,-0.5"/>
<text text-anchor="middle" x="225.5" y="-7.5" font-family="Helvetica,sans-Serif" font-size="10.00">cstdlib</text>
</a>
</g>
</g>
<!-- Node1&#45;&gt;Node5 -->
<g id="edge4" class="edge">
<title>Node1&#45;&gt;Node5</title>
<path fill="none" stroke="midnightblue" d="M200.32,-56.4C204.97,-48.02 210.9,-37.33 215.84,-28.42"/>
<polygon fill="midnightblue" stroke="midnightblue" points="218.91,-30.1 220.7,-19.66 212.79,-26.71 218.91,-30.1"/>
</g>
<!-- Node6 -->
<g id="node6" class="node">
<title>Node6</title>
<g id="a_node6"><a xlink:title=" ">
<polygon fill="white" stroke="#bfbfbf" points="266,-0.5 266,-19.5 325,-19.5 325,-0.5 266,-0.5"/>
<text text-anchor="middle" x="295.5" y="-7.5" font-family="Helvetica,sans-Serif" font-size="10.00">functional</text>
</a>
</g>
</g>
<!-- Node1&#45;&gt;Node6 -->
<g id="edge5" class="edge">
<title>Node1&#45;&gt;Node6</title>
<path fill="none" stroke="midnightblue" d="M216.91,-56.4C233.42,-46.86 255.12,-34.32 271.54,-24.84"/>
<polygon fill="midnightblue" stroke="midnightblue" points="273.6,-27.69 280.51,-19.66 270.1,-21.63 273.6,-27.69"/>
</g>
<!-- Node7 -->
<g id="node7" class="node">
<title>Node7</title>
<g id="a_node7"><a xlink:title=" ">
<polygon fill="white" stroke="#bfbfbf" points="343.5,-0.5 343.5,-19.5 379.5,-19.5 379.5,-0.5 343.5,-0.5"/>
<text text-anchor="middle" x="361.5" y="-7.5" font-family="Helvetica,sans-Serif" font-size="10.00">map</text>
</a>
</g>
</g>
<!-- Node1&#45;&gt;Node7 -->
<g id="edge6" class="edge">
<title>Node1&#45;&gt;Node7</title>
<path fill="none" stroke="midnightblue" d="M232.55,-56.4C263.71,-45.43 306.14,-30.49 333.67,-20.8"/>
<polygon fill="midnightblue" stroke="midnightblue" points="335.17,-23.98 343.44,-17.36 332.85,-17.38 335.17,-23.98"/>
</g>
</g>
</svg>
