<?xml version="1.0" encoding="UTF-8" standalone="no"?>
<!DOCTYPE svg PUBLIC "-//W3C//DTD SVG 1.1//EN"
 "http://www.w3.org/Graphics/SVG/1.1/DTD/svg11.dtd">
<!-- Generated by graphviz version 5.0.0 (20220707.1540)
 -->
<!-- Title: MinHeap::MinHeapify Pages: 1 -->
<svg width="320pt" height="142pt"
 viewBox="0.00 0.00 320.00 142.00" xmlns="http://www.w3.org/2000/svg" xmlns:xlink="http://www.w3.org/1999/xlink">
<g id="graph0" class="graph" transform="scale(1 1) rotate(0) translate(4 138)">
<title>MinHeap::MinHeapify</title>
<polygon fill="white" stroke="transparent" points="-4,4 -4,-138 316,-138 316,4 -4,4"/>
<!-- Node1 -->
<g id="node1" class="node">
<title>Node1</title>
<g id="a_node1"><a xlink:title=" ">
<polygon fill="#bfbfbf" stroke="black" points="0,-57.5 0,-76.5 111,-76.5 111,-57.5 0,-57.5"/>
<text text-anchor="middle" x="55.5" y="-64.5" font-family="Helvetica,sans-Serif" font-size="10.00">MinHeap::MinHeapify</text>
</a>
</g>
</g>
<!-- Node1&#45;&gt;Node1 -->
<g id="edge4" class="edge">
<title>Node1&#45;&gt;Node1</title>
<path fill="none" stroke="midnightblue" d="M35.46,-76.76C25.72,-85.57 32.39,-95 55.5,-95 70.3,-95 78.36,-91.13 79.68,-86.03"/>
<polygon fill="midnightblue" stroke="midnightblue" points="82.81,-84.46 75.54,-76.76 76.42,-87.31 82.81,-84.46"/>
</g>
<!-- Node2 -->
<g id="node2" class="node">
<title>Node2</title>
<g id="a_node2"><a xlink:href="../../d4/d18/composite__simpson__rule_8cpp.html#a995716bc040dc6cf32b5cb3df51c4529" target="_top" xlink:title="Another test function.">
<polygon fill="white" stroke="black" points="172.5,-114.5 172.5,-133.5 201.5,-133.5 201.5,-114.5 172.5,-114.5"/>
<text text-anchor="middle" x="187" y="-121.5" font-family="Helvetica,sans-Serif" font-size="10.00">l</text>
</a>
</g>
</g>
<!-- Node1&#45;&gt;Node2 -->
<g id="edge1" class="edge">
<title>Node1&#45;&gt;Node2</title>
<path fill="none" stroke="midnightblue" d="M78.18,-76.54C101.61,-86.86 138.83,-103.24 162.83,-113.8"/>
<polygon fill="midnightblue" stroke="midnightblue" points="161.67,-117.11 172.23,-117.94 164.49,-110.71 161.67,-117.11"/>
</g>
<!-- Node4 -->
<g id="node4" class="node">
<title>Node4</title>
<g id="a_node4"><a xlink:href="../../d2/d05/class_min_heap.html#aa8c6c141e3de664819686aa637e1afca" target="_top" xlink:title=" ">
<polygon fill="white" stroke="black" points="149.5,-76.5 149.5,-95.5 224.5,-95.5 224.5,-76.5 149.5,-76.5"/>
<text text-anchor="middle" x="187" y="-83.5" font-family="Helvetica,sans-Serif" font-size="10.00">MinHeap::left</text>
</a>
</g>
</g>
<!-- Node1&#45;&gt;Node4 -->
<g id="edge3" class="edge">
<title>Node1&#45;&gt;Node4</title>
<path fill="none" stroke="midnightblue" d="M111.04,-75C120.39,-76.37 130.02,-77.79 139.14,-79.12"/>
<polygon fill="midnightblue" stroke="midnightblue" points="138.77,-82.61 149.17,-80.6 139.78,-75.68 138.77,-82.61"/>
</g>
<!-- Node5 -->
<g id="node5" class="node">
<title>Node5</title>
<g id="a_node5"><a xlink:href="../../d2/d05/class_min_heap.html#ac760b85cf90265b8d674b942a43fb70e" target="_top" xlink:title=" ">
<polygon fill="white" stroke="black" points="147,-38.5 147,-57.5 227,-57.5 227,-38.5 147,-38.5"/>
<text text-anchor="middle" x="187" y="-45.5" font-family="Helvetica,sans-Serif" font-size="10.00">MinHeap::right</text>
</a>
</g>
</g>
<!-- Node1&#45;&gt;Node5 -->
<g id="edge5" class="edge">
<title>Node1&#45;&gt;Node5</title>
<path fill="none" stroke="midnightblue" d="M111.04,-59C119.6,-57.74 128.39,-56.45 136.81,-55.22"/>
<polygon fill="midnightblue" stroke="midnightblue" points="137.47,-58.66 146.86,-53.74 136.45,-51.73 137.47,-58.66"/>
</g>
<!-- Node6 -->
<g id="node6" class="node">
<title>Node6</title>
<g id="a_node6"><a target="_blank" xlink:href="http://en.cppreference.com/w/cpp/algorithm/swap.html#" xlink:title=" ">
<polygon fill="white" stroke="black" points="157.5,-0.5 157.5,-19.5 216.5,-19.5 216.5,-0.5 157.5,-0.5"/>
<text text-anchor="middle" x="187" y="-7.5" font-family="Helvetica,sans-Serif" font-size="10.00">std::swap</text>
</a>
</g>
</g>
<!-- Node1&#45;&gt;Node6 -->
<g id="edge6" class="edge">
<title>Node1&#45;&gt;Node6</title>
<path fill="none" stroke="midnightblue" d="M78.18,-57.46C99.19,-48.21 131.27,-34.09 154.98,-23.65"/>
<polygon fill="midnightblue" stroke="midnightblue" points="156.51,-26.8 164.25,-19.57 153.69,-20.4 156.51,-26.8"/>
</g>
<!-- Node3 -->
<g id="node3" class="node">
<title>Node3</title>
<g id="a_node3"><a target="_blank" xlink:href="http://en.cppreference.com/w/cpp/numeric/math/log.html#" xlink:title=" ">
<polygon fill="white" stroke="black" points="263,-114.5 263,-133.5 312,-133.5 312,-114.5 263,-114.5"/>
<text text-anchor="middle" x="287.5" y="-121.5" font-family="Helvetica,sans-Serif" font-size="10.00">std::log</text>
</a>
</g>
</g>
<!-- Node2&#45;&gt;Node3 -->
<g id="edge2" class="edge">
<title>Node2&#45;&gt;Node3</title>
<path fill="none" stroke="midnightblue" d="M201.7,-124C214.74,-124 234.91,-124 252.31,-124"/>
<polygon fill="midnightblue" stroke="midnightblue" points="252.7,-127.5 262.7,-124 252.7,-120.5 252.7,-127.5"/>
</g>
</g>
</svg>
