<?xml version="1.0" encoding="UTF-8" standalone="no"?>
<!DOCTYPE svg PUBLIC "-//W3C//DTD SVG 1.1//EN"
 "http://www.w3.org/Graphics/SVG/1.1/DTD/svg11.dtd">
<!-- Generated by graphviz version 5.0.0 (20220707.1540)
 -->
<!-- Title: numerical_methods::runge_kutta::rungeKutta Pages: 1 -->
<svg width="303pt" height="123pt"
 viewBox="0.00 0.00 303.00 123.00" xmlns="http://www.w3.org/2000/svg" xmlns:xlink="http://www.w3.org/1999/xlink">
<g id="graph0" class="graph" transform="scale(1 1) rotate(0) translate(4 119)">
<title>numerical_methods::runge_kutta::rungeKutta</title>
<polygon fill="white" stroke="transparent" points="-4,4 -4,-119 299,-119 299,4 -4,4"/>
<!-- Node1 -->
<g id="node1" class="node">
<title>Node1</title>
<g id="a_node1"><a xlink:title="the Runge Kutta method finds the value of integration of a function in the given limits....">
<polygon fill="#bfbfbf" stroke="black" points="0,-52 0,-82 121,-82 121,-52 0,-52"/>
<text text-anchor="start" x="8" y="-70" font-family="Helvetica,sans-Serif" font-size="10.00">numerical_methods::</text>
<text text-anchor="middle" x="60.5" y="-59" font-family="Helvetica,sans-Serif" font-size="10.00">runge_kutta::rungeKutta</text>
</a>
</g>
</g>
<!-- Node1&#45;&gt;Node1 -->
<g id="edge6" class="edge">
<title>Node1&#45;&gt;Node1</title>
<path fill="none" stroke="midnightblue" d="M39.59,-82.16C34.54,-91.56 41.52,-100.5 60.5,-100.5 72.07,-100.5 79.18,-97.18 81.82,-92.46"/>
<polygon fill="midnightblue" stroke="midnightblue" points="85.31,-92.01 81.41,-82.16 78.31,-92.29 85.31,-92.01"/>
</g>
<!-- Node2 -->
<g id="node2" class="node">
<title>Node2</title>
<g id="a_node2"><a xlink:href="../../d1/da6/rungekutta_8cpp.html#a450497475f5607333f9aca8f88901579" target="_top" xlink:title="for using the vector container">
<polygon fill="white" stroke="black" points="157,-95.5 157,-114.5 205,-114.5 205,-95.5 157,-95.5"/>
<text text-anchor="middle" x="181" y="-102.5" font-family="Helvetica,sans-Serif" font-size="10.00">change</text>
</a>
</g>
</g>
<!-- Node1&#45;&gt;Node2 -->
<g id="edge1" class="edge">
<title>Node1&#45;&gt;Node2</title>
<path fill="none" stroke="midnightblue" d="M108.33,-82.02C121.37,-86.2 135.25,-90.65 147.29,-94.51"/>
<polygon fill="midnightblue" stroke="midnightblue" points="146.32,-97.87 156.91,-97.6 148.46,-91.21 146.32,-97.87"/>
</g>
<!-- Node3 -->
<g id="node3" class="node">
<title>Node3</title>
<g id="a_node3"><a xlink:href="../../d1/df3/hash__search_8cpp.html#a566eaf0ffafd50bc61e644561fd27001" target="_top" xlink:title=" ">
<polygon fill="white" stroke="black" points="166.5,-57.5 166.5,-76.5 195.5,-76.5 195.5,-57.5 166.5,-57.5"/>
<text text-anchor="middle" x="181" y="-64.5" font-family="Helvetica,sans-Serif" font-size="10.00">h</text>
</a>
</g>
</g>
<!-- Node1&#45;&gt;Node3 -->
<g id="edge2" class="edge">
<title>Node1&#45;&gt;Node3</title>
<path fill="none" stroke="midnightblue" d="M121.1,-67C133.46,-67 145.79,-67 155.96,-67"/>
<polygon fill="midnightblue" stroke="midnightblue" points="156.04,-70.5 166.04,-67 156.04,-63.5 156.04,-70.5"/>
</g>
<!-- Node4 -->
<g id="node4" class="node">
<title>Node4</title>
<g id="a_node4"><a xlink:href="../../d4/d18/composite__simpson__rule_8cpp.html#a6d50f1b8eb533b54721812d16a3699cc" target="_top" xlink:title="Another test function.">
<polygon fill="white" stroke="black" points="166.5,-19.5 166.5,-38.5 195.5,-38.5 195.5,-19.5 166.5,-19.5"/>
<text text-anchor="middle" x="181" y="-26.5" font-family="Helvetica,sans-Serif" font-size="10.00">k</text>
</a>
</g>
</g>
<!-- Node1&#45;&gt;Node4 -->
<g id="edge3" class="edge">
<title>Node1&#45;&gt;Node4</title>
<path fill="none" stroke="midnightblue" d="M108.33,-51.98C124.93,-46.66 142.9,-40.9 156.68,-36.48"/>
<polygon fill="midnightblue" stroke="midnightblue" points="157.87,-39.77 166.32,-33.39 155.73,-33.11 157.87,-39.77"/>
</g>
<!-- Node5 -->
<g id="node5" class="node">
<title>Node5</title>
<g id="a_node5"><a target="_blank" xlink:href="http://en.cppreference.com/w/cpp/numeric/math/pow.html#" xlink:title=" ">
<polygon fill="white" stroke="black" points="241,-38.5 241,-57.5 295,-57.5 295,-38.5 241,-38.5"/>
<text text-anchor="middle" x="268" y="-45.5" font-family="Helvetica,sans-Serif" font-size="10.00">std::pow</text>
</a>
</g>
</g>
<!-- Node4&#45;&gt;Node5 -->
<g id="edge4" class="edge">
<title>Node4&#45;&gt;Node5</title>
<path fill="none" stroke="midnightblue" d="M195.66,-32.05C205.21,-34.19 218.45,-37.15 230.92,-39.94"/>
<polygon fill="midnightblue" stroke="midnightblue" points="230.16,-43.35 240.69,-42.12 231.69,-36.52 230.16,-43.35"/>
</g>
<!-- Node6 -->
<g id="node6" class="node">
<title>Node6</title>
<g id="a_node6"><a target="_blank" xlink:href="http://en.cppreference.com/w/cpp/numeric/math/sqrt.html#" xlink:title=" ">
<polygon fill="white" stroke="black" points="241.5,-0.5 241.5,-19.5 294.5,-19.5 294.5,-0.5 241.5,-0.5"/>
<text text-anchor="middle" x="268" y="-7.5" font-family="Helvetica,sans-Serif" font-size="10.00">std::sqrt</text>
</a>
</g>
</g>
<!-- Node4&#45;&gt;Node6 -->
<g id="edge5" class="edge">
<title>Node4&#45;&gt;Node6</title>
<path fill="none" stroke="midnightblue" d="M195.66,-25.95C205.36,-23.78 218.86,-20.76 231.5,-17.93"/>
<polygon fill="midnightblue" stroke="midnightblue" points="232.38,-21.32 241.38,-15.73 230.85,-14.49 232.38,-21.32"/>
</g>
</g>
</svg>
