<?xml version="1.0" encoding="UTF-8" standalone="no"?>
<!DOCTYPE svg PUBLIC "-//W3C//DTD SVG 1.1//EN"
 "http://www.w3.org/Graphics/SVG/1.1/DTD/svg11.dtd">
<!-- Generated by graphviz version 5.0.0 (20220707.1540)
 -->
<!-- Title: machine_learning::neural_network::NeuralNetwork::batch_predict Pages: 1 -->
<svg width="891pt" height="288pt"
 viewBox="0.00 0.00 891.00 287.50" xmlns="http://www.w3.org/2000/svg" xmlns:xlink="http://www.w3.org/1999/xlink">
<g id="graph0" class="graph" transform="scale(1 1) rotate(0) translate(4 283.5)">
<title>machine_learning::neural_network::NeuralNetwork::batch_predict</title>
<polygon fill="white" stroke="transparent" points="-4,4 -4,-283.5 887,-283.5 887,4 -4,4"/>
<!-- Node1 -->
<g id="node1" class="node">
<title>Node1</title>
<g id="a_node1"><a xlink:title=" ">
<polygon fill="#bfbfbf" stroke="black" points="0,-180.5 0,-221.5 128,-221.5 128,-180.5 0,-180.5"/>
<text text-anchor="start" x="8" y="-209.5" font-family="Helvetica,sans-Serif" font-size="10.00">machine_learning::neural</text>
<text text-anchor="start" x="8" y="-198.5" font-family="Helvetica,sans-Serif" font-size="10.00">_network::NeuralNetwork</text>
<text text-anchor="middle" x="64" y="-187.5" font-family="Helvetica,sans-Serif" font-size="10.00">::batch_predict</text>
</a>
</g>
</g>
<!-- Node2 -->
<g id="node2" class="node">
<title>Node2</title>
<g id="a_node2"><a xlink:href="../../d4/df4/classmachine__learning_1_1neural__network_1_1_neural_network.html#a3b9eac1824d365dce715fb17c33cb96f" target="_top" xlink:title=" ">
<polygon fill="white" stroke="black" points="164,-180.5 164,-221.5 292,-221.5 292,-180.5 164,-180.5"/>
<text text-anchor="start" x="172" y="-209.5" font-family="Helvetica,sans-Serif" font-size="10.00">machine_learning::neural</text>
<text text-anchor="start" x="172" y="-198.5" font-family="Helvetica,sans-Serif" font-size="10.00">_network::NeuralNetwork</text>
<text text-anchor="middle" x="228" y="-187.5" font-family="Helvetica,sans-Serif" font-size="10.00">::single_predict</text>
</a>
</g>
</g>
<!-- Node1&#45;&gt;Node2 -->
<g id="edge1" class="edge">
<title>Node1&#45;&gt;Node2</title>
<path fill="none" stroke="midnightblue" d="M128.1,-201C136.43,-201 145.04,-201 153.53,-201"/>
<polygon fill="midnightblue" stroke="midnightblue" points="153.81,-204.5 163.81,-201 153.81,-197.5 153.81,-204.5"/>
</g>
<!-- Node3 -->
<g id="node3" class="node">
<title>Node3</title>
<g id="a_node3"><a xlink:href="../../d4/df4/classmachine__learning_1_1neural__network_1_1_neural_network.html#a361a45f3c3d8347d79103bf182d0570b" target="_top" xlink:title=" ">
<polygon fill="white" stroke="black" points="328,-180.5 328,-221.5 473,-221.5 473,-180.5 328,-180.5"/>
<text text-anchor="start" x="336" y="-209.5" font-family="Helvetica,sans-Serif" font-size="10.00">machine_learning::neural</text>
<text text-anchor="start" x="336" y="-198.5" font-family="Helvetica,sans-Serif" font-size="10.00">_network::NeuralNetwork</text>
<text text-anchor="middle" x="400.5" y="-187.5" font-family="Helvetica,sans-Serif" font-size="10.00">::__detailed_single_prediction</text>
</a>
</g>
</g>
<!-- Node2&#45;&gt;Node3 -->
<g id="edge2" class="edge">
<title>Node2&#45;&gt;Node3</title>
<path fill="none" stroke="midnightblue" d="M292,-201C300.39,-201 309.09,-201 317.73,-201"/>
<polygon fill="midnightblue" stroke="midnightblue" points="317.84,-204.5 327.84,-201 317.84,-197.5 317.84,-204.5"/>
</g>
<!-- Node4 -->
<g id="node4" class="node">
<title>Node4</title>
<g id="a_node4"><a xlink:href="../../d8/d77/namespacemachine__learning.html#ad0bdc88e5f1be47c46c0f0c8ebf754bb" target="_top" xlink:title=" ">
<polygon fill="white" stroke="black" points="514,-249 514,-279 636,-279 636,-249 514,-249"/>
<text text-anchor="start" x="522" y="-267" font-family="Helvetica,sans-Serif" font-size="10.00">machine_learning::apply</text>
<text text-anchor="middle" x="575" y="-256" font-family="Helvetica,sans-Serif" font-size="10.00">_function</text>
</a>
</g>
</g>
<!-- Node3&#45;&gt;Node4 -->
<g id="edge3" class="edge">
<title>Node3&#45;&gt;Node4</title>
<path fill="none" stroke="midnightblue" d="M457.98,-221.63C479.02,-229.31 502.75,-237.98 523.24,-245.46"/>
<polygon fill="midnightblue" stroke="midnightblue" points="522.12,-248.78 532.71,-248.92 524.52,-242.2 522.12,-248.78"/>
</g>
<!-- Node5 -->
<g id="node5" class="node">
<title>Node5</title>
<g id="a_node5"><a target="_blank" xlink:href="http://en.cppreference.com/w/cpp/container/vector/emplace_back.html#" xlink:title=" ">
<polygon fill="white" stroke="black" points="509,-210.5 509,-229.5 641,-229.5 641,-210.5 509,-210.5"/>
<text text-anchor="middle" x="575" y="-217.5" font-family="Helvetica,sans-Serif" font-size="10.00">std::vector::emplace_back</text>
</a>
</g>
</g>
<!-- Node3&#45;&gt;Node5 -->
<g id="edge4" class="edge">
<title>Node3&#45;&gt;Node5</title>
<path fill="none" stroke="midnightblue" d="M473.16,-208.89C481.67,-209.83 490.38,-210.79 498.95,-211.73"/>
<polygon fill="midnightblue" stroke="midnightblue" points="498.58,-215.21 508.91,-212.83 499.35,-208.26 498.58,-215.21"/>
</g>
<!-- Node6 -->
<g id="node6" class="node">
<title>Node6</title>
<g id="a_node6"><a xlink:href="../../d4/d18/composite__simpson__rule_8cpp.html#a995716bc040dc6cf32b5cb3df51c4529" target="_top" xlink:title="Another test function.">
<polygon fill="white" stroke="black" points="560.5,-172.5 560.5,-191.5 589.5,-191.5 589.5,-172.5 560.5,-172.5"/>
<text text-anchor="middle" x="575" y="-179.5" font-family="Helvetica,sans-Serif" font-size="10.00">l</text>
</a>
</g>
</g>
<!-- Node3&#45;&gt;Node6 -->
<g id="edge5" class="edge">
<title>Node3&#45;&gt;Node6</title>
<path fill="none" stroke="midnightblue" d="M473.16,-193.11C500.81,-190.06 530.51,-186.79 550.47,-184.59"/>
<polygon fill="midnightblue" stroke="midnightblue" points="550.92,-188.06 560.48,-183.49 550.16,-181.11 550.92,-188.06"/>
</g>
<!-- Node8 -->
<g id="node8" class="node">
<title>Node8</title>
<g id="a_node8"><a xlink:href="../../d8/d77/namespacemachine__learning.html#a5342906d42b80fc6b6b3ad17bf00fcb9" target="_top" xlink:title=" ">
<polygon fill="white" stroke="black" points="509,-104.5 509,-123.5 641,-123.5 641,-104.5 509,-104.5"/>
<text text-anchor="middle" x="575" y="-111.5" font-family="Helvetica,sans-Serif" font-size="10.00">machine_learning::multiply</text>
</a>
</g>
</g>
<!-- Node3&#45;&gt;Node8 -->
<g id="edge7" class="edge">
<title>Node3&#45;&gt;Node8</title>
<path fill="none" stroke="midnightblue" d="M442.38,-180.38C474.29,-164.29 517.77,-142.36 545.87,-128.19"/>
<polygon fill="midnightblue" stroke="midnightblue" points="547.77,-131.15 555.12,-123.52 544.62,-124.9 547.77,-131.15"/>
</g>
<!-- Node7 -->
<g id="node7" class="node">
<title>Node7</title>
<g id="a_node7"><a target="_blank" xlink:href="http://en.cppreference.com/w/cpp/numeric/math/log.html#" xlink:title=" ">
<polygon fill="white" stroke="black" points="710.5,-202.5 710.5,-221.5 759.5,-221.5 759.5,-202.5 710.5,-202.5"/>
<text text-anchor="middle" x="735" y="-209.5" font-family="Helvetica,sans-Serif" font-size="10.00">std::log</text>
</a>
</g>
</g>
<!-- Node6&#45;&gt;Node7 -->
<g id="edge6" class="edge">
<title>Node6&#45;&gt;Node7</title>
<path fill="none" stroke="midnightblue" d="M589.75,-184.61C614.17,-189.25 665.8,-199.05 700.2,-205.58"/>
<polygon fill="midnightblue" stroke="midnightblue" points="699.8,-209.07 710.27,-207.5 701.1,-202.19 699.8,-209.07"/>
</g>
<!-- Node9 -->
<g id="node9" class="node">
<title>Node9</title>
<g id="a_node9"><a target="_blank" xlink:href="http://en.cppreference.com/w/cpp/io/manip/endl.html#" xlink:title=" ">
<polygon fill="white" stroke="black" points="708,-164.5 708,-183.5 762,-183.5 762,-164.5 708,-164.5"/>
<text text-anchor="middle" x="735" y="-171.5" font-family="Helvetica,sans-Serif" font-size="10.00">std::endl</text>
</a>
</g>
</g>
<!-- Node8&#45;&gt;Node9 -->
<g id="edge8" class="edge">
<title>Node8&#45;&gt;Node9</title>
<path fill="none" stroke="midnightblue" d="M598.3,-123.53C618.66,-132.12 649.66,-144.91 677,-155 683.71,-157.48 690.91,-159.99 697.86,-162.34"/>
<polygon fill="midnightblue" stroke="midnightblue" points="697.18,-165.8 707.77,-165.65 699.39,-159.16 697.18,-165.8"/>
</g>
<!-- Node10 -->
<g id="node10" class="node">
<title>Node10</title>
<g id="a_node10"><a target="_blank" xlink:href="http://en.cppreference.com/w/cpp/utility/program/exit.html#" xlink:title=" ">
<polygon fill="white" stroke="black" points="709,-126.5 709,-145.5 761,-145.5 761,-126.5 709,-126.5"/>
<text text-anchor="middle" x="735" y="-133.5" font-family="Helvetica,sans-Serif" font-size="10.00">std::exit</text>
</a>
</g>
</g>
<!-- Node8&#45;&gt;Node10 -->
<g id="edge9" class="edge">
<title>Node8&#45;&gt;Node10</title>
<path fill="none" stroke="midnightblue" d="M641.18,-123.08C660.89,-125.82 681.78,-128.73 698.75,-131.09"/>
<polygon fill="midnightblue" stroke="midnightblue" points="698.37,-134.57 708.76,-132.49 699.34,-127.64 698.37,-134.57"/>
</g>
<!-- Node11 -->
<g id="node11" class="node">
<title>Node11</title>
<g id="a_node11"><a xlink:href="../../d8/d77/namespacemachine__learning.html#aa4bbf61e65f8cd297255fa94b983d078" target="_top" xlink:title=" ">
<polygon fill="white" stroke="black" points="679,-77 679,-107 791,-107 791,-77 679,-77"/>
<text text-anchor="start" x="687" y="-95" font-family="Helvetica,sans-Serif" font-size="10.00">machine_learning::get</text>
<text text-anchor="middle" x="735" y="-84" font-family="Helvetica,sans-Serif" font-size="10.00">_shape</text>
</a>
</g>
</g>
<!-- Node8&#45;&gt;Node11 -->
<g id="edge10" class="edge">
<title>Node8&#45;&gt;Node11</title>
<path fill="none" stroke="midnightblue" d="M641.18,-104.92C650.19,-103.67 659.46,-102.38 668.48,-101.12"/>
<polygon fill="midnightblue" stroke="midnightblue" points="669.12,-104.57 678.54,-99.72 668.15,-97.63 669.12,-104.57"/>
</g>
<!-- Node12 -->
<g id="node12" class="node">
<title>Node12</title>
<g id="a_node12"><a xlink:href="../../d4/d18/composite__simpson__rule_8cpp.html#a6d50f1b8eb533b54721812d16a3699cc" target="_top" xlink:title="Another test function.">
<polygon fill="white" stroke="black" points="720.5,-38.5 720.5,-57.5 749.5,-57.5 749.5,-38.5 720.5,-38.5"/>
<text text-anchor="middle" x="735" y="-45.5" font-family="Helvetica,sans-Serif" font-size="10.00">k</text>
</a>
</g>
</g>
<!-- Node8&#45;&gt;Node12 -->
<g id="edge11" class="edge">
<title>Node8&#45;&gt;Node12</title>
<path fill="none" stroke="midnightblue" d="M595.51,-104.48C615.69,-94.79 648.22,-79.58 677,-68 687.95,-63.6 700.28,-59.2 710.67,-55.66"/>
<polygon fill="midnightblue" stroke="midnightblue" points="711.92,-58.93 720.28,-52.43 709.69,-52.29 711.92,-58.93"/>
</g>
<!-- Node15 -->
<g id="node15" class="node">
<title>Node15</title>
<g id="a_node15"><a target="_blank" xlink:href="http://en.cppreference.com/w/cpp/container/vector/push_back.html#" xlink:title=" ">
<polygon fill="white" stroke="black" points="677,-0.5 677,-19.5 793,-19.5 793,-0.5 677,-0.5"/>
<text text-anchor="middle" x="735" y="-7.5" font-family="Helvetica,sans-Serif" font-size="10.00">std::vector::push_back</text>
</a>
</g>
</g>
<!-- Node8&#45;&gt;Node15 -->
<g id="edge14" class="edge">
<title>Node8&#45;&gt;Node15</title>
<path fill="none" stroke="midnightblue" d="M584.84,-104.48C601.39,-87.18 638.81,-50.39 677,-29 680.74,-26.91 684.74,-25 688.83,-23.26"/>
<polygon fill="midnightblue" stroke="midnightblue" points="690.38,-26.42 698.45,-19.54 687.86,-19.89 690.38,-26.42"/>
</g>
<!-- Node13 -->
<g id="node13" class="node">
<title>Node13</title>
<g id="a_node13"><a target="_blank" xlink:href="http://en.cppreference.com/w/cpp/numeric/math/pow.html#" xlink:title=" ">
<polygon fill="white" stroke="black" points="829,-57.5 829,-76.5 883,-76.5 883,-57.5 829,-57.5"/>
<text text-anchor="middle" x="856" y="-64.5" font-family="Helvetica,sans-Serif" font-size="10.00">std::pow</text>
</a>
</g>
</g>
<!-- Node12&#45;&gt;Node13 -->
<g id="edge12" class="edge">
<title>Node12&#45;&gt;Node13</title>
<path fill="none" stroke="midnightblue" d="M749.65,-50.18C766.46,-52.86 795.64,-57.52 819.04,-61.26"/>
<polygon fill="midnightblue" stroke="midnightblue" points="818.56,-64.73 828.99,-62.85 819.66,-57.81 818.56,-64.73"/>
</g>
<!-- Node14 -->
<g id="node14" class="node">
<title>Node14</title>
<g id="a_node14"><a target="_blank" xlink:href="http://en.cppreference.com/w/cpp/numeric/math/sqrt.html#" xlink:title=" ">
<polygon fill="white" stroke="black" points="829.5,-19.5 829.5,-38.5 882.5,-38.5 882.5,-19.5 829.5,-19.5"/>
<text text-anchor="middle" x="856" y="-26.5" font-family="Helvetica,sans-Serif" font-size="10.00">std::sqrt</text>
</a>
</g>
</g>
<!-- Node12&#45;&gt;Node14 -->
<g id="edge13" class="edge">
<title>Node12&#45;&gt;Node14</title>
<path fill="none" stroke="midnightblue" d="M749.65,-45.82C766.56,-43.12 796.01,-38.42 819.48,-34.67"/>
<polygon fill="midnightblue" stroke="midnightblue" points="820.13,-38.11 829.45,-33.08 819.02,-31.2 820.13,-38.11"/>
</g>
</g>
</svg>
