<?xml version="1.0" encoding="UTF-8" standalone="no"?>
<!DOCTYPE svg PUBLIC "-//W3C//DTD SVG 1.1//EN"
 "http://www.w3.org/Graphics/SVG/1.1/DTD/svg11.dtd">
<!-- Generated by graphviz version 5.0.0 (20220707.1540)
 -->
<!-- Title: machine_learning::neural_network::NeuralNetwork::fit Pages: 1 -->
<!--zoomable 828 -->
<svg id="main" version="1.1" xmlns="http://www.w3.org/2000/svg" xmlns:xlink="http://www.w3.org/1999/xlink" xml:space="preserve" onload="init(evt)">
<style type="text/css"><![CDATA[
.edge:hover path { stroke: red; }
.edge:hover polygon { stroke: red; fill: red; }
]]></style>
<script type="text/javascript"><![CDATA[
var edges = document.getElementsByTagName('g');
if (edges && edges.length) {
  for (var i=0;i<edges.length;i++) {
    if (edges[i].id.substr(0,4)=='edge') {
      edges[i].setAttribute('class','edge');
    }
  }
}
]]></script>
        <defs>
                <circle id="rim" cx="0" cy="0" r="7"/>
                <circle id="rim2" cx="0" cy="0" r="3.5"/>
                <g id="zoomPlus">
                        <use xlink:href="#rim" fill="#404040">
                                <set attributeName="fill" to="#808080" begin="zoomplus.mouseover" end="zoomplus.mouseout"/>
                        </use>
                        <path d="M-4,0h8M0,-4v8" fill="none" stroke="white" stroke-width="1.5" pointer-events="none"/>
                </g>
                <g id="zoomMin">
                        <use xlink:href="#rim" fill="#404040">
                                <set attributeName="fill" to="#808080" begin="zoomminus.mouseover" end="zoomminus.mouseout"/>
                        </use>
                        <path d="M-4,0h8" fill="none" stroke="white" stroke-width="1.5" pointer-events="none"/>
                </g>
                <g id="dirArrow">
                        <path fill="none" stroke="white" stroke-width="1.5" d="M0,-3.0v7 M-2.5,-0.5L0,-3.0L2.5,-0.5"/>
                </g>
               <g id="resetDef">
                       <use xlink:href="#rim2" fill="#404040">
                               <set attributeName="fill" to="#808080" begin="reset.mouseover" end="reset.mouseout"/>
                       </use>
               </g>
        </defs>

<script type="text/javascript">
var viewWidth = 750;
var viewHeight = 828;
var sectionId = 'dynsection-7';
</script>
<script xlink:href="../../svgpan.js"/>
<svg id="graph" class="graph">
<g id="viewport">
<title>machine_learning::neural_network::NeuralNetwork::fit</title>
<polygon fill="white" stroke="transparent" points="-4,4 -4,-824 746,-824 746,4 -4,4"/>
<!-- Node1 -->
<g id="node1" class="node">
<title>Node1</title>
<g id="a_node1"><a xlink:title=" ">
<polygon fill="#bfbfbf" stroke="black" points="0,-322.5 0,-352.5 142,-352.5 142,-322.5 0,-322.5"/>
<text text-anchor="start" x="8" y="-340.5" font-family="Helvetica,sans-Serif" font-size="10.00">machine_learning::neural</text>
<text text-anchor="middle" x="71" y="-329.5" font-family="Helvetica,sans-Serif" font-size="10.00">_network::NeuralNetwork::fit</text>
</a>
</g>
</g>
<!-- Node2 -->
<g id="node2" class="node">
<title>Node2</title>
<g id="a_node2"><a xlink:href="../../d4/df4/classmachine__learning_1_1neural__network_1_1_neural_network.html#a361a45f3c3d8347d79103bf182d0570b" target="_top" xlink:title=" ">
<polygon fill="white" stroke="black" points="178,-713 178,-754 323,-754 323,-713 178,-713"/>
<text text-anchor="start" x="186" y="-742" font-family="Helvetica,sans-Serif" font-size="10.00">machine_learning::neural</text>
<text text-anchor="start" x="186" y="-731" font-family="Helvetica,sans-Serif" font-size="10.00">_network::NeuralNetwork</text>
<text text-anchor="middle" x="250.5" y="-720" font-family="Helvetica,sans-Serif" font-size="10.00">::__detailed_single_prediction</text>
</a>
</g>
</g>
<!-- Node1&#45;&gt;Node2 -->
<g id="edge1" class="edge">
<title>Node1&#45;&gt;Node2</title>
<path fill="none" stroke="midnightblue" d="M72.27,-352.54C74,-406.1 86.62,-590.14 178,-698.5 180.58,-701.56 183.5,-704.38 186.63,-706.97"/>
<polygon fill="midnightblue" stroke="midnightblue" points="184.69,-709.88 194.83,-712.94 188.81,-704.22 184.69,-709.88"/>
</g>
<!-- Node3 -->
<g id="node3" class="node">
<title>Node3</title>
<g id="a_node3"><a xlink:href="../../d8/d77/namespacemachine__learning.html#ad0bdc88e5f1be47c46c0f0c8ebf754bb" target="_top" xlink:title=" ">
<polygon fill="white" stroke="black" points="368.5,-789.5 368.5,-819.5 490.5,-819.5 490.5,-789.5 368.5,-789.5"/>
<text text-anchor="start" x="376.5" y="-807.5" font-family="Helvetica,sans-Serif" font-size="10.00">machine_learning::apply</text>
<text text-anchor="middle" x="429.5" y="-796.5" font-family="Helvetica,sans-Serif" font-size="10.00">_function</text>
</a>
</g>
</g>
<!-- Node1&#45;&gt;Node3 -->
<g id="edge14" class="edge">
<title>Node1&#45;&gt;Node3</title>
<path fill="none" stroke="midnightblue" d="M73.56,-352.63C81,-421.62 115.09,-705.53 178,-763.5 226.05,-807.78 302.47,-814.52 358.28,-812.35"/>
<polygon fill="midnightblue" stroke="midnightblue" points="358.64,-815.84 368.45,-811.85 358.29,-808.85 358.64,-815.84"/>
</g>
<!-- Node7 -->
<g id="node7" class="node">
<title>Node7</title>
<g id="a_node7"><a xlink:href="../../d8/d77/namespacemachine__learning.html#a5342906d42b80fc6b6b3ad17bf00fcb9" target="_top" xlink:title=" ">
<polygon fill="white" stroke="black" points="363.5,-637 363.5,-656 495.5,-656 495.5,-637 363.5,-637"/>
<text text-anchor="middle" x="429.5" y="-644" font-family="Helvetica,sans-Serif" font-size="10.00">machine_learning::multiply</text>
</a>
</g>
</g>
<!-- Node1&#45;&gt;Node7 -->
<g id="edge39" class="edge">
<title>Node1&#45;&gt;Node7</title>
<path fill="none" stroke="midnightblue" d="M72.4,-352.78C74.6,-401.47 88.63,-553.83 178,-622.5 232.3,-664.22 314.02,-663.85 369.22,-657.29"/>
<polygon fill="midnightblue" stroke="midnightblue" points="369.74,-660.75 379.21,-656 368.84,-653.81 369.74,-660.75"/>
</g>
<!-- Node8 -->
<g id="node8" class="node">
<title>Node8</title>
<g id="a_node8"><a target="_blank" xlink:href="http://en.cppreference.com/w/cpp/io/manip/endl.html#" xlink:title=" ">
<polygon fill="white" stroke="black" points="567,-511 567,-530 621,-530 621,-511 567,-511"/>
<text text-anchor="middle" x="594" y="-518" font-family="Helvetica,sans-Serif" font-size="10.00">std::endl</text>
</a>
</g>
</g>
<!-- Node1&#45;&gt;Node8 -->
<g id="edge23" class="edge">
<title>Node1&#45;&gt;Node8</title>
<path fill="none" stroke="midnightblue" d="M93.36,-352.51C114.38,-366.97 147.65,-389 178,-405.5 255.59,-447.68 274.19,-462.86 359,-487.5 427.17,-507.3 510.08,-515.41 556.67,-518.59"/>
<polygon fill="midnightblue" stroke="midnightblue" points="556.67,-522.1 566.87,-519.24 557.12,-515.11 556.67,-522.1"/>
</g>
<!-- Node9 -->
<g id="node9" class="node">
<title>Node9</title>
<g id="a_node9"><a target="_blank" xlink:href="http://en.cppreference.com/w/cpp/utility/program/exit.html#" xlink:title=" ">
<polygon fill="white" stroke="black" points="568,-435 568,-454 620,-454 620,-435 568,-435"/>
<text text-anchor="middle" x="594" y="-442" font-family="Helvetica,sans-Serif" font-size="10.00">std::exit</text>
</a>
</g>
</g>
<!-- Node1&#45;&gt;Node9 -->
<g id="edge31" class="edge">
<title>Node1&#45;&gt;Node9</title>
<path fill="none" stroke="midnightblue" d="M142.1,-325.13C193.07,-315.15 263.31,-299.35 323,-278.5 339.7,-272.67 341.73,-265.37 359,-261.5 420.15,-247.79 446.59,-228.73 500,-261.5 559.29,-297.88 582.23,-385.17 589.79,-424.59"/>
<polygon fill="midnightblue" stroke="midnightblue" points="586.36,-425.33 591.56,-434.56 593.26,-424.1 586.36,-425.33"/>
</g>
<!-- Node10 -->
<g id="node10" class="node">
<title>Node10</title>
<g id="a_node10"><a xlink:href="../../d8/d77/namespacemachine__learning.html#aa4bbf61e65f8cd297255fa94b983d078" target="_top" xlink:title=" ">
<polygon fill="white" stroke="black" points="538,-587.5 538,-617.5 650,-617.5 650,-587.5 538,-587.5"/>
<text text-anchor="start" x="546" y="-605.5" font-family="Helvetica,sans-Serif" font-size="10.00">machine_learning::get</text>
<text text-anchor="middle" x="594" y="-594.5" font-family="Helvetica,sans-Serif" font-size="10.00">_shape</text>
</a>
</g>
</g>
<!-- Node1&#45;&gt;Node10 -->
<g id="edge32" class="edge">
<title>Node1&#45;&gt;Node10</title>
<path fill="none" stroke="midnightblue" d="M73.86,-352.52C79.95,-394.64 103.38,-514.31 178,-568.5 232.15,-607.82 425.03,-608.05 527.66,-605.16"/>
<polygon fill="midnightblue" stroke="midnightblue" points="528.02,-608.66 537.91,-604.86 527.81,-601.66 528.02,-608.66"/>
</g>
<!-- Node15 -->
<g id="node15" class="node">
<title>Node15</title>
<g id="a_node15"><a xlink:href="../../d8/d77/namespacemachine__learning.html#a50480fccfb39de20ca47f1bf51ecb6ec" target="_top" xlink:title=" ">
<polygon fill="white" stroke="black" points="364,-195 364,-214 495,-214 495,-195 364,-195"/>
<text text-anchor="middle" x="429.5" y="-202" font-family="Helvetica,sans-Serif" font-size="10.00">machine_learning::argmax</text>
</a>
</g>
</g>
<!-- Node1&#45;&gt;Node15 -->
<g id="edge15" class="edge">
<title>Node1&#45;&gt;Node15</title>
<path fill="none" stroke="midnightblue" d="M99.77,-322.28C120.82,-311.14 150.69,-296.16 178,-285.5 240.62,-261.06 259.4,-264.26 323,-242.5 339.24,-236.94 342.88,-234.41 359,-228.5 369.17,-224.77 380.24,-220.87 390.49,-217.33"/>
<polygon fill="midnightblue" stroke="midnightblue" points="391.69,-220.62 400.01,-214.06 389.41,-214 391.69,-220.62"/>
</g>
<!-- Node20 -->
<g id="node20" class="node">
<title>Node20</title>
<g id="a_node20"><a xlink:href="../../d8/d77/namespacemachine__learning.html#af801bf30591ca6b2c38ff4fed0ded23f" target="_top" xlink:title=" ">
<polygon fill="white" stroke="black" points="189.5,-366.5 189.5,-396.5 311.5,-396.5 311.5,-366.5 189.5,-366.5"/>
<text text-anchor="start" x="197.5" y="-384.5" font-family="Helvetica,sans-Serif" font-size="10.00">machine_learning::equal</text>
<text text-anchor="middle" x="250.5" y="-373.5" font-family="Helvetica,sans-Serif" font-size="10.00">_shuffle</text>
</a>
</g>
</g>
<!-- Node1&#45;&gt;Node20 -->
<g id="edge24" class="edge">
<title>Node1&#45;&gt;Node20</title>
<path fill="none" stroke="midnightblue" d="M132.59,-352.52C147.67,-356.26 163.95,-360.29 179.44,-364.13"/>
<polygon fill="midnightblue" stroke="midnightblue" points="178.94,-367.61 189.48,-366.62 180.62,-360.82 178.94,-367.61"/>
</g>
<!-- Node25 -->
<g id="node25" class="node">
<title>Node25</title>
<g id="a_node25"><a xlink:href="../../d8/d77/namespacemachine__learning.html#acafa3e62b686aebdbad81c4f89913f43" target="_top" xlink:title=" ">
<polygon fill="white" stroke="black" points="359,-549.5 359,-579.5 500,-579.5 500,-549.5 359,-549.5"/>
<text text-anchor="start" x="367" y="-567.5" font-family="Helvetica,sans-Serif" font-size="10.00">machine_learning::hadamard</text>
<text text-anchor="middle" x="429.5" y="-556.5" font-family="Helvetica,sans-Serif" font-size="10.00">_product</text>
</a>
</g>
</g>
<!-- Node1&#45;&gt;Node25 -->
<g id="edge33" class="edge">
<title>Node1&#45;&gt;Node25</title>
<path fill="none" stroke="midnightblue" d="M75.11,-352.5C83.81,-390.31 112.21,-489.66 178,-534.5 227.65,-568.33 296,-574.52 348.77,-572.98"/>
<polygon fill="midnightblue" stroke="midnightblue" points="348.91,-576.48 358.77,-572.59 348.64,-569.48 348.91,-576.48"/>
</g>
<!-- Node26 -->
<g id="node26" class="node">
<title>Node26</title>
<g id="a_node26"><a target="_blank" xlink:href="http://en.cppreference.com/w/cpp/algorithm/min.html#" xlink:title=" ">
<polygon fill="white" stroke="black" points="224.5,-214 224.5,-233 276.5,-233 276.5,-214 224.5,-214"/>
<text text-anchor="middle" x="250.5" y="-221" font-family="Helvetica,sans-Serif" font-size="10.00">std::min</text>
</a>
</g>
</g>
<!-- Node1&#45;&gt;Node26 -->
<g id="edge38" class="edge">
<title>Node1&#45;&gt;Node26</title>
<path fill="none" stroke="midnightblue" d="M86.07,-322.41C105.18,-302.7 141.21,-268.27 178,-247.5 189.31,-241.11 202.6,-236.07 214.63,-232.29"/>
<polygon fill="midnightblue" stroke="midnightblue" points="215.77,-235.61 224.36,-229.41 213.78,-228.89 215.77,-235.61"/>
</g>
<!-- Node27 -->
<g id="node27" class="node">
<title>Node27</title>
<g id="a_node27"><a target="_blank" xlink:href="http://en.cppreference.com/w/cpp/chrono/high_resolution_clock/now.html#" xlink:title=" ">
<polygon fill="white" stroke="black" points="182,-164.5 182,-194.5 319,-194.5 319,-164.5 182,-164.5"/>
<text text-anchor="start" x="190" y="-182.5" font-family="Helvetica,sans-Serif" font-size="10.00">std::chrono::high_resolution</text>
<text text-anchor="middle" x="250.5" y="-171.5" font-family="Helvetica,sans-Serif" font-size="10.00">_clock::now</text>
</a>
</g>
</g>
<!-- Node1&#45;&gt;Node27 -->
<g id="edge40" class="edge">
<title>Node1&#45;&gt;Node27</title>
<path fill="none" stroke="midnightblue" d="M80.14,-322.44C95.64,-295.11 132.01,-237.14 178,-204.5 180.68,-202.6 183.52,-200.83 186.46,-199.18"/>
<polygon fill="midnightblue" stroke="midnightblue" points="188.17,-202.24 195.53,-194.62 185.03,-195.99 188.17,-202.24"/>
</g>
<!-- Node28 -->
<g id="node28" class="node">
<title>Node28</title>
<g id="a_node28"><a target="_blank" xlink:href="http://en.cppreference.com/w/cpp/container/vector/resize.html#" xlink:title=" ">
<polygon fill="white" stroke="black" points="203,-126 203,-145 298,-145 298,-126 203,-126"/>
<text text-anchor="middle" x="250.5" y="-133" font-family="Helvetica,sans-Serif" font-size="10.00">std::vector::resize</text>
</a>
</g>
</g>
<!-- Node1&#45;&gt;Node28 -->
<g id="edge41" class="edge">
<title>Node1&#45;&gt;Node28</title>
<path fill="none" stroke="midnightblue" d="M76.38,-322.26C87.3,-287.01 119.23,-199.44 178,-154.5 182.64,-150.95 187.89,-148.06 193.38,-145.72"/>
<polygon fill="midnightblue" stroke="midnightblue" points="194.62,-148.99 202.8,-142.25 192.2,-142.42 194.62,-148.99"/>
</g>
<!-- Node29 -->
<g id="node29" class="node">
<title>Node29</title>
<g id="a_node29"><a xlink:href="../../d5/d91/namespacesorting.html#a7bfe11bd4703eacd1dab93f25ec639c5" target="_top" xlink:title=" ">
<polygon fill="white" stroke="black" points="210,-328 210,-347 291,-347 291,-328 210,-328"/>
<text text-anchor="middle" x="250.5" y="-335" font-family="Helvetica,sans-Serif" font-size="10.00">sorting::shuffle</text>
</a>
</g>
</g>
<!-- Node1&#45;&gt;Node29 -->
<g id="edge42" class="edge">
<title>Node1&#45;&gt;Node29</title>
<path fill="none" stroke="midnightblue" d="M142.15,-337.5C161.43,-337.5 181.94,-337.5 199.8,-337.5"/>
<polygon fill="midnightblue" stroke="midnightblue" points="199.99,-341 209.99,-337.5 199.99,-334 199.99,-341"/>
</g>
<!-- Node30 -->
<g id="node30" class="node">
<title>Node30</title>
<g id="a_node30"><a target="_blank" xlink:href="http://en.cppreference.com/w/cpp/container/vector/size.html#" xlink:title=" ">
<polygon fill="white" stroke="black" points="207,-88 207,-107 294,-107 294,-88 207,-88"/>
<text text-anchor="middle" x="250.5" y="-95" font-family="Helvetica,sans-Serif" font-size="10.00">std::vector::size</text>
</a>
</g>
</g>
<!-- Node1&#45;&gt;Node30 -->
<g id="edge45" class="edge">
<title>Node1&#45;&gt;Node30</title>
<path fill="none" stroke="midnightblue" d="M74.71,-322.48C82.72,-282.5 110.16,-172.68 178,-116.5 183.64,-111.83 190.33,-108.29 197.3,-105.62"/>
<polygon fill="midnightblue" stroke="midnightblue" points="198.5,-108.91 206.92,-102.49 196.33,-102.25 198.5,-108.91"/>
</g>
<!-- Node31 -->
<g id="node31" class="node">
<title>Node31</title>
<g id="a_node31"><a xlink:href="../../d8/d77/namespacemachine__learning.html#a6f1c98c016ad34ff3d9f39372161bd35" target="_top" xlink:title=" ">
<polygon fill="white" stroke="black" points="192,-50 192,-69 309,-69 309,-50 192,-50"/>
<text text-anchor="middle" x="250.5" y="-57" font-family="Helvetica,sans-Serif" font-size="10.00">machine_learning::sum</text>
</a>
</g>
</g>
<!-- Node1&#45;&gt;Node31 -->
<g id="edge46" class="edge">
<title>Node1&#45;&gt;Node31</title>
<path fill="none" stroke="midnightblue" d="M73.58,-322.26C79.02,-277.62 101.18,-146.02 178,-78.5 179.94,-76.79 182.02,-75.24 184.2,-73.82"/>
<polygon fill="midnightblue" stroke="midnightblue" points="185.94,-76.86 193.05,-69.01 182.6,-70.71 185.94,-76.86"/>
</g>
<!-- Node32 -->
<g id="node32" class="node">
<title>Node32</title>
<g id="a_node32"><a xlink:href="../../d8/d77/namespacemachine__learning.html#a89fde571b38f9483576594f66572958a" target="_top" xlink:title=" ">
<polygon fill="white" stroke="black" points="359,-675 359,-694 500,-694 500,-675 359,-675"/>
<text text-anchor="middle" x="429.5" y="-682" font-family="Helvetica,sans-Serif" font-size="10.00">machine_learning::transpose</text>
</a>
</g>
</g>
<!-- Node1&#45;&gt;Node32 -->
<g id="edge47" class="edge">
<title>Node1&#45;&gt;Node32</title>
<path fill="none" stroke="midnightblue" d="M71.81,-352.56C72.05,-404.35 80.43,-576.25 178,-655.5 229.03,-696.95 306.37,-699.75 361.61,-694.98"/>
<polygon fill="midnightblue" stroke="midnightblue" points="362.04,-698.46 371.66,-694.01 361.37,-691.49 362.04,-698.46"/>
</g>
<!-- Node33 -->
<g id="node33" class="node">
<title>Node33</title>
<g id="a_node33"><a xlink:href="../../d8/d77/namespacemachine__learning.html#ac1bdaa2a724b4ce6a6bb371a5dbe2e7e" target="_top" xlink:title=" ">
<polygon fill="white" stroke="black" points="186.5,-0.5 186.5,-30.5 314.5,-30.5 314.5,-0.5 186.5,-0.5"/>
<text text-anchor="start" x="194.5" y="-18.5" font-family="Helvetica,sans-Serif" font-size="10.00">machine_learning::zeroes</text>
<text text-anchor="middle" x="250.5" y="-7.5" font-family="Helvetica,sans-Serif" font-size="10.00">_initialization</text>
</a>
</g>
</g>
<!-- Node1&#45;&gt;Node33 -->
<g id="edge50" class="edge">
<title>Node1&#45;&gt;Node33</title>
<path fill="none" stroke="midnightblue" d="M72.94,-322.47C76.74,-274.43 95.08,-122.88 178,-40.5 179.47,-39.04 181.03,-37.67 182.66,-36.37"/>
<polygon fill="midnightblue" stroke="midnightblue" points="185,-39.02 191.36,-30.54 181.1,-33.2 185,-39.02"/>
</g>
<!-- Node2&#45;&gt;Node3 -->
<g id="edge2" class="edge">
<title>Node2&#45;&gt;Node3</title>
<path fill="none" stroke="midnightblue" d="M297.82,-754.03C316.69,-762.21 338.79,-771.55 359,-779.5 364.43,-781.64 370.12,-783.8 375.81,-785.92"/>
<polygon fill="midnightblue" stroke="midnightblue" points="374.75,-789.26 385.35,-789.42 377.17,-782.69 374.75,-789.26"/>
</g>
<!-- Node4 -->
<g id="node4" class="node">
<title>Node4</title>
<g id="a_node4"><a target="_blank" xlink:href="http://en.cppreference.com/w/cpp/container/vector/emplace_back.html#" xlink:title=" ">
<polygon fill="white" stroke="black" points="363.5,-751 363.5,-770 495.5,-770 495.5,-751 363.5,-751"/>
<text text-anchor="middle" x="429.5" y="-758" font-family="Helvetica,sans-Serif" font-size="10.00">std::vector::emplace_back</text>
</a>
</g>
</g>
<!-- Node2&#45;&gt;Node4 -->
<g id="edge3" class="edge">
<title>Node2&#45;&gt;Node4</title>
<path fill="none" stroke="midnightblue" d="M323.24,-744.44C333.99,-746.08 345.08,-747.77 355.84,-749.42"/>
<polygon fill="midnightblue" stroke="midnightblue" points="355.63,-752.92 366.04,-750.97 356.69,-746 355.63,-752.92"/>
</g>
<!-- Node5 -->
<g id="node5" class="node">
<title>Node5</title>
<g id="a_node5"><a xlink:href="../../d4/d18/composite__simpson__rule_8cpp.html#a995716bc040dc6cf32b5cb3df51c4529" target="_top" xlink:title="Another test function.">
<polygon fill="white" stroke="black" points="415,-713 415,-732 444,-732 444,-713 415,-713"/>
<text text-anchor="middle" x="429.5" y="-720" font-family="Helvetica,sans-Serif" font-size="10.00">l</text>
</a>
</g>
</g>
<!-- Node2&#45;&gt;Node5 -->
<g id="edge4" class="edge">
<title>Node2&#45;&gt;Node5</title>
<path fill="none" stroke="midnightblue" d="M323.24,-729.04C352.32,-727.23 383.9,-725.27 404.81,-723.97"/>
<polygon fill="midnightblue" stroke="midnightblue" points="405.21,-727.45 414.97,-723.34 404.77,-720.47 405.21,-727.45"/>
</g>
<!-- Node2&#45;&gt;Node7 -->
<g id="edge6" class="edge">
<title>Node2&#45;&gt;Node7</title>
<path fill="none" stroke="midnightblue" d="M278.96,-712.9C299.95,-697.97 330.11,-678.25 359,-665.5 364.35,-663.14 370.07,-661.01 375.84,-659.1"/>
<polygon fill="midnightblue" stroke="midnightblue" points="377.02,-662.4 385.54,-656.1 374.95,-655.71 377.02,-662.4"/>
</g>
<!-- Node6 -->
<g id="node6" class="node">
<title>Node6</title>
<g id="a_node6"><a target="_blank" xlink:href="http://en.cppreference.com/w/cpp/numeric/math/log.html#" xlink:title=" ">
<polygon fill="white" stroke="black" points="569.5,-713 569.5,-732 618.5,-732 618.5,-713 569.5,-713"/>
<text text-anchor="middle" x="594" y="-720" font-family="Helvetica,sans-Serif" font-size="10.00">std::log</text>
</a>
</g>
</g>
<!-- Node5&#45;&gt;Node6 -->
<g id="edge5" class="edge">
<title>Node5&#45;&gt;Node6</title>
<path fill="none" stroke="midnightblue" d="M444.08,-722.5C469.1,-722.5 523.2,-722.5 558.84,-722.5"/>
<polygon fill="midnightblue" stroke="midnightblue" points="559.25,-726 569.25,-722.5 559.25,-719 559.25,-726"/>
</g>
<!-- Node7&#45;&gt;Node8 -->
<g id="edge7" class="edge">
<title>Node7&#45;&gt;Node8</title>
<path fill="none" stroke="midnightblue" d="M442.98,-636.82C470.82,-615.24 538.2,-562.99 572.38,-536.49"/>
<polygon fill="midnightblue" stroke="midnightblue" points="574.94,-538.93 580.7,-530.04 570.65,-533.4 574.94,-538.93"/>
</g>
<!-- Node7&#45;&gt;Node9 -->
<g id="edge8" class="edge">
<title>Node7&#45;&gt;Node9</title>
<path fill="none" stroke="midnightblue" d="M446.23,-636.94C461.73,-626.83 485.17,-609.58 500,-589.5 525.1,-555.51 512.6,-536.69 536,-501.5 546.2,-486.16 560.98,-471.53 572.93,-460.93"/>
<polygon fill="midnightblue" stroke="midnightblue" points="575.37,-463.45 580.67,-454.28 570.8,-458.14 575.37,-463.45"/>
</g>
<!-- Node7&#45;&gt;Node10 -->
<g id="edge9" class="edge">
<title>Node7&#45;&gt;Node10</title>
<path fill="none" stroke="midnightblue" d="M465.76,-636.95C484.05,-632 506.99,-625.79 528.33,-620.01"/>
<polygon fill="midnightblue" stroke="midnightblue" points="529.26,-623.39 538,-617.39 527.43,-616.63 529.26,-623.39"/>
</g>
<!-- Node11 -->
<g id="node11" class="node">
<title>Node11</title>
<g id="a_node11"><a xlink:href="../../d4/d18/composite__simpson__rule_8cpp.html#a6d50f1b8eb533b54721812d16a3699cc" target="_top" xlink:title="Another test function.">
<polygon fill="white" stroke="black" points="579.5,-637 579.5,-656 608.5,-656 608.5,-637 579.5,-637"/>
<text text-anchor="middle" x="594" y="-644" font-family="Helvetica,sans-Serif" font-size="10.00">k</text>
</a>
</g>
</g>
<!-- Node7&#45;&gt;Node11 -->
<g id="edge10" class="edge">
<title>Node7&#45;&gt;Node11</title>
<path fill="none" stroke="midnightblue" d="M495.66,-646.5C521.61,-646.5 549.85,-646.5 569.19,-646.5"/>
<polygon fill="midnightblue" stroke="midnightblue" points="569.21,-650 579.21,-646.5 569.21,-643 569.21,-650"/>
</g>
<!-- Node14 -->
<g id="node14" class="node">
<title>Node14</title>
<g id="a_node14"><a target="_blank" xlink:href="http://en.cppreference.com/w/cpp/container/vector/push_back.html#" xlink:title=" ">
<polygon fill="white" stroke="black" points="536,-675 536,-694 652,-694 652,-675 536,-675"/>
<text text-anchor="middle" x="594" y="-682" font-family="Helvetica,sans-Serif" font-size="10.00">std::vector::push_back</text>
</a>
</g>
</g>
<!-- Node7&#45;&gt;Node14 -->
<g id="edge13" class="edge">
<title>Node7&#45;&gt;Node14</title>
<path fill="none" stroke="midnightblue" d="M471.51,-656.09C493.05,-661.13 519.63,-667.34 542.44,-672.68"/>
<polygon fill="midnightblue" stroke="midnightblue" points="541.75,-676.11 552.29,-674.98 543.35,-669.29 541.75,-676.11"/>
</g>
<!-- Node12 -->
<g id="node12" class="node">
<title>Node12</title>
<g id="a_node12"><a target="_blank" xlink:href="http://en.cppreference.com/w/cpp/numeric/math/pow.html#" xlink:title=" ">
<polygon fill="white" stroke="black" points="688,-656 688,-675 742,-675 742,-656 688,-656"/>
<text text-anchor="middle" x="715" y="-663" font-family="Helvetica,sans-Serif" font-size="10.00">std::pow</text>
</a>
</g>
</g>
<!-- Node11&#45;&gt;Node12 -->
<g id="edge11" class="edge">
<title>Node11&#45;&gt;Node12</title>
<path fill="none" stroke="midnightblue" d="M608.65,-648.68C625.46,-651.36 654.64,-656.02 678.04,-659.76"/>
<polygon fill="midnightblue" stroke="midnightblue" points="677.56,-663.23 687.99,-661.35 678.66,-656.31 677.56,-663.23"/>
</g>
<!-- Node13 -->
<g id="node13" class="node">
<title>Node13</title>
<g id="a_node13"><a target="_blank" xlink:href="http://en.cppreference.com/w/cpp/numeric/math/sqrt.html#" xlink:title=" ">
<polygon fill="white" stroke="black" points="688.5,-618 688.5,-637 741.5,-637 741.5,-618 688.5,-618"/>
<text text-anchor="middle" x="715" y="-625" font-family="Helvetica,sans-Serif" font-size="10.00">std::sqrt</text>
</a>
</g>
</g>
<!-- Node11&#45;&gt;Node13 -->
<g id="edge12" class="edge">
<title>Node11&#45;&gt;Node13</title>
<path fill="none" stroke="midnightblue" d="M608.65,-644.32C625.56,-641.62 655.01,-636.92 678.48,-633.17"/>
<polygon fill="midnightblue" stroke="midnightblue" points="679.13,-636.61 688.45,-631.58 678.02,-629.7 679.13,-636.61"/>
</g>
<!-- Node15&#45;&gt;Node8 -->
<g id="edge19" class="edge">
<title>Node15&#45;&gt;Node8</title>
<path fill="none" stroke="midnightblue" d="M448.39,-214.18C464.58,-223.93 487.69,-240.5 500,-261.5 546.11,-340.18 493.82,-382.65 536,-463.5 544.42,-479.63 558.98,-494.08 571.28,-504.39"/>
<polygon fill="midnightblue" stroke="midnightblue" points="569.34,-507.32 579.33,-510.84 573.72,-501.86 569.34,-507.32"/>
</g>
<!-- Node15&#45;&gt;Node9 -->
<g id="edge20" class="edge">
<title>Node15&#45;&gt;Node9</title>
<path fill="none" stroke="midnightblue" d="M475.8,-214.04C484.59,-217.48 493.17,-222.16 500,-228.5 530.6,-256.92 571.68,-377.84 586.95,-425.29"/>
<polygon fill="midnightblue" stroke="midnightblue" points="583.66,-426.49 590.03,-434.96 590.33,-424.37 583.66,-426.49"/>
</g>
<!-- Node15&#45;&gt;Node10 -->
<g id="edge21" class="edge">
<title>Node15&#45;&gt;Node10</title>
<path fill="none" stroke="midnightblue" d="M448.63,-214.05C464.97,-223.7 488.19,-240.21 500,-261.5 560.42,-370.45 483.82,-426.36 536,-539.5 543.13,-554.95 555.41,-569.27 566.75,-580.34"/>
<polygon fill="midnightblue" stroke="midnightblue" points="564.68,-583.2 574.38,-587.46 569.45,-578.08 564.68,-583.2"/>
</g>
<!-- Node16 -->
<g id="node16" class="node">
<title>Node16</title>
<g id="a_node16"><a target="_blank" xlink:href="http://en.cppreference.com/w/cpp/iterator/begin.html#" xlink:title=" ">
<polygon fill="white" stroke="black" points="564.5,-252 564.5,-271 623.5,-271 623.5,-252 564.5,-252"/>
<text text-anchor="middle" x="594" y="-259" font-family="Helvetica,sans-Serif" font-size="10.00">std::begin</text>
</a>
</g>
</g>
<!-- Node15&#45;&gt;Node16 -->
<g id="edge16" class="edge">
<title>Node15&#45;&gt;Node16</title>
<path fill="none" stroke="midnightblue" d="M458.99,-214.06C471.6,-218.37 486.58,-223.57 500,-228.5 516.12,-234.41 519.85,-236.67 536,-242.5 542.05,-244.68 548.5,-246.92 554.8,-249.05"/>
<polygon fill="midnightblue" stroke="midnightblue" points="553.9,-252.44 564.49,-252.3 556.12,-245.81 553.9,-252.44"/>
</g>
<!-- Node17 -->
<g id="node17" class="node">
<title>Node17</title>
<g id="a_node17"><a target="_blank" xlink:href="http://en.cppreference.com/w/cpp/iterator/distance.html#" xlink:title=" ">
<polygon fill="white" stroke="black" points="557.5,-214 557.5,-233 630.5,-233 630.5,-214 557.5,-214"/>
<text text-anchor="middle" x="594" y="-221" font-family="Helvetica,sans-Serif" font-size="10.00">std::distance</text>
</a>
</g>
</g>
<!-- Node15&#45;&gt;Node17 -->
<g id="edge17" class="edge">
<title>Node15&#45;&gt;Node17</title>
<path fill="none" stroke="midnightblue" d="M495.19,-212.06C512.47,-214.08 530.79,-216.23 546.85,-218.1"/>
<polygon fill="midnightblue" stroke="midnightblue" points="546.71,-221.61 557.04,-219.3 547.52,-214.66 546.71,-221.61"/>
</g>
<!-- Node18 -->
<g id="node18" class="node">
<title>Node18</title>
<g id="a_node18"><a target="_blank" xlink:href="http://en.cppreference.com/w/cpp/iterator/end.html#" xlink:title=" ">
<polygon fill="white" stroke="black" points="568,-176 568,-195 620,-195 620,-176 568,-176"/>
<text text-anchor="middle" x="594" y="-183" font-family="Helvetica,sans-Serif" font-size="10.00">std::end</text>
</a>
</g>
</g>
<!-- Node15&#45;&gt;Node18 -->
<g id="edge18" class="edge">
<title>Node15&#45;&gt;Node18</title>
<path fill="none" stroke="midnightblue" d="M495.19,-196.94C516.5,-194.44 539.39,-191.77 557.67,-189.63"/>
<polygon fill="midnightblue" stroke="midnightblue" points="558.33,-193.08 567.85,-188.44 557.52,-186.13 558.33,-193.08"/>
</g>
<!-- Node19 -->
<g id="node19" class="node">
<title>Node19</title>
<g id="a_node19"><a target="_blank" xlink:href="http://en.cppreference.com/w/cpp/algorithm/max_element.html#" xlink:title=" ">
<polygon fill="white" stroke="black" points="546.5,-138 546.5,-157 641.5,-157 641.5,-138 546.5,-138"/>
<text text-anchor="middle" x="594" y="-145" font-family="Helvetica,sans-Serif" font-size="10.00">std::max_element</text>
</a>
</g>
</g>
<!-- Node15&#45;&gt;Node19 -->
<g id="edge22" class="edge">
<title>Node15&#45;&gt;Node19</title>
<path fill="none" stroke="midnightblue" d="M456.45,-194.96C477.77,-187.16 508.78,-175.94 536,-166.5 541.95,-164.44 548.26,-162.29 554.44,-160.21"/>
<polygon fill="midnightblue" stroke="midnightblue" points="555.58,-163.52 563.96,-157.03 553.36,-156.88 555.58,-163.52"/>
</g>
<!-- Node20&#45;&gt;Node8 -->
<g id="edge25" class="edge">
<title>Node20&#45;&gt;Node8</title>
<path fill="none" stroke="midnightblue" d="M272.01,-396.54C293,-411.38 326.99,-433.9 359,-448.5 426.23,-479.16 510.07,-501.39 556.95,-512.49"/>
<polygon fill="midnightblue" stroke="midnightblue" points="556.39,-515.95 566.93,-514.82 557.98,-509.14 556.39,-515.95"/>
</g>
<!-- Node20&#45;&gt;Node9 -->
<g id="edge26" class="edge">
<title>Node20&#45;&gt;Node9</title>
<path fill="none" stroke="midnightblue" d="M282.22,-396.62C303.3,-406.28 332.21,-418.14 359,-424.5 428.01,-440.87 511.28,-444.23 557.56,-444.7"/>
<polygon fill="midnightblue" stroke="midnightblue" points="557.66,-448.2 567.68,-444.76 557.7,-441.2 557.66,-448.2"/>
</g>
<!-- Node21 -->
<g id="node21" class="node">
<title>Node21</title>
<g id="a_node21"><a target="_blank" xlink:href="http://en.cppreference.com/w/cpp/chrono/system_clock/now.html#" xlink:title=" ">
<polygon fill="white" stroke="black" points="377.5,-385.5 377.5,-415.5 481.5,-415.5 481.5,-385.5 377.5,-385.5"/>
<text text-anchor="start" x="385.5" y="-403.5" font-family="Helvetica,sans-Serif" font-size="10.00">std::chrono::system</text>
<text text-anchor="middle" x="429.5" y="-392.5" font-family="Helvetica,sans-Serif" font-size="10.00">_clock::now</text>
</a>
</g>
</g>
<!-- Node20&#45;&gt;Node21 -->
<g id="edge27" class="edge">
<title>Node20&#45;&gt;Node21</title>
<path fill="none" stroke="midnightblue" d="M311.92,-387.99C329.83,-389.91 349.46,-392.02 367.42,-393.94"/>
<polygon fill="midnightblue" stroke="midnightblue" points="367.17,-397.44 377.49,-395.02 367.92,-390.48 367.17,-397.44"/>
</g>
<!-- Node22 -->
<g id="node22" class="node">
<title>Node22</title>
<g id="a_node22"><a target="_blank" xlink:href="http://en.cppreference.com/w/cpp/numeric/random/rand.html#" xlink:title=" ">
<polygon fill="white" stroke="black" points="402,-309 402,-328 457,-328 457,-309 402,-309"/>
<text text-anchor="middle" x="429.5" y="-316" font-family="Helvetica,sans-Serif" font-size="10.00">std::rand</text>
</a>
</g>
</g>
<!-- Node20&#45;&gt;Node22 -->
<g id="edge28" class="edge">
<title>Node20&#45;&gt;Node22</title>
<path fill="none" stroke="midnightblue" d="M297.66,-366.5C306.18,-363.41 314.92,-360.02 323,-356.5 339.59,-349.27 342.17,-344.15 359,-337.5 369.49,-333.36 381.22,-329.77 392,-326.87"/>
<polygon fill="midnightblue" stroke="midnightblue" points="393.17,-330.18 401.99,-324.3 391.43,-323.4 393.17,-330.18"/>
</g>
<!-- Node23 -->
<g id="node23" class="node">
<title>Node23</title>
<g id="a_node23"><a target="_blank" xlink:href="http://en.cppreference.com/w/cpp/numeric/random/srand.html#" xlink:title=" ">
<polygon fill="white" stroke="black" points="399.5,-347 399.5,-366 459.5,-366 459.5,-347 399.5,-347"/>
<text text-anchor="middle" x="429.5" y="-354" font-family="Helvetica,sans-Serif" font-size="10.00">std::srand</text>
</a>
</g>
</g>
<!-- Node20&#45;&gt;Node23 -->
<g id="edge29" class="edge">
<title>Node20&#45;&gt;Node23</title>
<path fill="none" stroke="midnightblue" d="M311.92,-372.97C337.45,-369.36 366.46,-365.26 389.16,-362.06"/>
<polygon fill="midnightblue" stroke="midnightblue" points="389.69,-365.52 399.11,-360.65 388.71,-358.58 389.69,-365.52"/>
</g>
<!-- Node24 -->
<g id="node24" class="node">
<title>Node24</title>
<g id="a_node24"><a target="_blank" xlink:href="http://en.cppreference.com/w/cpp/algorithm/swap.html#" xlink:title=" ">
<polygon fill="white" stroke="black" points="400,-271 400,-290 459,-290 459,-271 400,-271"/>
<text text-anchor="middle" x="429.5" y="-278" font-family="Helvetica,sans-Serif" font-size="10.00">std::swap</text>
</a>
</g>
</g>
<!-- Node20&#45;&gt;Node24 -->
<g id="edge30" class="edge">
<title>Node20&#45;&gt;Node24</title>
<path fill="none" stroke="midnightblue" d="M306.98,-366.41C312.69,-363.62 318.16,-360.35 323,-356.5 346.45,-337.85 334.92,-317.33 359,-299.5 367.91,-292.9 378.99,-288.6 389.66,-285.78"/>
<polygon fill="midnightblue" stroke="midnightblue" points="390.7,-289.14 399.69,-283.52 389.16,-282.31 390.7,-289.14"/>
</g>
<!-- Node25&#45;&gt;Node8 -->
<g id="edge34" class="edge">
<title>Node25&#45;&gt;Node8</title>
<path fill="none" stroke="midnightblue" d="M485.97,-549.48C509.51,-543.11 536.28,-535.86 557.16,-530.2"/>
<polygon fill="midnightblue" stroke="midnightblue" points="558.16,-533.56 566.9,-527.57 556.33,-526.8 558.16,-533.56"/>
</g>
<!-- Node25&#45;&gt;Node9 -->
<g id="edge35" class="edge">
<title>Node25&#45;&gt;Node9</title>
<path fill="none" stroke="midnightblue" d="M451.08,-549.3C482.15,-526.36 540.72,-483.11 572.02,-459.99"/>
<polygon fill="midnightblue" stroke="midnightblue" points="574.12,-462.8 580.08,-454.04 569.96,-457.17 574.12,-462.8"/>
</g>
<!-- Node25&#45;&gt;Node10 -->
<g id="edge36" class="edge">
<title>Node25&#45;&gt;Node10</title>
<path fill="none" stroke="midnightblue" d="M494.72,-579.52C505.66,-582.08 517.03,-584.73 527.98,-587.3"/>
<polygon fill="midnightblue" stroke="midnightblue" points="527.37,-590.75 537.9,-589.62 528.96,-583.93 527.37,-590.75"/>
</g>
<!-- Node25&#45;&gt;Node14 -->
<g id="edge37" class="edge">
<title>Node25&#45;&gt;Node14</title>
<path fill="none" stroke="midnightblue" d="M447.97,-579.68C462.23,-592.22 482.77,-610.65 500,-627.5 516.63,-643.77 516.38,-653 536,-665.5 539.18,-667.52 542.59,-669.36 546.12,-671.01"/>
<polygon fill="midnightblue" stroke="midnightblue" points="545.03,-674.35 555.61,-674.97 547.73,-667.89 545.03,-674.35"/>
</g>
<!-- Node29&#45;&gt;Node22 -->
<g id="edge43" class="edge">
<title>Node29&#45;&gt;Node22</title>
<path fill="none" stroke="midnightblue" d="M291.22,-333.24C321.27,-330.01 362.23,-325.61 391.57,-322.46"/>
<polygon fill="midnightblue" stroke="midnightblue" points="392.24,-325.91 401.81,-321.36 391.49,-318.95 392.24,-325.91"/>
</g>
<!-- Node29&#45;&gt;Node24 -->
<g id="edge44" class="edge">
<title>Node29&#45;&gt;Node24</title>
<path fill="none" stroke="midnightblue" d="M281.18,-327.89C294.08,-323.62 309.33,-318.45 323,-313.5 339.14,-307.66 342.7,-304.88 359,-299.5 368.98,-296.21 379.89,-293.03 390.05,-290.24"/>
<polygon fill="midnightblue" stroke="midnightblue" points="391.14,-293.57 399.9,-287.6 389.33,-286.81 391.14,-293.57"/>
</g>
<!-- Node32&#45;&gt;Node10 -->
<g id="edge48" class="edge">
<title>Node32&#45;&gt;Node10</title>
<path fill="none" stroke="midnightblue" d="M479.01,-674.92C486.32,-672.45 493.56,-669.36 500,-665.5 519.96,-653.55 516.97,-640.88 536,-627.5 538.53,-625.72 541.2,-624.03 543.95,-622.43"/>
<polygon fill="midnightblue" stroke="midnightblue" points="545.79,-625.42 552.95,-617.61 542.48,-619.25 545.79,-625.42"/>
</g>
<!-- Node32&#45;&gt;Node14 -->
<g id="edge49" class="edge">
<title>Node32&#45;&gt;Node14</title>
<path fill="none" stroke="midnightblue" d="M500.36,-684.5C508.8,-684.5 517.4,-684.5 525.8,-684.5"/>
<polygon fill="midnightblue" stroke="midnightblue" points="525.92,-688 535.92,-684.5 525.92,-681 525.92,-688"/>
</g>
</g>
</svg>
        <g id="navigator" transform="translate(0 0)" fill="#404254">
                <rect fill="#f2f5e9" fill-opacity="0.5" stroke="#606060" stroke-width=".5" x="0" y="0" width="60" height="60"/>
                <use id="zoomplus" xlink:href="#zoomPlus" x="17" y="9" onmousedown="handleZoom(evt,'in')"/>
                <use id="zoomminus" xlink:href="#zoomMin" x="42" y="9" onmousedown="handleZoom(evt,'out')"/>
                <use id="reset" xlink:href="#resetDef" x="30" y="36" onmousedown="handleReset()"/>
                <g id="arrowUp" xlink:href="#dirArrow" transform="translate(30 24)" onmousedown="handlePan(0,-1)">
                  <use xlink:href="#rim" fill="#404040">
                        <set attributeName="fill" to="#808080" begin="arrowUp.mouseover" end="arrowUp.mouseout"/>
                  </use>
                  <path fill="none" stroke="white" stroke-width="1.5" d="M0,-3.0v7 M-2.5,-0.5L0,-3.0L2.5,-0.5"/>
                </g>
                <g id="arrowRight" xlink:href="#dirArrow" transform="rotate(90) translate(36 -43)" onmousedown="handlePan(1,0)">
                  <use xlink:href="#rim" fill="#404040">
                        <set attributeName="fill" to="#808080" begin="arrowRight.mouseover" end="arrowRight.mouseout"/>
                  </use>
                  <path fill="none" stroke="white" stroke-width="1.5" d="M0,-3.0v7 M-2.5,-0.5L0,-3.0L2.5,-0.5"/>
                </g>
                <g id="arrowDown" xlink:href="#dirArrow" transform="rotate(180) translate(-30 -48)" onmousedown="handlePan(0,1)">
                  <use xlink:href="#rim" fill="#404040">
                        <set attributeName="fill" to="#808080" begin="arrowDown.mouseover" end="arrowDown.mouseout"/>
                  </use>
                  <path fill="none" stroke="white" stroke-width="1.5" d="M0,-3.0v7 M-2.5,-0.5L0,-3.0L2.5,-0.5"/>
                </g>
                <g id="arrowLeft" xlink:href="#dirArrow" transform="rotate(270) translate(-36 17)" onmousedown="handlePan(-1,0)">
                  <use xlink:href="#rim" fill="#404040">
                        <set attributeName="fill" to="#808080" begin="arrowLeft.mouseover" end="arrowLeft.mouseout"/>
                  </use>
                  <path fill="none" stroke="white" stroke-width="1.5" d="M0,-3.0v7 M-2.5,-0.5L0,-3.0L2.5,-0.5"/>
                </g>
        </g>
        <svg viewBox="0 0 15 15" width="100%" height="30px" preserveAspectRatio="xMaxYMin meet">
         <g id="arrow_out" transform="scale(0.3 0.3)">
          <a xlink:href="classmachine__learning_1_1neural__network_1_1_neural_network_a2be1b52bb9f57486f9a436f35c9089c0_cgraph_org.svg" target="_base">
           <rect id="button" ry="5" rx="5" y="6" x="6" height="38" width="38"
                fill="#f2f5e9" fill-opacity="0.5" stroke="#606060" stroke-width="1.0"/>
           <path id="arrow"
             d="M 11.500037,31.436501 C 11.940474,20.09759 22.043105,11.32322 32.158766,21.979434 L 37.068811,17.246167 C 37.068811,17.246167 37.088388,32 37.088388,32 L 22.160133,31.978069 C 22.160133,31.978069 26.997745,27.140456 26.997745,27.140456 C 18.528582,18.264221 13.291696,25.230495 11.500037,31.436501 z"
             style="fill:#404040;"/>
          </a>
         </g>
        </svg>
</svg>
