<?xml version="1.0" encoding="UTF-8" standalone="no"?>
<!DOCTYPE svg PUBLIC "-//W3C//DTD SVG 1.1//EN"
 "http://www.w3.org/Graphics/SVG/1.1/DTD/svg11.dtd">
<!-- Generated by graphviz version 5.0.0 (20220707.1540)
 -->
<!-- Title: machine_learning::neural_network::NeuralNetwork::evaluate Pages: 1 -->
<!--zoomable 386 -->
<svg id="main" version="1.1" xmlns="http://www.w3.org/2000/svg" xmlns:xlink="http://www.w3.org/1999/xlink" xml:space="preserve" onload="init(evt)">
<style type="text/css"><![CDATA[
.edge:hover path { stroke: red; }
.edge:hover polygon { stroke: red; fill: red; }
]]></style>
<script type="text/javascript"><![CDATA[
var edges = document.getElementsByTagName('g');
if (edges && edges.length) {
  for (var i=0;i<edges.length;i++) {
    if (edges[i].id.substr(0,4)=='edge') {
      edges[i].setAttribute('class','edge');
    }
  }
}
]]></script>
        <defs>
                <circle id="rim" cx="0" cy="0" r="7"/>
                <circle id="rim2" cx="0" cy="0" r="3.5"/>
                <g id="zoomPlus">
                        <use xlink:href="#rim" fill="#404040">
                                <set attributeName="fill" to="#808080" begin="zoomplus.mouseover" end="zoomplus.mouseout"/>
                        </use>
                        <path d="M-4,0h8M0,-4v8" fill="none" stroke="white" stroke-width="1.5" pointer-events="none"/>
                </g>
                <g id="zoomMin">
                        <use xlink:href="#rim" fill="#404040">
                                <set attributeName="fill" to="#808080" begin="zoomminus.mouseover" end="zoomminus.mouseout"/>
                        </use>
                        <path d="M-4,0h8" fill="none" stroke="white" stroke-width="1.5" pointer-events="none"/>
                </g>
                <g id="dirArrow">
                        <path fill="none" stroke="white" stroke-width="1.5" d="M0,-3.0v7 M-2.5,-0.5L0,-3.0L2.5,-0.5"/>
                </g>
               <g id="resetDef">
                       <use xlink:href="#rim2" fill="#404040">
                               <set attributeName="fill" to="#808080" begin="reset.mouseover" end="reset.mouseout"/>
                       </use>
               </g>
        </defs>

<script type="text/javascript">
var viewWidth = 891;
var viewHeight = 386;
var sectionId = 'dynsection-5';
</script>
<script xlink:href="../../svgpan.js"/>
<svg id="graph" class="graph">
<g id="viewport">
<title>machine_learning::neural_network::NeuralNetwork::evaluate</title>
<polygon fill="white" stroke="transparent" points="-4,4 -4,-381.5 887,-381.5 887,4 -4,4"/>
<!-- Node1 -->
<g id="node1" class="node">
<title>Node1</title>
<g id="a_node1"><a xlink:title=" ">
<polygon fill="#bfbfbf" stroke="black" points="0,-180.5 0,-221.5 128,-221.5 128,-180.5 0,-180.5"/>
<text text-anchor="start" x="8" y="-209.5" font-family="Helvetica,sans-Serif" font-size="10.00">machine_learning::neural</text>
<text text-anchor="start" x="8" y="-198.5" font-family="Helvetica,sans-Serif" font-size="10.00">_network::NeuralNetwork</text>
<text text-anchor="middle" x="64" y="-187.5" font-family="Helvetica,sans-Serif" font-size="10.00">::evaluate</text>
</a>
</g>
</g>
<!-- Node2 -->
<g id="node2" class="node">
<title>Node2</title>
<g id="a_node2"><a xlink:href="../../d8/d77/namespacemachine__learning.html#ad0bdc88e5f1be47c46c0f0c8ebf754bb" target="_top" xlink:title=" ">
<polygon fill="white" stroke="black" points="514,-347 514,-377 636,-377 636,-347 514,-347"/>
<text text-anchor="start" x="522" y="-365" font-family="Helvetica,sans-Serif" font-size="10.00">machine_learning::apply</text>
<text text-anchor="middle" x="575" y="-354" font-family="Helvetica,sans-Serif" font-size="10.00">_function</text>
</a>
</g>
</g>
<!-- Node1&#45;&gt;Node2 -->
<g id="edge1" class="edge">
<title>Node1&#45;&gt;Node2</title>
<path fill="none" stroke="midnightblue" d="M80.36,-221.6C97.97,-243.59 128.97,-277.61 164,-295 274.04,-349.62 419.15,-361.22 503.95,-362.86"/>
<polygon fill="midnightblue" stroke="midnightblue" points="503.93,-366.36 513.98,-363.02 504.04,-359.36 503.93,-366.36"/>
</g>
<!-- Node3 -->
<g id="node3" class="node">
<title>Node3</title>
<g id="a_node3"><a xlink:href="../../d8/d77/namespacemachine__learning.html#a50480fccfb39de20ca47f1bf51ecb6ec" target="_top" xlink:title=" ">
<polygon fill="white" stroke="black" points="509.5,-133.5 509.5,-152.5 640.5,-152.5 640.5,-133.5 509.5,-133.5"/>
<text text-anchor="middle" x="575" y="-140.5" font-family="Helvetica,sans-Serif" font-size="10.00">machine_learning::argmax</text>
</a>
</g>
</g>
<!-- Node1&#45;&gt;Node3 -->
<g id="edge2" class="edge">
<title>Node1&#45;&gt;Node3</title>
<path fill="none" stroke="midnightblue" d="M128.07,-191.76C139.99,-190.1 152.37,-188.45 164,-187 280.96,-172.46 417.05,-158.42 499.3,-150.26"/>
<polygon fill="midnightblue" stroke="midnightblue" points="499.7,-153.73 509.3,-149.27 499.01,-146.77 499.7,-153.73"/>
</g>
<!-- Node7 -->
<g id="node7" class="node">
<title>Node7</title>
<g id="a_node7"><a target="_blank" xlink:href="http://en.cppreference.com/w/cpp/io/manip/endl.html#" xlink:title=" ">
<polygon fill="white" stroke="black" points="708,-190.5 708,-209.5 762,-209.5 762,-190.5 708,-190.5"/>
<text text-anchor="middle" x="735" y="-197.5" font-family="Helvetica,sans-Serif" font-size="10.00">std::endl</text>
</a>
</g>
</g>
<!-- Node1&#45;&gt;Node7 -->
<g id="edge10" class="edge">
<title>Node1&#45;&gt;Node7</title>
<path fill="none" stroke="midnightblue" d="M128.24,-200.91C265.99,-200.7 589.48,-200.22 697.88,-200.05"/>
<polygon fill="midnightblue" stroke="midnightblue" points="697.98,-203.55 707.98,-200.04 697.97,-196.55 697.98,-203.55"/>
</g>
<!-- Node11 -->
<g id="node11" class="node">
<title>Node11</title>
<g id="a_node11"><a xlink:href="../../d4/df4/classmachine__learning_1_1neural__network_1_1_neural_network.html#a3b9eac1824d365dce715fb17c33cb96f" target="_top" xlink:title=" ">
<polygon fill="white" stroke="black" points="164,-244.5 164,-285.5 292,-285.5 292,-244.5 164,-244.5"/>
<text text-anchor="start" x="172" y="-273.5" font-family="Helvetica,sans-Serif" font-size="10.00">machine_learning::neural</text>
<text text-anchor="start" x="172" y="-262.5" font-family="Helvetica,sans-Serif" font-size="10.00">_network::NeuralNetwork</text>
<text text-anchor="middle" x="228" y="-251.5" font-family="Helvetica,sans-Serif" font-size="10.00">::single_predict</text>
</a>
</g>
</g>
<!-- Node1&#45;&gt;Node11 -->
<g id="edge11" class="edge">
<title>Node1&#45;&gt;Node11</title>
<path fill="none" stroke="midnightblue" d="M117.15,-221.6C132.47,-227.65 149.37,-234.33 165.23,-240.6"/>
<polygon fill="midnightblue" stroke="midnightblue" points="164.36,-244.02 174.95,-244.44 166.93,-237.51 164.36,-244.02"/>
</g>
<!-- Node21 -->
<g id="node21" class="node">
<title>Node21</title>
<g id="a_node21"><a xlink:href="../../d8/d77/namespacemachine__learning.html#a6f1c98c016ad34ff3d9f39372161bd35" target="_top" xlink:title=" ">
<polygon fill="white" stroke="black" points="169.5,-115.5 169.5,-134.5 286.5,-134.5 286.5,-115.5 169.5,-115.5"/>
<text text-anchor="middle" x="228" y="-122.5" font-family="Helvetica,sans-Serif" font-size="10.00">machine_learning::sum</text>
</a>
</g>
</g>
<!-- Node1&#45;&gt;Node21 -->
<g id="edge25" class="edge">
<title>Node1&#45;&gt;Node21</title>
<path fill="none" stroke="midnightblue" d="M101.62,-180.43C120.07,-170.4 142.94,-158.5 164,-149 172.37,-145.22 181.53,-141.51 190.21,-138.17"/>
<polygon fill="midnightblue" stroke="midnightblue" points="191.61,-141.38 199.73,-134.58 189.14,-134.83 191.61,-141.38"/>
</g>
<!-- Node4 -->
<g id="node4" class="node">
<title>Node4</title>
<g id="a_node4"><a target="_blank" xlink:href="http://en.cppreference.com/w/cpp/iterator/begin.html#" xlink:title=" ">
<polygon fill="white" stroke="black" points="705.5,-38.5 705.5,-57.5 764.5,-57.5 764.5,-38.5 705.5,-38.5"/>
<text text-anchor="middle" x="735" y="-45.5" font-family="Helvetica,sans-Serif" font-size="10.00">std::begin</text>
</a>
</g>
</g>
<!-- Node3&#45;&gt;Node4 -->
<g id="edge3" class="edge">
<title>Node3&#45;&gt;Node4</title>
<path fill="none" stroke="midnightblue" d="M586.42,-133.32C603.92,-117.5 640.86,-85.97 677,-67 682.82,-63.95 689.23,-61.24 695.58,-58.91"/>
<polygon fill="midnightblue" stroke="midnightblue" points="697.1,-62.08 705.43,-55.53 694.83,-55.46 697.1,-62.08"/>
</g>
<!-- Node5 -->
<g id="node5" class="node">
<title>Node5</title>
<g id="a_node5"><a target="_blank" xlink:href="http://en.cppreference.com/w/cpp/iterator/distance.html#" xlink:title=" ">
<polygon fill="white" stroke="black" points="698.5,-0.5 698.5,-19.5 771.5,-19.5 771.5,-0.5 698.5,-0.5"/>
<text text-anchor="middle" x="735" y="-7.5" font-family="Helvetica,sans-Serif" font-size="10.00">std::distance</text>
</a>
</g>
</g>
<!-- Node3&#45;&gt;Node5 -->
<g id="edge4" class="edge">
<title>Node3&#45;&gt;Node5</title>
<path fill="none" stroke="midnightblue" d="M582.05,-133.21C596.05,-111.33 632.87,-58.15 677,-29 680.72,-26.54 684.79,-24.37 688.99,-22.47"/>
<polygon fill="midnightblue" stroke="midnightblue" points="690.34,-25.7 698.3,-18.7 687.72,-19.21 690.34,-25.7"/>
</g>
<!-- Node6 -->
<g id="node6" class="node">
<title>Node6</title>
<g id="a_node6"><a target="_blank" xlink:href="http://en.cppreference.com/w/cpp/iterator/end.html#" xlink:title=" ">
<polygon fill="white" stroke="black" points="709,-114.5 709,-133.5 761,-133.5 761,-114.5 709,-114.5"/>
<text text-anchor="middle" x="735" y="-121.5" font-family="Helvetica,sans-Serif" font-size="10.00">std::end</text>
</a>
</g>
</g>
<!-- Node3&#45;&gt;Node6 -->
<g id="edge5" class="edge">
<title>Node3&#45;&gt;Node6</title>
<path fill="none" stroke="midnightblue" d="M640.72,-135.22C660.62,-132.82 681.78,-130.28 698.9,-128.22"/>
<polygon fill="midnightblue" stroke="midnightblue" points="699.48,-131.68 708.99,-127.01 698.64,-124.73 699.48,-131.68"/>
</g>
<!-- Node3&#45;&gt;Node7 -->
<g id="edge6" class="edge">
<title>Node3&#45;&gt;Node7</title>
<path fill="none" stroke="midnightblue" d="M600.81,-152.63C621.19,-160.48 650.87,-171.73 677,-181 683.74,-183.39 690.95,-185.86 697.91,-188.2"/>
<polygon fill="midnightblue" stroke="midnightblue" points="697.23,-191.66 707.82,-191.51 699.44,-185.02 697.23,-191.66"/>
</g>
<!-- Node8 -->
<g id="node8" class="node">
<title>Node8</title>
<g id="a_node8"><a target="_blank" xlink:href="http://en.cppreference.com/w/cpp/utility/program/exit.html#" xlink:title=" ">
<polygon fill="white" stroke="black" points="709,-152.5 709,-171.5 761,-171.5 761,-152.5 709,-152.5"/>
<text text-anchor="middle" x="735" y="-159.5" font-family="Helvetica,sans-Serif" font-size="10.00">std::exit</text>
</a>
</g>
</g>
<!-- Node3&#45;&gt;Node8 -->
<g id="edge7" class="edge">
<title>Node3&#45;&gt;Node8</title>
<path fill="none" stroke="midnightblue" d="M640.72,-150.78C660.62,-153.18 681.78,-155.72 698.9,-157.78"/>
<polygon fill="midnightblue" stroke="midnightblue" points="698.64,-161.27 708.99,-158.99 699.48,-154.32 698.64,-161.27"/>
</g>
<!-- Node9 -->
<g id="node9" class="node">
<title>Node9</title>
<g id="a_node9"><a xlink:href="../../d8/d77/namespacemachine__learning.html#aa4bbf61e65f8cd297255fa94b983d078" target="_top" xlink:title=" ">
<polygon fill="white" stroke="black" points="679,-229 679,-259 791,-259 791,-229 679,-229"/>
<text text-anchor="start" x="687" y="-247" font-family="Helvetica,sans-Serif" font-size="10.00">machine_learning::get</text>
<text text-anchor="middle" x="735" y="-236" font-family="Helvetica,sans-Serif" font-size="10.00">_shape</text>
</a>
</g>
</g>
<!-- Node3&#45;&gt;Node9 -->
<g id="edge8" class="edge">
<title>Node3&#45;&gt;Node9</title>
<path fill="none" stroke="midnightblue" d="M586.91,-152.57C604.82,-167.94 641.96,-198.5 677,-219 680.22,-220.88 683.61,-222.71 687.06,-224.47"/>
<polygon fill="midnightblue" stroke="midnightblue" points="685.76,-227.73 696.28,-228.94 688.81,-221.43 685.76,-227.73"/>
</g>
<!-- Node10 -->
<g id="node10" class="node">
<title>Node10</title>
<g id="a_node10"><a target="_blank" xlink:href="http://en.cppreference.com/w/cpp/algorithm/max_element.html#" xlink:title=" ">
<polygon fill="white" stroke="black" points="687.5,-76.5 687.5,-95.5 782.5,-95.5 782.5,-76.5 687.5,-76.5"/>
<text text-anchor="middle" x="735" y="-83.5" font-family="Helvetica,sans-Serif" font-size="10.00">std::max_element</text>
</a>
</g>
</g>
<!-- Node3&#45;&gt;Node10 -->
<g id="edge9" class="edge">
<title>Node3&#45;&gt;Node10</title>
<path fill="none" stroke="midnightblue" d="M600.81,-133.37C621.19,-125.52 650.87,-114.27 677,-105 682.73,-102.97 688.81,-100.88 694.78,-98.86"/>
<polygon fill="midnightblue" stroke="midnightblue" points="696.27,-102.05 704.64,-95.55 694.04,-95.41 696.27,-102.05"/>
</g>
<!-- Node12 -->
<g id="node12" class="node">
<title>Node12</title>
<g id="a_node12"><a xlink:href="../../d4/df4/classmachine__learning_1_1neural__network_1_1_neural_network.html#a361a45f3c3d8347d79103bf182d0570b" target="_top" xlink:title=" ">
<polygon fill="white" stroke="black" points="328,-259.5 328,-300.5 473,-300.5 473,-259.5 328,-259.5"/>
<text text-anchor="start" x="336" y="-288.5" font-family="Helvetica,sans-Serif" font-size="10.00">machine_learning::neural</text>
<text text-anchor="start" x="336" y="-277.5" font-family="Helvetica,sans-Serif" font-size="10.00">_network::NeuralNetwork</text>
<text text-anchor="middle" x="400.5" y="-266.5" font-family="Helvetica,sans-Serif" font-size="10.00">::__detailed_single_prediction</text>
</a>
</g>
</g>
<!-- Node11&#45;&gt;Node12 -->
<g id="edge12" class="edge">
<title>Node11&#45;&gt;Node12</title>
<path fill="none" stroke="midnightblue" d="M292,-270.54C300.39,-271.28 309.09,-272.05 317.73,-272.81"/>
<polygon fill="midnightblue" stroke="midnightblue" points="317.57,-276.31 327.84,-273.7 318.19,-269.33 317.57,-276.31"/>
</g>
<!-- Node12&#45;&gt;Node2 -->
<g id="edge13" class="edge">
<title>Node12&#45;&gt;Node2</title>
<path fill="none" stroke="midnightblue" d="M437.77,-300.63C458.36,-311.99 484.78,-325.97 509,-337 513.44,-339.02 518.1,-341.03 522.8,-342.98"/>
<polygon fill="midnightblue" stroke="midnightblue" points="521.84,-346.37 532.43,-346.87 524.47,-339.88 521.84,-346.37"/>
</g>
<!-- Node13 -->
<g id="node13" class="node">
<title>Node13</title>
<g id="a_node13"><a target="_blank" xlink:href="http://en.cppreference.com/w/cpp/container/vector/emplace_back.html#" xlink:title=" ">
<polygon fill="white" stroke="black" points="509,-308.5 509,-327.5 641,-327.5 641,-308.5 509,-308.5"/>
<text text-anchor="middle" x="575" y="-315.5" font-family="Helvetica,sans-Serif" font-size="10.00">std::vector::emplace_back</text>
</a>
</g>
</g>
<!-- Node12&#45;&gt;Node13 -->
<g id="edge14" class="edge">
<title>Node12&#45;&gt;Node13</title>
<path fill="none" stroke="midnightblue" d="M473.16,-295.79C488.95,-299.26 505.42,-302.89 520.35,-306.18"/>
<polygon fill="midnightblue" stroke="midnightblue" points="519.91,-309.67 530.42,-308.4 521.41,-302.83 519.91,-309.67"/>
</g>
<!-- Node14 -->
<g id="node14" class="node">
<title>Node14</title>
<g id="a_node14"><a xlink:href="../../d4/d18/composite__simpson__rule_8cpp.html#a995716bc040dc6cf32b5cb3df51c4529" target="_top" xlink:title="Another test function.">
<polygon fill="white" stroke="black" points="560.5,-270.5 560.5,-289.5 589.5,-289.5 589.5,-270.5 560.5,-270.5"/>
<text text-anchor="middle" x="575" y="-277.5" font-family="Helvetica,sans-Serif" font-size="10.00">l</text>
</a>
</g>
</g>
<!-- Node12&#45;&gt;Node14 -->
<g id="edge15" class="edge">
<title>Node12&#45;&gt;Node14</title>
<path fill="none" stroke="midnightblue" d="M473.16,-280C500.81,-280 530.51,-280 550.47,-280"/>
<polygon fill="midnightblue" stroke="midnightblue" points="550.48,-283.5 560.48,-280 550.48,-276.5 550.48,-283.5"/>
</g>
<!-- Node16 -->
<g id="node16" class="node">
<title>Node16</title>
<g id="a_node16"><a xlink:href="../../d8/d77/namespacemachine__learning.html#a5342906d42b80fc6b6b3ad17bf00fcb9" target="_top" xlink:title=" ">
<polygon fill="white" stroke="black" points="509,-232.5 509,-251.5 641,-251.5 641,-232.5 509,-232.5"/>
<text text-anchor="middle" x="575" y="-239.5" font-family="Helvetica,sans-Serif" font-size="10.00">machine_learning::multiply</text>
</a>
</g>
</g>
<!-- Node12&#45;&gt;Node16 -->
<g id="edge17" class="edge">
<title>Node12&#45;&gt;Node16</title>
<path fill="none" stroke="midnightblue" d="M473.16,-264.21C488.95,-260.74 505.42,-257.11 520.35,-253.82"/>
<polygon fill="midnightblue" stroke="midnightblue" points="521.41,-257.17 530.42,-251.6 519.91,-250.33 521.41,-257.17"/>
</g>
<!-- Node15 -->
<g id="node15" class="node">
<title>Node15</title>
<g id="a_node15"><a target="_blank" xlink:href="http://en.cppreference.com/w/cpp/numeric/math/log.html#" xlink:title=" ">
<polygon fill="white" stroke="black" points="710.5,-354.5 710.5,-373.5 759.5,-373.5 759.5,-354.5 710.5,-354.5"/>
<text text-anchor="middle" x="735" y="-361.5" font-family="Helvetica,sans-Serif" font-size="10.00">std::log</text>
</a>
</g>
</g>
<!-- Node14&#45;&gt;Node15 -->
<g id="edge16" class="edge">
<title>Node14&#45;&gt;Node15</title>
<path fill="none" stroke="midnightblue" d="M589.74,-281.52C603.66,-283.6 625.33,-288.38 641,-299 662.49,-313.56 655.78,-330.04 677,-345 684.03,-349.96 692.45,-353.69 700.63,-356.48"/>
<polygon fill="midnightblue" stroke="midnightblue" points="699.79,-359.88 710.38,-359.43 701.82,-353.18 699.79,-359.88"/>
</g>
<!-- Node16&#45;&gt;Node7 -->
<g id="edge18" class="edge">
<title>Node16&#45;&gt;Node7</title>
<path fill="none" stroke="midnightblue" d="M611.85,-232.47C637.57,-225.63 672.1,-216.46 697.88,-209.6"/>
<polygon fill="midnightblue" stroke="midnightblue" points="698.88,-212.96 707.64,-207.01 697.08,-206.19 698.88,-212.96"/>
</g>
<!-- Node16&#45;&gt;Node8 -->
<g id="edge19" class="edge">
<title>Node16&#45;&gt;Node8</title>
<path fill="none" stroke="midnightblue" d="M589.84,-232.28C608.8,-219.28 644.27,-196.11 677,-181 684.05,-177.75 691.81,-174.78 699.28,-172.21"/>
<polygon fill="midnightblue" stroke="midnightblue" points="700.44,-175.51 708.85,-169.06 698.25,-168.86 700.44,-175.51"/>
</g>
<!-- Node16&#45;&gt;Node9 -->
<g id="edge20" class="edge">
<title>Node16&#45;&gt;Node9</title>
<path fill="none" stroke="midnightblue" d="M641.18,-242.83C650.19,-242.94 659.46,-243.06 668.48,-243.17"/>
<polygon fill="midnightblue" stroke="midnightblue" points="668.5,-246.67 678.54,-243.3 668.59,-239.67 668.5,-246.67"/>
</g>
<!-- Node17 -->
<g id="node17" class="node">
<title>Node17</title>
<g id="a_node17"><a xlink:href="../../d4/d18/composite__simpson__rule_8cpp.html#a6d50f1b8eb533b54721812d16a3699cc" target="_top" xlink:title="Another test function.">
<polygon fill="white" stroke="black" points="720.5,-316.5 720.5,-335.5 749.5,-335.5 749.5,-316.5 720.5,-316.5"/>
<text text-anchor="middle" x="735" y="-323.5" font-family="Helvetica,sans-Serif" font-size="10.00">k</text>
</a>
</g>
</g>
<!-- Node16&#45;&gt;Node17 -->
<g id="edge21" class="edge">
<title>Node16&#45;&gt;Node17</title>
<path fill="none" stroke="midnightblue" d="M622.03,-251.52C628.71,-254 635.26,-257.11 641,-261 662.49,-275.56 655.78,-292.04 677,-307 686.95,-314.02 699.67,-318.58 710.57,-321.48"/>
<polygon fill="midnightblue" stroke="midnightblue" points="709.78,-324.89 720.32,-323.76 711.38,-318.07 709.78,-324.89"/>
</g>
<!-- Node20 -->
<g id="node20" class="node">
<title>Node20</title>
<g id="a_node20"><a target="_blank" xlink:href="http://en.cppreference.com/w/cpp/container/vector/push_back.html#" xlink:title=" ">
<polygon fill="white" stroke="black" points="677,-278.5 677,-297.5 793,-297.5 793,-278.5 677,-278.5"/>
<text text-anchor="middle" x="735" y="-285.5" font-family="Helvetica,sans-Serif" font-size="10.00">std::vector::push_back</text>
</a>
</g>
</g>
<!-- Node16&#45;&gt;Node20 -->
<g id="edge24" class="edge">
<title>Node16&#45;&gt;Node20</title>
<path fill="none" stroke="midnightblue" d="M608.74,-251.53C632.78,-258.53 665.66,-268.1 691.69,-275.68"/>
<polygon fill="midnightblue" stroke="midnightblue" points="690.72,-279.05 701.3,-278.48 692.68,-272.33 690.72,-279.05"/>
</g>
<!-- Node18 -->
<g id="node18" class="node">
<title>Node18</title>
<g id="a_node18"><a target="_blank" xlink:href="http://en.cppreference.com/w/cpp/numeric/math/pow.html#" xlink:title=" ">
<polygon fill="white" stroke="black" points="829,-335.5 829,-354.5 883,-354.5 883,-335.5 829,-335.5"/>
<text text-anchor="middle" x="856" y="-342.5" font-family="Helvetica,sans-Serif" font-size="10.00">std::pow</text>
</a>
</g>
</g>
<!-- Node17&#45;&gt;Node18 -->
<g id="edge22" class="edge">
<title>Node17&#45;&gt;Node18</title>
<path fill="none" stroke="midnightblue" d="M749.65,-328.18C766.46,-330.86 795.64,-335.52 819.04,-339.26"/>
<polygon fill="midnightblue" stroke="midnightblue" points="818.56,-342.73 828.99,-340.85 819.66,-335.81 818.56,-342.73"/>
</g>
<!-- Node19 -->
<g id="node19" class="node">
<title>Node19</title>
<g id="a_node19"><a target="_blank" xlink:href="http://en.cppreference.com/w/cpp/numeric/math/sqrt.html#" xlink:title=" ">
<polygon fill="white" stroke="black" points="829.5,-297.5 829.5,-316.5 882.5,-316.5 882.5,-297.5 829.5,-297.5"/>
<text text-anchor="middle" x="856" y="-304.5" font-family="Helvetica,sans-Serif" font-size="10.00">std::sqrt</text>
</a>
</g>
</g>
<!-- Node17&#45;&gt;Node19 -->
<g id="edge23" class="edge">
<title>Node17&#45;&gt;Node19</title>
<path fill="none" stroke="midnightblue" d="M749.65,-323.82C766.56,-321.12 796.01,-316.42 819.48,-312.67"/>
<polygon fill="midnightblue" stroke="midnightblue" points="820.13,-316.11 829.45,-311.08 819.02,-309.2 820.13,-316.11"/>
</g>
</g>
</svg>
        <g id="navigator" transform="translate(0 0)" fill="#404254">
                <rect fill="#f2f5e9" fill-opacity="0.5" stroke="#606060" stroke-width=".5" x="0" y="0" width="60" height="60"/>
                <use id="zoomplus" xlink:href="#zoomPlus" x="17" y="9" onmousedown="handleZoom(evt,'in')"/>
                <use id="zoomminus" xlink:href="#zoomMin" x="42" y="9" onmousedown="handleZoom(evt,'out')"/>
                <use id="reset" xlink:href="#resetDef" x="30" y="36" onmousedown="handleReset()"/>
                <g id="arrowUp" xlink:href="#dirArrow" transform="translate(30 24)" onmousedown="handlePan(0,-1)">
                  <use xlink:href="#rim" fill="#404040">
                        <set attributeName="fill" to="#808080" begin="arrowUp.mouseover" end="arrowUp.mouseout"/>
                  </use>
                  <path fill="none" stroke="white" stroke-width="1.5" d="M0,-3.0v7 M-2.5,-0.5L0,-3.0L2.5,-0.5"/>
                </g>
                <g id="arrowRight" xlink:href="#dirArrow" transform="rotate(90) translate(36 -43)" onmousedown="handlePan(1,0)">
                  <use xlink:href="#rim" fill="#404040">
                        <set attributeName="fill" to="#808080" begin="arrowRight.mouseover" end="arrowRight.mouseout"/>
                  </use>
                  <path fill="none" stroke="white" stroke-width="1.5" d="M0,-3.0v7 M-2.5,-0.5L0,-3.0L2.5,-0.5"/>
                </g>
                <g id="arrowDown" xlink:href="#dirArrow" transform="rotate(180) translate(-30 -48)" onmousedown="handlePan(0,1)">
                  <use xlink:href="#rim" fill="#404040">
                        <set attributeName="fill" to="#808080" begin="arrowDown.mouseover" end="arrowDown.mouseout"/>
                  </use>
                  <path fill="none" stroke="white" stroke-width="1.5" d="M0,-3.0v7 M-2.5,-0.5L0,-3.0L2.5,-0.5"/>
                </g>
                <g id="arrowLeft" xlink:href="#dirArrow" transform="rotate(270) translate(-36 17)" onmousedown="handlePan(-1,0)">
                  <use xlink:href="#rim" fill="#404040">
                        <set attributeName="fill" to="#808080" begin="arrowLeft.mouseover" end="arrowLeft.mouseout"/>
                  </use>
                  <path fill="none" stroke="white" stroke-width="1.5" d="M0,-3.0v7 M-2.5,-0.5L0,-3.0L2.5,-0.5"/>
                </g>
        </g>
        <svg viewBox="0 0 15 15" width="100%" height="30px" preserveAspectRatio="xMaxYMin meet">
         <g id="arrow_out" transform="scale(0.3 0.3)">
          <a xlink:href="classmachine__learning_1_1neural__network_1_1_neural_network_aec648ea4f40bd71123b5f907a681dd8e_cgraph_org.svg" target="_base">
           <rect id="button" ry="5" rx="5" y="6" x="6" height="38" width="38"
                fill="#f2f5e9" fill-opacity="0.5" stroke="#606060" stroke-width="1.0"/>
           <path id="arrow"
             d="M 11.500037,31.436501 C 11.940474,20.09759 22.043105,11.32322 32.158766,21.979434 L 37.068811,17.246167 C 37.068811,17.246167 37.088388,32 37.088388,32 L 22.160133,31.978069 C 22.160133,31.978069 26.997745,27.140456 26.997745,27.140456 C 18.528582,18.264221 13.291696,25.230495 11.500037,31.436501 z"
             style="fill:#404040;"/>
          </a>
         </g>
        </svg>
</svg>
