<?xml version="1.0" encoding="UTF-8" standalone="no"?>
<!DOCTYPE svg PUBLIC "-//W3C//DTD SVG 1.1//EN"
 "http://www.w3.org/Graphics/SVG/1.1/DTD/svg11.dtd">
<!-- Generated by graphviz version 5.0.0 (20220707.1540)
 -->
<!-- Title: machine_learning::neural_network::NeuralNetwork::single_predict Pages: 1 -->
<svg width="727pt" height="288pt"
 viewBox="0.00 0.00 727.00 287.50" xmlns="http://www.w3.org/2000/svg" xmlns:xlink="http://www.w3.org/1999/xlink">
<g id="graph0" class="graph" transform="scale(1 1) rotate(0) translate(4 283.5)">
<title>machine_learning::neural_network::NeuralNetwork::single_predict</title>
<polygon fill="white" stroke="transparent" points="-4,4 -4,-283.5 723,-283.5 723,4 -4,4"/>
<!-- Node1 -->
<g id="node1" class="node">
<title>Node1</title>
<g id="a_node1"><a xlink:title=" ">
<polygon fill="#bfbfbf" stroke="black" points="0,-180.5 0,-221.5 128,-221.5 128,-180.5 0,-180.5"/>
<text text-anchor="start" x="8" y="-209.5" font-family="Helvetica,sans-Serif" font-size="10.00">machine_learning::neural</text>
<text text-anchor="start" x="8" y="-198.5" font-family="Helvetica,sans-Serif" font-size="10.00">_network::NeuralNetwork</text>
<text text-anchor="middle" x="64" y="-187.5" font-family="Helvetica,sans-Serif" font-size="10.00">::single_predict</text>
</a>
</g>
</g>
<!-- Node2 -->
<g id="node2" class="node">
<title>Node2</title>
<g id="a_node2"><a xlink:href="../../d4/df4/classmachine__learning_1_1neural__network_1_1_neural_network.html#a361a45f3c3d8347d79103bf182d0570b" target="_top" xlink:title=" ">
<polygon fill="white" stroke="black" points="164,-180.5 164,-221.5 309,-221.5 309,-180.5 164,-180.5"/>
<text text-anchor="start" x="172" y="-209.5" font-family="Helvetica,sans-Serif" font-size="10.00">machine_learning::neural</text>
<text text-anchor="start" x="172" y="-198.5" font-family="Helvetica,sans-Serif" font-size="10.00">_network::NeuralNetwork</text>
<text text-anchor="middle" x="236.5" y="-187.5" font-family="Helvetica,sans-Serif" font-size="10.00">::__detailed_single_prediction</text>
</a>
</g>
</g>
<!-- Node1&#45;&gt;Node2 -->
<g id="edge1" class="edge">
<title>Node1&#45;&gt;Node2</title>
<path fill="none" stroke="midnightblue" d="M128,-201C136.39,-201 145.09,-201 153.73,-201"/>
<polygon fill="midnightblue" stroke="midnightblue" points="153.84,-204.5 163.84,-201 153.84,-197.5 153.84,-204.5"/>
</g>
<!-- Node3 -->
<g id="node3" class="node">
<title>Node3</title>
<g id="a_node3"><a xlink:href="../../d8/d77/namespacemachine__learning.html#ad0bdc88e5f1be47c46c0f0c8ebf754bb" target="_top" xlink:title=" ">
<polygon fill="white" stroke="black" points="350,-249 350,-279 472,-279 472,-249 350,-249"/>
<text text-anchor="start" x="358" y="-267" font-family="Helvetica,sans-Serif" font-size="10.00">machine_learning::apply</text>
<text text-anchor="middle" x="411" y="-256" font-family="Helvetica,sans-Serif" font-size="10.00">_function</text>
</a>
</g>
</g>
<!-- Node2&#45;&gt;Node3 -->
<g id="edge2" class="edge">
<title>Node2&#45;&gt;Node3</title>
<path fill="none" stroke="midnightblue" d="M293.98,-221.63C315.02,-229.31 338.75,-237.98 359.24,-245.46"/>
<polygon fill="midnightblue" stroke="midnightblue" points="358.12,-248.78 368.71,-248.92 360.52,-242.2 358.12,-248.78"/>
</g>
<!-- Node4 -->
<g id="node4" class="node">
<title>Node4</title>
<g id="a_node4"><a target="_blank" xlink:href="http://en.cppreference.com/w/cpp/container/vector/emplace_back.html#" xlink:title=" ">
<polygon fill="white" stroke="black" points="345,-210.5 345,-229.5 477,-229.5 477,-210.5 345,-210.5"/>
<text text-anchor="middle" x="411" y="-217.5" font-family="Helvetica,sans-Serif" font-size="10.00">std::vector::emplace_back</text>
</a>
</g>
</g>
<!-- Node2&#45;&gt;Node4 -->
<g id="edge3" class="edge">
<title>Node2&#45;&gt;Node4</title>
<path fill="none" stroke="midnightblue" d="M309.16,-208.89C317.67,-209.83 326.38,-210.79 334.95,-211.73"/>
<polygon fill="midnightblue" stroke="midnightblue" points="334.58,-215.21 344.91,-212.83 335.35,-208.26 334.58,-215.21"/>
</g>
<!-- Node5 -->
<g id="node5" class="node">
<title>Node5</title>
<g id="a_node5"><a xlink:href="../../d4/d18/composite__simpson__rule_8cpp.html#a995716bc040dc6cf32b5cb3df51c4529" target="_top" xlink:title="Another test function.">
<polygon fill="white" stroke="black" points="396.5,-172.5 396.5,-191.5 425.5,-191.5 425.5,-172.5 396.5,-172.5"/>
<text text-anchor="middle" x="411" y="-179.5" font-family="Helvetica,sans-Serif" font-size="10.00">l</text>
</a>
</g>
</g>
<!-- Node2&#45;&gt;Node5 -->
<g id="edge4" class="edge">
<title>Node2&#45;&gt;Node5</title>
<path fill="none" stroke="midnightblue" d="M309.16,-193.11C336.81,-190.06 366.51,-186.79 386.47,-184.59"/>
<polygon fill="midnightblue" stroke="midnightblue" points="386.92,-188.06 396.48,-183.49 386.16,-181.11 386.92,-188.06"/>
</g>
<!-- Node7 -->
<g id="node7" class="node">
<title>Node7</title>
<g id="a_node7"><a xlink:href="../../d8/d77/namespacemachine__learning.html#a5342906d42b80fc6b6b3ad17bf00fcb9" target="_top" xlink:title=" ">
<polygon fill="white" stroke="black" points="345,-104.5 345,-123.5 477,-123.5 477,-104.5 345,-104.5"/>
<text text-anchor="middle" x="411" y="-111.5" font-family="Helvetica,sans-Serif" font-size="10.00">machine_learning::multiply</text>
</a>
</g>
</g>
<!-- Node2&#45;&gt;Node7 -->
<g id="edge6" class="edge">
<title>Node2&#45;&gt;Node7</title>
<path fill="none" stroke="midnightblue" d="M278.38,-180.38C310.29,-164.29 353.77,-142.36 381.87,-128.19"/>
<polygon fill="midnightblue" stroke="midnightblue" points="383.77,-131.15 391.12,-123.52 380.62,-124.9 383.77,-131.15"/>
</g>
<!-- Node6 -->
<g id="node6" class="node">
<title>Node6</title>
<g id="a_node6"><a target="_blank" xlink:href="http://en.cppreference.com/w/cpp/numeric/math/log.html#" xlink:title=" ">
<polygon fill="white" stroke="black" points="546.5,-202.5 546.5,-221.5 595.5,-221.5 595.5,-202.5 546.5,-202.5"/>
<text text-anchor="middle" x="571" y="-209.5" font-family="Helvetica,sans-Serif" font-size="10.00">std::log</text>
</a>
</g>
</g>
<!-- Node5&#45;&gt;Node6 -->
<g id="edge5" class="edge">
<title>Node5&#45;&gt;Node6</title>
<path fill="none" stroke="midnightblue" d="M425.75,-184.61C450.17,-189.25 501.8,-199.05 536.2,-205.58"/>
<polygon fill="midnightblue" stroke="midnightblue" points="535.8,-209.07 546.27,-207.5 537.1,-202.19 535.8,-209.07"/>
</g>
<!-- Node8 -->
<g id="node8" class="node">
<title>Node8</title>
<g id="a_node8"><a target="_blank" xlink:href="http://en.cppreference.com/w/cpp/io/manip/endl.html#" xlink:title=" ">
<polygon fill="white" stroke="black" points="544,-164.5 544,-183.5 598,-183.5 598,-164.5 544,-164.5"/>
<text text-anchor="middle" x="571" y="-171.5" font-family="Helvetica,sans-Serif" font-size="10.00">std::endl</text>
</a>
</g>
</g>
<!-- Node7&#45;&gt;Node8 -->
<g id="edge7" class="edge">
<title>Node7&#45;&gt;Node8</title>
<path fill="none" stroke="midnightblue" d="M434.3,-123.53C454.66,-132.12 485.66,-144.91 513,-155 519.71,-157.48 526.91,-159.99 533.86,-162.34"/>
<polygon fill="midnightblue" stroke="midnightblue" points="533.18,-165.8 543.77,-165.65 535.39,-159.16 533.18,-165.8"/>
</g>
<!-- Node9 -->
<g id="node9" class="node">
<title>Node9</title>
<g id="a_node9"><a target="_blank" xlink:href="http://en.cppreference.com/w/cpp/utility/program/exit.html#" xlink:title=" ">
<polygon fill="white" stroke="black" points="545,-126.5 545,-145.5 597,-145.5 597,-126.5 545,-126.5"/>
<text text-anchor="middle" x="571" y="-133.5" font-family="Helvetica,sans-Serif" font-size="10.00">std::exit</text>
</a>
</g>
</g>
<!-- Node7&#45;&gt;Node9 -->
<g id="edge8" class="edge">
<title>Node7&#45;&gt;Node9</title>
<path fill="none" stroke="midnightblue" d="M477.18,-123.08C496.89,-125.82 517.78,-128.73 534.75,-131.09"/>
<polygon fill="midnightblue" stroke="midnightblue" points="534.37,-134.57 544.76,-132.49 535.34,-127.64 534.37,-134.57"/>
</g>
<!-- Node10 -->
<g id="node10" class="node">
<title>Node10</title>
<g id="a_node10"><a xlink:href="../../d8/d77/namespacemachine__learning.html#aa4bbf61e65f8cd297255fa94b983d078" target="_top" xlink:title=" ">
<polygon fill="white" stroke="black" points="515,-77 515,-107 627,-107 627,-77 515,-77"/>
<text text-anchor="start" x="523" y="-95" font-family="Helvetica,sans-Serif" font-size="10.00">machine_learning::get</text>
<text text-anchor="middle" x="571" y="-84" font-family="Helvetica,sans-Serif" font-size="10.00">_shape</text>
</a>
</g>
</g>
<!-- Node7&#45;&gt;Node10 -->
<g id="edge9" class="edge">
<title>Node7&#45;&gt;Node10</title>
<path fill="none" stroke="midnightblue" d="M477.18,-104.92C486.19,-103.67 495.46,-102.38 504.48,-101.12"/>
<polygon fill="midnightblue" stroke="midnightblue" points="505.12,-104.57 514.54,-99.72 504.15,-97.63 505.12,-104.57"/>
</g>
<!-- Node11 -->
<g id="node11" class="node">
<title>Node11</title>
<g id="a_node11"><a xlink:href="../../d4/d18/composite__simpson__rule_8cpp.html#a6d50f1b8eb533b54721812d16a3699cc" target="_top" xlink:title="Another test function.">
<polygon fill="white" stroke="black" points="556.5,-38.5 556.5,-57.5 585.5,-57.5 585.5,-38.5 556.5,-38.5"/>
<text text-anchor="middle" x="571" y="-45.5" font-family="Helvetica,sans-Serif" font-size="10.00">k</text>
</a>
</g>
</g>
<!-- Node7&#45;&gt;Node11 -->
<g id="edge10" class="edge">
<title>Node7&#45;&gt;Node11</title>
<path fill="none" stroke="midnightblue" d="M431.51,-104.48C451.69,-94.79 484.22,-79.58 513,-68 523.95,-63.6 536.28,-59.2 546.67,-55.66"/>
<polygon fill="midnightblue" stroke="midnightblue" points="547.92,-58.93 556.28,-52.43 545.69,-52.29 547.92,-58.93"/>
</g>
<!-- Node14 -->
<g id="node14" class="node">
<title>Node14</title>
<g id="a_node14"><a target="_blank" xlink:href="http://en.cppreference.com/w/cpp/container/vector/push_back.html#" xlink:title=" ">
<polygon fill="white" stroke="black" points="513,-0.5 513,-19.5 629,-19.5 629,-0.5 513,-0.5"/>
<text text-anchor="middle" x="571" y="-7.5" font-family="Helvetica,sans-Serif" font-size="10.00">std::vector::push_back</text>
</a>
</g>
</g>
<!-- Node7&#45;&gt;Node14 -->
<g id="edge13" class="edge">
<title>Node7&#45;&gt;Node14</title>
<path fill="none" stroke="midnightblue" d="M420.84,-104.48C437.39,-87.18 474.81,-50.39 513,-29 516.74,-26.91 520.74,-25 524.83,-23.26"/>
<polygon fill="midnightblue" stroke="midnightblue" points="526.38,-26.42 534.45,-19.54 523.86,-19.89 526.38,-26.42"/>
</g>
<!-- Node12 -->
<g id="node12" class="node">
<title>Node12</title>
<g id="a_node12"><a target="_blank" xlink:href="http://en.cppreference.com/w/cpp/numeric/math/pow.html#" xlink:title=" ">
<polygon fill="white" stroke="black" points="665,-57.5 665,-76.5 719,-76.5 719,-57.5 665,-57.5"/>
<text text-anchor="middle" x="692" y="-64.5" font-family="Helvetica,sans-Serif" font-size="10.00">std::pow</text>
</a>
</g>
</g>
<!-- Node11&#45;&gt;Node12 -->
<g id="edge11" class="edge">
<title>Node11&#45;&gt;Node12</title>
<path fill="none" stroke="midnightblue" d="M585.65,-50.18C602.46,-52.86 631.64,-57.52 655.04,-61.26"/>
<polygon fill="midnightblue" stroke="midnightblue" points="654.56,-64.73 664.99,-62.85 655.66,-57.81 654.56,-64.73"/>
</g>
<!-- Node13 -->
<g id="node13" class="node">
<title>Node13</title>
<g id="a_node13"><a target="_blank" xlink:href="http://en.cppreference.com/w/cpp/numeric/math/sqrt.html#" xlink:title=" ">
<polygon fill="white" stroke="black" points="665.5,-19.5 665.5,-38.5 718.5,-38.5 718.5,-19.5 665.5,-19.5"/>
<text text-anchor="middle" x="692" y="-26.5" font-family="Helvetica,sans-Serif" font-size="10.00">std::sqrt</text>
</a>
</g>
</g>
<!-- Node11&#45;&gt;Node13 -->
<g id="edge12" class="edge">
<title>Node11&#45;&gt;Node13</title>
<path fill="none" stroke="midnightblue" d="M585.65,-45.82C602.56,-43.12 632.01,-38.42 655.48,-34.67"/>
<polygon fill="midnightblue" stroke="midnightblue" points="656.13,-38.11 665.45,-33.08 655.02,-31.2 656.13,-38.11"/>
</g>
</g>
</svg>
