<?xml version="1.0" encoding="UTF-8" standalone="no"?>
<!DOCTYPE svg PUBLIC "-//W3C//DTD SVG 1.1//EN"
 "http://www.w3.org/Graphics/SVG/1.1/DTD/svg11.dtd">
<!-- Generated by graphviz version 5.0.0 (20220707.1540)
 -->
<!-- Title: machine_learning::neural_network::NeuralNetwork::__detailed_single_prediction Pages: 1 -->
<svg width="563pt" height="288pt"
 viewBox="0.00 0.00 563.00 287.50" xmlns="http://www.w3.org/2000/svg" xmlns:xlink="http://www.w3.org/1999/xlink">
<g id="graph0" class="graph" transform="scale(1 1) rotate(0) translate(4 283.5)">
<title>machine_learning::neural_network::NeuralNetwork::__detailed_single_prediction</title>
<polygon fill="white" stroke="transparent" points="-4,4 -4,-283.5 559,-283.5 559,4 -4,4"/>
<!-- Node1 -->
<g id="node1" class="node">
<title>Node1</title>
<g id="a_node1"><a xlink:title=" ">
<polygon fill="#bfbfbf" stroke="black" points="0,-180.5 0,-221.5 145,-221.5 145,-180.5 0,-180.5"/>
<text text-anchor="start" x="8" y="-209.5" font-family="Helvetica,sans-Serif" font-size="10.00">machine_learning::neural</text>
<text text-anchor="start" x="8" y="-198.5" font-family="Helvetica,sans-Serif" font-size="10.00">_network::NeuralNetwork</text>
<text text-anchor="middle" x="72.5" y="-187.5" font-family="Helvetica,sans-Serif" font-size="10.00">::__detailed_single_prediction</text>
</a>
</g>
</g>
<!-- Node2 -->
<g id="node2" class="node">
<title>Node2</title>
<g id="a_node2"><a xlink:href="../../d8/d77/namespacemachine__learning.html#ad0bdc88e5f1be47c46c0f0c8ebf754bb" target="_top" xlink:title=" ">
<polygon fill="white" stroke="black" points="186,-249 186,-279 308,-279 308,-249 186,-249"/>
<text text-anchor="start" x="194" y="-267" font-family="Helvetica,sans-Serif" font-size="10.00">machine_learning::apply</text>
<text text-anchor="middle" x="247" y="-256" font-family="Helvetica,sans-Serif" font-size="10.00">_function</text>
</a>
</g>
</g>
<!-- Node1&#45;&gt;Node2 -->
<g id="edge1" class="edge">
<title>Node1&#45;&gt;Node2</title>
<path fill="none" stroke="midnightblue" d="M129.98,-221.63C151.02,-229.31 174.75,-237.98 195.24,-245.46"/>
<polygon fill="midnightblue" stroke="midnightblue" points="194.12,-248.78 204.71,-248.92 196.52,-242.2 194.12,-248.78"/>
</g>
<!-- Node3 -->
<g id="node3" class="node">
<title>Node3</title>
<g id="a_node3"><a target="_blank" xlink:href="http://en.cppreference.com/w/cpp/container/vector/emplace_back.html#" xlink:title=" ">
<polygon fill="white" stroke="black" points="181,-210.5 181,-229.5 313,-229.5 313,-210.5 181,-210.5"/>
<text text-anchor="middle" x="247" y="-217.5" font-family="Helvetica,sans-Serif" font-size="10.00">std::vector::emplace_back</text>
</a>
</g>
</g>
<!-- Node1&#45;&gt;Node3 -->
<g id="edge2" class="edge">
<title>Node1&#45;&gt;Node3</title>
<path fill="none" stroke="midnightblue" d="M145.16,-208.89C153.67,-209.83 162.38,-210.79 170.95,-211.73"/>
<polygon fill="midnightblue" stroke="midnightblue" points="170.58,-215.21 180.91,-212.83 171.35,-208.26 170.58,-215.21"/>
</g>
<!-- Node4 -->
<g id="node4" class="node">
<title>Node4</title>
<g id="a_node4"><a xlink:href="../../d4/d18/composite__simpson__rule_8cpp.html#a995716bc040dc6cf32b5cb3df51c4529" target="_top" xlink:title="Another test function.">
<polygon fill="white" stroke="black" points="232.5,-172.5 232.5,-191.5 261.5,-191.5 261.5,-172.5 232.5,-172.5"/>
<text text-anchor="middle" x="247" y="-179.5" font-family="Helvetica,sans-Serif" font-size="10.00">l</text>
</a>
</g>
</g>
<!-- Node1&#45;&gt;Node4 -->
<g id="edge3" class="edge">
<title>Node1&#45;&gt;Node4</title>
<path fill="none" stroke="midnightblue" d="M145.16,-193.11C172.81,-190.06 202.51,-186.79 222.47,-184.59"/>
<polygon fill="midnightblue" stroke="midnightblue" points="222.92,-188.06 232.48,-183.49 222.16,-181.11 222.92,-188.06"/>
</g>
<!-- Node6 -->
<g id="node6" class="node">
<title>Node6</title>
<g id="a_node6"><a xlink:href="../../d8/d77/namespacemachine__learning.html#a5342906d42b80fc6b6b3ad17bf00fcb9" target="_top" xlink:title=" ">
<polygon fill="white" stroke="black" points="181,-104.5 181,-123.5 313,-123.5 313,-104.5 181,-104.5"/>
<text text-anchor="middle" x="247" y="-111.5" font-family="Helvetica,sans-Serif" font-size="10.00">machine_learning::multiply</text>
</a>
</g>
</g>
<!-- Node1&#45;&gt;Node6 -->
<g id="edge5" class="edge">
<title>Node1&#45;&gt;Node6</title>
<path fill="none" stroke="midnightblue" d="M114.38,-180.38C146.29,-164.29 189.77,-142.36 217.87,-128.19"/>
<polygon fill="midnightblue" stroke="midnightblue" points="219.77,-131.15 227.12,-123.52 216.62,-124.9 219.77,-131.15"/>
</g>
<!-- Node5 -->
<g id="node5" class="node">
<title>Node5</title>
<g id="a_node5"><a target="_blank" xlink:href="http://en.cppreference.com/w/cpp/numeric/math/log.html#" xlink:title=" ">
<polygon fill="white" stroke="black" points="382.5,-202.5 382.5,-221.5 431.5,-221.5 431.5,-202.5 382.5,-202.5"/>
<text text-anchor="middle" x="407" y="-209.5" font-family="Helvetica,sans-Serif" font-size="10.00">std::log</text>
</a>
</g>
</g>
<!-- Node4&#45;&gt;Node5 -->
<g id="edge4" class="edge">
<title>Node4&#45;&gt;Node5</title>
<path fill="none" stroke="midnightblue" d="M261.75,-184.61C286.17,-189.25 337.8,-199.05 372.2,-205.58"/>
<polygon fill="midnightblue" stroke="midnightblue" points="371.8,-209.07 382.27,-207.5 373.1,-202.19 371.8,-209.07"/>
</g>
<!-- Node7 -->
<g id="node7" class="node">
<title>Node7</title>
<g id="a_node7"><a target="_blank" xlink:href="http://en.cppreference.com/w/cpp/io/manip/endl.html#" xlink:title=" ">
<polygon fill="white" stroke="black" points="380,-164.5 380,-183.5 434,-183.5 434,-164.5 380,-164.5"/>
<text text-anchor="middle" x="407" y="-171.5" font-family="Helvetica,sans-Serif" font-size="10.00">std::endl</text>
</a>
</g>
</g>
<!-- Node6&#45;&gt;Node7 -->
<g id="edge6" class="edge">
<title>Node6&#45;&gt;Node7</title>
<path fill="none" stroke="midnightblue" d="M270.3,-123.53C290.66,-132.12 321.66,-144.91 349,-155 355.71,-157.48 362.91,-159.99 369.86,-162.34"/>
<polygon fill="midnightblue" stroke="midnightblue" points="369.18,-165.8 379.77,-165.65 371.39,-159.16 369.18,-165.8"/>
</g>
<!-- Node8 -->
<g id="node8" class="node">
<title>Node8</title>
<g id="a_node8"><a target="_blank" xlink:href="http://en.cppreference.com/w/cpp/utility/program/exit.html#" xlink:title=" ">
<polygon fill="white" stroke="black" points="381,-126.5 381,-145.5 433,-145.5 433,-126.5 381,-126.5"/>
<text text-anchor="middle" x="407" y="-133.5" font-family="Helvetica,sans-Serif" font-size="10.00">std::exit</text>
</a>
</g>
</g>
<!-- Node6&#45;&gt;Node8 -->
<g id="edge7" class="edge">
<title>Node6&#45;&gt;Node8</title>
<path fill="none" stroke="midnightblue" d="M313.18,-123.08C332.89,-125.82 353.78,-128.73 370.75,-131.09"/>
<polygon fill="midnightblue" stroke="midnightblue" points="370.37,-134.57 380.76,-132.49 371.34,-127.64 370.37,-134.57"/>
</g>
<!-- Node9 -->
<g id="node9" class="node">
<title>Node9</title>
<g id="a_node9"><a xlink:href="../../d8/d77/namespacemachine__learning.html#aa4bbf61e65f8cd297255fa94b983d078" target="_top" xlink:title=" ">
<polygon fill="white" stroke="black" points="351,-77 351,-107 463,-107 463,-77 351,-77"/>
<text text-anchor="start" x="359" y="-95" font-family="Helvetica,sans-Serif" font-size="10.00">machine_learning::get</text>
<text text-anchor="middle" x="407" y="-84" font-family="Helvetica,sans-Serif" font-size="10.00">_shape</text>
</a>
</g>
</g>
<!-- Node6&#45;&gt;Node9 -->
<g id="edge8" class="edge">
<title>Node6&#45;&gt;Node9</title>
<path fill="none" stroke="midnightblue" d="M313.18,-104.92C322.19,-103.67 331.46,-102.38 340.48,-101.12"/>
<polygon fill="midnightblue" stroke="midnightblue" points="341.12,-104.57 350.54,-99.72 340.15,-97.63 341.12,-104.57"/>
</g>
<!-- Node10 -->
<g id="node10" class="node">
<title>Node10</title>
<g id="a_node10"><a xlink:href="../../d4/d18/composite__simpson__rule_8cpp.html#a6d50f1b8eb533b54721812d16a3699cc" target="_top" xlink:title="Another test function.">
<polygon fill="white" stroke="black" points="392.5,-38.5 392.5,-57.5 421.5,-57.5 421.5,-38.5 392.5,-38.5"/>
<text text-anchor="middle" x="407" y="-45.5" font-family="Helvetica,sans-Serif" font-size="10.00">k</text>
</a>
</g>
</g>
<!-- Node6&#45;&gt;Node10 -->
<g id="edge9" class="edge">
<title>Node6&#45;&gt;Node10</title>
<path fill="none" stroke="midnightblue" d="M267.51,-104.48C287.69,-94.79 320.22,-79.58 349,-68 359.95,-63.6 372.28,-59.2 382.67,-55.66"/>
<polygon fill="midnightblue" stroke="midnightblue" points="383.92,-58.93 392.28,-52.43 381.69,-52.29 383.92,-58.93"/>
</g>
<!-- Node13 -->
<g id="node13" class="node">
<title>Node13</title>
<g id="a_node13"><a target="_blank" xlink:href="http://en.cppreference.com/w/cpp/container/vector/push_back.html#" xlink:title=" ">
<polygon fill="white" stroke="black" points="349,-0.5 349,-19.5 465,-19.5 465,-0.5 349,-0.5"/>
<text text-anchor="middle" x="407" y="-7.5" font-family="Helvetica,sans-Serif" font-size="10.00">std::vector::push_back</text>
</a>
</g>
</g>
<!-- Node6&#45;&gt;Node13 -->
<g id="edge12" class="edge">
<title>Node6&#45;&gt;Node13</title>
<path fill="none" stroke="midnightblue" d="M256.84,-104.48C273.39,-87.18 310.81,-50.39 349,-29 352.74,-26.91 356.74,-25 360.83,-23.26"/>
<polygon fill="midnightblue" stroke="midnightblue" points="362.38,-26.42 370.45,-19.54 359.86,-19.89 362.38,-26.42"/>
</g>
<!-- Node11 -->
<g id="node11" class="node">
<title>Node11</title>
<g id="a_node11"><a target="_blank" xlink:href="http://en.cppreference.com/w/cpp/numeric/math/pow.html#" xlink:title=" ">
<polygon fill="white" stroke="black" points="501,-57.5 501,-76.5 555,-76.5 555,-57.5 501,-57.5"/>
<text text-anchor="middle" x="528" y="-64.5" font-family="Helvetica,sans-Serif" font-size="10.00">std::pow</text>
</a>
</g>
</g>
<!-- Node10&#45;&gt;Node11 -->
<g id="edge10" class="edge">
<title>Node10&#45;&gt;Node11</title>
<path fill="none" stroke="midnightblue" d="M421.65,-50.18C438.46,-52.86 467.64,-57.52 491.04,-61.26"/>
<polygon fill="midnightblue" stroke="midnightblue" points="490.56,-64.73 500.99,-62.85 491.66,-57.81 490.56,-64.73"/>
</g>
<!-- Node12 -->
<g id="node12" class="node">
<title>Node12</title>
<g id="a_node12"><a target="_blank" xlink:href="http://en.cppreference.com/w/cpp/numeric/math/sqrt.html#" xlink:title=" ">
<polygon fill="white" stroke="black" points="501.5,-19.5 501.5,-38.5 554.5,-38.5 554.5,-19.5 501.5,-19.5"/>
<text text-anchor="middle" x="528" y="-26.5" font-family="Helvetica,sans-Serif" font-size="10.00">std::sqrt</text>
</a>
</g>
</g>
<!-- Node10&#45;&gt;Node12 -->
<g id="edge11" class="edge">
<title>Node10&#45;&gt;Node12</title>
<path fill="none" stroke="midnightblue" d="M421.65,-45.82C438.56,-43.12 468.01,-38.42 491.48,-34.67"/>
<polygon fill="midnightblue" stroke="midnightblue" points="492.13,-38.11 501.45,-33.08 491.02,-31.2 492.13,-38.11"/>
</g>
</g>
</svg>
