<?xml version="1.0" encoding="UTF-8" standalone="no"?>
<!DOCTYPE svg PUBLIC "-//W3C//DTD SVG 1.1//EN"
 "http://www.w3.org/Graphics/SVG/1.1/DTD/svg11.dtd">
<!-- Generated by graphviz version 5.0.0 (20220707.1540)
 -->
<!-- Title: machine_learning::neural_network::NeuralNetwork::evaluate_from_csv Pages: 1 -->
<svg width="1063pt" height="906pt"
 viewBox="0.00 0.00 1063.00 906.00" xmlns="http://www.w3.org/2000/svg" xmlns:xlink="http://www.w3.org/1999/xlink">
<g id="graph0" class="graph" transform="scale(1 1) rotate(0) translate(4 902)">
<title>machine_learning::neural_network::NeuralNetwork::evaluate_from_csv</title>
<polygon fill="white" stroke="transparent" points="-4,4 -4,-902 1059,-902 1059,4 -4,4"/>
<!-- Node1 -->
<g id="node1" class="node">
<title>Node1</title>
<g id="a_node1"><a xlink:title=" ">
<polygon fill="#bfbfbf" stroke="black" points="0,-485.5 0,-526.5 128,-526.5 128,-485.5 0,-485.5"/>
<text text-anchor="start" x="8" y="-514.5" font-family="Helvetica,sans-Serif" font-size="10.00">machine_learning::neural</text>
<text text-anchor="start" x="8" y="-503.5" font-family="Helvetica,sans-Serif" font-size="10.00">_network::NeuralNetwork</text>
<text text-anchor="middle" x="64" y="-492.5" font-family="Helvetica,sans-Serif" font-size="10.00">::evaluate_from_csv</text>
</a>
</g>
</g>
<!-- Node2 -->
<g id="node2" class="node">
<title>Node2</title>
<g id="a_node2"><a xlink:href="../../d4/df4/classmachine__learning_1_1neural__network_1_1_neural_network.html#aec648ea4f40bd71123b5f907a681dd8e" target="_top" xlink:title=" ">
<polygon fill="white" stroke="black" points="164,-706.5 164,-747.5 292,-747.5 292,-706.5 164,-706.5"/>
<text text-anchor="start" x="172" y="-735.5" font-family="Helvetica,sans-Serif" font-size="10.00">machine_learning::neural</text>
<text text-anchor="start" x="172" y="-724.5" font-family="Helvetica,sans-Serif" font-size="10.00">_network::NeuralNetwork</text>
<text text-anchor="middle" x="228" y="-713.5" font-family="Helvetica,sans-Serif" font-size="10.00">::evaluate</text>
</a>
</g>
</g>
<!-- Node1&#45;&gt;Node2 -->
<g id="edge1" class="edge">
<title>Node1&#45;&gt;Node2</title>
<path fill="none" stroke="midnightblue" d="M80.24,-526.79C109.32,-566.46 172.77,-653.03 205.91,-698.23"/>
<polygon fill="midnightblue" stroke="midnightblue" points="203.18,-700.43 211.92,-706.43 208.83,-696.29 203.18,-700.43"/>
</g>
<!-- Node23 -->
<g id="node23" class="node">
<title>Node23</title>
<g id="a_node23"><a xlink:href="../../d4/df4/classmachine__learning_1_1neural__network_1_1_neural_network.html#a650c677fd6512665741ddd9b7983275d" target="_top" xlink:title=" ">
<polygon fill="white" stroke="black" points="500.5,-289.5 500.5,-330.5 628.5,-330.5 628.5,-289.5 500.5,-289.5"/>
<text text-anchor="start" x="508.5" y="-318.5" font-family="Helvetica,sans-Serif" font-size="10.00">machine_learning::neural</text>
<text text-anchor="start" x="508.5" y="-307.5" font-family="Helvetica,sans-Serif" font-size="10.00">_network::NeuralNetwork</text>
<text text-anchor="middle" x="564.5" y="-296.5" font-family="Helvetica,sans-Serif" font-size="10.00">::get_XY_from_csv</text>
</a>
</g>
</g>
<!-- Node1&#45;&gt;Node23 -->
<g id="edge27" class="edge">
<title>Node1&#45;&gt;Node23</title>
<path fill="none" stroke="midnightblue" d="M117.41,-485.4C210.06,-448.96 402.36,-373.36 501.46,-334.39"/>
<polygon fill="midnightblue" stroke="midnightblue" points="503.02,-337.54 511.05,-330.62 500.46,-331.02 503.02,-337.54"/>
</g>
<!-- Node3 -->
<g id="node3" class="node">
<title>Node3</title>
<g id="a_node3"><a xlink:href="../../d8/d77/namespacemachine__learning.html#ad0bdc88e5f1be47c46c0f0c8ebf754bb" target="_top" xlink:title=" ">
<polygon fill="white" stroke="black" points="682,-759 682,-789 804,-789 804,-759 682,-759"/>
<text text-anchor="start" x="690" y="-777" font-family="Helvetica,sans-Serif" font-size="10.00">machine_learning::apply</text>
<text text-anchor="middle" x="743" y="-766" font-family="Helvetica,sans-Serif" font-size="10.00">_function</text>
</a>
</g>
</g>
<!-- Node2&#45;&gt;Node3 -->
<g id="edge2" class="edge">
<title>Node2&#45;&gt;Node3</title>
<path fill="none" stroke="midnightblue" d="M265.84,-747.72C283.96,-756.76 306.49,-766.35 328,-771 446.53,-796.6 588.64,-789.76 671.77,-782.12"/>
<polygon fill="midnightblue" stroke="midnightblue" points="672.23,-785.59 681.86,-781.16 671.57,-778.62 672.23,-785.59"/>
</g>
<!-- Node4 -->
<g id="node4" class="node">
<title>Node4</title>
<g id="a_node4"><a xlink:href="../../d8/d77/namespacemachine__learning.html#a50480fccfb39de20ca47f1bf51ecb6ec" target="_top" xlink:title=" ">
<polygon fill="white" stroke="black" points="677.5,-808.5 677.5,-827.5 808.5,-827.5 808.5,-808.5 677.5,-808.5"/>
<text text-anchor="middle" x="743" y="-815.5" font-family="Helvetica,sans-Serif" font-size="10.00">machine_learning::argmax</text>
</a>
</g>
</g>
<!-- Node2&#45;&gt;Node4 -->
<g id="edge3" class="edge">
<title>Node2&#45;&gt;Node4</title>
<path fill="none" stroke="midnightblue" d="M252.29,-747.76C271.23,-763.28 299.41,-783.39 328,-793 441.63,-831.18 582.56,-830.28 667.22,-824.97"/>
<polygon fill="midnightblue" stroke="midnightblue" points="667.51,-828.46 677.26,-824.31 667.05,-821.48 667.51,-828.46"/>
</g>
<!-- Node8 -->
<g id="node8" class="node">
<title>Node8</title>
<g id="a_node8"><a target="_blank" xlink:href="http://en.cppreference.com/w/cpp/io/manip/endl.html#" xlink:title=" ">
<polygon fill="white" stroke="black" points="880,-612.5 880,-631.5 934,-631.5 934,-612.5 880,-612.5"/>
<text text-anchor="middle" x="907" y="-619.5" font-family="Helvetica,sans-Serif" font-size="10.00">std::endl</text>
</a>
</g>
</g>
<!-- Node2&#45;&gt;Node8 -->
<g id="edge11" class="edge">
<title>Node2&#45;&gt;Node8</title>
<path fill="none" stroke="midnightblue" d="M259.2,-706.26C278.1,-694.39 303.45,-680.42 328,-673 331.26,-672.01 743.1,-636.16 869.52,-625.17"/>
<polygon fill="midnightblue" stroke="midnightblue" points="870.17,-628.63 879.83,-624.27 869.56,-621.65 870.17,-628.63"/>
</g>
<!-- Node12 -->
<g id="node12" class="node">
<title>Node12</title>
<g id="a_node12"><a xlink:href="../../d4/df4/classmachine__learning_1_1neural__network_1_1_neural_network.html#a3b9eac1824d365dce715fb17c33cb96f" target="_top" xlink:title=" ">
<polygon fill="white" stroke="black" points="328,-682.5 328,-723.5 456,-723.5 456,-682.5 328,-682.5"/>
<text text-anchor="start" x="336" y="-711.5" font-family="Helvetica,sans-Serif" font-size="10.00">machine_learning::neural</text>
<text text-anchor="start" x="336" y="-700.5" font-family="Helvetica,sans-Serif" font-size="10.00">_network::NeuralNetwork</text>
<text text-anchor="middle" x="392" y="-689.5" font-family="Helvetica,sans-Serif" font-size="10.00">::single_predict</text>
</a>
</g>
</g>
<!-- Node2&#45;&gt;Node12 -->
<g id="edge12" class="edge">
<title>Node2&#45;&gt;Node12</title>
<path fill="none" stroke="midnightblue" d="M292.1,-717.65C300.53,-716.4 309.23,-715.11 317.81,-713.84"/>
<polygon fill="midnightblue" stroke="midnightblue" points="318.43,-717.29 327.81,-712.36 317.4,-710.37 318.43,-717.29"/>
</g>
<!-- Node22 -->
<g id="node22" class="node">
<title>Node22</title>
<g id="a_node22"><a xlink:href="../../d8/d77/namespacemachine__learning.html#a6f1c98c016ad34ff3d9f39372161bd35" target="_top" xlink:title=" ">
<polygon fill="white" stroke="black" points="333.5,-742.5 333.5,-761.5 450.5,-761.5 450.5,-742.5 333.5,-742.5"/>
<text text-anchor="middle" x="392" y="-749.5" font-family="Helvetica,sans-Serif" font-size="10.00">machine_learning::sum</text>
</a>
</g>
</g>
<!-- Node2&#45;&gt;Node22 -->
<g id="edge26" class="edge">
<title>Node2&#45;&gt;Node22</title>
<path fill="none" stroke="midnightblue" d="M292.1,-736.74C302.29,-738.31 312.88,-739.95 323.19,-741.53"/>
<polygon fill="midnightblue" stroke="midnightblue" points="322.95,-745.04 333.36,-743.11 324.01,-738.12 322.95,-745.04"/>
</g>
<!-- Node5 -->
<g id="node5" class="node">
<title>Node5</title>
<g id="a_node5"><a target="_blank" xlink:href="http://en.cppreference.com/w/cpp/iterator/begin.html#" xlink:title=" ">
<polygon fill="white" stroke="black" points="877.5,-764.5 877.5,-783.5 936.5,-783.5 936.5,-764.5 877.5,-764.5"/>
<text text-anchor="middle" x="907" y="-771.5" font-family="Helvetica,sans-Serif" font-size="10.00">std::begin</text>
</a>
</g>
</g>
<!-- Node4&#45;&gt;Node5 -->
<g id="edge4" class="edge">
<title>Node4&#45;&gt;Node5</title>
<path fill="none" stroke="midnightblue" d="M779.15,-808.45C805.23,-801.37 840.75,-791.72 867.58,-784.44"/>
<polygon fill="midnightblue" stroke="midnightblue" points="868.66,-787.77 877.39,-781.77 866.83,-781.01 868.66,-787.77"/>
</g>
<!-- Node6 -->
<g id="node6" class="node">
<title>Node6</title>
<g id="a_node6"><a target="_blank" xlink:href="http://en.cppreference.com/w/cpp/iterator/distance.html#" xlink:title=" ">
<polygon fill="white" stroke="black" points="870.5,-878.5 870.5,-897.5 943.5,-897.5 943.5,-878.5 870.5,-878.5"/>
<text text-anchor="middle" x="907" y="-885.5" font-family="Helvetica,sans-Serif" font-size="10.00">std::distance</text>
</a>
</g>
</g>
<!-- Node4&#45;&gt;Node6 -->
<g id="edge5" class="edge">
<title>Node4&#45;&gt;Node6</title>
<path fill="none" stroke="midnightblue" d="M761.88,-827.58C782.52,-838.42 817.66,-856.23 849,-869 854.19,-871.12 859.72,-873.18 865.21,-875.12"/>
<polygon fill="midnightblue" stroke="midnightblue" points="864.37,-878.54 874.97,-878.47 866.64,-871.92 864.37,-878.54"/>
</g>
<!-- Node7 -->
<g id="node7" class="node">
<title>Node7</title>
<g id="a_node7"><a target="_blank" xlink:href="http://en.cppreference.com/w/cpp/iterator/end.html#" xlink:title=" ">
<polygon fill="white" stroke="black" points="881,-840.5 881,-859.5 933,-859.5 933,-840.5 881,-840.5"/>
<text text-anchor="middle" x="907" y="-847.5" font-family="Helvetica,sans-Serif" font-size="10.00">std::end</text>
</a>
</g>
</g>
<!-- Node4&#45;&gt;Node7 -->
<g id="edge6" class="edge">
<title>Node4&#45;&gt;Node7</title>
<path fill="none" stroke="midnightblue" d="M792.17,-827.51C817.4,-832.5 847.75,-838.49 870.77,-843.04"/>
<polygon fill="midnightblue" stroke="midnightblue" points="870.29,-846.51 880.78,-845.02 871.65,-839.65 870.29,-846.51"/>
</g>
<!-- Node4&#45;&gt;Node8 -->
<g id="edge7" class="edge">
<title>Node4&#45;&gt;Node8</title>
<path fill="none" stroke="midnightblue" d="M796.41,-808.38C802.45,-805.72 808.17,-802.33 813,-798 844.17,-770.08 829.64,-748.1 849,-711 862.45,-685.23 881.07,-657.28 893.32,-639.71"/>
<polygon fill="midnightblue" stroke="midnightblue" points="896.19,-641.73 899.09,-631.54 890.46,-637.69 896.19,-641.73"/>
</g>
<!-- Node9 -->
<g id="node9" class="node">
<title>Node9</title>
<g id="a_node9"><a target="_blank" xlink:href="http://en.cppreference.com/w/cpp/utility/program/exit.html#" xlink:title=" ">
<polygon fill="white" stroke="black" points="881,-464.5 881,-483.5 933,-483.5 933,-464.5 881,-464.5"/>
<text text-anchor="middle" x="907" y="-471.5" font-family="Helvetica,sans-Serif" font-size="10.00">std::exit</text>
</a>
</g>
</g>
<!-- Node4&#45;&gt;Node9 -->
<g id="edge8" class="edge">
<title>Node4&#45;&gt;Node9</title>
<path fill="none" stroke="midnightblue" d="M799.92,-808.33C804.85,-805.65 809.35,-802.27 813,-798 895.42,-701.65 784.15,-623.95 849,-515 855.41,-504.22 865.88,-495.49 876.1,-488.89"/>
<polygon fill="midnightblue" stroke="midnightblue" points="878.11,-491.77 884.91,-483.65 874.53,-485.76 878.11,-491.77"/>
</g>
<!-- Node10 -->
<g id="node10" class="node">
<title>Node10</title>
<g id="a_node10"><a xlink:href="../../d8/d77/namespacemachine__learning.html#aa4bbf61e65f8cd297255fa94b983d078" target="_top" xlink:title=" ">
<polygon fill="white" stroke="black" points="851,-563 851,-593 963,-593 963,-563 851,-563"/>
<text text-anchor="start" x="859" y="-581" font-family="Helvetica,sans-Serif" font-size="10.00">machine_learning::get</text>
<text text-anchor="middle" x="907" y="-570" font-family="Helvetica,sans-Serif" font-size="10.00">_shape</text>
</a>
</g>
</g>
<!-- Node4&#45;&gt;Node10 -->
<g id="edge9" class="edge">
<title>Node4&#45;&gt;Node10</title>
<path fill="none" stroke="midnightblue" d="M799.01,-808.47C804.25,-805.77 809.07,-802.35 813,-798 872.14,-732.66 794.27,-672.08 849,-603 849.96,-601.78 851,-600.62 852.1,-599.52"/>
<polygon fill="midnightblue" stroke="midnightblue" points="854.55,-602.03 860.09,-593 850.13,-596.61 854.55,-602.03"/>
</g>
<!-- Node11 -->
<g id="node11" class="node">
<title>Node11</title>
<g id="a_node11"><a target="_blank" xlink:href="http://en.cppreference.com/w/cpp/algorithm/max_element.html#" xlink:title=" ">
<polygon fill="white" stroke="black" points="859.5,-802.5 859.5,-821.5 954.5,-821.5 954.5,-802.5 859.5,-802.5"/>
<text text-anchor="middle" x="907" y="-809.5" font-family="Helvetica,sans-Serif" font-size="10.00">std::max_element</text>
</a>
</g>
</g>
<!-- Node4&#45;&gt;Node11 -->
<g id="edge10" class="edge">
<title>Node4&#45;&gt;Node11</title>
<path fill="none" stroke="midnightblue" d="M808.96,-815.59C822.29,-815.1 836.23,-814.58 849.25,-814.1"/>
<polygon fill="midnightblue" stroke="midnightblue" points="849.61,-817.59 859.47,-813.72 849.35,-810.6 849.61,-817.59"/>
</g>
<!-- Node13 -->
<g id="node13" class="node">
<title>Node13</title>
<g id="a_node13"><a xlink:href="../../d4/df4/classmachine__learning_1_1neural__network_1_1_neural_network.html#a361a45f3c3d8347d79103bf182d0570b" target="_top" xlink:title=" ">
<polygon fill="white" stroke="black" points="492,-682.5 492,-723.5 637,-723.5 637,-682.5 492,-682.5"/>
<text text-anchor="start" x="500" y="-711.5" font-family="Helvetica,sans-Serif" font-size="10.00">machine_learning::neural</text>
<text text-anchor="start" x="500" y="-700.5" font-family="Helvetica,sans-Serif" font-size="10.00">_network::NeuralNetwork</text>
<text text-anchor="middle" x="564.5" y="-689.5" font-family="Helvetica,sans-Serif" font-size="10.00">::__detailed_single_prediction</text>
</a>
</g>
</g>
<!-- Node12&#45;&gt;Node13 -->
<g id="edge13" class="edge">
<title>Node12&#45;&gt;Node13</title>
<path fill="none" stroke="midnightblue" d="M456,-703C464.39,-703 473.09,-703 481.73,-703"/>
<polygon fill="midnightblue" stroke="midnightblue" points="481.84,-706.5 491.84,-703 481.84,-699.5 481.84,-706.5"/>
</g>
<!-- Node13&#45;&gt;Node3 -->
<g id="edge14" class="edge">
<title>Node13&#45;&gt;Node3</title>
<path fill="none" stroke="midnightblue" d="M611.83,-723.5C630.7,-731.68 652.8,-741.02 673,-749 678.39,-751.13 684.04,-753.29 689.7,-755.4"/>
<polygon fill="midnightblue" stroke="midnightblue" points="688.57,-758.72 699.16,-758.91 691,-752.15 688.57,-758.72"/>
</g>
<!-- Node14 -->
<g id="node14" class="node">
<title>Node14</title>
<g id="a_node14"><a target="_blank" xlink:href="http://en.cppreference.com/w/cpp/container/vector/emplace_back.html#" xlink:title=" ">
<polygon fill="white" stroke="black" points="677,-682.5 677,-701.5 809,-701.5 809,-682.5 677,-682.5"/>
<text text-anchor="middle" x="743" y="-689.5" font-family="Helvetica,sans-Serif" font-size="10.00">std::vector::emplace_back</text>
</a>
</g>
</g>
<!-- Node13&#45;&gt;Node14 -->
<g id="edge15" class="edge">
<title>Node13&#45;&gt;Node14</title>
<path fill="none" stroke="midnightblue" d="M637.03,-698.54C646.82,-697.93 656.89,-697.3 666.74,-696.69"/>
<polygon fill="midnightblue" stroke="midnightblue" points="667.15,-700.17 676.91,-696.06 666.71,-693.19 667.15,-700.17"/>
</g>
<!-- Node15 -->
<g id="node15" class="node">
<title>Node15</title>
<g id="a_node15"><a xlink:href="../../d4/d18/composite__simpson__rule_8cpp.html#a995716bc040dc6cf32b5cb3df51c4529" target="_top" xlink:title="Another test function.">
<polygon fill="white" stroke="black" points="728.5,-720.5 728.5,-739.5 757.5,-739.5 757.5,-720.5 728.5,-720.5"/>
<text text-anchor="middle" x="743" y="-727.5" font-family="Helvetica,sans-Serif" font-size="10.00">l</text>
</a>
</g>
</g>
<!-- Node13&#45;&gt;Node15 -->
<g id="edge16" class="edge">
<title>Node13&#45;&gt;Node15</title>
<path fill="none" stroke="midnightblue" d="M637.03,-713.94C665.87,-718.35 697.18,-723.14 718.03,-726.33"/>
<polygon fill="midnightblue" stroke="midnightblue" points="717.76,-729.83 728.18,-727.89 718.82,-722.91 717.76,-729.83"/>
</g>
<!-- Node17 -->
<g id="node17" class="node">
<title>Node17</title>
<g id="a_node17"><a xlink:href="../../d8/d77/namespacemachine__learning.html#a5342906d42b80fc6b6b3ad17bf00fcb9" target="_top" xlink:title=" ">
<polygon fill="white" stroke="black" points="677,-568.5 677,-587.5 809,-587.5 809,-568.5 677,-568.5"/>
<text text-anchor="middle" x="743" y="-575.5" font-family="Helvetica,sans-Serif" font-size="10.00">machine_learning::multiply</text>
</a>
</g>
</g>
<!-- Node13&#45;&gt;Node17 -->
<g id="edge18" class="edge">
<title>Node13&#45;&gt;Node17</title>
<path fill="none" stroke="midnightblue" d="M594.65,-682.36C629.91,-657.39 688.47,-615.91 720.11,-593.51"/>
<polygon fill="midnightblue" stroke="midnightblue" points="722.14,-596.36 728.27,-587.72 718.09,-590.64 722.14,-596.36"/>
</g>
<!-- Node16 -->
<g id="node16" class="node">
<title>Node16</title>
<g id="a_node16"><a target="_blank" xlink:href="http://en.cppreference.com/w/cpp/numeric/math/log.html#" xlink:title=" ">
<polygon fill="white" stroke="black" points="882.5,-720.5 882.5,-739.5 931.5,-739.5 931.5,-720.5 882.5,-720.5"/>
<text text-anchor="middle" x="907" y="-727.5" font-family="Helvetica,sans-Serif" font-size="10.00">std::log</text>
</a>
</g>
</g>
<!-- Node15&#45;&gt;Node16 -->
<g id="edge17" class="edge">
<title>Node15&#45;&gt;Node16</title>
<path fill="none" stroke="midnightblue" d="M757.53,-730C782.48,-730 836.41,-730 871.94,-730"/>
<polygon fill="midnightblue" stroke="midnightblue" points="872.33,-733.5 882.33,-730 872.33,-726.5 872.33,-733.5"/>
</g>
<!-- Node17&#45;&gt;Node8 -->
<g id="edge19" class="edge">
<title>Node17&#45;&gt;Node8</title>
<path fill="none" stroke="midnightblue" d="M779.15,-587.55C806.05,-594.85 843.01,-604.89 870.1,-612.25"/>
<polygon fill="midnightblue" stroke="midnightblue" points="869.38,-615.68 879.95,-614.93 871.22,-608.93 869.38,-615.68"/>
</g>
<!-- Node17&#45;&gt;Node9 -->
<g id="edge20" class="edge">
<title>Node17&#45;&gt;Node9</title>
<path fill="none" stroke="midnightblue" d="M793.5,-568.41C800.35,-565.95 807.06,-562.86 813,-559 834.18,-545.22 830.59,-532.3 849,-515 858.99,-505.61 871.21,-496.55 881.77,-489.35"/>
<polygon fill="midnightblue" stroke="midnightblue" points="883.77,-492.22 890.16,-483.77 879.9,-486.4 883.77,-492.22"/>
</g>
<!-- Node17&#45;&gt;Node10 -->
<g id="edge21" class="edge">
<title>Node17&#45;&gt;Node10</title>
<path fill="none" stroke="midnightblue" d="M809.42,-578C819.76,-578 830.46,-578 840.79,-578"/>
<polygon fill="midnightblue" stroke="midnightblue" points="840.98,-581.5 850.98,-578 840.98,-574.5 840.98,-581.5"/>
</g>
<!-- Node18 -->
<g id="node18" class="node">
<title>Node18</title>
<g id="a_node18"><a xlink:href="../../d4/d18/composite__simpson__rule_8cpp.html#a6d50f1b8eb533b54721812d16a3699cc" target="_top" xlink:title="Another test function.">
<polygon fill="white" stroke="black" points="892.5,-524.5 892.5,-543.5 921.5,-543.5 921.5,-524.5 892.5,-524.5"/>
<text text-anchor="middle" x="907" y="-531.5" font-family="Helvetica,sans-Serif" font-size="10.00">k</text>
</a>
</g>
</g>
<!-- Node17&#45;&gt;Node18 -->
<g id="edge22" class="edge">
<title>Node17&#45;&gt;Node18</title>
<path fill="none" stroke="midnightblue" d="M779.15,-568.45C810.53,-559.93 855.61,-547.69 882.72,-540.32"/>
<polygon fill="midnightblue" stroke="midnightblue" points="883.76,-543.67 892.49,-537.67 881.93,-536.91 883.76,-543.67"/>
</g>
<!-- Node21 -->
<g id="node21" class="node">
<title>Node21</title>
<g id="a_node21"><a target="_blank" xlink:href="http://en.cppreference.com/w/cpp/container/vector/push_back.html#" xlink:title=" ">
<polygon fill="white" stroke="black" points="849,-423.5 849,-442.5 965,-442.5 965,-423.5 849,-423.5"/>
<text text-anchor="middle" x="907" y="-430.5" font-family="Helvetica,sans-Serif" font-size="10.00">std::vector::push_back</text>
</a>
</g>
</g>
<!-- Node17&#45;&gt;Node21 -->
<g id="edge25" class="edge">
<title>Node17&#45;&gt;Node21</title>
<path fill="none" stroke="midnightblue" d="M799.04,-568.35C804.14,-565.89 808.92,-562.82 813,-559 848.68,-525.55 815.03,-490.19 849,-455 851.82,-452.08 855.07,-449.54 858.56,-447.33"/>
<polygon fill="midnightblue" stroke="midnightblue" points="860.44,-450.3 867.62,-442.51 857.15,-444.12 860.44,-450.3"/>
</g>
<!-- Node19 -->
<g id="node19" class="node">
<title>Node19</title>
<g id="a_node19"><a target="_blank" xlink:href="http://en.cppreference.com/w/cpp/numeric/math/pow.html#" xlink:title=" ">
<polygon fill="white" stroke="black" points="1001,-543.5 1001,-562.5 1055,-562.5 1055,-543.5 1001,-543.5"/>
<text text-anchor="middle" x="1028" y="-550.5" font-family="Helvetica,sans-Serif" font-size="10.00">std::pow</text>
</a>
</g>
</g>
<!-- Node18&#45;&gt;Node19 -->
<g id="edge23" class="edge">
<title>Node18&#45;&gt;Node19</title>
<path fill="none" stroke="midnightblue" d="M921.65,-536.18C938.46,-538.86 967.64,-543.52 991.04,-547.26"/>
<polygon fill="midnightblue" stroke="midnightblue" points="990.56,-550.73 1000.99,-548.85 991.66,-543.81 990.56,-550.73"/>
</g>
<!-- Node20 -->
<g id="node20" class="node">
<title>Node20</title>
<g id="a_node20"><a target="_blank" xlink:href="http://en.cppreference.com/w/cpp/numeric/math/sqrt.html#" xlink:title=" ">
<polygon fill="white" stroke="black" points="1001.5,-505.5 1001.5,-524.5 1054.5,-524.5 1054.5,-505.5 1001.5,-505.5"/>
<text text-anchor="middle" x="1028" y="-512.5" font-family="Helvetica,sans-Serif" font-size="10.00">std::sqrt</text>
</a>
</g>
</g>
<!-- Node18&#45;&gt;Node20 -->
<g id="edge24" class="edge">
<title>Node18&#45;&gt;Node20</title>
<path fill="none" stroke="midnightblue" d="M921.65,-531.82C938.56,-529.12 968.01,-524.42 991.48,-520.67"/>
<polygon fill="midnightblue" stroke="midnightblue" points="992.13,-524.11 1001.45,-519.08 991.02,-517.2 992.13,-524.11"/>
</g>
<!-- Node23&#45;&gt;Node8 -->
<g id="edge31" class="edge">
<title>Node23&#45;&gt;Node8</title>
<path fill="none" stroke="midnightblue" d="M566.29,-330.88C569.56,-384.92 586.39,-529.83 673,-597 730.03,-641.23 819.89,-636.17 869.71,-628.89"/>
<polygon fill="midnightblue" stroke="midnightblue" points="870.37,-632.33 879.7,-627.32 869.28,-625.41 870.37,-632.33"/>
</g>
<!-- Node23&#45;&gt;Node9 -->
<g id="edge33" class="edge">
<title>Node23&#45;&gt;Node9</title>
<path fill="none" stroke="midnightblue" d="M577.4,-330.87C594.62,-358.99 629.27,-408.35 673,-433 706.28,-451.76 814.21,-464.9 870.74,-470.69"/>
<polygon fill="midnightblue" stroke="midnightblue" points="870.69,-474.2 880.99,-471.72 871.39,-467.24 870.69,-474.2"/>
</g>
<!-- Node23&#45;&gt;Node21 -->
<g id="edge47" class="edge">
<title>Node23&#45;&gt;Node21</title>
<path fill="none" stroke="midnightblue" d="M609.96,-330.59C629.12,-339.06 651.93,-348.6 673,-356 733.94,-377.42 751.89,-374.08 813,-395 834.02,-402.2 857.16,-411.64 875.09,-419.32"/>
<polygon fill="midnightblue" stroke="midnightblue" points="873.91,-422.62 884.47,-423.37 876.68,-416.19 873.91,-422.62"/>
</g>
<!-- Node24 -->
<g id="node24" class="node">
<title>Node24</title>
<g id="a_node24"><a target="_blank" xlink:href="http://en.cppreference.com/w/cpp/container/vector/back.html#" xlink:title=" ">
<polygon fill="white" stroke="black" points="698,-278.5 698,-297.5 788,-297.5 788,-278.5 698,-278.5"/>
<text text-anchor="middle" x="743" y="-285.5" font-family="Helvetica,sans-Serif" font-size="10.00">std::vector::back</text>
</a>
</g>
</g>
<!-- Node23&#45;&gt;Node24 -->
<g id="edge28" class="edge">
<title>Node23&#45;&gt;Node24</title>
<path fill="none" stroke="midnightblue" d="M628.72,-302.12C648,-299.72 669.02,-297.1 687.66,-294.77"/>
<polygon fill="midnightblue" stroke="midnightblue" points="688.25,-298.23 697.74,-293.52 687.38,-291.28 688.25,-298.23"/>
</g>
<!-- Node25 -->
<g id="node25" class="node">
<title>Node25</title>
<g id="a_node25"><a target="_blank" xlink:href="http://en.cppreference.com/w/cpp/string/basic_string/c_str.html#" xlink:title=" ">
<polygon fill="white" stroke="black" points="699,-240.5 699,-259.5 787,-259.5 787,-240.5 699,-240.5"/>
<text text-anchor="middle" x="743" y="-247.5" font-family="Helvetica,sans-Serif" font-size="10.00">std::string::c_str</text>
</a>
</g>
</g>
<!-- Node23&#45;&gt;Node25 -->
<g id="edge29" class="edge">
<title>Node23&#45;&gt;Node25</title>
<path fill="none" stroke="midnightblue" d="M616.27,-289.49C634.08,-282.61 654.3,-275.12 673,-269 680.14,-266.66 687.76,-264.37 695.24,-262.23"/>
<polygon fill="midnightblue" stroke="midnightblue" points="696.24,-265.58 704.92,-259.51 694.35,-258.84 696.24,-265.58"/>
</g>
<!-- Node26 -->
<g id="node26" class="node">
<title>Node26</title>
<g id="a_node26"><a target="_blank" xlink:href="http://en.cppreference.com/w/cpp/io/basic_ifstream/close.html#" xlink:title=" ">
<polygon fill="white" stroke="black" points="692.5,-202.5 692.5,-221.5 793.5,-221.5 793.5,-202.5 692.5,-202.5"/>
<text text-anchor="middle" x="743" y="-209.5" font-family="Helvetica,sans-Serif" font-size="10.00">std::ifstream::close</text>
</a>
</g>
</g>
<!-- Node23&#45;&gt;Node26 -->
<g id="edge30" class="edge">
<title>Node23&#45;&gt;Node26</title>
<path fill="none" stroke="midnightblue" d="M588.22,-289.43C608.94,-271.65 641.11,-246.45 673,-231 677.89,-228.63 683.13,-226.51 688.45,-224.64"/>
<polygon fill="midnightblue" stroke="midnightblue" points="689.63,-227.93 698.05,-221.51 687.46,-221.28 689.63,-227.93"/>
</g>
<!-- Node27 -->
<g id="node27" class="node">
<title>Node27</title>
<g id="a_node27"><a target="_blank" xlink:href="http://en.cppreference.com/w/cpp/io/basic_ios/eof.html#" xlink:title=" ">
<polygon fill="white" stroke="black" points="697.5,-164.5 697.5,-183.5 788.5,-183.5 788.5,-164.5 697.5,-164.5"/>
<text text-anchor="middle" x="743" y="-171.5" font-family="Helvetica,sans-Serif" font-size="10.00">std::ifstream::eof</text>
</a>
</g>
</g>
<!-- Node23&#45;&gt;Node27 -->
<g id="edge32" class="edge">
<title>Node23&#45;&gt;Node27</title>
<path fill="none" stroke="midnightblue" d="M578.91,-289.38C597.1,-263.08 632.04,-218.01 673,-193 677.64,-190.17 682.71,-187.75 687.92,-185.68"/>
<polygon fill="midnightblue" stroke="midnightblue" points="689.14,-188.96 697.41,-182.34 686.82,-182.36 689.14,-188.96"/>
</g>
<!-- Node28 -->
<g id="node28" class="node">
<title>Node28</title>
<g id="a_node28"><a target="_blank" xlink:href="http://en.cppreference.com/w/cpp/string/basic_string/getline.html#" xlink:title=" ">
<polygon fill="white" stroke="black" points="710.5,-126.5 710.5,-145.5 775.5,-145.5 775.5,-126.5 710.5,-126.5"/>
<text text-anchor="middle" x="743" y="-133.5" font-family="Helvetica,sans-Serif" font-size="10.00">std::getline</text>
</a>
</g>
</g>
<!-- Node23&#45;&gt;Node28 -->
<g id="edge34" class="edge">
<title>Node23&#45;&gt;Node28</title>
<path fill="none" stroke="midnightblue" d="M574.07,-289.47C589.07,-256.08 623.3,-190.22 673,-155 681.13,-149.24 690.93,-145.23 700.56,-142.43"/>
<polygon fill="midnightblue" stroke="midnightblue" points="701.62,-145.77 710.46,-139.93 699.9,-138.98 701.62,-145.77"/>
</g>
<!-- Node29 -->
<g id="node29" class="node">
<title>Node29</title>
<g id="a_node29"><a xlink:href="../../d8/d77/namespacemachine__learning.html#a496302e3371aa7b478cb7d5917904bdd" target="_top" xlink:title=" ">
<polygon fill="white" stroke="black" points="682,-77 682,-107 804,-107 804,-77 682,-77"/>
<text text-anchor="start" x="690" y="-95" font-family="Helvetica,sans-Serif" font-size="10.00">machine_learning::insert</text>
<text text-anchor="middle" x="743" y="-84" font-family="Helvetica,sans-Serif" font-size="10.00">_element</text>
</a>
</g>
</g>
<!-- Node23&#45;&gt;Node29 -->
<g id="edge35" class="edge">
<title>Node23&#45;&gt;Node29</title>
<path fill="none" stroke="midnightblue" d="M571.58,-289.4C584.15,-250.31 616.63,-164.98 673,-117 675,-115.3 677.12,-113.72 679.33,-112.23"/>
<polygon fill="midnightblue" stroke="midnightblue" points="681.38,-115.09 688.24,-107.02 677.84,-109.05 681.38,-115.09"/>
</g>
<!-- Node30 -->
<g id="node30" class="node">
<title>Node30</title>
<g id="a_node30"><a target="_blank" xlink:href="http://en.cppreference.com/w/cpp/io/basic_ifstream/is_open.html#" xlink:title=" ">
<polygon fill="white" stroke="black" points="687.5,-38.5 687.5,-57.5 798.5,-57.5 798.5,-38.5 687.5,-38.5"/>
<text text-anchor="middle" x="743" y="-45.5" font-family="Helvetica,sans-Serif" font-size="10.00">std::ifstream::is_open</text>
</a>
</g>
</g>
<!-- Node23&#45;&gt;Node30 -->
<g id="edge36" class="edge">
<title>Node23&#45;&gt;Node30</title>
<path fill="none" stroke="midnightblue" d="M568.59,-289.2C576.68,-242.24 602.95,-127.4 673,-67 674.98,-65.3 677.09,-63.74 679.31,-62.33"/>
<polygon fill="midnightblue" stroke="midnightblue" points="681.13,-65.33 688.31,-57.53 677.84,-59.15 681.13,-65.33"/>
</g>
<!-- Node31 -->
<g id="node31" class="node">
<title>Node31</title>
<g id="a_node31"><a xlink:href="../../d8/d77/namespacemachine__learning.html#ac332d152078e96311e43ac5e7183ea26" target="_top" xlink:title=" ">
<polygon fill="white" stroke="black" points="676.5,-317 676.5,-347 809.5,-347 809.5,-317 676.5,-317"/>
<text text-anchor="start" x="684.5" y="-335" font-family="Helvetica,sans-Serif" font-size="10.00">machine_learning::minmax</text>
<text text-anchor="middle" x="743" y="-324" font-family="Helvetica,sans-Serif" font-size="10.00">_scaler</text>
</a>
</g>
</g>
<!-- Node23&#45;&gt;Node31 -->
<g id="edge37" class="edge">
<title>Node23&#45;&gt;Node31</title>
<path fill="none" stroke="midnightblue" d="M628.72,-317.88C640.9,-319.4 653.77,-321 666.29,-322.56"/>
<polygon fill="midnightblue" stroke="midnightblue" points="665.89,-326.04 676.24,-323.8 666.75,-319.09 665.89,-326.04"/>
</g>
<!-- Node35 -->
<g id="node35" class="node">
<title>Node35</title>
<g id="a_node35"><a target="_blank" xlink:href="http://en.cppreference.com/w/cpp/io/basic_ifstream/open.html#" xlink:title=" ">
<polygon fill="white" stroke="black" points="694,-0.5 694,-19.5 792,-19.5 792,-0.5 694,-0.5"/>
<text text-anchor="middle" x="743" y="-7.5" font-family="Helvetica,sans-Serif" font-size="10.00">std::ifstream::open</text>
</a>
</g>
</g>
<!-- Node23&#45;&gt;Node35 -->
<g id="edge44" class="edge">
<title>Node23&#45;&gt;Node35</title>
<path fill="none" stroke="midnightblue" d="M567.2,-289.18C572.58,-237.2 593.91,-100.79 673,-29 676.4,-25.91 680.27,-23.32 684.38,-21.14"/>
<polygon fill="midnightblue" stroke="midnightblue" points="685.99,-24.26 693.72,-17.01 683.16,-17.86 685.99,-24.26"/>
</g>
<!-- Node36 -->
<g id="node36" class="node">
<title>Node36</title>
<g id="a_node36"><a xlink:href="../../d8/d77/namespacemachine__learning.html#ae10178b082f0205c326550877d998e5d" target="_top" xlink:title=" ">
<polygon fill="white" stroke="black" points="673,-530.5 673,-549.5 813,-549.5 813,-530.5 673,-530.5"/>
<text text-anchor="middle" x="743" y="-537.5" font-family="Helvetica,sans-Serif" font-size="10.00">machine_learning::pop_back</text>
</a>
</g>
</g>
<!-- Node23&#45;&gt;Node36 -->
<g id="edge45" class="edge">
<title>Node23&#45;&gt;Node36</title>
<path fill="none" stroke="midnightblue" d="M570.24,-330.78C580.96,-372.95 611.08,-468.91 673,-520 675.73,-522.25 678.7,-524.25 681.82,-526.02"/>
<polygon fill="midnightblue" stroke="midnightblue" points="680.45,-529.24 690.97,-530.45 683.49,-522.94 680.45,-529.24"/>
</g>
<!-- Node37 -->
<g id="node37" class="node">
<title>Node37</title>
<g id="a_node37"><a xlink:href="../../d8/d77/namespacemachine__learning.html#a912cf68863063a38d6e63545be5eb093" target="_top" xlink:title=" ">
<polygon fill="white" stroke="black" points="686,-481 686,-511 800,-511 800,-481 686,-481"/>
<text text-anchor="start" x="694" y="-499" font-family="Helvetica,sans-Serif" font-size="10.00">machine_learning::pop</text>
<text text-anchor="middle" x="743" y="-488" font-family="Helvetica,sans-Serif" font-size="10.00">_front</text>
</a>
</g>
</g>
<!-- Node23&#45;&gt;Node37 -->
<g id="edge46" class="edge">
<title>Node23&#45;&gt;Node37</title>
<path fill="none" stroke="midnightblue" d="M575.01,-330.68C590.99,-363.43 626.15,-427.43 673,-466 677.59,-469.78 682.72,-473.16 688.07,-476.17"/>
<polygon fill="midnightblue" stroke="midnightblue" points="686.7,-479.4 697.2,-480.88 689.92,-473.18 686.7,-479.4"/>
</g>
<!-- Node38 -->
<g id="node38" class="node">
<title>Node38</title>
<g id="a_node38"><a target="_blank" xlink:href="http://en.cppreference.com/w/cpp/string/basic_string/stof.html#" xlink:title=" ">
<polygon fill="white" stroke="black" points="715.5,-404.5 715.5,-423.5 770.5,-423.5 770.5,-404.5 715.5,-404.5"/>
<text text-anchor="middle" x="743" y="-411.5" font-family="Helvetica,sans-Serif" font-size="10.00">std::stod</text>
</a>
</g>
</g>
<!-- Node23&#45;&gt;Node38 -->
<g id="edge48" class="edge">
<title>Node23&#45;&gt;Node38</title>
<path fill="none" stroke="midnightblue" d="M588.84,-330.68C609.71,-348.34 641.75,-373.44 673,-390 683.21,-395.41 694.89,-400.01 705.71,-403.69"/>
<polygon fill="midnightblue" stroke="midnightblue" points="704.73,-407.05 715.33,-406.81 706.89,-400.39 704.73,-407.05"/>
</g>
<!-- Node31&#45;&gt;Node8 -->
<g id="edge38" class="edge">
<title>Node31&#45;&gt;Node8</title>
<path fill="none" stroke="midnightblue" d="M767.27,-347.06C782.75,-358.35 802.16,-375.23 813,-395 857.89,-476.88 788.65,-530.74 849,-602 854.49,-608.49 862.22,-612.87 870.22,-615.83"/>
<polygon fill="midnightblue" stroke="midnightblue" points="869.39,-619.24 879.98,-618.79 871.42,-612.54 869.39,-619.24"/>
</g>
<!-- Node31&#45;&gt;Node9 -->
<g id="edge39" class="edge">
<title>Node31&#45;&gt;Node9</title>
<path fill="none" stroke="midnightblue" d="M763.15,-347.09C777.77,-359.15 797.9,-376.97 813,-395 832.24,-417.97 825.85,-432.98 849,-452 855.53,-457.36 863.51,-461.52 871.4,-464.7"/>
<polygon fill="midnightblue" stroke="midnightblue" points="870.3,-468.02 880.9,-468.11 872.67,-461.43 870.3,-468.02"/>
</g>
<!-- Node31&#45;&gt;Node10 -->
<g id="edge40" class="edge">
<title>Node31&#45;&gt;Node10</title>
<path fill="none" stroke="midnightblue" d="M766.95,-347.24C782.28,-358.62 801.65,-375.52 813,-395 849.25,-457.23 803.11,-497.49 849,-553 849.99,-554.2 851.05,-555.34 852.16,-556.43"/>
<polygon fill="midnightblue" stroke="midnightblue" points="850.25,-559.38 860.25,-562.87 854.61,-553.9 850.25,-559.38"/>
</g>
<!-- Node32 -->
<g id="node32" class="node">
<title>Node32</title>
<g id="a_node32"><a target="_blank" xlink:href="http://en.cppreference.com/w/cpp/algorithm/max.html#" xlink:title=" ">
<polygon fill="white" stroke="black" points="879.5,-284.5 879.5,-303.5 934.5,-303.5 934.5,-284.5 879.5,-284.5"/>
<text text-anchor="middle" x="907" y="-291.5" font-family="Helvetica,sans-Serif" font-size="10.00">std::max</text>
</a>
</g>
</g>
<!-- Node31&#45;&gt;Node32 -->
<g id="edge41" class="edge">
<title>Node31&#45;&gt;Node32</title>
<path fill="none" stroke="midnightblue" d="M808.03,-316.98C828.82,-312.1 851.18,-306.86 869.29,-302.61"/>
<polygon fill="midnightblue" stroke="midnightblue" points="870.2,-305.99 879.14,-300.3 868.6,-299.18 870.2,-305.99"/>
</g>
<!-- Node33 -->
<g id="node33" class="node">
<title>Node33</title>
<g id="a_node33"><a target="_blank" xlink:href="http://en.cppreference.com/w/cpp/algorithm/min.html#" xlink:title=" ">
<polygon fill="white" stroke="black" points="881,-360.5 881,-379.5 933,-379.5 933,-360.5 881,-360.5"/>
<text text-anchor="middle" x="907" y="-367.5" font-family="Helvetica,sans-Serif" font-size="10.00">std::min</text>
</a>
</g>
</g>
<!-- Node31&#45;&gt;Node33 -->
<g id="edge42" class="edge">
<title>Node31&#45;&gt;Node33</title>
<path fill="none" stroke="midnightblue" d="M808.03,-347.02C829.42,-352.04 852.46,-357.44 870.83,-361.75"/>
<polygon fill="midnightblue" stroke="midnightblue" points="870.24,-365.21 880.78,-364.08 871.84,-358.39 870.24,-365.21"/>
</g>
<!-- Node34 -->
<g id="node34" class="node">
<title>Node34</title>
<g id="a_node34"><a target="_blank" xlink:href="http://en.cppreference.com/w/cpp/container/vector/size.html#" xlink:title=" ">
<polygon fill="white" stroke="black" points="863.5,-322.5 863.5,-341.5 950.5,-341.5 950.5,-322.5 863.5,-322.5"/>
<text text-anchor="middle" x="907" y="-329.5" font-family="Helvetica,sans-Serif" font-size="10.00">std::vector::size</text>
</a>
</g>
</g>
<!-- Node31&#45;&gt;Node34 -->
<g id="edge43" class="edge">
<title>Node31&#45;&gt;Node34</title>
<path fill="none" stroke="midnightblue" d="M809.89,-332C824.27,-332 839.31,-332 853.11,-332"/>
<polygon fill="midnightblue" stroke="midnightblue" points="853.38,-335.5 863.38,-332 853.38,-328.5 853.38,-335.5"/>
</g>
</g>
</svg>
