<?xml version="1.0" encoding="UTF-8" standalone="no"?>
<!DOCTYPE svg PUBLIC "-//W3C//DTD SVG 1.1//EN"
 "http://www.w3.org/Graphics/SVG/1.1/DTD/svg11.dtd">
<!-- Generated by graphviz version 5.0.0 (20220707.1540)
 -->
<!-- Title: string_search::kmp Pages: 1 -->
<svg width="388pt" height="135pt"
 viewBox="0.00 0.00 388.00 134.50" xmlns="http://www.w3.org/2000/svg" xmlns:xlink="http://www.w3.org/1999/xlink">
<g id="graph0" class="graph" transform="scale(1 1) rotate(0) translate(4 130.5)">
<title>string_search::kmp</title>
<polygon fill="white" stroke="transparent" points="-4,4 -4,-130.5 384,-130.5 384,4 -4,4"/>
<!-- Node1 -->
<g id="node1" class="node">
<title>Node1</title>
<g id="a_node1"><a xlink:title=" ">
<polygon fill="#bfbfbf" stroke="black" points="0,-57.5 0,-76.5 100,-76.5 100,-57.5 0,-57.5"/>
<text text-anchor="middle" x="50" y="-64.5" font-family="Helvetica,sans-Serif" font-size="10.00">string_search::kmp</text>
</a>
</g>
</g>
<!-- Node2 -->
<g id="node2" class="node">
<title>Node2</title>
<g id="a_node2"><a xlink:href="../../d9/d03/namespacestring__search.html#a996573527312d5255e1495b879e8a34f" target="_top" xlink:title=" ">
<polygon fill="white" stroke="black" points="136,-96 136,-126 260,-126 260,-96 136,-96"/>
<text text-anchor="start" x="144" y="-114" font-family="Helvetica,sans-Serif" font-size="10.00">string_search::getFailure</text>
<text text-anchor="middle" x="198" y="-103" font-family="Helvetica,sans-Serif" font-size="10.00">Array</text>
</a>
</g>
</g>
<!-- Node1&#45;&gt;Node2 -->
<g id="edge1" class="edge">
<title>Node1&#45;&gt;Node2</title>
<path fill="none" stroke="midnightblue" d="M82.68,-76.55C98.68,-81.37 118.62,-87.38 137.35,-93.02"/>
<polygon fill="midnightblue" stroke="midnightblue" points="136.43,-96.4 147.01,-95.93 138.45,-89.7 136.43,-96.4"/>
</g>
<!-- Node3 -->
<g id="node3" class="node">
<title>Node3</title>
<g id="a_node3"><a target="_blank" xlink:href="http://en.cppreference.com/w/cpp/string/basic_string/size.html#" xlink:title=" ">
<polygon fill="white" stroke="black" points="296,-88.5 296,-107.5 380,-107.5 380,-88.5 296,-88.5"/>
<text text-anchor="middle" x="338" y="-95.5" font-family="Helvetica,sans-Serif" font-size="10.00">std::string::size</text>
</a>
</g>
</g>
<!-- Node1&#45;&gt;Node3 -->
<g id="edge6" class="edge">
<title>Node1&#45;&gt;Node3</title>
<path fill="none" stroke="midnightblue" d="M100.05,-71.05C142.45,-74.7 205.35,-80.48 260,-87 268.38,-88 277.27,-89.17 285.9,-90.36"/>
<polygon fill="midnightblue" stroke="midnightblue" points="285.5,-93.84 295.89,-91.77 286.47,-86.91 285.5,-93.84"/>
</g>
<!-- Node4 -->
<g id="node4" class="node">
<title>Node4</title>
<g id="a_node4"><a xlink:href="../../d4/d18/composite__simpson__rule_8cpp.html#a6d50f1b8eb533b54721812d16a3699cc" target="_top" xlink:title="Another test function.">
<polygon fill="white" stroke="black" points="183.5,-19.5 183.5,-38.5 212.5,-38.5 212.5,-19.5 183.5,-19.5"/>
<text text-anchor="middle" x="198" y="-26.5" font-family="Helvetica,sans-Serif" font-size="10.00">k</text>
</a>
</g>
</g>
<!-- Node1&#45;&gt;Node4 -->
<g id="edge3" class="edge">
<title>Node1&#45;&gt;Node4</title>
<path fill="none" stroke="midnightblue" d="M87.84,-57.41C114.68,-50.43 150.24,-41.17 173.36,-35.15"/>
<polygon fill="midnightblue" stroke="midnightblue" points="174.53,-38.46 183.33,-32.56 172.77,-31.69 174.53,-38.46"/>
</g>
<!-- Node2&#45;&gt;Node3 -->
<g id="edge2" class="edge">
<title>Node2&#45;&gt;Node3</title>
<path fill="none" stroke="midnightblue" d="M260.33,-105.22C268.73,-104.43 277.29,-103.62 285.49,-102.85"/>
<polygon fill="midnightblue" stroke="midnightblue" points="286.03,-106.32 295.66,-101.89 285.37,-99.35 286.03,-106.32"/>
</g>
<!-- Node5 -->
<g id="node5" class="node">
<title>Node5</title>
<g id="a_node5"><a target="_blank" xlink:href="http://en.cppreference.com/w/cpp/numeric/math/pow.html#" xlink:title=" ">
<polygon fill="white" stroke="black" points="311,-38.5 311,-57.5 365,-57.5 365,-38.5 311,-38.5"/>
<text text-anchor="middle" x="338" y="-45.5" font-family="Helvetica,sans-Serif" font-size="10.00">std::pow</text>
</a>
</g>
</g>
<!-- Node4&#45;&gt;Node5 -->
<g id="edge4" class="edge">
<title>Node4&#45;&gt;Node5</title>
<path fill="none" stroke="midnightblue" d="M212.74,-30.89C233.08,-33.69 271.91,-39.04 300.77,-43.01"/>
<polygon fill="midnightblue" stroke="midnightblue" points="300.52,-46.51 310.9,-44.41 301.47,-39.58 300.52,-46.51"/>
</g>
<!-- Node6 -->
<g id="node6" class="node">
<title>Node6</title>
<g id="a_node6"><a target="_blank" xlink:href="http://en.cppreference.com/w/cpp/numeric/math/sqrt.html#" xlink:title=" ">
<polygon fill="white" stroke="black" points="311.5,-0.5 311.5,-19.5 364.5,-19.5 364.5,-0.5 311.5,-0.5"/>
<text text-anchor="middle" x="338" y="-7.5" font-family="Helvetica,sans-Serif" font-size="10.00">std::sqrt</text>
</a>
</g>
</g>
<!-- Node4&#45;&gt;Node6 -->
<g id="edge5" class="edge">
<title>Node4&#45;&gt;Node6</title>
<path fill="none" stroke="midnightblue" d="M212.74,-27.11C233.2,-24.29 272.37,-18.9 301.29,-14.92"/>
<polygon fill="midnightblue" stroke="midnightblue" points="302,-18.35 311.42,-13.52 301.04,-11.42 302,-18.35"/>
</g>
</g>
</svg>
