<?xml version="1.0" encoding="UTF-8" standalone="no"?>
<!DOCTYPE svg PUBLIC "-//W3C//DTD SVG 1.1//EN"
 "http://www.w3.org/Graphics/SVG/1.1/DTD/svg11.dtd">
<!-- Generated by graphviz version 5.0.0 (20220707.1540)
 -->
<!-- Title: main Pages: 1 -->
<svg width="459pt" height="286pt"
 viewBox="0.00 0.00 459.00 286.00" xmlns="http://www.w3.org/2000/svg" xmlns:xlink="http://www.w3.org/1999/xlink">
<g id="graph0" class="graph" transform="scale(1 1) rotate(0) translate(4 282)">
<title>main</title>
<polygon fill="white" stroke="transparent" points="-4,4 -4,-282 455,-282 455,4 -4,4"/>
<!-- Node1 -->
<g id="node1" class="node">
<title>Node1</title>
<g id="a_node1"><a xlink:title=" ">
<polygon fill="#bfbfbf" stroke="black" points="0,-95.5 0,-114.5 38,-114.5 38,-95.5 0,-95.5"/>
<text text-anchor="middle" x="19" y="-102.5" font-family="Helvetica,sans-Serif" font-size="10.00">main</text>
</a>
</g>
</g>
<!-- Node2 -->
<g id="node2" class="node">
<title>Node2</title>
<g id="a_node2"><a xlink:href="../../d4/d90/classdata__structures_1_1_skip_list.html#a812611f80b8079268dbb19cc4e9bee5c" target="_top" xlink:title=" ">
<polygon fill="white" stroke="black" points="74,-240 74,-270 199,-270 199,-240 74,-240"/>
<text text-anchor="start" x="82" y="-258" font-family="Helvetica,sans-Serif" font-size="10.00">data_structures::SkipList</text>
<text text-anchor="middle" x="136.5" y="-247" font-family="Helvetica,sans-Serif" font-size="10.00">::displayList</text>
</a>
</g>
</g>
<!-- Node1&#45;&gt;Node2 -->
<g id="edge1" class="edge">
<title>Node1&#45;&gt;Node2</title>
<path fill="none" stroke="midnightblue" d="M22.51,-114.55C28.41,-135.46 44.9,-185.97 74,-218 79.72,-224.3 86.77,-229.87 94.02,-234.65"/>
<polygon fill="midnightblue" stroke="midnightblue" points="92.21,-237.65 102.57,-239.9 95.88,-231.68 92.21,-237.65"/>
</g>
<!-- Node4 -->
<g id="node4" class="node">
<title>Node4</title>
<g id="a_node4"><a xlink:href="../../d4/d90/classdata__structures_1_1_skip_list.html#a40a4042bdf0b6683b5f21ae7854de8a9" target="_top" xlink:title=" ">
<polygon fill="white" stroke="black" points="74,-178 74,-208 199,-208 199,-178 74,-178"/>
<text text-anchor="start" x="82" y="-196" font-family="Helvetica,sans-Serif" font-size="10.00">data_structures::SkipList</text>
<text text-anchor="middle" x="136.5" y="-185" font-family="Helvetica,sans-Serif" font-size="10.00">::insertElement</text>
</a>
</g>
</g>
<!-- Node1&#45;&gt;Node4 -->
<g id="edge3" class="edge">
<title>Node1&#45;&gt;Node4</title>
<path fill="none" stroke="midnightblue" d="M32.8,-114.75C50.77,-128.44 83.93,-153.71 107.72,-171.83"/>
<polygon fill="midnightblue" stroke="midnightblue" points="105.62,-174.63 115.7,-177.91 109.86,-169.07 105.62,-174.63"/>
</g>
<!-- Node6 -->
<g id="node6" class="node">
<title>Node6</title>
<g id="a_node6"><a target="_blank" xlink:href="http://en.cppreference.com/w/cpp/numeric/random/rand.html#" xlink:title=" ">
<polygon fill="white" stroke="black" points="396,-164.5 396,-183.5 451,-183.5 451,-164.5 396,-164.5"/>
<text text-anchor="middle" x="423.5" y="-171.5" font-family="Helvetica,sans-Serif" font-size="10.00">std::rand</text>
</a>
</g>
</g>
<!-- Node1&#45;&gt;Node6 -->
<g id="edge12" class="edge">
<title>Node1&#45;&gt;Node6</title>
<path fill="none" stroke="midnightblue" d="M38.13,-104.83C89.65,-104.82 240.9,-107.99 360,-143 373.16,-146.87 386.92,-153.38 398.16,-159.45"/>
<polygon fill="midnightblue" stroke="midnightblue" points="396.51,-162.53 406.94,-164.36 399.93,-156.42 396.51,-162.53"/>
</g>
<!-- Node8 -->
<g id="node8" class="node">
<title>Node8</title>
<g id="a_node8"><a xlink:href="../../d4/d18/composite__simpson__rule_8cpp.html#a6d50f1b8eb533b54721812d16a3699cc" target="_top" xlink:title="Another test function.">
<polygon fill="white" stroke="black" points="122,-76.5 122,-95.5 151,-95.5 151,-76.5 122,-76.5"/>
<text text-anchor="middle" x="136.5" y="-83.5" font-family="Helvetica,sans-Serif" font-size="10.00">k</text>
</a>
</g>
</g>
<!-- Node1&#45;&gt;Node8 -->
<g id="edge9" class="edge">
<title>Node1&#45;&gt;Node8</title>
<path fill="none" stroke="midnightblue" d="M38.05,-102.03C57.91,-98.76 89.92,-93.5 111.8,-89.9"/>
<polygon fill="midnightblue" stroke="midnightblue" points="112.61,-93.31 121.91,-88.24 111.48,-86.41 112.61,-93.31"/>
</g>
<!-- Node11 -->
<g id="node11" class="node">
<title>Node11</title>
<g id="a_node11"><a target="_blank" xlink:href="http://en.cppreference.com/w/cpp/numeric/random/srand.html#" xlink:title=" ">
<polygon fill="white" stroke="black" points="106.5,-38.5 106.5,-57.5 166.5,-57.5 166.5,-38.5 106.5,-38.5"/>
<text text-anchor="middle" x="136.5" y="-45.5" font-family="Helvetica,sans-Serif" font-size="10.00">std::srand</text>
</a>
</g>
</g>
<!-- Node1&#45;&gt;Node11 -->
<g id="edge13" class="edge">
<title>Node1&#45;&gt;Node11</title>
<path fill="none" stroke="midnightblue" d="M31.34,-95.42C41.83,-86.95 58.15,-74.78 74,-67 81.12,-63.5 89.03,-60.48 96.73,-57.95"/>
<polygon fill="midnightblue" stroke="midnightblue" points="97.78,-61.28 106.31,-54.99 95.72,-54.6 97.78,-61.28"/>
</g>
<!-- Node12 -->
<g id="node12" class="node">
<title>Node12</title>
<g id="a_node12"><a target="_blank" xlink:href="http://en.cppreference.com/w/cpp/chrono/c/time.html#" xlink:title=" ">
<polygon fill="white" stroke="black" points="109,-0.5 109,-19.5 164,-19.5 164,-0.5 109,-0.5"/>
<text text-anchor="middle" x="136.5" y="-7.5" font-family="Helvetica,sans-Serif" font-size="10.00">std::time</text>
</a>
</g>
</g>
<!-- Node1&#45;&gt;Node12 -->
<g id="edge14" class="edge">
<title>Node1&#45;&gt;Node12</title>
<path fill="none" stroke="midnightblue" d="M24.31,-95.28C31.97,-79.12 49.48,-46.74 74,-29 81.43,-23.62 90.42,-19.74 99.21,-16.95"/>
<polygon fill="midnightblue" stroke="midnightblue" points="100.25,-20.29 108.95,-14.23 98.37,-13.55 100.25,-20.29"/>
</g>
<!-- Node3 -->
<g id="node3" class="node">
<title>Node3</title>
<g id="a_node3"><a target="_blank" xlink:href="http://en.cppreference.com/w/cpp/io/manip/endl.html#" xlink:title=" ">
<polygon fill="white" stroke="black" points="270.5,-258.5 270.5,-277.5 324.5,-277.5 324.5,-258.5 270.5,-258.5"/>
<text text-anchor="middle" x="297.5" y="-265.5" font-family="Helvetica,sans-Serif" font-size="10.00">std::endl</text>
</a>
</g>
</g>
<!-- Node2&#45;&gt;Node3 -->
<g id="edge2" class="edge">
<title>Node2&#45;&gt;Node3</title>
<path fill="none" stroke="midnightblue" d="M199.43,-260.06C219.98,-261.74 242.19,-263.56 260.17,-265.03"/>
<polygon fill="midnightblue" stroke="midnightblue" points="259.97,-268.52 270.22,-265.85 260.54,-261.55 259.97,-268.52"/>
</g>
<!-- Node4&#45;&gt;Node3 -->
<g id="edge4" class="edge">
<title>Node4&#45;&gt;Node3</title>
<path fill="none" stroke="midnightblue" d="M162.31,-208.09C186.17,-222.45 220.68,-242.77 235,-249 243.1,-252.53 252.06,-255.69 260.58,-258.37"/>
<polygon fill="midnightblue" stroke="midnightblue" points="259.72,-261.77 270.3,-261.3 261.74,-255.06 259.72,-261.77"/>
</g>
<!-- Node5 -->
<g id="node5" class="node">
<title>Node5</title>
<g id="a_node5"><a xlink:href="../../d4/d90/classdata__structures_1_1_skip_list.html#aa3f3813e9896792fc86b296547689ba4" target="_top" xlink:title=" ">
<polygon fill="white" stroke="black" points="235,-209 235,-239 360,-239 360,-209 235,-209"/>
<text text-anchor="start" x="243" y="-227" font-family="Helvetica,sans-Serif" font-size="10.00">data_structures::SkipList</text>
<text text-anchor="middle" x="297.5" y="-216" font-family="Helvetica,sans-Serif" font-size="10.00">::randomLevel</text>
</a>
</g>
</g>
<!-- Node4&#45;&gt;Node5 -->
<g id="edge5" class="edge">
<title>Node4&#45;&gt;Node5</title>
<path fill="none" stroke="midnightblue" d="M199.43,-205.07C207.76,-206.7 216.37,-208.38 224.86,-210.03"/>
<polygon fill="midnightblue" stroke="midnightblue" points="224.26,-213.48 234.74,-211.96 225.59,-206.61 224.26,-213.48"/>
</g>
<!-- Node7 -->
<g id="node7" class="node">
<title>Node7</title>
<g id="a_node7"><a xlink:href="../../d2/d45/segtree_8cpp.html#abd3e818681fb2e29cf08f4f60f82c8e0" target="_top" xlink:title="Updates a range of the segment tree.">
<polygon fill="white" stroke="black" points="274.5,-152.5 274.5,-171.5 320.5,-171.5 320.5,-152.5 274.5,-152.5"/>
<text text-anchor="middle" x="297.5" y="-159.5" font-family="Helvetica,sans-Serif" font-size="10.00">update</text>
</a>
</g>
</g>
<!-- Node4&#45;&gt;Node7 -->
<g id="edge7" class="edge">
<title>Node4&#45;&gt;Node7</title>
<path fill="none" stroke="midnightblue" d="M199.43,-180.93C221.54,-176.61 245.57,-171.93 264.19,-168.3"/>
<polygon fill="midnightblue" stroke="midnightblue" points="265.05,-171.7 274.2,-166.35 263.71,-164.83 265.05,-171.7"/>
</g>
<!-- Node5&#45;&gt;Node6 -->
<g id="edge6" class="edge">
<title>Node5&#45;&gt;Node6</title>
<path fill="none" stroke="midnightblue" d="M335.7,-209C352.76,-202.12 372.81,-194.04 389.34,-187.37"/>
<polygon fill="midnightblue" stroke="midnightblue" points="390.66,-190.61 398.62,-183.63 388.04,-184.12 390.66,-190.61"/>
</g>
<!-- Node7&#45;&gt;Node7 -->
<g id="edge8" class="edge">
<title>Node7&#45;&gt;Node7</title>
<path fill="none" stroke="midnightblue" d="M278.08,-171.76C268.63,-180.57 275.11,-190 297.5,-190 311.85,-190 319.66,-186.13 320.94,-181.03"/>
<polygon fill="midnightblue" stroke="midnightblue" points="324.11,-179.54 316.92,-171.76 317.68,-182.32 324.11,-179.54"/>
</g>
<!-- Node9 -->
<g id="node9" class="node">
<title>Node9</title>
<g id="a_node9"><a target="_blank" xlink:href="http://en.cppreference.com/w/cpp/numeric/math/pow.html#" xlink:title=" ">
<polygon fill="white" stroke="black" points="270.5,-76.5 270.5,-95.5 324.5,-95.5 324.5,-76.5 270.5,-76.5"/>
<text text-anchor="middle" x="297.5" y="-83.5" font-family="Helvetica,sans-Serif" font-size="10.00">std::pow</text>
</a>
</g>
</g>
<!-- Node8&#45;&gt;Node9 -->
<g id="edge10" class="edge">
<title>Node8&#45;&gt;Node9</title>
<path fill="none" stroke="midnightblue" d="M151.06,-86C174.94,-86 225.29,-86 260,-86"/>
<polygon fill="midnightblue" stroke="midnightblue" points="260.22,-89.5 270.22,-86 260.22,-82.5 260.22,-89.5"/>
</g>
<!-- Node10 -->
<g id="node10" class="node">
<title>Node10</title>
<g id="a_node10"><a target="_blank" xlink:href="http://en.cppreference.com/w/cpp/numeric/math/sqrt.html#" xlink:title=" ">
<polygon fill="white" stroke="black" points="271,-38.5 271,-57.5 324,-57.5 324,-38.5 271,-38.5"/>
<text text-anchor="middle" x="297.5" y="-45.5" font-family="Helvetica,sans-Serif" font-size="10.00">std::sqrt</text>
</a>
</g>
</g>
<!-- Node8&#45;&gt;Node10 -->
<g id="edge11" class="edge">
<title>Node8&#45;&gt;Node10</title>
<path fill="none" stroke="midnightblue" d="M151.06,-82.76C175.18,-76.99 226.3,-64.78 261.04,-56.48"/>
<polygon fill="midnightblue" stroke="midnightblue" points="261.89,-59.87 270.8,-54.14 260.26,-53.06 261.89,-59.87"/>
</g>
</g>
</svg>
