<?xml version="1.0" encoding="UTF-8" standalone="no"?>
<!DOCTYPE svg PUBLIC "-//W3C//DTD SVG 1.1//EN"
 "http://www.w3.org/Graphics/SVG/1.1/DTD/svg11.dtd">
<!-- Generated by graphviz version 5.0.0 (20220707.1540)
 -->
<!-- Title: main Pages: 1 -->
<svg width="799pt" height="724pt"
 viewBox="0.00 0.00 799.00 724.00" xmlns="http://www.w3.org/2000/svg" xmlns:xlink="http://www.w3.org/1999/xlink">
<g id="graph0" class="graph" transform="scale(1 1) rotate(0) translate(4 720)">
<title>main</title>
<polygon fill="white" stroke="transparent" points="-4,4 -4,-720 795,-720 795,4 -4,4"/>
<!-- Node1 -->
<g id="node1" class="node">
<title>Node1</title>
<g id="a_node1"><a xlink:title=" ">
<polygon fill="#bfbfbf" stroke="black" points="0,-342.5 0,-361.5 38,-361.5 38,-342.5 0,-342.5"/>
<text text-anchor="middle" x="19" y="-349.5" font-family="Helvetica,sans-Serif" font-size="10.00">main</text>
</a>
</g>
</g>
<!-- Node2 -->
<g id="node2" class="node">
<title>Node2</title>
<g id="a_node2"><a target="_blank" xlink:href="http://en.cppreference.com/w/cpp/chrono/c/clock.html#" xlink:title=" ">
<polygon fill="white" stroke="black" points="83,-456.5 83,-475.5 142,-475.5 142,-456.5 83,-456.5"/>
<text text-anchor="middle" x="112.5" y="-463.5" font-family="Helvetica,sans-Serif" font-size="10.00">std::clock</text>
</a>
</g>
</g>
<!-- Node1&#45;&gt;Node2 -->
<g id="edge1" class="edge">
<title>Node1&#45;&gt;Node2</title>
<path fill="none" stroke="midnightblue" d="M23.28,-361.55C30.08,-380.14 47.36,-421.61 74,-447 75.47,-448.4 77.05,-449.72 78.72,-450.95"/>
<polygon fill="midnightblue" stroke="midnightblue" points="77.19,-454.13 87.52,-456.5 80.92,-448.2 77.19,-454.13"/>
</g>
<!-- Node3 -->
<g id="node3" class="node">
<title>Node3</title>
<g id="a_node3"><a xlink:href="../../d4/def/kohonen__som__topology_8cpp.html#a2256c10b16edba377b64a44b6c656908" target="_top" xlink:title=" ">
<polygon fill="white" stroke="black" points="74,-418.5 74,-437.5 151,-437.5 151,-418.5 74,-418.5"/>
<text text-anchor="middle" x="112.5" y="-425.5" font-family="Helvetica,sans-Serif" font-size="10.00">get_clock_diff</text>
</a>
</g>
</g>
<!-- Node1&#45;&gt;Node3 -->
<g id="edge2" class="edge">
<title>Node1&#45;&gt;Node3</title>
<path fill="none" stroke="midnightblue" d="M27.56,-361.86C37.29,-374.07 55.2,-394.99 74,-409 76.05,-410.53 78.24,-411.99 80.49,-413.38"/>
<polygon fill="midnightblue" stroke="midnightblue" points="78.9,-416.51 89.33,-418.36 82.33,-410.4 78.9,-416.51"/>
</g>
<!-- Node4 -->
<g id="node4" class="node">
<title>Node4</title>
<g id="a_node4"><a target="_blank" xlink:href="http://en.cppreference.com/w/cpp/numeric/random/srand.html#" xlink:title=" ">
<polygon fill="white" stroke="black" points="82.5,-380.5 82.5,-399.5 142.5,-399.5 142.5,-380.5 82.5,-380.5"/>
<text text-anchor="middle" x="112.5" y="-387.5" font-family="Helvetica,sans-Serif" font-size="10.00">std::srand</text>
</a>
</g>
</g>
<!-- Node1&#45;&gt;Node4 -->
<g id="edge3" class="edge">
<title>Node1&#45;&gt;Node4</title>
<path fill="none" stroke="midnightblue" d="M38.08,-359.51C49.73,-364.35 65.21,-370.78 78.96,-376.49"/>
<polygon fill="midnightblue" stroke="midnightblue" points="78,-379.88 88.58,-380.48 80.69,-373.41 78,-379.88"/>
</g>
<!-- Node5 -->
<g id="node5" class="node">
<title>Node5</title>
<g id="a_node5"><a xlink:href="../../d4/def/kohonen__som__topology_8cpp.html#a1440a7779ac56f47a3f355ce4a8c7da0" target="_top" xlink:title=" ">
<polygon fill="white" stroke="black" points="93.5,-304.5 93.5,-323.5 131.5,-323.5 131.5,-304.5 93.5,-304.5"/>
<text text-anchor="middle" x="112.5" y="-311.5" font-family="Helvetica,sans-Serif" font-size="10.00">test1</text>
</a>
</g>
</g>
<!-- Node1&#45;&gt;Node5 -->
<g id="edge4" class="edge">
<title>Node1&#45;&gt;Node5</title>
<path fill="none" stroke="midnightblue" d="M38.08,-344.49C51.24,-339.03 69.29,-331.53 84.2,-325.34"/>
<polygon fill="midnightblue" stroke="midnightblue" points="85.57,-328.56 93.46,-321.49 82.88,-322.1 85.57,-328.56"/>
</g>
<!-- Node30 -->
<g id="node30" class="node">
<title>Node30</title>
<g id="a_node30"><a xlink:href="../../d4/def/kohonen__som__topology_8cpp.html#a0283886819c7c140a023582b7269e2d0" target="_top" xlink:title=" ">
<polygon fill="white" stroke="black" points="93.5,-266.5 93.5,-285.5 131.5,-285.5 131.5,-266.5 93.5,-266.5"/>
<text text-anchor="middle" x="112.5" y="-273.5" font-family="Helvetica,sans-Serif" font-size="10.00">test2</text>
</a>
</g>
</g>
<!-- Node1&#45;&gt;Node30 -->
<g id="edge34" class="edge">
<title>Node1&#45;&gt;Node30</title>
<path fill="none" stroke="midnightblue" d="M27.56,-342.14C37.29,-329.93 55.2,-309.01 74,-295 77.2,-292.61 80.74,-290.38 84.34,-288.34"/>
<polygon fill="midnightblue" stroke="midnightblue" points="85.97,-291.44 93.21,-283.71 82.73,-285.24 85.97,-291.44"/>
</g>
<!-- Node32 -->
<g id="node32" class="node">
<title>Node32</title>
<g id="a_node32"><a xlink:href="../../d4/def/kohonen__som__topology_8cpp.html#a6d0455dd5c30adda100e95f0423c786e" target="_top" xlink:title=" ">
<polygon fill="white" stroke="black" points="93.5,-342.5 93.5,-361.5 131.5,-361.5 131.5,-342.5 93.5,-342.5"/>
<text text-anchor="middle" x="112.5" y="-349.5" font-family="Helvetica,sans-Serif" font-size="10.00">test3</text>
</a>
</g>
</g>
<!-- Node1&#45;&gt;Node32 -->
<g id="edge44" class="edge">
<title>Node1&#45;&gt;Node32</title>
<path fill="none" stroke="midnightblue" d="M38.08,-352C50.99,-352 68.6,-352 83.34,-352"/>
<polygon fill="midnightblue" stroke="midnightblue" points="83.46,-355.5 93.46,-352 83.46,-348.5 83.46,-355.5"/>
</g>
<!-- Node34 -->
<g id="node34" class="node">
<title>Node34</title>
<g id="a_node34"><a target="_blank" xlink:href="http://en.cppreference.com/w/cpp/chrono/c/time.html#" xlink:title=" ">
<polygon fill="white" stroke="black" points="85,-228.5 85,-247.5 140,-247.5 140,-228.5 85,-228.5"/>
<text text-anchor="middle" x="112.5" y="-235.5" font-family="Helvetica,sans-Serif" font-size="10.00">std::time</text>
</a>
</g>
</g>
<!-- Node1&#45;&gt;Node34 -->
<g id="edge54" class="edge">
<title>Node1&#45;&gt;Node34</title>
<path fill="none" stroke="midnightblue" d="M23.28,-342.45C30.08,-323.86 47.36,-282.39 74,-257 75.47,-255.6 77.05,-254.28 78.72,-253.05"/>
<polygon fill="midnightblue" stroke="midnightblue" points="80.92,-255.8 87.52,-247.5 77.19,-249.87 80.92,-255.8"/>
</g>
<!-- Node6 -->
<g id="node6" class="node">
<title>Node6</title>
<g id="a_node6"><a xlink:href="../../d9/d66/group__machine__learning.html#gaf5ce14f026d6d231bef29161bac2b485" target="_top" xlink:title=" ">
<polygon fill="white" stroke="black" points="419,-76.5 419,-95.5 473,-95.5 473,-76.5 419,-76.5"/>
<text text-anchor="middle" x="446" y="-83.5" font-family="Helvetica,sans-Serif" font-size="10.00">_random</text>
</a>
</g>
</g>
<!-- Node5&#45;&gt;Node6 -->
<g id="edge5" class="edge">
<title>Node5&#45;&gt;Node6</title>
<path fill="none" stroke="midnightblue" d="M131.69,-308.48C138.66,-305.52 146.1,-301.17 151,-295 192.82,-242.32 139.35,-195.48 187,-148 202.76,-132.3 341.63,-104.99 408.85,-92.53"/>
<polygon fill="midnightblue" stroke="midnightblue" points="409.79,-95.92 418.99,-90.67 408.52,-89.04 409.79,-95.92"/>
</g>
<!-- Node8 -->
<g id="node8" class="node">
<title>Node8</title>
<g id="a_node8"><a xlink:href="../../d4/d18/composite__simpson__rule_8cpp.html#a6d50f1b8eb533b54721812d16a3699cc" target="_top" xlink:title="Another test function.">
<polygon fill="white" stroke="black" points="252,-392.5 252,-411.5 281,-411.5 281,-392.5 252,-392.5"/>
<text text-anchor="middle" x="266.5" y="-399.5" font-family="Helvetica,sans-Serif" font-size="10.00">k</text>
</a>
</g>
</g>
<!-- Node5&#45;&gt;Node8 -->
<g id="edge7" class="edge">
<title>Node5&#45;&gt;Node8</title>
<path fill="none" stroke="midnightblue" d="M131.61,-321.26C138.1,-324.33 145.22,-328.3 151,-333 170.88,-349.15 165.81,-363.61 187,-378 203.54,-389.23 225.52,-395.36 242.02,-398.6"/>
<polygon fill="midnightblue" stroke="midnightblue" points="241.5,-402.07 251.95,-400.35 242.71,-395.17 241.5,-402.07"/>
</g>
<!-- Node11 -->
<g id="node11" class="node">
<title>Node11</title>
<g id="a_node11"><a xlink:href="../../d8/d77/namespacemachine__learning.html#ac43d294e21a0c4fa33c53757df054576" target="_top" xlink:title=" ">
<polygon fill="white" stroke="black" points="187,-430.5 187,-449.5 346,-449.5 346,-430.5 187,-430.5"/>
<text text-anchor="middle" x="266.5" y="-437.5" font-family="Helvetica,sans-Serif" font-size="10.00">machine_learning::kohonen_som</text>
</a>
</g>
</g>
<!-- Node5&#45;&gt;Node11 -->
<g id="edge10" class="edge">
<title>Node5&#45;&gt;Node11</title>
<path fill="none" stroke="midnightblue" d="M131.63,-320.07C138.42,-323.08 145.75,-327.31 151,-333 179.65,-364.06 154.95,-393.46 187,-421 188.95,-422.68 191.03,-424.22 193.21,-425.62"/>
<polygon fill="midnightblue" stroke="midnightblue" points="191.55,-428.71 202.01,-430.41 194.9,-422.56 191.55,-428.71"/>
</g>
<!-- Node19 -->
<g id="node19" class="node">
<title>Node19</title>
<g id="a_node19"><a target="_blank" xlink:href="http://en.cppreference.com/w/cpp/algorithm/max.html#" xlink:title=" ">
<polygon fill="white" stroke="black" points="577,-409.5 577,-428.5 632,-428.5 632,-409.5 577,-409.5"/>
<text text-anchor="middle" x="604.5" y="-416.5" font-family="Helvetica,sans-Serif" font-size="10.00">std::max</text>
</a>
</g>
</g>
<!-- Node5&#45;&gt;Node19 -->
<g id="edge22" class="edge">
<title>Node5&#45;&gt;Node19</title>
<path fill="none" stroke="midnightblue" d="M131.51,-322.93C146.14,-329.86 167.48,-339.23 187,-345 323.94,-385.49 493.13,-407.16 566.58,-415.24"/>
<polygon fill="midnightblue" stroke="midnightblue" points="566.39,-418.74 576.71,-416.34 567.14,-411.78 566.39,-418.74"/>
</g>
<!-- Node22 -->
<g id="node22" class="node">
<title>Node22</title>
<g id="a_node22"><a xlink:href="../../d9/d66/group__machine__learning.html#gabc90175770bf0d5853c466e14993a08c" target="_top" xlink:title=" ">
<polygon fill="white" stroke="black" points="228,-266.5 228,-285.5 305,-285.5 305,-266.5 228,-266.5"/>
<text text-anchor="middle" x="266.5" y="-273.5" font-family="Helvetica,sans-Serif" font-size="10.00">save_2d_data</text>
</a>
</g>
</g>
<!-- Node5&#45;&gt;Node22 -->
<g id="edge23" class="edge">
<title>Node5&#45;&gt;Node22</title>
<path fill="none" stroke="midnightblue" d="M131.53,-309.49C152.64,-304.22 188.42,-295.27 217.7,-287.95"/>
<polygon fill="midnightblue" stroke="midnightblue" points="218.9,-291.26 227.75,-285.44 217.2,-284.47 218.9,-291.26"/>
</g>
<!-- Node27 -->
<g id="node27" class="node">
<title>Node27</title>
<g id="a_node27"><a xlink:href="../../d8/d77/namespacemachine__learning.html#aa72a53c88203fde278f1fe6c3afe5b07" target="_top" xlink:title=" ">
<polygon fill="white" stroke="black" points="207,-305 207,-335 326,-335 326,-305 207,-305"/>
<text text-anchor="start" x="215" y="-323" font-family="Helvetica,sans-Serif" font-size="10.00">machine_learning::save</text>
<text text-anchor="middle" x="266.5" y="-312" font-family="Helvetica,sans-Serif" font-size="10.00">_u_matrix</text>
</a>
</g>
</g>
<!-- Node5&#45;&gt;Node27 -->
<g id="edge28" class="edge">
<title>Node5&#45;&gt;Node27</title>
<path fill="none" stroke="midnightblue" d="M131.53,-314.71C147.77,-315.35 172.7,-316.34 196.68,-317.28"/>
<polygon fill="midnightblue" stroke="midnightblue" points="196.73,-320.79 206.86,-317.69 197.01,-313.79 196.73,-320.79"/>
</g>
<!-- Node29 -->
<g id="node29" class="node">
<title>Node29</title>
<g id="a_node29"><a xlink:href="../../d4/def/kohonen__som__topology_8cpp.html#a48efb079040c7aaa3a4917a0e486cba9" target="_top" xlink:title=" ">
<polygon fill="white" stroke="black" points="222.5,-38.5 222.5,-57.5 310.5,-57.5 310.5,-38.5 222.5,-38.5"/>
<text text-anchor="middle" x="266.5" y="-45.5" font-family="Helvetica,sans-Serif" font-size="10.00">test_2d_classes</text>
</a>
</g>
</g>
<!-- Node5&#45;&gt;Node29 -->
<g id="edge31" class="edge">
<title>Node5&#45;&gt;Node29</title>
<path fill="none" stroke="midnightblue" d="M131.84,-308.6C138.83,-305.65 146.25,-301.29 151,-295 201.49,-228.17 143.41,-181.53 187,-110 199.31,-89.79 220.75,-73.53 238.12,-62.74"/>
<polygon fill="midnightblue" stroke="midnightblue" points="239.95,-65.73 246.76,-57.61 236.38,-59.71 239.95,-65.73"/>
</g>
<!-- Node7 -->
<g id="node7" class="node">
<title>Node7</title>
<g id="a_node7"><a target="_blank" xlink:href="http://en.cppreference.com/w/cpp/numeric/random/rand.html#" xlink:title=" ">
<polygon fill="white" stroke="black" points="577,-57.5 577,-76.5 632,-76.5 632,-57.5 577,-57.5"/>
<text text-anchor="middle" x="604.5" y="-64.5" font-family="Helvetica,sans-Serif" font-size="10.00">std::rand</text>
</a>
</g>
</g>
<!-- Node6&#45;&gt;Node7 -->
<g id="edge6" class="edge">
<title>Node6&#45;&gt;Node7</title>
<path fill="none" stroke="midnightblue" d="M473.19,-82.82C498.85,-79.71 538.16,-74.93 566.89,-71.44"/>
<polygon fill="midnightblue" stroke="midnightblue" points="567.45,-74.9 576.96,-70.22 566.61,-67.95 567.45,-74.9"/>
</g>
<!-- Node9 -->
<g id="node9" class="node">
<title>Node9</title>
<g id="a_node9"><a target="_blank" xlink:href="http://en.cppreference.com/w/cpp/numeric/math/pow.html#" xlink:title=" ">
<polygon fill="white" stroke="black" points="419,-424.5 419,-443.5 473,-443.5 473,-424.5 419,-424.5"/>
<text text-anchor="middle" x="446" y="-431.5" font-family="Helvetica,sans-Serif" font-size="10.00">std::pow</text>
</a>
</g>
</g>
<!-- Node8&#45;&gt;Node9 -->
<g id="edge8" class="edge">
<title>Node8&#45;&gt;Node9</title>
<path fill="none" stroke="midnightblue" d="M281.13,-404.46C308.18,-409.33 369.43,-420.38 408.91,-427.49"/>
<polygon fill="midnightblue" stroke="midnightblue" points="408.47,-430.97 418.93,-429.3 409.71,-424.08 408.47,-430.97"/>
</g>
<!-- Node10 -->
<g id="node10" class="node">
<title>Node10</title>
<g id="a_node10"><a target="_blank" xlink:href="http://en.cppreference.com/w/cpp/numeric/math/sqrt.html#" xlink:title=" ">
<polygon fill="white" stroke="black" points="578,-487.5 578,-506.5 631,-506.5 631,-487.5 578,-487.5"/>
<text text-anchor="middle" x="604.5" y="-494.5" font-family="Helvetica,sans-Serif" font-size="10.00">std::sqrt</text>
</a>
</g>
</g>
<!-- Node8&#45;&gt;Node10 -->
<g id="edge9" class="edge">
<title>Node8&#45;&gt;Node10</title>
<path fill="none" stroke="midnightblue" d="M281.26,-403.29C297.52,-405.25 325,-410.01 346,-421 364.97,-430.92 362.83,-443.47 382,-453 442.62,-483.14 522.22,-492.64 567.63,-495.63"/>
<polygon fill="midnightblue" stroke="midnightblue" points="567.68,-499.14 577.87,-496.23 568.09,-492.15 567.68,-499.14"/>
</g>
<!-- Node12 -->
<g id="node12" class="node">
<title>Node12</title>
<g id="a_node12"><a xlink:href="../../d8/d77/namespacemachine__learning.html#ae868ad43698a1d69ba46ea3827d7d2c3" target="_top" xlink:title=" ">
<polygon fill="white" stroke="black" points="382,-542 382,-572 510,-572 510,-542 382,-542"/>
<text text-anchor="start" x="390" y="-560" font-family="Helvetica,sans-Serif" font-size="10.00">machine_learning::update</text>
<text text-anchor="middle" x="446" y="-549" font-family="Helvetica,sans-Serif" font-size="10.00">_weights</text>
</a>
</g>
</g>
<!-- Node11&#45;&gt;Node12 -->
<g id="edge11" class="edge">
<title>Node11&#45;&gt;Node12</title>
<path fill="none" stroke="midnightblue" d="M278.64,-449.71C298.5,-466.73 341.7,-502.45 382,-527 387.91,-530.6 394.32,-534.09 400.71,-537.33"/>
<polygon fill="midnightblue" stroke="midnightblue" points="399.48,-540.63 410,-541.9 402.56,-534.34 399.48,-540.63"/>
</g>
<!-- Node12&#45;&gt;Node10 -->
<g id="edge20" class="edge">
<title>Node12&#45;&gt;Node10</title>
<path fill="none" stroke="midnightblue" d="M481.57,-541.95C500.47,-533.91 524.38,-524.04 546,-516 553.11,-513.36 560.79,-510.69 568.14,-508.23"/>
<polygon fill="midnightblue" stroke="midnightblue" points="569.48,-511.47 577.88,-505.02 567.29,-504.82 569.48,-511.47"/>
</g>
<!-- Node13 -->
<g id="node13" class="node">
<title>Node13</title>
<g id="a_node13"><a target="_blank" xlink:href="http://en.cppreference.com/w/cpp/numeric/math/exp.html#" xlink:title=" ">
<polygon fill="white" stroke="black" points="578.5,-525.5 578.5,-544.5 630.5,-544.5 630.5,-525.5 578.5,-525.5"/>
<text text-anchor="middle" x="604.5" y="-532.5" font-family="Helvetica,sans-Serif" font-size="10.00">std::exp</text>
</a>
</g>
</g>
<!-- Node12&#45;&gt;Node13 -->
<g id="edge12" class="edge">
<title>Node12&#45;&gt;Node13</title>
<path fill="none" stroke="midnightblue" d="M510.2,-548.12C530.01,-545.33 551.16,-542.36 568.31,-539.95"/>
<polygon fill="midnightblue" stroke="midnightblue" points="569,-543.38 578.42,-538.53 568.03,-536.45 569,-543.38"/>
</g>
<!-- Node14 -->
<g id="node14" class="node">
<title>Node14</title>
<g id="a_node14"><a xlink:href="../../d9/d66/group__machine__learning.html#ga60f9186ccb682724a8792a2bf81e9b9e" target="_top" xlink:title=" ">
<polygon fill="white" stroke="black" points="571,-639.5 571,-658.5 638,-658.5 638,-639.5 571,-639.5"/>
<text text-anchor="middle" x="604.5" y="-646.5" font-family="Helvetica,sans-Serif" font-size="10.00">get_min_2d</text>
</a>
</g>
</g>
<!-- Node12&#45;&gt;Node14 -->
<g id="edge13" class="edge">
<title>Node12&#45;&gt;Node14</title>
<path fill="none" stroke="midnightblue" d="M464.11,-572.27C483.01,-588.48 514.89,-613.91 546,-630 550.84,-632.51 556.09,-634.78 561.37,-636.8"/>
<polygon fill="midnightblue" stroke="midnightblue" points="560.24,-640.12 570.83,-640.19 562.6,-633.53 560.24,-640.12"/>
</g>
<!-- Node12&#45;&gt;Node19 -->
<g id="edge18" class="edge">
<title>Node12&#45;&gt;Node19</title>
<path fill="none" stroke="midnightblue" d="M464.05,-541.97C493.59,-515.92 554.08,-462.58 584.76,-435.52"/>
<polygon fill="midnightblue" stroke="midnightblue" points="587.39,-437.87 592.58,-428.63 582.76,-432.62 587.39,-437.87"/>
</g>
<!-- Node20 -->
<g id="node20" class="node">
<title>Node20</title>
<g id="a_node20"><a target="_blank" xlink:href="http://en.cppreference.com/w/cpp/algorithm/min.html#" xlink:title=" ">
<polygon fill="white" stroke="black" points="578.5,-601.5 578.5,-620.5 630.5,-620.5 630.5,-601.5 578.5,-601.5"/>
<text text-anchor="middle" x="604.5" y="-608.5" font-family="Helvetica,sans-Serif" font-size="10.00">std::min</text>
</a>
</g>
</g>
<!-- Node12&#45;&gt;Node20 -->
<g id="edge19" class="edge">
<title>Node12&#45;&gt;Node20</title>
<path fill="none" stroke="midnightblue" d="M488.84,-572.01C506.46,-578.27 527.2,-585.57 546,-592 553.33,-594.51 561.21,-597.15 568.71,-599.63"/>
<polygon fill="midnightblue" stroke="midnightblue" points="567.68,-602.98 578.27,-602.79 569.87,-596.33 567.68,-602.98"/>
</g>
<!-- Node21 -->
<g id="node21" class="node">
<title>Node21</title>
<g id="a_node21"><a xlink:href="../../d8/d77/namespacemachine__learning.html#a6f1c98c016ad34ff3d9f39372161bd35" target="_top" xlink:title=" ">
<polygon fill="white" stroke="black" points="546,-563.5 546,-582.5 663,-582.5 663,-563.5 546,-563.5"/>
<text text-anchor="middle" x="604.5" y="-570.5" font-family="Helvetica,sans-Serif" font-size="10.00">machine_learning::sum</text>
</a>
</g>
</g>
<!-- Node12&#45;&gt;Node21 -->
<g id="edge21" class="edge">
<title>Node12&#45;&gt;Node21</title>
<path fill="none" stroke="midnightblue" d="M510.2,-563.46C518.59,-564.32 527.21,-565.2 535.67,-566.06"/>
<polygon fill="midnightblue" stroke="midnightblue" points="535.57,-569.57 545.87,-567.11 536.28,-562.61 535.57,-569.57"/>
</g>
<!-- Node15 -->
<g id="node15" class="node">
<title>Node15</title>
<g id="a_node15"><a target="_blank" xlink:href="http://en.cppreference.com/w/cpp/iterator/begin.html#" xlink:title=" ">
<polygon fill="white" stroke="black" points="715.5,-696.5 715.5,-715.5 774.5,-715.5 774.5,-696.5 715.5,-696.5"/>
<text text-anchor="middle" x="745" y="-703.5" font-family="Helvetica,sans-Serif" font-size="10.00">std::begin</text>
</a>
</g>
</g>
<!-- Node14&#45;&gt;Node15 -->
<g id="edge14" class="edge">
<title>Node14&#45;&gt;Node15</title>
<path fill="none" stroke="midnightblue" d="M628.68,-658.54C651.25,-667.83 685.77,-682.04 711.16,-692.49"/>
<polygon fill="midnightblue" stroke="midnightblue" points="710.16,-695.86 720.74,-696.43 712.83,-689.39 710.16,-695.86"/>
</g>
<!-- Node16 -->
<g id="node16" class="node">
<title>Node16</title>
<g id="a_node16"><a target="_blank" xlink:href="http://en.cppreference.com/w/cpp/iterator/distance.html#" xlink:title=" ">
<polygon fill="white" stroke="black" points="708.5,-658.5 708.5,-677.5 781.5,-677.5 781.5,-658.5 708.5,-658.5"/>
<text text-anchor="middle" x="745" y="-665.5" font-family="Helvetica,sans-Serif" font-size="10.00">std::distance</text>
</a>
</g>
</g>
<!-- Node14&#45;&gt;Node16 -->
<g id="edge15" class="edge">
<title>Node14&#45;&gt;Node16</title>
<path fill="none" stroke="midnightblue" d="M638.32,-653.5C656.17,-655.95 678.53,-659.02 698.08,-661.7"/>
<polygon fill="midnightblue" stroke="midnightblue" points="697.63,-665.17 708.01,-663.06 698.58,-658.24 697.63,-665.17"/>
</g>
<!-- Node17 -->
<g id="node17" class="node">
<title>Node17</title>
<g id="a_node17"><a target="_blank" xlink:href="http://en.cppreference.com/w/cpp/iterator/end.html#" xlink:title=" ">
<polygon fill="white" stroke="black" points="719,-620.5 719,-639.5 771,-639.5 771,-620.5 719,-620.5"/>
<text text-anchor="middle" x="745" y="-627.5" font-family="Helvetica,sans-Serif" font-size="10.00">std::end</text>
</a>
</g>
</g>
<!-- Node14&#45;&gt;Node17 -->
<g id="edge16" class="edge">
<title>Node14&#45;&gt;Node17</title>
<path fill="none" stroke="midnightblue" d="M638.32,-644.5C659.5,-641.59 687.02,-637.82 708.67,-634.85"/>
<polygon fill="midnightblue" stroke="midnightblue" points="709.34,-638.29 718.77,-633.46 708.39,-631.35 709.34,-638.29"/>
</g>
<!-- Node18 -->
<g id="node18" class="node">
<title>Node18</title>
<g id="a_node18"><a target="_blank" xlink:href="http://en.cppreference.com/w/cpp/algorithm/min_element.html#" xlink:title=" ">
<polygon fill="white" stroke="black" points="699,-582.5 699,-601.5 791,-601.5 791,-582.5 699,-582.5"/>
<text text-anchor="middle" x="745" y="-589.5" font-family="Helvetica,sans-Serif" font-size="10.00">std::min_element</text>
</a>
</g>
</g>
<!-- Node14&#45;&gt;Node18 -->
<g id="edge17" class="edge">
<title>Node14&#45;&gt;Node18</title>
<path fill="none" stroke="midnightblue" d="M637.49,-639.48C645.89,-636.69 654.87,-633.46 663,-630 679.65,-622.92 682.65,-618.75 699,-611 702.79,-609.2 706.8,-607.39 710.8,-605.63"/>
<polygon fill="midnightblue" stroke="midnightblue" points="712.2,-608.84 720.01,-601.68 709.44,-602.41 712.2,-608.84"/>
</g>
<!-- Node23 -->
<g id="node23" class="node">
<title>Node23</title>
<g id="a_node23"><a target="_blank" xlink:href="http://en.cppreference.com/w/cpp/io/basic_ofstream/close.html#" xlink:title=" ">
<polygon fill="white" stroke="black" points="394,-234.5 394,-253.5 498,-253.5 498,-234.5 394,-234.5"/>
<text text-anchor="middle" x="446" y="-241.5" font-family="Helvetica,sans-Serif" font-size="10.00">std::ofstream::close</text>
</a>
</g>
</g>
<!-- Node22&#45;&gt;Node23 -->
<g id="edge24" class="edge">
<title>Node22&#45;&gt;Node23</title>
<path fill="none" stroke="midnightblue" d="M305.14,-269.21C328.06,-265.08 357.88,-259.71 384.09,-254.98"/>
<polygon fill="midnightblue" stroke="midnightblue" points="384.72,-258.42 393.94,-253.2 383.48,-251.53 384.72,-258.42"/>
</g>
<!-- Node24 -->
<g id="node24" class="node">
<title>Node24</title>
<g id="a_node24"><a target="_blank" xlink:href="http://en.cppreference.com/w/cpp/io/basic_ofstream/is_open.html#" xlink:title=" ">
<polygon fill="white" stroke="black" points="389,-196.5 389,-215.5 503,-215.5 503,-196.5 389,-196.5"/>
<text text-anchor="middle" x="446" y="-203.5" font-family="Helvetica,sans-Serif" font-size="10.00">std::ofstream::is_open</text>
</a>
</g>
</g>
<!-- Node22&#45;&gt;Node24 -->
<g id="edge25" class="edge">
<title>Node22&#45;&gt;Node24</title>
<path fill="none" stroke="midnightblue" d="M305.27,-267.32C318.54,-263.53 333.29,-258.46 346,-252 363.83,-242.94 364.15,-234.03 382,-225 386.36,-222.8 391.02,-220.8 395.76,-219"/>
<polygon fill="midnightblue" stroke="midnightblue" points="397.24,-222.19 405.52,-215.58 394.93,-215.58 397.24,-222.19"/>
</g>
<!-- Node25 -->
<g id="node25" class="node">
<title>Node25</title>
<g id="a_node25"><a target="_blank" xlink:href="http://en.cppreference.com/w/cpp/io/basic_ofstream/open.html#" xlink:title=" ">
<polygon fill="white" stroke="black" points="395.5,-272.5 395.5,-291.5 496.5,-291.5 496.5,-272.5 395.5,-272.5"/>
<text text-anchor="middle" x="446" y="-279.5" font-family="Helvetica,sans-Serif" font-size="10.00">std::ofstream::open</text>
</a>
</g>
</g>
<!-- Node22&#45;&gt;Node25 -->
<g id="edge26" class="edge">
<title>Node22&#45;&gt;Node25</title>
<path fill="none" stroke="midnightblue" d="M305.14,-277.27C328.32,-278.06 358.56,-279.08 384.98,-279.97"/>
<polygon fill="midnightblue" stroke="midnightblue" points="385.16,-283.48 395.28,-280.32 385.4,-276.48 385.16,-283.48"/>
</g>
<!-- Node26 -->
<g id="node26" class="node">
<title>Node26</title>
<g id="a_node26"><a target="_blank" xlink:href="http://en.cppreference.com/w/cpp/string/byte/strerror.html#" xlink:title=" ">
<polygon fill="white" stroke="black" points="412.5,-310.5 412.5,-329.5 479.5,-329.5 479.5,-310.5 412.5,-310.5"/>
<text text-anchor="middle" x="446" y="-317.5" font-family="Helvetica,sans-Serif" font-size="10.00">std::strerror</text>
</a>
</g>
</g>
<!-- Node22&#45;&gt;Node26 -->
<g id="edge27" class="edge">
<title>Node22&#45;&gt;Node26</title>
<path fill="none" stroke="midnightblue" d="M305.14,-285.33C333.64,-292.39 372.79,-302.1 402.42,-309.45"/>
<polygon fill="midnightblue" stroke="midnightblue" points="401.93,-312.93 412.48,-311.94 403.61,-306.13 401.93,-312.93"/>
</g>
<!-- Node27&#45;&gt;Node26 -->
<g id="edge30" class="edge">
<title>Node27&#45;&gt;Node26</title>
<path fill="none" stroke="midnightblue" d="M326.11,-320C350.98,-320 379.43,-320 402.27,-320"/>
<polygon fill="midnightblue" stroke="midnightblue" points="402.33,-323.5 412.33,-320 402.33,-316.5 402.33,-323.5"/>
</g>
<!-- Node28 -->
<g id="node28" class="node">
<title>Node28</title>
<g id="a_node28"><a target="_blank" xlink:href="http://en.cppreference.com/w/cpp/io/manip/endl.html#" xlink:title=" ">
<polygon fill="white" stroke="black" points="419,-348.5 419,-367.5 473,-367.5 473,-348.5 419,-348.5"/>
<text text-anchor="middle" x="446" y="-355.5" font-family="Helvetica,sans-Serif" font-size="10.00">std::endl</text>
</a>
</g>
</g>
<!-- Node27&#45;&gt;Node28 -->
<g id="edge29" class="edge">
<title>Node27&#45;&gt;Node28</title>
<path fill="none" stroke="midnightblue" d="M326.11,-332.55C353.38,-338.39 384.96,-345.15 408.71,-350.23"/>
<polygon fill="midnightblue" stroke="midnightblue" points="408.19,-353.7 418.7,-352.37 409.66,-346.85 408.19,-353.7"/>
</g>
<!-- Node29&#45;&gt;Node6 -->
<g id="edge32" class="edge">
<title>Node29&#45;&gt;Node6</title>
<path fill="none" stroke="midnightblue" d="M310.92,-57.3C340.99,-63.73 380.56,-72.2 408.9,-78.27"/>
<polygon fill="midnightblue" stroke="midnightblue" points="408.29,-81.72 418.8,-80.39 409.75,-74.87 408.29,-81.72"/>
</g>
<!-- Node29&#45;&gt;Node7 -->
<g id="edge33" class="edge">
<title>Node29&#45;&gt;Node7</title>
<path fill="none" stroke="midnightblue" d="M310.74,-50.45C377.42,-54.22 504.19,-61.38 566.73,-64.92"/>
<polygon fill="midnightblue" stroke="midnightblue" points="566.73,-68.43 576.91,-65.5 567.13,-61.44 566.73,-68.43"/>
</g>
<!-- Node30&#45;&gt;Node6 -->
<g id="edge35" class="edge">
<title>Node30&#45;&gt;Node6</title>
<path fill="none" stroke="midnightblue" d="M131.69,-270.48C138.66,-267.52 146.1,-263.17 151,-257 192.82,-204.32 136.06,-153.93 187,-110 249.25,-56.32 354.07,-67.04 408.99,-77.58"/>
<polygon fill="midnightblue" stroke="midnightblue" points="408.46,-81.04 418.96,-79.6 409.85,-74.18 408.46,-81.04"/>
</g>
<!-- Node30&#45;&gt;Node8 -->
<g id="edge36" class="edge">
<title>Node30&#45;&gt;Node8</title>
<path fill="none" stroke="midnightblue" d="M131.74,-283.1C138.24,-286.16 145.34,-290.16 151,-295 171.8,-312.8 167.68,-325.6 187,-345 204.05,-362.12 226.64,-377.95 243.2,-388.56"/>
<polygon fill="midnightblue" stroke="midnightblue" points="241.38,-391.55 251.72,-393.89 245.1,-385.62 241.38,-391.55"/>
</g>
<!-- Node30&#45;&gt;Node11 -->
<g id="edge37" class="edge">
<title>Node30&#45;&gt;Node11</title>
<path fill="none" stroke="midnightblue" d="M131.58,-281.61C138.52,-284.59 145.98,-288.92 151,-295 188.08,-339.92 144.99,-380.67 187,-421 188.48,-422.42 190.05,-423.74 191.68,-424.97"/>
<polygon fill="midnightblue" stroke="midnightblue" points="190.07,-428.08 200.41,-430.35 193.74,-422.12 190.07,-428.08"/>
</g>
<!-- Node30&#45;&gt;Node19 -->
<g id="edge38" class="edge">
<title>Node30&#45;&gt;Node19</title>
<path fill="none" stroke="midnightblue" d="M131.6,-271.22C146.46,-267.32 168.07,-261.71 187,-257 257.51,-239.46 281.57,-252.59 346,-219 364.98,-209.1 361.99,-194.61 382,-187 435.18,-166.78 462.85,-155.17 510,-187 582.83,-236.17 598.94,-352.56 602.5,-399.18"/>
<polygon fill="midnightblue" stroke="midnightblue" points="599.02,-399.69 603.16,-409.45 606.01,-399.24 599.02,-399.69"/>
</g>
<!-- Node30&#45;&gt;Node22 -->
<g id="edge39" class="edge">
<title>Node30&#45;&gt;Node22</title>
<path fill="none" stroke="midnightblue" d="M131.53,-276C152.64,-276 188.42,-276 217.7,-276"/>
<polygon fill="midnightblue" stroke="midnightblue" points="217.75,-279.5 227.75,-276 217.75,-272.5 217.75,-279.5"/>
</g>
<!-- Node30&#45;&gt;Node27 -->
<g id="edge40" class="edge">
<title>Node30&#45;&gt;Node27</title>
<path fill="none" stroke="midnightblue" d="M131.53,-281.22C149.38,-286.39 177.74,-294.6 203.78,-302.13"/>
<polygon fill="midnightblue" stroke="midnightblue" points="203.04,-305.56 213.62,-304.98 204.98,-298.84 203.04,-305.56"/>
</g>
<!-- Node31 -->
<g id="node31" class="node">
<title>Node31</title>
<g id="a_node31"><a xlink:href="../../d4/def/kohonen__som__topology_8cpp.html#a1302662a56ebf67a21249270b017297e" target="_top" xlink:title=" ">
<polygon fill="white" stroke="black" points="220,-0.5 220,-19.5 313,-19.5 313,-0.5 220,-0.5"/>
<text text-anchor="middle" x="266.5" y="-7.5" font-family="Helvetica,sans-Serif" font-size="10.00">test_3d_classes1</text>
</a>
</g>
</g>
<!-- Node30&#45;&gt;Node31 -->
<g id="edge41" class="edge">
<title>Node30&#45;&gt;Node31</title>
<path fill="none" stroke="midnightblue" d="M131.57,-270.84C138.69,-267.91 146.28,-263.49 151,-257 211.37,-174.06 117.45,-104.41 187,-29 193.15,-22.33 201.2,-17.82 209.8,-14.81"/>
<polygon fill="midnightblue" stroke="midnightblue" points="211.01,-18.1 219.67,-12 209.09,-11.37 211.01,-18.1"/>
</g>
<!-- Node31&#45;&gt;Node6 -->
<g id="edge42" class="edge">
<title>Node31&#45;&gt;Node6</title>
<path fill="none" stroke="midnightblue" d="M313.02,-18.69C324.01,-21.42 335.58,-24.84 346,-29 373.83,-40.11 403.29,-57.96 422.76,-70.72"/>
<polygon fill="midnightblue" stroke="midnightblue" points="420.96,-73.72 431.22,-76.36 424.84,-67.9 420.96,-73.72"/>
</g>
<!-- Node31&#45;&gt;Node7 -->
<g id="edge43" class="edge">
<title>Node31&#45;&gt;Node7</title>
<path fill="none" stroke="midnightblue" d="M313.09,-17.68C361.84,-25.9 441.39,-39.33 510,-51 528.69,-54.18 549.47,-57.73 566.69,-60.68"/>
<polygon fill="midnightblue" stroke="midnightblue" points="566.46,-64.19 576.9,-62.43 567.64,-57.29 566.46,-64.19"/>
</g>
<!-- Node32&#45;&gt;Node6 -->
<g id="edge45" class="edge">
<title>Node32&#45;&gt;Node6</title>
<path fill="none" stroke="midnightblue" d="M131.72,-346.5C138.69,-343.54 146.12,-339.19 151,-333 193.96,-278.46 138.25,-230.43 187,-181 238.17,-129.12 283.58,-178.6 346,-141 366.49,-128.66 361.44,-113.21 382,-101 390.08,-96.2 399.59,-92.94 408.75,-90.72"/>
<polygon fill="midnightblue" stroke="midnightblue" points="409.75,-94.09 418.84,-88.63 408.33,-87.23 409.75,-94.09"/>
</g>
<!-- Node32&#45;&gt;Node8 -->
<g id="edge46" class="edge">
<title>Node32&#45;&gt;Node8</title>
<path fill="none" stroke="midnightblue" d="M131.55,-358.63C146.38,-364.02 167.97,-371.73 187,-378 205.37,-384.05 226.32,-390.43 241.95,-395.09"/>
<polygon fill="midnightblue" stroke="midnightblue" points="241.25,-398.53 251.83,-398.02 243.23,-391.82 241.25,-398.53"/>
</g>
<!-- Node32&#45;&gt;Node11 -->
<g id="edge47" class="edge">
<title>Node32&#45;&gt;Node11</title>
<path fill="none" stroke="midnightblue" d="M131.74,-359.1C138.24,-362.16 145.34,-366.16 151,-371 171.8,-388.8 164.28,-405.72 187,-421 190.09,-423.08 193.38,-424.93 196.81,-426.58"/>
<polygon fill="midnightblue" stroke="midnightblue" points="195.54,-429.84 206.11,-430.49 198.25,-423.39 195.54,-429.84"/>
</g>
<!-- Node32&#45;&gt;Node19 -->
<g id="edge48" class="edge">
<title>Node32&#45;&gt;Node19</title>
<path fill="none" stroke="midnightblue" d="M131.63,-358.07C138.42,-361.08 145.75,-365.31 151,-371 179.65,-402.06 151.92,-435.45 187,-459 310.56,-541.95 503.09,-466.52 575.07,-433.08"/>
<polygon fill="midnightblue" stroke="midnightblue" points="576.87,-436.1 584.41,-428.66 573.88,-429.77 576.87,-436.1"/>
</g>
<!-- Node32&#45;&gt;Node22 -->
<g id="edge49" class="edge">
<title>Node32&#45;&gt;Node22</title>
<path fill="none" stroke="midnightblue" d="M131.75,-344.25C138.11,-341.17 145.12,-337.32 151,-333 169.48,-319.41 167.14,-307.49 187,-296 196.41,-290.56 207.3,-286.58 217.91,-283.68"/>
<polygon fill="midnightblue" stroke="midnightblue" points="219.06,-287 227.94,-281.21 217.39,-280.2 219.06,-287"/>
</g>
<!-- Node32&#45;&gt;Node27 -->
<g id="edge50" class="edge">
<title>Node32&#45;&gt;Node27</title>
<path fill="none" stroke="midnightblue" d="M131.53,-348.2C147.84,-344.77 172.93,-339.49 197,-334.42"/>
<polygon fill="midnightblue" stroke="midnightblue" points="197.8,-337.83 206.86,-332.34 196.36,-330.98 197.8,-337.83"/>
</g>
<!-- Node33 -->
<g id="node33" class="node">
<title>Node33</title>
<g id="a_node33"><a xlink:href="../../d4/def/kohonen__som__topology_8cpp.html#a4b7ab643f6a5002f991837de46f70653" target="_top" xlink:title=" ">
<polygon fill="white" stroke="black" points="220,-190.5 220,-209.5 313,-209.5 313,-190.5 220,-190.5"/>
<text text-anchor="middle" x="266.5" y="-197.5" font-family="Helvetica,sans-Serif" font-size="10.00">test_3d_classes2</text>
</a>
</g>
</g>
<!-- Node32&#45;&gt;Node33 -->
<g id="edge51" class="edge">
<title>Node32&#45;&gt;Node33</title>
<path fill="none" stroke="midnightblue" d="M131.86,-345.61C138.52,-342.59 145.7,-338.44 151,-333 177.07,-306.22 163.14,-285.76 187,-257 201.34,-239.72 222.03,-224.98 238.57,-214.82"/>
<polygon fill="midnightblue" stroke="midnightblue" points="240.45,-217.77 247.27,-209.66 236.88,-211.75 240.45,-217.77"/>
</g>
<!-- Node33&#45;&gt;Node6 -->
<g id="edge52" class="edge">
<title>Node33&#45;&gt;Node6</title>
<path fill="none" stroke="midnightblue" d="M313.12,-192.3C324.7,-188.75 336.54,-183.56 346,-176 371.19,-155.87 357.93,-134.46 382,-113 389.86,-105.99 399.81,-100.6 409.48,-96.55"/>
<polygon fill="midnightblue" stroke="midnightblue" points="410.86,-99.77 418.95,-92.93 408.36,-93.23 410.86,-99.77"/>
</g>
<!-- Node33&#45;&gt;Node7 -->
<g id="edge53" class="edge">
<title>Node33&#45;&gt;Node7</title>
<path fill="none" stroke="midnightblue" d="M305.74,-190.4C318.77,-186.59 333.26,-181.73 346,-176 363.1,-168.31 365.17,-162.28 382,-154 436.66,-127.12 453.34,-127.36 510,-105 530.35,-96.97 553.1,-87.73 571.06,-80.37"/>
<polygon fill="midnightblue" stroke="midnightblue" points="572.58,-83.54 580.5,-76.5 569.92,-77.06 572.58,-83.54"/>
</g>
</g>
</svg>
