<?xml version="1.0" encoding="UTF-8" standalone="no"?>
<!DOCTYPE svg PUBLIC "-//W3C//DTD SVG 1.1//EN"
 "http://www.w3.org/Graphics/SVG/1.1/DTD/svg11.dtd">
<!-- Generated by graphviz version 5.0.0 (20220707.1540)
 -->
<!-- Title: test1 Pages: 1 -->
<!--zoomable 476 -->
<svg id="main" version="1.1" xmlns="http://www.w3.org/2000/svg" xmlns:xlink="http://www.w3.org/1999/xlink" xml:space="preserve" onload="init(evt)">
<style type="text/css"><![CDATA[
.edge:hover path { stroke: red; }
.edge:hover polygon { stroke: red; fill: red; }
]]></style>
<script type="text/javascript"><![CDATA[
var edges = document.getElementsByTagName('g');
if (edges && edges.length) {
  for (var i=0;i<edges.length;i++) {
    if (edges[i].id.substr(0,4)=='edge') {
      edges[i].setAttribute('class','edge');
    }
  }
}
]]></script>
        <defs>
                <circle id="rim" cx="0" cy="0" r="7"/>
                <circle id="rim2" cx="0" cy="0" r="3.5"/>
                <g id="zoomPlus">
                        <use xlink:href="#rim" fill="#404040">
                                <set attributeName="fill" to="#808080" begin="zoomplus.mouseover" end="zoomplus.mouseout"/>
                        </use>
                        <path d="M-4,0h8M0,-4v8" fill="none" stroke="white" stroke-width="1.5" pointer-events="none"/>
                </g>
                <g id="zoomMin">
                        <use xlink:href="#rim" fill="#404040">
                                <set attributeName="fill" to="#808080" begin="zoomminus.mouseover" end="zoomminus.mouseout"/>
                        </use>
                        <path d="M-4,0h8" fill="none" stroke="white" stroke-width="1.5" pointer-events="none"/>
                </g>
                <g id="dirArrow">
                        <path fill="none" stroke="white" stroke-width="1.5" d="M0,-3.0v7 M-2.5,-0.5L0,-3.0L2.5,-0.5"/>
                </g>
               <g id="resetDef">
                       <use xlink:href="#rim2" fill="#404040">
                               <set attributeName="fill" to="#808080" begin="reset.mouseover" end="reset.mouseout"/>
                       </use>
               </g>
        </defs>

<script type="text/javascript">
var viewWidth = 686;
var viewHeight = 476;
var sectionId = 'dynsection-2';
</script>
<script xlink:href="../../svgpan.js"/>
<svg id="graph" class="graph">
<g id="viewport">
<title>test1</title>
<polygon fill="white" stroke="transparent" points="-4,4 -4,-471.52 682,-471.52 682,4 -4,4"/>
<!-- Node1 -->
<g id="node1" class="node">
<title>Node1</title>
<g id="a_node1"><a xlink:title=" ">
<polygon fill="#bfbfbf" stroke="black" points="0,-183.02 0,-202.02 38,-202.02 38,-183.02 0,-183.02"/>
<text text-anchor="middle" x="19" y="-190.02" font-family="Helvetica,sans-Serif" font-size="10.00">test1</text>
</a>
</g>
</g>
<!-- Node2 -->
<g id="node2" class="node">
<title>Node2</title>
<g id="a_node2"><a xlink:href="../../d9/d66/group__machine__learning.html#gaf5ce14f026d6d231bef29161bac2b485" target="_top" xlink:title=" ">
<polygon fill="white" stroke="black" points="306,-9.02 306,-28.02 360,-28.02 360,-9.02 306,-9.02"/>
<text text-anchor="middle" x="333" y="-16.02" font-family="Helvetica,sans-Serif" font-size="10.00">_random</text>
</a>
</g>
</g>
<!-- Node1&#45;&gt;Node2 -->
<g id="edge1" class="edge">
<title>Node1&#45;&gt;Node2</title>
<path fill="none" stroke="midnightblue" d="M20.01,-182.83C20.6,-154.91 26.53,-73.95 74,-37.52 138.77,12.18 241.65,0.88 295.85,-9.85"/>
<polygon fill="midnightblue" stroke="midnightblue" points="295.2,-13.29 305.7,-11.9 296.63,-6.44 295.2,-13.29"/>
</g>
<!-- Node4 -->
<g id="node4" class="node">
<title>Node4</title>
<g id="a_node4"><a xlink:href="../../d4/d18/composite__simpson__rule_8cpp.html#a6d50f1b8eb533b54721812d16a3699cc" target="_top" xlink:title="Another test function.">
<polygon fill="white" stroke="black" points="139,-379.02 139,-398.02 168,-398.02 168,-379.02 139,-379.02"/>
<text text-anchor="middle" x="153.5" y="-386.02" font-family="Helvetica,sans-Serif" font-size="10.00">k</text>
</a>
</g>
</g>
<!-- Node1&#45;&gt;Node4 -->
<g id="edge3" class="edge">
<title>Node1&#45;&gt;Node4</title>
<path fill="none" stroke="midnightblue" d="M21.07,-202.22C24.39,-228.18 36.63,-300.21 74,-344.52 88.65,-361.89 111.99,-373.73 129.42,-380.71"/>
<polygon fill="midnightblue" stroke="midnightblue" points="128.3,-384.03 138.89,-384.27 130.76,-377.47 128.3,-384.03"/>
</g>
<!-- Node7 -->
<g id="node7" class="node">
<title>Node7</title>
<g id="a_node7"><a xlink:href="../../d8/d77/namespacemachine__learning.html#ac43d294e21a0c4fa33c53757df054576" target="_top" xlink:title=" ">
<polygon fill="white" stroke="black" points="74,-316.02 74,-335.02 233,-335.02 233,-316.02 74,-316.02"/>
<text text-anchor="middle" x="153.5" y="-323.02" font-family="Helvetica,sans-Serif" font-size="10.00">machine_learning::kohonen_som</text>
</a>
</g>
</g>
<!-- Node1&#45;&gt;Node7 -->
<g id="edge6" class="edge">
<title>Node1&#45;&gt;Node7</title>
<path fill="none" stroke="midnightblue" d="M22.31,-202.25C27.71,-222.96 43.13,-271.7 74,-298.52 80.49,-304.16 88.22,-308.64 96.25,-312.19"/>
<polygon fill="midnightblue" stroke="midnightblue" points="95.19,-315.53 105.77,-315.94 97.76,-309.02 95.19,-315.53"/>
</g>
<!-- Node15 -->
<g id="node15" class="node">
<title>Node15</title>
<g id="a_node15"><a target="_blank" xlink:href="http://en.cppreference.com/w/cpp/algorithm/max.html#" xlink:title=" ">
<polygon fill="white" stroke="black" points="464,-239.02 464,-258.02 519,-258.02 519,-239.02 464,-239.02"/>
<text text-anchor="middle" x="491.5" y="-246.02" font-family="Helvetica,sans-Serif" font-size="10.00">std::max</text>
</a>
</g>
</g>
<!-- Node1&#45;&gt;Node15 -->
<g id="edge18" class="edge">
<title>Node1&#45;&gt;Node15</title>
<path fill="none" stroke="midnightblue" d="M38.39,-199.34C48.78,-203.11 62.05,-207.77 74,-211.52 212.86,-255.12 252.04,-278.59 397,-265.52 415.78,-263.83 436.42,-260.26 453.53,-256.82"/>
<polygon fill="midnightblue" stroke="midnightblue" points="454.59,-260.18 463.67,-254.72 453.17,-253.32 454.59,-260.18"/>
</g>
<!-- Node18 -->
<g id="node18" class="node">
<title>Node18</title>
<g id="a_node18"><a xlink:href="../../d9/d66/group__machine__learning.html#gabc90175770bf0d5853c466e14993a08c" target="_top" xlink:title=" ">
<polygon fill="white" stroke="black" points="115,-183.02 115,-202.02 192,-202.02 192,-183.02 115,-183.02"/>
<text text-anchor="middle" x="153.5" y="-190.02" font-family="Helvetica,sans-Serif" font-size="10.00">save_2d_data</text>
</a>
</g>
</g>
<!-- Node1&#45;&gt;Node18 -->
<g id="edge19" class="edge">
<title>Node1&#45;&gt;Node18</title>
<path fill="none" stroke="midnightblue" d="M38.15,-192.52C55.25,-192.52 81.63,-192.52 104.74,-192.52"/>
<polygon fill="midnightblue" stroke="midnightblue" points="104.75,-196.02 114.75,-192.52 104.75,-189.02 104.75,-196.02"/>
</g>
<!-- Node23 -->
<g id="node23" class="node">
<title>Node23</title>
<g id="a_node23"><a xlink:href="../../d8/d77/namespacemachine__learning.html#aa72a53c88203fde278f1fe6c3afe5b07" target="_top" xlink:title=" ">
<polygon fill="white" stroke="black" points="94,-117.52 94,-147.52 213,-147.52 213,-117.52 94,-117.52"/>
<text text-anchor="start" x="102" y="-135.52" font-family="Helvetica,sans-Serif" font-size="10.00">machine_learning::save</text>
<text text-anchor="middle" x="153.5" y="-124.52" font-family="Helvetica,sans-Serif" font-size="10.00">_u_matrix</text>
</a>
</g>
</g>
<!-- Node1&#45;&gt;Node23 -->
<g id="edge24" class="edge">
<title>Node1&#45;&gt;Node23</title>
<path fill="none" stroke="midnightblue" d="M38.15,-184.3C56.54,-175.97 85.67,-162.78 109.93,-151.8"/>
<polygon fill="midnightblue" stroke="midnightblue" points="111.63,-154.87 119.29,-147.56 108.74,-148.49 111.63,-154.87"/>
</g>
<!-- Node25 -->
<g id="node25" class="node">
<title>Node25</title>
<g id="a_node25"><a xlink:href="../../d4/def/kohonen__som__topology_8cpp.html#a48efb079040c7aaa3a4917a0e486cba9" target="_top" xlink:title=" ">
<polygon fill="white" stroke="black" points="109.5,-47.02 109.5,-66.02 197.5,-66.02 197.5,-47.02 109.5,-47.02"/>
<text text-anchor="middle" x="153.5" y="-54.02" font-family="Helvetica,sans-Serif" font-size="10.00">test_2d_classes</text>
</a>
</g>
</g>
<!-- Node1&#45;&gt;Node25 -->
<g id="edge27" class="edge">
<title>Node1&#45;&gt;Node25</title>
<path fill="none" stroke="midnightblue" d="M24.56,-182.8C32.72,-166.15 51.11,-131.72 74,-108.52 88.78,-93.54 108.54,-80.47 124.54,-71.19"/>
<polygon fill="midnightblue" stroke="midnightblue" points="126.46,-74.12 133.46,-66.17 123.03,-68.02 126.46,-74.12"/>
</g>
<!-- Node3 -->
<g id="node3" class="node">
<title>Node3</title>
<g id="a_node3"><a target="_blank" xlink:href="http://en.cppreference.com/w/cpp/numeric/random/rand.html#" xlink:title=" ">
<polygon fill="white" stroke="black" points="464,-28.02 464,-47.02 519,-47.02 519,-28.02 464,-28.02"/>
<text text-anchor="middle" x="491.5" y="-35.02" font-family="Helvetica,sans-Serif" font-size="10.00">std::rand</text>
</a>
</g>
</g>
<!-- Node2&#45;&gt;Node3 -->
<g id="edge2" class="edge">
<title>Node2&#45;&gt;Node3</title>
<path fill="none" stroke="midnightblue" d="M360.19,-21.7C385.85,-24.81 425.16,-29.59 453.89,-33.08"/>
<polygon fill="midnightblue" stroke="midnightblue" points="453.61,-36.57 463.96,-34.3 454.45,-29.62 453.61,-36.57"/>
</g>
<!-- Node5 -->
<g id="node5" class="node">
<title>Node5</title>
<g id="a_node5"><a target="_blank" xlink:href="http://en.cppreference.com/w/cpp/numeric/math/pow.html#" xlink:title=" ">
<polygon fill="white" stroke="black" points="306,-379.02 306,-398.02 360,-398.02 360,-379.02 306,-379.02"/>
<text text-anchor="middle" x="333" y="-386.02" font-family="Helvetica,sans-Serif" font-size="10.00">std::pow</text>
</a>
</g>
</g>
<!-- Node4&#45;&gt;Node5 -->
<g id="edge4" class="edge">
<title>Node4&#45;&gt;Node5</title>
<path fill="none" stroke="midnightblue" d="M168.13,-388.52C195.18,-388.52 256.43,-388.52 295.91,-388.52"/>
<polygon fill="midnightblue" stroke="midnightblue" points="295.93,-392.02 305.93,-388.52 295.93,-385.02 295.93,-392.02"/>
</g>
<!-- Node6 -->
<g id="node6" class="node">
<title>Node6</title>
<g id="a_node6"><a target="_blank" xlink:href="http://en.cppreference.com/w/cpp/numeric/math/sqrt.html#" xlink:title=" ">
<polygon fill="white" stroke="black" points="465,-429.02 465,-448.02 518,-448.02 518,-429.02 465,-429.02"/>
<text text-anchor="middle" x="491.5" y="-436.02" font-family="Helvetica,sans-Serif" font-size="10.00">std::sqrt</text>
</a>
</g>
</g>
<!-- Node4&#45;&gt;Node6 -->
<g id="edge5" class="edge">
<title>Node4&#45;&gt;Node6</title>
<path fill="none" stroke="midnightblue" d="M168.23,-390.91C189.7,-394.63 232.55,-401.95 269,-407.52 334.42,-417.52 410.92,-427.95 454.74,-433.8"/>
<polygon fill="midnightblue" stroke="midnightblue" points="454.51,-437.3 464.89,-435.15 455.44,-430.36 454.51,-437.3"/>
</g>
<!-- Node8 -->
<g id="node8" class="node">
<title>Node8</title>
<g id="a_node8"><a xlink:href="../../d8/d77/namespacemachine__learning.html#ae868ad43698a1d69ba46ea3827d7d2c3" target="_top" xlink:title=" ">
<polygon fill="white" stroke="black" points="269,-313.52 269,-343.52 397,-343.52 397,-313.52 269,-313.52"/>
<text text-anchor="start" x="277" y="-331.52" font-family="Helvetica,sans-Serif" font-size="10.00">machine_learning::update</text>
<text text-anchor="middle" x="333" y="-320.52" font-family="Helvetica,sans-Serif" font-size="10.00">_weights</text>
</a>
</g>
</g>
<!-- Node7&#45;&gt;Node8 -->
<g id="edge7" class="edge">
<title>Node7&#45;&gt;Node8</title>
<path fill="none" stroke="midnightblue" d="M233.13,-326.85C241.63,-326.99 250.26,-327.14 258.7,-327.28"/>
<polygon fill="midnightblue" stroke="midnightblue" points="258.82,-330.78 268.88,-327.45 258.94,-323.78 258.82,-330.78"/>
</g>
<!-- Node8&#45;&gt;Node6 -->
<g id="edge16" class="edge">
<title>Node8&#45;&gt;Node6</title>
<path fill="none" stroke="midnightblue" d="M361.97,-343.65C373.52,-350.65 386.61,-359.61 397,-369.52 416.81,-388.42 410.92,-403.32 433,-419.52 439.56,-424.33 447.4,-427.97 455.15,-430.7"/>
<polygon fill="midnightblue" stroke="midnightblue" points="454.24,-434.08 464.82,-433.7 456.31,-427.4 454.24,-434.08"/>
</g>
<!-- Node9 -->
<g id="node9" class="node">
<title>Node9</title>
<g id="a_node9"><a target="_blank" xlink:href="http://en.cppreference.com/w/cpp/numeric/math/exp.html#" xlink:title=" ">
<polygon fill="white" stroke="black" points="465.5,-277.02 465.5,-296.02 517.5,-296.02 517.5,-277.02 465.5,-277.02"/>
<text text-anchor="middle" x="491.5" y="-284.02" font-family="Helvetica,sans-Serif" font-size="10.00">std::exp</text>
</a>
</g>
</g>
<!-- Node8&#45;&gt;Node9 -->
<g id="edge8" class="edge">
<title>Node8&#45;&gt;Node9</title>
<path fill="none" stroke="midnightblue" d="M390.06,-313.48C411.92,-307.61 436.29,-301.07 455.56,-295.9"/>
<polygon fill="midnightblue" stroke="midnightblue" points="456.65,-299.23 465.4,-293.26 454.84,-292.47 456.65,-299.23"/>
</g>
<!-- Node10 -->
<g id="node10" class="node">
<title>Node10</title>
<g id="a_node10"><a xlink:href="../../d9/d66/group__machine__learning.html#ga60f9186ccb682724a8792a2bf81e9b9e" target="_top" xlink:title=" ">
<polygon fill="white" stroke="black" points="458,-391.02 458,-410.02 525,-410.02 525,-391.02 458,-391.02"/>
<text text-anchor="middle" x="491.5" y="-398.02" font-family="Helvetica,sans-Serif" font-size="10.00">get_min_2d</text>
</a>
</g>
</g>
<!-- Node8&#45;&gt;Node10 -->
<g id="edge9" class="edge">
<title>Node8&#45;&gt;Node10</title>
<path fill="none" stroke="midnightblue" d="M359.45,-343.72C379.1,-355.06 407.2,-370.45 433,-381.52 438.01,-383.67 443.35,-385.73 448.69,-387.65"/>
<polygon fill="midnightblue" stroke="midnightblue" points="447.61,-390.98 458.2,-390.93 449.89,-384.36 447.61,-390.98"/>
</g>
<!-- Node8&#45;&gt;Node15 -->
<g id="edge14" class="edge">
<title>Node8&#45;&gt;Node15</title>
<path fill="none" stroke="midnightblue" d="M369.89,-313.46C378.99,-309.09 388.58,-304.01 397,-298.52 414.69,-286.99 414.62,-277.92 433,-267.52 439.54,-263.82 446.92,-260.7 454.14,-258.13"/>
<polygon fill="midnightblue" stroke="midnightblue" points="455.41,-261.4 463.82,-254.96 453.23,-254.75 455.41,-261.4"/>
</g>
<!-- Node16 -->
<g id="node16" class="node">
<title>Node16</title>
<g id="a_node16"><a target="_blank" xlink:href="http://en.cppreference.com/w/cpp/algorithm/min.html#" xlink:title=" ">
<polygon fill="white" stroke="black" points="465.5,-353.02 465.5,-372.02 517.5,-372.02 517.5,-353.02 465.5,-353.02"/>
<text text-anchor="middle" x="491.5" y="-360.02" font-family="Helvetica,sans-Serif" font-size="10.00">std::min</text>
</a>
</g>
</g>
<!-- Node8&#45;&gt;Node16 -->
<g id="edge15" class="edge">
<title>Node8&#45;&gt;Node16</title>
<path fill="none" stroke="midnightblue" d="M397.2,-342.25C417.01,-346.56 438.16,-351.15 455.31,-354.87"/>
<polygon fill="midnightblue" stroke="midnightblue" points="454.9,-358.37 465.42,-357.07 456.39,-351.53 454.9,-358.37"/>
</g>
<!-- Node17 -->
<g id="node17" class="node">
<title>Node17</title>
<g id="a_node17"><a xlink:href="../../d8/d77/namespacemachine__learning.html#a6f1c98c016ad34ff3d9f39372161bd35" target="_top" xlink:title=" ">
<polygon fill="white" stroke="black" points="433,-315.02 433,-334.02 550,-334.02 550,-315.02 433,-315.02"/>
<text text-anchor="middle" x="491.5" y="-322.02" font-family="Helvetica,sans-Serif" font-size="10.00">machine_learning::sum</text>
</a>
</g>
</g>
<!-- Node8&#45;&gt;Node17 -->
<g id="edge17" class="edge">
<title>Node8&#45;&gt;Node17</title>
<path fill="none" stroke="midnightblue" d="M397.2,-326.9C405.59,-326.69 414.21,-326.47 422.67,-326.25"/>
<polygon fill="midnightblue" stroke="midnightblue" points="422.97,-329.75 432.87,-325.99 422.79,-322.75 422.97,-329.75"/>
</g>
<!-- Node11 -->
<g id="node11" class="node">
<title>Node11</title>
<g id="a_node11"><a target="_blank" xlink:href="http://en.cppreference.com/w/cpp/iterator/begin.html#" xlink:title=" ">
<polygon fill="white" stroke="black" points="602.5,-448.02 602.5,-467.02 661.5,-467.02 661.5,-448.02 602.5,-448.02"/>
<text text-anchor="middle" x="632" y="-455.02" font-family="Helvetica,sans-Serif" font-size="10.00">std::begin</text>
</a>
</g>
</g>
<!-- Node10&#45;&gt;Node11 -->
<g id="edge10" class="edge">
<title>Node10&#45;&gt;Node11</title>
<path fill="none" stroke="midnightblue" d="M524.49,-410.04C532.89,-412.83 541.87,-416.06 550,-419.52 566.65,-426.61 569.65,-430.77 586,-438.52 589.79,-440.32 593.8,-442.13 597.8,-443.89"/>
<polygon fill="midnightblue" stroke="midnightblue" points="596.44,-447.11 607.01,-447.84 599.2,-440.68 596.44,-447.11"/>
</g>
<!-- Node12 -->
<g id="node12" class="node">
<title>Node12</title>
<g id="a_node12"><a target="_blank" xlink:href="http://en.cppreference.com/w/cpp/iterator/distance.html#" xlink:title=" ">
<polygon fill="white" stroke="black" points="595.5,-410.02 595.5,-429.02 668.5,-429.02 668.5,-410.02 595.5,-410.02"/>
<text text-anchor="middle" x="632" y="-417.02" font-family="Helvetica,sans-Serif" font-size="10.00">std::distance</text>
</a>
</g>
</g>
<!-- Node10&#45;&gt;Node12 -->
<g id="edge11" class="edge">
<title>Node10&#45;&gt;Node12</title>
<path fill="none" stroke="midnightblue" d="M525.32,-405.02C543.17,-407.47 565.53,-410.54 585.08,-413.22"/>
<polygon fill="midnightblue" stroke="midnightblue" points="584.63,-416.69 595.01,-414.58 585.58,-409.76 584.63,-416.69"/>
</g>
<!-- Node13 -->
<g id="node13" class="node">
<title>Node13</title>
<g id="a_node13"><a target="_blank" xlink:href="http://en.cppreference.com/w/cpp/iterator/end.html#" xlink:title=" ">
<polygon fill="white" stroke="black" points="606,-372.02 606,-391.02 658,-391.02 658,-372.02 606,-372.02"/>
<text text-anchor="middle" x="632" y="-379.02" font-family="Helvetica,sans-Serif" font-size="10.00">std::end</text>
</a>
</g>
</g>
<!-- Node10&#45;&gt;Node13 -->
<g id="edge12" class="edge">
<title>Node10&#45;&gt;Node13</title>
<path fill="none" stroke="midnightblue" d="M525.32,-396.02C546.5,-393.11 574.02,-389.34 595.67,-386.37"/>
<polygon fill="midnightblue" stroke="midnightblue" points="596.34,-389.81 605.77,-384.98 595.39,-382.87 596.34,-389.81"/>
</g>
<!-- Node14 -->
<g id="node14" class="node">
<title>Node14</title>
<g id="a_node14"><a target="_blank" xlink:href="http://en.cppreference.com/w/cpp/algorithm/min_element.html#" xlink:title=" ">
<polygon fill="white" stroke="black" points="586,-334.02 586,-353.02 678,-353.02 678,-334.02 586,-334.02"/>
<text text-anchor="middle" x="632" y="-341.02" font-family="Helvetica,sans-Serif" font-size="10.00">std::min_element</text>
</a>
</g>
</g>
<!-- Node10&#45;&gt;Node14 -->
<g id="edge13" class="edge">
<title>Node10&#45;&gt;Node14</title>
<path fill="none" stroke="midnightblue" d="M524.49,-391C532.89,-388.21 541.87,-384.98 550,-381.52 566.65,-374.44 569.65,-370.27 586,-362.52 589.79,-360.72 593.8,-358.91 597.8,-357.15"/>
<polygon fill="midnightblue" stroke="midnightblue" points="599.2,-360.36 607.01,-353.2 596.44,-353.93 599.2,-360.36"/>
</g>
<!-- Node19 -->
<g id="node19" class="node">
<title>Node19</title>
<g id="a_node19"><a target="_blank" xlink:href="http://en.cppreference.com/w/cpp/io/basic_ofstream/close.html#" xlink:title=" ">
<polygon fill="white" stroke="black" points="281,-161.02 281,-180.02 385,-180.02 385,-161.02 281,-161.02"/>
<text text-anchor="middle" x="333" y="-168.02" font-family="Helvetica,sans-Serif" font-size="10.00">std::ofstream::close</text>
</a>
</g>
</g>
<!-- Node18&#45;&gt;Node19 -->
<g id="edge20" class="edge">
<title>Node18&#45;&gt;Node19</title>
<path fill="none" stroke="midnightblue" d="M192.14,-187.85C214.96,-185.03 244.62,-181.35 270.75,-178.11"/>
<polygon fill="midnightblue" stroke="midnightblue" points="271.45,-181.55 280.94,-176.85 270.59,-174.61 271.45,-181.55"/>
</g>
<!-- Node20 -->
<g id="node20" class="node">
<title>Node20</title>
<g id="a_node20"><a target="_blank" xlink:href="http://en.cppreference.com/w/cpp/io/basic_ofstream/is_open.html#" xlink:title=" ">
<polygon fill="white" stroke="black" points="276,-237.02 276,-256.02 390,-256.02 390,-237.02 276,-237.02"/>
<text text-anchor="middle" x="333" y="-244.02" font-family="Helvetica,sans-Serif" font-size="10.00">std::ofstream::is_open</text>
</a>
</g>
</g>
<!-- Node18&#45;&gt;Node20 -->
<g id="edge21" class="edge">
<title>Node18&#45;&gt;Node20</title>
<path fill="none" stroke="midnightblue" d="M185.59,-202.06C208.62,-209.11 240.76,-218.94 269,-227.52 275.99,-229.64 283.42,-231.89 290.63,-234.07"/>
<polygon fill="midnightblue" stroke="midnightblue" points="289.68,-237.44 300.27,-236.97 291.7,-230.74 289.68,-237.44"/>
</g>
<!-- Node21 -->
<g id="node21" class="node">
<title>Node21</title>
<g id="a_node21"><a target="_blank" xlink:href="http://en.cppreference.com/w/cpp/io/basic_ofstream/open.html#" xlink:title=" ">
<polygon fill="white" stroke="black" points="282.5,-199.02 282.5,-218.02 383.5,-218.02 383.5,-199.02 282.5,-199.02"/>
<text text-anchor="middle" x="333" y="-206.02" font-family="Helvetica,sans-Serif" font-size="10.00">std::ofstream::open</text>
</a>
</g>
</g>
<!-- Node18&#45;&gt;Node21 -->
<g id="edge22" class="edge">
<title>Node18&#45;&gt;Node21</title>
<path fill="none" stroke="midnightblue" d="M192.14,-195.91C215.32,-198 245.56,-200.73 271.98,-203.11"/>
<polygon fill="midnightblue" stroke="midnightblue" points="272,-206.63 282.28,-204.04 272.63,-199.65 272,-206.63"/>
</g>
<!-- Node22 -->
<g id="node22" class="node">
<title>Node22</title>
<g id="a_node22"><a target="_blank" xlink:href="http://en.cppreference.com/w/cpp/string/byte/strerror.html#" xlink:title=" ">
<polygon fill="white" stroke="black" points="299.5,-123.02 299.5,-142.02 366.5,-142.02 366.5,-123.02 299.5,-123.02"/>
<text text-anchor="middle" x="333" y="-130.02" font-family="Helvetica,sans-Serif" font-size="10.00">std::strerror</text>
</a>
</g>
</g>
<!-- Node18&#45;&gt;Node22 -->
<g id="edge23" class="edge">
<title>Node18&#45;&gt;Node22</title>
<path fill="none" stroke="midnightblue" d="M180.29,-182.86C203.41,-174.3 238.32,-161.63 269,-151.52 275.56,-149.36 282.54,-147.16 289.37,-145.06"/>
<polygon fill="midnightblue" stroke="midnightblue" points="290.65,-148.32 299.2,-142.07 288.62,-141.63 290.65,-148.32"/>
</g>
<!-- Node23&#45;&gt;Node22 -->
<g id="edge26" class="edge">
<title>Node23&#45;&gt;Node22</title>
<path fill="none" stroke="midnightblue" d="M213.11,-132.52C237.98,-132.52 266.43,-132.52 289.27,-132.52"/>
<polygon fill="midnightblue" stroke="midnightblue" points="289.33,-136.02 299.33,-132.52 289.33,-129.02 289.33,-136.02"/>
</g>
<!-- Node24 -->
<g id="node24" class="node">
<title>Node24</title>
<g id="a_node24"><a target="_blank" xlink:href="http://en.cppreference.com/w/cpp/io/manip/endl.html#" xlink:title=" ">
<polygon fill="white" stroke="black" points="306,-85.02 306,-104.02 360,-104.02 360,-85.02 306,-85.02"/>
<text text-anchor="middle" x="333" y="-92.02" font-family="Helvetica,sans-Serif" font-size="10.00">std::endl</text>
</a>
</g>
</g>
<!-- Node23&#45;&gt;Node24 -->
<g id="edge25" class="edge">
<title>Node23&#45;&gt;Node24</title>
<path fill="none" stroke="midnightblue" d="M213.11,-119.97C240.38,-114.13 271.96,-107.37 295.71,-102.29"/>
<polygon fill="midnightblue" stroke="midnightblue" points="296.66,-105.67 305.7,-100.15 295.19,-98.82 296.66,-105.67"/>
</g>
<!-- Node25&#45;&gt;Node2 -->
<g id="edge28" class="edge">
<title>Node25&#45;&gt;Node2</title>
<path fill="none" stroke="midnightblue" d="M197.92,-47.22C227.99,-40.79 267.56,-32.32 295.9,-26.25"/>
<polygon fill="midnightblue" stroke="midnightblue" points="296.75,-29.65 305.8,-24.13 295.29,-22.8 296.75,-29.65"/>
</g>
<!-- Node25&#45;&gt;Node3 -->
<g id="edge29" class="edge">
<title>Node25&#45;&gt;Node3</title>
<path fill="none" stroke="midnightblue" d="M197.74,-54.08C264.42,-50.3 391.19,-43.14 453.73,-39.6"/>
<polygon fill="midnightblue" stroke="midnightblue" points="454.13,-43.08 463.91,-39.02 453.73,-36.09 454.13,-43.08"/>
</g>
</g>
</svg>
        <g id="navigator" transform="translate(0 0)" fill="#404254">
                <rect fill="#f2f5e9" fill-opacity="0.5" stroke="#606060" stroke-width=".5" x="0" y="0" width="60" height="60"/>
                <use id="zoomplus" xlink:href="#zoomPlus" x="17" y="9" onmousedown="handleZoom(evt,'in')"/>
                <use id="zoomminus" xlink:href="#zoomMin" x="42" y="9" onmousedown="handleZoom(evt,'out')"/>
                <use id="reset" xlink:href="#resetDef" x="30" y="36" onmousedown="handleReset()"/>
                <g id="arrowUp" xlink:href="#dirArrow" transform="translate(30 24)" onmousedown="handlePan(0,-1)">
                  <use xlink:href="#rim" fill="#404040">
                        <set attributeName="fill" to="#808080" begin="arrowUp.mouseover" end="arrowUp.mouseout"/>
                  </use>
                  <path fill="none" stroke="white" stroke-width="1.5" d="M0,-3.0v7 M-2.5,-0.5L0,-3.0L2.5,-0.5"/>
                </g>
                <g id="arrowRight" xlink:href="#dirArrow" transform="rotate(90) translate(36 -43)" onmousedown="handlePan(1,0)">
                  <use xlink:href="#rim" fill="#404040">
                        <set attributeName="fill" to="#808080" begin="arrowRight.mouseover" end="arrowRight.mouseout"/>
                  </use>
                  <path fill="none" stroke="white" stroke-width="1.5" d="M0,-3.0v7 M-2.5,-0.5L0,-3.0L2.5,-0.5"/>
                </g>
                <g id="arrowDown" xlink:href="#dirArrow" transform="rotate(180) translate(-30 -48)" onmousedown="handlePan(0,1)">
                  <use xlink:href="#rim" fill="#404040">
                        <set attributeName="fill" to="#808080" begin="arrowDown.mouseover" end="arrowDown.mouseout"/>
                  </use>
                  <path fill="none" stroke="white" stroke-width="1.5" d="M0,-3.0v7 M-2.5,-0.5L0,-3.0L2.5,-0.5"/>
                </g>
                <g id="arrowLeft" xlink:href="#dirArrow" transform="rotate(270) translate(-36 17)" onmousedown="handlePan(-1,0)">
                  <use xlink:href="#rim" fill="#404040">
                        <set attributeName="fill" to="#808080" begin="arrowLeft.mouseover" end="arrowLeft.mouseout"/>
                  </use>
                  <path fill="none" stroke="white" stroke-width="1.5" d="M0,-3.0v7 M-2.5,-0.5L0,-3.0L2.5,-0.5"/>
                </g>
        </g>
        <svg viewBox="0 0 15 15" width="100%" height="30px" preserveAspectRatio="xMaxYMin meet">
         <g id="arrow_out" transform="scale(0.3 0.3)">
          <a xlink:href="kohonen__som__topology_8cpp_a1440a7779ac56f47a3f355ce4a8c7da0_cgraph_org.svg" target="_base">
           <rect id="button" ry="5" rx="5" y="6" x="6" height="38" width="38"
                fill="#f2f5e9" fill-opacity="0.5" stroke="#606060" stroke-width="1.0"/>
           <path id="arrow"
             d="M 11.500037,31.436501 C 11.940474,20.09759 22.043105,11.32322 32.158766,21.979434 L 37.068811,17.246167 C 37.068811,17.246167 37.088388,32 37.088388,32 L 22.160133,31.978069 C 22.160133,31.978069 26.997745,27.140456 26.997745,27.140456 C 18.528582,18.264221 13.291696,25.230495 11.500037,31.436501 z"
             style="fill:#404040;"/>
          </a>
         </g>
        </svg>
</svg>
