<?xml version="1.0" encoding="UTF-8" standalone="no"?>
<!DOCTYPE svg PUBLIC "-//W3C//DTD SVG 1.1//EN"
 "http://www.w3.org/Graphics/SVG/1.1/DTD/svg11.dtd">
<!-- Generated by graphviz version 5.0.0 (20220707.1540)
 -->
<!-- Title: math::binomial::calculate Pages: 1 -->
<svg width="288pt" height="66pt"
 viewBox="0.00 0.00 288.00 66.00" xmlns="http://www.w3.org/2000/svg" xmlns:xlink="http://www.w3.org/1999/xlink">
<g id="graph0" class="graph" transform="scale(1 1) rotate(0) translate(4 62)">
<title>math::binomial::calculate</title>
<polygon fill="white" stroke="transparent" points="-4,4 -4,-62 284,-62 284,4 -4,4"/>
<!-- Node1 -->
<g id="node1" class="node">
<title>Node1</title>
<g id="a_node1"><a xlink:title="Function to calculate binomial coefficients.">
<polygon fill="#bfbfbf" stroke="black" points="0,-19.5 0,-38.5 125,-38.5 125,-19.5 0,-19.5"/>
<text text-anchor="middle" x="62.5" y="-26.5" font-family="Helvetica,sans-Serif" font-size="10.00">math::binomial::calculate</text>
</a>
</g>
</g>
<!-- Node1&#45;&gt;Node1 -->
<g id="edge1" class="edge">
<title>Node1&#45;&gt;Node1</title>
<path fill="none" stroke="midnightblue" d="M45.24,-38.76C36.84,-47.57 42.59,-57 62.5,-57 74.94,-57 81.85,-53.31 83.24,-48.4"/>
<polygon fill="midnightblue" stroke="midnightblue" points="86.45,-46.98 79.76,-38.76 79.86,-49.35 86.45,-46.98"/>
</g>
<!-- Node2 -->
<g id="node2" class="node">
<title>Node2</title>
<g id="a_node2"><a xlink:href="../../d4/d18/composite__simpson__rule_8cpp.html#a6d50f1b8eb533b54721812d16a3699cc" target="_top" xlink:title="Another test function.">
<polygon fill="white" stroke="black" points="161,-19.5 161,-38.5 190,-38.5 190,-19.5 161,-19.5"/>
<text text-anchor="middle" x="175.5" y="-26.5" font-family="Helvetica,sans-Serif" font-size="10.00">k</text>
</a>
</g>
</g>
<!-- Node1&#45;&gt;Node2 -->
<g id="edge2" class="edge">
<title>Node1&#45;&gt;Node2</title>
<path fill="none" stroke="midnightblue" d="M125.17,-29C134.15,-29 142.92,-29 150.51,-29"/>
<polygon fill="midnightblue" stroke="midnightblue" points="150.68,-32.5 160.68,-29 150.68,-25.5 150.68,-32.5"/>
</g>
<!-- Node3 -->
<g id="node3" class="node">
<title>Node3</title>
<g id="a_node3"><a target="_blank" xlink:href="http://en.cppreference.com/w/cpp/numeric/math/pow.html#" xlink:title=" ">
<polygon fill="white" stroke="black" points="226,-38.5 226,-57.5 280,-57.5 280,-38.5 226,-38.5"/>
<text text-anchor="middle" x="253" y="-45.5" font-family="Helvetica,sans-Serif" font-size="10.00">std::pow</text>
</a>
</g>
</g>
<!-- Node2&#45;&gt;Node3 -->
<g id="edge3" class="edge">
<title>Node2&#45;&gt;Node3</title>
<path fill="none" stroke="midnightblue" d="M190.35,-32.48C197.6,-34.31 206.85,-36.64 215.97,-38.93"/>
<polygon fill="midnightblue" stroke="midnightblue" points="215.16,-42.34 225.71,-41.38 216.87,-35.55 215.16,-42.34"/>
</g>
<!-- Node4 -->
<g id="node4" class="node">
<title>Node4</title>
<g id="a_node4"><a target="_blank" xlink:href="http://en.cppreference.com/w/cpp/numeric/math/sqrt.html#" xlink:title=" ">
<polygon fill="white" stroke="black" points="226.5,-0.5 226.5,-19.5 279.5,-19.5 279.5,-0.5 226.5,-0.5"/>
<text text-anchor="middle" x="253" y="-7.5" font-family="Helvetica,sans-Serif" font-size="10.00">std::sqrt</text>
</a>
</g>
</g>
<!-- Node2&#45;&gt;Node4 -->
<g id="edge4" class="edge">
<title>Node2&#45;&gt;Node4</title>
<path fill="none" stroke="midnightblue" d="M190.35,-25.52C197.73,-23.66 207.17,-21.28 216.44,-18.95"/>
<polygon fill="midnightblue" stroke="midnightblue" points="217.48,-22.3 226.33,-16.46 215.78,-15.51 217.48,-22.3"/>
</g>
</g>
</svg>
