<?xml version="1.0" encoding="UTF-8" standalone="no"?>
<!DOCTYPE svg PUBLIC "-//W3C//DTD SVG 1.1//EN"
 "http://www.w3.org/Graphics/SVG/1.1/DTD/svg11.dtd">
<!-- Generated by graphviz version 5.0.0 (20220707.1540)
 -->
<!-- Title: main Pages: 1 -->
<svg width="210pt" height="113pt"
 viewBox="0.00 0.00 210.00 113.00" xmlns="http://www.w3.org/2000/svg" xmlns:xlink="http://www.w3.org/1999/xlink">
<g id="graph0" class="graph" transform="scale(1 1) rotate(0) translate(4 109)">
<title>main</title>
<polygon fill="white" stroke="transparent" points="-4,4 -4,-109 206,-109 206,4 -4,4"/>
<!-- Node1 -->
<g id="node1" class="node">
<title>Node1</title>
<g id="a_node1"><a xlink:title="Main function.">
<polygon fill="#bfbfbf" stroke="black" points="0,-57.5 0,-76.5 38,-76.5 38,-57.5 0,-57.5"/>
<text text-anchor="middle" x="19" y="-64.5" font-family="Helvetica,sans-Serif" font-size="10.00">main</text>
</a>
</g>
</g>
<!-- Node2 -->
<g id="node2" class="node">
<title>Node2</title>
<g id="a_node2"><a target="_blank" xlink:href="http://en.cppreference.com/w/cpp/io/manip/endl.html#" xlink:title=" ">
<polygon fill="white" stroke="black" points="148,-85.5 148,-104.5 202,-104.5 202,-85.5 148,-85.5"/>
<text text-anchor="middle" x="175" y="-92.5" font-family="Helvetica,sans-Serif" font-size="10.00">std::endl</text>
</a>
</g>
</g>
<!-- Node1&#45;&gt;Node2 -->
<g id="edge1" class="edge">
<title>Node1&#45;&gt;Node2</title>
<path fill="none" stroke="midnightblue" d="M38.17,-74.66C48.49,-78.7 61.76,-83.34 74,-86 94.84,-90.53 118.6,-92.79 137.73,-93.91"/>
<polygon fill="midnightblue" stroke="midnightblue" points="137.67,-97.41 147.83,-94.42 138.02,-90.42 137.67,-97.41"/>
</g>
<!-- Node3 -->
<g id="node3" class="node">
<title>Node3</title>
<g id="a_node3"><a xlink:href="../../d4/d18/composite__simpson__rule_8cpp.html#a6d50f1b8eb533b54721812d16a3699cc" target="_top" xlink:title="Another test function.">
<polygon fill="white" stroke="black" points="78.5,-19.5 78.5,-38.5 107.5,-38.5 107.5,-19.5 78.5,-19.5"/>
<text text-anchor="middle" x="93" y="-26.5" font-family="Helvetica,sans-Serif" font-size="10.00">k</text>
</a>
</g>
</g>
<!-- Node1&#45;&gt;Node3 -->
<g id="edge2" class="edge">
<title>Node1&#45;&gt;Node3</title>
<path fill="none" stroke="midnightblue" d="M38.17,-57.41C47.64,-52.41 59.31,-46.25 69.37,-40.95"/>
<polygon fill="midnightblue" stroke="midnightblue" points="71.17,-43.95 78.38,-36.19 67.91,-37.76 71.17,-43.95"/>
</g>
<!-- Node6 -->
<g id="node6" class="node">
<title>Node6</title>
<g id="a_node6"><a xlink:href="../../d8/db1/binomial__calculate_8cpp.html#a483bb8ccf42aaf7375a83e91490eda1e" target="_top" xlink:title="Test implementations.">
<polygon fill="white" stroke="black" points="74,-57.5 74,-76.5 112,-76.5 112,-57.5 74,-57.5"/>
<text text-anchor="middle" x="93" y="-64.5" font-family="Helvetica,sans-Serif" font-size="10.00">tests</text>
</a>
</g>
</g>
<!-- Node1&#45;&gt;Node6 -->
<g id="edge5" class="edge">
<title>Node1&#45;&gt;Node6</title>
<path fill="none" stroke="midnightblue" d="M38.17,-67C45.87,-67 55.03,-67 63.58,-67"/>
<polygon fill="midnightblue" stroke="midnightblue" points="63.59,-70.5 73.59,-67 63.59,-63.5 63.59,-70.5"/>
</g>
<!-- Node4 -->
<g id="node4" class="node">
<title>Node4</title>
<g id="a_node4"><a target="_blank" xlink:href="http://en.cppreference.com/w/cpp/numeric/math/pow.html#" xlink:title=" ">
<polygon fill="white" stroke="black" points="148,-38.5 148,-57.5 202,-57.5 202,-38.5 148,-38.5"/>
<text text-anchor="middle" x="175" y="-45.5" font-family="Helvetica,sans-Serif" font-size="10.00">std::pow</text>
</a>
</g>
</g>
<!-- Node3&#45;&gt;Node4 -->
<g id="edge3" class="edge">
<title>Node3&#45;&gt;Node4</title>
<path fill="none" stroke="midnightblue" d="M107.57,-32.22C115.97,-34.22 127.18,-36.88 137.99,-39.45"/>
<polygon fill="midnightblue" stroke="midnightblue" points="137.18,-42.85 147.72,-41.76 138.8,-36.04 137.18,-42.85"/>
</g>
<!-- Node5 -->
<g id="node5" class="node">
<title>Node5</title>
<g id="a_node5"><a target="_blank" xlink:href="http://en.cppreference.com/w/cpp/numeric/math/sqrt.html#" xlink:title=" ">
<polygon fill="white" stroke="black" points="148.5,-0.5 148.5,-19.5 201.5,-19.5 201.5,-0.5 148.5,-0.5"/>
<text text-anchor="middle" x="175" y="-7.5" font-family="Helvetica,sans-Serif" font-size="10.00">std::sqrt</text>
</a>
</g>
</g>
<!-- Node3&#45;&gt;Node5 -->
<g id="edge4" class="edge">
<title>Node3&#45;&gt;Node5</title>
<path fill="none" stroke="midnightblue" d="M107.57,-25.78C116.1,-23.75 127.54,-21.03 138.52,-18.43"/>
<polygon fill="midnightblue" stroke="midnightblue" points="139.45,-21.8 148.37,-16.09 137.83,-14.99 139.45,-21.8"/>
</g>
<!-- Node6&#45;&gt;Node2 -->
<g id="edge6" class="edge">
<title>Node6&#45;&gt;Node2</title>
<path fill="none" stroke="midnightblue" d="M112.15,-73.35C119.87,-76.06 129.16,-79.3 138.16,-82.46"/>
<polygon fill="midnightblue" stroke="midnightblue" points="137.13,-85.8 147.73,-85.8 139.44,-79.2 137.13,-85.8"/>
</g>
</g>
</svg>
