<?xml version="1.0" encoding="UTF-8" standalone="no"?>
<!DOCTYPE svg PUBLIC "-//W3C//DTD SVG 1.1//EN"
 "http://www.w3.org/Graphics/SVG/1.1/DTD/svg11.dtd">
<!-- Generated by graphviz version 5.0.0 (20220707.1540)
 -->
<!-- Title: sorting::inversion::mergeSort Pages: 1 -->
<svg width="465pt" height="160pt"
 viewBox="0.00 0.00 465.00 160.21" xmlns="http://www.w3.org/2000/svg" xmlns:xlink="http://www.w3.org/1999/xlink">
<g id="graph0" class="graph" transform="scale(1 1) rotate(0) translate(4 156.21)">
<title>sorting::inversion::mergeSort</title>
<polygon fill="white" stroke="transparent" points="-4,4 -4,-156.21 461,-156.21 461,4 -4,4"/>
<!-- Node1 -->
<g id="node1" class="node">
<title>Node1</title>
<g id="a_node1"><a xlink:title="Implement merge Sort and count inverions while merging.">
<polygon fill="#bfbfbf" stroke="black" points="0,-90 0,-120 91,-120 91,-90 0,-90"/>
<text text-anchor="start" x="8" y="-108" font-family="Helvetica,sans-Serif" font-size="10.00">sorting::inversion</text>
<text text-anchor="middle" x="45.5" y="-97" font-family="Helvetica,sans-Serif" font-size="10.00">::mergeSort</text>
</a>
</g>
</g>
<!-- Node2 -->
<g id="node2" class="node">
<title>Node2</title>
<g id="a_node2"><a xlink:href="../../d5/d91/namespacesorting.html#aa26de383227859210f14dcf12201a079" target="_top" xlink:title="merges 2 sorted adjacent segments into a larger sorted segment">
<polygon fill="white" stroke="black" points="127,-123.5 127,-142.5 206,-142.5 206,-123.5 127,-123.5"/>
<text text-anchor="middle" x="166.5" y="-130.5" font-family="Helvetica,sans-Serif" font-size="10.00">sorting::merge</text>
</a>
</g>
</g>
<!-- Node1&#45;&gt;Node2 -->
<g id="edge1" class="edge">
<title>Node1&#45;&gt;Node2</title>
<path fill="none" stroke="midnightblue" d="M91.15,-115.51C99.59,-117.49 108.45,-119.58 117,-121.59"/>
<polygon fill="midnightblue" stroke="midnightblue" points="116.31,-125.02 126.85,-123.91 117.91,-118.21 116.31,-125.02"/>
</g>
<!-- Node6 -->
<g id="node6" class="node">
<title>Node6</title>
<g id="a_node6"><a xlink:href="../../d5/d4c/group__sorting.html#gab6b14fea48d9841e29b9fc26be6e05d7" target="_top" xlink:title=" ">
<polygon fill="white" stroke="black" points="135.5,-67.5 135.5,-86.5 197.5,-86.5 197.5,-67.5 135.5,-67.5"/>
<text text-anchor="middle" x="166.5" y="-74.5" font-family="Helvetica,sans-Serif" font-size="10.00">mergeSort</text>
</a>
</g>
</g>
<!-- Node1&#45;&gt;Node6 -->
<g id="edge5" class="edge">
<title>Node1&#45;&gt;Node6</title>
<path fill="none" stroke="midnightblue" d="M91.15,-94.49C102.46,-91.83 114.54,-88.99 125.59,-86.39"/>
<polygon fill="midnightblue" stroke="midnightblue" points="126.48,-89.78 135.41,-84.08 124.88,-82.96 126.48,-89.78"/>
</g>
<!-- Node3 -->
<g id="node3" class="node">
<title>Node3</title>
<g id="a_node3"><a xlink:href="../../d4/d18/composite__simpson__rule_8cpp.html#a995716bc040dc6cf32b5cb3df51c4529" target="_top" xlink:title="Another test function.">
<polygon fill="white" stroke="black" points="338,-76.5 338,-95.5 367,-95.5 367,-76.5 338,-76.5"/>
<text text-anchor="middle" x="352.5" y="-83.5" font-family="Helvetica,sans-Serif" font-size="10.00">l</text>
</a>
</g>
</g>
<!-- Node2&#45;&gt;Node3 -->
<g id="edge2" class="edge">
<title>Node2&#45;&gt;Node3</title>
<path fill="none" stroke="midnightblue" d="M195.15,-142.57C223.34,-150.65 267.7,-158.64 302,-143 319.27,-135.12 332.85,-117.91 341.38,-104.45"/>
<polygon fill="midnightblue" stroke="midnightblue" points="344.59,-105.89 346.68,-95.5 338.57,-102.32 344.59,-105.89"/>
</g>
<!-- Node5 -->
<g id="node5" class="node">
<title>Node5</title>
<g id="a_node5"><a target="_blank" xlink:href="http://en.cppreference.com/w/cpp/utility/move.html#" xlink:title=" ">
<polygon fill="white" stroke="black" points="242,-114.5 242,-133.5 302,-133.5 302,-114.5 242,-114.5"/>
<text text-anchor="middle" x="272" y="-121.5" font-family="Helvetica,sans-Serif" font-size="10.00">std::move</text>
</a>
</g>
</g>
<!-- Node2&#45;&gt;Node5 -->
<g id="edge4" class="edge">
<title>Node2&#45;&gt;Node5</title>
<path fill="none" stroke="midnightblue" d="M206.04,-129.65C214.46,-128.92 223.37,-128.14 231.82,-127.41"/>
<polygon fill="midnightblue" stroke="midnightblue" points="232.15,-130.89 241.81,-126.54 231.55,-123.92 232.15,-130.89"/>
</g>
<!-- Node4 -->
<g id="node4" class="node">
<title>Node4</title>
<g id="a_node4"><a target="_blank" xlink:href="http://en.cppreference.com/w/cpp/numeric/math/log.html#" xlink:title=" ">
<polygon fill="white" stroke="black" points="405.5,-76.5 405.5,-95.5 454.5,-95.5 454.5,-76.5 405.5,-76.5"/>
<text text-anchor="middle" x="430" y="-83.5" font-family="Helvetica,sans-Serif" font-size="10.00">std::log</text>
</a>
</g>
</g>
<!-- Node3&#45;&gt;Node4 -->
<g id="edge3" class="edge">
<title>Node3&#45;&gt;Node4</title>
<path fill="none" stroke="midnightblue" d="M367.35,-86C375.25,-86 385.52,-86 395.4,-86"/>
<polygon fill="midnightblue" stroke="midnightblue" points="395.45,-89.5 405.45,-86 395.45,-82.5 395.45,-89.5"/>
</g>
<!-- Node6&#45;&gt;Node3 -->
<g id="edge6" class="edge">
<title>Node6&#45;&gt;Node3</title>
<path fill="none" stroke="midnightblue" d="M197.88,-78.49C234.2,-80.26 294.22,-83.2 327.47,-84.82"/>
<polygon fill="midnightblue" stroke="midnightblue" points="327.48,-88.33 337.64,-85.32 327.82,-81.34 327.48,-88.33"/>
</g>
<!-- Node6&#45;&gt;Node6 -->
<g id="edge12" class="edge">
<title>Node6&#45;&gt;Node6</title>
<path fill="none" stroke="midnightblue" d="M150.47,-86.76C142.67,-95.57 148.02,-105 166.5,-105 178.05,-105 184.47,-101.31 185.76,-96.4"/>
<polygon fill="midnightblue" stroke="midnightblue" points="189.02,-95.13 182.53,-86.76 182.39,-97.35 189.02,-95.13"/>
</g>
<!-- Node7 -->
<g id="node7" class="node">
<title>Node7</title>
<g id="a_node7"><a xlink:href="../../d5/d4c/group__sorting.html#ga460c61cd948203b4816bef2accb3fc73" target="_top" xlink:title=" ">
<polygon fill="white" stroke="black" points="250,-38.5 250,-57.5 294,-57.5 294,-38.5 250,-38.5"/>
<text text-anchor="middle" x="272" y="-45.5" font-family="Helvetica,sans-Serif" font-size="10.00">merge</text>
</a>
</g>
</g>
<!-- Node6&#45;&gt;Node7 -->
<g id="edge7" class="edge">
<title>Node6&#45;&gt;Node7</title>
<path fill="none" stroke="midnightblue" d="M197.71,-68.53C211.03,-64.8 226.66,-60.43 240.05,-56.67"/>
<polygon fill="midnightblue" stroke="midnightblue" points="241.1,-60.01 249.79,-53.94 239.21,-53.27 241.1,-60.01"/>
</g>
<!-- Node7&#45;&gt;Node3 -->
<g id="edge11" class="edge">
<title>Node7&#45;&gt;Node3</title>
<path fill="none" stroke="midnightblue" d="M292.81,-57.59C303.63,-62.83 317.09,-69.34 328.38,-74.81"/>
<polygon fill="midnightblue" stroke="midnightblue" points="327.11,-78.08 337.64,-79.29 330.16,-71.78 327.11,-78.08"/>
</g>
<!-- Node8 -->
<g id="node8" class="node">
<title>Node8</title>
<g id="a_node8"><a xlink:href="../../d4/d18/composite__simpson__rule_8cpp.html#a6d50f1b8eb533b54721812d16a3699cc" target="_top" xlink:title="Another test function.">
<polygon fill="white" stroke="black" points="338,-38.5 338,-57.5 367,-57.5 367,-38.5 338,-38.5"/>
<text text-anchor="middle" x="352.5" y="-45.5" font-family="Helvetica,sans-Serif" font-size="10.00">k</text>
</a>
</g>
</g>
<!-- Node7&#45;&gt;Node8 -->
<g id="edge8" class="edge">
<title>Node7&#45;&gt;Node8</title>
<path fill="none" stroke="midnightblue" d="M294.04,-48C304.28,-48 316.66,-48 327.3,-48"/>
<polygon fill="midnightblue" stroke="midnightblue" points="327.59,-51.5 337.59,-48 327.59,-44.5 327.59,-51.5"/>
</g>
<!-- Node9 -->
<g id="node9" class="node">
<title>Node9</title>
<g id="a_node9"><a target="_blank" xlink:href="http://en.cppreference.com/w/cpp/numeric/math/pow.html#" xlink:title=" ">
<polygon fill="white" stroke="black" points="403,-38.5 403,-57.5 457,-57.5 457,-38.5 403,-38.5"/>
<text text-anchor="middle" x="430" y="-45.5" font-family="Helvetica,sans-Serif" font-size="10.00">std::pow</text>
</a>
</g>
</g>
<!-- Node8&#45;&gt;Node9 -->
<g id="edge9" class="edge">
<title>Node8&#45;&gt;Node9</title>
<path fill="none" stroke="midnightblue" d="M367.35,-48C374.52,-48 383.66,-48 392.68,-48"/>
<polygon fill="midnightblue" stroke="midnightblue" points="392.71,-51.5 402.71,-48 392.71,-44.5 392.71,-51.5"/>
</g>
<!-- Node10 -->
<g id="node10" class="node">
<title>Node10</title>
<g id="a_node10"><a target="_blank" xlink:href="http://en.cppreference.com/w/cpp/numeric/math/sqrt.html#" xlink:title=" ">
<polygon fill="white" stroke="black" points="403.5,-0.5 403.5,-19.5 456.5,-19.5 456.5,-0.5 403.5,-0.5"/>
<text text-anchor="middle" x="430" y="-7.5" font-family="Helvetica,sans-Serif" font-size="10.00">std::sqrt</text>
</a>
</g>
</g>
<!-- Node8&#45;&gt;Node10 -->
<g id="edge10" class="edge">
<title>Node8&#45;&gt;Node10</title>
<path fill="none" stroke="midnightblue" d="M367.35,-41.03C376.73,-36.31 389.45,-29.91 400.9,-24.14"/>
<polygon fill="midnightblue" stroke="midnightblue" points="402.76,-27.12 410.12,-19.5 399.62,-20.87 402.76,-27.12"/>
</g>
</g>
</svg>
