<?xml version="1.0" encoding="UTF-8" standalone="no"?>
<!DOCTYPE svg PUBLIC "-//W3C//DTD SVG 1.1//EN"
 "http://www.w3.org/Graphics/SVG/1.1/DTD/svg11.dtd">
<!-- Generated by graphviz version 5.0.0 (20220707.1540)
 -->
<!-- Title: sorting::inversion::merge Pages: 1 -->
<svg width="254pt" height="66pt"
 viewBox="0.00 0.00 254.00 66.00" xmlns="http://www.w3.org/2000/svg" xmlns:xlink="http://www.w3.org/1999/xlink">
<g id="graph0" class="graph" transform="scale(1 1) rotate(0) translate(4 62)">
<title>sorting::inversion::merge</title>
<polygon fill="white" stroke="transparent" points="-4,4 -4,-62 250,-62 250,4 -4,4"/>
<!-- Node1 -->
<g id="node1" class="node">
<title>Node1</title>
<g id="a_node1"><a xlink:title="Function to merge two sub&#45;arrays.">
<polygon fill="#bfbfbf" stroke="black" points="0,-14 0,-44 91,-44 91,-14 0,-14"/>
<text text-anchor="start" x="8" y="-32" font-family="Helvetica,sans-Serif" font-size="10.00">sorting::inversion</text>
<text text-anchor="middle" x="45.5" y="-21" font-family="Helvetica,sans-Serif" font-size="10.00">::merge</text>
</a>
</g>
</g>
<!-- Node2 -->
<g id="node2" class="node">
<title>Node2</title>
<g id="a_node2"><a xlink:href="../../d4/d18/composite__simpson__rule_8cpp.html#a6d50f1b8eb533b54721812d16a3699cc" target="_top" xlink:title="Another test function.">
<polygon fill="white" stroke="black" points="127,-19.5 127,-38.5 156,-38.5 156,-19.5 127,-19.5"/>
<text text-anchor="middle" x="141.5" y="-26.5" font-family="Helvetica,sans-Serif" font-size="10.00">k</text>
</a>
</g>
</g>
<!-- Node1&#45;&gt;Node2 -->
<g id="edge1" class="edge">
<title>Node1&#45;&gt;Node2</title>
<path fill="none" stroke="midnightblue" d="M91.02,-29C99.8,-29 108.68,-29 116.46,-29"/>
<polygon fill="midnightblue" stroke="midnightblue" points="116.59,-32.5 126.59,-29 116.59,-25.5 116.59,-32.5"/>
</g>
<!-- Node3 -->
<g id="node3" class="node">
<title>Node3</title>
<g id="a_node3"><a target="_blank" xlink:href="http://en.cppreference.com/w/cpp/numeric/math/pow.html#" xlink:title=" ">
<polygon fill="white" stroke="black" points="192,-38.5 192,-57.5 246,-57.5 246,-38.5 192,-38.5"/>
<text text-anchor="middle" x="219" y="-45.5" font-family="Helvetica,sans-Serif" font-size="10.00">std::pow</text>
</a>
</g>
</g>
<!-- Node2&#45;&gt;Node3 -->
<g id="edge2" class="edge">
<title>Node2&#45;&gt;Node3</title>
<path fill="none" stroke="midnightblue" d="M156.35,-32.48C163.6,-34.31 172.85,-36.64 181.97,-38.93"/>
<polygon fill="midnightblue" stroke="midnightblue" points="181.16,-42.34 191.71,-41.38 182.87,-35.55 181.16,-42.34"/>
</g>
<!-- Node4 -->
<g id="node4" class="node">
<title>Node4</title>
<g id="a_node4"><a target="_blank" xlink:href="http://en.cppreference.com/w/cpp/numeric/math/sqrt.html#" xlink:title=" ">
<polygon fill="white" stroke="black" points="192.5,-0.5 192.5,-19.5 245.5,-19.5 245.5,-0.5 192.5,-0.5"/>
<text text-anchor="middle" x="219" y="-7.5" font-family="Helvetica,sans-Serif" font-size="10.00">std::sqrt</text>
</a>
</g>
</g>
<!-- Node2&#45;&gt;Node4 -->
<g id="edge3" class="edge">
<title>Node2&#45;&gt;Node4</title>
<path fill="none" stroke="midnightblue" d="M156.35,-25.52C163.73,-23.66 173.17,-21.28 182.44,-18.95"/>
<polygon fill="midnightblue" stroke="midnightblue" points="183.48,-22.3 192.33,-16.46 181.78,-15.51 183.48,-22.3"/>
</g>
</g>
</svg>
