<?xml version="1.0" encoding="UTF-8" standalone="no"?>
<!DOCTYPE svg PUBLIC "-//W3C//DTD SVG 1.1//EN"
 "http://www.w3.org/Graphics/SVG/1.1/DTD/svg11.dtd">
<!-- Generated by graphviz version 5.0.0 (20220707.1540)
 -->
<!-- Title: range_queries::heavy_light_decomposition::Tree::init Pages: 1 -->
<svg width="419pt" height="146pt"
 viewBox="0.00 0.00 419.00 146.00" xmlns="http://www.w3.org/2000/svg" xmlns:xlink="http://www.w3.org/1999/xlink">
<g id="graph0" class="graph" transform="scale(1 1) rotate(0) translate(4 142)">
<title>range_queries::heavy_light_decomposition::Tree::init</title>
<polygon fill="white" stroke="transparent" points="-4,4 -4,-142 415,-142 415,4 -4,4"/>
<!-- Node1 -->
<g id="node1" class="node">
<title>Node1</title>
<g id="a_node1"><a xlink:title="This function must be called after the tree adjacency list and node values are populated The function...">
<polygon fill="#bfbfbf" stroke="black" points="0,-39.5 0,-80.5 110,-80.5 110,-39.5 0,-39.5"/>
<text text-anchor="start" x="8" y="-68.5" font-family="Helvetica,sans-Serif" font-size="10.00">range_queries::heavy</text>
<text text-anchor="start" x="8" y="-57.5" font-family="Helvetica,sans-Serif" font-size="10.00">_light_decomposition</text>
<text text-anchor="middle" x="55" y="-46.5" font-family="Helvetica,sans-Serif" font-size="10.00">::Tree::init</text>
</a>
</g>
</g>
<!-- Node2 -->
<g id="node2" class="node">
<title>Node2</title>
<g id="a_node2"><a xlink:href="../../d1/d51/classrange__queries_1_1heavy__light__decomposition_1_1_tree.html#ae8de7aefcb6635d3dacdd174cd4890c4" target="_top" xlink:title="Utility function to populate the t_par vector.">
<polygon fill="white" stroke="black" points="146,-78.5 146,-119.5 256,-119.5 256,-78.5 146,-78.5"/>
<text text-anchor="start" x="154" y="-107.5" font-family="Helvetica,sans-Serif" font-size="10.00">range_queries::heavy</text>
<text text-anchor="start" x="154" y="-96.5" font-family="Helvetica,sans-Serif" font-size="10.00">_light_decomposition</text>
<text text-anchor="middle" x="201" y="-85.5" font-family="Helvetica,sans-Serif" font-size="10.00">::Tree::dfs_lca</text>
</a>
</g>
</g>
<!-- Node1&#45;&gt;Node2 -->
<g id="edge1" class="edge">
<title>Node1&#45;&gt;Node2</title>
<path fill="none" stroke="midnightblue" d="M110.03,-74.63C118.5,-76.93 127.32,-79.31 135.98,-81.66"/>
<polygon fill="midnightblue" stroke="midnightblue" points="135.1,-85.05 145.67,-84.28 136.93,-78.29 135.1,-85.05"/>
</g>
<!-- Node6 -->
<g id="node6" class="node">
<title>Node6</title>
<g id="a_node6"><a xlink:href="../../d1/d51/classrange__queries_1_1heavy__light__decomposition_1_1_tree.html#aa339c31ec74cd86a4842a8b09653d460" target="_top" xlink:title="Utility function to compute sub&#45;tree sizes.">
<polygon fill="white" stroke="black" points="146,-0.5 146,-41.5 256,-41.5 256,-0.5 146,-0.5"/>
<text text-anchor="start" x="154" y="-29.5" font-family="Helvetica,sans-Serif" font-size="10.00">range_queries::heavy</text>
<text text-anchor="start" x="154" y="-18.5" font-family="Helvetica,sans-Serif" font-size="10.00">_light_decomposition</text>
<text text-anchor="middle" x="201" y="-7.5" font-family="Helvetica,sans-Serif" font-size="10.00">::Tree::dfs_size</text>
</a>
</g>
</g>
<!-- Node1&#45;&gt;Node6 -->
<g id="edge6" class="edge">
<title>Node1&#45;&gt;Node6</title>
<path fill="none" stroke="midnightblue" d="M110.03,-45.37C118.5,-43.07 127.32,-40.69 135.98,-38.34"/>
<polygon fill="midnightblue" stroke="midnightblue" points="136.93,-41.71 145.67,-35.72 135.1,-34.95 136.93,-41.71"/>
</g>
<!-- Node2&#45;&gt;Node2 -->
<g id="edge2" class="edge">
<title>Node2&#45;&gt;Node2</title>
<path fill="none" stroke="midnightblue" d="M181.89,-119.86C179.8,-129.54 186.17,-138 201,-138 210.27,-138 216.23,-134.7 218.89,-129.86"/>
<polygon fill="midnightblue" stroke="midnightblue" points="222.37,-130.22 220.11,-119.86 215.43,-129.37 222.37,-130.22"/>
</g>
<!-- Node3 -->
<g id="node3" class="node">
<title>Node3</title>
<g id="a_node3"><a xlink:href="../../d4/d18/composite__simpson__rule_8cpp.html#a6d50f1b8eb533b54721812d16a3699cc" target="_top" xlink:title="Another test function.">
<polygon fill="white" stroke="black" points="292,-89.5 292,-108.5 321,-108.5 321,-89.5 292,-89.5"/>
<text text-anchor="middle" x="306.5" y="-96.5" font-family="Helvetica,sans-Serif" font-size="10.00">k</text>
</a>
</g>
</g>
<!-- Node2&#45;&gt;Node3 -->
<g id="edge3" class="edge">
<title>Node2&#45;&gt;Node3</title>
<path fill="none" stroke="midnightblue" d="M256.17,-99C265.22,-99 274.16,-99 281.9,-99"/>
<polygon fill="midnightblue" stroke="midnightblue" points="281.92,-102.5 291.92,-99 281.92,-95.5 281.92,-102.5"/>
</g>
<!-- Node4 -->
<g id="node4" class="node">
<title>Node4</title>
<g id="a_node4"><a target="_blank" xlink:href="http://en.cppreference.com/w/cpp/numeric/math/pow.html#" xlink:title=" ">
<polygon fill="white" stroke="black" points="357,-108.5 357,-127.5 411,-127.5 411,-108.5 357,-108.5"/>
<text text-anchor="middle" x="384" y="-115.5" font-family="Helvetica,sans-Serif" font-size="10.00">std::pow</text>
</a>
</g>
</g>
<!-- Node3&#45;&gt;Node4 -->
<g id="edge4" class="edge">
<title>Node3&#45;&gt;Node4</title>
<path fill="none" stroke="midnightblue" d="M321.35,-102.48C328.6,-104.31 337.85,-106.64 346.97,-108.93"/>
<polygon fill="midnightblue" stroke="midnightblue" points="346.16,-112.34 356.71,-111.38 347.87,-105.55 346.16,-112.34"/>
</g>
<!-- Node5 -->
<g id="node5" class="node">
<title>Node5</title>
<g id="a_node5"><a target="_blank" xlink:href="http://en.cppreference.com/w/cpp/numeric/math/sqrt.html#" xlink:title=" ">
<polygon fill="white" stroke="black" points="357.5,-70.5 357.5,-89.5 410.5,-89.5 410.5,-70.5 357.5,-70.5"/>
<text text-anchor="middle" x="384" y="-77.5" font-family="Helvetica,sans-Serif" font-size="10.00">std::sqrt</text>
</a>
</g>
</g>
<!-- Node3&#45;&gt;Node5 -->
<g id="edge5" class="edge">
<title>Node3&#45;&gt;Node5</title>
<path fill="none" stroke="midnightblue" d="M321.35,-95.52C328.73,-93.66 338.17,-91.28 347.44,-88.95"/>
<polygon fill="midnightblue" stroke="midnightblue" points="348.48,-92.3 357.33,-86.46 346.78,-85.51 348.48,-92.3"/>
</g>
<!-- Node6&#45;&gt;Node6 -->
<g id="edge7" class="edge">
<title>Node6&#45;&gt;Node6</title>
<path fill="none" stroke="midnightblue" d="M181.89,-41.86C179.8,-51.54 186.17,-60 201,-60 210.27,-60 216.23,-56.7 218.89,-51.86"/>
<polygon fill="midnightblue" stroke="midnightblue" points="222.37,-52.22 220.11,-41.86 215.43,-51.37 222.37,-52.22"/>
</g>
</g>
</svg>
