<?xml version="1.0" encoding="UTF-8" standalone="no"?>
<!DOCTYPE svg PUBLIC "-//W3C//DTD SVG 1.1//EN"
 "http://www.w3.org/Graphics/SVG/1.1/DTD/svg11.dtd">
<!-- Generated by graphviz version 5.0.0 (20220707.1540)
 -->
<!-- Title: range_queries::heavy_light_decomposition::Tree::dfs_lca Pages: 1 -->
<svg width="273pt" height="76pt"
 viewBox="0.00 0.00 273.00 76.00" xmlns="http://www.w3.org/2000/svg" xmlns:xlink="http://www.w3.org/1999/xlink">
<g id="graph0" class="graph" transform="scale(1 1) rotate(0) translate(4 72)">
<title>range_queries::heavy_light_decomposition::Tree::dfs_lca</title>
<polygon fill="white" stroke="transparent" points="-4,4 -4,-72 269,-72 269,4 -4,4"/>
<!-- Node1 -->
<g id="node1" class="node">
<title>Node1</title>
<g id="a_node1"><a xlink:title="Utility function to populate the t_par vector.">
<polygon fill="#bfbfbf" stroke="black" points="0,-8.5 0,-49.5 110,-49.5 110,-8.5 0,-8.5"/>
<text text-anchor="start" x="8" y="-37.5" font-family="Helvetica,sans-Serif" font-size="10.00">range_queries::heavy</text>
<text text-anchor="start" x="8" y="-26.5" font-family="Helvetica,sans-Serif" font-size="10.00">_light_decomposition</text>
<text text-anchor="middle" x="55" y="-15.5" font-family="Helvetica,sans-Serif" font-size="10.00">::Tree::dfs_lca</text>
</a>
</g>
</g>
<!-- Node1&#45;&gt;Node1 -->
<g id="edge1" class="edge">
<title>Node1&#45;&gt;Node1</title>
<path fill="none" stroke="midnightblue" d="M35.89,-49.86C33.8,-59.54 40.17,-68 55,-68 64.27,-68 70.23,-64.7 72.89,-59.86"/>
<polygon fill="midnightblue" stroke="midnightblue" points="76.37,-60.22 74.11,-49.86 69.43,-59.37 76.37,-60.22"/>
</g>
<!-- Node2 -->
<g id="node2" class="node">
<title>Node2</title>
<g id="a_node2"><a xlink:href="../../d4/d18/composite__simpson__rule_8cpp.html#a6d50f1b8eb533b54721812d16a3699cc" target="_top" xlink:title="Another test function.">
<polygon fill="white" stroke="black" points="146,-19.5 146,-38.5 175,-38.5 175,-19.5 146,-19.5"/>
<text text-anchor="middle" x="160.5" y="-26.5" font-family="Helvetica,sans-Serif" font-size="10.00">k</text>
</a>
</g>
</g>
<!-- Node1&#45;&gt;Node2 -->
<g id="edge2" class="edge">
<title>Node1&#45;&gt;Node2</title>
<path fill="none" stroke="midnightblue" d="M110.17,-29C119.22,-29 128.16,-29 135.9,-29"/>
<polygon fill="midnightblue" stroke="midnightblue" points="135.92,-32.5 145.92,-29 135.92,-25.5 135.92,-32.5"/>
</g>
<!-- Node3 -->
<g id="node3" class="node">
<title>Node3</title>
<g id="a_node3"><a target="_blank" xlink:href="http://en.cppreference.com/w/cpp/numeric/math/pow.html#" xlink:title=" ">
<polygon fill="white" stroke="black" points="211,-38.5 211,-57.5 265,-57.5 265,-38.5 211,-38.5"/>
<text text-anchor="middle" x="238" y="-45.5" font-family="Helvetica,sans-Serif" font-size="10.00">std::pow</text>
</a>
</g>
</g>
<!-- Node2&#45;&gt;Node3 -->
<g id="edge3" class="edge">
<title>Node2&#45;&gt;Node3</title>
<path fill="none" stroke="midnightblue" d="M175.35,-32.48C182.6,-34.31 191.85,-36.64 200.97,-38.93"/>
<polygon fill="midnightblue" stroke="midnightblue" points="200.16,-42.34 210.71,-41.38 201.87,-35.55 200.16,-42.34"/>
</g>
<!-- Node4 -->
<g id="node4" class="node">
<title>Node4</title>
<g id="a_node4"><a target="_blank" xlink:href="http://en.cppreference.com/w/cpp/numeric/math/sqrt.html#" xlink:title=" ">
<polygon fill="white" stroke="black" points="211.5,-0.5 211.5,-19.5 264.5,-19.5 264.5,-0.5 211.5,-0.5"/>
<text text-anchor="middle" x="238" y="-7.5" font-family="Helvetica,sans-Serif" font-size="10.00">std::sqrt</text>
</a>
</g>
</g>
<!-- Node2&#45;&gt;Node4 -->
<g id="edge4" class="edge">
<title>Node2&#45;&gt;Node4</title>
<path fill="none" stroke="midnightblue" d="M175.35,-25.52C182.73,-23.66 192.17,-21.28 201.44,-18.95"/>
<polygon fill="midnightblue" stroke="midnightblue" points="202.48,-22.3 211.33,-16.46 200.78,-15.51 202.48,-22.3"/>
</g>
</g>
</svg>
