<?xml version="1.0" encoding="UTF-8" standalone="no"?>
<!DOCTYPE svg PUBLIC "-//W3C//DTD SVG 1.1//EN"
 "http://www.w3.org/Graphics/SVG/1.1/DTD/svg11.dtd">
<!-- Generated by graphviz version 5.0.0 (20220707.1540)
 -->
<!-- Title: range_queries::heavy_light_decomposition::Tree::lca Pages: 1 -->
<svg width="419pt" height="82pt"
 viewBox="0.00 0.00 419.00 82.00" xmlns="http://www.w3.org/2000/svg" xmlns:xlink="http://www.w3.org/1999/xlink">
<g id="graph0" class="graph" transform="scale(1 1) rotate(0) translate(4 78)">
<title>range_queries::heavy_light_decomposition::Tree::lca</title>
<polygon fill="white" stroke="transparent" points="-4,4 -4,-78 415,-78 415,4 -4,4"/>
<!-- Node1 -->
<g id="node1" class="node">
<title>Node1</title>
<g id="a_node1"><a xlink:title="The function returns the least common ancestor of two nodes.">
<polygon fill="#bfbfbf" stroke="black" points="0,-24.5 0,-65.5 110,-65.5 110,-24.5 0,-24.5"/>
<text text-anchor="start" x="8" y="-53.5" font-family="Helvetica,sans-Serif" font-size="10.00">range_queries::heavy</text>
<text text-anchor="start" x="8" y="-42.5" font-family="Helvetica,sans-Serif" font-size="10.00">_light_decomposition</text>
<text text-anchor="middle" x="55" y="-31.5" font-family="Helvetica,sans-Serif" font-size="10.00">::Tree::lca</text>
</a>
</g>
</g>
<!-- Node2 -->
<g id="node2" class="node">
<title>Node2</title>
<g id="a_node2"><a xlink:href="../../d4/d18/composite__simpson__rule_8cpp.html#a6d50f1b8eb533b54721812d16a3699cc" target="_top" xlink:title="Another test function.">
<polygon fill="white" stroke="black" points="292,-35.5 292,-54.5 321,-54.5 321,-35.5 292,-35.5"/>
<text text-anchor="middle" x="306.5" y="-42.5" font-family="Helvetica,sans-Serif" font-size="10.00">k</text>
</a>
</g>
</g>
<!-- Node1&#45;&gt;Node2 -->
<g id="edge1" class="edge">
<title>Node1&#45;&gt;Node2</title>
<path fill="none" stroke="midnightblue" d="M110.37,-49.28C150.61,-51.8 206.76,-53.97 256,-51 264.41,-50.49 273.58,-49.5 281.72,-48.47"/>
<polygon fill="midnightblue" stroke="midnightblue" points="282.23,-51.94 291.67,-47.13 281.29,-45 282.23,-51.94"/>
</g>
<!-- Node5 -->
<g id="node5" class="node">
<title>Node5</title>
<g id="a_node5"><a xlink:href="../../d1/d51/classrange__queries_1_1heavy__light__decomposition_1_1_tree.html#ac7761255f2ba06b398b9aae5e4dce5f3" target="_top" xlink:title="The function lifts a node, k units up the tree. The lifting is done in place, and the result is store...">
<polygon fill="white" stroke="black" points="146,-0.5 146,-41.5 256,-41.5 256,-0.5 146,-0.5"/>
<text text-anchor="start" x="154" y="-29.5" font-family="Helvetica,sans-Serif" font-size="10.00">range_queries::heavy</text>
<text text-anchor="start" x="154" y="-18.5" font-family="Helvetica,sans-Serif" font-size="10.00">_light_decomposition</text>
<text text-anchor="middle" x="201" y="-7.5" font-family="Helvetica,sans-Serif" font-size="10.00">::Tree::lift</text>
</a>
</g>
</g>
<!-- Node1&#45;&gt;Node5 -->
<g id="edge4" class="edge">
<title>Node1&#45;&gt;Node5</title>
<path fill="none" stroke="midnightblue" d="M110.03,-36C118.4,-34.6 127.13,-33.15 135.7,-31.72"/>
<polygon fill="midnightblue" stroke="midnightblue" points="136.38,-35.15 145.67,-30.06 135.23,-28.25 136.38,-35.15"/>
</g>
<!-- Node3 -->
<g id="node3" class="node">
<title>Node3</title>
<g id="a_node3"><a target="_blank" xlink:href="http://en.cppreference.com/w/cpp/numeric/math/pow.html#" xlink:title=" ">
<polygon fill="white" stroke="black" points="357,-54.5 357,-73.5 411,-73.5 411,-54.5 357,-54.5"/>
<text text-anchor="middle" x="384" y="-61.5" font-family="Helvetica,sans-Serif" font-size="10.00">std::pow</text>
</a>
</g>
</g>
<!-- Node2&#45;&gt;Node3 -->
<g id="edge2" class="edge">
<title>Node2&#45;&gt;Node3</title>
<path fill="none" stroke="midnightblue" d="M321.35,-48.48C328.6,-50.31 337.85,-52.64 346.97,-54.93"/>
<polygon fill="midnightblue" stroke="midnightblue" points="346.16,-58.34 356.71,-57.38 347.87,-51.55 346.16,-58.34"/>
</g>
<!-- Node4 -->
<g id="node4" class="node">
<title>Node4</title>
<g id="a_node4"><a target="_blank" xlink:href="http://en.cppreference.com/w/cpp/numeric/math/sqrt.html#" xlink:title=" ">
<polygon fill="white" stroke="black" points="357.5,-16.5 357.5,-35.5 410.5,-35.5 410.5,-16.5 357.5,-16.5"/>
<text text-anchor="middle" x="384" y="-23.5" font-family="Helvetica,sans-Serif" font-size="10.00">std::sqrt</text>
</a>
</g>
</g>
<!-- Node2&#45;&gt;Node4 -->
<g id="edge3" class="edge">
<title>Node2&#45;&gt;Node4</title>
<path fill="none" stroke="midnightblue" d="M321.35,-41.52C328.73,-39.66 338.17,-37.28 347.44,-34.95"/>
<polygon fill="midnightblue" stroke="midnightblue" points="348.48,-38.3 357.33,-32.46 346.78,-31.51 348.48,-38.3"/>
</g>
<!-- Node5&#45;&gt;Node2 -->
<g id="edge5" class="edge">
<title>Node5&#45;&gt;Node2</title>
<path fill="none" stroke="midnightblue" d="M256.17,-33.56C265.32,-35.68 274.37,-37.78 282.16,-39.59"/>
<polygon fill="midnightblue" stroke="midnightblue" points="281.38,-43 291.92,-41.85 282.97,-36.18 281.38,-43"/>
</g>
</g>
</svg>
