<?xml version="1.0" encoding="UTF-8" standalone="no"?>
<!DOCTYPE svg PUBLIC "-//W3C//DTD SVG 1.1//EN"
 "http://www.w3.org/Graphics/SVG/1.1/DTD/svg11.dtd">
<!-- Generated by graphviz version 5.0.0 (20220707.1540)
 -->
<!-- Title: tests Pages: 1 -->
<svg width="635pt" height="122pt"
 viewBox="0.00 0.00 635.00 121.50" xmlns="http://www.w3.org/2000/svg" xmlns:xlink="http://www.w3.org/1999/xlink">
<g id="graph0" class="graph" transform="scale(1 1) rotate(0) translate(4 117.5)">
<title>tests</title>
<polygon fill="white" stroke="transparent" points="-4,4 -4,-117.5 631,-117.5 631,4 -4,4"/>
<!-- Node1 -->
<g id="node1" class="node">
<title>Node1</title>
<g id="a_node1"><a xlink:title="Test implementations.">
<polygon fill="#bfbfbf" stroke="black" points="0,-37 0,-56 38,-56 38,-37 0,-37"/>
<text text-anchor="middle" x="19" y="-44" font-family="Helvetica,sans-Serif" font-size="10.00">tests</text>
</a>
</g>
</g>
<!-- Node2 -->
<g id="node2" class="node">
<title>Node2</title>
<g id="a_node2"><a xlink:href="../../d6/dc1/classmath_1_1ncr__modulo__p_1_1_n_c_r_modulo_p.html#a6b95277f5f527beacc8d0f3bc91fcd08" target="_top" xlink:title=" ">
<polygon fill="white" stroke="black" points="74,-31.5 74,-61.5 179,-61.5 179,-31.5 74,-31.5"/>
<text text-anchor="start" x="82" y="-49.5" font-family="Helvetica,sans-Serif" font-size="10.00">math::ncr_modulo_p</text>
<text text-anchor="middle" x="126.5" y="-38.5" font-family="Helvetica,sans-Serif" font-size="10.00">::NCRModuloP::ncr</text>
</a>
</g>
</g>
<!-- Node1&#45;&gt;Node2 -->
<g id="edge1" class="edge">
<title>Node1&#45;&gt;Node2</title>
<path fill="none" stroke="midnightblue" d="M38.38,-46.5C45.66,-46.5 54.49,-46.5 63.7,-46.5"/>
<polygon fill="midnightblue" stroke="midnightblue" points="63.79,-50 73.79,-46.5 63.79,-43 63.79,-50"/>
</g>
<!-- Node3 -->
<g id="node3" class="node">
<title>Node3</title>
<g id="a_node3"><a xlink:href="../../d6/dc1/classmath_1_1ncr__modulo__p_1_1_n_c_r_modulo_p.html#a0431ec5c876e1154d8e1e5f89e1ab34a" target="_top" xlink:title=" ">
<polygon fill="white" stroke="black" points="215,-31.5 215,-61.5 355,-61.5 355,-31.5 215,-31.5"/>
<text text-anchor="start" x="223" y="-49.5" font-family="Helvetica,sans-Serif" font-size="10.00">math::ncr_modulo_p</text>
<text text-anchor="middle" x="285" y="-38.5" font-family="Helvetica,sans-Serif" font-size="10.00">::NCRModuloP::modInverse</text>
</a>
</g>
</g>
<!-- Node2&#45;&gt;Node3 -->
<g id="edge2" class="edge">
<title>Node2&#45;&gt;Node3</title>
<path fill="none" stroke="midnightblue" d="M179.18,-46.5C187.37,-46.5 196,-46.5 204.65,-46.5"/>
<polygon fill="midnightblue" stroke="midnightblue" points="204.79,-50 214.79,-46.5 204.79,-43 204.79,-50"/>
</g>
<!-- Node4 -->
<g id="node4" class="node">
<title>Node4</title>
<g id="a_node4"><a xlink:href="../../d4/d18/composite__simpson__rule_8cpp.html#ac84831571c8f3d0bca83c1747a32e8d6" target="_top" xlink:title="Another test function.">
<polygon fill="white" stroke="black" points="449.5,-68 449.5,-87 478.5,-87 478.5,-68 449.5,-68"/>
<text text-anchor="middle" x="464" y="-75" font-family="Helvetica,sans-Serif" font-size="10.00">g</text>
</a>
</g>
</g>
<!-- Node3&#45;&gt;Node4 -->
<g id="edge3" class="edge">
<title>Node3&#45;&gt;Node4</title>
<path fill="none" stroke="midnightblue" d="M355.19,-58.62C385.05,-63.85 418,-69.62 439.51,-73.39"/>
<polygon fill="midnightblue" stroke="midnightblue" points="438.91,-76.83 449.37,-75.11 440.12,-69.94 438.91,-76.83"/>
</g>
<!-- Node7 -->
<g id="node7" class="node">
<title>Node7</title>
<g id="a_node7"><a xlink:href="../../d6/dc1/classmath_1_1ncr__modulo__p_1_1_n_c_r_modulo_p.html#afde201f4687740454302c444f507a926" target="_top" xlink:title=" ">
<polygon fill="white" stroke="black" points="391,-0.5 391,-30.5 537,-30.5 537,-0.5 391,-0.5"/>
<text text-anchor="start" x="399" y="-18.5" font-family="Helvetica,sans-Serif" font-size="10.00">math::ncr_modulo_p</text>
<text text-anchor="middle" x="464" y="-7.5" font-family="Helvetica,sans-Serif" font-size="10.00">::NCRModuloP::gcdExtended</text>
</a>
</g>
</g>
<!-- Node3&#45;&gt;Node7 -->
<g id="edge6" class="edge">
<title>Node3&#45;&gt;Node7</title>
<path fill="none" stroke="midnightblue" d="M355.19,-34.38C363.63,-32.9 372.3,-31.38 380.9,-29.88"/>
<polygon fill="midnightblue" stroke="midnightblue" points="381.69,-33.29 390.94,-28.12 380.48,-26.4 381.69,-33.29"/>
</g>
<!-- Node5 -->
<g id="node5" class="node">
<title>Node5</title>
<g id="a_node5"><a target="_blank" xlink:href="http://en.cppreference.com/w/cpp/numeric/math/exp.html#" xlink:title=" ">
<polygon fill="white" stroke="black" points="574,-94 574,-113 626,-113 626,-94 574,-94"/>
<text text-anchor="middle" x="600" y="-101" font-family="Helvetica,sans-Serif" font-size="10.00">std::exp</text>
</a>
</g>
</g>
<!-- Node4&#45;&gt;Node5 -->
<g id="edge4" class="edge">
<title>Node4&#45;&gt;Node5</title>
<path fill="none" stroke="midnightblue" d="M478.84,-80.18C498.7,-84.04 535.96,-91.27 563.75,-96.66"/>
<polygon fill="midnightblue" stroke="midnightblue" points="563.39,-100.16 573.88,-98.63 564.73,-93.28 563.39,-100.16"/>
</g>
<!-- Node6 -->
<g id="node6" class="node">
<title>Node6</title>
<g id="a_node6"><a target="_blank" xlink:href="http://en.cppreference.com/w/cpp/numeric/math/pow.html#" xlink:title=" ">
<polygon fill="white" stroke="black" points="573,-56 573,-75 627,-75 627,-56 573,-56"/>
<text text-anchor="middle" x="600" y="-63" font-family="Helvetica,sans-Serif" font-size="10.00">std::pow</text>
</a>
</g>
</g>
<!-- Node4&#45;&gt;Node6 -->
<g id="edge5" class="edge">
<title>Node4&#45;&gt;Node6</title>
<path fill="none" stroke="midnightblue" d="M478.84,-76.26C498.46,-74.5 535.07,-71.22 562.75,-68.75"/>
<polygon fill="midnightblue" stroke="midnightblue" points="563.22,-72.22 572.86,-67.84 562.59,-65.25 563.22,-72.22"/>
</g>
<!-- Node7&#45;&gt;Node7 -->
<g id="edge8" class="edge">
<title>Node7&#45;&gt;Node7</title>
<path fill="none" stroke="midnightblue" d="M440.3,-30.66C434.58,-40.06 442.48,-49 464,-49 477.11,-49 485.17,-45.68 488.17,-40.96"/>
<polygon fill="midnightblue" stroke="midnightblue" points="491.65,-40.49 487.7,-30.66 484.66,-40.81 491.65,-40.49"/>
</g>
<!-- Node8 -->
<g id="node8" class="node">
<title>Node8</title>
<g id="a_node8"><a xlink:href="../../d4/da0/gcd__iterative__euclidean_8cpp.html#ae48807fa2b7000afae599e67f327545e" target="_top" xlink:title=" ">
<polygon fill="white" stroke="black" points="584,-6 584,-25 616,-25 616,-6 584,-6"/>
<text text-anchor="middle" x="600" y="-13" font-family="Helvetica,sans-Serif" font-size="10.00">gcd</text>
</a>
</g>
</g>
<!-- Node7&#45;&gt;Node8 -->
<g id="edge7" class="edge">
<title>Node7&#45;&gt;Node8</title>
<path fill="none" stroke="midnightblue" d="M537.1,-15.5C550.25,-15.5 563.13,-15.5 573.71,-15.5"/>
<polygon fill="midnightblue" stroke="midnightblue" points="573.82,-19 583.82,-15.5 573.82,-12 573.82,-19"/>
</g>
</g>
</svg>
