<?xml version="1.0" encoding="UTF-8" standalone="no"?>
<!DOCTYPE svg PUBLIC "-//W3C//DTD SVG 1.1//EN"
 "http://www.w3.org/Graphics/SVG/1.1/DTD/svg11.dtd">
<!-- Generated by graphviz version 5.0.0 (20220707.1540)
 -->
<!-- Title: qr_algorithm::qr_decompose Pages: 1 -->
<svg width="469pt" height="142pt"
 viewBox="0.00 0.00 469.00 142.00" xmlns="http://www.w3.org/2000/svg" xmlns:xlink="http://www.w3.org/1999/xlink">
<g id="graph0" class="graph" transform="scale(1 1) rotate(0) translate(4 138)">
<title>qr_algorithm::qr_decompose</title>
<polygon fill="white" stroke="transparent" points="-4,4 -4,-138 465,-138 465,4 -4,4"/>
<!-- Node1 -->
<g id="node1" class="node">
<title>Node1</title>
<g id="a_node1"><a xlink:title=" ">
<polygon fill="#bfbfbf" stroke="black" points="0,-57.5 0,-76.5 140,-76.5 140,-57.5 0,-57.5"/>
<text text-anchor="middle" x="70" y="-64.5" font-family="Helvetica,sans-Serif" font-size="10.00">qr_algorithm::qr_decompose</text>
</a>
</g>
</g>
<!-- Node2 -->
<g id="node2" class="node">
<title>Node2</title>
<g id="a_node2"><a xlink:href="../../d4/d18/composite__simpson__rule_8cpp.html#a6d50f1b8eb533b54721812d16a3699cc" target="_top" xlink:title="Another test function.">
<polygon fill="white" stroke="black" points="225,-114.5 225,-133.5 254,-133.5 254,-114.5 225,-114.5"/>
<text text-anchor="middle" x="239.5" y="-121.5" font-family="Helvetica,sans-Serif" font-size="10.00">k</text>
</a>
</g>
</g>
<!-- Node1&#45;&gt;Node2 -->
<g id="edge1" class="edge">
<title>Node1&#45;&gt;Node2</title>
<path fill="none" stroke="midnightblue" d="M96.33,-76.59C117.52,-84.5 148.59,-95.88 176,-105 188.69,-109.22 202.95,-113.58 214.64,-117.06"/>
<polygon fill="midnightblue" stroke="midnightblue" points="213.95,-120.51 224.53,-119.98 215.93,-113.8 213.95,-120.51"/>
</g>
<!-- Node5 -->
<g id="node5" class="node">
<title>Node5</title>
<g id="a_node5"><a xlink:href="../../d8/d77/namespacemachine__learning.html#a6f1c98c016ad34ff3d9f39372161bd35" target="_top" xlink:title=" ">
<polygon fill="white" stroke="black" points="181,-76.5 181,-95.5 298,-95.5 298,-76.5 181,-76.5"/>
<text text-anchor="middle" x="239.5" y="-83.5" font-family="Helvetica,sans-Serif" font-size="10.00">machine_learning::sum</text>
</a>
</g>
</g>
<!-- Node1&#45;&gt;Node5 -->
<g id="edge4" class="edge">
<title>Node1&#45;&gt;Node5</title>
<path fill="none" stroke="midnightblue" d="M140.1,-74.84C150.23,-75.99 160.67,-77.17 170.78,-78.32"/>
<polygon fill="midnightblue" stroke="midnightblue" points="170.43,-81.8 180.76,-79.45 171.22,-74.85 170.43,-81.8"/>
</g>
<!-- Node6 -->
<g id="node6" class="node">
<title>Node6</title>
<g id="a_node6"><a xlink:href="../../d2/d3b/namespaceqr__algorithm.html#ad16da2183db22378435042f26af43d5f" target="_top" xlink:title=" ">
<polygon fill="white" stroke="black" points="176,-38.5 176,-57.5 303,-57.5 303,-38.5 176,-38.5"/>
<text text-anchor="middle" x="239.5" y="-45.5" font-family="Helvetica,sans-Serif" font-size="10.00">qr_algorithm::vector_mag</text>
</a>
</g>
</g>
<!-- Node1&#45;&gt;Node6 -->
<g id="edge5" class="edge">
<title>Node1&#45;&gt;Node6</title>
<path fill="none" stroke="midnightblue" d="M140.1,-59.16C148.49,-58.21 157.08,-57.24 165.53,-56.28"/>
<polygon fill="midnightblue" stroke="midnightblue" points="166.19,-59.72 175.74,-55.12 165.41,-52.77 166.19,-59.72"/>
</g>
<!-- Node8 -->
<g id="node8" class="node">
<title>Node8</title>
<g id="a_node8"><a xlink:href="../../d2/d3b/namespaceqr__algorithm.html#a6d3c7dce1f142141f509d09f6c0e25dc" target="_top" xlink:title=" ">
<polygon fill="white" stroke="black" points="177.5,-0.5 177.5,-19.5 301.5,-19.5 301.5,-0.5 177.5,-0.5"/>
<text text-anchor="middle" x="239.5" y="-7.5" font-family="Helvetica,sans-Serif" font-size="10.00">qr_algorithm::vector_proj</text>
</a>
</g>
</g>
<!-- Node1&#45;&gt;Node8 -->
<g id="edge8" class="edge">
<title>Node1&#45;&gt;Node8</title>
<path fill="none" stroke="midnightblue" d="M96.33,-57.41C117.52,-49.5 148.59,-38.12 176,-29 182.51,-26.84 189.43,-24.63 196.2,-22.53"/>
<polygon fill="midnightblue" stroke="midnightblue" points="197.42,-25.82 205.96,-19.54 195.37,-19.13 197.42,-25.82"/>
</g>
<!-- Node3 -->
<g id="node3" class="node">
<title>Node3</title>
<g id="a_node3"><a target="_blank" xlink:href="http://en.cppreference.com/w/cpp/numeric/math/pow.html#" xlink:title=" ">
<polygon fill="white" stroke="black" points="373,-114.5 373,-133.5 427,-133.5 427,-114.5 373,-114.5"/>
<text text-anchor="middle" x="400" y="-121.5" font-family="Helvetica,sans-Serif" font-size="10.00">std::pow</text>
</a>
</g>
</g>
<!-- Node2&#45;&gt;Node3 -->
<g id="edge2" class="edge">
<title>Node2&#45;&gt;Node3</title>
<path fill="none" stroke="midnightblue" d="M254.01,-124C277.83,-124 328.01,-124 362.61,-124"/>
<polygon fill="midnightblue" stroke="midnightblue" points="362.8,-127.5 372.8,-124 362.8,-120.5 362.8,-127.5"/>
</g>
<!-- Node4 -->
<g id="node4" class="node">
<title>Node4</title>
<g id="a_node4"><a target="_blank" xlink:href="http://en.cppreference.com/w/cpp/numeric/math/sqrt.html#" xlink:title=" ">
<polygon fill="white" stroke="black" points="373.5,-67.5 373.5,-86.5 426.5,-86.5 426.5,-67.5 373.5,-67.5"/>
<text text-anchor="middle" x="400" y="-74.5" font-family="Helvetica,sans-Serif" font-size="10.00">std::sqrt</text>
</a>
</g>
</g>
<!-- Node2&#45;&gt;Node4 -->
<g id="edge3" class="edge">
<title>Node2&#45;&gt;Node4</title>
<path fill="none" stroke="midnightblue" d="M254.01,-119.99C278.07,-112.86 329.02,-97.75 363.65,-87.48"/>
<polygon fill="midnightblue" stroke="midnightblue" points="364.79,-90.79 373.38,-84.6 362.8,-84.08 364.79,-90.79"/>
</g>
<!-- Node6&#45;&gt;Node4 -->
<g id="edge6" class="edge">
<title>Node6&#45;&gt;Node4</title>
<path fill="none" stroke="midnightblue" d="M292.84,-57.58C315.98,-61.81 342.6,-66.68 363.39,-70.48"/>
<polygon fill="midnightblue" stroke="midnightblue" points="362.92,-73.96 373.38,-72.31 364.18,-67.07 362.92,-73.96"/>
</g>
<!-- Node7 -->
<g id="node7" class="node">
<title>Node7</title>
<g id="a_node7"><a xlink:href="../../d2/d3b/namespaceqr__algorithm.html#a8ea313a1a1b5f9d0e3e332c29c6446ec" target="_top" xlink:title=" ">
<polygon fill="white" stroke="black" points="339,-10.5 339,-29.5 461,-29.5 461,-10.5 339,-10.5"/>
<text text-anchor="middle" x="400" y="-17.5" font-family="Helvetica,sans-Serif" font-size="10.00">qr_algorithm::vector_dot</text>
</a>
</g>
</g>
<!-- Node6&#45;&gt;Node7 -->
<g id="edge7" class="edge">
<title>Node6&#45;&gt;Node7</title>
<path fill="none" stroke="midnightblue" d="M294.6,-38.44C307.61,-36.14 321.62,-33.67 335.03,-31.3"/>
<polygon fill="midnightblue" stroke="midnightblue" points="335.9,-34.7 345.14,-29.51 334.68,-27.81 335.9,-34.7"/>
</g>
<!-- Node8&#45;&gt;Node7 -->
<g id="edge9" class="edge">
<title>Node8&#45;&gt;Node7</title>
<path fill="none" stroke="midnightblue" d="M301.78,-13.87C310.64,-14.43 319.82,-15 328.84,-15.57"/>
<polygon fill="midnightblue" stroke="midnightblue" points="328.73,-19.07 338.93,-16.21 329.17,-12.09 328.73,-19.07"/>
</g>
</g>
</svg>
