<?xml version="1.0" encoding="UTF-8" standalone="no"?>
<!DOCTYPE svg PUBLIC "-//W3C//DTD SVG 1.1//EN"
 "http://www.w3.org/Graphics/SVG/1.1/DTD/svg11.dtd">
<!-- Generated by graphviz version 5.0.0 (20220707.1540)
 -->
<!-- Title: qr_algorithm::eigen_values Pages: 1 -->
<!--zoomable 142 -->
<svg id="main" version="1.1" xmlns="http://www.w3.org/2000/svg" xmlns:xlink="http://www.w3.org/1999/xlink" xml:space="preserve" onload="init(evt)">
<style type="text/css"><![CDATA[
.edge:hover path { stroke: red; }
.edge:hover polygon { stroke: red; fill: red; }
]]></style>
<script type="text/javascript"><![CDATA[
var edges = document.getElementsByTagName('g');
if (edges && edges.length) {
  for (var i=0;i<edges.length;i++) {
    if (edges[i].id.substr(0,4)=='edge') {
      edges[i].setAttribute('class','edge');
    }
  }
}
]]></script>
        <defs>
                <circle id="rim" cx="0" cy="0" r="7"/>
                <circle id="rim2" cx="0" cy="0" r="3.5"/>
                <g id="zoomPlus">
                        <use xlink:href="#rim" fill="#404040">
                                <set attributeName="fill" to="#808080" begin="zoomplus.mouseover" end="zoomplus.mouseout"/>
                        </use>
                        <path d="M-4,0h8M0,-4v8" fill="none" stroke="white" stroke-width="1.5" pointer-events="none"/>
                </g>
                <g id="zoomMin">
                        <use xlink:href="#rim" fill="#404040">
                                <set attributeName="fill" to="#808080" begin="zoomminus.mouseover" end="zoomminus.mouseout"/>
                        </use>
                        <path d="M-4,0h8" fill="none" stroke="white" stroke-width="1.5" pointer-events="none"/>
                </g>
                <g id="dirArrow">
                        <path fill="none" stroke="white" stroke-width="1.5" d="M0,-3.0v7 M-2.5,-0.5L0,-3.0L2.5,-0.5"/>
                </g>
               <g id="resetDef">
                       <use xlink:href="#rim2" fill="#404040">
                               <set attributeName="fill" to="#808080" begin="reset.mouseover" end="reset.mouseout"/>
                       </use>
               </g>
        </defs>

<script type="text/javascript">
var viewWidth = 604;
var viewHeight = 142;
var sectionId = 'dynsection-0';
</script>
<script xlink:href="../../svgpan.js"/>
<svg id="graph" class="graph">
<g id="viewport">
<title>qr_algorithm::eigen_values</title>
<polygon fill="white" stroke="transparent" points="-4,4 -4,-138 600,-138 600,4 -4,4"/>
<!-- Node1 -->
<g id="node1" class="node">
<title>Node1</title>
<g id="a_node1"><a xlink:title=" ">
<polygon fill="#bfbfbf" stroke="black" points="0,-90 0,-120 99,-120 99,-90 0,-90"/>
<text text-anchor="start" x="8" y="-108" font-family="Helvetica,sans-Serif" font-size="10.00">qr_algorithm::eigen</text>
<text text-anchor="middle" x="49.5" y="-97" font-family="Helvetica,sans-Serif" font-size="10.00">_values</text>
</a>
</g>
</g>
<!-- Node2 -->
<g id="node2" class="node">
<title>Node2</title>
<g id="a_node2"><a xlink:href="../../de/d75/qr__eigen__values_8cpp.html#abb8bf4c55e10685a5eb2ad3797fde1ae" target="_top" xlink:title=" ">
<polygon fill="white" stroke="black" points="178,-114.5 178,-133.5 232,-133.5 232,-114.5 178,-114.5"/>
<text text-anchor="middle" x="205" y="-121.5" font-family="Helvetica,sans-Serif" font-size="10.00">mat_mul</text>
</a>
</g>
</g>
<!-- Node1&#45;&gt;Node2 -->
<g id="edge1" class="edge">
<title>Node1&#45;&gt;Node2</title>
<path fill="none" stroke="midnightblue" d="M99.07,-111.01C121.21,-113.75 146.98,-116.94 167.44,-119.48"/>
<polygon fill="midnightblue" stroke="midnightblue" points="167.26,-122.98 177.61,-120.73 168.12,-116.03 167.26,-122.98"/>
</g>
<!-- Node6 -->
<g id="node6" class="node">
<title>Node6</title>
<g id="a_node6"><a xlink:href="../../d2/d3b/namespaceqr__algorithm.html#a73ce637634fc49e1d10d190eb388ebf1" target="_top" xlink:title=" ">
<polygon fill="white" stroke="black" points="135,-76.5 135,-95.5 275,-95.5 275,-76.5 135,-76.5"/>
<text text-anchor="middle" x="205" y="-83.5" font-family="Helvetica,sans-Serif" font-size="10.00">qr_algorithm::qr_decompose</text>
</a>
</g>
</g>
<!-- Node1&#45;&gt;Node6 -->
<g id="edge5" class="edge">
<title>Node1&#45;&gt;Node6</title>
<path fill="none" stroke="midnightblue" d="M99.07,-98.99C107.36,-97.96 116.17,-96.87 125.02,-95.78"/>
<polygon fill="midnightblue" stroke="midnightblue" points="125.5,-99.24 135,-94.54 124.64,-92.3 125.5,-99.24"/>
</g>
<!-- Node3 -->
<g id="node3" class="node">
<title>Node3</title>
<g id="a_node3"><a xlink:href="../../d4/d18/composite__simpson__rule_8cpp.html#a6d50f1b8eb533b54721812d16a3699cc" target="_top" xlink:title="Another test function.">
<polygon fill="white" stroke="black" points="360,-114.5 360,-133.5 389,-133.5 389,-114.5 360,-114.5"/>
<text text-anchor="middle" x="374.5" y="-121.5" font-family="Helvetica,sans-Serif" font-size="10.00">k</text>
</a>
</g>
</g>
<!-- Node2&#45;&gt;Node3 -->
<g id="edge2" class="edge">
<title>Node2&#45;&gt;Node3</title>
<path fill="none" stroke="midnightblue" d="M232.17,-124C264.3,-124 318.32,-124 349.45,-124"/>
<polygon fill="midnightblue" stroke="midnightblue" points="349.79,-127.5 359.79,-124 349.79,-120.5 349.79,-127.5"/>
</g>
<!-- Node4 -->
<g id="node4" class="node">
<title>Node4</title>
<g id="a_node4"><a target="_blank" xlink:href="http://en.cppreference.com/w/cpp/numeric/math/pow.html#" xlink:title=" ">
<polygon fill="white" stroke="black" points="508,-114.5 508,-133.5 562,-133.5 562,-114.5 508,-114.5"/>
<text text-anchor="middle" x="535" y="-121.5" font-family="Helvetica,sans-Serif" font-size="10.00">std::pow</text>
</a>
</g>
</g>
<!-- Node3&#45;&gt;Node4 -->
<g id="edge3" class="edge">
<title>Node3&#45;&gt;Node4</title>
<path fill="none" stroke="midnightblue" d="M389.01,-124C412.83,-124 463.01,-124 497.61,-124"/>
<polygon fill="midnightblue" stroke="midnightblue" points="497.8,-127.5 507.8,-124 497.8,-120.5 497.8,-127.5"/>
</g>
<!-- Node5 -->
<g id="node5" class="node">
<title>Node5</title>
<g id="a_node5"><a target="_blank" xlink:href="http://en.cppreference.com/w/cpp/numeric/math/sqrt.html#" xlink:title=" ">
<polygon fill="white" stroke="black" points="508.5,-67.5 508.5,-86.5 561.5,-86.5 561.5,-67.5 508.5,-67.5"/>
<text text-anchor="middle" x="535" y="-74.5" font-family="Helvetica,sans-Serif" font-size="10.00">std::sqrt</text>
</a>
</g>
</g>
<!-- Node3&#45;&gt;Node5 -->
<g id="edge4" class="edge">
<title>Node3&#45;&gt;Node5</title>
<path fill="none" stroke="midnightblue" d="M389.01,-119.99C413.07,-112.86 464.02,-97.75 498.65,-87.48"/>
<polygon fill="midnightblue" stroke="midnightblue" points="499.79,-90.79 508.38,-84.6 497.8,-84.08 499.79,-90.79"/>
</g>
<!-- Node6&#45;&gt;Node3 -->
<g id="edge6" class="edge">
<title>Node6&#45;&gt;Node3</title>
<path fill="none" stroke="midnightblue" d="M248.27,-95.59C280.47,-102.89 323.61,-112.68 349.93,-118.65"/>
<polygon fill="midnightblue" stroke="midnightblue" points="349.26,-122.09 359.78,-120.89 350.81,-115.26 349.26,-122.09"/>
</g>
<!-- Node7 -->
<g id="node7" class="node">
<title>Node7</title>
<g id="a_node7"><a xlink:href="../../d8/d77/namespacemachine__learning.html#a6f1c98c016ad34ff3d9f39372161bd35" target="_top" xlink:title=" ">
<polygon fill="white" stroke="black" points="316,-76.5 316,-95.5 433,-95.5 433,-76.5 316,-76.5"/>
<text text-anchor="middle" x="374.5" y="-83.5" font-family="Helvetica,sans-Serif" font-size="10.00">machine_learning::sum</text>
</a>
</g>
</g>
<!-- Node6&#45;&gt;Node7 -->
<g id="edge7" class="edge">
<title>Node6&#45;&gt;Node7</title>
<path fill="none" stroke="midnightblue" d="M275.1,-86C285.13,-86 295.45,-86 305.46,-86"/>
<polygon fill="midnightblue" stroke="midnightblue" points="305.76,-89.5 315.76,-86 305.76,-82.5 305.76,-89.5"/>
</g>
<!-- Node8 -->
<g id="node8" class="node">
<title>Node8</title>
<g id="a_node8"><a xlink:href="../../d2/d3b/namespaceqr__algorithm.html#ad16da2183db22378435042f26af43d5f" target="_top" xlink:title=" ">
<polygon fill="white" stroke="black" points="311,-38.5 311,-57.5 438,-57.5 438,-38.5 311,-38.5"/>
<text text-anchor="middle" x="374.5" y="-45.5" font-family="Helvetica,sans-Serif" font-size="10.00">qr_algorithm::vector_mag</text>
</a>
</g>
</g>
<!-- Node6&#45;&gt;Node8 -->
<g id="edge8" class="edge">
<title>Node6&#45;&gt;Node8</title>
<path fill="none" stroke="midnightblue" d="M248.27,-76.41C270.57,-71.35 298.12,-65.1 321.7,-59.75"/>
<polygon fill="midnightblue" stroke="midnightblue" points="322.56,-63.15 331.54,-57.52 321.01,-56.32 322.56,-63.15"/>
</g>
<!-- Node10 -->
<g id="node10" class="node">
<title>Node10</title>
<g id="a_node10"><a xlink:href="../../d2/d3b/namespaceqr__algorithm.html#a6d3c7dce1f142141f509d09f6c0e25dc" target="_top" xlink:title=" ">
<polygon fill="white" stroke="black" points="312.5,-0.5 312.5,-19.5 436.5,-19.5 436.5,-0.5 312.5,-0.5"/>
<text text-anchor="middle" x="374.5" y="-7.5" font-family="Helvetica,sans-Serif" font-size="10.00">qr_algorithm::vector_proj</text>
</a>
</g>
</g>
<!-- Node6&#45;&gt;Node10 -->
<g id="edge11" class="edge">
<title>Node6&#45;&gt;Node10</title>
<path fill="none" stroke="midnightblue" d="M221.17,-76.49C241.16,-64.26 277.71,-42.93 311,-29 316.43,-26.73 322.22,-24.6 328.02,-22.64"/>
<polygon fill="midnightblue" stroke="midnightblue" points="329.25,-25.92 337.69,-19.53 327.1,-19.26 329.25,-25.92"/>
</g>
<!-- Node8&#45;&gt;Node5 -->
<g id="edge9" class="edge">
<title>Node8&#45;&gt;Node5</title>
<path fill="none" stroke="midnightblue" d="M427.84,-57.58C450.98,-61.81 477.6,-66.68 498.39,-70.48"/>
<polygon fill="midnightblue" stroke="midnightblue" points="497.92,-73.96 508.38,-72.31 499.18,-67.07 497.92,-73.96"/>
</g>
<!-- Node9 -->
<g id="node9" class="node">
<title>Node9</title>
<g id="a_node9"><a xlink:href="../../d2/d3b/namespaceqr__algorithm.html#a8ea313a1a1b5f9d0e3e332c29c6446ec" target="_top" xlink:title=" ">
<polygon fill="white" stroke="black" points="474,-10.5 474,-29.5 596,-29.5 596,-10.5 474,-10.5"/>
<text text-anchor="middle" x="535" y="-17.5" font-family="Helvetica,sans-Serif" font-size="10.00">qr_algorithm::vector_dot</text>
</a>
</g>
</g>
<!-- Node8&#45;&gt;Node9 -->
<g id="edge10" class="edge">
<title>Node8&#45;&gt;Node9</title>
<path fill="none" stroke="midnightblue" d="M429.6,-38.44C442.61,-36.14 456.62,-33.67 470.03,-31.3"/>
<polygon fill="midnightblue" stroke="midnightblue" points="470.9,-34.7 480.14,-29.51 469.68,-27.81 470.9,-34.7"/>
</g>
<!-- Node10&#45;&gt;Node9 -->
<g id="edge12" class="edge">
<title>Node10&#45;&gt;Node9</title>
<path fill="none" stroke="midnightblue" d="M436.78,-13.87C445.64,-14.43 454.82,-15 463.84,-15.57"/>
<polygon fill="midnightblue" stroke="midnightblue" points="463.73,-19.07 473.93,-16.21 464.17,-12.09 463.73,-19.07"/>
</g>
</g>
</svg>
        <g id="navigator" transform="translate(0 0)" fill="#404254">
                <rect fill="#f2f5e9" fill-opacity="0.5" stroke="#606060" stroke-width=".5" x="0" y="0" width="60" height="60"/>
                <use id="zoomplus" xlink:href="#zoomPlus" x="17" y="9" onmousedown="handleZoom(evt,'in')"/>
                <use id="zoomminus" xlink:href="#zoomMin" x="42" y="9" onmousedown="handleZoom(evt,'out')"/>
                <use id="reset" xlink:href="#resetDef" x="30" y="36" onmousedown="handleReset()"/>
                <g id="arrowUp" xlink:href="#dirArrow" transform="translate(30 24)" onmousedown="handlePan(0,-1)">
                  <use xlink:href="#rim" fill="#404040">
                        <set attributeName="fill" to="#808080" begin="arrowUp.mouseover" end="arrowUp.mouseout"/>
                  </use>
                  <path fill="none" stroke="white" stroke-width="1.5" d="M0,-3.0v7 M-2.5,-0.5L0,-3.0L2.5,-0.5"/>
                </g>
                <g id="arrowRight" xlink:href="#dirArrow" transform="rotate(90) translate(36 -43)" onmousedown="handlePan(1,0)">
                  <use xlink:href="#rim" fill="#404040">
                        <set attributeName="fill" to="#808080" begin="arrowRight.mouseover" end="arrowRight.mouseout"/>
                  </use>
                  <path fill="none" stroke="white" stroke-width="1.5" d="M0,-3.0v7 M-2.5,-0.5L0,-3.0L2.5,-0.5"/>
                </g>
                <g id="arrowDown" xlink:href="#dirArrow" transform="rotate(180) translate(-30 -48)" onmousedown="handlePan(0,1)">
                  <use xlink:href="#rim" fill="#404040">
                        <set attributeName="fill" to="#808080" begin="arrowDown.mouseover" end="arrowDown.mouseout"/>
                  </use>
                  <path fill="none" stroke="white" stroke-width="1.5" d="M0,-3.0v7 M-2.5,-0.5L0,-3.0L2.5,-0.5"/>
                </g>
                <g id="arrowLeft" xlink:href="#dirArrow" transform="rotate(270) translate(-36 17)" onmousedown="handlePan(-1,0)">
                  <use xlink:href="#rim" fill="#404040">
                        <set attributeName="fill" to="#808080" begin="arrowLeft.mouseover" end="arrowLeft.mouseout"/>
                  </use>
                  <path fill="none" stroke="white" stroke-width="1.5" d="M0,-3.0v7 M-2.5,-0.5L0,-3.0L2.5,-0.5"/>
                </g>
        </g>
        <svg viewBox="0 0 15 15" width="100%" height="30px" preserveAspectRatio="xMaxYMin meet">
         <g id="arrow_out" transform="scale(0.3 0.3)">
          <a xlink:href="namespaceqr__algorithm_a28e2fa3e803abaea6c568dc45d69d8cc_cgraph_org.svg" target="_base">
           <rect id="button" ry="5" rx="5" y="6" x="6" height="38" width="38"
                fill="#f2f5e9" fill-opacity="0.5" stroke="#606060" stroke-width="1.0"/>
           <path id="arrow"
             d="M 11.500037,31.436501 C 11.940474,20.09759 22.043105,11.32322 32.158766,21.979434 L 37.068811,17.246167 C 37.068811,17.246167 37.088388,32 37.088388,32 L 22.160133,31.978069 C 22.160133,31.978069 26.997745,27.140456 26.997745,27.140456 C 18.528582,18.264221 13.291696,25.230495 11.500037,31.436501 z"
             style="fill:#404040;"/>
          </a>
         </g>
        </svg>
</svg>
