<?xml version="1.0" encoding="UTF-8" standalone="no"?>
<!DOCTYPE svg PUBLIC "-//W3C//DTD SVG 1.1//EN"
 "http://www.w3.org/Graphics/SVG/1.1/DTD/svg11.dtd">
<!-- Generated by graphviz version 5.0.0 (20220707.1540)
 -->
<!-- Title: tests Pages: 1 -->
<svg width="456pt" height="186pt"
 viewBox="0.00 0.00 456.00 186.00" xmlns="http://www.w3.org/2000/svg" xmlns:xlink="http://www.w3.org/1999/xlink">
<g id="graph0" class="graph" transform="scale(1 1) rotate(0) translate(4 182)">
<title>tests</title>
<polygon fill="white" stroke="transparent" points="-4,4 -4,-182 452,-182 452,4 -4,4"/>
<!-- Node1 -->
<g id="node1" class="node">
<title>Node1</title>
<g id="a_node1"><a xlink:title="Self&#45;test implementations.">
<polygon fill="#bfbfbf" stroke="black" points="0,-120.5 0,-139.5 38,-139.5 38,-120.5 0,-120.5"/>
<text text-anchor="middle" x="19" y="-127.5" font-family="Helvetica,sans-Serif" font-size="10.00">tests</text>
</a>
</g>
</g>
<!-- Node2 -->
<g id="node2" class="node">
<title>Node2</title>
<g id="a_node2"><a target="_blank" xlink:href="http://en.cppreference.com/w/cpp/io/manip/endl.html#" xlink:title=" ">
<polygon fill="white" stroke="black" points="113,-158.5 113,-177.5 167,-177.5 167,-158.5 113,-158.5"/>
<text text-anchor="middle" x="140" y="-165.5" font-family="Helvetica,sans-Serif" font-size="10.00">std::endl</text>
</a>
</g>
</g>
<!-- Node1&#45;&gt;Node2 -->
<g id="edge1" class="edge">
<title>Node1&#45;&gt;Node2</title>
<path fill="none" stroke="midnightblue" d="M38.41,-136.75C48.81,-140.5 62.08,-145.16 74,-149 83.47,-152.05 93.78,-155.16 103.34,-157.95"/>
<polygon fill="midnightblue" stroke="midnightblue" points="102.39,-161.32 112.97,-160.74 104.33,-154.6 102.39,-161.32"/>
</g>
<!-- Node3 -->
<g id="node3" class="node">
<title>Node3</title>
<g id="a_node3"><a target="_blank" xlink:href="http://en.cppreference.com/w/cpp/container/vector/size.html#" xlink:title=" ">
<polygon fill="white" stroke="black" points="96.5,-120.5 96.5,-139.5 183.5,-139.5 183.5,-120.5 96.5,-120.5"/>
<text text-anchor="middle" x="140" y="-127.5" font-family="Helvetica,sans-Serif" font-size="10.00">std::vector::size</text>
</a>
</g>
</g>
<!-- Node1&#45;&gt;Node3 -->
<g id="edge2" class="edge">
<title>Node1&#45;&gt;Node3</title>
<path fill="none" stroke="midnightblue" d="M38.07,-130C50.95,-130 68.98,-130 86.24,-130"/>
<polygon fill="midnightblue" stroke="midnightblue" points="86.27,-133.5 96.27,-130 86.27,-126.5 86.27,-133.5"/>
</g>
<!-- Node4 -->
<g id="node4" class="node">
<title>Node4</title>
<g id="a_node4"><a xlink:href="../../df/dce/namespacegraph.html#ab7706341d006e20d1ae58274187a3346" target="_top" xlink:title="Function calculates the minimum path distance that will cover all the cities starting from the source...">
<polygon fill="white" stroke="black" points="74,-71 74,-101 206,-101 206,-71 74,-71"/>
<text text-anchor="start" x="82" y="-89" font-family="Helvetica,sans-Serif" font-size="10.00">graph::TravellingSalesman</text>
<text text-anchor="middle" x="140" y="-78" font-family="Helvetica,sans-Serif" font-size="10.00">Problem</text>
</a>
</g>
</g>
<!-- Node1&#45;&gt;Node4 -->
<g id="edge3" class="edge">
<title>Node1&#45;&gt;Node4</title>
<path fill="none" stroke="midnightblue" d="M38.07,-123.32C51.51,-118.35 70.55,-111.31 88.48,-104.68"/>
<polygon fill="midnightblue" stroke="midnightblue" points="90.12,-107.81 98.28,-101.06 87.69,-101.24 90.12,-107.81"/>
</g>
<!-- Node5 -->
<g id="node5" class="node">
<title>Node5</title>
<g id="a_node5"><a target="_blank" xlink:href="http://en.cppreference.com/w/cpp/container/vector/begin.html#" xlink:title=" ">
<polygon fill="white" stroke="black" points="254,-152.5 254,-171.5 346,-171.5 346,-152.5 254,-152.5"/>
<text text-anchor="middle" x="300" y="-159.5" font-family="Helvetica,sans-Serif" font-size="10.00">std::vector::begin</text>
</a>
</g>
</g>
<!-- Node4&#45;&gt;Node5 -->
<g id="edge4" class="edge">
<title>Node4&#45;&gt;Node5</title>
<path fill="none" stroke="midnightblue" d="M186.41,-101.04C193.17,-103.96 199.91,-107.29 206,-111 224.28,-122.13 223.47,-132.29 242,-143 245.66,-145.11 249.58,-147.04 253.6,-148.77"/>
<polygon fill="midnightblue" stroke="midnightblue" points="252.48,-152.09 263.07,-152.49 255.04,-145.57 252.48,-152.09"/>
</g>
<!-- Node6 -->
<g id="node6" class="node">
<title>Node6</title>
<g id="a_node6"><a target="_blank" xlink:href="http://en.cppreference.com/w/cpp/container/vector/end.html#" xlink:title=" ">
<polygon fill="white" stroke="black" points="257.5,-114.5 257.5,-133.5 342.5,-133.5 342.5,-114.5 257.5,-114.5"/>
<text text-anchor="middle" x="300" y="-121.5" font-family="Helvetica,sans-Serif" font-size="10.00">std::vector::end</text>
</a>
</g>
</g>
<!-- Node4&#45;&gt;Node6 -->
<g id="edge5" class="edge">
<title>Node4&#45;&gt;Node6</title>
<path fill="none" stroke="midnightblue" d="M203.45,-101.02C218.72,-104.69 234.87,-108.58 249.45,-112.08"/>
<polygon fill="midnightblue" stroke="midnightblue" points="248.72,-115.51 259.26,-114.44 250.36,-108.7 248.72,-115.51"/>
</g>
<!-- Node7 -->
<g id="node7" class="node">
<title>Node7</title>
<g id="a_node7"><a xlink:href="../../d4/d18/composite__simpson__rule_8cpp.html#a6d50f1b8eb533b54721812d16a3699cc" target="_top" xlink:title="Another test function.">
<polygon fill="white" stroke="black" points="285.5,-76.5 285.5,-95.5 314.5,-95.5 314.5,-76.5 285.5,-76.5"/>
<text text-anchor="middle" x="300" y="-83.5" font-family="Helvetica,sans-Serif" font-size="10.00">k</text>
</a>
</g>
</g>
<!-- Node4&#45;&gt;Node7 -->
<g id="edge6" class="edge">
<title>Node4&#45;&gt;Node7</title>
<path fill="none" stroke="midnightblue" d="M206.18,-86C230.65,-86 256.95,-86 275.28,-86"/>
<polygon fill="midnightblue" stroke="midnightblue" points="275.33,-89.5 285.33,-86 275.33,-82.5 275.33,-89.5"/>
</g>
<!-- Node10 -->
<g id="node10" class="node">
<title>Node10</title>
<g id="a_node10"><a target="_blank" xlink:href="http://en.cppreference.com/w/cpp/algorithm/min.html#" xlink:title=" ">
<polygon fill="white" stroke="black" points="274,-38.5 274,-57.5 326,-57.5 326,-38.5 274,-38.5"/>
<text text-anchor="middle" x="300" y="-45.5" font-family="Helvetica,sans-Serif" font-size="10.00">std::min</text>
</a>
</g>
</g>
<!-- Node4&#45;&gt;Node10 -->
<g id="edge9" class="edge">
<title>Node4&#45;&gt;Node10</title>
<path fill="none" stroke="midnightblue" d="M203.45,-70.98C223.92,-66.06 245.96,-60.76 263.7,-56.49"/>
<polygon fill="midnightblue" stroke="midnightblue" points="264.7,-59.85 273.6,-54.11 263.06,-53.04 264.7,-59.85"/>
</g>
<!-- Node11 -->
<g id="node11" class="node">
<title>Node11</title>
<g id="a_node11"><a target="_blank" xlink:href="http://en.cppreference.com/w/cpp/container/vector/push_back.html#" xlink:title=" ">
<polygon fill="white" stroke="black" points="242,-0.5 242,-19.5 358,-19.5 358,-0.5 242,-0.5"/>
<text text-anchor="middle" x="300" y="-7.5" font-family="Helvetica,sans-Serif" font-size="10.00">std::vector::push_back</text>
</a>
</g>
</g>
<!-- Node4&#45;&gt;Node11 -->
<g id="edge10" class="edge">
<title>Node4&#45;&gt;Node11</title>
<path fill="none" stroke="midnightblue" d="M164.81,-70.83C184.86,-58.48 214.58,-41.17 242,-29 246.76,-26.89 251.84,-24.87 256.92,-23"/>
<polygon fill="midnightblue" stroke="midnightblue" points="258.36,-26.21 266.63,-19.59 256.04,-19.6 258.36,-26.21"/>
</g>
<!-- Node8 -->
<g id="node8" class="node">
<title>Node8</title>
<g id="a_node8"><a target="_blank" xlink:href="http://en.cppreference.com/w/cpp/numeric/math/pow.html#" xlink:title=" ">
<polygon fill="white" stroke="black" points="394,-95.5 394,-114.5 448,-114.5 448,-95.5 394,-95.5"/>
<text text-anchor="middle" x="421" y="-102.5" font-family="Helvetica,sans-Serif" font-size="10.00">std::pow</text>
</a>
</g>
</g>
<!-- Node7&#45;&gt;Node8 -->
<g id="edge7" class="edge">
<title>Node7&#45;&gt;Node8</title>
<path fill="none" stroke="midnightblue" d="M314.65,-88.18C331.46,-90.86 360.64,-95.52 384.04,-99.26"/>
<polygon fill="midnightblue" stroke="midnightblue" points="383.56,-102.73 393.99,-100.85 384.66,-95.81 383.56,-102.73"/>
</g>
<!-- Node9 -->
<g id="node9" class="node">
<title>Node9</title>
<g id="a_node9"><a target="_blank" xlink:href="http://en.cppreference.com/w/cpp/numeric/math/sqrt.html#" xlink:title=" ">
<polygon fill="white" stroke="black" points="394.5,-57.5 394.5,-76.5 447.5,-76.5 447.5,-57.5 394.5,-57.5"/>
<text text-anchor="middle" x="421" y="-64.5" font-family="Helvetica,sans-Serif" font-size="10.00">std::sqrt</text>
</a>
</g>
</g>
<!-- Node7&#45;&gt;Node9 -->
<g id="edge8" class="edge">
<title>Node7&#45;&gt;Node9</title>
<path fill="none" stroke="midnightblue" d="M314.65,-83.82C331.56,-81.12 361.01,-76.42 384.48,-72.67"/>
<polygon fill="midnightblue" stroke="midnightblue" points="385.13,-76.11 394.45,-71.08 384.02,-69.2 385.13,-76.11"/>
</g>
</g>
</svg>
