<?xml version="1.0" encoding="UTF-8" standalone="no"?>
<!DOCTYPE svg PUBLIC "-//W3C//DTD SVG 1.1//EN"
 "http://www.w3.org/Graphics/SVG/1.1/DTD/svg11.dtd">
<!-- Generated by graphviz version 5.0.0 (20220707.1540)
 -->
<!-- Title: main Pages: 1 -->
<svg width="530pt" height="198pt"
 viewBox="0.00 0.00 530.00 198.00" xmlns="http://www.w3.org/2000/svg" xmlns:xlink="http://www.w3.org/1999/xlink">
<g id="graph0" class="graph" transform="scale(1 1) rotate(0) translate(4 194)">
<title>main</title>
<polygon fill="white" stroke="transparent" points="-4,4 -4,-194 526,-194 526,4 -4,4"/>
<!-- Node1 -->
<g id="node1" class="node">
<title>Node1</title>
<g id="a_node1"><a xlink:title="Main function.">
<polygon fill="#bfbfbf" stroke="black" points="0,-117.5 0,-136.5 38,-136.5 38,-117.5 0,-117.5"/>
<text text-anchor="middle" x="19" y="-124.5" font-family="Helvetica,sans-Serif" font-size="10.00">main</text>
</a>
</g>
</g>
<!-- Node2 -->
<g id="node2" class="node">
<title>Node2</title>
<g id="a_node2"><a target="_blank" xlink:href="http://en.cppreference.com/w/cpp/io/manip/endl.html#" xlink:title=" ">
<polygon fill="white" stroke="black" points="187,-170.5 187,-189.5 241,-189.5 241,-170.5 187,-170.5"/>
<text text-anchor="middle" x="214" y="-177.5" font-family="Helvetica,sans-Serif" font-size="10.00">std::endl</text>
</a>
</g>
</g>
<!-- Node1&#45;&gt;Node2 -->
<g id="edge1" class="edge">
<title>Node1&#45;&gt;Node2</title>
<path fill="none" stroke="midnightblue" d="M30.23,-136.63C40.45,-145.64 57.05,-158.61 74,-165 107.28,-177.54 147.99,-180.64 176.73,-181"/>
<polygon fill="midnightblue" stroke="midnightblue" points="176.73,-184.5 186.74,-181.02 176.75,-177.5 176.73,-184.5"/>
</g>
<!-- Node3 -->
<g id="node3" class="node">
<title>Node3</title>
<g id="a_node3"><a target="_blank" xlink:href="http://en.cppreference.com/w/cpp/container/vector/size.html#" xlink:title=" ">
<polygon fill="white" stroke="black" points="170.5,-128.5 170.5,-147.5 257.5,-147.5 257.5,-128.5 170.5,-128.5"/>
<text text-anchor="middle" x="214" y="-135.5" font-family="Helvetica,sans-Serif" font-size="10.00">std::vector::size</text>
</a>
</g>
</g>
<!-- Node1&#45;&gt;Node3 -->
<g id="edge2" class="edge">
<title>Node1&#45;&gt;Node3</title>
<path fill="none" stroke="midnightblue" d="M38.34,-126.42C56.92,-125.96 86.48,-125.61 112,-127 127.75,-127.86 144.82,-129.45 160.36,-131.17"/>
<polygon fill="midnightblue" stroke="midnightblue" points="160,-134.66 170.33,-132.32 160.79,-127.7 160,-134.66"/>
</g>
<!-- Node4 -->
<g id="node4" class="node">
<title>Node4</title>
<g id="a_node4"><a xlink:href="../../de/d88/travelling__salesman__problem_8cpp.html#a483bb8ccf42aaf7375a83e91490eda1e" target="_top" xlink:title="Self&#45;test implementations.">
<polygon fill="white" stroke="black" points="74,-136.5 74,-155.5 112,-155.5 112,-136.5 74,-136.5"/>
<text text-anchor="middle" x="93" y="-143.5" font-family="Helvetica,sans-Serif" font-size="10.00">tests</text>
</a>
</g>
</g>
<!-- Node1&#45;&gt;Node4 -->
<g id="edge3" class="edge">
<title>Node1&#45;&gt;Node4</title>
<path fill="none" stroke="midnightblue" d="M38.17,-131.79C45.95,-133.85 55.23,-136.3 63.87,-138.58"/>
<polygon fill="midnightblue" stroke="midnightblue" points="63.02,-141.97 73.59,-141.14 64.81,-135.21 63.02,-141.97"/>
</g>
<!-- Node5 -->
<g id="node5" class="node">
<title>Node5</title>
<g id="a_node5"><a xlink:href="../../df/dce/namespacegraph.html#ab7706341d006e20d1ae58274187a3346" target="_top" xlink:title="Function calculates the minimum path distance that will cover all the cities starting from the source...">
<polygon fill="white" stroke="black" points="148,-71 148,-101 280,-101 280,-71 148,-71"/>
<text text-anchor="start" x="156" y="-89" font-family="Helvetica,sans-Serif" font-size="10.00">graph::TravellingSalesman</text>
<text text-anchor="middle" x="214" y="-78" font-family="Helvetica,sans-Serif" font-size="10.00">Problem</text>
</a>
</g>
</g>
<!-- Node1&#45;&gt;Node5 -->
<g id="edge14" class="edge">
<title>Node1&#45;&gt;Node5</title>
<path fill="none" stroke="midnightblue" d="M38.16,-123.14C60.97,-118.3 101.55,-109.68 137.87,-101.96"/>
<polygon fill="midnightblue" stroke="midnightblue" points="138.93,-105.31 147.98,-99.81 137.48,-98.47 138.93,-105.31"/>
</g>
<!-- Node4&#45;&gt;Node2 -->
<g id="edge4" class="edge">
<title>Node4&#45;&gt;Node2</title>
<path fill="none" stroke="midnightblue" d="M112.07,-151.16C129.25,-156.07 155.57,-163.59 177.02,-169.72"/>
<polygon fill="midnightblue" stroke="midnightblue" points="176.22,-173.13 186.8,-172.51 178.14,-166.4 176.22,-173.13"/>
</g>
<!-- Node4&#45;&gt;Node3 -->
<g id="edge5" class="edge">
<title>Node4&#45;&gt;Node3</title>
<path fill="none" stroke="midnightblue" d="M112.07,-144.78C124.95,-143.92 142.98,-142.71 160.24,-141.55"/>
<polygon fill="midnightblue" stroke="midnightblue" points="160.52,-145.04 170.27,-140.87 160.05,-138.05 160.52,-145.04"/>
</g>
<!-- Node4&#45;&gt;Node5 -->
<g id="edge6" class="edge">
<title>Node4&#45;&gt;Node5</title>
<path fill="none" stroke="midnightblue" d="M112.07,-136.89C128.5,-128.61 153.28,-116.11 174.18,-105.57"/>
<polygon fill="midnightblue" stroke="midnightblue" points="175.81,-108.67 183.17,-101.04 172.66,-102.42 175.81,-108.67"/>
</g>
<!-- Node6 -->
<g id="node6" class="node">
<title>Node6</title>
<g id="a_node6"><a target="_blank" xlink:href="http://en.cppreference.com/w/cpp/container/vector/begin.html#" xlink:title=" ">
<polygon fill="white" stroke="black" points="328,-152.5 328,-171.5 420,-171.5 420,-152.5 328,-152.5"/>
<text text-anchor="middle" x="374" y="-159.5" font-family="Helvetica,sans-Serif" font-size="10.00">std::vector::begin</text>
</a>
</g>
</g>
<!-- Node5&#45;&gt;Node6 -->
<g id="edge7" class="edge">
<title>Node5&#45;&gt;Node6</title>
<path fill="none" stroke="midnightblue" d="M246.48,-101.04C257.26,-106.44 269.29,-112.74 280,-119 296.6,-128.7 298.73,-134.55 316,-143 320.34,-145.12 324.97,-147.1 329.66,-148.91"/>
<polygon fill="midnightblue" stroke="midnightblue" points="328.66,-152.27 339.25,-152.4 331.05,-145.69 328.66,-152.27"/>
</g>
<!-- Node7 -->
<g id="node7" class="node">
<title>Node7</title>
<g id="a_node7"><a target="_blank" xlink:href="http://en.cppreference.com/w/cpp/container/vector/end.html#" xlink:title=" ">
<polygon fill="white" stroke="black" points="331.5,-114.5 331.5,-133.5 416.5,-133.5 416.5,-114.5 331.5,-114.5"/>
<text text-anchor="middle" x="374" y="-121.5" font-family="Helvetica,sans-Serif" font-size="10.00">std::vector::end</text>
</a>
</g>
</g>
<!-- Node5&#45;&gt;Node7 -->
<g id="edge8" class="edge">
<title>Node5&#45;&gt;Node7</title>
<path fill="none" stroke="midnightblue" d="M277.45,-101.02C292.72,-104.69 308.87,-108.58 323.45,-112.08"/>
<polygon fill="midnightblue" stroke="midnightblue" points="322.72,-115.51 333.26,-114.44 324.36,-108.7 322.72,-115.51"/>
</g>
<!-- Node8 -->
<g id="node8" class="node">
<title>Node8</title>
<g id="a_node8"><a xlink:href="../../d4/d18/composite__simpson__rule_8cpp.html#a6d50f1b8eb533b54721812d16a3699cc" target="_top" xlink:title="Another test function.">
<polygon fill="white" stroke="black" points="359.5,-76.5 359.5,-95.5 388.5,-95.5 388.5,-76.5 359.5,-76.5"/>
<text text-anchor="middle" x="374" y="-83.5" font-family="Helvetica,sans-Serif" font-size="10.00">k</text>
</a>
</g>
</g>
<!-- Node5&#45;&gt;Node8 -->
<g id="edge9" class="edge">
<title>Node5&#45;&gt;Node8</title>
<path fill="none" stroke="midnightblue" d="M280.18,-86C304.65,-86 330.95,-86 349.28,-86"/>
<polygon fill="midnightblue" stroke="midnightblue" points="349.33,-89.5 359.33,-86 349.33,-82.5 349.33,-89.5"/>
</g>
<!-- Node11 -->
<g id="node11" class="node">
<title>Node11</title>
<g id="a_node11"><a target="_blank" xlink:href="http://en.cppreference.com/w/cpp/algorithm/min.html#" xlink:title=" ">
<polygon fill="white" stroke="black" points="348,-38.5 348,-57.5 400,-57.5 400,-38.5 348,-38.5"/>
<text text-anchor="middle" x="374" y="-45.5" font-family="Helvetica,sans-Serif" font-size="10.00">std::min</text>
</a>
</g>
</g>
<!-- Node5&#45;&gt;Node11 -->
<g id="edge12" class="edge">
<title>Node5&#45;&gt;Node11</title>
<path fill="none" stroke="midnightblue" d="M277.45,-70.98C297.92,-66.06 319.96,-60.76 337.7,-56.49"/>
<polygon fill="midnightblue" stroke="midnightblue" points="338.7,-59.85 347.6,-54.11 337.06,-53.04 338.7,-59.85"/>
</g>
<!-- Node12 -->
<g id="node12" class="node">
<title>Node12</title>
<g id="a_node12"><a target="_blank" xlink:href="http://en.cppreference.com/w/cpp/container/vector/push_back.html#" xlink:title=" ">
<polygon fill="white" stroke="black" points="316,-0.5 316,-19.5 432,-19.5 432,-0.5 316,-0.5"/>
<text text-anchor="middle" x="374" y="-7.5" font-family="Helvetica,sans-Serif" font-size="10.00">std::vector::push_back</text>
</a>
</g>
</g>
<!-- Node5&#45;&gt;Node12 -->
<g id="edge13" class="edge">
<title>Node5&#45;&gt;Node12</title>
<path fill="none" stroke="midnightblue" d="M238.81,-70.83C258.86,-58.48 288.58,-41.17 316,-29 320.76,-26.89 325.84,-24.87 330.92,-23"/>
<polygon fill="midnightblue" stroke="midnightblue" points="332.36,-26.21 340.63,-19.59 330.04,-19.6 332.36,-26.21"/>
</g>
<!-- Node9 -->
<g id="node9" class="node">
<title>Node9</title>
<g id="a_node9"><a target="_blank" xlink:href="http://en.cppreference.com/w/cpp/numeric/math/pow.html#" xlink:title=" ">
<polygon fill="white" stroke="black" points="468,-95.5 468,-114.5 522,-114.5 522,-95.5 468,-95.5"/>
<text text-anchor="middle" x="495" y="-102.5" font-family="Helvetica,sans-Serif" font-size="10.00">std::pow</text>
</a>
</g>
</g>
<!-- Node8&#45;&gt;Node9 -->
<g id="edge10" class="edge">
<title>Node8&#45;&gt;Node9</title>
<path fill="none" stroke="midnightblue" d="M388.65,-88.18C405.46,-90.86 434.64,-95.52 458.04,-99.26"/>
<polygon fill="midnightblue" stroke="midnightblue" points="457.56,-102.73 467.99,-100.85 458.66,-95.81 457.56,-102.73"/>
</g>
<!-- Node10 -->
<g id="node10" class="node">
<title>Node10</title>
<g id="a_node10"><a target="_blank" xlink:href="http://en.cppreference.com/w/cpp/numeric/math/sqrt.html#" xlink:title=" ">
<polygon fill="white" stroke="black" points="468.5,-57.5 468.5,-76.5 521.5,-76.5 521.5,-57.5 468.5,-57.5"/>
<text text-anchor="middle" x="495" y="-64.5" font-family="Helvetica,sans-Serif" font-size="10.00">std::sqrt</text>
</a>
</g>
</g>
<!-- Node8&#45;&gt;Node10 -->
<g id="edge11" class="edge">
<title>Node8&#45;&gt;Node10</title>
<path fill="none" stroke="midnightblue" d="M388.65,-83.82C405.56,-81.12 435.01,-76.42 458.48,-72.67"/>
<polygon fill="midnightblue" stroke="midnightblue" points="459.13,-76.11 468.45,-71.08 458.02,-69.2 459.13,-76.11"/>
</g>
</g>
</svg>
