<?xml version="1.0" encoding="UTF-8" standalone="no"?>
<!DOCTYPE svg PUBLIC "-//W3C//DTD SVG 1.1//EN"
 "http://www.w3.org/Graphics/SVG/1.1/DTD/svg11.dtd">
<!-- Generated by graphviz version 5.0.0 (20220707.1540)
 -->
<!-- Title: main Pages: 1 -->
<!--zoomable 543 -->
<svg id="main" version="1.1" xmlns="http://www.w3.org/2000/svg" xmlns:xlink="http://www.w3.org/1999/xlink" xml:space="preserve" onload="init(evt)">
<style type="text/css"><![CDATA[
.edge:hover path { stroke: red; }
.edge:hover polygon { stroke: red; fill: red; }
]]></style>
<script type="text/javascript"><![CDATA[
var edges = document.getElementsByTagName('g');
if (edges && edges.length) {
  for (var i=0;i<edges.length;i++) {
    if (edges[i].id.substr(0,4)=='edge') {
      edges[i].setAttribute('class','edge');
    }
  }
}
]]></script>
        <defs>
                <circle id="rim" cx="0" cy="0" r="7"/>
                <circle id="rim2" cx="0" cy="0" r="3.5"/>
                <g id="zoomPlus">
                        <use xlink:href="#rim" fill="#404040">
                                <set attributeName="fill" to="#808080" begin="zoomplus.mouseover" end="zoomplus.mouseout"/>
                        </use>
                        <path d="M-4,0h8M0,-4v8" fill="none" stroke="white" stroke-width="1.5" pointer-events="none"/>
                </g>
                <g id="zoomMin">
                        <use xlink:href="#rim" fill="#404040">
                                <set attributeName="fill" to="#808080" begin="zoomminus.mouseover" end="zoomminus.mouseout"/>
                        </use>
                        <path d="M-4,0h8" fill="none" stroke="white" stroke-width="1.5" pointer-events="none"/>
                </g>
                <g id="dirArrow">
                        <path fill="none" stroke="white" stroke-width="1.5" d="M0,-3.0v7 M-2.5,-0.5L0,-3.0L2.5,-0.5"/>
                </g>
               <g id="resetDef">
                       <use xlink:href="#rim2" fill="#404040">
                               <set attributeName="fill" to="#808080" begin="reset.mouseover" end="reset.mouseout"/>
                       </use>
               </g>
        </defs>

<script type="text/javascript">
var viewWidth = 705;
var viewHeight = 543;
var sectionId = 'dynsection-1';
</script>
<script xlink:href="../../svgpan.js"/>
<svg id="graph" class="graph">
<g id="viewport">
<title>main</title>
<polygon fill="white" stroke="transparent" points="-4,4 -4,-538.63 701,-538.63 701,4 -4,4"/>
<!-- Node1 -->
<g id="node1" class="node">
<title>Node1</title>
<g id="a_node1"><a xlink:title=" ">
<polygon fill="#bfbfbf" stroke="black" points="0,-220.13 0,-239.13 38,-239.13 38,-220.13 0,-220.13"/>
<text text-anchor="middle" x="19" y="-227.13" font-family="Helvetica,sans-Serif" font-size="10.00">main</text>
</a>
</g>
</g>
<!-- Node2 -->
<g id="node2" class="node">
<title>Node2</title>
<g id="a_node2"><a xlink:href="../../da/dd3/namespacespirograph.html#a8e83a64e8443fff1e5ffdc1c299c1e99" target="_top" xlink:title="Test function to save resulting points to a CSV file.">
<polygon fill="white" stroke="black" points="74,-119.13 74,-138.13 158,-138.13 158,-119.13 74,-119.13"/>
<text text-anchor="middle" x="116" y="-126.13" font-family="Helvetica,sans-Serif" font-size="10.00">spirograph::test</text>
</a>
</g>
</g>
<!-- Node1&#45;&gt;Node2 -->
<g id="edge1" class="edge">
<title>Node1&#45;&gt;Node2</title>
<path fill="none" stroke="midnightblue" d="M29.11,-219.94C45.25,-202.78 79.06,-166.84 99.11,-145.52"/>
<polygon fill="midnightblue" stroke="midnightblue" points="101.76,-147.82 106.06,-138.14 96.66,-143.02 101.76,-147.82"/>
</g>
<!-- Node15 -->
<g id="node15" class="node">
<title>Node15</title>
<g id="a_node15"><a xlink:href="../../d7/db9/hill__cipher_8cpp.html#a04391124480d2a49f2dec900237b0712" target="_top" xlink:title="Self test 2 &#45; using 8x8 randomly generated key.">
<polygon fill="white" stroke="black" points="97,-340.13 97,-359.13 135,-359.13 135,-340.13 97,-340.13"/>
<text text-anchor="middle" x="116" y="-347.13" font-family="Helvetica,sans-Serif" font-size="10.00">test2</text>
</a>
</g>
</g>
<!-- Node1&#45;&gt;Node15 -->
<g id="edge16" class="edge">
<title>Node1&#45;&gt;Node15</title>
<path fill="none" stroke="midnightblue" d="M27.77,-239.45C43.79,-259.68 80.65,-306.24 100.95,-331.89"/>
<polygon fill="midnightblue" stroke="midnightblue" points="98.43,-334.34 107.38,-340.01 103.92,-330 98.43,-334.34"/>
</g>
<!-- Node3 -->
<g id="node3" class="node">
<title>Node3</title>
<g id="a_node3"><a target="_blank" xlink:href="http://en.cppreference.com/w/cpp/io/basic_ofstream/close.html#" xlink:title=" ">
<polygon fill="white" stroke="black" points="199,-214.13 199,-233.13 303,-233.13 303,-214.13 199,-214.13"/>
<text text-anchor="middle" x="251" y="-221.13" font-family="Helvetica,sans-Serif" font-size="10.00">std::ofstream::close</text>
</a>
</g>
</g>
<!-- Node2&#45;&gt;Node3 -->
<g id="edge2" class="edge">
<title>Node2&#45;&gt;Node3</title>
<path fill="none" stroke="midnightblue" d="M125.62,-138.49C139.02,-153.34 166.23,-181.63 194,-199.63 199.9,-203.45 206.52,-206.91 213.08,-209.93"/>
<polygon fill="midnightblue" stroke="midnightblue" points="212,-213.28 222.56,-214.04 214.78,-206.86 212,-213.28"/>
</g>
<!-- Node4 -->
<g id="node4" class="node">
<title>Node4</title>
<g id="a_node4"><a target="_blank" xlink:href="http://en.cppreference.com/w/cpp/io/basic_ofstream/is_open.html#" xlink:title=" ">
<polygon fill="white" stroke="black" points="194,-24.13 194,-43.13 308,-43.13 308,-24.13 194,-24.13"/>
<text text-anchor="middle" x="251" y="-31.13" font-family="Helvetica,sans-Serif" font-size="10.00">std::ofstream::is_open</text>
</a>
</g>
</g>
<!-- Node2&#45;&gt;Node4 -->
<g id="edge3" class="edge">
<title>Node2&#45;&gt;Node4</title>
<path fill="none" stroke="midnightblue" d="M124.25,-119.06C136.8,-103.13 164.11,-71.08 194,-52.63 197.34,-50.56 200.94,-48.69 204.64,-47"/>
<polygon fill="midnightblue" stroke="midnightblue" points="206.04,-50.21 213.96,-43.17 203.38,-43.74 206.04,-50.21"/>
</g>
<!-- Node5 -->
<g id="node5" class="node">
<title>Node5</title>
<g id="a_node5"><a xlink:href="../../d4/d18/composite__simpson__rule_8cpp.html#a6d50f1b8eb533b54721812d16a3699cc" target="_top" xlink:title="Another test function.">
<polygon fill="white" stroke="black" points="378,-24.13 378,-43.13 407,-43.13 407,-24.13 378,-24.13"/>
<text text-anchor="middle" x="392.5" y="-31.13" font-family="Helvetica,sans-Serif" font-size="10.00">k</text>
</a>
</g>
</g>
<!-- Node2&#45;&gt;Node5 -->
<g id="edge4" class="edge">
<title>Node2&#45;&gt;Node5</title>
<path fill="none" stroke="midnightblue" d="M120.03,-118.92C127.85,-95.73 151.18,-37.38 194,-14.63 250.83,15.56 329.88,-8.42 368.47,-23.6"/>
<polygon fill="midnightblue" stroke="midnightblue" points="367.22,-26.87 377.8,-27.41 369.86,-20.39 367.22,-26.87"/>
</g>
<!-- Node8 -->
<g id="node8" class="node">
<title>Node8</title>
<g id="a_node8"><a xlink:href="../../d4/d18/composite__simpson__rule_8cpp.html#a995716bc040dc6cf32b5cb3df51c4529" target="_top" xlink:title="Another test function.">
<polygon fill="white" stroke="black" points="378,-176.13 378,-195.13 407,-195.13 407,-176.13 378,-176.13"/>
<text text-anchor="middle" x="392.5" y="-183.13" font-family="Helvetica,sans-Serif" font-size="10.00">l</text>
</a>
</g>
</g>
<!-- Node2&#45;&gt;Node8 -->
<g id="edge7" class="edge">
<title>Node2&#45;&gt;Node8</title>
<path fill="none" stroke="midnightblue" d="M132.25,-138.24C147.32,-147.22 171.35,-160.18 194,-166.63 254.65,-183.88 329.55,-186.18 367.31,-186.08"/>
<polygon fill="midnightblue" stroke="midnightblue" points="367.81,-189.58 377.78,-185.99 367.75,-182.58 367.81,-189.58"/>
</g>
<!-- Node10 -->
<g id="node10" class="node">
<title>Node10</title>
<g id="a_node10"><a target="_blank" xlink:href="http://en.cppreference.com/w/cpp/io/manip/setw.html#" xlink:title=" ">
<polygon fill="white" stroke="black" points="222.5,-100.13 222.5,-119.13 279.5,-119.13 279.5,-100.13 222.5,-100.13"/>
<text text-anchor="middle" x="251" y="-107.13" font-family="Helvetica,sans-Serif" font-size="10.00">std::setw</text>
</a>
</g>
</g>
<!-- Node2&#45;&gt;Node10 -->
<g id="edge9" class="edge">
<title>Node2&#45;&gt;Node10</title>
<path fill="none" stroke="midnightblue" d="M158.35,-122.72C175.53,-120.27 195.33,-117.44 212.12,-115.04"/>
<polygon fill="midnightblue" stroke="midnightblue" points="212.73,-118.49 222.14,-113.61 211.74,-111.56 212.73,-118.49"/>
</g>
<!-- Node11 -->
<g id="node11" class="node">
<title>Node11</title>
<g id="a_node11"><a xlink:href="../../da/dd3/namespacespirograph.html#aeca22dbe4563358960e907a40cd3e1ac" target="_top" xlink:title=" ">
<polygon fill="white" stroke="black" points="194.5,-138.13 194.5,-157.13 307.5,-157.13 307.5,-138.13 194.5,-138.13"/>
<text text-anchor="middle" x="251" y="-145.13" font-family="Helvetica,sans-Serif" font-size="10.00">spirograph::spirograph</text>
</a>
</g>
</g>
<!-- Node2&#45;&gt;Node11 -->
<g id="edge10" class="edge">
<title>Node2&#45;&gt;Node11</title>
<path fill="none" stroke="midnightblue" d="M158.35,-134.54C166.66,-135.72 175.59,-137 184.49,-138.27"/>
<polygon fill="midnightblue" stroke="midnightblue" points="184.1,-141.75 194.5,-139.7 185.09,-134.82 184.1,-141.75"/>
</g>
<!-- Node14 -->
<g id="node14" class="node">
<title>Node14</title>
<g id="a_node14"><a target="_blank" xlink:href="http://en.cppreference.com/w/cpp/io/basic_stringstream/str.html#" xlink:title=" ">
<polygon fill="white" stroke="black" points="197.5,-62.13 197.5,-81.13 304.5,-81.13 304.5,-62.13 197.5,-62.13"/>
<text text-anchor="middle" x="251" y="-69.13" font-family="Helvetica,sans-Serif" font-size="10.00">std::stringstream::str</text>
</a>
</g>
</g>
<!-- Node2&#45;&gt;Node14 -->
<g id="edge15" class="edge">
<title>Node2&#45;&gt;Node14</title>
<path fill="none" stroke="midnightblue" d="M134.74,-119.04C150.15,-110.92 173.2,-99.24 194,-90.63 199.1,-88.52 204.52,-86.45 209.92,-84.51"/>
<polygon fill="midnightblue" stroke="midnightblue" points="211.22,-87.77 219.5,-81.17 208.91,-81.16 211.22,-87.77"/>
</g>
<!-- Node6 -->
<g id="node6" class="node">
<title>Node6</title>
<g id="a_node6"><a target="_blank" xlink:href="http://en.cppreference.com/w/cpp/numeric/math/pow.html#" xlink:title=" ">
<polygon fill="white" stroke="black" points="498.5,-5.13 498.5,-24.13 552.5,-24.13 552.5,-5.13 498.5,-5.13"/>
<text text-anchor="middle" x="525.5" y="-12.13" font-family="Helvetica,sans-Serif" font-size="10.00">std::pow</text>
</a>
</g>
</g>
<!-- Node5&#45;&gt;Node6 -->
<g id="edge5" class="edge">
<title>Node5&#45;&gt;Node6</title>
<path fill="none" stroke="midnightblue" d="M407.03,-31.67C425.96,-28.92 461.05,-23.83 487.97,-19.93"/>
<polygon fill="midnightblue" stroke="midnightblue" points="488.8,-23.34 498.2,-18.44 487.8,-16.42 488.8,-23.34"/>
</g>
<!-- Node7 -->
<g id="node7" class="node">
<title>Node7</title>
<g id="a_node7"><a target="_blank" xlink:href="http://en.cppreference.com/w/cpp/numeric/math/sqrt.html#" xlink:title=" ">
<polygon fill="white" stroke="black" points="499,-43.13 499,-62.13 552,-62.13 552,-43.13 499,-43.13"/>
<text text-anchor="middle" x="525.5" y="-50.13" font-family="Helvetica,sans-Serif" font-size="10.00">std::sqrt</text>
</a>
</g>
</g>
<!-- Node5&#45;&gt;Node7 -->
<g id="edge6" class="edge">
<title>Node5&#45;&gt;Node7</title>
<path fill="none" stroke="midnightblue" d="M407.03,-35.59C426.07,-38.35 461.48,-43.49 488.46,-47.4"/>
<polygon fill="midnightblue" stroke="midnightblue" points="488.3,-50.91 498.7,-48.89 489.31,-43.99 488.3,-50.91"/>
</g>
<!-- Node9 -->
<g id="node9" class="node">
<title>Node9</title>
<g id="a_node9"><a target="_blank" xlink:href="http://en.cppreference.com/w/cpp/numeric/math/log.html#" xlink:title=" ">
<polygon fill="white" stroke="black" points="501,-176.13 501,-195.13 550,-195.13 550,-176.13 501,-176.13"/>
<text text-anchor="middle" x="525.5" y="-183.13" font-family="Helvetica,sans-Serif" font-size="10.00">std::log</text>
</a>
</g>
</g>
<!-- Node8&#45;&gt;Node9 -->
<g id="edge8" class="edge">
<title>Node8&#45;&gt;Node9</title>
<path fill="none" stroke="midnightblue" d="M407.03,-185.63C426.53,-185.63 463.2,-185.63 490.4,-185.63"/>
<polygon fill="midnightblue" stroke="midnightblue" points="490.67,-189.13 500.67,-185.63 490.67,-182.13 490.67,-189.13"/>
</g>
<!-- Node11&#45;&gt;Node5 -->
<g id="edge12" class="edge">
<title>Node11&#45;&gt;Node5</title>
<path fill="none" stroke="midnightblue" d="M289.14,-138.09C295.72,-135.57 302.28,-132.45 308,-128.63 316.33,-123.07 355.17,-77.21 376.82,-51.3"/>
<polygon fill="midnightblue" stroke="midnightblue" points="379.72,-53.29 383.44,-43.36 374.35,-48.8 379.72,-53.29"/>
</g>
<!-- Node11&#45;&gt;Node8 -->
<g id="edge13" class="edge">
<title>Node11&#45;&gt;Node8</title>
<path fill="none" stroke="midnightblue" d="M287.2,-157.22C312.45,-164.1 345.78,-173.17 367.89,-179.2"/>
<polygon fill="midnightblue" stroke="midnightblue" points="367.19,-182.63 377.76,-181.89 369.03,-175.88 367.19,-182.63"/>
</g>
<!-- Node12 -->
<g id="node12" class="node">
<title>Node12</title>
<g id="a_node12"><a target="_blank" xlink:href="http://en.cppreference.com/w/cpp/numeric/math/cos.html#" xlink:title=" ">
<polygon fill="white" stroke="black" points="366.5,-138.13 366.5,-157.13 418.5,-157.13 418.5,-138.13 366.5,-138.13"/>
<text text-anchor="middle" x="392.5" y="-145.13" font-family="Helvetica,sans-Serif" font-size="10.00">std::cos</text>
</a>
</g>
</g>
<!-- Node11&#45;&gt;Node12 -->
<g id="edge11" class="edge">
<title>Node11&#45;&gt;Node12</title>
<path fill="none" stroke="midnightblue" d="M307.53,-147.63C323.92,-147.63 341.4,-147.63 356.14,-147.63"/>
<polygon fill="midnightblue" stroke="midnightblue" points="356.34,-151.13 366.34,-147.63 356.34,-144.13 356.34,-151.13"/>
</g>
<!-- Node13 -->
<g id="node13" class="node">
<title>Node13</title>
<g id="a_node13"><a target="_blank" xlink:href="http://en.cppreference.com/w/cpp/numeric/math/sin.html#" xlink:title=" ">
<polygon fill="white" stroke="black" points="368,-100.13 368,-119.13 417,-119.13 417,-100.13 368,-100.13"/>
<text text-anchor="middle" x="392.5" y="-107.13" font-family="Helvetica,sans-Serif" font-size="10.00">std::sin</text>
</a>
</g>
</g>
<!-- Node11&#45;&gt;Node13 -->
<g id="edge14" class="edge">
<title>Node11&#45;&gt;Node13</title>
<path fill="none" stroke="midnightblue" d="M287.2,-138.04C308.84,-132.14 336.42,-124.63 357.78,-118.81"/>
<polygon fill="midnightblue" stroke="midnightblue" points="358.99,-122.11 367.72,-116.11 357.15,-115.36 358.99,-122.11"/>
</g>
<!-- Node15&#45;&gt;Node3 -->
<g id="edge17" class="edge">
<title>Node15&#45;&gt;Node3</title>
<path fill="none" stroke="midnightblue" d="M121.52,-339.93C131.6,-319.27 157.95,-270.62 194,-243.63 197.03,-241.36 200.34,-239.33 203.79,-237.52"/>
<polygon fill="midnightblue" stroke="midnightblue" points="205.52,-240.58 213.14,-233.22 202.59,-234.22 205.52,-240.58"/>
</g>
<!-- Node16 -->
<g id="node16" class="node">
<title>Node16</title>
<g id="a_node16"><a target="_blank" xlink:href="http://en.cppreference.com/w/cpp/string/basic_string/compare.html#" xlink:title=" ">
<polygon fill="white" stroke="black" points="199,-515.13 199,-534.13 303,-534.13 303,-515.13 199,-515.13"/>
<text text-anchor="middle" x="251" y="-522.13" font-family="Helvetica,sans-Serif" font-size="10.00">std::string::compare</text>
</a>
</g>
</g>
<!-- Node15&#45;&gt;Node16 -->
<g id="edge18" class="edge">
<title>Node15&#45;&gt;Node16</title>
<path fill="none" stroke="midnightblue" d="M119.03,-359.27C125.25,-386.37 146.53,-464.02 194,-505.63 195.93,-507.32 198.01,-508.86 200.2,-510.26"/>
<polygon fill="midnightblue" stroke="midnightblue" points="198.6,-513.38 209.07,-515.03 201.92,-507.21 198.6,-513.38"/>
</g>
<!-- Node17 -->
<g id="node17" class="node">
<title>Node17</title>
<g id="a_node17"><a xlink:href="../../d6/d26/classciphers_1_1_hill_cipher.html#a427acfac1dbff3f48a2b071d449d965b" target="_top" xlink:title="Decrypt a given text using a given key.">
<polygon fill="white" stroke="black" points="202.5,-465.63 202.5,-495.63 299.5,-495.63 299.5,-465.63 202.5,-465.63"/>
<text text-anchor="start" x="210.5" y="-483.63" font-family="Helvetica,sans-Serif" font-size="10.00">ciphers::HillCipher</text>
<text text-anchor="middle" x="251" y="-472.63" font-family="Helvetica,sans-Serif" font-size="10.00">::decrypt_text</text>
</a>
</g>
</g>
<!-- Node15&#45;&gt;Node17 -->
<g id="edge19" class="edge">
<title>Node15&#45;&gt;Node17</title>
<path fill="none" stroke="midnightblue" d="M121.62,-359.25C131.92,-379.77 158.65,-428.28 194,-456.63 195.58,-457.89 197.23,-459.1 198.94,-460.26"/>
<polygon fill="midnightblue" stroke="midnightblue" points="197.5,-463.47 207.88,-465.6 201.09,-457.47 197.5,-463.47"/>
</g>
<!-- Node21 -->
<g id="node21" class="node">
<title>Node21</title>
<g id="a_node21"><a target="_blank" xlink:href="http://en.cppreference.com/w/cpp/string/basic_string/size.html#" xlink:title=" ">
<polygon fill="white" stroke="black" points="479.5,-378.13 479.5,-397.13 571.5,-397.13 571.5,-378.13 479.5,-378.13"/>
<text text-anchor="middle" x="525.5" y="-385.13" font-family="Helvetica,sans-Serif" font-size="10.00">std::string::length</text>
</a>
</g>
</g>
<!-- Node15&#45;&gt;Node21 -->
<g id="edge33" class="edge">
<title>Node15&#45;&gt;Node21</title>
<path fill="none" stroke="midnightblue" d="M135.27,-353.52C150.82,-356.7 173.78,-361.06 194,-363.63 290.43,-375.86 403.54,-382.4 469.31,-385.43"/>
<polygon fill="midnightblue" stroke="midnightblue" points="469.3,-388.94 479.44,-385.89 469.61,-381.94 469.3,-388.94"/>
</g>
<!-- Node23 -->
<g id="node23" class="node">
<title>Node23</title>
<g id="a_node23"><a target="_blank" xlink:href="http://en.cppreference.com/w/cpp/container/vector/size.html#" xlink:title=" ">
<polygon fill="white" stroke="black" points="610,-416.13 610,-435.13 697,-435.13 697,-416.13 610,-416.13"/>
<text text-anchor="middle" x="653.5" y="-423.13" font-family="Helvetica,sans-Serif" font-size="10.00">std::vector::size</text>
</a>
</g>
</g>
<!-- Node15&#45;&gt;Node23 -->
<g id="edge32" class="edge">
<title>Node15&#45;&gt;Node23</title>
<path fill="none" stroke="midnightblue" d="M135.12,-346.75C198.03,-337.49 412,-312.27 574,-368.63 597.89,-376.94 620.77,-395.12 635.6,-408.72"/>
<polygon fill="midnightblue" stroke="midnightblue" points="633.3,-411.37 642.96,-415.72 638.12,-406.3 633.3,-411.37"/>
</g>
<!-- Node24 -->
<g id="node24" class="node">
<title>Node24</title>
<g id="a_node24"><a xlink:href="../../d6/d26/classciphers_1_1_hill_cipher.html#aa8bbb6e4a5749f6008b06602d5103917" target="_top" xlink:title="Encrypt a given text using a given key.">
<polygon fill="white" stroke="black" points="202.5,-416.63 202.5,-446.63 299.5,-446.63 299.5,-416.63 202.5,-416.63"/>
<text text-anchor="start" x="210.5" y="-434.63" font-family="Helvetica,sans-Serif" font-size="10.00">ciphers::HillCipher</text>
<text text-anchor="middle" x="251" y="-423.63" font-family="Helvetica,sans-Serif" font-size="10.00">::encrypt_text</text>
</a>
</g>
</g>
<!-- Node15&#45;&gt;Node24 -->
<g id="edge28" class="edge">
<title>Node15&#45;&gt;Node24</title>
<path fill="none" stroke="midnightblue" d="M130.36,-359.26C145.5,-370.04 171.07,-387.8 194,-401.63 199.58,-404.99 205.56,-408.4 211.47,-411.66"/>
<polygon fill="midnightblue" stroke="midnightblue" points="210.16,-414.93 220.62,-416.61 213.49,-408.77 210.16,-414.93"/>
</g>
<!-- Node25 -->
<g id="node25" class="node">
<title>Node25</title>
<g id="a_node25"><a target="_blank" xlink:href="http://en.cppreference.com/w/cpp/io/manip/endl.html#" xlink:title=" ">
<polygon fill="white" stroke="black" points="224,-302.13 224,-321.13 278,-321.13 278,-302.13 224,-302.13"/>
<text text-anchor="middle" x="251" y="-309.13" font-family="Helvetica,sans-Serif" font-size="10.00">std::endl</text>
</a>
</g>
</g>
<!-- Node15&#45;&gt;Node25 -->
<g id="edge30" class="edge">
<title>Node15&#45;&gt;Node25</title>
<path fill="none" stroke="midnightblue" d="M135.21,-344.42C155.44,-338.65 188.59,-329.17 214.08,-321.89"/>
<polygon fill="midnightblue" stroke="midnightblue" points="215.12,-325.23 223.77,-319.12 213.2,-318.5 215.12,-325.23"/>
</g>
<!-- Node26 -->
<g id="node26" class="node">
<title>Node26</title>
<g id="a_node26"><a xlink:href="../../d6/d26/classciphers_1_1_hill_cipher.html#a405b0a28d66a61239d3565d5256f9cb5" target="_top" xlink:title="Generate encryption and decryption key pair.">
<polygon fill="white" stroke="black" points="202.5,-252.63 202.5,-282.63 299.5,-282.63 299.5,-252.63 202.5,-252.63"/>
<text text-anchor="start" x="210.5" y="-270.63" font-family="Helvetica,sans-Serif" font-size="10.00">ciphers::HillCipher</text>
<text text-anchor="middle" x="251" y="-259.63" font-family="Helvetica,sans-Serif" font-size="10.00">::generate_keys</text>
</a>
</g>
</g>
<!-- Node15&#45;&gt;Node26 -->
<g id="edge31" class="edge">
<title>Node15&#45;&gt;Node26</title>
<path fill="none" stroke="midnightblue" d="M128.2,-340.11C142.72,-328.07 169.15,-307.14 194,-292.63 197.22,-290.75 200.61,-288.91 204.07,-287.14"/>
<polygon fill="midnightblue" stroke="midnightblue" points="205.83,-290.18 213.27,-282.64 202.75,-283.89 205.83,-290.18"/>
</g>
<!-- Node18 -->
<g id="node18" class="node">
<title>Node18</title>
<g id="a_node18"><a xlink:href="../../d6/d26/classciphers_1_1_hill_cipher.html#ad667fa0860977f6d6d443fa1dbcd80aa" target="_top" xlink:title="Convenience function to perform block cipher operations. The operations are identical for both encryp...">
<polygon fill="white" stroke="black" points="344,-435.63 344,-465.63 441,-465.63 441,-435.63 344,-435.63"/>
<text text-anchor="start" x="352" y="-453.63" font-family="Helvetica,sans-Serif" font-size="10.00">ciphers::HillCipher</text>
<text text-anchor="middle" x="392.5" y="-442.63" font-family="Helvetica,sans-Serif" font-size="10.00">::codec</text>
</a>
</g>
</g>
<!-- Node17&#45;&gt;Node18 -->
<g id="edge20" class="edge">
<title>Node17&#45;&gt;Node18</title>
<path fill="none" stroke="midnightblue" d="M299.62,-470.39C310.61,-468.03 322.41,-465.49 333.78,-463.04"/>
<polygon fill="midnightblue" stroke="midnightblue" points="334.58,-466.45 343.62,-460.92 333.11,-459.61 334.58,-466.45"/>
</g>
<!-- Node19 -->
<g id="node19" class="node">
<title>Node19</title>
<g id="a_node19"><a xlink:href="../../d6/d26/classciphers_1_1_hill_cipher.html#ae77cad522fa44b8c985779a7188d2f41" target="_top" xlink:title="Get the index of a character in the STRKEY.">
<polygon fill="white" stroke="black" points="477,-503.63 477,-533.63 574,-533.63 574,-503.63 477,-503.63"/>
<text text-anchor="start" x="485" y="-521.63" font-family="Helvetica,sans-Serif" font-size="10.00">ciphers::HillCipher</text>
<text text-anchor="middle" x="525.5" y="-510.63" font-family="Helvetica,sans-Serif" font-size="10.00">::get_char_idx</text>
</a>
</g>
</g>
<!-- Node18&#45;&gt;Node19 -->
<g id="edge21" class="edge">
<title>Node18&#45;&gt;Node19</title>
<path fill="none" stroke="midnightblue" d="M422.03,-465.82C438.14,-474.35 458.65,-485.16 477,-494.63 479.74,-496.04 482.58,-497.5 485.44,-498.96"/>
<polygon fill="midnightblue" stroke="midnightblue" points="484.06,-502.19 494.56,-503.6 487.23,-495.95 484.06,-502.19"/>
</g>
<!-- Node18&#45;&gt;Node21 -->
<g id="edge23" class="edge">
<title>Node18&#45;&gt;Node21</title>
<path fill="none" stroke="midnightblue" d="M424.88,-435.54C446.28,-425.25 474.42,-411.71 495.33,-401.66"/>
<polygon fill="midnightblue" stroke="midnightblue" points="496.88,-404.79 504.38,-397.3 493.85,-398.48 496.88,-404.79"/>
</g>
<!-- Node22 -->
<g id="node22" class="node">
<title>Node22</title>
<g id="a_node22"><a xlink:href="../../d6/d26/classciphers_1_1_hill_cipher.html#ad36cbcc7a458b3f3a2af0c4aa1126590" target="_top" xlink:title="helper function to perform vector multiplication with encryption or decryption matrix">
<polygon fill="white" stroke="black" points="477,-454.63 477,-484.63 574,-484.63 574,-454.63 477,-454.63"/>
<text text-anchor="start" x="485" y="-472.63" font-family="Helvetica,sans-Serif" font-size="10.00">ciphers::HillCipher</text>
<text text-anchor="middle" x="525.5" y="-461.63" font-family="Helvetica,sans-Serif" font-size="10.00">::mat_mul</text>
</a>
</g>
</g>
<!-- Node18&#45;&gt;Node22 -->
<g id="edge24" class="edge">
<title>Node18&#45;&gt;Node22</title>
<path fill="none" stroke="midnightblue" d="M441.16,-457.54C449.47,-458.75 458.19,-460.01 466.74,-461.25"/>
<polygon fill="midnightblue" stroke="midnightblue" points="466.25,-464.72 476.65,-462.69 467.26,-457.79 466.25,-464.72"/>
</g>
<!-- Node18&#45;&gt;Node23 -->
<g id="edge27" class="edge">
<title>Node18&#45;&gt;Node23</title>
<path fill="none" stroke="midnightblue" d="M441,-446.04C485.81,-441.72 552.86,-435.25 599.4,-430.75"/>
<polygon fill="midnightblue" stroke="midnightblue" points="599.98,-434.21 609.6,-429.77 599.31,-427.25 599.98,-434.21"/>
</g>
<!-- Node20 -->
<g id="node20" class="node">
<title>Node20</title>
<g id="a_node20"><a target="_blank" xlink:href="http://en.cppreference.com/w/cpp/string/byte/strlen.html#" xlink:title=" ">
<polygon fill="white" stroke="black" points="623.5,-484.13 623.5,-503.13 683.5,-503.13 683.5,-484.13 623.5,-484.13"/>
<text text-anchor="middle" x="653.5" y="-491.13" font-family="Helvetica,sans-Serif" font-size="10.00">std::strlen</text>
</a>
</g>
</g>
<!-- Node19&#45;&gt;Node20 -->
<g id="edge22" class="edge">
<title>Node19&#45;&gt;Node20</title>
<path fill="none" stroke="midnightblue" d="M574.14,-509.18C587.09,-506.61 600.97,-503.85 613.4,-501.39"/>
<polygon fill="midnightblue" stroke="midnightblue" points="614.31,-504.77 623.44,-499.39 612.95,-497.91 614.31,-504.77"/>
</g>
<!-- Node22&#45;&gt;Node20 -->
<g id="edge26" class="edge">
<title>Node22&#45;&gt;Node20</title>
<path fill="none" stroke="midnightblue" d="M574.14,-478.7C587.09,-481.17 600.97,-483.81 613.4,-486.18"/>
<polygon fill="midnightblue" stroke="midnightblue" points="612.96,-489.66 623.44,-488.09 614.27,-482.78 612.96,-489.66"/>
</g>
<!-- Node22&#45;&gt;Node23 -->
<g id="edge25" class="edge">
<title>Node22&#45;&gt;Node23</title>
<path fill="none" stroke="midnightblue" d="M569.51,-454.61C584.45,-449.39 601.07,-443.59 615.49,-438.55"/>
<polygon fill="midnightblue" stroke="midnightblue" points="616.78,-441.81 625.07,-435.21 614.48,-435.2 616.78,-441.81"/>
</g>
<!-- Node24&#45;&gt;Node18 -->
<g id="edge29" class="edge">
<title>Node24&#45;&gt;Node18</title>
<path fill="none" stroke="midnightblue" d="M299.62,-438.11C310.5,-439.6 322.17,-441.19 333.43,-442.72"/>
<polygon fill="midnightblue" stroke="midnightblue" points="333.24,-446.23 343.62,-444.11 334.19,-439.29 333.24,-446.23"/>
</g>
</g>
</svg>
        <g id="navigator" transform="translate(0 0)" fill="#404254">
                <rect fill="#f2f5e9" fill-opacity="0.5" stroke="#606060" stroke-width=".5" x="0" y="0" width="60" height="60"/>
                <use id="zoomplus" xlink:href="#zoomPlus" x="17" y="9" onmousedown="handleZoom(evt,'in')"/>
                <use id="zoomminus" xlink:href="#zoomMin" x="42" y="9" onmousedown="handleZoom(evt,'out')"/>
                <use id="reset" xlink:href="#resetDef" x="30" y="36" onmousedown="handleReset()"/>
                <g id="arrowUp" xlink:href="#dirArrow" transform="translate(30 24)" onmousedown="handlePan(0,-1)">
                  <use xlink:href="#rim" fill="#404040">
                        <set attributeName="fill" to="#808080" begin="arrowUp.mouseover" end="arrowUp.mouseout"/>
                  </use>
                  <path fill="none" stroke="white" stroke-width="1.5" d="M0,-3.0v7 M-2.5,-0.5L0,-3.0L2.5,-0.5"/>
                </g>
                <g id="arrowRight" xlink:href="#dirArrow" transform="rotate(90) translate(36 -43)" onmousedown="handlePan(1,0)">
                  <use xlink:href="#rim" fill="#404040">
                        <set attributeName="fill" to="#808080" begin="arrowRight.mouseover" end="arrowRight.mouseout"/>
                  </use>
                  <path fill="none" stroke="white" stroke-width="1.5" d="M0,-3.0v7 M-2.5,-0.5L0,-3.0L2.5,-0.5"/>
                </g>
                <g id="arrowDown" xlink:href="#dirArrow" transform="rotate(180) translate(-30 -48)" onmousedown="handlePan(0,1)">
                  <use xlink:href="#rim" fill="#404040">
                        <set attributeName="fill" to="#808080" begin="arrowDown.mouseover" end="arrowDown.mouseout"/>
                  </use>
                  <path fill="none" stroke="white" stroke-width="1.5" d="M0,-3.0v7 M-2.5,-0.5L0,-3.0L2.5,-0.5"/>
                </g>
                <g id="arrowLeft" xlink:href="#dirArrow" transform="rotate(270) translate(-36 17)" onmousedown="handlePan(-1,0)">
                  <use xlink:href="#rim" fill="#404040">
                        <set attributeName="fill" to="#808080" begin="arrowLeft.mouseover" end="arrowLeft.mouseout"/>
                  </use>
                  <path fill="none" stroke="white" stroke-width="1.5" d="M0,-3.0v7 M-2.5,-0.5L0,-3.0L2.5,-0.5"/>
                </g>
        </g>
        <svg viewBox="0 0 15 15" width="100%" height="30px" preserveAspectRatio="xMaxYMin meet">
         <g id="arrow_out" transform="scale(0.3 0.3)">
          <a xlink:href="spirograph_8cpp_a3c04138a5bfe5d72780bb7e82a18e627_cgraph_org.svg" target="_base">
           <rect id="button" ry="5" rx="5" y="6" x="6" height="38" width="38"
                fill="#f2f5e9" fill-opacity="0.5" stroke="#606060" stroke-width="1.0"/>
           <path id="arrow"
             d="M 11.500037,31.436501 C 11.940474,20.09759 22.043105,11.32322 32.158766,21.979434 L 37.068811,17.246167 C 37.068811,17.246167 37.088388,32 37.088388,32 L 22.160133,31.978069 C 22.160133,31.978069 26.997745,27.140456 26.997745,27.140456 C 18.528582,18.264221 13.291696,25.230495 11.500037,31.436501 z"
             style="fill:#404040;"/>
          </a>
         </g>
        </svg>
</svg>
