<?xml version="1.0" encoding="UTF-8" standalone="no"?>
<!DOCTYPE svg PUBLIC "-//W3C//DTD SVG 1.1//EN"
 "http://www.w3.org/Graphics/SVG/1.1/DTD/svg11.dtd">
<!-- Generated by graphviz version 5.0.0 (20220707.1540)
 -->
<!-- Title: test Pages: 1 -->
<svg width="220pt" height="180pt"
 viewBox="0.00 0.00 220.00 180.00" xmlns="http://www.w3.org/2000/svg" xmlns:xlink="http://www.w3.org/1999/xlink">
<g id="graph0" class="graph" transform="scale(1 1) rotate(0) translate(4 176)">
<title>test</title>
<polygon fill="white" stroke="transparent" points="-4,4 -4,-176 216,-176 216,4 -4,4"/>
<!-- Node1 -->
<g id="node1" class="node">
<title>Node1</title>
<g id="a_node1"><a xlink:title="Self&#45;test implementations.">
<polygon fill="#bfbfbf" stroke="black" points="0,-76.5 0,-95.5 33,-95.5 33,-76.5 0,-76.5"/>
<text text-anchor="middle" x="16.5" y="-83.5" font-family="Helvetica,sans-Serif" font-size="10.00">test</text>
</a>
</g>
</g>
<!-- Node2 -->
<g id="node2" class="node">
<title>Node2</title>
<g id="a_node2"><a target="_blank" xlink:href="http://en.cppreference.com/w/cpp/io/manip/endl.html#" xlink:title=" ">
<polygon fill="white" stroke="black" points="69,-152.5 69,-171.5 123,-171.5 123,-152.5 69,-152.5"/>
<text text-anchor="middle" x="96" y="-159.5" font-family="Helvetica,sans-Serif" font-size="10.00">std::endl</text>
</a>
</g>
</g>
<!-- Node1&#45;&gt;Node2 -->
<g id="edge1" class="edge">
<title>Node1&#45;&gt;Node2</title>
<path fill="none" stroke="midnightblue" d="M25.33,-95.84C34.97,-107.67 52.16,-127.82 69,-143 70.14,-144.03 71.34,-145.06 72.57,-146.07"/>
<polygon fill="midnightblue" stroke="midnightblue" points="70.77,-149.11 80.83,-152.45 75.05,-143.57 70.77,-149.11"/>
</g>
<!-- Node3 -->
<g id="node3" class="node">
<title>Node3</title>
<g id="a_node3"><a target="_blank" xlink:href="http://en.cppreference.com/w/cpp/numeric/math/exp.html#" xlink:title=" ">
<polygon fill="white" stroke="black" points="70,-114.5 70,-133.5 122,-133.5 122,-114.5 70,-114.5"/>
<text text-anchor="middle" x="96" y="-121.5" font-family="Helvetica,sans-Serif" font-size="10.00">std::exp</text>
</a>
</g>
</g>
<!-- Node1&#45;&gt;Node3 -->
<g id="edge2" class="edge">
<title>Node1&#45;&gt;Node3</title>
<path fill="none" stroke="midnightblue" d="M33.18,-93.69C42.72,-98.37 55.19,-104.48 66.43,-109.99"/>
<polygon fill="midnightblue" stroke="midnightblue" points="64.97,-113.17 75.49,-114.43 68.05,-106.89 64.97,-113.17"/>
</g>
<!-- Node4 -->
<g id="node4" class="node">
<title>Node4</title>
<g id="a_node4"><a xlink:href="../../d4/d18/composite__simpson__rule_8cpp.html#a3de2b7b41a8e4b07da05298510d17ed2" target="_top" xlink:title="A function f(x) that will be used to test the method.">
<polygon fill="white" stroke="black" points="81.5,-76.5 81.5,-95.5 110.5,-95.5 110.5,-76.5 81.5,-76.5"/>
<text text-anchor="middle" x="96" y="-83.5" font-family="Helvetica,sans-Serif" font-size="10.00">f</text>
</a>
</g>
</g>
<!-- Node1&#45;&gt;Node4 -->
<g id="edge3" class="edge">
<title>Node1&#45;&gt;Node4</title>
<path fill="none" stroke="midnightblue" d="M33.18,-86C44.13,-86 58.94,-86 71.32,-86"/>
<polygon fill="midnightblue" stroke="midnightblue" points="71.41,-89.5 81.41,-86 71.41,-82.5 71.41,-89.5"/>
</g>
<!-- Node6 -->
<g id="node6" class="node">
<title>Node6</title>
<g id="a_node6"><a target="_blank" xlink:href="http://en.cppreference.com/w/cpp/numeric/math/sqrt.html#" xlink:title=" ">
<polygon fill="white" stroke="black" points="159,-38.5 159,-57.5 212,-57.5 212,-38.5 159,-38.5"/>
<text text-anchor="middle" x="185.5" y="-45.5" font-family="Helvetica,sans-Serif" font-size="10.00">std::sqrt</text>
</a>
</g>
</g>
<!-- Node1&#45;&gt;Node6 -->
<g id="edge7" class="edge">
<title>Node1&#45;&gt;Node6</title>
<path fill="none" stroke="midnightblue" d="M33.03,-79.39C43.12,-75.31 56.65,-70.26 69,-67 95.41,-60.02 125.93,-55.14 148.96,-52.07"/>
<polygon fill="midnightblue" stroke="midnightblue" points="149.5,-55.53 158.97,-50.78 148.61,-48.58 149.5,-55.53"/>
</g>
<!-- Node7 -->
<g id="node7" class="node">
<title>Node7</title>
<g id="a_node7"><a target="_blank" xlink:href="http://en.cppreference.com/w/cpp/numeric/math/sin.html#" xlink:title=" ">
<polygon fill="white" stroke="black" points="71.5,-0.5 71.5,-19.5 120.5,-19.5 120.5,-0.5 71.5,-0.5"/>
<text text-anchor="middle" x="96" y="-7.5" font-family="Helvetica,sans-Serif" font-size="10.00">std::sin</text>
</a>
</g>
</g>
<!-- Node1&#45;&gt;Node7 -->
<g id="edge6" class="edge">
<title>Node1&#45;&gt;Node7</title>
<path fill="none" stroke="midnightblue" d="M26.86,-76.29C37.09,-65.74 54.01,-48.47 69,-34 71.47,-31.61 74.11,-29.12 76.72,-26.68"/>
<polygon fill="midnightblue" stroke="midnightblue" points="79.3,-29.06 84.27,-19.7 74.55,-23.92 79.3,-29.06"/>
</g>
<!-- Node5 -->
<g id="node5" class="node">
<title>Node5</title>
<g id="a_node5"><a target="_blank" xlink:href="http://en.cppreference.com/w/cpp/numeric/math/log.html#" xlink:title=" ">
<polygon fill="white" stroke="black" points="161,-76.5 161,-95.5 210,-95.5 210,-76.5 161,-76.5"/>
<text text-anchor="middle" x="185.5" y="-83.5" font-family="Helvetica,sans-Serif" font-size="10.00">std::log</text>
</a>
</g>
</g>
<!-- Node4&#45;&gt;Node5 -->
<g id="edge4" class="edge">
<title>Node4&#45;&gt;Node5</title>
<path fill="none" stroke="midnightblue" d="M110.67,-86C121.32,-86 136.57,-86 150.46,-86"/>
<polygon fill="midnightblue" stroke="midnightblue" points="150.71,-89.5 160.71,-86 150.71,-82.5 150.71,-89.5"/>
</g>
<!-- Node4&#45;&gt;Node6 -->
<g id="edge5" class="edge">
<title>Node4&#45;&gt;Node6</title>
<path fill="none" stroke="midnightblue" d="M110.67,-80.06C122.03,-75.13 138.62,-67.92 153.2,-61.59"/>
<polygon fill="midnightblue" stroke="midnightblue" points="154.64,-64.78 162.42,-57.59 151.85,-58.36 154.64,-64.78"/>
</g>
</g>
</svg>
