<?xml version="1.0" encoding="UTF-8" standalone="no"?>
<!DOCTYPE svg PUBLIC "-//W3C//DTD SVG 1.1//EN"
 "http://www.w3.org/Graphics/SVG/1.1/DTD/svg11.dtd">
<!-- Generated by graphviz version 5.0.0 (20220707.1540)
 -->
<!-- Title: main Pages: 1 -->
<svg width="294pt" height="180pt"
 viewBox="0.00 0.00 294.00 180.00" xmlns="http://www.w3.org/2000/svg" xmlns:xlink="http://www.w3.org/1999/xlink">
<g id="graph0" class="graph" transform="scale(1 1) rotate(0) translate(4 176)">
<title>main</title>
<polygon fill="white" stroke="transparent" points="-4,4 -4,-176 290,-176 290,4 -4,4"/>
<!-- Node1 -->
<g id="node1" class="node">
<title>Node1</title>
<g id="a_node1"><a xlink:title="Main function.">
<polygon fill="#bfbfbf" stroke="black" points="0,-76.5 0,-95.5 38,-95.5 38,-76.5 0,-76.5"/>
<text text-anchor="middle" x="19" y="-83.5" font-family="Helvetica,sans-Serif" font-size="10.00">main</text>
</a>
</g>
</g>
<!-- Node2 -->
<g id="node2" class="node">
<title>Node2</title>
<g id="a_node2"><a xlink:href="../../db/d40/integral__approximation2_8cpp.html#aa8dca7b867074164d5f45b0f3851269d" target="_top" xlink:title="Self&#45;test implementations.">
<polygon fill="white" stroke="black" points="74,-76.5 74,-95.5 107,-95.5 107,-76.5 74,-76.5"/>
<text text-anchor="middle" x="90.5" y="-83.5" font-family="Helvetica,sans-Serif" font-size="10.00">test</text>
</a>
</g>
</g>
<!-- Node1&#45;&gt;Node2 -->
<g id="edge1" class="edge">
<title>Node1&#45;&gt;Node2</title>
<path fill="none" stroke="midnightblue" d="M38.26,-86C46.07,-86 55.31,-86 63.79,-86"/>
<polygon fill="midnightblue" stroke="midnightblue" points="63.95,-89.5 73.95,-86 63.95,-82.5 63.95,-89.5"/>
</g>
<!-- Node3 -->
<g id="node3" class="node">
<title>Node3</title>
<g id="a_node3"><a target="_blank" xlink:href="http://en.cppreference.com/w/cpp/io/manip/endl.html#" xlink:title=" ">
<polygon fill="white" stroke="black" points="143,-152.5 143,-171.5 197,-171.5 197,-152.5 143,-152.5"/>
<text text-anchor="middle" x="170" y="-159.5" font-family="Helvetica,sans-Serif" font-size="10.00">std::endl</text>
</a>
</g>
</g>
<!-- Node2&#45;&gt;Node3 -->
<g id="edge2" class="edge">
<title>Node2&#45;&gt;Node3</title>
<path fill="none" stroke="midnightblue" d="M99.33,-95.84C108.97,-107.67 126.16,-127.82 143,-143 144.14,-144.03 145.34,-145.06 146.57,-146.07"/>
<polygon fill="midnightblue" stroke="midnightblue" points="144.77,-149.11 154.83,-152.45 149.05,-143.57 144.77,-149.11"/>
</g>
<!-- Node4 -->
<g id="node4" class="node">
<title>Node4</title>
<g id="a_node4"><a target="_blank" xlink:href="http://en.cppreference.com/w/cpp/numeric/math/exp.html#" xlink:title=" ">
<polygon fill="white" stroke="black" points="144,-114.5 144,-133.5 196,-133.5 196,-114.5 144,-114.5"/>
<text text-anchor="middle" x="170" y="-121.5" font-family="Helvetica,sans-Serif" font-size="10.00">std::exp</text>
</a>
</g>
</g>
<!-- Node2&#45;&gt;Node4 -->
<g id="edge3" class="edge">
<title>Node2&#45;&gt;Node4</title>
<path fill="none" stroke="midnightblue" d="M107.18,-93.69C116.72,-98.37 129.19,-104.48 140.43,-109.99"/>
<polygon fill="midnightblue" stroke="midnightblue" points="138.97,-113.17 149.49,-114.43 142.05,-106.89 138.97,-113.17"/>
</g>
<!-- Node5 -->
<g id="node5" class="node">
<title>Node5</title>
<g id="a_node5"><a xlink:href="../../d4/d18/composite__simpson__rule_8cpp.html#a3de2b7b41a8e4b07da05298510d17ed2" target="_top" xlink:title="A function f(x) that will be used to test the method.">
<polygon fill="white" stroke="black" points="155.5,-76.5 155.5,-95.5 184.5,-95.5 184.5,-76.5 155.5,-76.5"/>
<text text-anchor="middle" x="170" y="-83.5" font-family="Helvetica,sans-Serif" font-size="10.00">f</text>
</a>
</g>
</g>
<!-- Node2&#45;&gt;Node5 -->
<g id="edge4" class="edge">
<title>Node2&#45;&gt;Node5</title>
<path fill="none" stroke="midnightblue" d="M107.18,-86C118.13,-86 132.94,-86 145.32,-86"/>
<polygon fill="midnightblue" stroke="midnightblue" points="145.41,-89.5 155.41,-86 145.41,-82.5 145.41,-89.5"/>
</g>
<!-- Node7 -->
<g id="node7" class="node">
<title>Node7</title>
<g id="a_node7"><a target="_blank" xlink:href="http://en.cppreference.com/w/cpp/numeric/math/sqrt.html#" xlink:title=" ">
<polygon fill="white" stroke="black" points="233,-38.5 233,-57.5 286,-57.5 286,-38.5 233,-38.5"/>
<text text-anchor="middle" x="259.5" y="-45.5" font-family="Helvetica,sans-Serif" font-size="10.00">std::sqrt</text>
</a>
</g>
</g>
<!-- Node2&#45;&gt;Node7 -->
<g id="edge8" class="edge">
<title>Node2&#45;&gt;Node7</title>
<path fill="none" stroke="midnightblue" d="M107.03,-79.39C117.12,-75.31 130.65,-70.26 143,-67 169.41,-60.02 199.93,-55.14 222.96,-52.07"/>
<polygon fill="midnightblue" stroke="midnightblue" points="223.5,-55.53 232.97,-50.78 222.61,-48.58 223.5,-55.53"/>
</g>
<!-- Node8 -->
<g id="node8" class="node">
<title>Node8</title>
<g id="a_node8"><a target="_blank" xlink:href="http://en.cppreference.com/w/cpp/numeric/math/sin.html#" xlink:title=" ">
<polygon fill="white" stroke="black" points="145.5,-0.5 145.5,-19.5 194.5,-19.5 194.5,-0.5 145.5,-0.5"/>
<text text-anchor="middle" x="170" y="-7.5" font-family="Helvetica,sans-Serif" font-size="10.00">std::sin</text>
</a>
</g>
</g>
<!-- Node2&#45;&gt;Node8 -->
<g id="edge7" class="edge">
<title>Node2&#45;&gt;Node8</title>
<path fill="none" stroke="midnightblue" d="M100.86,-76.29C111.09,-65.74 128.01,-48.47 143,-34 145.47,-31.61 148.11,-29.12 150.72,-26.68"/>
<polygon fill="midnightblue" stroke="midnightblue" points="153.3,-29.06 158.27,-19.7 148.55,-23.92 153.3,-29.06"/>
</g>
<!-- Node6 -->
<g id="node6" class="node">
<title>Node6</title>
<g id="a_node6"><a target="_blank" xlink:href="http://en.cppreference.com/w/cpp/numeric/math/log.html#" xlink:title=" ">
<polygon fill="white" stroke="black" points="235,-76.5 235,-95.5 284,-95.5 284,-76.5 235,-76.5"/>
<text text-anchor="middle" x="259.5" y="-83.5" font-family="Helvetica,sans-Serif" font-size="10.00">std::log</text>
</a>
</g>
</g>
<!-- Node5&#45;&gt;Node6 -->
<g id="edge5" class="edge">
<title>Node5&#45;&gt;Node6</title>
<path fill="none" stroke="midnightblue" d="M184.67,-86C195.32,-86 210.57,-86 224.46,-86"/>
<polygon fill="midnightblue" stroke="midnightblue" points="224.71,-89.5 234.71,-86 224.71,-82.5 224.71,-89.5"/>
</g>
<!-- Node5&#45;&gt;Node7 -->
<g id="edge6" class="edge">
<title>Node5&#45;&gt;Node7</title>
<path fill="none" stroke="midnightblue" d="M184.67,-80.06C196.03,-75.13 212.62,-67.92 227.2,-61.59"/>
<polygon fill="midnightblue" stroke="midnightblue" points="228.64,-64.78 236.42,-57.59 225.85,-58.36 228.64,-64.78"/>
</g>
</g>
</svg>
