<?xml version="1.0" encoding="UTF-8" standalone="no"?>
<!DOCTYPE svg PUBLIC "-//W3C//DTD SVG 1.1//EN"
 "http://www.w3.org/Graphics/SVG/1.1/DTD/svg11.dtd">
<!-- Generated by graphviz version 5.0.0 (20220707.1540)
 -->
<!-- Title: get_minima Pages: 1 -->
<svg width="299pt" height="154pt"
 viewBox="0.00 0.00 299.00 154.00" xmlns="http://www.w3.org/2000/svg" xmlns:xlink="http://www.w3.org/1999/xlink">
<g id="graph0" class="graph" transform="scale(1 1) rotate(0) translate(4 150)">
<title>get_minima</title>
<polygon fill="white" stroke="transparent" points="-4,4 -4,-150 295,-150 295,4 -4,4"/>
<!-- Node1 -->
<g id="node1" class="node">
<title>Node1</title>
<g id="a_node1"><a xlink:title="Get the minima of a function in the given interval. To get the maxima, simply negate the function....">
<polygon fill="#bfbfbf" stroke="black" points="0,-66.5 0,-85.5 67,-85.5 67,-66.5 0,-66.5"/>
<text text-anchor="middle" x="33.5" y="-73.5" font-family="Helvetica,sans-Serif" font-size="10.00">get_minima</text>
</a>
</g>
</g>
<!-- Node2 -->
<g id="node2" class="node">
<title>Node2</title>
<g id="a_node2"><a xlink:href="../../d4/d18/composite__simpson__rule_8cpp.html#a3de2b7b41a8e4b07da05298510d17ed2" target="_top" xlink:title="A function f(x) that will be used to test the method.">
<polygon fill="white" stroke="black" points="138,-126.5 138,-145.5 167,-145.5 167,-126.5 138,-126.5"/>
<text text-anchor="middle" x="152.5" y="-133.5" font-family="Helvetica,sans-Serif" font-size="10.00">f</text>
</a>
</g>
</g>
<!-- Node1&#45;&gt;Node2 -->
<g id="edge1" class="edge">
<title>Node1&#45;&gt;Node2</title>
<path fill="none" stroke="midnightblue" d="M52.47,-85.59C66.25,-92.92 85.77,-103.21 103,-112 111.33,-116.25 120.51,-120.82 128.63,-124.82"/>
<polygon fill="midnightblue" stroke="midnightblue" points="127.35,-128.1 137.87,-129.36 130.44,-121.81 127.35,-128.1"/>
</g>
<!-- Node4 -->
<g id="node4" class="node">
<title>Node4</title>
<g id="a_node4"><a target="_blank" xlink:href="http://en.cppreference.com/w/cpp/numeric/math/sqrt.html#" xlink:title=" ">
<polygon fill="white" stroke="black" points="238,-88.5 238,-107.5 291,-107.5 291,-88.5 238,-88.5"/>
<text text-anchor="middle" x="264.5" y="-95.5" font-family="Helvetica,sans-Serif" font-size="10.00">std::sqrt</text>
</a>
</g>
</g>
<!-- Node1&#45;&gt;Node4 -->
<g id="edge5" class="edge">
<title>Node1&#45;&gt;Node4</title>
<path fill="none" stroke="midnightblue" d="M67.31,-79.15C109.81,-83.24 183.65,-90.33 227.61,-94.55"/>
<polygon fill="midnightblue" stroke="midnightblue" points="227.55,-98.06 237.84,-95.53 228.22,-91.09 227.55,-98.06"/>
</g>
<!-- Node5 -->
<g id="node5" class="node">
<title>Node5</title>
<g id="a_node5"><a target="_blank" xlink:href="http://en.cppreference.com/w/cpp/types/numeric_limits/infinity.html#" xlink:title=" ">
<polygon fill="white" stroke="black" points="103,-39 103,-69 202,-69 202,-39 103,-39"/>
<text text-anchor="start" x="111" y="-57" font-family="Helvetica,sans-Serif" font-size="10.00">std::numeric_limits</text>
<text text-anchor="middle" x="152.5" y="-46" font-family="Helvetica,sans-Serif" font-size="10.00">::infinity</text>
</a>
</g>
</g>
<!-- Node1&#45;&gt;Node5 -->
<g id="edge4" class="edge">
<title>Node1&#45;&gt;Node5</title>
<path fill="none" stroke="midnightblue" d="M67.09,-69.87C75.15,-68.36 84.03,-66.69 92.91,-65.02"/>
<polygon fill="midnightblue" stroke="midnightblue" points="93.71,-68.43 102.89,-63.14 92.42,-61.55 93.71,-68.43"/>
</g>
<!-- Node6 -->
<g id="node6" class="node">
<title>Node6</title>
<g id="a_node6"><a target="_blank" xlink:href="http://en.cppreference.com/w/cpp/algorithm/swap.html#" xlink:title=" ">
<polygon fill="white" stroke="black" points="123,-0.5 123,-19.5 182,-19.5 182,-0.5 123,-0.5"/>
<text text-anchor="middle" x="152.5" y="-7.5" font-family="Helvetica,sans-Serif" font-size="10.00">std::swap</text>
</a>
</g>
</g>
<!-- Node1&#45;&gt;Node6 -->
<g id="edge6" class="edge">
<title>Node1&#45;&gt;Node6</title>
<path fill="none" stroke="midnightblue" d="M46.58,-66.44C59.87,-56.25 82.1,-40.08 103,-29 106.69,-27.05 110.62,-25.18 114.59,-23.43"/>
<polygon fill="midnightblue" stroke="midnightblue" points="115.94,-26.66 123.82,-19.59 113.24,-20.2 115.94,-26.66"/>
</g>
<!-- Node3 -->
<g id="node3" class="node">
<title>Node3</title>
<g id="a_node3"><a target="_blank" xlink:href="http://en.cppreference.com/w/cpp/numeric/math/log.html#" xlink:title=" ">
<polygon fill="white" stroke="black" points="240,-126.5 240,-145.5 289,-145.5 289,-126.5 240,-126.5"/>
<text text-anchor="middle" x="264.5" y="-133.5" font-family="Helvetica,sans-Serif" font-size="10.00">std::log</text>
</a>
</g>
</g>
<!-- Node2&#45;&gt;Node3 -->
<g id="edge2" class="edge">
<title>Node2&#45;&gt;Node3</title>
<path fill="none" stroke="midnightblue" d="M167.43,-136C182.96,-136 208.64,-136 229.54,-136"/>
<polygon fill="midnightblue" stroke="midnightblue" points="229.65,-139.5 239.65,-136 229.65,-132.5 229.65,-139.5"/>
</g>
<!-- Node2&#45;&gt;Node4 -->
<g id="edge3" class="edge">
<title>Node2&#45;&gt;Node4</title>
<path fill="none" stroke="midnightblue" d="M167.43,-131.19C182.7,-125.91 207.79,-117.25 228.5,-110.09"/>
<polygon fill="midnightblue" stroke="midnightblue" points="229.64,-113.4 237.95,-106.83 227.36,-106.78 229.64,-113.4"/>
</g>
</g>
</svg>
