<?xml version="1.0" encoding="UTF-8" standalone="no"?>
<!DOCTYPE svg PUBLIC "-//W3C//DTD SVG 1.1//EN"
 "http://www.w3.org/Graphics/SVG/1.1/DTD/svg11.dtd">
<!-- Generated by graphviz version 5.0.0 (20220707.1540)
 -->
<!-- Title: test3 Pages: 1 -->
<svg width="373pt" height="154pt"
 viewBox="0.00 0.00 373.00 154.00" xmlns="http://www.w3.org/2000/svg" xmlns:xlink="http://www.w3.org/1999/xlink">
<g id="graph0" class="graph" transform="scale(1 1) rotate(0) translate(4 150)">
<title>test3</title>
<polygon fill="white" stroke="transparent" points="-4,4 -4,-150 369,-150 369,4 -4,4"/>
<!-- Node1 -->
<g id="node1" class="node">
<title>Node1</title>
<g id="a_node1"><a xlink:title="Test function to find maxima for the function &#160;in the interval &#160;&#160;&#160;Expected result: .">
<polygon fill="#bfbfbf" stroke="black" points="0,-85.5 0,-104.5 38,-104.5 38,-85.5 0,-85.5"/>
<text text-anchor="middle" x="19" y="-92.5" font-family="Helvetica,sans-Serif" font-size="10.00">test3</text>
</a>
</g>
</g>
<!-- Node2 -->
<g id="node2" class="node">
<title>Node2</title>
<g id="a_node2"><a target="_blank" xlink:href="http://en.cppreference.com/w/cpp/numeric/math/cos.html#" xlink:title=" ">
<polygon fill="white" stroke="black" points="81.5,-104.5 81.5,-123.5 133.5,-123.5 133.5,-104.5 81.5,-104.5"/>
<text text-anchor="middle" x="107.5" y="-111.5" font-family="Helvetica,sans-Serif" font-size="10.00">std::cos</text>
</a>
</g>
</g>
<!-- Node1&#45;&gt;Node2 -->
<g id="edge1" class="edge">
<title>Node1&#45;&gt;Node2</title>
<path fill="none" stroke="midnightblue" d="M38.34,-99.03C47.91,-101.13 59.95,-103.77 71.23,-106.25"/>
<polygon fill="midnightblue" stroke="midnightblue" points="70.77,-109.74 81.29,-108.46 72.28,-102.9 70.77,-109.74"/>
</g>
<!-- Node3 -->
<g id="node3" class="node">
<title>Node3</title>
<g id="a_node3"><a xlink:href="../../d6/d7a/golden__search__extrema_8cpp.html#a1aa76a6d5fd4d333f9072beff1dc486b" target="_top" xlink:title="Get the minima of a function in the given interval. To get the maxima, simply negate the function....">
<polygon fill="white" stroke="black" points="74,-66.5 74,-85.5 141,-85.5 141,-66.5 74,-66.5"/>
<text text-anchor="middle" x="107.5" y="-73.5" font-family="Helvetica,sans-Serif" font-size="10.00">get_minima</text>
</a>
</g>
</g>
<!-- Node1&#45;&gt;Node3 -->
<g id="edge2" class="edge">
<title>Node1&#45;&gt;Node3</title>
<path fill="none" stroke="midnightblue" d="M38.34,-90.97C45.84,-89.32 54.85,-87.35 63.82,-85.37"/>
<polygon fill="midnightblue" stroke="midnightblue" points="64.84,-88.73 73.86,-83.17 63.34,-81.9 64.84,-88.73"/>
</g>
<!-- Node4 -->
<g id="node4" class="node">
<title>Node4</title>
<g id="a_node4"><a xlink:href="../../d4/d18/composite__simpson__rule_8cpp.html#a3de2b7b41a8e4b07da05298510d17ed2" target="_top" xlink:title="A function f(x) that will be used to test the method.">
<polygon fill="white" stroke="black" points="212,-126.5 212,-145.5 241,-145.5 241,-126.5 212,-126.5"/>
<text text-anchor="middle" x="226.5" y="-133.5" font-family="Helvetica,sans-Serif" font-size="10.00">f</text>
</a>
</g>
</g>
<!-- Node3&#45;&gt;Node4 -->
<g id="edge3" class="edge">
<title>Node3&#45;&gt;Node4</title>
<path fill="none" stroke="midnightblue" d="M126.47,-85.59C140.25,-92.92 159.77,-103.21 177,-112 185.33,-116.25 194.51,-120.82 202.63,-124.82"/>
<polygon fill="midnightblue" stroke="midnightblue" points="201.35,-128.1 211.87,-129.36 204.44,-121.81 201.35,-128.1"/>
</g>
<!-- Node6 -->
<g id="node6" class="node">
<title>Node6</title>
<g id="a_node6"><a target="_blank" xlink:href="http://en.cppreference.com/w/cpp/numeric/math/sqrt.html#" xlink:title=" ">
<polygon fill="white" stroke="black" points="312,-88.5 312,-107.5 365,-107.5 365,-88.5 312,-88.5"/>
<text text-anchor="middle" x="338.5" y="-95.5" font-family="Helvetica,sans-Serif" font-size="10.00">std::sqrt</text>
</a>
</g>
</g>
<!-- Node3&#45;&gt;Node6 -->
<g id="edge7" class="edge">
<title>Node3&#45;&gt;Node6</title>
<path fill="none" stroke="midnightblue" d="M141.31,-79.15C183.81,-83.24 257.65,-90.33 301.61,-94.55"/>
<polygon fill="midnightblue" stroke="midnightblue" points="301.55,-98.06 311.84,-95.53 302.22,-91.09 301.55,-98.06"/>
</g>
<!-- Node7 -->
<g id="node7" class="node">
<title>Node7</title>
<g id="a_node7"><a target="_blank" xlink:href="http://en.cppreference.com/w/cpp/types/numeric_limits/infinity.html#" xlink:title=" ">
<polygon fill="white" stroke="black" points="177,-39 177,-69 276,-69 276,-39 177,-39"/>
<text text-anchor="start" x="185" y="-57" font-family="Helvetica,sans-Serif" font-size="10.00">std::numeric_limits</text>
<text text-anchor="middle" x="226.5" y="-46" font-family="Helvetica,sans-Serif" font-size="10.00">::infinity</text>
</a>
</g>
</g>
<!-- Node3&#45;&gt;Node7 -->
<g id="edge6" class="edge">
<title>Node3&#45;&gt;Node7</title>
<path fill="none" stroke="midnightblue" d="M141.09,-69.87C149.15,-68.36 158.03,-66.69 166.91,-65.02"/>
<polygon fill="midnightblue" stroke="midnightblue" points="167.71,-68.43 176.89,-63.14 166.42,-61.55 167.71,-68.43"/>
</g>
<!-- Node8 -->
<g id="node8" class="node">
<title>Node8</title>
<g id="a_node8"><a target="_blank" xlink:href="http://en.cppreference.com/w/cpp/algorithm/swap.html#" xlink:title=" ">
<polygon fill="white" stroke="black" points="197,-0.5 197,-19.5 256,-19.5 256,-0.5 197,-0.5"/>
<text text-anchor="middle" x="226.5" y="-7.5" font-family="Helvetica,sans-Serif" font-size="10.00">std::swap</text>
</a>
</g>
</g>
<!-- Node3&#45;&gt;Node8 -->
<g id="edge8" class="edge">
<title>Node3&#45;&gt;Node8</title>
<path fill="none" stroke="midnightblue" d="M120.58,-66.44C133.87,-56.25 156.1,-40.08 177,-29 180.69,-27.05 184.62,-25.18 188.59,-23.43"/>
<polygon fill="midnightblue" stroke="midnightblue" points="189.94,-26.66 197.82,-19.59 187.24,-20.2 189.94,-26.66"/>
</g>
<!-- Node5 -->
<g id="node5" class="node">
<title>Node5</title>
<g id="a_node5"><a target="_blank" xlink:href="http://en.cppreference.com/w/cpp/numeric/math/log.html#" xlink:title=" ">
<polygon fill="white" stroke="black" points="314,-126.5 314,-145.5 363,-145.5 363,-126.5 314,-126.5"/>
<text text-anchor="middle" x="338.5" y="-133.5" font-family="Helvetica,sans-Serif" font-size="10.00">std::log</text>
</a>
</g>
</g>
<!-- Node4&#45;&gt;Node5 -->
<g id="edge4" class="edge">
<title>Node4&#45;&gt;Node5</title>
<path fill="none" stroke="midnightblue" d="M241.43,-136C256.96,-136 282.64,-136 303.54,-136"/>
<polygon fill="midnightblue" stroke="midnightblue" points="303.65,-139.5 313.65,-136 303.65,-132.5 303.65,-139.5"/>
</g>
<!-- Node4&#45;&gt;Node6 -->
<g id="edge5" class="edge">
<title>Node4&#45;&gt;Node6</title>
<path fill="none" stroke="midnightblue" d="M241.43,-131.19C256.7,-125.91 281.79,-117.25 302.5,-110.09"/>
<polygon fill="midnightblue" stroke="midnightblue" points="303.64,-113.4 311.95,-106.83 301.36,-106.78 303.64,-113.4"/>
</g>
</g>
</svg>
