<?xml version="1.0" encoding="UTF-8" standalone="no"?>
<!DOCTYPE svg PUBLIC "-//W3C//DTD SVG 1.1//EN"
 "http://www.w3.org/Graphics/SVG/1.1/DTD/svg11.dtd">
<!-- Generated by graphviz version 5.0.0 (20220707.1540)
 -->
<!-- Title: main Pages: 1 -->
<svg width="447pt" height="154pt"
 viewBox="0.00 0.00 447.00 154.00" xmlns="http://www.w3.org/2000/svg" xmlns:xlink="http://www.w3.org/1999/xlink">
<g id="graph0" class="graph" transform="scale(1 1) rotate(0) translate(4 150)">
<title>main</title>
<polygon fill="white" stroke="transparent" points="-4,4 -4,-150 443,-150 443,4 -4,4"/>
<!-- Node1 -->
<g id="node1" class="node">
<title>Node1</title>
<g id="a_node1"><a xlink:title=" ">
<polygon fill="#bfbfbf" stroke="black" points="0,-66.5 0,-85.5 38,-85.5 38,-66.5 0,-66.5"/>
<text text-anchor="middle" x="19" y="-73.5" font-family="Helvetica,sans-Serif" font-size="10.00">main</text>
</a>
</g>
</g>
<!-- Node2 -->
<g id="node2" class="node">
<title>Node2</title>
<g id="a_node2"><a xlink:href="../../d6/d7a/golden__search__extrema_8cpp.html#a1440a7779ac56f47a3f355ce4a8c7da0" target="_top" xlink:title="Test function to find minima for the function &#160;in the interval &#160;&#160;&#160;Expected result = 2.">
<polygon fill="white" stroke="black" points="74,-66.5 74,-85.5 112,-85.5 112,-66.5 74,-66.5"/>
<text text-anchor="middle" x="93" y="-73.5" font-family="Helvetica,sans-Serif" font-size="10.00">test1</text>
</a>
</g>
</g>
<!-- Node1&#45;&gt;Node2 -->
<g id="edge1" class="edge">
<title>Node1&#45;&gt;Node2</title>
<path fill="none" stroke="midnightblue" d="M38.17,-76C45.87,-76 55.03,-76 63.58,-76"/>
<polygon fill="midnightblue" stroke="midnightblue" points="63.59,-79.5 73.59,-76 63.59,-72.5 63.59,-79.5"/>
</g>
<!-- Node9 -->
<g id="node9" class="node">
<title>Node9</title>
<g id="a_node9"><a xlink:href="../../d6/d7a/golden__search__extrema_8cpp.html#a0283886819c7c140a023582b7269e2d0" target="_top" xlink:title="Test function to find maxima for the function &#160;in the interval &#160;&#160;&#160;Expected result: .">
<polygon fill="white" stroke="black" points="74,-104.5 74,-123.5 112,-123.5 112,-104.5 74,-104.5"/>
<text text-anchor="middle" x="93" y="-111.5" font-family="Helvetica,sans-Serif" font-size="10.00">test2</text>
</a>
</g>
</g>
<!-- Node1&#45;&gt;Node9 -->
<g id="edge9" class="edge">
<title>Node1&#45;&gt;Node9</title>
<path fill="none" stroke="midnightblue" d="M38.17,-85.59C46.21,-89.83 55.83,-94.91 64.71,-99.6"/>
<polygon fill="midnightblue" stroke="midnightblue" points="63.11,-102.71 73.59,-104.28 66.38,-96.52 63.11,-102.71"/>
</g>
<!-- Node11 -->
<g id="node11" class="node">
<title>Node11</title>
<g id="a_node11"><a xlink:href="../../d6/d7a/golden__search__extrema_8cpp.html#a6d0455dd5c30adda100e95f0423c786e" target="_top" xlink:title="Test function to find maxima for the function &#160;in the interval &#160;&#160;&#160;Expected result: .">
<polygon fill="white" stroke="black" points="74,-28.5 74,-47.5 112,-47.5 112,-28.5 74,-28.5"/>
<text text-anchor="middle" x="93" y="-35.5" font-family="Helvetica,sans-Serif" font-size="10.00">test3</text>
</a>
</g>
</g>
<!-- Node1&#45;&gt;Node11 -->
<g id="edge12" class="edge">
<title>Node1&#45;&gt;Node11</title>
<path fill="none" stroke="midnightblue" d="M38.17,-66.41C46.21,-62.17 55.83,-57.09 64.71,-52.4"/>
<polygon fill="midnightblue" stroke="midnightblue" points="66.38,-55.48 73.59,-47.72 63.11,-49.29 66.38,-55.48"/>
</g>
<!-- Node3 -->
<g id="node3" class="node">
<title>Node3</title>
<g id="a_node3"><a xlink:href="../../d6/d7a/golden__search__extrema_8cpp.html#a1aa76a6d5fd4d333f9072beff1dc486b" target="_top" xlink:title="Get the minima of a function in the given interval. To get the maxima, simply negate the function....">
<polygon fill="white" stroke="black" points="148,-66.5 148,-85.5 215,-85.5 215,-66.5 148,-66.5"/>
<text text-anchor="middle" x="181.5" y="-73.5" font-family="Helvetica,sans-Serif" font-size="10.00">get_minima</text>
</a>
</g>
</g>
<!-- Node2&#45;&gt;Node3 -->
<g id="edge2" class="edge">
<title>Node2&#45;&gt;Node3</title>
<path fill="none" stroke="midnightblue" d="M112.34,-76C119.84,-76 128.85,-76 137.82,-76"/>
<polygon fill="midnightblue" stroke="midnightblue" points="137.86,-79.5 147.86,-76 137.86,-72.5 137.86,-79.5"/>
</g>
<!-- Node4 -->
<g id="node4" class="node">
<title>Node4</title>
<g id="a_node4"><a xlink:href="../../d4/d18/composite__simpson__rule_8cpp.html#a3de2b7b41a8e4b07da05298510d17ed2" target="_top" xlink:title="A function f(x) that will be used to test the method.">
<polygon fill="white" stroke="black" points="286,-126.5 286,-145.5 315,-145.5 315,-126.5 286,-126.5"/>
<text text-anchor="middle" x="300.5" y="-133.5" font-family="Helvetica,sans-Serif" font-size="10.00">f</text>
</a>
</g>
</g>
<!-- Node3&#45;&gt;Node4 -->
<g id="edge3" class="edge">
<title>Node3&#45;&gt;Node4</title>
<path fill="none" stroke="midnightblue" d="M200.47,-85.59C214.25,-92.92 233.77,-103.21 251,-112 259.33,-116.25 268.51,-120.82 276.63,-124.82"/>
<polygon fill="midnightblue" stroke="midnightblue" points="275.35,-128.1 285.87,-129.36 278.44,-121.81 275.35,-128.1"/>
</g>
<!-- Node6 -->
<g id="node6" class="node">
<title>Node6</title>
<g id="a_node6"><a target="_blank" xlink:href="http://en.cppreference.com/w/cpp/numeric/math/sqrt.html#" xlink:title=" ">
<polygon fill="white" stroke="black" points="386,-88.5 386,-107.5 439,-107.5 439,-88.5 386,-88.5"/>
<text text-anchor="middle" x="412.5" y="-95.5" font-family="Helvetica,sans-Serif" font-size="10.00">std::sqrt</text>
</a>
</g>
</g>
<!-- Node3&#45;&gt;Node6 -->
<g id="edge7" class="edge">
<title>Node3&#45;&gt;Node6</title>
<path fill="none" stroke="midnightblue" d="M215.31,-79.15C257.81,-83.24 331.65,-90.33 375.61,-94.55"/>
<polygon fill="midnightblue" stroke="midnightblue" points="375.55,-98.06 385.84,-95.53 376.22,-91.09 375.55,-98.06"/>
</g>
<!-- Node7 -->
<g id="node7" class="node">
<title>Node7</title>
<g id="a_node7"><a target="_blank" xlink:href="http://en.cppreference.com/w/cpp/types/numeric_limits/infinity.html#" xlink:title=" ">
<polygon fill="white" stroke="black" points="251,-39 251,-69 350,-69 350,-39 251,-39"/>
<text text-anchor="start" x="259" y="-57" font-family="Helvetica,sans-Serif" font-size="10.00">std::numeric_limits</text>
<text text-anchor="middle" x="300.5" y="-46" font-family="Helvetica,sans-Serif" font-size="10.00">::infinity</text>
</a>
</g>
</g>
<!-- Node3&#45;&gt;Node7 -->
<g id="edge6" class="edge">
<title>Node3&#45;&gt;Node7</title>
<path fill="none" stroke="midnightblue" d="M215.09,-69.87C223.15,-68.36 232.03,-66.69 240.91,-65.02"/>
<polygon fill="midnightblue" stroke="midnightblue" points="241.71,-68.43 250.89,-63.14 240.42,-61.55 241.71,-68.43"/>
</g>
<!-- Node8 -->
<g id="node8" class="node">
<title>Node8</title>
<g id="a_node8"><a target="_blank" xlink:href="http://en.cppreference.com/w/cpp/algorithm/swap.html#" xlink:title=" ">
<polygon fill="white" stroke="black" points="271,-0.5 271,-19.5 330,-19.5 330,-0.5 271,-0.5"/>
<text text-anchor="middle" x="300.5" y="-7.5" font-family="Helvetica,sans-Serif" font-size="10.00">std::swap</text>
</a>
</g>
</g>
<!-- Node3&#45;&gt;Node8 -->
<g id="edge8" class="edge">
<title>Node3&#45;&gt;Node8</title>
<path fill="none" stroke="midnightblue" d="M199.97,-66.36C204.91,-63.48 210.24,-60.22 215,-57 231.79,-45.64 233.38,-39.02 251,-29 254.44,-27.04 258.12,-25.2 261.86,-23.49"/>
<polygon fill="midnightblue" stroke="midnightblue" points="263.34,-26.66 271.17,-19.52 260.59,-20.22 263.34,-26.66"/>
</g>
<!-- Node5 -->
<g id="node5" class="node">
<title>Node5</title>
<g id="a_node5"><a target="_blank" xlink:href="http://en.cppreference.com/w/cpp/numeric/math/log.html#" xlink:title=" ">
<polygon fill="white" stroke="black" points="388,-126.5 388,-145.5 437,-145.5 437,-126.5 388,-126.5"/>
<text text-anchor="middle" x="412.5" y="-133.5" font-family="Helvetica,sans-Serif" font-size="10.00">std::log</text>
</a>
</g>
</g>
<!-- Node4&#45;&gt;Node5 -->
<g id="edge4" class="edge">
<title>Node4&#45;&gt;Node5</title>
<path fill="none" stroke="midnightblue" d="M315.43,-136C330.96,-136 356.64,-136 377.54,-136"/>
<polygon fill="midnightblue" stroke="midnightblue" points="377.65,-139.5 387.65,-136 377.65,-132.5 377.65,-139.5"/>
</g>
<!-- Node4&#45;&gt;Node6 -->
<g id="edge5" class="edge">
<title>Node4&#45;&gt;Node6</title>
<path fill="none" stroke="midnightblue" d="M315.43,-131.19C330.7,-125.91 355.79,-117.25 376.5,-110.09"/>
<polygon fill="midnightblue" stroke="midnightblue" points="377.64,-113.4 385.95,-106.83 375.36,-106.78 377.64,-113.4"/>
</g>
<!-- Node9&#45;&gt;Node3 -->
<g id="edge10" class="edge">
<title>Node9&#45;&gt;Node3</title>
<path fill="none" stroke="midnightblue" d="M112.34,-105.94C123.17,-101.18 137.16,-95.04 149.64,-89.56"/>
<polygon fill="midnightblue" stroke="midnightblue" points="151.07,-92.75 158.82,-85.52 148.26,-86.34 151.07,-92.75"/>
</g>
<!-- Node10 -->
<g id="node10" class="node">
<title>Node10</title>
<g id="a_node10"><a target="_blank" xlink:href="http://en.cppreference.com/w/cpp/numeric/math/pow.html#" xlink:title=" ">
<polygon fill="white" stroke="black" points="154.5,-104.5 154.5,-123.5 208.5,-123.5 208.5,-104.5 154.5,-104.5"/>
<text text-anchor="middle" x="181.5" y="-111.5" font-family="Helvetica,sans-Serif" font-size="10.00">std::pow</text>
</a>
</g>
</g>
<!-- Node9&#45;&gt;Node10 -->
<g id="edge11" class="edge">
<title>Node9&#45;&gt;Node10</title>
<path fill="none" stroke="midnightblue" d="M112.34,-114C121.59,-114 133.14,-114 144.09,-114"/>
<polygon fill="midnightblue" stroke="midnightblue" points="144.31,-117.5 154.31,-114 144.31,-110.5 144.31,-117.5"/>
</g>
<!-- Node11&#45;&gt;Node3 -->
<g id="edge14" class="edge">
<title>Node11&#45;&gt;Node3</title>
<path fill="none" stroke="midnightblue" d="M112.34,-46.06C123.17,-50.82 137.16,-56.96 149.64,-62.44"/>
<polygon fill="midnightblue" stroke="midnightblue" points="148.26,-65.66 158.82,-66.48 151.07,-59.25 148.26,-65.66"/>
</g>
<!-- Node12 -->
<g id="node12" class="node">
<title>Node12</title>
<g id="a_node12"><a target="_blank" xlink:href="http://en.cppreference.com/w/cpp/numeric/math/cos.html#" xlink:title=" ">
<polygon fill="white" stroke="black" points="155.5,-28.5 155.5,-47.5 207.5,-47.5 207.5,-28.5 155.5,-28.5"/>
<text text-anchor="middle" x="181.5" y="-35.5" font-family="Helvetica,sans-Serif" font-size="10.00">std::cos</text>
</a>
</g>
</g>
<!-- Node11&#45;&gt;Node12 -->
<g id="edge13" class="edge">
<title>Node11&#45;&gt;Node12</title>
<path fill="none" stroke="midnightblue" d="M112.34,-38C121.91,-38 133.95,-38 145.23,-38"/>
<polygon fill="midnightblue" stroke="midnightblue" points="145.29,-41.5 155.29,-38 145.29,-34.5 145.29,-41.5"/>
</g>
</g>
</svg>
