<?xml version="1.0" encoding="UTF-8" standalone="no"?>
<!DOCTYPE svg PUBLIC "-//W3C//DTD SVG 1.1//EN"
 "http://www.w3.org/Graphics/SVG/1.1/DTD/svg11.dtd">
<!-- Generated by graphviz version 5.0.0 (20220707.1540)
 -->
<!-- Title: test Pages: 1 -->
<!--zoomable 205 -->
<svg id="main" version="1.1" xmlns="http://www.w3.org/2000/svg" xmlns:xlink="http://www.w3.org/1999/xlink" xml:space="preserve" onload="init(evt)">
<style type="text/css"><![CDATA[
.edge:hover path { stroke: red; }
.edge:hover polygon { stroke: red; fill: red; }
]]></style>
<script type="text/javascript"><![CDATA[
var edges = document.getElementsByTagName('g');
if (edges && edges.length) {
  for (var i=0;i<edges.length;i++) {
    if (edges[i].id.substr(0,4)=='edge') {
      edges[i].setAttribute('class','edge');
    }
  }
}
]]></script>
        <defs>
                <circle id="rim" cx="0" cy="0" r="7"/>
                <circle id="rim2" cx="0" cy="0" r="3.5"/>
                <g id="zoomPlus">
                        <use xlink:href="#rim" fill="#404040">
                                <set attributeName="fill" to="#808080" begin="zoomplus.mouseover" end="zoomplus.mouseout"/>
                        </use>
                        <path d="M-4,0h8M0,-4v8" fill="none" stroke="white" stroke-width="1.5" pointer-events="none"/>
                </g>
                <g id="zoomMin">
                        <use xlink:href="#rim" fill="#404040">
                                <set attributeName="fill" to="#808080" begin="zoomminus.mouseover" end="zoomminus.mouseout"/>
                        </use>
                        <path d="M-4,0h8" fill="none" stroke="white" stroke-width="1.5" pointer-events="none"/>
                </g>
                <g id="dirArrow">
                        <path fill="none" stroke="white" stroke-width="1.5" d="M0,-3.0v7 M-2.5,-0.5L0,-3.0L2.5,-0.5"/>
                </g>
               <g id="resetDef">
                       <use xlink:href="#rim2" fill="#404040">
                               <set attributeName="fill" to="#808080" begin="reset.mouseover" end="reset.mouseout"/>
                       </use>
               </g>
        </defs>

<script type="text/javascript">
var viewWidth = 514;
var viewHeight = 205;
var sectionId = 'dynsection-5';
</script>
<script xlink:href="../../svgpan.js"/>
<svg id="graph" class="graph">
<g id="viewport">
<title>test</title>
<polygon fill="white" stroke="transparent" points="-4,4 -4,-201.26 510,-201.26 510,4 -4,4"/>
<!-- Node1 -->
<g id="node1" class="node">
<title>Node1</title>
<g id="a_node1"><a xlink:title=" ">
<polygon fill="#bfbfbf" stroke="black" points="0,-101.76 0,-120.76 33,-120.76 33,-101.76 0,-101.76"/>
<text text-anchor="middle" x="16.5" y="-108.76" font-family="Helvetica,sans-Serif" font-size="10.00">test</text>
</a>
</g>
</g>
<!-- Node2 -->
<g id="node2" class="node">
<title>Node2</title>
<g id="a_node2"><a xlink:href="../../d0/d01/smallest__circle_8cpp.html#a0b0676df8e4da7a08c7ccaecea344903" target="_top" xlink:title=" ">
<polygon fill="white" stroke="black" points="107,-101.76 107,-120.76 147,-120.76 147,-101.76 107,-101.76"/>
<text text-anchor="middle" x="127" y="-108.76" font-family="Helvetica,sans-Serif" font-size="10.00">circle</text>
</a>
</g>
</g>
<!-- Node1&#45;&gt;Node2 -->
<g id="edge1" class="edge">
<title>Node1&#45;&gt;Node2</title>
<path fill="none" stroke="midnightblue" d="M33.05,-111.26C49.61,-111.26 76.23,-111.26 96.74,-111.26"/>
<polygon fill="midnightblue" stroke="midnightblue" points="96.82,-114.76 106.82,-111.26 96.82,-107.76 96.82,-114.76"/>
</g>
<!-- Node3 -->
<g id="node3" class="node">
<title>Node3</title>
<g id="a_node3"><a target="_blank" xlink:href="http://en.cppreference.com/w/cpp/io/manip/endl.html#" xlink:title=" ">
<polygon fill="white" stroke="black" points="230.5,-177.76 230.5,-196.76 284.5,-196.76 284.5,-177.76 230.5,-177.76"/>
<text text-anchor="middle" x="257.5" y="-184.76" font-family="Helvetica,sans-Serif" font-size="10.00">std::endl</text>
</a>
</g>
</g>
<!-- Node1&#45;&gt;Node3 -->
<g id="edge15" class="edge">
<title>Node1&#45;&gt;Node3</title>
<path fill="none" stroke="midnightblue" d="M33.19,-117.32C43.35,-121.18 56.9,-126.19 69,-130.26 121.18,-147.8 182.29,-165.94 220.21,-176.91"/>
<polygon fill="midnightblue" stroke="midnightblue" points="219.68,-180.4 230.26,-179.81 221.62,-173.68 219.68,-180.4"/>
</g>
<!-- Node11 -->
<g id="node11" class="node">
<title>Node11</title>
<g id="a_node11"><a target="_blank" xlink:href="http://en.cppreference.com/w/cpp/container/vector/push_back.html#" xlink:title=" ">
<polygon fill="white" stroke="black" points="69,-63.76 69,-82.76 185,-82.76 185,-63.76 69,-63.76"/>
<text text-anchor="middle" x="127" y="-70.76" font-family="Helvetica,sans-Serif" font-size="10.00">std::vector::push_back</text>
</a>
</g>
</g>
<!-- Node1&#45;&gt;Node11 -->
<g id="edge16" class="edge">
<title>Node1&#45;&gt;Node11</title>
<path fill="none" stroke="midnightblue" d="M33.23,-105.31C43.41,-101.5 56.95,-96.49 69,-92.26 74.74,-90.25 80.82,-88.17 86.79,-86.15"/>
<polygon fill="midnightblue" stroke="midnightblue" points="88.28,-89.34 96.65,-82.85 86.06,-82.71 88.28,-89.34"/>
</g>
<!-- Node2&#45;&gt;Node3 -->
<g id="edge2" class="edge">
<title>Node2&#45;&gt;Node3</title>
<path fill="none" stroke="midnightblue" d="M142.98,-120.82C161.23,-132.37 193.07,-152.25 221,-168.26 223.56,-169.73 226.24,-171.23 228.93,-172.71"/>
<polygon fill="midnightblue" stroke="midnightblue" points="227.5,-175.92 237.96,-177.6 230.84,-169.76 227.5,-175.92"/>
</g>
<!-- Node4 -->
<g id="node4" class="node">
<title>Node4</title>
<g id="a_node4"><a xlink:href="../../d4/d18/composite__simpson__rule_8cpp.html#a6d50f1b8eb533b54721812d16a3699cc" target="_top" xlink:title="Another test function.">
<polygon fill="white" stroke="black" points="243,-139.76 243,-158.76 272,-158.76 272,-139.76 243,-139.76"/>
<text text-anchor="middle" x="257.5" y="-146.76" font-family="Helvetica,sans-Serif" font-size="10.00">k</text>
</a>
</g>
</g>
<!-- Node2&#45;&gt;Node4 -->
<g id="edge3" class="edge">
<title>Node2&#45;&gt;Node4</title>
<path fill="none" stroke="midnightblue" d="M147.24,-116.95C170.15,-123.73 208.41,-135.04 233.04,-142.32"/>
<polygon fill="midnightblue" stroke="midnightblue" points="232.09,-145.69 242.67,-145.17 234.08,-138.98 232.09,-145.69"/>
</g>
<!-- Node7 -->
<g id="node7" class="node">
<title>Node7</title>
<g id="a_node7"><a xlink:href="../../d0/d01/smallest__circle_8cpp.html#a3cbebd6f4d2cdf227663c67fe41ba12a" target="_top" xlink:title=" ">
<polygon fill="white" stroke="black" points="341.5,-63.76 341.5,-82.76 405.5,-82.76 405.5,-63.76 341.5,-63.76"/>
<text text-anchor="middle" x="373.5" y="-70.76" font-family="Helvetica,sans-Serif" font-size="10.00">LenghtLine</text>
</a>
</g>
</g>
<!-- Node2&#45;&gt;Node7 -->
<g id="edge6" class="edge">
<title>Node2&#45;&gt;Node7</title>
<path fill="none" stroke="midnightblue" d="M147.16,-106.9C165.9,-102.74 195.31,-96.49 221,-92.26 258.08,-86.16 300.56,-80.99 331.08,-77.59"/>
<polygon fill="midnightblue" stroke="midnightblue" points="331.79,-81.03 341.35,-76.46 331.03,-74.07 331.79,-81.03"/>
</g>
<!-- Node8 -->
<g id="node8" class="node">
<title>Node8</title>
<g id="a_node8"><a xlink:href="../../d0/d01/smallest__circle_8cpp.html#aee6d48762c1dfb9f14627927f0c16fad" target="_top" xlink:title=" ">
<polygon fill="white" stroke="black" points="221,-25.76 221,-44.76 294,-44.76 294,-25.76 221,-25.76"/>
<text text-anchor="middle" x="257.5" y="-32.76" font-family="Helvetica,sans-Serif" font-size="10.00">PointInCircle</text>
</a>
</g>
</g>
<!-- Node2&#45;&gt;Node8 -->
<g id="edge8" class="edge">
<title>Node2&#45;&gt;Node8</title>
<path fill="none" stroke="midnightblue" d="M147.07,-107.05C158.57,-104.01 173.22,-99.19 185,-92.26 203.71,-81.26 203.96,-72.71 221,-59.26 224.71,-56.33 228.77,-53.38 232.78,-50.59"/>
<polygon fill="midnightblue" stroke="midnightblue" points="234.97,-53.33 241.3,-44.83 231.05,-47.53 234.97,-53.33"/>
</g>
<!-- Node9 -->
<g id="node9" class="node">
<title>Node9</title>
<g id="a_node9"><a target="_blank" xlink:href="http://en.cppreference.com/w/cpp/container/vector/size.html#" xlink:title=" ">
<polygon fill="white" stroke="black" points="330,-6.76 330,-25.76 417,-25.76 417,-6.76 330,-6.76"/>
<text text-anchor="middle" x="373.5" y="-13.76" font-family="Helvetica,sans-Serif" font-size="10.00">std::vector::size</text>
</a>
</g>
</g>
<!-- Node2&#45;&gt;Node9 -->
<g id="edge11" class="edge">
<title>Node2&#45;&gt;Node9</title>
<path fill="none" stroke="midnightblue" d="M147.1,-108.8C159.19,-106.38 174.46,-101.6 185,-92.26 212.97,-67.48 189.42,-36.25 221,-16.26 252.99,3.98 296.89,1.46 329.21,-4.62"/>
<polygon fill="midnightblue" stroke="midnightblue" points="328.76,-8.1 339.26,-6.7 330.17,-1.25 328.76,-8.1"/>
</g>
<!-- Node10 -->
<g id="node10" class="node">
<title>Node10</title>
<g id="a_node10"><a xlink:href="../../d0/d01/smallest__circle_8cpp.html#a94682a4a70d5906857ca09de5b9fb2cc" target="_top" xlink:title=" ">
<polygon fill="white" stroke="black" points="222,-101.76 222,-120.76 293,-120.76 293,-101.76 222,-101.76"/>
<text text-anchor="middle" x="257.5" y="-108.76" font-family="Helvetica,sans-Serif" font-size="10.00">TriangleArea</text>
</a>
</g>
</g>
<!-- Node2&#45;&gt;Node10 -->
<g id="edge12" class="edge">
<title>Node2&#45;&gt;Node10</title>
<path fill="none" stroke="midnightblue" d="M147.24,-111.26C164.22,-111.26 189.64,-111.26 211.69,-111.26"/>
<polygon fill="midnightblue" stroke="midnightblue" points="211.86,-114.76 221.86,-111.26 211.86,-107.76 211.86,-114.76"/>
</g>
<!-- Node5 -->
<g id="node5" class="node">
<title>Node5</title>
<g id="a_node5"><a target="_blank" xlink:href="http://en.cppreference.com/w/cpp/numeric/math/pow.html#" xlink:title=" ">
<polygon fill="white" stroke="black" points="346.5,-139.76 346.5,-158.76 400.5,-158.76 400.5,-139.76 346.5,-139.76"/>
<text text-anchor="middle" x="373.5" y="-146.76" font-family="Helvetica,sans-Serif" font-size="10.00">std::pow</text>
</a>
</g>
</g>
<!-- Node4&#45;&gt;Node5 -->
<g id="edge4" class="edge">
<title>Node4&#45;&gt;Node5</title>
<path fill="none" stroke="midnightblue" d="M272.02,-149.26C287.74,-149.26 314.3,-149.26 336.17,-149.26"/>
<polygon fill="midnightblue" stroke="midnightblue" points="336.46,-152.76 346.46,-149.26 336.46,-145.76 336.46,-152.76"/>
</g>
<!-- Node6 -->
<g id="node6" class="node">
<title>Node6</title>
<g id="a_node6"><a target="_blank" xlink:href="http://en.cppreference.com/w/cpp/numeric/math/sqrt.html#" xlink:title=" ">
<polygon fill="white" stroke="black" points="453,-101.76 453,-120.76 506,-120.76 506,-101.76 453,-101.76"/>
<text text-anchor="middle" x="479.5" y="-108.76" font-family="Helvetica,sans-Serif" font-size="10.00">std::sqrt</text>
</a>
</g>
</g>
<!-- Node4&#45;&gt;Node6 -->
<g id="edge5" class="edge">
<title>Node4&#45;&gt;Node6</title>
<path fill="none" stroke="midnightblue" d="M272.2,-155.17C300.39,-166.42 366.43,-188.09 417,-168.26 437.01,-160.42 454.4,-142.66 465.53,-129.03"/>
<polygon fill="midnightblue" stroke="midnightblue" points="468.54,-130.87 471.91,-120.82 463.01,-126.57 468.54,-130.87"/>
</g>
<!-- Node7&#45;&gt;Node6 -->
<g id="edge7" class="edge">
<title>Node7&#45;&gt;Node6</title>
<path fill="none" stroke="midnightblue" d="M400.74,-82.85C413.62,-87.56 429.32,-93.29 443.24,-98.38"/>
<polygon fill="midnightblue" stroke="midnightblue" points="442.39,-101.8 452.98,-101.94 444.79,-95.22 442.39,-101.8"/>
</g>
<!-- Node8&#45;&gt;Node7 -->
<g id="edge9" class="edge">
<title>Node8&#45;&gt;Node7</title>
<path fill="none" stroke="midnightblue" d="M287.27,-44.85C301.44,-49.58 318.74,-55.34 334.03,-60.44"/>
<polygon fill="midnightblue" stroke="midnightblue" points="333.15,-63.83 343.74,-63.68 335.36,-57.19 333.15,-63.83"/>
</g>
<!-- Node8&#45;&gt;Node9 -->
<g id="edge10" class="edge">
<title>Node8&#45;&gt;Node9</title>
<path fill="none" stroke="midnightblue" d="M294.26,-29.3C302.33,-27.96 311.07,-26.5 319.67,-25.07"/>
<polygon fill="midnightblue" stroke="midnightblue" points="320.38,-28.5 329.67,-23.4 319.23,-21.59 320.38,-28.5"/>
</g>
<!-- Node10&#45;&gt;Node6 -->
<g id="edge14" class="edge">
<title>Node10&#45;&gt;Node6</title>
<path fill="none" stroke="midnightblue" d="M293.36,-111.26C334.15,-111.26 401.36,-111.26 442.6,-111.26"/>
<polygon fill="midnightblue" stroke="midnightblue" points="442.74,-114.76 452.74,-111.26 442.74,-107.76 442.74,-114.76"/>
</g>
<!-- Node10&#45;&gt;Node7 -->
<g id="edge13" class="edge">
<title>Node10&#45;&gt;Node7</title>
<path fill="none" stroke="midnightblue" d="M287.27,-101.67C301.44,-96.95 318.74,-91.18 334.03,-86.09"/>
<polygon fill="midnightblue" stroke="midnightblue" points="335.36,-89.33 343.74,-82.85 333.15,-82.69 335.36,-89.33"/>
</g>
</g>
</svg>
        <g id="navigator" transform="translate(0 0)" fill="#404254">
                <rect fill="#f2f5e9" fill-opacity="0.5" stroke="#606060" stroke-width=".5" x="0" y="0" width="60" height="60"/>
                <use id="zoomplus" xlink:href="#zoomPlus" x="17" y="9" onmousedown="handleZoom(evt,'in')"/>
                <use id="zoomminus" xlink:href="#zoomMin" x="42" y="9" onmousedown="handleZoom(evt,'out')"/>
                <use id="reset" xlink:href="#resetDef" x="30" y="36" onmousedown="handleReset()"/>
                <g id="arrowUp" xlink:href="#dirArrow" transform="translate(30 24)" onmousedown="handlePan(0,-1)">
                  <use xlink:href="#rim" fill="#404040">
                        <set attributeName="fill" to="#808080" begin="arrowUp.mouseover" end="arrowUp.mouseout"/>
                  </use>
                  <path fill="none" stroke="white" stroke-width="1.5" d="M0,-3.0v7 M-2.5,-0.5L0,-3.0L2.5,-0.5"/>
                </g>
                <g id="arrowRight" xlink:href="#dirArrow" transform="rotate(90) translate(36 -43)" onmousedown="handlePan(1,0)">
                  <use xlink:href="#rim" fill="#404040">
                        <set attributeName="fill" to="#808080" begin="arrowRight.mouseover" end="arrowRight.mouseout"/>
                  </use>
                  <path fill="none" stroke="white" stroke-width="1.5" d="M0,-3.0v7 M-2.5,-0.5L0,-3.0L2.5,-0.5"/>
                </g>
                <g id="arrowDown" xlink:href="#dirArrow" transform="rotate(180) translate(-30 -48)" onmousedown="handlePan(0,1)">
                  <use xlink:href="#rim" fill="#404040">
                        <set attributeName="fill" to="#808080" begin="arrowDown.mouseover" end="arrowDown.mouseout"/>
                  </use>
                  <path fill="none" stroke="white" stroke-width="1.5" d="M0,-3.0v7 M-2.5,-0.5L0,-3.0L2.5,-0.5"/>
                </g>
                <g id="arrowLeft" xlink:href="#dirArrow" transform="rotate(270) translate(-36 17)" onmousedown="handlePan(-1,0)">
                  <use xlink:href="#rim" fill="#404040">
                        <set attributeName="fill" to="#808080" begin="arrowLeft.mouseover" end="arrowLeft.mouseout"/>
                  </use>
                  <path fill="none" stroke="white" stroke-width="1.5" d="M0,-3.0v7 M-2.5,-0.5L0,-3.0L2.5,-0.5"/>
                </g>
        </g>
        <svg viewBox="0 0 15 15" width="100%" height="30px" preserveAspectRatio="xMaxYMin meet">
         <g id="arrow_out" transform="scale(0.3 0.3)">
          <a xlink:href="smallest__circle_8cpp_ae1a3968e7947464bee7714f6d43b7002_cgraph_org.svg" target="_base">
           <rect id="button" ry="5" rx="5" y="6" x="6" height="38" width="38"
                fill="#f2f5e9" fill-opacity="0.5" stroke="#606060" stroke-width="1.0"/>
           <path id="arrow"
             d="M 11.500037,31.436501 C 11.940474,20.09759 22.043105,11.32322 32.158766,21.979434 L 37.068811,17.246167 C 37.068811,17.246167 37.088388,32 37.088388,32 L 22.160133,31.978069 C 22.160133,31.978069 26.997745,27.140456 26.997745,27.140456 C 18.528582,18.264221 13.291696,25.230495 11.500037,31.436501 z"
             style="fill:#404040;"/>
          </a>
         </g>
        </svg>
</svg>
