<?xml version="1.0" encoding="UTF-8" standalone="no"?>
<!DOCTYPE svg PUBLIC "-//W3C//DTD SVG 1.1//EN"
 "http://www.w3.org/Graphics/SVG/1.1/DTD/svg11.dtd">
<!-- Generated by graphviz version 5.0.0 (20220707.1540)
 -->
<!-- Title: test2 Pages: 1 -->
<svg width="519pt" height="205pt"
 viewBox="0.00 0.00 519.00 205.26" xmlns="http://www.w3.org/2000/svg" xmlns:xlink="http://www.w3.org/1999/xlink">
<g id="graph0" class="graph" transform="scale(1 1) rotate(0) translate(4 201.26)">
<title>test2</title>
<polygon fill="white" stroke="transparent" points="-4,4 -4,-201.26 515,-201.26 515,4 -4,4"/>
<!-- Node1 -->
<g id="node1" class="node">
<title>Node1</title>
<g id="a_node1"><a xlink:title=" ">
<polygon fill="#bfbfbf" stroke="black" points="0,-101.76 0,-120.76 38,-120.76 38,-101.76 0,-101.76"/>
<text text-anchor="middle" x="19" y="-108.76" font-family="Helvetica,sans-Serif" font-size="10.00">test2</text>
</a>
</g>
</g>
<!-- Node2 -->
<g id="node2" class="node">
<title>Node2</title>
<g id="a_node2"><a xlink:href="../../d0/d01/smallest__circle_8cpp.html#a0b0676df8e4da7a08c7ccaecea344903" target="_top" xlink:title=" ">
<polygon fill="white" stroke="black" points="112,-101.76 112,-120.76 152,-120.76 152,-101.76 112,-101.76"/>
<text text-anchor="middle" x="132" y="-108.76" font-family="Helvetica,sans-Serif" font-size="10.00">circle</text>
</a>
</g>
</g>
<!-- Node1&#45;&gt;Node2 -->
<g id="edge1" class="edge">
<title>Node1&#45;&gt;Node2</title>
<path fill="none" stroke="midnightblue" d="M38.33,-111.26C55.55,-111.26 81.62,-111.26 101.72,-111.26"/>
<polygon fill="midnightblue" stroke="midnightblue" points="101.9,-114.76 111.9,-111.26 101.9,-107.76 101.9,-114.76"/>
</g>
<!-- Node3 -->
<g id="node3" class="node">
<title>Node3</title>
<g id="a_node3"><a target="_blank" xlink:href="http://en.cppreference.com/w/cpp/io/manip/endl.html#" xlink:title=" ">
<polygon fill="white" stroke="black" points="235.5,-177.76 235.5,-196.76 289.5,-196.76 289.5,-177.76 235.5,-177.76"/>
<text text-anchor="middle" x="262.5" y="-184.76" font-family="Helvetica,sans-Serif" font-size="10.00">std::endl</text>
</a>
</g>
</g>
<!-- Node1&#45;&gt;Node3 -->
<g id="edge15" class="edge">
<title>Node1&#45;&gt;Node3</title>
<path fill="none" stroke="midnightblue" d="M38.43,-117.97C48.83,-121.7 62.1,-126.36 74,-130.26 126.31,-147.41 187.39,-165.65 225.26,-176.75"/>
<polygon fill="midnightblue" stroke="midnightblue" points="224.72,-180.24 235.3,-179.69 226.69,-173.52 224.72,-180.24"/>
</g>
<!-- Node11 -->
<g id="node11" class="node">
<title>Node11</title>
<g id="a_node11"><a target="_blank" xlink:href="http://en.cppreference.com/w/cpp/container/vector/push_back.html#" xlink:title=" ">
<polygon fill="white" stroke="black" points="74,-63.76 74,-82.76 190,-82.76 190,-63.76 74,-63.76"/>
<text text-anchor="middle" x="132" y="-70.76" font-family="Helvetica,sans-Serif" font-size="10.00">std::vector::push_back</text>
</a>
</g>
</g>
<!-- Node1&#45;&gt;Node11 -->
<g id="edge16" class="edge">
<title>Node1&#45;&gt;Node11</title>
<path fill="none" stroke="midnightblue" d="M38.47,-104.68C48.89,-100.99 62.15,-96.32 74,-92.26 79.96,-90.22 86.28,-88.09 92.45,-86.02"/>
<polygon fill="midnightblue" stroke="midnightblue" points="93.6,-89.32 101.97,-82.84 91.38,-82.68 93.6,-89.32"/>
</g>
<!-- Node2&#45;&gt;Node3 -->
<g id="edge2" class="edge">
<title>Node2&#45;&gt;Node3</title>
<path fill="none" stroke="midnightblue" d="M147.98,-120.82C166.23,-132.37 198.07,-152.25 226,-168.26 228.56,-169.73 231.24,-171.23 233.93,-172.71"/>
<polygon fill="midnightblue" stroke="midnightblue" points="232.5,-175.92 242.96,-177.6 235.84,-169.76 232.5,-175.92"/>
</g>
<!-- Node4 -->
<g id="node4" class="node">
<title>Node4</title>
<g id="a_node4"><a xlink:href="../../d4/d18/composite__simpson__rule_8cpp.html#a6d50f1b8eb533b54721812d16a3699cc" target="_top" xlink:title="Another test function.">
<polygon fill="white" stroke="black" points="248,-139.76 248,-158.76 277,-158.76 277,-139.76 248,-139.76"/>
<text text-anchor="middle" x="262.5" y="-146.76" font-family="Helvetica,sans-Serif" font-size="10.00">k</text>
</a>
</g>
</g>
<!-- Node2&#45;&gt;Node4 -->
<g id="edge3" class="edge">
<title>Node2&#45;&gt;Node4</title>
<path fill="none" stroke="midnightblue" d="M152.24,-116.95C175.15,-123.73 213.41,-135.04 238.04,-142.32"/>
<polygon fill="midnightblue" stroke="midnightblue" points="237.09,-145.69 247.67,-145.17 239.08,-138.98 237.09,-145.69"/>
</g>
<!-- Node7 -->
<g id="node7" class="node">
<title>Node7</title>
<g id="a_node7"><a xlink:href="../../d0/d01/smallest__circle_8cpp.html#a3cbebd6f4d2cdf227663c67fe41ba12a" target="_top" xlink:title=" ">
<polygon fill="white" stroke="black" points="346.5,-63.76 346.5,-82.76 410.5,-82.76 410.5,-63.76 346.5,-63.76"/>
<text text-anchor="middle" x="378.5" y="-70.76" font-family="Helvetica,sans-Serif" font-size="10.00">LenghtLine</text>
</a>
</g>
</g>
<!-- Node2&#45;&gt;Node7 -->
<g id="edge6" class="edge">
<title>Node2&#45;&gt;Node7</title>
<path fill="none" stroke="midnightblue" d="M152.16,-106.9C170.9,-102.74 200.31,-96.49 226,-92.26 263.08,-86.16 305.56,-80.99 336.08,-77.59"/>
<polygon fill="midnightblue" stroke="midnightblue" points="336.79,-81.03 346.35,-76.46 336.03,-74.07 336.79,-81.03"/>
</g>
<!-- Node8 -->
<g id="node8" class="node">
<title>Node8</title>
<g id="a_node8"><a xlink:href="../../d0/d01/smallest__circle_8cpp.html#aee6d48762c1dfb9f14627927f0c16fad" target="_top" xlink:title=" ">
<polygon fill="white" stroke="black" points="226,-25.76 226,-44.76 299,-44.76 299,-25.76 226,-25.76"/>
<text text-anchor="middle" x="262.5" y="-32.76" font-family="Helvetica,sans-Serif" font-size="10.00">PointInCircle</text>
</a>
</g>
</g>
<!-- Node2&#45;&gt;Node8 -->
<g id="edge8" class="edge">
<title>Node2&#45;&gt;Node8</title>
<path fill="none" stroke="midnightblue" d="M152.07,-107.05C163.57,-104.01 178.22,-99.19 190,-92.26 208.71,-81.26 208.96,-72.71 226,-59.26 229.71,-56.33 233.77,-53.38 237.78,-50.59"/>
<polygon fill="midnightblue" stroke="midnightblue" points="239.97,-53.33 246.3,-44.83 236.05,-47.53 239.97,-53.33"/>
</g>
<!-- Node9 -->
<g id="node9" class="node">
<title>Node9</title>
<g id="a_node9"><a target="_blank" xlink:href="http://en.cppreference.com/w/cpp/container/vector/size.html#" xlink:title=" ">
<polygon fill="white" stroke="black" points="335,-6.76 335,-25.76 422,-25.76 422,-6.76 335,-6.76"/>
<text text-anchor="middle" x="378.5" y="-13.76" font-family="Helvetica,sans-Serif" font-size="10.00">std::vector::size</text>
</a>
</g>
</g>
<!-- Node2&#45;&gt;Node9 -->
<g id="edge11" class="edge">
<title>Node2&#45;&gt;Node9</title>
<path fill="none" stroke="midnightblue" d="M152.1,-108.8C164.19,-106.38 179.46,-101.6 190,-92.26 217.97,-67.48 194.42,-36.25 226,-16.26 257.99,3.98 301.89,1.46 334.21,-4.62"/>
<polygon fill="midnightblue" stroke="midnightblue" points="333.76,-8.1 344.26,-6.7 335.17,-1.25 333.76,-8.1"/>
</g>
<!-- Node10 -->
<g id="node10" class="node">
<title>Node10</title>
<g id="a_node10"><a xlink:href="../../d0/d01/smallest__circle_8cpp.html#a94682a4a70d5906857ca09de5b9fb2cc" target="_top" xlink:title=" ">
<polygon fill="white" stroke="black" points="227,-101.76 227,-120.76 298,-120.76 298,-101.76 227,-101.76"/>
<text text-anchor="middle" x="262.5" y="-108.76" font-family="Helvetica,sans-Serif" font-size="10.00">TriangleArea</text>
</a>
</g>
</g>
<!-- Node2&#45;&gt;Node10 -->
<g id="edge12" class="edge">
<title>Node2&#45;&gt;Node10</title>
<path fill="none" stroke="midnightblue" d="M152.24,-111.26C169.22,-111.26 194.64,-111.26 216.69,-111.26"/>
<polygon fill="midnightblue" stroke="midnightblue" points="216.86,-114.76 226.86,-111.26 216.86,-107.76 216.86,-114.76"/>
</g>
<!-- Node5 -->
<g id="node5" class="node">
<title>Node5</title>
<g id="a_node5"><a target="_blank" xlink:href="http://en.cppreference.com/w/cpp/numeric/math/pow.html#" xlink:title=" ">
<polygon fill="white" stroke="black" points="351.5,-139.76 351.5,-158.76 405.5,-158.76 405.5,-139.76 351.5,-139.76"/>
<text text-anchor="middle" x="378.5" y="-146.76" font-family="Helvetica,sans-Serif" font-size="10.00">std::pow</text>
</a>
</g>
</g>
<!-- Node4&#45;&gt;Node5 -->
<g id="edge4" class="edge">
<title>Node4&#45;&gt;Node5</title>
<path fill="none" stroke="midnightblue" d="M277.02,-149.26C292.74,-149.26 319.3,-149.26 341.17,-149.26"/>
<polygon fill="midnightblue" stroke="midnightblue" points="341.46,-152.76 351.46,-149.26 341.46,-145.76 341.46,-152.76"/>
</g>
<!-- Node6 -->
<g id="node6" class="node">
<title>Node6</title>
<g id="a_node6"><a target="_blank" xlink:href="http://en.cppreference.com/w/cpp/numeric/math/sqrt.html#" xlink:title=" ">
<polygon fill="white" stroke="black" points="458,-101.76 458,-120.76 511,-120.76 511,-101.76 458,-101.76"/>
<text text-anchor="middle" x="484.5" y="-108.76" font-family="Helvetica,sans-Serif" font-size="10.00">std::sqrt</text>
</a>
</g>
</g>
<!-- Node4&#45;&gt;Node6 -->
<g id="edge5" class="edge">
<title>Node4&#45;&gt;Node6</title>
<path fill="none" stroke="midnightblue" d="M277.2,-155.17C305.39,-166.42 371.43,-188.09 422,-168.26 442.01,-160.42 459.4,-142.66 470.53,-129.03"/>
<polygon fill="midnightblue" stroke="midnightblue" points="473.54,-130.87 476.91,-120.82 468.01,-126.57 473.54,-130.87"/>
</g>
<!-- Node7&#45;&gt;Node6 -->
<g id="edge7" class="edge">
<title>Node7&#45;&gt;Node6</title>
<path fill="none" stroke="midnightblue" d="M405.74,-82.85C418.62,-87.56 434.32,-93.29 448.24,-98.38"/>
<polygon fill="midnightblue" stroke="midnightblue" points="447.39,-101.8 457.98,-101.94 449.79,-95.22 447.39,-101.8"/>
</g>
<!-- Node8&#45;&gt;Node7 -->
<g id="edge9" class="edge">
<title>Node8&#45;&gt;Node7</title>
<path fill="none" stroke="midnightblue" d="M292.27,-44.85C306.44,-49.58 323.74,-55.34 339.03,-60.44"/>
<polygon fill="midnightblue" stroke="midnightblue" points="338.15,-63.83 348.74,-63.68 340.36,-57.19 338.15,-63.83"/>
</g>
<!-- Node8&#45;&gt;Node9 -->
<g id="edge10" class="edge">
<title>Node8&#45;&gt;Node9</title>
<path fill="none" stroke="midnightblue" d="M299.26,-29.3C307.33,-27.96 316.07,-26.5 324.67,-25.07"/>
<polygon fill="midnightblue" stroke="midnightblue" points="325.38,-28.5 334.67,-23.4 324.23,-21.59 325.38,-28.5"/>
</g>
<!-- Node10&#45;&gt;Node6 -->
<g id="edge14" class="edge">
<title>Node10&#45;&gt;Node6</title>
<path fill="none" stroke="midnightblue" d="M298.36,-111.26C339.15,-111.26 406.36,-111.26 447.6,-111.26"/>
<polygon fill="midnightblue" stroke="midnightblue" points="447.74,-114.76 457.74,-111.26 447.74,-107.76 447.74,-114.76"/>
</g>
<!-- Node10&#45;&gt;Node7 -->
<g id="edge13" class="edge">
<title>Node10&#45;&gt;Node7</title>
<path fill="none" stroke="midnightblue" d="M292.27,-101.67C306.44,-96.95 323.74,-91.18 339.03,-86.09"/>
<polygon fill="midnightblue" stroke="midnightblue" points="340.36,-89.33 348.74,-82.85 338.15,-82.69 340.36,-89.33"/>
</g>
</g>
</svg>
