<?xml version="1.0" encoding="UTF-8" standalone="no"?>
<!DOCTYPE svg PUBLIC "-//W3C//DTD SVG 1.1//EN"
 "http://www.w3.org/Graphics/SVG/1.1/DTD/svg11.dtd">
<!-- Generated by graphviz version 5.0.0 (20220707.1540)
 -->
<!-- Title: main Pages: 1 -->
<svg width="593pt" height="251pt"
 viewBox="0.00 0.00 593.00 250.99" xmlns="http://www.w3.org/2000/svg" xmlns:xlink="http://www.w3.org/1999/xlink">
<g id="graph0" class="graph" transform="scale(1 1) rotate(0) translate(4 246.99)">
<title>main</title>
<polygon fill="white" stroke="transparent" points="-4,4 -4,-246.99 589,-246.99 589,4 -4,4"/>
<!-- Node1 -->
<g id="node1" class="node">
<title>Node1</title>
<g id="a_node1"><a xlink:title=" ">
<polygon fill="#bfbfbf" stroke="black" points="0,-171.5 0,-190.5 38,-190.5 38,-171.5 0,-171.5"/>
<text text-anchor="middle" x="19" y="-178.5" font-family="Helvetica,sans-Serif" font-size="10.00">main</text>
</a>
</g>
</g>
<!-- Node2 -->
<g id="node2" class="node">
<title>Node2</title>
<g id="a_node2"><a target="_blank" xlink:href="http://en.cppreference.com/w/cpp/io/manip/endl.html#" xlink:title=" ">
<polygon fill="white" stroke="black" points="309.5,-190.5 309.5,-209.5 363.5,-209.5 363.5,-190.5 309.5,-190.5"/>
<text text-anchor="middle" x="336.5" y="-197.5" font-family="Helvetica,sans-Serif" font-size="10.00">std::endl</text>
</a>
</g>
</g>
<!-- Node1&#45;&gt;Node2 -->
<g id="edge1" class="edge">
<title>Node1&#45;&gt;Node2</title>
<path fill="none" stroke="midnightblue" d="M30.68,-190.83C40.98,-199.7 57.4,-212.36 74,-219 152.54,-250.41 181.08,-246.69 264,-230 279.46,-226.89 295.74,-220.34 308.86,-214.16"/>
<polygon fill="midnightblue" stroke="midnightblue" points="310.77,-217.12 318.2,-209.56 307.68,-210.83 310.77,-217.12"/>
</g>
<!-- Node3 -->
<g id="node3" class="node">
<title>Node3</title>
<g id="a_node3"><a xlink:href="../../d0/d01/smallest__circle_8cpp.html#ae1a3968e7947464bee7714f6d43b7002" target="_top" xlink:title=" ">
<polygon fill="white" stroke="black" points="76.5,-190.5 76.5,-209.5 109.5,-209.5 109.5,-190.5 76.5,-190.5"/>
<text text-anchor="middle" x="93" y="-197.5" font-family="Helvetica,sans-Serif" font-size="10.00">test</text>
</a>
</g>
</g>
<!-- Node1&#45;&gt;Node3 -->
<g id="edge2" class="edge">
<title>Node1&#45;&gt;Node3</title>
<path fill="none" stroke="midnightblue" d="M38.17,-185.79C46.64,-188.03 56.88,-190.73 66.15,-193.18"/>
<polygon fill="midnightblue" stroke="midnightblue" points="65.48,-196.62 76.04,-195.79 67.27,-189.85 65.48,-196.62"/>
</g>
<!-- Node13 -->
<g id="node13" class="node">
<title>Node13</title>
<g id="a_node13"><a xlink:href="../../d0/d01/smallest__circle_8cpp.html#a0283886819c7c140a023582b7269e2d0" target="_top" xlink:title=" ">
<polygon fill="white" stroke="black" points="74,-152.5 74,-171.5 112,-171.5 112,-152.5 74,-152.5"/>
<text text-anchor="middle" x="93" y="-159.5" font-family="Helvetica,sans-Serif" font-size="10.00">test2</text>
</a>
</g>
</g>
<!-- Node1&#45;&gt;Node13 -->
<g id="edge19" class="edge">
<title>Node1&#45;&gt;Node13</title>
<path fill="none" stroke="midnightblue" d="M38.17,-176.21C45.95,-174.15 55.23,-171.7 63.87,-169.42"/>
<polygon fill="midnightblue" stroke="midnightblue" points="64.81,-172.79 73.59,-166.86 63.02,-166.03 64.81,-172.79"/>
</g>
<!-- Node14 -->
<g id="node14" class="node">
<title>Node14</title>
<g id="a_node14"><a xlink:href="../../d0/d01/smallest__circle_8cpp.html#a6d0455dd5c30adda100e95f0423c786e" target="_top" xlink:title=" ">
<polygon fill="white" stroke="black" points="74,-114.5 74,-133.5 112,-133.5 112,-114.5 74,-114.5"/>
<text text-anchor="middle" x="93" y="-121.5" font-family="Helvetica,sans-Serif" font-size="10.00">test3</text>
</a>
</g>
</g>
<!-- Node1&#45;&gt;Node14 -->
<g id="edge23" class="edge">
<title>Node1&#45;&gt;Node14</title>
<path fill="none" stroke="midnightblue" d="M32.21,-171.33C43.04,-162.76 59.05,-150.09 71.78,-140.01"/>
<polygon fill="midnightblue" stroke="midnightblue" points="74.3,-142.48 79.97,-133.53 69.95,-136.99 74.3,-142.48"/>
</g>
<!-- Node3&#45;&gt;Node2 -->
<g id="edge17" class="edge">
<title>Node3&#45;&gt;Node2</title>
<path fill="none" stroke="midnightblue" d="M109.86,-205.25C120.51,-208.49 134.93,-212.33 148,-214 199.14,-220.52 212.69,-218.98 264,-214 275.57,-212.88 288.04,-210.76 299.28,-208.5"/>
<polygon fill="midnightblue" stroke="midnightblue" points="300.13,-211.9 309.19,-206.41 298.69,-205.05 300.13,-211.9"/>
</g>
<!-- Node4 -->
<g id="node4" class="node">
<title>Node4</title>
<g id="a_node4"><a xlink:href="../../d0/d01/smallest__circle_8cpp.html#a0b0676df8e4da7a08c7ccaecea344903" target="_top" xlink:title=" ">
<polygon fill="white" stroke="black" points="186,-76.5 186,-95.5 226,-95.5 226,-76.5 186,-76.5"/>
<text text-anchor="middle" x="206" y="-83.5" font-family="Helvetica,sans-Serif" font-size="10.00">circle</text>
</a>
</g>
</g>
<!-- Node3&#45;&gt;Node4 -->
<g id="edge3" class="edge">
<title>Node3&#45;&gt;Node4</title>
<path fill="none" stroke="midnightblue" d="M103.17,-190.31C117.99,-174.65 145.78,-145.28 148,-143 161.32,-129.31 176.64,-114.01 188.04,-102.72"/>
<polygon fill="midnightblue" stroke="midnightblue" points="190.59,-105.12 195.24,-95.6 185.67,-100.15 190.59,-105.12"/>
</g>
<!-- Node12 -->
<g id="node12" class="node">
<title>Node12</title>
<g id="a_node12"><a target="_blank" xlink:href="http://en.cppreference.com/w/cpp/container/vector/push_back.html#" xlink:title=" ">
<polygon fill="white" stroke="black" points="148,-152.5 148,-171.5 264,-171.5 264,-152.5 148,-152.5"/>
<text text-anchor="middle" x="206" y="-159.5" font-family="Helvetica,sans-Serif" font-size="10.00">std::vector::push_back</text>
</a>
</g>
</g>
<!-- Node3&#45;&gt;Node12 -->
<g id="edge18" class="edge">
<title>Node3&#45;&gt;Node12</title>
<path fill="none" stroke="midnightblue" d="M109.9,-194.56C124.88,-189.43 147.88,-181.56 167.51,-174.84"/>
<polygon fill="midnightblue" stroke="midnightblue" points="168.78,-178.1 177.11,-171.55 166.52,-171.48 168.78,-178.1"/>
</g>
<!-- Node4&#45;&gt;Node2 -->
<g id="edge4" class="edge">
<title>Node4&#45;&gt;Node2</title>
<path fill="none" stroke="midnightblue" d="M226.06,-90.39C238.12,-93.99 253.39,-100.12 264,-110 289.89,-134.12 275.26,-155.71 300,-181 301.24,-182.27 302.59,-183.48 304.01,-184.62"/>
<polygon fill="midnightblue" stroke="midnightblue" points="302.42,-187.77 312.67,-190.45 306.33,-181.96 302.42,-187.77"/>
</g>
<!-- Node5 -->
<g id="node5" class="node">
<title>Node5</title>
<g id="a_node5"><a xlink:href="../../d4/d18/composite__simpson__rule_8cpp.html#a6d50f1b8eb533b54721812d16a3699cc" target="_top" xlink:title="Another test function.">
<polygon fill="white" stroke="black" points="322,-0.5 322,-19.5 351,-19.5 351,-0.5 322,-0.5"/>
<text text-anchor="middle" x="336.5" y="-7.5" font-family="Helvetica,sans-Serif" font-size="10.00">k</text>
</a>
</g>
</g>
<!-- Node4&#45;&gt;Node5 -->
<g id="edge5" class="edge">
<title>Node4&#45;&gt;Node5</title>
<path fill="none" stroke="midnightblue" d="M223.27,-76.37C246.01,-62.93 287.37,-38.47 313.03,-23.29"/>
<polygon fill="midnightblue" stroke="midnightblue" points="314.88,-26.26 321.71,-18.16 311.32,-20.24 314.88,-26.26"/>
</g>
<!-- Node8 -->
<g id="node8" class="node">
<title>Node8</title>
<g id="a_node8"><a xlink:href="../../d0/d01/smallest__circle_8cpp.html#a3cbebd6f4d2cdf227663c67fe41ba12a" target="_top" xlink:title=" ">
<polygon fill="white" stroke="black" points="420.5,-114.5 420.5,-133.5 484.5,-133.5 484.5,-114.5 420.5,-114.5"/>
<text text-anchor="middle" x="452.5" y="-121.5" font-family="Helvetica,sans-Serif" font-size="10.00">LenghtLine</text>
</a>
</g>
</g>
<!-- Node4&#45;&gt;Node8 -->
<g id="edge8" class="edge">
<title>Node4&#45;&gt;Node8</title>
<path fill="none" stroke="midnightblue" d="M226.16,-90.36C244.9,-94.52 274.31,-100.77 300,-105 337.08,-111.1 379.56,-116.28 410.08,-119.67"/>
<polygon fill="midnightblue" stroke="midnightblue" points="410.03,-123.19 420.35,-120.8 410.79,-116.23 410.03,-123.19"/>
</g>
<!-- Node9 -->
<g id="node9" class="node">
<title>Node9</title>
<g id="a_node9"><a xlink:href="../../d0/d01/smallest__circle_8cpp.html#aee6d48762c1dfb9f14627927f0c16fad" target="_top" xlink:title=" ">
<polygon fill="white" stroke="black" points="300,-76.5 300,-95.5 373,-95.5 373,-76.5 300,-76.5"/>
<text text-anchor="middle" x="336.5" y="-83.5" font-family="Helvetica,sans-Serif" font-size="10.00">PointInCircle</text>
</a>
</g>
</g>
<!-- Node4&#45;&gt;Node9 -->
<g id="edge10" class="edge">
<title>Node4&#45;&gt;Node9</title>
<path fill="none" stroke="midnightblue" d="M226.24,-86C242.98,-86 267.92,-86 289.74,-86"/>
<polygon fill="midnightblue" stroke="midnightblue" points="289.83,-89.5 299.83,-86 289.83,-82.5 289.83,-89.5"/>
</g>
<!-- Node10 -->
<g id="node10" class="node">
<title>Node10</title>
<g id="a_node10"><a target="_blank" xlink:href="http://en.cppreference.com/w/cpp/container/vector/size.html#" xlink:title=" ">
<polygon fill="white" stroke="black" points="409,-76.5 409,-95.5 496,-95.5 496,-76.5 409,-76.5"/>
<text text-anchor="middle" x="452.5" y="-83.5" font-family="Helvetica,sans-Serif" font-size="10.00">std::vector::size</text>
</a>
</g>
</g>
<!-- Node4&#45;&gt;Node10 -->
<g id="edge13" class="edge">
<title>Node4&#45;&gt;Node10</title>
<path fill="none" stroke="midnightblue" d="M226.06,-80.93C244.74,-76.24 274.09,-69.62 300,-67 332.28,-63.74 340.78,-63.16 373,-67 385.06,-68.44 397.95,-71.08 409.72,-73.94"/>
<polygon fill="midnightblue" stroke="midnightblue" points="409.18,-77.42 419.73,-76.49 410.9,-70.63 409.18,-77.42"/>
</g>
<!-- Node11 -->
<g id="node11" class="node">
<title>Node11</title>
<g id="a_node11"><a xlink:href="../../d0/d01/smallest__circle_8cpp.html#a94682a4a70d5906857ca09de5b9fb2cc" target="_top" xlink:title=" ">
<polygon fill="white" stroke="black" points="301,-152.5 301,-171.5 372,-171.5 372,-152.5 301,-152.5"/>
<text text-anchor="middle" x="336.5" y="-159.5" font-family="Helvetica,sans-Serif" font-size="10.00">TriangleArea</text>
</a>
</g>
</g>
<!-- Node4&#45;&gt;Node11 -->
<g id="edge14" class="edge">
<title>Node4&#45;&gt;Node11</title>
<path fill="none" stroke="midnightblue" d="M226.08,-92.59C237.44,-96.87 251.96,-102.95 264,-110 281.49,-120.24 283.59,-126.09 300,-138 304,-140.91 308.32,-143.92 312.52,-146.79"/>
<polygon fill="midnightblue" stroke="midnightblue" points="310.59,-149.71 320.84,-152.41 314.51,-143.91 310.59,-149.71"/>
</g>
<!-- Node6 -->
<g id="node6" class="node">
<title>Node6</title>
<g id="a_node6"><a target="_blank" xlink:href="http://en.cppreference.com/w/cpp/numeric/math/pow.html#" xlink:title=" ">
<polygon fill="white" stroke="black" points="425.5,-38.5 425.5,-57.5 479.5,-57.5 479.5,-38.5 425.5,-38.5"/>
<text text-anchor="middle" x="452.5" y="-45.5" font-family="Helvetica,sans-Serif" font-size="10.00">std::pow</text>
</a>
</g>
</g>
<!-- Node5&#45;&gt;Node6 -->
<g id="edge6" class="edge">
<title>Node5&#45;&gt;Node6</title>
<path fill="none" stroke="midnightblue" d="M351.02,-14.51C366.88,-19.79 393.78,-28.76 415.76,-36.09"/>
<polygon fill="midnightblue" stroke="midnightblue" points="414.87,-39.48 425.46,-39.32 417.08,-32.84 414.87,-39.48"/>
</g>
<!-- Node7 -->
<g id="node7" class="node">
<title>Node7</title>
<g id="a_node7"><a target="_blank" xlink:href="http://en.cppreference.com/w/cpp/numeric/math/sqrt.html#" xlink:title=" ">
<polygon fill="white" stroke="black" points="532,-114.5 532,-133.5 585,-133.5 585,-114.5 532,-114.5"/>
<text text-anchor="middle" x="558.5" y="-121.5" font-family="Helvetica,sans-Serif" font-size="10.00">std::sqrt</text>
</a>
</g>
</g>
<!-- Node5&#45;&gt;Node7 -->
<g id="edge7" class="edge">
<title>Node5&#45;&gt;Node7</title>
<path fill="none" stroke="midnightblue" d="M351.05,-8.01C380.09,-4.47 449.44,0.05 496,-29 524.35,-46.69 542.17,-82.8 550.95,-105.05"/>
<polygon fill="midnightblue" stroke="midnightblue" points="547.68,-106.3 554.44,-114.45 554.24,-103.86 547.68,-106.3"/>
</g>
<!-- Node8&#45;&gt;Node7 -->
<g id="edge9" class="edge">
<title>Node8&#45;&gt;Node7</title>
<path fill="none" stroke="midnightblue" d="M484.7,-124C496.37,-124 509.7,-124 521.74,-124"/>
<polygon fill="midnightblue" stroke="midnightblue" points="521.91,-127.5 531.91,-124 521.91,-120.5 521.91,-127.5"/>
</g>
<!-- Node9&#45;&gt;Node8 -->
<g id="edge11" class="edge">
<title>Node9&#45;&gt;Node8</title>
<path fill="none" stroke="midnightblue" d="M366.27,-95.59C380.44,-100.31 397.74,-106.08 413.03,-111.18"/>
<polygon fill="midnightblue" stroke="midnightblue" points="412.15,-114.57 422.74,-114.41 414.36,-107.93 412.15,-114.57"/>
</g>
<!-- Node9&#45;&gt;Node10 -->
<g id="edge12" class="edge">
<title>Node9&#45;&gt;Node10</title>
<path fill="none" stroke="midnightblue" d="M373.26,-86C381.24,-86 389.88,-86 398.39,-86"/>
<polygon fill="midnightblue" stroke="midnightblue" points="398.67,-89.5 408.67,-86 398.67,-82.5 398.67,-89.5"/>
</g>
<!-- Node11&#45;&gt;Node7 -->
<g id="edge16" class="edge">
<title>Node11&#45;&gt;Node7</title>
<path fill="none" stroke="midnightblue" d="M372.11,-159.66C404.42,-157.05 453.85,-151.96 496,-143 504.56,-141.18 513.65,-138.69 522.13,-136.12"/>
<polygon fill="midnightblue" stroke="midnightblue" points="523.25,-139.44 531.74,-133.09 521.15,-132.76 523.25,-139.44"/>
</g>
<!-- Node11&#45;&gt;Node8 -->
<g id="edge15" class="edge">
<title>Node11&#45;&gt;Node8</title>
<path fill="none" stroke="midnightblue" d="M366.27,-152.41C380.44,-147.69 397.74,-141.92 413.03,-136.82"/>
<polygon fill="midnightblue" stroke="midnightblue" points="414.36,-140.07 422.74,-133.59 412.15,-133.43 414.36,-140.07"/>
</g>
<!-- Node13&#45;&gt;Node2 -->
<g id="edge21" class="edge">
<title>Node13&#45;&gt;Node2</title>
<path fill="none" stroke="midnightblue" d="M112.18,-169.61C122.51,-173.63 135.78,-178.27 148,-181 199.81,-192.57 261.26,-197.1 299.32,-198.88"/>
<polygon fill="midnightblue" stroke="midnightblue" points="299.27,-202.38 309.41,-199.31 299.57,-195.38 299.27,-202.38"/>
</g>
<!-- Node13&#45;&gt;Node4 -->
<g id="edge20" class="edge">
<title>Node13&#45;&gt;Node4</title>
<path fill="none" stroke="midnightblue" d="M108.06,-152.37C126.82,-139.53 160.28,-116.62 182.55,-101.37"/>
<polygon fill="midnightblue" stroke="midnightblue" points="184.78,-104.08 191.06,-95.55 180.83,-98.31 184.78,-104.08"/>
</g>
<!-- Node13&#45;&gt;Node12 -->
<g id="edge22" class="edge">
<title>Node13&#45;&gt;Node12</title>
<path fill="none" stroke="midnightblue" d="M112.33,-162C119.56,-162 128.36,-162 137.62,-162"/>
<polygon fill="midnightblue" stroke="midnightblue" points="137.79,-165.5 147.79,-162 137.79,-158.5 137.79,-165.5"/>
</g>
<!-- Node14&#45;&gt;Node2 -->
<g id="edge25" class="edge">
<title>Node14&#45;&gt;Node2</title>
<path fill="none" stroke="midnightblue" d="M112.26,-122.1C144.67,-119.56 213.62,-117.92 264,-143 284.83,-153.37 281.51,-166.89 300,-181 301.85,-182.41 303.82,-183.78 305.85,-185.09"/>
<polygon fill="midnightblue" stroke="midnightblue" points="304.51,-188.36 314.91,-190.42 308.06,-182.33 304.51,-188.36"/>
</g>
<!-- Node14&#45;&gt;Node4 -->
<g id="edge24" class="edge">
<title>Node14&#45;&gt;Node4</title>
<path fill="none" stroke="midnightblue" d="M112.33,-117.73C129.71,-111.77 156.1,-102.74 176.28,-95.83"/>
<polygon fill="midnightblue" stroke="midnightblue" points="177.57,-99.09 185.9,-92.54 175.3,-92.47 177.57,-99.09"/>
</g>
<!-- Node14&#45;&gt;Node12 -->
<g id="edge26" class="edge">
<title>Node14&#45;&gt;Node12</title>
<path fill="none" stroke="midnightblue" d="M112.33,-130.27C127.26,-135.39 148.83,-142.77 167.4,-149.13"/>
<polygon fill="midnightblue" stroke="midnightblue" points="166.47,-152.51 177.07,-152.44 168.74,-145.89 166.47,-152.51"/>
</g>
</g>
</svg>
