<?xml version="1.0" encoding="UTF-8" standalone="no"?>
<!DOCTYPE svg PUBLIC "-//W3C//DTD SVG 1.1//EN"
 "http://www.w3.org/Graphics/SVG/1.1/DTD/svg11.dtd">
<!-- Generated by graphviz version 5.0.0 (20220707.1540)
 -->
<!-- Title: circle Pages: 1 -->
<svg width="369pt" height="218pt"
 viewBox="0.00 0.00 369.00 218.00" xmlns="http://www.w3.org/2000/svg" xmlns:xlink="http://www.w3.org/1999/xlink">
<g id="graph0" class="graph" transform="scale(1 1) rotate(0) translate(4 214)">
<title>circle</title>
<polygon fill="white" stroke="transparent" points="-4,4 -4,-214 365,-214 365,4 -4,4"/>
<!-- Node1 -->
<g id="node1" class="node">
<title>Node1</title>
<g id="a_node1"><a xlink:title=" ">
<polygon fill="#bfbfbf" stroke="black" points="0,-95.5 0,-114.5 40,-114.5 40,-95.5 0,-95.5"/>
<text text-anchor="middle" x="20" y="-102.5" font-family="Helvetica,sans-Serif" font-size="10.00">circle</text>
</a>
</g>
</g>
<!-- Node2 -->
<g id="node2" class="node">
<title>Node2</title>
<g id="a_node2"><a target="_blank" xlink:href="http://en.cppreference.com/w/cpp/io/manip/endl.html#" xlink:title=" ">
<polygon fill="white" stroke="black" points="85.5,-190.5 85.5,-209.5 139.5,-209.5 139.5,-190.5 85.5,-190.5"/>
<text text-anchor="middle" x="112.5" y="-197.5" font-family="Helvetica,sans-Serif" font-size="10.00">std::endl</text>
</a>
</g>
</g>
<!-- Node1&#45;&gt;Node2 -->
<g id="edge1" class="edge">
<title>Node1&#45;&gt;Node2</title>
<path fill="none" stroke="midnightblue" d="M26.25,-114.98C34.89,-130.65 53.43,-161.29 76,-181 77.54,-182.34 79.19,-183.63 80.91,-184.85"/>
<polygon fill="midnightblue" stroke="midnightblue" points="79.5,-188.1 89.84,-190.42 83.2,-182.16 79.5,-188.1"/>
</g>
<!-- Node3 -->
<g id="node3" class="node">
<title>Node3</title>
<g id="a_node3"><a xlink:href="../../d4/d18/composite__simpson__rule_8cpp.html#a6d50f1b8eb533b54721812d16a3699cc" target="_top" xlink:title="Another test function.">
<polygon fill="white" stroke="black" points="98,-0.5 98,-19.5 127,-19.5 127,-0.5 98,-0.5"/>
<text text-anchor="middle" x="112.5" y="-7.5" font-family="Helvetica,sans-Serif" font-size="10.00">k</text>
</a>
</g>
</g>
<!-- Node1&#45;&gt;Node3 -->
<g id="edge2" class="edge">
<title>Node1&#45;&gt;Node3</title>
<path fill="none" stroke="midnightblue" d="M26.94,-95.5C36.23,-81.11 55.3,-53.41 76,-34 80.04,-30.22 84.72,-26.61 89.34,-23.39"/>
<polygon fill="midnightblue" stroke="midnightblue" points="91.51,-26.15 97.95,-17.74 87.66,-20.3 91.51,-26.15"/>
</g>
<!-- Node6 -->
<g id="node6" class="node">
<title>Node6</title>
<g id="a_node6"><a xlink:href="../../d0/d01/smallest__circle_8cpp.html#a3cbebd6f4d2cdf227663c67fe41ba12a" target="_top" xlink:title=" ">
<polygon fill="white" stroke="black" points="196.5,-114.5 196.5,-133.5 260.5,-133.5 260.5,-114.5 196.5,-114.5"/>
<text text-anchor="middle" x="228.5" y="-121.5" font-family="Helvetica,sans-Serif" font-size="10.00">LenghtLine</text>
</a>
</g>
</g>
<!-- Node1&#45;&gt;Node6 -->
<g id="edge5" class="edge">
<title>Node1&#45;&gt;Node6</title>
<path fill="none" stroke="midnightblue" d="M40.06,-106.75C73.06,-109.79 141.56,-116.09 185.98,-120.18"/>
<polygon fill="midnightblue" stroke="midnightblue" points="185.89,-123.69 196.17,-121.12 186.53,-116.72 185.89,-123.69"/>
</g>
<!-- Node7 -->
<g id="node7" class="node">
<title>Node7</title>
<g id="a_node7"><a xlink:href="../../d0/d01/smallest__circle_8cpp.html#aee6d48762c1dfb9f14627927f0c16fad" target="_top" xlink:title=" ">
<polygon fill="white" stroke="black" points="76,-76.5 76,-95.5 149,-95.5 149,-76.5 76,-76.5"/>
<text text-anchor="middle" x="112.5" y="-83.5" font-family="Helvetica,sans-Serif" font-size="10.00">PointInCircle</text>
</a>
</g>
</g>
<!-- Node1&#45;&gt;Node7 -->
<g id="edge7" class="edge">
<title>Node1&#45;&gt;Node7</title>
<path fill="none" stroke="midnightblue" d="M40.19,-100.97C47.81,-99.37 56.93,-97.46 66.06,-95.54"/>
<polygon fill="midnightblue" stroke="midnightblue" points="66.83,-98.96 75.89,-93.48 65.39,-92.1 66.83,-98.96"/>
</g>
<!-- Node8 -->
<g id="node8" class="node">
<title>Node8</title>
<g id="a_node8"><a target="_blank" xlink:href="http://en.cppreference.com/w/cpp/container/vector/size.html#" xlink:title=" ">
<polygon fill="white" stroke="black" points="185,-76.5 185,-95.5 272,-95.5 272,-76.5 185,-76.5"/>
<text text-anchor="middle" x="228.5" y="-83.5" font-family="Helvetica,sans-Serif" font-size="10.00">std::vector::size</text>
</a>
</g>
</g>
<!-- Node1&#45;&gt;Node8 -->
<g id="edge10" class="edge">
<title>Node1&#45;&gt;Node8</title>
<path fill="none" stroke="midnightblue" d="M30.92,-95.31C41.22,-85.99 58.27,-72.53 76,-67 114.82,-54.89 161.51,-64.12 192.71,-73.46"/>
<polygon fill="midnightblue" stroke="midnightblue" points="191.67,-76.8 202.26,-76.47 193.77,-70.12 191.67,-76.8"/>
</g>
<!-- Node9 -->
<g id="node9" class="node">
<title>Node9</title>
<g id="a_node9"><a xlink:href="../../d0/d01/smallest__circle_8cpp.html#a94682a4a70d5906857ca09de5b9fb2cc" target="_top" xlink:title=" ">
<polygon fill="white" stroke="black" points="77,-152.5 77,-171.5 148,-171.5 148,-152.5 77,-152.5"/>
<text text-anchor="middle" x="112.5" y="-159.5" font-family="Helvetica,sans-Serif" font-size="10.00">TriangleArea</text>
</a>
</g>
</g>
<!-- Node1&#45;&gt;Node9 -->
<g id="edge11" class="edge">
<title>Node1&#45;&gt;Node9</title>
<path fill="none" stroke="midnightblue" d="M36.35,-114.67C50.35,-123.48 71.25,-136.65 87.46,-146.86"/>
<polygon fill="midnightblue" stroke="midnightblue" points="86.05,-150.11 96.37,-152.47 89.78,-144.18 86.05,-150.11"/>
</g>
<!-- Node4 -->
<g id="node4" class="node">
<title>Node4</title>
<g id="a_node4"><a target="_blank" xlink:href="http://en.cppreference.com/w/cpp/numeric/math/pow.html#" xlink:title=" ">
<polygon fill="white" stroke="black" points="201.5,-38.5 201.5,-57.5 255.5,-57.5 255.5,-38.5 201.5,-38.5"/>
<text text-anchor="middle" x="228.5" y="-45.5" font-family="Helvetica,sans-Serif" font-size="10.00">std::pow</text>
</a>
</g>
</g>
<!-- Node3&#45;&gt;Node4 -->
<g id="edge3" class="edge">
<title>Node3&#45;&gt;Node4</title>
<path fill="none" stroke="midnightblue" d="M127.02,-14.51C142.88,-19.79 169.78,-28.76 191.76,-36.09"/>
<polygon fill="midnightblue" stroke="midnightblue" points="190.87,-39.48 201.46,-39.32 193.08,-32.84 190.87,-39.48"/>
</g>
<!-- Node5 -->
<g id="node5" class="node">
<title>Node5</title>
<g id="a_node5"><a target="_blank" xlink:href="http://en.cppreference.com/w/cpp/numeric/math/sqrt.html#" xlink:title=" ">
<polygon fill="white" stroke="black" points="308,-114.5 308,-133.5 361,-133.5 361,-114.5 308,-114.5"/>
<text text-anchor="middle" x="334.5" y="-121.5" font-family="Helvetica,sans-Serif" font-size="10.00">std::sqrt</text>
</a>
</g>
</g>
<!-- Node3&#45;&gt;Node5 -->
<g id="edge4" class="edge">
<title>Node3&#45;&gt;Node5</title>
<path fill="none" stroke="midnightblue" d="M127.05,-8.01C156.09,-4.47 225.44,0.05 272,-29 300.35,-46.69 318.17,-82.8 326.95,-105.05"/>
<polygon fill="midnightblue" stroke="midnightblue" points="323.68,-106.3 330.44,-114.45 330.24,-103.86 323.68,-106.3"/>
</g>
<!-- Node6&#45;&gt;Node5 -->
<g id="edge6" class="edge">
<title>Node6&#45;&gt;Node5</title>
<path fill="none" stroke="midnightblue" d="M260.7,-124C272.37,-124 285.7,-124 297.74,-124"/>
<polygon fill="midnightblue" stroke="midnightblue" points="297.91,-127.5 307.91,-124 297.91,-120.5 297.91,-127.5"/>
</g>
<!-- Node7&#45;&gt;Node6 -->
<g id="edge8" class="edge">
<title>Node7&#45;&gt;Node6</title>
<path fill="none" stroke="midnightblue" d="M142.27,-95.59C156.44,-100.31 173.74,-106.08 189.03,-111.18"/>
<polygon fill="midnightblue" stroke="midnightblue" points="188.15,-114.57 198.74,-114.41 190.36,-107.93 188.15,-114.57"/>
</g>
<!-- Node7&#45;&gt;Node8 -->
<g id="edge9" class="edge">
<title>Node7&#45;&gt;Node8</title>
<path fill="none" stroke="midnightblue" d="M149.26,-86C157.24,-86 165.88,-86 174.39,-86"/>
<polygon fill="midnightblue" stroke="midnightblue" points="174.67,-89.5 184.67,-86 174.67,-82.5 174.67,-89.5"/>
</g>
<!-- Node9&#45;&gt;Node5 -->
<g id="edge13" class="edge">
<title>Node9&#45;&gt;Node5</title>
<path fill="none" stroke="midnightblue" d="M148.11,-159.66C180.42,-157.05 229.85,-151.96 272,-143 280.56,-141.18 289.65,-138.69 298.13,-136.12"/>
<polygon fill="midnightblue" stroke="midnightblue" points="299.25,-139.44 307.74,-133.09 297.15,-132.76 299.25,-139.44"/>
</g>
<!-- Node9&#45;&gt;Node6 -->
<g id="edge12" class="edge">
<title>Node9&#45;&gt;Node6</title>
<path fill="none" stroke="midnightblue" d="M142.27,-152.41C156.44,-147.69 173.74,-141.92 189.03,-136.82"/>
<polygon fill="midnightblue" stroke="midnightblue" points="190.36,-140.07 198.74,-133.59 188.15,-133.43 190.36,-140.07"/>
</g>
</g>
</svg>
