<?xml version="1.0" encoding="UTF-8" standalone="no"?>
<!DOCTYPE svg PUBLIC "-//W3C//DTD SVG 1.1//EN"
 "http://www.w3.org/Graphics/SVG/1.1/DTD/svg11.dtd">
<!-- Generated by graphviz version 5.0.0 (20220707.1540)
 -->
<!-- Title: uint256_t::operator%= Pages: 1 -->
<svg width="627pt" height="28pt"
 viewBox="0.00 0.00 627.00 28.00" xmlns="http://www.w3.org/2000/svg" xmlns:xlink="http://www.w3.org/1999/xlink">
<g id="graph0" class="graph" transform="scale(1 1) rotate(0) translate(4 24)">
<title>uint256_t::operator%=</title>
<polygon fill="white" stroke="transparent" points="-4,4 -4,-24 623,-24 623,4 -4,4"/>
<!-- Node1 -->
<g id="node1" class="node">
<title>Node1</title>
<g id="a_node1"><a xlink:title="operator %= for uint256_t">
<polygon fill="#bfbfbf" stroke="black" points="0,-0.5 0,-19.5 113,-19.5 113,-0.5 0,-0.5"/>
<text text-anchor="middle" x="56.5" y="-7.5" font-family="Helvetica,sans-Serif" font-size="10.00">uint256_t::operator%=</text>
</a>
</g>
</g>
<!-- Node2 -->
<g id="node2" class="node">
<title>Node2</title>
<g id="a_node2"><a xlink:href="../../d1/d83/classuint256__t.html#a8161d52d369e525f4e61129376adfcf1" target="_top" xlink:title="divide function for uint256_t and other integer types.">
<polygon fill="white" stroke="black" points="149,-0.5 149,-19.5 237,-19.5 237,-0.5 149,-0.5"/>
<text text-anchor="middle" x="193" y="-7.5" font-family="Helvetica,sans-Serif" font-size="10.00">uint256_t::divide</text>
</a>
</g>
</g>
<!-- Node1&#45;&gt;Node2 -->
<g id="edge1" class="edge">
<title>Node1&#45;&gt;Node2</title>
<path fill="none" stroke="midnightblue" d="M113.37,-10C121.79,-10 130.45,-10 138.8,-10"/>
<polygon fill="midnightblue" stroke="midnightblue" points="138.81,-13.5 148.81,-10 138.81,-6.5 138.81,-13.5"/>
</g>
<!-- Node3 -->
<g id="node3" class="node">
<title>Node3</title>
<g id="a_node3"><a xlink:href="../../d1/d83/classuint256__t.html#a033d66c965e8d1fbc5bafb59ad60e163" target="_top" xlink:title="Leading zeroes in binary.">
<polygon fill="white" stroke="black" points="273,-0.5 273,-19.5 353,-19.5 353,-0.5 273,-0.5"/>
<text text-anchor="middle" x="313" y="-7.5" font-family="Helvetica,sans-Serif" font-size="10.00">uint256_t::_lez</text>
</a>
</g>
</g>
<!-- Node2&#45;&gt;Node3 -->
<g id="edge2" class="edge">
<title>Node2&#45;&gt;Node3</title>
<path fill="none" stroke="midnightblue" d="M237.27,-10C245.5,-10 254.17,-10 262.57,-10"/>
<polygon fill="midnightblue" stroke="midnightblue" points="262.65,-13.5 272.65,-10 262.65,-6.5 262.65,-13.5"/>
</g>
<!-- Node4 -->
<g id="node4" class="node">
<title>Node4</title>
<g id="a_node4"><a xlink:href="../../db/d9a/classuint128__t.html#af139bb6e630f1a61919f180978611cd2" target="_top" xlink:title="Leading zeroes in binary.">
<polygon fill="white" stroke="black" points="389,-0.5 389,-19.5 469,-19.5 469,-0.5 389,-0.5"/>
<text text-anchor="middle" x="429" y="-7.5" font-family="Helvetica,sans-Serif" font-size="10.00">uint128_t::_lez</text>
</a>
</g>
</g>
<!-- Node3&#45;&gt;Node4 -->
<g id="edge3" class="edge">
<title>Node3&#45;&gt;Node4</title>
<path fill="none" stroke="midnightblue" d="M353.23,-10C361.38,-10 370.07,-10 378.54,-10"/>
<polygon fill="midnightblue" stroke="midnightblue" points="378.7,-13.5 388.7,-10 378.7,-6.5 378.7,-13.5"/>
</g>
<!-- Node5 -->
<g id="node5" class="node">
<title>Node5</title>
<g id="a_node5"><a xlink:href="../../d4/d18/composite__simpson__rule_8cpp.html#a995716bc040dc6cf32b5cb3df51c4529" target="_top" xlink:title="Another test function.">
<polygon fill="white" stroke="black" points="505,-0.5 505,-19.5 534,-19.5 534,-0.5 505,-0.5"/>
<text text-anchor="middle" x="519.5" y="-7.5" font-family="Helvetica,sans-Serif" font-size="10.00">l</text>
</a>
</g>
</g>
<!-- Node4&#45;&gt;Node5 -->
<g id="edge4" class="edge">
<title>Node4&#45;&gt;Node5</title>
<path fill="none" stroke="midnightblue" d="M469.08,-10C477.76,-10 486.72,-10 494.58,-10"/>
<polygon fill="midnightblue" stroke="midnightblue" points="494.82,-13.5 504.82,-10 494.82,-6.5 494.82,-13.5"/>
</g>
<!-- Node6 -->
<g id="node6" class="node">
<title>Node6</title>
<g id="a_node6"><a target="_blank" xlink:href="http://en.cppreference.com/w/cpp/numeric/math/log.html#" xlink:title=" ">
<polygon fill="white" stroke="black" points="570,-0.5 570,-19.5 619,-19.5 619,-0.5 570,-0.5"/>
<text text-anchor="middle" x="594.5" y="-7.5" font-family="Helvetica,sans-Serif" font-size="10.00">std::log</text>
</a>
</g>
</g>
<!-- Node5&#45;&gt;Node6 -->
<g id="edge5" class="edge">
<title>Node5&#45;&gt;Node6</title>
<path fill="none" stroke="midnightblue" d="M534.23,-10C541.41,-10 550.56,-10 559.5,-10"/>
<polygon fill="midnightblue" stroke="midnightblue" points="559.78,-13.5 569.78,-10 559.78,-6.5 559.78,-13.5"/>
</g>
</g>
</svg>
