<?xml version="1.0" encoding="UTF-8" standalone="no"?>
<!DOCTYPE svg PUBLIC "-//W3C//DTD SVG 1.1//EN"
 "http://www.w3.org/Graphics/SVG/1.1/DTD/svg11.dtd">
<!-- Generated by graphviz version 5.0.0 (20220707.1540)
 -->
<!-- Title: test1 Pages: 1 -->
<svg width="333pt" height="104pt"
 viewBox="0.00 0.00 333.00 104.00" xmlns="http://www.w3.org/2000/svg" xmlns:xlink="http://www.w3.org/1999/xlink">
<g id="graph0" class="graph" transform="scale(1 1) rotate(0) translate(4 100)">
<title>test1</title>
<polygon fill="white" stroke="transparent" points="-4,4 -4,-100 329,-100 329,4 -4,4"/>
<!-- Node1 -->
<g id="node1" class="node">
<title>Node1</title>
<g id="a_node1"><a xlink:title="Test function to find root for the function &#160;in the interval &#160;&#160;&#160;Expected result = 2.">
<polygon fill="#bfbfbf" stroke="black" points="0,-38.5 0,-57.5 38,-57.5 38,-38.5 0,-38.5"/>
<text text-anchor="middle" x="19" y="-45.5" font-family="Helvetica,sans-Serif" font-size="10.00">test1</text>
</a>
</g>
</g>
<!-- Node2 -->
<g id="node2" class="node">
<title>Node2</title>
<g id="a_node2"><a xlink:href="../../db/d01/brent__method__extrema_8cpp.html#a1aa76a6d5fd4d333f9072beff1dc486b" target="_top" xlink:title="Get the real root of a function in the given interval.">
<polygon fill="white" stroke="black" points="74,-38.5 74,-57.5 141,-57.5 141,-38.5 74,-38.5"/>
<text text-anchor="middle" x="107.5" y="-45.5" font-family="Helvetica,sans-Serif" font-size="10.00">get_minima</text>
</a>
</g>
</g>
<!-- Node1&#45;&gt;Node2 -->
<g id="edge1" class="edge">
<title>Node1&#45;&gt;Node2</title>
<path fill="none" stroke="midnightblue" d="M38.34,-48C45.84,-48 54.85,-48 63.82,-48"/>
<polygon fill="midnightblue" stroke="midnightblue" points="63.86,-51.5 73.86,-48 63.86,-44.5 63.86,-51.5"/>
</g>
<!-- Node3 -->
<g id="node3" class="node">
<title>Node3</title>
<g id="a_node3"><a xlink:href="../../d4/d18/composite__simpson__rule_8cpp.html#a3de2b7b41a8e4b07da05298510d17ed2" target="_top" xlink:title="A function f(x) that will be used to test the method.">
<polygon fill="white" stroke="black" points="192,-76.5 192,-95.5 221,-95.5 221,-76.5 192,-76.5"/>
<text text-anchor="middle" x="206.5" y="-83.5" font-family="Helvetica,sans-Serif" font-size="10.00">f</text>
</a>
</g>
</g>
<!-- Node2&#45;&gt;Node3 -->
<g id="edge2" class="edge">
<title>Node2&#45;&gt;Node3</title>
<path fill="none" stroke="midnightblue" d="M132.98,-57.59C148.12,-63.52 167.43,-71.09 182.32,-76.92"/>
<polygon fill="midnightblue" stroke="midnightblue" points="181.23,-80.25 191.82,-80.64 183.79,-73.73 181.23,-80.25"/>
</g>
<!-- Node5 -->
<g id="node5" class="node">
<title>Node5</title>
<g id="a_node5"><a target="_blank" xlink:href="http://en.cppreference.com/w/cpp/numeric/math/sqrt.html#" xlink:title=" ">
<polygon fill="white" stroke="black" points="272,-38.5 272,-57.5 325,-57.5 325,-38.5 272,-38.5"/>
<text text-anchor="middle" x="298.5" y="-45.5" font-family="Helvetica,sans-Serif" font-size="10.00">std::sqrt</text>
</a>
</g>
</g>
<!-- Node2&#45;&gt;Node5 -->
<g id="edge5" class="edge">
<title>Node2&#45;&gt;Node5</title>
<path fill="none" stroke="midnightblue" d="M141.42,-48C175.06,-48 227.15,-48 261.77,-48"/>
<polygon fill="midnightblue" stroke="midnightblue" points="261.92,-51.5 271.92,-48 261.92,-44.5 261.92,-51.5"/>
</g>
<!-- Node6 -->
<g id="node6" class="node">
<title>Node6</title>
<g id="a_node6"><a target="_blank" xlink:href="http://en.cppreference.com/w/cpp/algorithm/swap.html#" xlink:title=" ">
<polygon fill="white" stroke="black" points="177,-0.5 177,-19.5 236,-19.5 236,-0.5 177,-0.5"/>
<text text-anchor="middle" x="206.5" y="-7.5" font-family="Helvetica,sans-Serif" font-size="10.00">std::swap</text>
</a>
</g>
</g>
<!-- Node2&#45;&gt;Node6 -->
<g id="edge6" class="edge">
<title>Node2&#45;&gt;Node6</title>
<path fill="none" stroke="midnightblue" d="M132.98,-38.41C144.69,-33.82 158.92,-28.25 171.65,-23.26"/>
<polygon fill="midnightblue" stroke="midnightblue" points="173,-26.49 181.03,-19.59 170.44,-19.97 173,-26.49"/>
</g>
<!-- Node4 -->
<g id="node4" class="node">
<title>Node4</title>
<g id="a_node4"><a target="_blank" xlink:href="http://en.cppreference.com/w/cpp/numeric/math/log.html#" xlink:title=" ">
<polygon fill="white" stroke="black" points="274,-76.5 274,-95.5 323,-95.5 323,-76.5 274,-76.5"/>
<text text-anchor="middle" x="298.5" y="-83.5" font-family="Helvetica,sans-Serif" font-size="10.00">std::log</text>
</a>
</g>
</g>
<!-- Node3&#45;&gt;Node4 -->
<g id="edge3" class="edge">
<title>Node3&#45;&gt;Node4</title>
<path fill="none" stroke="midnightblue" d="M221.17,-86C232.41,-86 248.82,-86 263.55,-86"/>
<polygon fill="midnightblue" stroke="midnightblue" points="263.88,-89.5 273.88,-86 263.88,-82.5 263.88,-89.5"/>
</g>
<!-- Node3&#45;&gt;Node5 -->
<g id="edge4" class="edge">
<title>Node3&#45;&gt;Node5</title>
<path fill="none" stroke="midnightblue" d="M221.17,-80.23C232.87,-75.29 250.17,-67.98 265.35,-61.57"/>
<polygon fill="midnightblue" stroke="midnightblue" points="267.09,-64.64 274.94,-57.53 264.36,-58.19 267.09,-64.64"/>
</g>
</g>
</svg>
