<?xml version="1.0" encoding="UTF-8" standalone="no"?>
<!DOCTYPE svg PUBLIC "-//W3C//DTD SVG 1.1//EN"
 "http://www.w3.org/Graphics/SVG/1.1/DTD/svg11.dtd">
<!-- Generated by graphviz version 5.0.0 (20220707.1540)
 -->
<!-- Title: math::ncr_modulo_p::NCRModuloP::modInverse Pages: 1 -->
<svg width="420pt" height="122pt"
 viewBox="0.00 0.00 420.00 121.50" xmlns="http://www.w3.org/2000/svg" xmlns:xlink="http://www.w3.org/1999/xlink">
<g id="graph0" class="graph" transform="scale(1 1) rotate(0) translate(4 117.5)">
<title>math::ncr_modulo_p::NCRModuloP::modInverse</title>
<polygon fill="white" stroke="transparent" points="-4,4 -4,-117.5 416,-117.5 416,4 -4,4"/>
<!-- Node1 -->
<g id="node1" class="node">
<title>Node1</title>
<g id="a_node1"><a xlink:title=" ">
<polygon fill="#bfbfbf" stroke="black" points="0,-31.5 0,-61.5 140,-61.5 140,-31.5 0,-31.5"/>
<text text-anchor="start" x="8" y="-49.5" font-family="Helvetica,sans-Serif" font-size="10.00">math::ncr_modulo_p</text>
<text text-anchor="middle" x="70" y="-38.5" font-family="Helvetica,sans-Serif" font-size="10.00">::NCRModuloP::modInverse</text>
</a>
</g>
</g>
<!-- Node2 -->
<g id="node2" class="node">
<title>Node2</title>
<g id="a_node2"><a xlink:href="../../d4/d18/composite__simpson__rule_8cpp.html#ac84831571c8f3d0bca83c1747a32e8d6" target="_top" xlink:title="Another test function.">
<polygon fill="white" stroke="black" points="234.5,-68 234.5,-87 263.5,-87 263.5,-68 234.5,-68"/>
<text text-anchor="middle" x="249" y="-75" font-family="Helvetica,sans-Serif" font-size="10.00">g</text>
</a>
</g>
</g>
<!-- Node1&#45;&gt;Node2 -->
<g id="edge1" class="edge">
<title>Node1&#45;&gt;Node2</title>
<path fill="none" stroke="midnightblue" d="M140.19,-58.62C170.05,-63.85 203,-69.62 224.51,-73.39"/>
<polygon fill="midnightblue" stroke="midnightblue" points="223.91,-76.83 234.37,-75.11 225.12,-69.94 223.91,-76.83"/>
</g>
<!-- Node5 -->
<g id="node5" class="node">
<title>Node5</title>
<g id="a_node5"><a xlink:href="../../d6/dc1/classmath_1_1ncr__modulo__p_1_1_n_c_r_modulo_p.html#afde201f4687740454302c444f507a926" target="_top" xlink:title=" ">
<polygon fill="white" stroke="black" points="176,-0.5 176,-30.5 322,-30.5 322,-0.5 176,-0.5"/>
<text text-anchor="start" x="184" y="-18.5" font-family="Helvetica,sans-Serif" font-size="10.00">math::ncr_modulo_p</text>
<text text-anchor="middle" x="249" y="-7.5" font-family="Helvetica,sans-Serif" font-size="10.00">::NCRModuloP::gcdExtended</text>
</a>
</g>
</g>
<!-- Node1&#45;&gt;Node5 -->
<g id="edge4" class="edge">
<title>Node1&#45;&gt;Node5</title>
<path fill="none" stroke="midnightblue" d="M140.19,-34.38C148.63,-32.9 157.3,-31.38 165.9,-29.88"/>
<polygon fill="midnightblue" stroke="midnightblue" points="166.69,-33.29 175.94,-28.12 165.48,-26.4 166.69,-33.29"/>
</g>
<!-- Node3 -->
<g id="node3" class="node">
<title>Node3</title>
<g id="a_node3"><a target="_blank" xlink:href="http://en.cppreference.com/w/cpp/numeric/math/exp.html#" xlink:title=" ">
<polygon fill="white" stroke="black" points="359,-94 359,-113 411,-113 411,-94 359,-94"/>
<text text-anchor="middle" x="385" y="-101" font-family="Helvetica,sans-Serif" font-size="10.00">std::exp</text>
</a>
</g>
</g>
<!-- Node2&#45;&gt;Node3 -->
<g id="edge2" class="edge">
<title>Node2&#45;&gt;Node3</title>
<path fill="none" stroke="midnightblue" d="M263.84,-80.18C283.7,-84.04 320.96,-91.27 348.75,-96.66"/>
<polygon fill="midnightblue" stroke="midnightblue" points="348.39,-100.16 358.88,-98.63 349.73,-93.28 348.39,-100.16"/>
</g>
<!-- Node4 -->
<g id="node4" class="node">
<title>Node4</title>
<g id="a_node4"><a target="_blank" xlink:href="http://en.cppreference.com/w/cpp/numeric/math/pow.html#" xlink:title=" ">
<polygon fill="white" stroke="black" points="358,-56 358,-75 412,-75 412,-56 358,-56"/>
<text text-anchor="middle" x="385" y="-63" font-family="Helvetica,sans-Serif" font-size="10.00">std::pow</text>
</a>
</g>
</g>
<!-- Node2&#45;&gt;Node4 -->
<g id="edge3" class="edge">
<title>Node2&#45;&gt;Node4</title>
<path fill="none" stroke="midnightblue" d="M263.84,-76.26C283.46,-74.5 320.07,-71.22 347.75,-68.75"/>
<polygon fill="midnightblue" stroke="midnightblue" points="348.22,-72.22 357.86,-67.84 347.59,-65.25 348.22,-72.22"/>
</g>
<!-- Node5&#45;&gt;Node5 -->
<g id="edge6" class="edge">
<title>Node5&#45;&gt;Node5</title>
<path fill="none" stroke="midnightblue" d="M225.3,-30.66C219.58,-40.06 227.48,-49 249,-49 262.11,-49 270.17,-45.68 273.17,-40.96"/>
<polygon fill="midnightblue" stroke="midnightblue" points="276.65,-40.49 272.7,-30.66 269.66,-40.81 276.65,-40.49"/>
</g>
<!-- Node6 -->
<g id="node6" class="node">
<title>Node6</title>
<g id="a_node6"><a xlink:href="../../d4/da0/gcd__iterative__euclidean_8cpp.html#ae48807fa2b7000afae599e67f327545e" target="_top" xlink:title=" ">
<polygon fill="white" stroke="black" points="369,-6 369,-25 401,-25 401,-6 369,-6"/>
<text text-anchor="middle" x="385" y="-13" font-family="Helvetica,sans-Serif" font-size="10.00">gcd</text>
</a>
</g>
</g>
<!-- Node5&#45;&gt;Node6 -->
<g id="edge5" class="edge">
<title>Node5&#45;&gt;Node6</title>
<path fill="none" stroke="midnightblue" d="M322.1,-15.5C335.25,-15.5 348.13,-15.5 358.71,-15.5"/>
<polygon fill="midnightblue" stroke="midnightblue" points="358.82,-19 368.82,-15.5 358.82,-12 358.82,-19"/>
</g>
</g>
</svg>
