<?xml version="1.0" encoding="UTF-8" standalone="no"?>
<!DOCTYPE svg PUBLIC "-//W3C//DTD SVG 1.1//EN"
 "http://www.w3.org/Graphics/SVG/1.1/DTD/svg11.dtd">
<!-- Generated by graphviz version 5.0.0 (20220707.1540)
 -->
<!-- Title: math::ncr_modulo_p::NCRModuloP::ncr Pages: 1 -->
<svg width="561pt" height="122pt"
 viewBox="0.00 0.00 561.00 121.50" xmlns="http://www.w3.org/2000/svg" xmlns:xlink="http://www.w3.org/1999/xlink">
<g id="graph0" class="graph" transform="scale(1 1) rotate(0) translate(4 117.5)">
<title>math::ncr_modulo_p::NCRModuloP::ncr</title>
<polygon fill="white" stroke="transparent" points="-4,4 -4,-117.5 557,-117.5 557,4 -4,4"/>
<!-- Node1 -->
<g id="node1" class="node">
<title>Node1</title>
<g id="a_node1"><a xlink:title=" ">
<polygon fill="#bfbfbf" stroke="black" points="0,-31.5 0,-61.5 105,-61.5 105,-31.5 0,-31.5"/>
<text text-anchor="start" x="8" y="-49.5" font-family="Helvetica,sans-Serif" font-size="10.00">math::ncr_modulo_p</text>
<text text-anchor="middle" x="52.5" y="-38.5" font-family="Helvetica,sans-Serif" font-size="10.00">::NCRModuloP::ncr</text>
</a>
</g>
</g>
<!-- Node2 -->
<g id="node2" class="node">
<title>Node2</title>
<g id="a_node2"><a xlink:href="../../d6/dc1/classmath_1_1ncr__modulo__p_1_1_n_c_r_modulo_p.html#a0431ec5c876e1154d8e1e5f89e1ab34a" target="_top" xlink:title=" ">
<polygon fill="white" stroke="black" points="141,-31.5 141,-61.5 281,-61.5 281,-31.5 141,-31.5"/>
<text text-anchor="start" x="149" y="-49.5" font-family="Helvetica,sans-Serif" font-size="10.00">math::ncr_modulo_p</text>
<text text-anchor="middle" x="211" y="-38.5" font-family="Helvetica,sans-Serif" font-size="10.00">::NCRModuloP::modInverse</text>
</a>
</g>
</g>
<!-- Node1&#45;&gt;Node2 -->
<g id="edge1" class="edge">
<title>Node1&#45;&gt;Node2</title>
<path fill="none" stroke="midnightblue" d="M105.18,-46.5C113.37,-46.5 122,-46.5 130.65,-46.5"/>
<polygon fill="midnightblue" stroke="midnightblue" points="130.79,-50 140.79,-46.5 130.79,-43 130.79,-50"/>
</g>
<!-- Node3 -->
<g id="node3" class="node">
<title>Node3</title>
<g id="a_node3"><a xlink:href="../../d4/d18/composite__simpson__rule_8cpp.html#ac84831571c8f3d0bca83c1747a32e8d6" target="_top" xlink:title="Another test function.">
<polygon fill="white" stroke="black" points="375.5,-68 375.5,-87 404.5,-87 404.5,-68 375.5,-68"/>
<text text-anchor="middle" x="390" y="-75" font-family="Helvetica,sans-Serif" font-size="10.00">g</text>
</a>
</g>
</g>
<!-- Node2&#45;&gt;Node3 -->
<g id="edge2" class="edge">
<title>Node2&#45;&gt;Node3</title>
<path fill="none" stroke="midnightblue" d="M281.19,-58.62C311.05,-63.85 344,-69.62 365.51,-73.39"/>
<polygon fill="midnightblue" stroke="midnightblue" points="364.91,-76.83 375.37,-75.11 366.12,-69.94 364.91,-76.83"/>
</g>
<!-- Node6 -->
<g id="node6" class="node">
<title>Node6</title>
<g id="a_node6"><a xlink:href="../../d6/dc1/classmath_1_1ncr__modulo__p_1_1_n_c_r_modulo_p.html#afde201f4687740454302c444f507a926" target="_top" xlink:title=" ">
<polygon fill="white" stroke="black" points="317,-0.5 317,-30.5 463,-30.5 463,-0.5 317,-0.5"/>
<text text-anchor="start" x="325" y="-18.5" font-family="Helvetica,sans-Serif" font-size="10.00">math::ncr_modulo_p</text>
<text text-anchor="middle" x="390" y="-7.5" font-family="Helvetica,sans-Serif" font-size="10.00">::NCRModuloP::gcdExtended</text>
</a>
</g>
</g>
<!-- Node2&#45;&gt;Node6 -->
<g id="edge5" class="edge">
<title>Node2&#45;&gt;Node6</title>
<path fill="none" stroke="midnightblue" d="M281.19,-34.38C289.63,-32.9 298.3,-31.38 306.9,-29.88"/>
<polygon fill="midnightblue" stroke="midnightblue" points="307.69,-33.29 316.94,-28.12 306.48,-26.4 307.69,-33.29"/>
</g>
<!-- Node4 -->
<g id="node4" class="node">
<title>Node4</title>
<g id="a_node4"><a target="_blank" xlink:href="http://en.cppreference.com/w/cpp/numeric/math/exp.html#" xlink:title=" ">
<polygon fill="white" stroke="black" points="500,-94 500,-113 552,-113 552,-94 500,-94"/>
<text text-anchor="middle" x="526" y="-101" font-family="Helvetica,sans-Serif" font-size="10.00">std::exp</text>
</a>
</g>
</g>
<!-- Node3&#45;&gt;Node4 -->
<g id="edge3" class="edge">
<title>Node3&#45;&gt;Node4</title>
<path fill="none" stroke="midnightblue" d="M404.84,-80.18C424.7,-84.04 461.96,-91.27 489.75,-96.66"/>
<polygon fill="midnightblue" stroke="midnightblue" points="489.39,-100.16 499.88,-98.63 490.73,-93.28 489.39,-100.16"/>
</g>
<!-- Node5 -->
<g id="node5" class="node">
<title>Node5</title>
<g id="a_node5"><a target="_blank" xlink:href="http://en.cppreference.com/w/cpp/numeric/math/pow.html#" xlink:title=" ">
<polygon fill="white" stroke="black" points="499,-56 499,-75 553,-75 553,-56 499,-56"/>
<text text-anchor="middle" x="526" y="-63" font-family="Helvetica,sans-Serif" font-size="10.00">std::pow</text>
</a>
</g>
</g>
<!-- Node3&#45;&gt;Node5 -->
<g id="edge4" class="edge">
<title>Node3&#45;&gt;Node5</title>
<path fill="none" stroke="midnightblue" d="M404.84,-76.26C424.46,-74.5 461.07,-71.22 488.75,-68.75"/>
<polygon fill="midnightblue" stroke="midnightblue" points="489.22,-72.22 498.86,-67.84 488.59,-65.25 489.22,-72.22"/>
</g>
<!-- Node6&#45;&gt;Node6 -->
<g id="edge7" class="edge">
<title>Node6&#45;&gt;Node6</title>
<path fill="none" stroke="midnightblue" d="M366.3,-30.66C360.58,-40.06 368.48,-49 390,-49 403.11,-49 411.17,-45.68 414.17,-40.96"/>
<polygon fill="midnightblue" stroke="midnightblue" points="417.65,-40.49 413.7,-30.66 410.66,-40.81 417.65,-40.49"/>
</g>
<!-- Node7 -->
<g id="node7" class="node">
<title>Node7</title>
<g id="a_node7"><a xlink:href="../../d4/da0/gcd__iterative__euclidean_8cpp.html#ae48807fa2b7000afae599e67f327545e" target="_top" xlink:title=" ">
<polygon fill="white" stroke="black" points="510,-6 510,-25 542,-25 542,-6 510,-6"/>
<text text-anchor="middle" x="526" y="-13" font-family="Helvetica,sans-Serif" font-size="10.00">gcd</text>
</a>
</g>
</g>
<!-- Node6&#45;&gt;Node7 -->
<g id="edge6" class="edge">
<title>Node6&#45;&gt;Node7</title>
<path fill="none" stroke="midnightblue" d="M463.1,-15.5C476.25,-15.5 489.13,-15.5 499.71,-15.5"/>
<polygon fill="midnightblue" stroke="midnightblue" points="499.82,-19 509.82,-15.5 499.82,-12 499.82,-19"/>
</g>
</g>
</svg>
