<?xml version="1.0" encoding="UTF-8" standalone="no"?>
<!DOCTYPE svg PUBLIC "-//W3C//DTD SVG 1.1//EN"
 "http://www.w3.org/Graphics/SVG/1.1/DTD/svg11.dtd">
<!-- Generated by graphviz version 5.0.0 (20220707.1540)
 -->
<!-- Title: main Pages: 1 -->
<svg width="433pt" height="104pt"
 viewBox="0.00 0.00 433.00 104.00" xmlns="http://www.w3.org/2000/svg" xmlns:xlink="http://www.w3.org/1999/xlink">
<g id="graph0" class="graph" transform="scale(1 1) rotate(0) translate(4 100)">
<title>main</title>
<polygon fill="white" stroke="transparent" points="-4,4 -4,-100 429,-100 429,4 -4,4"/>
<!-- Node1 -->
<g id="node1" class="node">
<title>Node1</title>
<g id="a_node1"><a xlink:title=" ">
<polygon fill="#bfbfbf" stroke="black" points="0,-19.5 0,-38.5 38,-38.5 38,-19.5 0,-19.5"/>
<text text-anchor="middle" x="19" y="-26.5" font-family="Helvetica,sans-Serif" font-size="10.00">main</text>
</a>
</g>
</g>
<!-- Node2 -->
<g id="node2" class="node">
<title>Node2</title>
<g id="a_node2"><a xlink:href="../../d9/dfd/comb__sort_8cpp.html#a0f4e7569090083fb53d5cdeaf0e2974f" target="_top" xlink:title=" ">
<polygon fill="white" stroke="black" points="155.5,-38.5 155.5,-57.5 216.5,-57.5 216.5,-38.5 155.5,-38.5"/>
<text text-anchor="middle" x="186" y="-45.5" font-family="Helvetica,sans-Serif" font-size="10.00">CombSort</text>
</a>
</g>
</g>
<!-- Node1&#45;&gt;Node2 -->
<g id="edge1" class="edge">
<title>Node1&#45;&gt;Node2</title>
<path fill="none" stroke="midnightblue" d="M38.29,-31.11C63.91,-34.06 111.17,-39.5 145.13,-43.41"/>
<polygon fill="midnightblue" stroke="midnightblue" points="144.87,-46.9 155.21,-44.57 145.67,-39.95 144.87,-46.9"/>
</g>
<!-- Node8 -->
<g id="node8" class="node">
<title>Node8</title>
<g id="a_node8"><a xlink:href="../../d9/dfd/comb__sort_8cpp.html#a88ec9ad42717780d6caaff9d3d6977f9" target="_top" xlink:title=" ">
<polygon fill="white" stroke="black" points="74,-0.5 74,-19.5 112,-19.5 112,-0.5 74,-0.5"/>
<text text-anchor="middle" x="93" y="-7.5" font-family="Helvetica,sans-Serif" font-size="10.00">tests</text>
</a>
</g>
</g>
<!-- Node1&#45;&gt;Node8 -->
<g id="edge7" class="edge">
<title>Node1&#45;&gt;Node8</title>
<path fill="none" stroke="midnightblue" d="M38.17,-24.21C45.95,-22.15 55.23,-19.7 63.87,-17.42"/>
<polygon fill="midnightblue" stroke="midnightblue" points="64.81,-20.79 73.59,-14.86 63.02,-14.03 64.81,-20.79"/>
</g>
<!-- Node3 -->
<g id="node3" class="node">
<title>Node3</title>
<g id="a_node3"><a xlink:href="../../d9/dfd/comb__sort_8cpp.html#aede08143e63105faba10e9ee8e745fd5" target="_top" xlink:title=" ">
<polygon fill="white" stroke="black" points="260,-76.5 260,-95.5 334,-95.5 334,-76.5 260,-76.5"/>
<text text-anchor="middle" x="297" y="-83.5" font-family="Helvetica,sans-Serif" font-size="10.00">FindNextGap</text>
</a>
</g>
</g>
<!-- Node2&#45;&gt;Node3 -->
<g id="edge2" class="edge">
<title>Node2&#45;&gt;Node3</title>
<path fill="none" stroke="midnightblue" d="M214.51,-57.59C227.93,-62.27 244.28,-67.97 258.8,-73.03"/>
<polygon fill="midnightblue" stroke="midnightblue" points="257.91,-76.43 268.5,-76.41 260.21,-69.82 257.91,-76.43"/>
</g>
<!-- Node5 -->
<g id="node5" class="node">
<title>Node5</title>
<g id="a_node5"><a xlink:href="../../d4/d18/composite__simpson__rule_8cpp.html#a995716bc040dc6cf32b5cb3df51c4529" target="_top" xlink:title="Another test function.">
<polygon fill="white" stroke="black" points="282.5,-38.5 282.5,-57.5 311.5,-57.5 311.5,-38.5 282.5,-38.5"/>
<text text-anchor="middle" x="297" y="-45.5" font-family="Helvetica,sans-Serif" font-size="10.00">l</text>
</a>
</g>
</g>
<!-- Node2&#45;&gt;Node5 -->
<g id="edge4" class="edge">
<title>Node2&#45;&gt;Node5</title>
<path fill="none" stroke="midnightblue" d="M216.78,-48C234.2,-48 255.88,-48 272.16,-48"/>
<polygon fill="midnightblue" stroke="midnightblue" points="272.44,-51.5 282.44,-48 272.44,-44.5 272.44,-51.5"/>
</g>
<!-- Node7 -->
<g id="node7" class="node">
<title>Node7</title>
<g id="a_node7"><a target="_blank" xlink:href="http://en.cppreference.com/w/cpp/algorithm/swap.html#" xlink:title=" ">
<polygon fill="white" stroke="black" points="267.5,-0.5 267.5,-19.5 326.5,-19.5 326.5,-0.5 267.5,-0.5"/>
<text text-anchor="middle" x="297" y="-7.5" font-family="Helvetica,sans-Serif" font-size="10.00">std::swap</text>
</a>
</g>
</g>
<!-- Node2&#45;&gt;Node7 -->
<g id="edge6" class="edge">
<title>Node2&#45;&gt;Node7</title>
<path fill="none" stroke="midnightblue" d="M214.51,-38.41C227.93,-33.73 244.28,-28.03 258.8,-22.97"/>
<polygon fill="midnightblue" stroke="midnightblue" points="260.21,-26.18 268.5,-19.59 257.91,-19.57 260.21,-26.18"/>
</g>
<!-- Node4 -->
<g id="node4" class="node">
<title>Node4</title>
<g id="a_node4"><a target="_blank" xlink:href="http://en.cppreference.com/w/cpp/algorithm/max.html#" xlink:title=" ">
<polygon fill="white" stroke="black" points="370,-76.5 370,-95.5 425,-95.5 425,-76.5 370,-76.5"/>
<text text-anchor="middle" x="397.5" y="-83.5" font-family="Helvetica,sans-Serif" font-size="10.00">std::max</text>
</a>
</g>
</g>
<!-- Node3&#45;&gt;Node4 -->
<g id="edge3" class="edge">
<title>Node3&#45;&gt;Node4</title>
<path fill="none" stroke="midnightblue" d="M334.12,-86C342.46,-86 351.34,-86 359.71,-86"/>
<polygon fill="midnightblue" stroke="midnightblue" points="359.95,-89.5 369.95,-86 359.95,-82.5 359.95,-89.5"/>
</g>
<!-- Node6 -->
<g id="node6" class="node">
<title>Node6</title>
<g id="a_node6"><a target="_blank" xlink:href="http://en.cppreference.com/w/cpp/numeric/math/log.html#" xlink:title=" ">
<polygon fill="white" stroke="black" points="373,-38.5 373,-57.5 422,-57.5 422,-38.5 373,-38.5"/>
<text text-anchor="middle" x="397.5" y="-45.5" font-family="Helvetica,sans-Serif" font-size="10.00">std::log</text>
</a>
</g>
</g>
<!-- Node5&#45;&gt;Node6 -->
<g id="edge5" class="edge">
<title>Node5&#45;&gt;Node6</title>
<path fill="none" stroke="midnightblue" d="M311.7,-48C324.74,-48 344.91,-48 362.31,-48"/>
<polygon fill="midnightblue" stroke="midnightblue" points="362.7,-51.5 372.7,-48 362.7,-44.5 362.7,-51.5"/>
</g>
<!-- Node8&#45;&gt;Node2 -->
<g id="edge8" class="edge">
<title>Node8&#45;&gt;Node2</title>
<path fill="none" stroke="midnightblue" d="M112.42,-17.69C123.95,-22.51 139.13,-28.85 152.63,-34.48"/>
<polygon fill="midnightblue" stroke="midnightblue" points="151.51,-37.81 162.09,-38.43 154.21,-31.35 151.51,-37.81"/>
</g>
<!-- Node9 -->
<g id="node9" class="node">
<title>Node9</title>
<g id="a_node9"><a target="_blank" xlink:href="http://en.cppreference.com/w/cpp/algorithm/is_sorted.html#" xlink:title=" ">
<polygon fill="white" stroke="black" points="148,-0.5 148,-19.5 224,-19.5 224,-0.5 148,-0.5"/>
<text text-anchor="middle" x="186" y="-7.5" font-family="Helvetica,sans-Serif" font-size="10.00">std::is_sorted</text>
</a>
</g>
</g>
<!-- Node8&#45;&gt;Node9 -->
<g id="edge9" class="edge">
<title>Node8&#45;&gt;Node9</title>
<path fill="none" stroke="midnightblue" d="M112.42,-10C119.81,-10 128.71,-10 137.7,-10"/>
<polygon fill="midnightblue" stroke="midnightblue" points="137.81,-13.5 147.81,-10 137.81,-6.5 137.81,-13.5"/>
</g>
</g>
</svg>
