<?xml version="1.0" encoding="UTF-8" standalone="no"?>
<!DOCTYPE svg PUBLIC "-//W3C//DTD SVG 1.1//EN"
 "http://www.w3.org/Graphics/SVG/1.1/DTD/svg11.dtd">
<!-- Generated by graphviz version 5.0.0 (20220707.1540)
 -->
<!-- Title: tests Pages: 1 -->
<svg width="359pt" height="104pt"
 viewBox="0.00 0.00 359.00 104.00" xmlns="http://www.w3.org/2000/svg" xmlns:xlink="http://www.w3.org/1999/xlink">
<g id="graph0" class="graph" transform="scale(1 1) rotate(0) translate(4 100)">
<title>tests</title>
<polygon fill="white" stroke="transparent" points="-4,4 -4,-100 355,-100 355,4 -4,4"/>
<!-- Node1 -->
<g id="node1" class="node">
<title>Node1</title>
<g id="a_node1"><a xlink:title=" ">
<polygon fill="#bfbfbf" stroke="black" points="0,-19.5 0,-38.5 38,-38.5 38,-19.5 0,-19.5"/>
<text text-anchor="middle" x="19" y="-26.5" font-family="Helvetica,sans-Serif" font-size="10.00">tests</text>
</a>
</g>
</g>
<!-- Node2 -->
<g id="node2" class="node">
<title>Node2</title>
<g id="a_node2"><a xlink:href="../../d9/dfd/comb__sort_8cpp.html#a0f4e7569090083fb53d5cdeaf0e2974f" target="_top" xlink:title=" ">
<polygon fill="white" stroke="black" points="81.5,-38.5 81.5,-57.5 142.5,-57.5 142.5,-38.5 81.5,-38.5"/>
<text text-anchor="middle" x="112" y="-45.5" font-family="Helvetica,sans-Serif" font-size="10.00">CombSort</text>
</a>
</g>
</g>
<!-- Node1&#45;&gt;Node2 -->
<g id="edge1" class="edge">
<title>Node1&#45;&gt;Node2</title>
<path fill="none" stroke="midnightblue" d="M38.42,-32.84C47.89,-34.82 59.84,-37.32 71.29,-39.71"/>
<polygon fill="midnightblue" stroke="midnightblue" points="70.64,-43.15 81.15,-41.77 72.07,-36.3 70.64,-43.15"/>
</g>
<!-- Node8 -->
<g id="node8" class="node">
<title>Node8</title>
<g id="a_node8"><a target="_blank" xlink:href="http://en.cppreference.com/w/cpp/algorithm/is_sorted.html#" xlink:title=" ">
<polygon fill="white" stroke="black" points="74,-0.5 74,-19.5 150,-19.5 150,-0.5 74,-0.5"/>
<text text-anchor="middle" x="112" y="-7.5" font-family="Helvetica,sans-Serif" font-size="10.00">std::is_sorted</text>
</a>
</g>
</g>
<!-- Node1&#45;&gt;Node8 -->
<g id="edge7" class="edge">
<title>Node1&#45;&gt;Node8</title>
<path fill="none" stroke="midnightblue" d="M38.42,-25.16C45.89,-23.59 54.9,-21.71 63.99,-19.82"/>
<polygon fill="midnightblue" stroke="midnightblue" points="64.74,-23.23 73.81,-17.76 63.31,-16.38 64.74,-23.23"/>
</g>
<!-- Node3 -->
<g id="node3" class="node">
<title>Node3</title>
<g id="a_node3"><a xlink:href="../../d9/dfd/comb__sort_8cpp.html#aede08143e63105faba10e9ee8e745fd5" target="_top" xlink:title=" ">
<polygon fill="white" stroke="black" points="186,-76.5 186,-95.5 260,-95.5 260,-76.5 186,-76.5"/>
<text text-anchor="middle" x="223" y="-83.5" font-family="Helvetica,sans-Serif" font-size="10.00">FindNextGap</text>
</a>
</g>
</g>
<!-- Node2&#45;&gt;Node3 -->
<g id="edge2" class="edge">
<title>Node2&#45;&gt;Node3</title>
<path fill="none" stroke="midnightblue" d="M140.51,-57.59C153.93,-62.27 170.28,-67.97 184.8,-73.03"/>
<polygon fill="midnightblue" stroke="midnightblue" points="183.91,-76.43 194.5,-76.41 186.21,-69.82 183.91,-76.43"/>
</g>
<!-- Node5 -->
<g id="node5" class="node">
<title>Node5</title>
<g id="a_node5"><a xlink:href="../../d4/d18/composite__simpson__rule_8cpp.html#a995716bc040dc6cf32b5cb3df51c4529" target="_top" xlink:title="Another test function.">
<polygon fill="white" stroke="black" points="208.5,-38.5 208.5,-57.5 237.5,-57.5 237.5,-38.5 208.5,-38.5"/>
<text text-anchor="middle" x="223" y="-45.5" font-family="Helvetica,sans-Serif" font-size="10.00">l</text>
</a>
</g>
</g>
<!-- Node2&#45;&gt;Node5 -->
<g id="edge4" class="edge">
<title>Node2&#45;&gt;Node5</title>
<path fill="none" stroke="midnightblue" d="M142.78,-48C160.2,-48 181.88,-48 198.16,-48"/>
<polygon fill="midnightblue" stroke="midnightblue" points="198.44,-51.5 208.44,-48 198.44,-44.5 198.44,-51.5"/>
</g>
<!-- Node7 -->
<g id="node7" class="node">
<title>Node7</title>
<g id="a_node7"><a target="_blank" xlink:href="http://en.cppreference.com/w/cpp/algorithm/swap.html#" xlink:title=" ">
<polygon fill="white" stroke="black" points="193.5,-0.5 193.5,-19.5 252.5,-19.5 252.5,-0.5 193.5,-0.5"/>
<text text-anchor="middle" x="223" y="-7.5" font-family="Helvetica,sans-Serif" font-size="10.00">std::swap</text>
</a>
</g>
</g>
<!-- Node2&#45;&gt;Node7 -->
<g id="edge6" class="edge">
<title>Node2&#45;&gt;Node7</title>
<path fill="none" stroke="midnightblue" d="M140.51,-38.41C153.93,-33.73 170.28,-28.03 184.8,-22.97"/>
<polygon fill="midnightblue" stroke="midnightblue" points="186.21,-26.18 194.5,-19.59 183.91,-19.57 186.21,-26.18"/>
</g>
<!-- Node4 -->
<g id="node4" class="node">
<title>Node4</title>
<g id="a_node4"><a target="_blank" xlink:href="http://en.cppreference.com/w/cpp/algorithm/max.html#" xlink:title=" ">
<polygon fill="white" stroke="black" points="296,-76.5 296,-95.5 351,-95.5 351,-76.5 296,-76.5"/>
<text text-anchor="middle" x="323.5" y="-83.5" font-family="Helvetica,sans-Serif" font-size="10.00">std::max</text>
</a>
</g>
</g>
<!-- Node3&#45;&gt;Node4 -->
<g id="edge3" class="edge">
<title>Node3&#45;&gt;Node4</title>
<path fill="none" stroke="midnightblue" d="M260.12,-86C268.46,-86 277.34,-86 285.71,-86"/>
<polygon fill="midnightblue" stroke="midnightblue" points="285.95,-89.5 295.95,-86 285.95,-82.5 285.95,-89.5"/>
</g>
<!-- Node6 -->
<g id="node6" class="node">
<title>Node6</title>
<g id="a_node6"><a target="_blank" xlink:href="http://en.cppreference.com/w/cpp/numeric/math/log.html#" xlink:title=" ">
<polygon fill="white" stroke="black" points="299,-38.5 299,-57.5 348,-57.5 348,-38.5 299,-38.5"/>
<text text-anchor="middle" x="323.5" y="-45.5" font-family="Helvetica,sans-Serif" font-size="10.00">std::log</text>
</a>
</g>
</g>
<!-- Node5&#45;&gt;Node6 -->
<g id="edge5" class="edge">
<title>Node5&#45;&gt;Node6</title>
<path fill="none" stroke="midnightblue" d="M237.7,-48C250.74,-48 270.91,-48 288.31,-48"/>
<polygon fill="midnightblue" stroke="midnightblue" points="288.7,-51.5 298.7,-48 288.7,-44.5 288.7,-51.5"/>
</g>
</g>
</svg>
