<?xml version="1.0" encoding="UTF-8" standalone="no"?>
<!DOCTYPE svg PUBLIC "-//W3C//DTD SVG 1.1//EN"
 "http://www.w3.org/Graphics/SVG/1.1/DTD/svg11.dtd">
<!-- Generated by graphviz version 5.0.0 (20220707.1540)
 -->
<!-- Title: CombSort Pages: 1 -->
<svg width="270pt" height="104pt"
 viewBox="0.00 0.00 270.00 104.00" xmlns="http://www.w3.org/2000/svg" xmlns:xlink="http://www.w3.org/1999/xlink">
<g id="graph0" class="graph" transform="scale(1 1) rotate(0) translate(4 100)">
<title>CombSort</title>
<polygon fill="white" stroke="transparent" points="-4,4 -4,-100 266,-100 266,4 -4,4"/>
<!-- Node1 -->
<g id="node1" class="node">
<title>Node1</title>
<g id="a_node1"><a xlink:title=" ">
<polygon fill="#bfbfbf" stroke="black" points="0,-38.5 0,-57.5 61,-57.5 61,-38.5 0,-38.5"/>
<text text-anchor="middle" x="30.5" y="-45.5" font-family="Helvetica,sans-Serif" font-size="10.00">CombSort</text>
</a>
</g>
</g>
<!-- Node2 -->
<g id="node2" class="node">
<title>Node2</title>
<g id="a_node2"><a xlink:href="../../d9/dfd/comb__sort_8cpp.html#aede08143e63105faba10e9ee8e745fd5" target="_top" xlink:title=" ">
<polygon fill="white" stroke="black" points="97,-76.5 97,-95.5 171,-95.5 171,-76.5 97,-76.5"/>
<text text-anchor="middle" x="134" y="-83.5" font-family="Helvetica,sans-Serif" font-size="10.00">FindNextGap</text>
</a>
</g>
</g>
<!-- Node1&#45;&gt;Node2 -->
<g id="edge1" class="edge">
<title>Node1&#45;&gt;Node2</title>
<path fill="none" stroke="midnightblue" d="M57.11,-57.59C69.49,-62.22 84.55,-67.86 97.97,-72.89"/>
<polygon fill="midnightblue" stroke="midnightblue" points="96.8,-76.19 107.4,-76.41 99.26,-69.63 96.8,-76.19"/>
</g>
<!-- Node4 -->
<g id="node4" class="node">
<title>Node4</title>
<g id="a_node4"><a xlink:href="../../d4/d18/composite__simpson__rule_8cpp.html#a995716bc040dc6cf32b5cb3df51c4529" target="_top" xlink:title="Another test function.">
<polygon fill="white" stroke="black" points="119.5,-38.5 119.5,-57.5 148.5,-57.5 148.5,-38.5 119.5,-38.5"/>
<text text-anchor="middle" x="134" y="-45.5" font-family="Helvetica,sans-Serif" font-size="10.00">l</text>
</a>
</g>
</g>
<!-- Node1&#45;&gt;Node4 -->
<g id="edge3" class="edge">
<title>Node1&#45;&gt;Node4</title>
<path fill="none" stroke="midnightblue" d="M61.13,-48C76.42,-48 94.83,-48 109.19,-48"/>
<polygon fill="midnightblue" stroke="midnightblue" points="109.26,-51.5 119.26,-48 109.26,-44.5 109.26,-51.5"/>
</g>
<!-- Node6 -->
<g id="node6" class="node">
<title>Node6</title>
<g id="a_node6"><a target="_blank" xlink:href="http://en.cppreference.com/w/cpp/algorithm/swap.html#" xlink:title=" ">
<polygon fill="white" stroke="black" points="104.5,-0.5 104.5,-19.5 163.5,-19.5 163.5,-0.5 104.5,-0.5"/>
<text text-anchor="middle" x="134" y="-7.5" font-family="Helvetica,sans-Serif" font-size="10.00">std::swap</text>
</a>
</g>
</g>
<!-- Node1&#45;&gt;Node6 -->
<g id="edge5" class="edge">
<title>Node1&#45;&gt;Node6</title>
<path fill="none" stroke="midnightblue" d="M57.11,-38.41C69.49,-33.78 84.55,-28.14 97.97,-23.11"/>
<polygon fill="midnightblue" stroke="midnightblue" points="99.26,-26.37 107.4,-19.59 96.8,-19.81 99.26,-26.37"/>
</g>
<!-- Node3 -->
<g id="node3" class="node">
<title>Node3</title>
<g id="a_node3"><a target="_blank" xlink:href="http://en.cppreference.com/w/cpp/algorithm/max.html#" xlink:title=" ">
<polygon fill="white" stroke="black" points="207,-76.5 207,-95.5 262,-95.5 262,-76.5 207,-76.5"/>
<text text-anchor="middle" x="234.5" y="-83.5" font-family="Helvetica,sans-Serif" font-size="10.00">std::max</text>
</a>
</g>
</g>
<!-- Node2&#45;&gt;Node3 -->
<g id="edge2" class="edge">
<title>Node2&#45;&gt;Node3</title>
<path fill="none" stroke="midnightblue" d="M171.12,-86C179.46,-86 188.34,-86 196.71,-86"/>
<polygon fill="midnightblue" stroke="midnightblue" points="196.95,-89.5 206.95,-86 196.95,-82.5 196.95,-89.5"/>
</g>
<!-- Node5 -->
<g id="node5" class="node">
<title>Node5</title>
<g id="a_node5"><a target="_blank" xlink:href="http://en.cppreference.com/w/cpp/numeric/math/log.html#" xlink:title=" ">
<polygon fill="white" stroke="black" points="210,-38.5 210,-57.5 259,-57.5 259,-38.5 210,-38.5"/>
<text text-anchor="middle" x="234.5" y="-45.5" font-family="Helvetica,sans-Serif" font-size="10.00">std::log</text>
</a>
</g>
</g>
<!-- Node4&#45;&gt;Node5 -->
<g id="edge4" class="edge">
<title>Node4&#45;&gt;Node5</title>
<path fill="none" stroke="midnightblue" d="M148.7,-48C161.74,-48 181.91,-48 199.31,-48"/>
<polygon fill="midnightblue" stroke="midnightblue" points="199.7,-51.5 209.7,-48 199.7,-44.5 199.7,-51.5"/>
</g>
</g>
</svg>
