<?xml version="1.0" encoding="UTF-8" standalone="no"?>
<!DOCTYPE svg PUBLIC "-//W3C//DTD SVG 1.1//EN"
 "http://www.w3.org/Graphics/SVG/1.1/DTD/svg11.dtd">
<!-- Generated by graphviz version 5.0.0 (20220707.1540)
 -->
<!-- Title: strings::horspool::horspool Pages: 1 -->
<svg width="395pt" height="329pt"
 viewBox="0.00 0.00 395.00 329.00" xmlns="http://www.w3.org/2000/svg" xmlns:xlink="http://www.w3.org/1999/xlink">
<g id="graph0" class="graph" transform="scale(1 1) rotate(0) translate(4 325)">
<title>strings::horspool::horspool</title>
<polygon fill="white" stroke="transparent" points="-4,4 -4,-325 391,-325 391,4 -4,4"/>
<!-- Node1 -->
<g id="node1" class="node">
<title>Node1</title>
<g id="a_node1"><a xlink:title=" ">
<polygon fill="#bfbfbf" stroke="black" points="0,-164 0,-194 95,-194 95,-164 0,-164"/>
<text text-anchor="start" x="8" y="-182" font-family="Helvetica,sans-Serif" font-size="10.00">strings::horspool::</text>
<text text-anchor="middle" x="47.5" y="-171" font-family="Helvetica,sans-Serif" font-size="10.00">horspool</text>
</a>
</g>
</g>
<!-- Node2 -->
<g id="node2" class="node">
<title>Node2</title>
<g id="a_node2"><a target="_blank" xlink:href="http://en.cppreference.com/w/cpp/container/unordered_map/end.html#" xlink:title=" ">
<polygon fill="white" stroke="black" points="262,-301.5 262,-320.5 387,-320.5 387,-301.5 262,-301.5"/>
<text text-anchor="middle" x="324.5" y="-308.5" font-family="Helvetica,sans-Serif" font-size="10.00">std::unordered_map::end</text>
</a>
</g>
</g>
<!-- Node1&#45;&gt;Node2 -->
<g id="edge1" class="edge">
<title>Node1&#45;&gt;Node2</title>
<path fill="none" stroke="midnightblue" d="M62.68,-194.08C78.14,-209.75 104.28,-234.04 131,-249 173.79,-272.96 227.18,-289.23 266.88,-299.07"/>
<polygon fill="midnightblue" stroke="midnightblue" points="266.12,-302.48 276.66,-301.43 267.76,-295.68 266.12,-302.48"/>
</g>
<!-- Node3 -->
<g id="node3" class="node">
<title>Node3</title>
<g id="a_node3"><a target="_blank" xlink:href="http://en.cppreference.com/w/cpp/container/unordered_map/find.html#" xlink:title=" ">
<polygon fill="white" stroke="black" points="273,-252 273,-282 376,-282 376,-252 273,-252"/>
<text text-anchor="start" x="281" y="-270" font-family="Helvetica,sans-Serif" font-size="10.00">std::unordered_map</text>
<text text-anchor="middle" x="324.5" y="-259" font-family="Helvetica,sans-Serif" font-size="10.00">::find</text>
</a>
</g>
</g>
<!-- Node1&#45;&gt;Node3 -->
<g id="edge2" class="edge">
<title>Node1&#45;&gt;Node3</title>
<path fill="none" stroke="midnightblue" d="M73.39,-194.07C89.38,-203.22 110.86,-214.53 131,-222 173.83,-237.88 224.17,-249.41 262.62,-256.83"/>
<polygon fill="midnightblue" stroke="midnightblue" points="262.15,-260.3 272.63,-258.71 263.45,-253.42 262.15,-260.3"/>
</g>
<!-- Node4 -->
<g id="node4" class="node">
<title>Node4</title>
<g id="a_node4"><a xlink:href="../../d3/dfe/horspool_8cpp.html#a1a9c3aa55ccc79d0f47d50c580997336" target="_top" xlink:title=" ">
<polygon fill="white" stroke="black" points="131,-164 131,-194 226,-194 226,-164 131,-164"/>
<text text-anchor="start" x="139" y="-182" font-family="Helvetica,sans-Serif" font-size="10.00">strings::horspool::</text>
<text text-anchor="middle" x="178.5" y="-171" font-family="Helvetica,sans-Serif" font-size="10.00">findShiftTable</text>
</a>
</g>
</g>
<!-- Node1&#45;&gt;Node4 -->
<g id="edge3" class="edge">
<title>Node1&#45;&gt;Node4</title>
<path fill="none" stroke="midnightblue" d="M95.07,-179C103.48,-179 112.32,-179 120.97,-179"/>
<polygon fill="midnightblue" stroke="midnightblue" points="121,-182.5 131,-179 121,-175.5 121,-182.5"/>
</g>
<!-- Node7 -->
<g id="node7" class="node">
<title>Node7</title>
<g id="a_node7"><a target="_blank" xlink:href="http://en.cppreference.com/w/cpp/string/basic_string/size.html#" xlink:title=" ">
<polygon fill="white" stroke="black" points="282.5,-76.5 282.5,-95.5 366.5,-95.5 366.5,-76.5 282.5,-76.5"/>
<text text-anchor="middle" x="324.5" y="-83.5" font-family="Helvetica,sans-Serif" font-size="10.00">std::string::size</text>
</a>
</g>
</g>
<!-- Node1&#45;&gt;Node7 -->
<g id="edge14" class="edge">
<title>Node1&#45;&gt;Node7</title>
<path fill="none" stroke="midnightblue" d="M91.78,-163.99C134.87,-149.09 202.92,-125.71 262,-106 269.1,-103.63 276.68,-101.14 284,-98.75"/>
<polygon fill="midnightblue" stroke="midnightblue" points="285.33,-102 293.75,-95.57 283.16,-95.34 285.33,-102"/>
</g>
<!-- Node9 -->
<g id="node9" class="node">
<title>Node9</title>
<g id="a_node9"><a xlink:href="../../d4/d18/composite__simpson__rule_8cpp.html#a6d50f1b8eb533b54721812d16a3699cc" target="_top" xlink:title="Another test function.">
<polygon fill="white" stroke="black" points="164,-38.5 164,-57.5 193,-57.5 193,-38.5 164,-38.5"/>
<text text-anchor="middle" x="178.5" y="-45.5" font-family="Helvetica,sans-Serif" font-size="10.00">k</text>
</a>
</g>
</g>
<!-- Node1&#45;&gt;Node9 -->
<g id="edge11" class="edge">
<title>Node1&#45;&gt;Node9</title>
<path fill="none" stroke="midnightblue" d="M63.3,-163.97C87.53,-139.37 135.5,-90.65 160.87,-64.89"/>
<polygon fill="midnightblue" stroke="midnightblue" points="163.45,-67.26 167.97,-57.68 158.46,-62.35 163.45,-67.26"/>
</g>
<!-- Node4&#45;&gt;Node2 -->
<g id="edge4" class="edge">
<title>Node4&#45;&gt;Node2</title>
<path fill="none" stroke="midnightblue" d="M186.58,-194.23C198.63,-218.51 225.42,-265.89 262,-292 264.81,-294.01 267.85,-295.81 271,-297.42"/>
<polygon fill="midnightblue" stroke="midnightblue" points="269.59,-300.62 280.15,-301.49 272.43,-294.23 269.59,-300.62"/>
</g>
<!-- Node4&#45;&gt;Node3 -->
<g id="edge5" class="edge">
<title>Node4&#45;&gt;Node3</title>
<path fill="none" stroke="midnightblue" d="M195.86,-194.01C211.82,-208.07 237.24,-228.96 262,-243 264.84,-244.61 267.81,-246.16 270.85,-247.64"/>
<polygon fill="midnightblue" stroke="midnightblue" points="269.54,-250.9 280.09,-251.88 272.46,-244.53 269.54,-250.9"/>
</g>
<!-- Node4&#45;&gt;Node4 -->
<g id="edge6" class="edge">
<title>Node4&#45;&gt;Node4</title>
<path fill="none" stroke="midnightblue" d="M155.84,-194.16C150.38,-203.56 157.93,-212.5 178.5,-212.5 191.03,-212.5 198.73,-209.18 201.6,-204.46"/>
<polygon fill="midnightblue" stroke="midnightblue" points="205.08,-204 201.16,-194.16 198.09,-204.3 205.08,-204"/>
</g>
<!-- Node5 -->
<g id="node5" class="node">
<title>Node5</title>
<g id="a_node5"><a target="_blank" xlink:href="http://en.cppreference.com/w/cpp/container/unordered_map/insert.html#" xlink:title=" ">
<polygon fill="white" stroke="black" points="273,-203 273,-233 376,-233 376,-203 273,-203"/>
<text text-anchor="start" x="281" y="-221" font-family="Helvetica,sans-Serif" font-size="10.00">std::unordered_map</text>
<text text-anchor="middle" x="324.5" y="-210" font-family="Helvetica,sans-Serif" font-size="10.00">::insert</text>
</a>
</g>
</g>
<!-- Node4&#45;&gt;Node5 -->
<g id="edge7" class="edge">
<title>Node4&#45;&gt;Node5</title>
<path fill="none" stroke="midnightblue" d="M226.25,-191.66C237.98,-194.84 250.73,-198.29 263.03,-201.62"/>
<polygon fill="midnightblue" stroke="midnightblue" points="262.19,-205.02 272.76,-204.26 264.02,-198.26 262.19,-205.02"/>
</g>
<!-- Node6 -->
<g id="node6" class="node">
<title>Node6</title>
<g id="a_node6"><a target="_blank" xlink:href="http://en.cppreference.com/w/cpp/utility/pair/make_pair.html#" xlink:title=" ">
<polygon fill="white" stroke="black" points="284,-164.5 284,-183.5 365,-183.5 365,-164.5 284,-164.5"/>
<text text-anchor="middle" x="324.5" y="-171.5" font-family="Helvetica,sans-Serif" font-size="10.00">std::make_pair</text>
</a>
</g>
</g>
<!-- Node4&#45;&gt;Node6 -->
<g id="edge8" class="edge">
<title>Node4&#45;&gt;Node6</title>
<path fill="none" stroke="midnightblue" d="M226.25,-177.38C241.33,-176.85 258.1,-176.27 273.41,-175.74"/>
<polygon fill="midnightblue" stroke="midnightblue" points="273.87,-179.23 283.74,-175.38 273.63,-172.23 273.87,-179.23"/>
</g>
<!-- Node4&#45;&gt;Node7 -->
<g id="edge9" class="edge">
<title>Node4&#45;&gt;Node7</title>
<path fill="none" stroke="midnightblue" d="M192.98,-163.82C208.25,-147.46 234.61,-121.66 262,-106 266.45,-103.45 271.28,-101.18 276.2,-99.16"/>
<polygon fill="midnightblue" stroke="midnightblue" points="277.58,-102.38 285.71,-95.59 275.11,-95.83 277.58,-102.38"/>
</g>
<!-- Node8 -->
<g id="node8" class="node">
<title>Node8</title>
<g id="a_node8"><a target="_blank" xlink:href="http://en.cppreference.com/w/cpp/container/unordered_map/size.html#" xlink:title=" ">
<polygon fill="white" stroke="black" points="273,-115 273,-145 376,-145 376,-115 273,-115"/>
<text text-anchor="start" x="281" y="-133" font-family="Helvetica,sans-Serif" font-size="10.00">std::unordered_map</text>
<text text-anchor="middle" x="324.5" y="-122" font-family="Helvetica,sans-Serif" font-size="10.00">::size</text>
</a>
</g>
</g>
<!-- Node4&#45;&gt;Node8 -->
<g id="edge10" class="edge">
<title>Node4&#45;&gt;Node8</title>
<path fill="none" stroke="midnightblue" d="M223.88,-163.9C238.25,-159.01 254.35,-153.53 269.35,-148.43"/>
<polygon fill="midnightblue" stroke="midnightblue" points="270.68,-151.67 279.02,-145.14 268.42,-145.04 270.68,-151.67"/>
</g>
<!-- Node10 -->
<g id="node10" class="node">
<title>Node10</title>
<g id="a_node10"><a target="_blank" xlink:href="http://en.cppreference.com/w/cpp/numeric/math/pow.html#" xlink:title=" ">
<polygon fill="white" stroke="black" points="297.5,-38.5 297.5,-57.5 351.5,-57.5 351.5,-38.5 297.5,-38.5"/>
<text text-anchor="middle" x="324.5" y="-45.5" font-family="Helvetica,sans-Serif" font-size="10.00">std::pow</text>
</a>
</g>
</g>
<!-- Node9&#45;&gt;Node10 -->
<g id="edge12" class="edge">
<title>Node9&#45;&gt;Node10</title>
<path fill="none" stroke="midnightblue" d="M193.05,-48C214.34,-48 256.37,-48 286.98,-48"/>
<polygon fill="midnightblue" stroke="midnightblue" points="287.28,-51.5 297.28,-48 287.28,-44.5 287.28,-51.5"/>
</g>
<!-- Node11 -->
<g id="node11" class="node">
<title>Node11</title>
<g id="a_node11"><a target="_blank" xlink:href="http://en.cppreference.com/w/cpp/numeric/math/sqrt.html#" xlink:title=" ">
<polygon fill="white" stroke="black" points="298,-0.5 298,-19.5 351,-19.5 351,-0.5 298,-0.5"/>
<text text-anchor="middle" x="324.5" y="-7.5" font-family="Helvetica,sans-Serif" font-size="10.00">std::sqrt</text>
</a>
</g>
</g>
<!-- Node9&#45;&gt;Node11 -->
<g id="edge13" class="edge">
<title>Node9&#45;&gt;Node11</title>
<path fill="none" stroke="midnightblue" d="M193.05,-44.43C214.56,-38.75 257.23,-27.49 287.92,-19.39"/>
<polygon fill="midnightblue" stroke="midnightblue" points="289.05,-22.71 297.82,-16.78 287.26,-15.94 289.05,-22.71"/>
</g>
</g>
</svg>
