<?xml version="1.0" encoding="UTF-8" standalone="no"?>
<!DOCTYPE svg PUBLIC "-//W3C//DTD SVG 1.1//EN"
 "http://www.w3.org/Graphics/SVG/1.1/DTD/svg11.dtd">
<!-- Generated by graphviz version 5.0.0 (20220707.1540)
 -->
<!-- Title: sorting::shell_sort Pages: 1 -->
<svg width="387pt" height="104pt"
 viewBox="0.00 0.00 387.00 104.00" xmlns="http://www.w3.org/2000/svg" xmlns:xlink="http://www.w3.org/1999/xlink">
<g id="graph0" class="graph" transform="scale(1 1) rotate(0) translate(4 100)">
<title>sorting::shell_sort</title>
<polygon fill="white" stroke="transparent" points="-4,4 -4,-100 383,-100 383,4 -4,4"/>
<!-- Node1 -->
<g id="node1" class="node">
<title>Node1</title>
<g id="a_node1"><a xlink:title=" ">
<polygon fill="#bfbfbf" stroke="black" points="0,-38.5 0,-57.5 94,-57.5 94,-38.5 0,-38.5"/>
<text text-anchor="middle" x="47" y="-45.5" font-family="Helvetica,sans-Serif" font-size="10.00">sorting::shell_sort</text>
</a>
</g>
</g>
<!-- Node2 -->
<g id="node2" class="node">
<title>Node2</title>
<g id="a_node2"><a target="_blank" xlink:href="http://en.cppreference.com/w/cpp/container/vector/data.html#" xlink:title=" ">
<polygon fill="white" stroke="black" points="133,-76.5 133,-95.5 221,-95.5 221,-76.5 133,-76.5"/>
<text text-anchor="middle" x="177" y="-83.5" font-family="Helvetica,sans-Serif" font-size="10.00">std::vector::data</text>
</a>
</g>
</g>
<!-- Node1&#45;&gt;Node2 -->
<g id="edge1" class="edge">
<title>Node1&#45;&gt;Node2</title>
<path fill="none" stroke="midnightblue" d="M80.3,-57.59C96.52,-62.4 116.38,-68.3 133.79,-73.47"/>
<polygon fill="midnightblue" stroke="midnightblue" points="133.13,-76.92 143.71,-76.41 135.12,-70.21 133.13,-76.92"/>
</g>
<!-- Node3 -->
<g id="node3" class="node">
<title>Node3</title>
<g id="a_node3"><a xlink:href="../../d5/d91/namespacesorting.html#a5669396c6a6b1e14b97589b6e37980aa" target="_top" xlink:title=" ">
<polygon fill="white" stroke="black" points="130,-38.5 130,-57.5 224,-57.5 224,-38.5 130,-38.5"/>
<text text-anchor="middle" x="177" y="-45.5" font-family="Helvetica,sans-Serif" font-size="10.00">sorting::shell_sort</text>
</a>
</g>
</g>
<!-- Node1&#45;&gt;Node3 -->
<g id="edge2" class="edge">
<title>Node1&#45;&gt;Node3</title>
<path fill="none" stroke="midnightblue" d="M94.21,-48C102.46,-48 111.13,-48 119.63,-48"/>
<polygon fill="midnightblue" stroke="midnightblue" points="119.86,-51.5 129.86,-48 119.86,-44.5 119.86,-51.5"/>
</g>
<!-- Node7 -->
<g id="node7" class="node">
<title>Node7</title>
<g id="a_node7"><a target="_blank" xlink:href="http://en.cppreference.com/w/cpp/container/vector/size.html#" xlink:title=" ">
<polygon fill="white" stroke="black" points="133.5,-0.5 133.5,-19.5 220.5,-19.5 220.5,-0.5 133.5,-0.5"/>
<text text-anchor="middle" x="177" y="-7.5" font-family="Helvetica,sans-Serif" font-size="10.00">std::vector::size</text>
</a>
</g>
</g>
<!-- Node1&#45;&gt;Node7 -->
<g id="edge6" class="edge">
<title>Node1&#45;&gt;Node7</title>
<path fill="none" stroke="midnightblue" d="M80.3,-38.41C96.52,-33.6 116.38,-27.7 133.79,-22.53"/>
<polygon fill="midnightblue" stroke="midnightblue" points="135.12,-25.79 143.71,-19.59 133.13,-19.08 135.12,-25.79"/>
</g>
<!-- Node4 -->
<g id="node4" class="node">
<title>Node4</title>
<g id="a_node4"><a xlink:href="../../d4/d18/composite__simpson__rule_8cpp.html#ac84831571c8f3d0bca83c1747a32e8d6" target="_top" xlink:title="Another test function.">
<polygon fill="white" stroke="black" points="260,-38.5 260,-57.5 289,-57.5 289,-38.5 260,-38.5"/>
<text text-anchor="middle" x="274.5" y="-45.5" font-family="Helvetica,sans-Serif" font-size="10.00">g</text>
</a>
</g>
</g>
<!-- Node3&#45;&gt;Node4 -->
<g id="edge3" class="edge">
<title>Node3&#45;&gt;Node4</title>
<path fill="none" stroke="midnightblue" d="M224.07,-48C232.89,-48 241.78,-48 249.55,-48"/>
<polygon fill="midnightblue" stroke="midnightblue" points="249.65,-51.5 259.65,-48 249.65,-44.5 249.65,-51.5"/>
</g>
<!-- Node5 -->
<g id="node5" class="node">
<title>Node5</title>
<g id="a_node5"><a target="_blank" xlink:href="http://en.cppreference.com/w/cpp/numeric/math/exp.html#" xlink:title=" ">
<polygon fill="white" stroke="black" points="326,-57.5 326,-76.5 378,-76.5 378,-57.5 326,-57.5"/>
<text text-anchor="middle" x="352" y="-64.5" font-family="Helvetica,sans-Serif" font-size="10.00">std::exp</text>
</a>
</g>
</g>
<!-- Node4&#45;&gt;Node5 -->
<g id="edge4" class="edge">
<title>Node4&#45;&gt;Node5</title>
<path fill="none" stroke="midnightblue" d="M289.35,-51.48C296.93,-53.39 306.7,-55.85 316.22,-58.25"/>
<polygon fill="midnightblue" stroke="midnightblue" points="315.39,-61.65 325.94,-60.69 317.09,-54.86 315.39,-61.65"/>
</g>
<!-- Node6 -->
<g id="node6" class="node">
<title>Node6</title>
<g id="a_node6"><a target="_blank" xlink:href="http://en.cppreference.com/w/cpp/numeric/math/pow.html#" xlink:title=" ">
<polygon fill="white" stroke="black" points="325,-19.5 325,-38.5 379,-38.5 379,-19.5 325,-19.5"/>
<text text-anchor="middle" x="352" y="-26.5" font-family="Helvetica,sans-Serif" font-size="10.00">std::pow</text>
</a>
</g>
</g>
<!-- Node4&#45;&gt;Node6 -->
<g id="edge5" class="edge">
<title>Node4&#45;&gt;Node6</title>
<path fill="none" stroke="midnightblue" d="M289.35,-44.52C296.6,-42.69 305.85,-40.36 314.97,-38.07"/>
<polygon fill="midnightblue" stroke="midnightblue" points="315.87,-41.45 324.71,-35.62 314.16,-34.66 315.87,-41.45"/>
</g>
</g>
</svg>
