<?xml version="1.0" encoding="UTF-8" standalone="no"?>
<!DOCTYPE svg PUBLIC "-//W3C//DTD SVG 1.1//EN"
 "http://www.w3.org/Graphics/SVG/1.1/DTD/svg11.dtd">
<!-- Generated by graphviz version 5.0.0 (20220707.1540)
 -->
<!-- Title: sorting::non_recursive_merge_sort Pages: 1 -->
<svg width="417pt" height="66pt"
 viewBox="0.00 0.00 417.00 66.00" xmlns="http://www.w3.org/2000/svg" xmlns:xlink="http://www.w3.org/1999/xlink">
<g id="graph0" class="graph" transform="scale(1 1) rotate(0) translate(4 62)">
<title>sorting::non_recursive_merge_sort</title>
<polygon fill="white" stroke="transparent" points="-4,4 -4,-62 413,-62 413,4 -4,4"/>
<!-- Node1 -->
<g id="node1" class="node">
<title>Node1</title>
<g id="a_node1"><a xlink:title="bottom&#45;up merge sort which sorts elements in a non&#45;decreasing order">
<polygon fill="#bfbfbf" stroke="black" points="0,-14 0,-44 113,-44 113,-14 0,-14"/>
<text text-anchor="start" x="8" y="-32" font-family="Helvetica,sans-Serif" font-size="10.00">sorting::non_recursive</text>
<text text-anchor="middle" x="56.5" y="-21" font-family="Helvetica,sans-Serif" font-size="10.00">_merge_sort</text>
</a>
</g>
</g>
<!-- Node2 -->
<g id="node2" class="node">
<title>Node2</title>
<g id="a_node2"><a xlink:href="../../d5/d91/namespacesorting.html#aa26de383227859210f14dcf12201a079" target="_top" xlink:title="merges 2 sorted adjacent segments into a larger sorted segment">
<polygon fill="white" stroke="black" points="149,-19.5 149,-38.5 228,-38.5 228,-19.5 149,-19.5"/>
<text text-anchor="middle" x="188.5" y="-26.5" font-family="Helvetica,sans-Serif" font-size="10.00">sorting::merge</text>
</a>
</g>
</g>
<!-- Node1&#45;&gt;Node2 -->
<g id="edge1" class="edge">
<title>Node1&#45;&gt;Node2</title>
<path fill="none" stroke="midnightblue" d="M113.01,-29C121.45,-29 130.11,-29 138.41,-29"/>
<polygon fill="midnightblue" stroke="midnightblue" points="138.67,-32.5 148.67,-29 138.67,-25.5 138.67,-32.5"/>
</g>
<!-- Node3 -->
<g id="node3" class="node">
<title>Node3</title>
<g id="a_node3"><a xlink:href="../../d4/d18/composite__simpson__rule_8cpp.html#a995716bc040dc6cf32b5cb3df51c4529" target="_top" xlink:title="Another test function.">
<polygon fill="white" stroke="black" points="279.5,-38.5 279.5,-57.5 308.5,-57.5 308.5,-38.5 279.5,-38.5"/>
<text text-anchor="middle" x="294" y="-45.5" font-family="Helvetica,sans-Serif" font-size="10.00">l</text>
</a>
</g>
</g>
<!-- Node2&#45;&gt;Node3 -->
<g id="edge2" class="edge">
<title>Node2&#45;&gt;Node3</title>
<path fill="none" stroke="midnightblue" d="M228.04,-36.07C241.91,-38.62 257.13,-41.42 269.36,-43.66"/>
<polygon fill="midnightblue" stroke="midnightblue" points="268.75,-47.11 279.22,-45.47 270.01,-40.22 268.75,-47.11"/>
</g>
<!-- Node5 -->
<g id="node5" class="node">
<title>Node5</title>
<g id="a_node5"><a target="_blank" xlink:href="http://en.cppreference.com/w/cpp/utility/move.html#" xlink:title=" ">
<polygon fill="white" stroke="black" points="264,-0.5 264,-19.5 324,-19.5 324,-0.5 264,-0.5"/>
<text text-anchor="middle" x="294" y="-7.5" font-family="Helvetica,sans-Serif" font-size="10.00">std::move</text>
</a>
</g>
</g>
<!-- Node2&#45;&gt;Node5 -->
<g id="edge4" class="edge">
<title>Node2&#45;&gt;Node5</title>
<path fill="none" stroke="midnightblue" d="M228.04,-21.93C236.46,-20.38 245.37,-18.74 253.82,-17.19"/>
<polygon fill="midnightblue" stroke="midnightblue" points="254.61,-20.61 263.81,-15.36 253.34,-13.72 254.61,-20.61"/>
</g>
<!-- Node4 -->
<g id="node4" class="node">
<title>Node4</title>
<g id="a_node4"><a target="_blank" xlink:href="http://en.cppreference.com/w/cpp/numeric/math/log.html#" xlink:title=" ">
<polygon fill="white" stroke="black" points="360,-38.5 360,-57.5 409,-57.5 409,-38.5 360,-38.5"/>
<text text-anchor="middle" x="384.5" y="-45.5" font-family="Helvetica,sans-Serif" font-size="10.00">std::log</text>
</a>
</g>
</g>
<!-- Node3&#45;&gt;Node4 -->
<g id="edge3" class="edge">
<title>Node3&#45;&gt;Node4</title>
<path fill="none" stroke="midnightblue" d="M308.83,-48C319.68,-48 335.25,-48 349.37,-48"/>
<polygon fill="midnightblue" stroke="midnightblue" points="349.78,-51.5 359.78,-48 349.78,-44.5 349.78,-51.5"/>
</g>
</g>
</svg>
