<?xml version="1.0" encoding="UTF-8" standalone="no"?>
<!DOCTYPE svg PUBLIC "-//W3C//DTD SVG 1.1//EN"
 "http://www.w3.org/Graphics/SVG/1.1/DTD/svg11.dtd">
<!-- Generated by graphviz version 5.0.0 (20220707.1540)
 -->
<!-- Title: sorting::merge Pages: 1 -->
<svg width="268pt" height="66pt"
 viewBox="0.00 0.00 268.00 66.00" xmlns="http://www.w3.org/2000/svg" xmlns:xlink="http://www.w3.org/1999/xlink">
<g id="graph0" class="graph" transform="scale(1 1) rotate(0) translate(4 62)">
<title>sorting::merge</title>
<polygon fill="white" stroke="transparent" points="-4,4 -4,-62 264,-62 264,4 -4,4"/>
<!-- Node1 -->
<g id="node1" class="node">
<title>Node1</title>
<g id="a_node1"><a xlink:title="merges 2 sorted adjacent segments into a larger sorted segment">
<polygon fill="#bfbfbf" stroke="black" points="0,-19.5 0,-38.5 79,-38.5 79,-19.5 0,-19.5"/>
<text text-anchor="middle" x="39.5" y="-26.5" font-family="Helvetica,sans-Serif" font-size="10.00">sorting::merge</text>
</a>
</g>
</g>
<!-- Node2 -->
<g id="node2" class="node">
<title>Node2</title>
<g id="a_node2"><a xlink:href="../../d4/d18/composite__simpson__rule_8cpp.html#a995716bc040dc6cf32b5cb3df51c4529" target="_top" xlink:title="Another test function.">
<polygon fill="white" stroke="black" points="130.5,-38.5 130.5,-57.5 159.5,-57.5 159.5,-38.5 130.5,-38.5"/>
<text text-anchor="middle" x="145" y="-45.5" font-family="Helvetica,sans-Serif" font-size="10.00">l</text>
</a>
</g>
</g>
<!-- Node1&#45;&gt;Node2 -->
<g id="edge1" class="edge">
<title>Node1&#45;&gt;Node2</title>
<path fill="none" stroke="midnightblue" d="M79.04,-36.07C92.91,-38.62 108.13,-41.42 120.36,-43.66"/>
<polygon fill="midnightblue" stroke="midnightblue" points="119.75,-47.11 130.22,-45.47 121.01,-40.22 119.75,-47.11"/>
</g>
<!-- Node4 -->
<g id="node4" class="node">
<title>Node4</title>
<g id="a_node4"><a target="_blank" xlink:href="http://en.cppreference.com/w/cpp/utility/move.html#" xlink:title=" ">
<polygon fill="white" stroke="black" points="115,-0.5 115,-19.5 175,-19.5 175,-0.5 115,-0.5"/>
<text text-anchor="middle" x="145" y="-7.5" font-family="Helvetica,sans-Serif" font-size="10.00">std::move</text>
</a>
</g>
</g>
<!-- Node1&#45;&gt;Node4 -->
<g id="edge3" class="edge">
<title>Node1&#45;&gt;Node4</title>
<path fill="none" stroke="midnightblue" d="M79.04,-21.93C87.46,-20.38 96.37,-18.74 104.82,-17.19"/>
<polygon fill="midnightblue" stroke="midnightblue" points="105.61,-20.61 114.81,-15.36 104.34,-13.72 105.61,-20.61"/>
</g>
<!-- Node3 -->
<g id="node3" class="node">
<title>Node3</title>
<g id="a_node3"><a target="_blank" xlink:href="http://en.cppreference.com/w/cpp/numeric/math/log.html#" xlink:title=" ">
<polygon fill="white" stroke="black" points="211,-38.5 211,-57.5 260,-57.5 260,-38.5 211,-38.5"/>
<text text-anchor="middle" x="235.5" y="-45.5" font-family="Helvetica,sans-Serif" font-size="10.00">std::log</text>
</a>
</g>
</g>
<!-- Node2&#45;&gt;Node3 -->
<g id="edge2" class="edge">
<title>Node2&#45;&gt;Node3</title>
<path fill="none" stroke="midnightblue" d="M159.83,-48C170.68,-48 186.25,-48 200.37,-48"/>
<polygon fill="midnightblue" stroke="midnightblue" points="200.78,-51.5 210.78,-48 200.78,-44.5 200.78,-51.5"/>
</g>
</g>
</svg>
