<?xml version="1.0" encoding="UTF-8" standalone="no"?>
<!DOCTYPE svg PUBLIC "-//W3C//DTD SVG 1.1//EN"
 "http://www.w3.org/Graphics/SVG/1.1/DTD/svg11.dtd">
<!-- Generated by graphviz version 5.0.0 (20220707.1540)
 -->
<!-- Title: main Pages: 1 -->
<svg width="270pt" height="66pt"
 viewBox="0.00 0.00 270.00 66.00" xmlns="http://www.w3.org/2000/svg" xmlns:xlink="http://www.w3.org/1999/xlink">
<g id="graph0" class="graph" transform="scale(1 1) rotate(0) translate(4 62)">
<title>main</title>
<polygon fill="white" stroke="transparent" points="-4,4 -4,-62 266,-62 266,4 -4,4"/>
<!-- Node1 -->
<g id="node1" class="node">
<title>Node1</title>
<g id="a_node1"><a xlink:title=" ">
<polygon fill="#bfbfbf" stroke="black" points="0,-19.5 0,-38.5 38,-38.5 38,-19.5 0,-19.5"/>
<text text-anchor="middle" x="19" y="-26.5" font-family="Helvetica,sans-Serif" font-size="10.00">main</text>
</a>
</g>
</g>
<!-- Node2 -->
<g id="node2" class="node">
<title>Node2</title>
<g id="a_node2"><a xlink:href="../../d9/d69/median__search_8cpp.html#ae1a3968e7947464bee7714f6d43b7002" target="_top" xlink:title=" ">
<polygon fill="white" stroke="black" points="74,-19.5 74,-38.5 107,-38.5 107,-19.5 74,-19.5"/>
<text text-anchor="middle" x="90.5" y="-26.5" font-family="Helvetica,sans-Serif" font-size="10.00">test</text>
</a>
</g>
</g>
<!-- Node1&#45;&gt;Node2 -->
<g id="edge1" class="edge">
<title>Node1&#45;&gt;Node2</title>
<path fill="none" stroke="midnightblue" d="M38.26,-29C46.07,-29 55.31,-29 63.79,-29"/>
<polygon fill="midnightblue" stroke="midnightblue" points="63.95,-32.5 73.95,-29 63.95,-25.5 63.95,-32.5"/>
</g>
<!-- Node3 -->
<g id="node3" class="node">
<title>Node3</title>
<g id="a_node3"><a xlink:href="../../d4/d18/composite__simpson__rule_8cpp.html#a6d50f1b8eb533b54721812d16a3699cc" target="_top" xlink:title="Another test function.">
<polygon fill="white" stroke="black" points="143,-19.5 143,-38.5 172,-38.5 172,-19.5 143,-19.5"/>
<text text-anchor="middle" x="157.5" y="-26.5" font-family="Helvetica,sans-Serif" font-size="10.00">k</text>
</a>
</g>
</g>
<!-- Node2&#45;&gt;Node3 -->
<g id="edge2" class="edge">
<title>Node2&#45;&gt;Node3</title>
<path fill="none" stroke="midnightblue" d="M107.23,-29C114.84,-29 124.14,-29 132.6,-29"/>
<polygon fill="midnightblue" stroke="midnightblue" points="132.68,-32.5 142.68,-29 132.68,-25.5 132.68,-32.5"/>
</g>
<!-- Node4 -->
<g id="node4" class="node">
<title>Node4</title>
<g id="a_node4"><a target="_blank" xlink:href="http://en.cppreference.com/w/cpp/numeric/math/pow.html#" xlink:title=" ">
<polygon fill="white" stroke="black" points="208,-38.5 208,-57.5 262,-57.5 262,-38.5 208,-38.5"/>
<text text-anchor="middle" x="235" y="-45.5" font-family="Helvetica,sans-Serif" font-size="10.00">std::pow</text>
</a>
</g>
</g>
<!-- Node3&#45;&gt;Node4 -->
<g id="edge3" class="edge">
<title>Node3&#45;&gt;Node4</title>
<path fill="none" stroke="midnightblue" d="M172.35,-32.48C179.6,-34.31 188.85,-36.64 197.97,-38.93"/>
<polygon fill="midnightblue" stroke="midnightblue" points="197.16,-42.34 207.71,-41.38 198.87,-35.55 197.16,-42.34"/>
</g>
<!-- Node5 -->
<g id="node5" class="node">
<title>Node5</title>
<g id="a_node5"><a target="_blank" xlink:href="http://en.cppreference.com/w/cpp/numeric/math/sqrt.html#" xlink:title=" ">
<polygon fill="white" stroke="black" points="208.5,-0.5 208.5,-19.5 261.5,-19.5 261.5,-0.5 208.5,-0.5"/>
<text text-anchor="middle" x="235" y="-7.5" font-family="Helvetica,sans-Serif" font-size="10.00">std::sqrt</text>
</a>
</g>
</g>
<!-- Node3&#45;&gt;Node5 -->
<g id="edge4" class="edge">
<title>Node3&#45;&gt;Node5</title>
<path fill="none" stroke="midnightblue" d="M172.35,-25.52C179.73,-23.66 189.17,-21.28 198.44,-18.95"/>
<polygon fill="midnightblue" stroke="midnightblue" points="199.48,-22.3 208.33,-16.46 197.78,-15.51 199.48,-22.3"/>
</g>
</g>
</svg>
