<?xml version="1.0" encoding="UTF-8" standalone="no"?>
<!DOCTYPE svg PUBLIC "-//W3C//DTD SVG 1.1//EN"
 "http://www.w3.org/Graphics/SVG/1.1/DTD/svg11.dtd">
<!-- Generated by graphviz version 5.0.0 (20220707.1540)
 -->
<!-- Title: search::median_search::median_of_medians Pages: 1 -->
<svg width="368pt" height="256pt"
 viewBox="0.00 0.00 368.00 256.00" xmlns="http://www.w3.org/2000/svg" xmlns:xlink="http://www.w3.org/1999/xlink">
<g id="graph0" class="graph" transform="scale(1 1) rotate(0) translate(4 252)">
<title>search::median_search::median_of_medians</title>
<polygon fill="white" stroke="transparent" points="-4,4 -4,-252 364,-252 364,4 -4,4"/>
<!-- Node1 -->
<g id="node1" class="node">
<title>Node1</title>
<g id="a_node1"><a xlink:title=" ">
<polygon fill="#bfbfbf" stroke="black" points="0,-109 0,-139 118,-139 118,-109 0,-109"/>
<text text-anchor="start" x="8" y="-127" font-family="Helvetica,sans-Serif" font-size="10.00">search::median_search</text>
<text text-anchor="middle" x="59" y="-116" font-family="Helvetica,sans-Serif" font-size="10.00">::median_of_medians</text>
</a>
</g>
</g>
<!-- Node1&#45;&gt;Node1 -->
<g id="edge6" class="edge">
<title>Node1&#45;&gt;Node1</title>
<path fill="none" stroke="midnightblue" d="M32.51,-139.16C26.12,-148.56 34.95,-157.5 59,-157.5 73.65,-157.5 82.66,-154.18 86.01,-149.46"/>
<polygon fill="midnightblue" stroke="midnightblue" points="89.49,-148.97 85.49,-139.16 82.5,-149.32 89.49,-148.97"/>
</g>
<!-- Node2 -->
<g id="node2" class="node">
<title>Node2</title>
<g id="a_node2"><a target="_blank" xlink:href="http://en.cppreference.com/w/cpp/container/vector/begin.html#" xlink:title=" ">
<polygon fill="white" stroke="black" points="166,-228.5 166,-247.5 258,-247.5 258,-228.5 166,-228.5"/>
<text text-anchor="middle" x="212" y="-235.5" font-family="Helvetica,sans-Serif" font-size="10.00">std::vector::begin</text>
</a>
</g>
</g>
<!-- Node1&#45;&gt;Node2 -->
<g id="edge1" class="edge">
<title>Node1&#45;&gt;Node2</title>
<path fill="none" stroke="midnightblue" d="M71.09,-139.01C87.18,-159.78 118.93,-197.19 154,-219 157.34,-221.08 160.94,-222.96 164.64,-224.65"/>
<polygon fill="midnightblue" stroke="midnightblue" points="163.39,-227.92 173.98,-228.48 166.05,-221.45 163.39,-227.92"/>
</g>
<!-- Node3 -->
<g id="node3" class="node">
<title>Node3</title>
<g id="a_node3"><a target="_blank" xlink:href="http://en.cppreference.com/w/cpp/container/vector/end.html#" xlink:title=" ">
<polygon fill="white" stroke="black" points="169.5,-190.5 169.5,-209.5 254.5,-209.5 254.5,-190.5 169.5,-190.5"/>
<text text-anchor="middle" x="212" y="-197.5" font-family="Helvetica,sans-Serif" font-size="10.00">std::vector::end</text>
</a>
</g>
</g>
<!-- Node1&#45;&gt;Node3 -->
<g id="edge2" class="edge">
<title>Node1&#45;&gt;Node3</title>
<path fill="none" stroke="midnightblue" d="M81.64,-139.04C100.21,-151.47 128.02,-168.98 154,-181 158.67,-183.16 163.66,-185.2 168.67,-187.07"/>
<polygon fill="midnightblue" stroke="midnightblue" points="167.66,-190.43 178.26,-190.48 170.01,-183.83 167.66,-190.43"/>
</g>
<!-- Node4 -->
<g id="node4" class="node">
<title>Node4</title>
<g id="a_node4"><a xlink:href="../../d4/d18/composite__simpson__rule_8cpp.html#a6d50f1b8eb533b54721812d16a3699cc" target="_top" xlink:title="Another test function.">
<polygon fill="white" stroke="black" points="197.5,-152.5 197.5,-171.5 226.5,-171.5 226.5,-152.5 197.5,-152.5"/>
<text text-anchor="middle" x="212" y="-159.5" font-family="Helvetica,sans-Serif" font-size="10.00">k</text>
</a>
</g>
</g>
<!-- Node1&#45;&gt;Node4 -->
<g id="edge3" class="edge">
<title>Node1&#45;&gt;Node4</title>
<path fill="none" stroke="midnightblue" d="M118.38,-138.69C142.52,-144.77 169.13,-151.46 187.61,-156.11"/>
<polygon fill="midnightblue" stroke="midnightblue" points="186.92,-159.55 197.47,-158.59 188.63,-152.76 186.92,-159.55"/>
</g>
<!-- Node7 -->
<g id="node7" class="node">
<title>Node7</title>
<g id="a_node7"><a target="_blank" xlink:href="http://en.cppreference.com/w/cpp/algorithm/min.html#" xlink:title=" ">
<polygon fill="white" stroke="black" points="186,-114.5 186,-133.5 238,-133.5 238,-114.5 186,-114.5"/>
<text text-anchor="middle" x="212" y="-121.5" font-family="Helvetica,sans-Serif" font-size="10.00">std::min</text>
</a>
</g>
</g>
<!-- Node1&#45;&gt;Node7 -->
<g id="edge7" class="edge">
<title>Node1&#45;&gt;Node7</title>
<path fill="none" stroke="midnightblue" d="M118.38,-124C137.76,-124 158.73,-124 175.81,-124"/>
<polygon fill="midnightblue" stroke="midnightblue" points="175.89,-127.5 185.89,-124 175.89,-120.5 175.89,-127.5"/>
</g>
<!-- Node8 -->
<g id="node8" class="node">
<title>Node8</title>
<g id="a_node8"><a target="_blank" xlink:href="http://en.cppreference.com/w/cpp/container/vector/push_back.html#" xlink:title=" ">
<polygon fill="white" stroke="black" points="154,-76.5 154,-95.5 270,-95.5 270,-76.5 154,-76.5"/>
<text text-anchor="middle" x="212" y="-83.5" font-family="Helvetica,sans-Serif" font-size="10.00">std::vector::push_back</text>
</a>
</g>
</g>
<!-- Node1&#45;&gt;Node8 -->
<g id="edge8" class="edge">
<title>Node1&#45;&gt;Node8</title>
<path fill="none" stroke="midnightblue" d="M118.38,-109.31C133.07,-105.61 148.68,-101.68 162.81,-98.13"/>
<polygon fill="midnightblue" stroke="midnightblue" points="163.96,-101.45 172.8,-95.61 162.25,-94.66 163.96,-101.45"/>
</g>
<!-- Node9 -->
<g id="node9" class="node">
<title>Node9</title>
<g id="a_node9"><a target="_blank" xlink:href="http://en.cppreference.com/w/cpp/container/vector/size.html#" xlink:title=" ">
<polygon fill="white" stroke="black" points="168.5,-38.5 168.5,-57.5 255.5,-57.5 255.5,-38.5 168.5,-38.5"/>
<text text-anchor="middle" x="212" y="-45.5" font-family="Helvetica,sans-Serif" font-size="10.00">std::vector::size</text>
</a>
</g>
</g>
<!-- Node1&#45;&gt;Node9 -->
<g id="edge9" class="edge">
<title>Node1&#45;&gt;Node9</title>
<path fill="none" stroke="midnightblue" d="M81.64,-108.96C100.21,-96.53 128.02,-79.02 154,-67 158.67,-64.84 163.66,-62.8 168.67,-60.93"/>
<polygon fill="midnightblue" stroke="midnightblue" points="170.01,-64.17 178.26,-57.52 167.66,-57.57 170.01,-64.17"/>
</g>
<!-- Node10 -->
<g id="node10" class="node">
<title>Node10</title>
<g id="a_node10"><a target="_blank" xlink:href="http://en.cppreference.com/w/cpp/algorithm/sort.html#" xlink:title=" ">
<polygon fill="white" stroke="black" points="185.5,-0.5 185.5,-19.5 238.5,-19.5 238.5,-0.5 185.5,-0.5"/>
<text text-anchor="middle" x="212" y="-7.5" font-family="Helvetica,sans-Serif" font-size="10.00">std::sort</text>
</a>
</g>
</g>
<!-- Node1&#45;&gt;Node10 -->
<g id="edge10" class="edge">
<title>Node1&#45;&gt;Node10</title>
<path fill="none" stroke="midnightblue" d="M71.09,-108.99C87.18,-88.22 118.93,-50.81 154,-29 160.65,-24.86 168.31,-21.52 175.8,-18.86"/>
<polygon fill="midnightblue" stroke="midnightblue" points="177.02,-22.14 185.47,-15.74 174.88,-15.48 177.02,-22.14"/>
</g>
<!-- Node5 -->
<g id="node5" class="node">
<title>Node5</title>
<g id="a_node5"><a target="_blank" xlink:href="http://en.cppreference.com/w/cpp/numeric/math/pow.html#" xlink:title=" ">
<polygon fill="white" stroke="black" points="306,-171.5 306,-190.5 360,-190.5 360,-171.5 306,-171.5"/>
<text text-anchor="middle" x="333" y="-178.5" font-family="Helvetica,sans-Serif" font-size="10.00">std::pow</text>
</a>
</g>
</g>
<!-- Node4&#45;&gt;Node5 -->
<g id="edge4" class="edge">
<title>Node4&#45;&gt;Node5</title>
<path fill="none" stroke="midnightblue" d="M226.65,-164.18C243.46,-166.86 272.64,-171.52 296.04,-175.26"/>
<polygon fill="midnightblue" stroke="midnightblue" points="295.56,-178.73 305.99,-176.85 296.66,-171.81 295.56,-178.73"/>
</g>
<!-- Node6 -->
<g id="node6" class="node">
<title>Node6</title>
<g id="a_node6"><a target="_blank" xlink:href="http://en.cppreference.com/w/cpp/numeric/math/sqrt.html#" xlink:title=" ">
<polygon fill="white" stroke="black" points="306.5,-133.5 306.5,-152.5 359.5,-152.5 359.5,-133.5 306.5,-133.5"/>
<text text-anchor="middle" x="333" y="-140.5" font-family="Helvetica,sans-Serif" font-size="10.00">std::sqrt</text>
</a>
</g>
</g>
<!-- Node4&#45;&gt;Node6 -->
<g id="edge5" class="edge">
<title>Node4&#45;&gt;Node6</title>
<path fill="none" stroke="midnightblue" d="M226.65,-159.82C243.56,-157.12 273.01,-152.42 296.48,-148.67"/>
<polygon fill="midnightblue" stroke="midnightblue" points="297.13,-152.11 306.45,-147.08 296.02,-145.2 297.13,-152.11"/>
</g>
</g>
</svg>
