<?xml version="1.0" encoding="UTF-8" standalone="no"?>
<!DOCTYPE svg PUBLIC "-//W3C//DTD SVG 1.1//EN"
 "http://www.w3.org/Graphics/SVG/1.1/DTD/svg11.dtd">
<!-- Generated by graphviz version 5.0.0 (20220707.1540)
 -->
<!-- Title: main Pages: 1 -->
<svg width="483pt" height="104pt"
 viewBox="0.00 0.00 483.00 104.00" xmlns="http://www.w3.org/2000/svg" xmlns:xlink="http://www.w3.org/1999/xlink">
<g id="graph0" class="graph" transform="scale(1 1) rotate(0) translate(4 100)">
<title>main</title>
<polygon fill="white" stroke="transparent" points="-4,4 -4,-100 479,-100 479,4 -4,4"/>
<!-- Node1 -->
<g id="node1" class="node">
<title>Node1</title>
<g id="a_node1"><a xlink:title=" ">
<polygon fill="#bfbfbf" stroke="black" points="0,-19.5 0,-38.5 38,-38.5 38,-19.5 0,-19.5"/>
<text text-anchor="middle" x="19" y="-26.5" font-family="Helvetica,sans-Serif" font-size="10.00">main</text>
</a>
</g>
</g>
<!-- Node2 -->
<g id="node2" class="node">
<title>Node2</title>
<g id="a_node2"><a xlink:href="../../dd/d91/class_fenwick_tree.html#a115ff5c548b429b737ea09f75817d1f9" target="_top" xlink:title=" ">
<polygon fill="white" stroke="black" points="74,-38.5 74,-57.5 201,-57.5 201,-38.5 74,-38.5"/>
<text text-anchor="middle" x="137.5" y="-45.5" font-family="Helvetica,sans-Serif" font-size="10.00">FenwickTree::sum_range</text>
</a>
</g>
</g>
<!-- Node1&#45;&gt;Node2 -->
<g id="edge1" class="edge">
<title>Node1&#45;&gt;Node2</title>
<path fill="none" stroke="midnightblue" d="M38.2,-31.97C46.53,-33.33 56.98,-35.03 67.93,-36.82"/>
<polygon fill="midnightblue" stroke="midnightblue" points="67.65,-40.32 78.08,-38.47 68.77,-33.41 67.65,-40.32"/>
</g>
<!-- Node7 -->
<g id="node7" class="node">
<title>Node7</title>
<g id="a_node7"><a xlink:href="../../dd/d91/class_fenwick_tree.html#a2e9ea4fcbe0786487f4535c1cfc7aa00" target="_top" xlink:title=" ">
<polygon fill="white" stroke="black" points="83.5,-0.5 83.5,-19.5 191.5,-19.5 191.5,-0.5 83.5,-0.5"/>
<text text-anchor="middle" x="137.5" y="-7.5" font-family="Helvetica,sans-Serif" font-size="10.00">FenwickTree::update</text>
</a>
</g>
</g>
<!-- Node1&#45;&gt;Node7 -->
<g id="edge6" class="edge">
<title>Node1&#45;&gt;Node7</title>
<path fill="none" stroke="midnightblue" d="M38.2,-26.03C47.94,-24.44 60.58,-22.38 73.53,-20.27"/>
<polygon fill="midnightblue" stroke="midnightblue" points="74.14,-23.72 83.45,-18.65 73.02,-16.81 74.14,-23.72"/>
</g>
<!-- Node3 -->
<g id="node3" class="node">
<title>Node3</title>
<g id="a_node3"><a xlink:href="../../d4/d18/composite__simpson__rule_8cpp.html#a995716bc040dc6cf32b5cb3df51c4529" target="_top" xlink:title="Another test function.">
<polygon fill="white" stroke="black" points="271.5,-76.5 271.5,-95.5 300.5,-95.5 300.5,-76.5 271.5,-76.5"/>
<text text-anchor="middle" x="286" y="-83.5" font-family="Helvetica,sans-Serif" font-size="10.00">l</text>
</a>
</g>
</g>
<!-- Node2&#45;&gt;Node3 -->
<g id="edge2" class="edge">
<title>Node2&#45;&gt;Node3</title>
<path fill="none" stroke="midnightblue" d="M175.47,-57.59C202.52,-64.61 238.4,-73.91 261.6,-79.93"/>
<polygon fill="midnightblue" stroke="midnightblue" points="260.73,-83.32 271.28,-82.44 262.48,-76.54 260.73,-83.32"/>
</g>
<!-- Node5 -->
<g id="node5" class="node">
<title>Node5</title>
<g id="a_node5"><a xlink:href="../../dd/d91/class_fenwick_tree.html#ade1d6a3d49af9d9df33e2fb26cab1699" target="_top" xlink:title=" ">
<polygon fill="white" stroke="black" points="237,-38.5 237,-57.5 335,-57.5 335,-38.5 237,-38.5"/>
<text text-anchor="middle" x="286" y="-45.5" font-family="Helvetica,sans-Serif" font-size="10.00">FenwickTree::sum</text>
</a>
</g>
</g>
<!-- Node2&#45;&gt;Node5 -->
<g id="edge4" class="edge">
<title>Node2&#45;&gt;Node5</title>
<path fill="none" stroke="midnightblue" d="M201.05,-48C209.57,-48 218.28,-48 226.72,-48"/>
<polygon fill="midnightblue" stroke="midnightblue" points="226.84,-51.5 236.84,-48 226.84,-44.5 226.84,-51.5"/>
</g>
<!-- Node4 -->
<g id="node4" class="node">
<title>Node4</title>
<g id="a_node4"><a target="_blank" xlink:href="http://en.cppreference.com/w/cpp/numeric/math/log.html#" xlink:title=" ">
<polygon fill="white" stroke="black" points="398.5,-76.5 398.5,-95.5 447.5,-95.5 447.5,-76.5 398.5,-76.5"/>
<text text-anchor="middle" x="423" y="-83.5" font-family="Helvetica,sans-Serif" font-size="10.00">std::log</text>
</a>
</g>
</g>
<!-- Node3&#45;&gt;Node4 -->
<g id="edge3" class="edge">
<title>Node3&#45;&gt;Node4</title>
<path fill="none" stroke="midnightblue" d="M300.69,-86C321.02,-86 359.82,-86 388.09,-86"/>
<polygon fill="midnightblue" stroke="midnightblue" points="388.34,-89.5 398.34,-86 388.34,-82.5 388.34,-89.5"/>
</g>
<!-- Node6 -->
<g id="node6" class="node">
<title>Node6</title>
<g id="a_node6"><a xlink:href="../../dd/d91/class_fenwick_tree.html#aaae15ea71455315e257baa11017cec10" target="_top" xlink:title=" ">
<polygon fill="white" stroke="black" points="371,-19.5 371,-38.5 475,-38.5 475,-19.5 371,-19.5"/>
<text text-anchor="middle" x="423" y="-26.5" font-family="Helvetica,sans-Serif" font-size="10.00">FenwickTree::offset</text>
</a>
</g>
</g>
<!-- Node5&#45;&gt;Node6 -->
<g id="edge5" class="edge">
<title>Node5&#45;&gt;Node6</title>
<path fill="none" stroke="midnightblue" d="M335.36,-41.19C343.62,-40.03 352.31,-38.81 360.85,-37.61"/>
<polygon fill="midnightblue" stroke="midnightblue" points="361.37,-41.07 370.79,-36.21 360.4,-34.14 361.37,-41.07"/>
</g>
<!-- Node7&#45;&gt;Node6 -->
<g id="edge7" class="edge">
<title>Node7&#45;&gt;Node6</title>
<path fill="none" stroke="midnightblue" d="M191.82,-13.57C239.84,-16.79 310.4,-21.52 360.73,-24.89"/>
<polygon fill="midnightblue" stroke="midnightblue" points="360.61,-28.39 370.82,-25.57 361.08,-21.41 360.61,-28.39"/>
</g>
</g>
</svg>
