<?xml version="1.0" encoding="UTF-8" standalone="no"?>
<!DOCTYPE svg PUBLIC "-//W3C//DTD SVG 1.1//EN"
 "http://www.w3.org/Graphics/SVG/1.1/DTD/svg11.dtd">
<!-- Generated by graphviz version 5.0.0 (20220707.1540)
 -->
<!-- Title: main Pages: 1 -->
<svg width="594pt" height="142pt"
 viewBox="0.00 0.00 594.00 142.00" xmlns="http://www.w3.org/2000/svg" xmlns:xlink="http://www.w3.org/1999/xlink">
<g id="graph0" class="graph" transform="scale(1 1) rotate(0) translate(4 138)">
<title>main</title>
<polygon fill="white" stroke="transparent" points="-4,4 -4,-138 590,-138 590,4 -4,4"/>
<!-- Node1 -->
<g id="node1" class="node">
<title>Node1</title>
<g id="a_node1"><a xlink:title="Main function.">
<polygon fill="#bfbfbf" stroke="black" points="0,-76.5 0,-95.5 38,-95.5 38,-76.5 0,-76.5"/>
<text text-anchor="middle" x="19" y="-83.5" font-family="Helvetica,sans-Serif" font-size="10.00">main</text>
</a>
</g>
</g>
<!-- Node2 -->
<g id="node2" class="node">
<title>Node2</title>
<g id="a_node2"><a xlink:href="../../d3/d80/z__function_8cpp.html#aa8dca7b867074164d5f45b0f3851269d" target="_top" xlink:title="Self&#45;test implementations.">
<polygon fill="white" stroke="black" points="74,-76.5 74,-95.5 107,-95.5 107,-76.5 74,-76.5"/>
<text text-anchor="middle" x="90.5" y="-83.5" font-family="Helvetica,sans-Serif" font-size="10.00">test</text>
</a>
</g>
</g>
<!-- Node1&#45;&gt;Node2 -->
<g id="edge1" class="edge">
<title>Node1&#45;&gt;Node2</title>
<path fill="none" stroke="midnightblue" d="M38.26,-86C46.07,-86 55.31,-86 63.79,-86"/>
<polygon fill="midnightblue" stroke="midnightblue" points="63.95,-89.5 73.95,-86 63.95,-82.5 63.95,-89.5"/>
</g>
<!-- Node3 -->
<g id="node3" class="node">
<title>Node3</title>
<g id="a_node3"><a xlink:href="../../d3/d80/z__function_8cpp.html#ac186ca3ac3a69b5e52543bb13fe46db8" target="_top" xlink:title="Using Z_function to find a pattern in a text.">
<polygon fill="white" stroke="black" points="143,-76.5 143,-95.5 229,-95.5 229,-76.5 143,-76.5"/>
<text text-anchor="middle" x="186" y="-83.5" font-family="Helvetica,sans-Serif" font-size="10.00">find_pat_in_text</text>
</a>
</g>
</g>
<!-- Node2&#45;&gt;Node3 -->
<g id="edge2" class="edge">
<title>Node2&#45;&gt;Node3</title>
<path fill="none" stroke="midnightblue" d="M107.36,-86C114.55,-86 123.51,-86 132.76,-86"/>
<polygon fill="midnightblue" stroke="midnightblue" points="132.84,-89.5 142.84,-86 132.84,-82.5 132.84,-89.5"/>
</g>
<!-- Node4 -->
<g id="node4" class="node">
<title>Node4</title>
<g id="a_node4"><a target="_blank" xlink:href="http://en.cppreference.com/w/cpp/container/vector/push_back.html#" xlink:title=" ">
<polygon fill="white" stroke="black" points="265,-114.5 265,-133.5 381,-133.5 381,-114.5 265,-114.5"/>
<text text-anchor="middle" x="323" y="-121.5" font-family="Helvetica,sans-Serif" font-size="10.00">std::vector::push_back</text>
</a>
</g>
</g>
<!-- Node3&#45;&gt;Node4 -->
<g id="edge3" class="edge">
<title>Node3&#45;&gt;Node4</title>
<path fill="none" stroke="midnightblue" d="M221.07,-95.59C238.41,-100.47 259.7,-106.46 278.25,-111.68"/>
<polygon fill="midnightblue" stroke="midnightblue" points="277.37,-115.07 287.94,-114.41 279.27,-108.34 277.37,-115.07"/>
</g>
<!-- Node5 -->
<g id="node5" class="node">
<title>Node5</title>
<g id="a_node5"><a target="_blank" xlink:href="http://en.cppreference.com/w/cpp/string/basic_string/size.html#" xlink:title=" ">
<polygon fill="white" stroke="black" points="417,-76.5 417,-95.5 501,-95.5 501,-76.5 417,-76.5"/>
<text text-anchor="middle" x="459" y="-83.5" font-family="Helvetica,sans-Serif" font-size="10.00">std::string::size</text>
</a>
</g>
</g>
<!-- Node3&#45;&gt;Node5 -->
<g id="edge4" class="edge">
<title>Node3&#45;&gt;Node5</title>
<path fill="none" stroke="midnightblue" d="M229.05,-86C276.89,-86 355.05,-86 406.51,-86"/>
<polygon fill="midnightblue" stroke="midnightblue" points="406.74,-89.5 416.74,-86 406.74,-82.5 406.74,-89.5"/>
</g>
<!-- Node6 -->
<g id="node6" class="node">
<title>Node6</title>
<g id="a_node6"><a xlink:href="../../d3/d80/z__function_8cpp.html#ac044c4794349a8cff6256b99950d5773" target="_top" xlink:title="for IO operations">
<polygon fill="white" stroke="black" points="292,-38.5 292,-57.5 354,-57.5 354,-38.5 292,-38.5"/>
<text text-anchor="middle" x="323" y="-45.5" font-family="Helvetica,sans-Serif" font-size="10.00">Z_function</text>
</a>
</g>
</g>
<!-- Node3&#45;&gt;Node6 -->
<g id="edge5" class="edge">
<title>Node3&#45;&gt;Node6</title>
<path fill="none" stroke="midnightblue" d="M221.07,-76.41C239.56,-71.21 262.53,-64.74 281.88,-59.29"/>
<polygon fill="midnightblue" stroke="midnightblue" points="282.95,-62.63 291.63,-56.55 281.06,-55.89 282.95,-62.63"/>
</g>
<!-- Node6&#45;&gt;Node5 -->
<g id="edge9" class="edge">
<title>Node6&#45;&gt;Node5</title>
<path fill="none" stroke="midnightblue" d="M354.07,-56.53C371.9,-61.58 394.79,-68.07 414.55,-73.68"/>
<polygon fill="midnightblue" stroke="midnightblue" points="413.68,-77.07 424.26,-76.43 415.59,-70.34 413.68,-77.07"/>
</g>
<!-- Node7 -->
<g id="node7" class="node">
<title>Node7</title>
<g id="a_node7"><a xlink:href="../../d4/d18/composite__simpson__rule_8cpp.html#a995716bc040dc6cf32b5cb3df51c4529" target="_top" xlink:title="Another test function.">
<polygon fill="white" stroke="black" points="444.5,-38.5 444.5,-57.5 473.5,-57.5 473.5,-38.5 444.5,-38.5"/>
<text text-anchor="middle" x="459" y="-45.5" font-family="Helvetica,sans-Serif" font-size="10.00">l</text>
</a>
</g>
</g>
<!-- Node6&#45;&gt;Node7 -->
<g id="edge6" class="edge">
<title>Node6&#45;&gt;Node7</title>
<path fill="none" stroke="midnightblue" d="M354.07,-48C378.23,-48 411.71,-48 434.07,-48"/>
<polygon fill="midnightblue" stroke="midnightblue" points="434.36,-51.5 444.36,-48 434.36,-44.5 434.36,-51.5"/>
</g>
<!-- Node9 -->
<g id="node9" class="node">
<title>Node9</title>
<g id="a_node9"><a target="_blank" xlink:href="http://en.cppreference.com/w/cpp/algorithm/min.html#" xlink:title=" ">
<polygon fill="white" stroke="black" points="433,-0.5 433,-19.5 485,-19.5 485,-0.5 433,-0.5"/>
<text text-anchor="middle" x="459" y="-7.5" font-family="Helvetica,sans-Serif" font-size="10.00">std::min</text>
</a>
</g>
</g>
<!-- Node6&#45;&gt;Node9 -->
<g id="edge8" class="edge">
<title>Node6&#45;&gt;Node9</title>
<path fill="none" stroke="midnightblue" d="M354.07,-39.47C374.59,-33.65 401.82,-25.93 423.27,-19.85"/>
<polygon fill="midnightblue" stroke="midnightblue" points="424.3,-23.19 432.97,-17.1 422.39,-16.46 424.3,-23.19"/>
</g>
<!-- Node8 -->
<g id="node8" class="node">
<title>Node8</title>
<g id="a_node8"><a target="_blank" xlink:href="http://en.cppreference.com/w/cpp/numeric/math/log.html#" xlink:title=" ">
<polygon fill="white" stroke="black" points="537,-38.5 537,-57.5 586,-57.5 586,-38.5 537,-38.5"/>
<text text-anchor="middle" x="561.5" y="-45.5" font-family="Helvetica,sans-Serif" font-size="10.00">std::log</text>
</a>
</g>
</g>
<!-- Node7&#45;&gt;Node8 -->
<g id="edge7" class="edge">
<title>Node7&#45;&gt;Node8</title>
<path fill="none" stroke="midnightblue" d="M473.55,-48C487.08,-48 508.41,-48 526.55,-48"/>
<polygon fill="midnightblue" stroke="midnightblue" points="526.78,-51.5 536.78,-48 526.78,-44.5 526.78,-51.5"/>
</g>
</g>
</svg>
