<?xml version="1.0" encoding="UTF-8" standalone="no"?>
<!DOCTYPE svg PUBLIC "-//W3C//DTD SVG 1.1//EN"
 "http://www.w3.org/Graphics/SVG/1.1/DTD/svg11.dtd">
<!-- Generated by graphviz version 5.0.0 (20220707.1540)
 -->
<!-- Title: test Pages: 1 -->
<svg width="520pt" height="142pt"
 viewBox="0.00 0.00 520.00 142.00" xmlns="http://www.w3.org/2000/svg" xmlns:xlink="http://www.w3.org/1999/xlink">
<g id="graph0" class="graph" transform="scale(1 1) rotate(0) translate(4 138)">
<title>test</title>
<polygon fill="white" stroke="transparent" points="-4,4 -4,-138 516,-138 516,4 -4,4"/>
<!-- Node1 -->
<g id="node1" class="node">
<title>Node1</title>
<g id="a_node1"><a xlink:title="Self&#45;test implementations.">
<polygon fill="#bfbfbf" stroke="black" points="0,-76.5 0,-95.5 33,-95.5 33,-76.5 0,-76.5"/>
<text text-anchor="middle" x="16.5" y="-83.5" font-family="Helvetica,sans-Serif" font-size="10.00">test</text>
</a>
</g>
</g>
<!-- Node2 -->
<g id="node2" class="node">
<title>Node2</title>
<g id="a_node2"><a xlink:href="../../d3/d80/z__function_8cpp.html#ac186ca3ac3a69b5e52543bb13fe46db8" target="_top" xlink:title="Using Z_function to find a pattern in a text.">
<polygon fill="white" stroke="black" points="69,-76.5 69,-95.5 155,-95.5 155,-76.5 69,-76.5"/>
<text text-anchor="middle" x="112" y="-83.5" font-family="Helvetica,sans-Serif" font-size="10.00">find_pat_in_text</text>
</a>
</g>
</g>
<!-- Node1&#45;&gt;Node2 -->
<g id="edge1" class="edge">
<title>Node1&#45;&gt;Node2</title>
<path fill="none" stroke="midnightblue" d="M33.36,-86C40.55,-86 49.51,-86 58.76,-86"/>
<polygon fill="midnightblue" stroke="midnightblue" points="58.84,-89.5 68.84,-86 58.84,-82.5 58.84,-89.5"/>
</g>
<!-- Node3 -->
<g id="node3" class="node">
<title>Node3</title>
<g id="a_node3"><a target="_blank" xlink:href="http://en.cppreference.com/w/cpp/container/vector/push_back.html#" xlink:title=" ">
<polygon fill="white" stroke="black" points="191,-114.5 191,-133.5 307,-133.5 307,-114.5 191,-114.5"/>
<text text-anchor="middle" x="249" y="-121.5" font-family="Helvetica,sans-Serif" font-size="10.00">std::vector::push_back</text>
</a>
</g>
</g>
<!-- Node2&#45;&gt;Node3 -->
<g id="edge2" class="edge">
<title>Node2&#45;&gt;Node3</title>
<path fill="none" stroke="midnightblue" d="M147.07,-95.59C164.41,-100.47 185.7,-106.46 204.25,-111.68"/>
<polygon fill="midnightblue" stroke="midnightblue" points="203.37,-115.07 213.94,-114.41 205.27,-108.34 203.37,-115.07"/>
</g>
<!-- Node4 -->
<g id="node4" class="node">
<title>Node4</title>
<g id="a_node4"><a target="_blank" xlink:href="http://en.cppreference.com/w/cpp/string/basic_string/size.html#" xlink:title=" ">
<polygon fill="white" stroke="black" points="343,-76.5 343,-95.5 427,-95.5 427,-76.5 343,-76.5"/>
<text text-anchor="middle" x="385" y="-83.5" font-family="Helvetica,sans-Serif" font-size="10.00">std::string::size</text>
</a>
</g>
</g>
<!-- Node2&#45;&gt;Node4 -->
<g id="edge3" class="edge">
<title>Node2&#45;&gt;Node4</title>
<path fill="none" stroke="midnightblue" d="M155.05,-86C202.89,-86 281.05,-86 332.51,-86"/>
<polygon fill="midnightblue" stroke="midnightblue" points="332.74,-89.5 342.74,-86 332.74,-82.5 332.74,-89.5"/>
</g>
<!-- Node5 -->
<g id="node5" class="node">
<title>Node5</title>
<g id="a_node5"><a xlink:href="../../d3/d80/z__function_8cpp.html#ac044c4794349a8cff6256b99950d5773" target="_top" xlink:title="for IO operations">
<polygon fill="white" stroke="black" points="218,-38.5 218,-57.5 280,-57.5 280,-38.5 218,-38.5"/>
<text text-anchor="middle" x="249" y="-45.5" font-family="Helvetica,sans-Serif" font-size="10.00">Z_function</text>
</a>
</g>
</g>
<!-- Node2&#45;&gt;Node5 -->
<g id="edge4" class="edge">
<title>Node2&#45;&gt;Node5</title>
<path fill="none" stroke="midnightblue" d="M147.07,-76.41C165.56,-71.21 188.53,-64.74 207.88,-59.29"/>
<polygon fill="midnightblue" stroke="midnightblue" points="208.95,-62.63 217.63,-56.55 207.06,-55.89 208.95,-62.63"/>
</g>
<!-- Node5&#45;&gt;Node4 -->
<g id="edge8" class="edge">
<title>Node5&#45;&gt;Node4</title>
<path fill="none" stroke="midnightblue" d="M280.07,-56.53C297.9,-61.58 320.79,-68.07 340.55,-73.68"/>
<polygon fill="midnightblue" stroke="midnightblue" points="339.68,-77.07 350.26,-76.43 341.59,-70.34 339.68,-77.07"/>
</g>
<!-- Node6 -->
<g id="node6" class="node">
<title>Node6</title>
<g id="a_node6"><a xlink:href="../../d4/d18/composite__simpson__rule_8cpp.html#a995716bc040dc6cf32b5cb3df51c4529" target="_top" xlink:title="Another test function.">
<polygon fill="white" stroke="black" points="370.5,-38.5 370.5,-57.5 399.5,-57.5 399.5,-38.5 370.5,-38.5"/>
<text text-anchor="middle" x="385" y="-45.5" font-family="Helvetica,sans-Serif" font-size="10.00">l</text>
</a>
</g>
</g>
<!-- Node5&#45;&gt;Node6 -->
<g id="edge5" class="edge">
<title>Node5&#45;&gt;Node6</title>
<path fill="none" stroke="midnightblue" d="M280.07,-48C304.23,-48 337.71,-48 360.07,-48"/>
<polygon fill="midnightblue" stroke="midnightblue" points="360.36,-51.5 370.36,-48 360.36,-44.5 360.36,-51.5"/>
</g>
<!-- Node8 -->
<g id="node8" class="node">
<title>Node8</title>
<g id="a_node8"><a target="_blank" xlink:href="http://en.cppreference.com/w/cpp/algorithm/min.html#" xlink:title=" ">
<polygon fill="white" stroke="black" points="359,-0.5 359,-19.5 411,-19.5 411,-0.5 359,-0.5"/>
<text text-anchor="middle" x="385" y="-7.5" font-family="Helvetica,sans-Serif" font-size="10.00">std::min</text>
</a>
</g>
</g>
<!-- Node5&#45;&gt;Node8 -->
<g id="edge7" class="edge">
<title>Node5&#45;&gt;Node8</title>
<path fill="none" stroke="midnightblue" d="M280.07,-39.47C300.59,-33.65 327.82,-25.93 349.27,-19.85"/>
<polygon fill="midnightblue" stroke="midnightblue" points="350.3,-23.19 358.97,-17.1 348.39,-16.46 350.3,-23.19"/>
</g>
<!-- Node7 -->
<g id="node7" class="node">
<title>Node7</title>
<g id="a_node7"><a target="_blank" xlink:href="http://en.cppreference.com/w/cpp/numeric/math/log.html#" xlink:title=" ">
<polygon fill="white" stroke="black" points="463,-38.5 463,-57.5 512,-57.5 512,-38.5 463,-38.5"/>
<text text-anchor="middle" x="487.5" y="-45.5" font-family="Helvetica,sans-Serif" font-size="10.00">std::log</text>
</a>
</g>
</g>
<!-- Node6&#45;&gt;Node7 -->
<g id="edge6" class="edge">
<title>Node6&#45;&gt;Node7</title>
<path fill="none" stroke="midnightblue" d="M399.55,-48C413.08,-48 434.41,-48 452.55,-48"/>
<polygon fill="midnightblue" stroke="midnightblue" points="452.78,-51.5 462.78,-48 452.78,-44.5 452.78,-51.5"/>
</g>
</g>
</svg>
