<?xml version="1.0" encoding="UTF-8" standalone="no"?>
<!DOCTYPE svg PUBLIC "-//W3C//DTD SVG 1.1//EN"
 "http://www.w3.org/Graphics/SVG/1.1/DTD/svg11.dtd">
<!-- Generated by graphviz version 5.0.0 (20220707.1540)
 -->
<!-- Title: main Pages: 1 -->
<svg width="625pt" height="272pt"
 viewBox="0.00 0.00 625.00 272.07" xmlns="http://www.w3.org/2000/svg" xmlns:xlink="http://www.w3.org/1999/xlink">
<g id="graph0" class="graph" transform="scale(1 1) rotate(0) translate(4 268.07)">
<title>main</title>
<polygon fill="white" stroke="transparent" points="-4,4 -4,-268.07 621,-268.07 621,4 -4,4"/>
<!-- Node1 -->
<g id="node1" class="node">
<title>Node1</title>
<g id="a_node1"><a xlink:title="Main function.">
<polygon fill="#bfbfbf" stroke="black" points="0,-87.07 0,-106.07 38,-106.07 38,-87.07 0,-87.07"/>
<text text-anchor="middle" x="19" y="-94.07" font-family="Helvetica,sans-Serif" font-size="10.00">main</text>
</a>
</g>
</g>
<!-- Node2 -->
<g id="node2" class="node">
<title>Node2</title>
<g id="a_node2"><a xlink:href="../../d5/d58/persistent__seg__tree__lazy__prop_8cpp.html#aa8dca7b867074164d5f45b0f3851269d" target="_top" xlink:title="Test implementations.">
<polygon fill="white" stroke="black" points="74,-87.07 74,-106.07 107,-106.07 107,-87.07 74,-87.07"/>
<text text-anchor="middle" x="90.5" y="-94.07" font-family="Helvetica,sans-Serif" font-size="10.00">test</text>
</a>
</g>
</g>
<!-- Node1&#45;&gt;Node2 -->
<g id="edge1" class="edge">
<title>Node1&#45;&gt;Node2</title>
<path fill="none" stroke="midnightblue" d="M38.26,-96.57C46.07,-96.57 55.31,-96.57 63.79,-96.57"/>
<polygon fill="midnightblue" stroke="midnightblue" points="63.95,-100.07 73.95,-96.57 63.95,-93.07 63.95,-100.07"/>
</g>
<!-- Node3 -->
<g id="node3" class="node">
<title>Node3</title>
<g id="a_node3"><a xlink:href="../../d8/d28/classrange__queries_1_1per_seg_tree.html#a6d3f2465a7c5803a1ff16c5378bcc5e4" target="_top" xlink:title="Constructing the segment tree with the early passed vector. Every call creates a node to hold the sum...">
<polygon fill="white" stroke="black" points="143,-215.57 143,-245.57 277,-245.57 277,-215.57 143,-215.57"/>
<text text-anchor="start" x="151" y="-233.57" font-family="Helvetica,sans-Serif" font-size="10.00">range_queries::perSegTree</text>
<text text-anchor="middle" x="210" y="-222.57" font-family="Helvetica,sans-Serif" font-size="10.00">::construct</text>
</a>
</g>
</g>
<!-- Node2&#45;&gt;Node3 -->
<g id="edge2" class="edge">
<title>Node2&#45;&gt;Node3</title>
<path fill="none" stroke="midnightblue" d="M93.42,-106.29C98.09,-127.49 112.04,-178.25 143,-206.57 144.3,-207.76 145.66,-208.89 147.08,-209.97"/>
<polygon fill="midnightblue" stroke="midnightblue" points="145.37,-213.03 155.67,-215.54 149.19,-207.16 145.37,-213.03"/>
</g>
<!-- Node4 -->
<g id="node4" class="node">
<title>Node4</title>
<g id="a_node4"><a xlink:href="../../d8/d28/classrange__queries_1_1per_seg_tree.html#ae8ae4b1835e5e8aec32f68c5059ed4d4" target="_top" xlink:title="Querying the range from index l to index r, checking at every node if it has some value to be propaga...">
<polygon fill="white" stroke="black" points="143,-148.57 143,-178.57 277,-178.57 277,-148.57 143,-148.57"/>
<text text-anchor="start" x="151" y="-166.57" font-family="Helvetica,sans-Serif" font-size="10.00">range_queries::perSegTree</text>
<text text-anchor="middle" x="210" y="-155.57" font-family="Helvetica,sans-Serif" font-size="10.00">::query</text>
</a>
</g>
</g>
<!-- Node2&#45;&gt;Node4 -->
<g id="edge4" class="edge">
<title>Node2&#45;&gt;Node4</title>
<path fill="none" stroke="midnightblue" d="M100.98,-106.26C110.77,-115.8 126.85,-130.28 143,-139.57 145.85,-141.21 148.84,-142.78 151.9,-144.26"/>
<polygon fill="midnightblue" stroke="midnightblue" points="150.67,-147.55 161.23,-148.46 153.55,-141.16 150.67,-147.55"/>
</g>
<!-- Node9 -->
<g id="node9" class="node">
<title>Node9</title>
<g id="a_node9"><a xlink:href="../../d8/d28/classrange__queries_1_1per_seg_tree.html#a0fe4e431f3e09c274ecd7d2d58dcb865" target="_top" xlink:title="Getting the number of versions after updates so far which is equal to the size of the pointers vector...">
<polygon fill="white" stroke="black" points="143,-32.57 143,-62.57 277,-62.57 277,-32.57 143,-32.57"/>
<text text-anchor="start" x="151" y="-50.57" font-family="Helvetica,sans-Serif" font-size="10.00">range_queries::perSegTree</text>
<text text-anchor="middle" x="210" y="-39.57" font-family="Helvetica,sans-Serif" font-size="10.00">::size</text>
</a>
</g>
</g>
<!-- Node2&#45;&gt;Node9 -->
<g id="edge10" class="edge">
<title>Node2&#45;&gt;Node9</title>
<path fill="none" stroke="midnightblue" d="M107.14,-88.91C117.28,-84.04 130.82,-77.71 143,-72.57 148.01,-70.46 153.27,-68.33 158.53,-66.25"/>
<polygon fill="midnightblue" stroke="midnightblue" points="159.92,-69.46 167.97,-62.57 157.38,-62.94 159.92,-69.46"/>
</g>
<!-- Node10 -->
<g id="node10" class="node">
<title>Node10</title>
<g id="a_node10"><a target="_blank" xlink:href="http://en.cppreference.com/w/cpp/container/vector/size.html#" xlink:title=" ">
<polygon fill="white" stroke="black" points="336.5,-11.07 336.5,-30.07 423.5,-30.07 423.5,-11.07 336.5,-11.07"/>
<text text-anchor="middle" x="380" y="-18.07" font-family="Helvetica,sans-Serif" font-size="10.00">std::vector::size</text>
</a>
</g>
</g>
<!-- Node2&#45;&gt;Node10 -->
<g id="edge12" class="edge">
<title>Node2&#45;&gt;Node10</title>
<path fill="none" stroke="midnightblue" d="M94.86,-86.86C101.24,-70.13 116.84,-36.38 143,-22.57 202.33,8.74 282.3,0.82 332.24,-8.96"/>
<polygon fill="midnightblue" stroke="midnightblue" points="331.62,-12.4 342.12,-10.99 333.03,-5.55 331.62,-12.4"/>
</g>
<!-- Node11 -->
<g id="node11" class="node">
<title>Node11</title>
<g id="a_node11"><a xlink:href="../../d8/d28/classrange__queries_1_1per_seg_tree.html#a24487eda25123bc4d112e8430821a6c6" target="_top" xlink:title="Doing range update, checking at every node if it has some value to be propagated. All nodes affected ...">
<polygon fill="white" stroke="black" points="143,-81.57 143,-111.57 277,-111.57 277,-81.57 143,-81.57"/>
<text text-anchor="start" x="151" y="-99.57" font-family="Helvetica,sans-Serif" font-size="10.00">range_queries::perSegTree</text>
<text text-anchor="middle" x="210" y="-88.57" font-family="Helvetica,sans-Serif" font-size="10.00">::update</text>
</a>
</g>
</g>
<!-- Node2&#45;&gt;Node11 -->
<g id="edge13" class="edge">
<title>Node2&#45;&gt;Node11</title>
<path fill="none" stroke="midnightblue" d="M107.35,-96.57C114.37,-96.57 123.18,-96.57 132.68,-96.57"/>
<polygon fill="midnightblue" stroke="midnightblue" points="132.76,-100.07 142.76,-96.57 132.76,-93.07 132.76,-100.07"/>
</g>
<!-- Node3&#45;&gt;Node3 -->
<g id="edge3" class="edge">
<title>Node3&#45;&gt;Node3</title>
<path fill="none" stroke="midnightblue" d="M189.44,-245.73C184.48,-255.13 191.33,-264.07 210,-264.07 221.38,-264.07 228.36,-260.75 230.97,-256.03"/>
<polygon fill="midnightblue" stroke="midnightblue" points="234.45,-255.59 230.56,-245.73 227.46,-255.86 234.45,-255.59"/>
</g>
<!-- Node4&#45;&gt;Node4 -->
<g id="edge9" class="edge">
<title>Node4&#45;&gt;Node4</title>
<path fill="none" stroke="midnightblue" d="M189.44,-178.73C184.48,-188.13 191.33,-197.07 210,-197.07 221.38,-197.07 228.36,-193.75 230.97,-189.03"/>
<polygon fill="midnightblue" stroke="midnightblue" points="234.45,-188.59 230.56,-178.73 227.46,-188.86 234.45,-188.59"/>
</g>
<!-- Node5 -->
<g id="node5" class="node">
<title>Node5</title>
<g id="a_node5"><a xlink:href="../../d4/d18/composite__simpson__rule_8cpp.html#a995716bc040dc6cf32b5cb3df51c4529" target="_top" xlink:title="Another test function.">
<polygon fill="white" stroke="black" points="365.5,-154.07 365.5,-173.07 394.5,-173.07 394.5,-154.07 365.5,-154.07"/>
<text text-anchor="middle" x="380" y="-161.07" font-family="Helvetica,sans-Serif" font-size="10.00">l</text>
</a>
</g>
</g>
<!-- Node4&#45;&gt;Node5 -->
<g id="edge5" class="edge">
<title>Node4&#45;&gt;Node5</title>
<path fill="none" stroke="midnightblue" d="M277.4,-163.57C304.79,-163.57 334.8,-163.57 355.05,-163.57"/>
<polygon fill="midnightblue" stroke="midnightblue" points="355.22,-167.07 365.22,-163.57 355.22,-160.07 355.22,-167.07"/>
</g>
<!-- Node7 -->
<g id="node7" class="node">
<title>Node7</title>
<g id="a_node7"><a xlink:href="../../d8/d28/classrange__queries_1_1per_seg_tree.html#ace7f57935b3bb9446f11c239fd89ae79" target="_top" xlink:title="If there is some value to be propagated to the passed node, value is added to the node and the childr...">
<polygon fill="white" stroke="black" points="313,-104.57 313,-134.57 447,-134.57 447,-104.57 313,-104.57"/>
<text text-anchor="start" x="321" y="-122.57" font-family="Helvetica,sans-Serif" font-size="10.00">range_queries::perSegTree</text>
<text text-anchor="middle" x="380" y="-111.57" font-family="Helvetica,sans-Serif" font-size="10.00">::lazy</text>
</a>
</g>
</g>
<!-- Node4&#45;&gt;Node7 -->
<g id="edge7" class="edge">
<title>Node4&#45;&gt;Node7</title>
<path fill="none" stroke="midnightblue" d="M268.35,-148.55C282.33,-144.89 297.4,-140.94 311.8,-137.17"/>
<polygon fill="midnightblue" stroke="midnightblue" points="312.84,-140.52 321.63,-134.6 311.07,-133.75 312.84,-140.52"/>
</g>
<!-- Node6 -->
<g id="node6" class="node">
<title>Node6</title>
<g id="a_node6"><a target="_blank" xlink:href="http://en.cppreference.com/w/cpp/numeric/math/log.html#" xlink:title=" ">
<polygon fill="white" stroke="black" points="525.5,-154.07 525.5,-173.07 574.5,-173.07 574.5,-154.07 525.5,-154.07"/>
<text text-anchor="middle" x="550" y="-161.07" font-family="Helvetica,sans-Serif" font-size="10.00">std::log</text>
</a>
</g>
</g>
<!-- Node5&#45;&gt;Node6 -->
<g id="edge6" class="edge">
<title>Node5&#45;&gt;Node6</title>
<path fill="none" stroke="midnightblue" d="M394.75,-163.57C420.78,-163.57 477.97,-163.57 514.93,-163.57"/>
<polygon fill="midnightblue" stroke="midnightblue" points="515.23,-167.07 525.23,-163.57 515.23,-160.07 515.23,-167.07"/>
</g>
<!-- Node8 -->
<g id="node8" class="node">
<title>Node8</title>
<g id="a_node8"><a xlink:href="../../d8/d28/classrange__queries_1_1per_seg_tree.html#a0cec4b77d264521717cf9b0482c45817" target="_top" xlink:title="Creating a new node with the same values of curr node.">
<polygon fill="white" stroke="black" points="483,-82.57 483,-112.57 617,-112.57 617,-82.57 483,-82.57"/>
<text text-anchor="start" x="491" y="-100.57" font-family="Helvetica,sans-Serif" font-size="10.00">range_queries::perSegTree</text>
<text text-anchor="middle" x="550" y="-89.57" font-family="Helvetica,sans-Serif" font-size="10.00">::newKid</text>
</a>
</g>
</g>
<!-- Node7&#45;&gt;Node8 -->
<g id="edge8" class="edge">
<title>Node7&#45;&gt;Node8</title>
<path fill="none" stroke="midnightblue" d="M447.4,-110.88C455.77,-109.78 464.39,-108.65 472.89,-107.54"/>
<polygon fill="midnightblue" stroke="midnightblue" points="473.35,-111.01 482.81,-106.24 472.44,-104.07 473.35,-111.01"/>
</g>
<!-- Node9&#45;&gt;Node10 -->
<g id="edge11" class="edge">
<title>Node9&#45;&gt;Node10</title>
<path fill="none" stroke="midnightblue" d="M277.4,-36.9C293.65,-34.29 310.82,-31.53 326.33,-29.04"/>
<polygon fill="midnightblue" stroke="midnightblue" points="326.94,-32.48 336.25,-27.44 325.82,-25.57 326.94,-32.48"/>
</g>
<!-- Node11&#45;&gt;Node5 -->
<g id="edge14" class="edge">
<title>Node11&#45;&gt;Node5</title>
<path fill="none" stroke="midnightblue" d="M239.92,-111.7C260.06,-121.85 287.72,-135.06 313,-144.57 326.86,-149.79 342.81,-154.42 355.56,-157.8"/>
<polygon fill="midnightblue" stroke="midnightblue" points="354.84,-161.23 365.4,-160.33 356.58,-154.45 354.84,-161.23"/>
</g>
<!-- Node11&#45;&gt;Node7 -->
<g id="edge15" class="edge">
<title>Node11&#45;&gt;Node7</title>
<path fill="none" stroke="midnightblue" d="M277.4,-105.66C285.77,-106.81 294.39,-107.99 302.89,-109.15"/>
<polygon fill="midnightblue" stroke="midnightblue" points="302.43,-112.62 312.81,-110.51 303.38,-105.69 302.43,-112.62"/>
</g>
<!-- Node11&#45;&gt;Node8 -->
<g id="edge16" class="edge">
<title>Node11&#45;&gt;Node8</title>
<path fill="none" stroke="midnightblue" d="M277.12,-95.8C324.44,-95.36 389.64,-95.01 447,-95.57 455.34,-95.65 464.06,-95.77 472.74,-95.91"/>
<polygon fill="midnightblue" stroke="midnightblue" points="472.83,-99.41 482.89,-96.09 472.95,-92.42 472.83,-99.41"/>
</g>
<!-- Node11&#45;&gt;Node11 -->
<g id="edge17" class="edge">
<title>Node11&#45;&gt;Node11</title>
<path fill="none" stroke="midnightblue" d="M189.44,-111.73C184.48,-121.13 191.33,-130.07 210,-130.07 221.38,-130.07 228.36,-126.75 230.97,-122.03"/>
<polygon fill="midnightblue" stroke="midnightblue" points="234.45,-121.59 230.56,-111.73 227.46,-121.86 234.45,-121.59"/>
</g>
</g>
</svg>
