<?xml version="1.0" encoding="UTF-8" standalone="no"?>
<!DOCTYPE svg PUBLIC "-//W3C//DTD SVG 1.1//EN"
 "http://www.w3.org/Graphics/SVG/1.1/DTD/svg11.dtd">
<!-- Generated by graphviz version 5.0.0 (20220707.1540)
 -->
<!-- Title: test Pages: 1 -->
<svg width="551pt" height="272pt"
 viewBox="0.00 0.00 551.00 272.07" xmlns="http://www.w3.org/2000/svg" xmlns:xlink="http://www.w3.org/1999/xlink">
<g id="graph0" class="graph" transform="scale(1 1) rotate(0) translate(4 268.07)">
<title>test</title>
<polygon fill="white" stroke="transparent" points="-4,4 -4,-268.07 547,-268.07 547,4 -4,4"/>
<!-- Node1 -->
<g id="node1" class="node">
<title>Node1</title>
<g id="a_node1"><a xlink:title="Test implementations.">
<polygon fill="#bfbfbf" stroke="black" points="0,-87.07 0,-106.07 33,-106.07 33,-87.07 0,-87.07"/>
<text text-anchor="middle" x="16.5" y="-94.07" font-family="Helvetica,sans-Serif" font-size="10.00">test</text>
</a>
</g>
</g>
<!-- Node2 -->
<g id="node2" class="node">
<title>Node2</title>
<g id="a_node2"><a xlink:href="../../d8/d28/classrange__queries_1_1per_seg_tree.html#a6d3f2465a7c5803a1ff16c5378bcc5e4" target="_top" xlink:title="Constructing the segment tree with the early passed vector. Every call creates a node to hold the sum...">
<polygon fill="white" stroke="black" points="69,-215.57 69,-245.57 203,-245.57 203,-215.57 69,-215.57"/>
<text text-anchor="start" x="77" y="-233.57" font-family="Helvetica,sans-Serif" font-size="10.00">range_queries::perSegTree</text>
<text text-anchor="middle" x="136" y="-222.57" font-family="Helvetica,sans-Serif" font-size="10.00">::construct</text>
</a>
</g>
</g>
<!-- Node1&#45;&gt;Node2 -->
<g id="edge1" class="edge">
<title>Node1&#45;&gt;Node2</title>
<path fill="none" stroke="midnightblue" d="M19.42,-106.29C24.09,-127.49 38.04,-178.25 69,-206.57 70.3,-207.76 71.66,-208.89 73.08,-209.97"/>
<polygon fill="midnightblue" stroke="midnightblue" points="71.37,-213.03 81.67,-215.54 75.19,-207.16 71.37,-213.03"/>
</g>
<!-- Node3 -->
<g id="node3" class="node">
<title>Node3</title>
<g id="a_node3"><a xlink:href="../../d8/d28/classrange__queries_1_1per_seg_tree.html#ae8ae4b1835e5e8aec32f68c5059ed4d4" target="_top" xlink:title="Querying the range from index l to index r, checking at every node if it has some value to be propaga...">
<polygon fill="white" stroke="black" points="69,-148.57 69,-178.57 203,-178.57 203,-148.57 69,-148.57"/>
<text text-anchor="start" x="77" y="-166.57" font-family="Helvetica,sans-Serif" font-size="10.00">range_queries::perSegTree</text>
<text text-anchor="middle" x="136" y="-155.57" font-family="Helvetica,sans-Serif" font-size="10.00">::query</text>
</a>
</g>
</g>
<!-- Node1&#45;&gt;Node3 -->
<g id="edge3" class="edge">
<title>Node1&#45;&gt;Node3</title>
<path fill="none" stroke="midnightblue" d="M26.98,-106.26C36.77,-115.8 52.85,-130.28 69,-139.57 71.85,-141.21 74.84,-142.78 77.9,-144.26"/>
<polygon fill="midnightblue" stroke="midnightblue" points="76.67,-147.55 87.23,-148.46 79.55,-141.16 76.67,-147.55"/>
</g>
<!-- Node8 -->
<g id="node8" class="node">
<title>Node8</title>
<g id="a_node8"><a xlink:href="../../d8/d28/classrange__queries_1_1per_seg_tree.html#a0fe4e431f3e09c274ecd7d2d58dcb865" target="_top" xlink:title="Getting the number of versions after updates so far which is equal to the size of the pointers vector...">
<polygon fill="white" stroke="black" points="69,-32.57 69,-62.57 203,-62.57 203,-32.57 69,-32.57"/>
<text text-anchor="start" x="77" y="-50.57" font-family="Helvetica,sans-Serif" font-size="10.00">range_queries::perSegTree</text>
<text text-anchor="middle" x="136" y="-39.57" font-family="Helvetica,sans-Serif" font-size="10.00">::size</text>
</a>
</g>
</g>
<!-- Node1&#45;&gt;Node8 -->
<g id="edge9" class="edge">
<title>Node1&#45;&gt;Node8</title>
<path fill="none" stroke="midnightblue" d="M33.14,-88.91C43.28,-84.04 56.82,-77.71 69,-72.57 74.01,-70.46 79.27,-68.33 84.53,-66.25"/>
<polygon fill="midnightblue" stroke="midnightblue" points="85.92,-69.46 93.97,-62.57 83.38,-62.94 85.92,-69.46"/>
</g>
<!-- Node9 -->
<g id="node9" class="node">
<title>Node9</title>
<g id="a_node9"><a target="_blank" xlink:href="http://en.cppreference.com/w/cpp/container/vector/size.html#" xlink:title=" ">
<polygon fill="white" stroke="black" points="262.5,-11.07 262.5,-30.07 349.5,-30.07 349.5,-11.07 262.5,-11.07"/>
<text text-anchor="middle" x="306" y="-18.07" font-family="Helvetica,sans-Serif" font-size="10.00">std::vector::size</text>
</a>
</g>
</g>
<!-- Node1&#45;&gt;Node9 -->
<g id="edge11" class="edge">
<title>Node1&#45;&gt;Node9</title>
<path fill="none" stroke="midnightblue" d="M20.86,-86.86C27.24,-70.13 42.84,-36.38 69,-22.57 128.33,8.74 208.3,0.82 258.24,-8.96"/>
<polygon fill="midnightblue" stroke="midnightblue" points="257.62,-12.4 268.12,-10.99 259.03,-5.55 257.62,-12.4"/>
</g>
<!-- Node10 -->
<g id="node10" class="node">
<title>Node10</title>
<g id="a_node10"><a xlink:href="../../d8/d28/classrange__queries_1_1per_seg_tree.html#a24487eda25123bc4d112e8430821a6c6" target="_top" xlink:title="Doing range update, checking at every node if it has some value to be propagated. All nodes affected ...">
<polygon fill="white" stroke="black" points="69,-81.57 69,-111.57 203,-111.57 203,-81.57 69,-81.57"/>
<text text-anchor="start" x="77" y="-99.57" font-family="Helvetica,sans-Serif" font-size="10.00">range_queries::perSegTree</text>
<text text-anchor="middle" x="136" y="-88.57" font-family="Helvetica,sans-Serif" font-size="10.00">::update</text>
</a>
</g>
</g>
<!-- Node1&#45;&gt;Node10 -->
<g id="edge12" class="edge">
<title>Node1&#45;&gt;Node10</title>
<path fill="none" stroke="midnightblue" d="M33.35,-96.57C40.37,-96.57 49.18,-96.57 58.68,-96.57"/>
<polygon fill="midnightblue" stroke="midnightblue" points="58.76,-100.07 68.76,-96.57 58.76,-93.07 58.76,-100.07"/>
</g>
<!-- Node2&#45;&gt;Node2 -->
<g id="edge2" class="edge">
<title>Node2&#45;&gt;Node2</title>
<path fill="none" stroke="midnightblue" d="M115.44,-245.73C110.48,-255.13 117.33,-264.07 136,-264.07 147.38,-264.07 154.36,-260.75 156.97,-256.03"/>
<polygon fill="midnightblue" stroke="midnightblue" points="160.45,-255.59 156.56,-245.73 153.46,-255.86 160.45,-255.59"/>
</g>
<!-- Node3&#45;&gt;Node3 -->
<g id="edge8" class="edge">
<title>Node3&#45;&gt;Node3</title>
<path fill="none" stroke="midnightblue" d="M115.44,-178.73C110.48,-188.13 117.33,-197.07 136,-197.07 147.38,-197.07 154.36,-193.75 156.97,-189.03"/>
<polygon fill="midnightblue" stroke="midnightblue" points="160.45,-188.59 156.56,-178.73 153.46,-188.86 160.45,-188.59"/>
</g>
<!-- Node4 -->
<g id="node4" class="node">
<title>Node4</title>
<g id="a_node4"><a xlink:href="../../d4/d18/composite__simpson__rule_8cpp.html#a995716bc040dc6cf32b5cb3df51c4529" target="_top" xlink:title="Another test function.">
<polygon fill="white" stroke="black" points="291.5,-154.07 291.5,-173.07 320.5,-173.07 320.5,-154.07 291.5,-154.07"/>
<text text-anchor="middle" x="306" y="-161.07" font-family="Helvetica,sans-Serif" font-size="10.00">l</text>
</a>
</g>
</g>
<!-- Node3&#45;&gt;Node4 -->
<g id="edge4" class="edge">
<title>Node3&#45;&gt;Node4</title>
<path fill="none" stroke="midnightblue" d="M203.4,-163.57C230.79,-163.57 260.8,-163.57 281.05,-163.57"/>
<polygon fill="midnightblue" stroke="midnightblue" points="281.22,-167.07 291.22,-163.57 281.22,-160.07 281.22,-167.07"/>
</g>
<!-- Node6 -->
<g id="node6" class="node">
<title>Node6</title>
<g id="a_node6"><a xlink:href="../../d8/d28/classrange__queries_1_1per_seg_tree.html#ace7f57935b3bb9446f11c239fd89ae79" target="_top" xlink:title="If there is some value to be propagated to the passed node, value is added to the node and the childr...">
<polygon fill="white" stroke="black" points="239,-104.57 239,-134.57 373,-134.57 373,-104.57 239,-104.57"/>
<text text-anchor="start" x="247" y="-122.57" font-family="Helvetica,sans-Serif" font-size="10.00">range_queries::perSegTree</text>
<text text-anchor="middle" x="306" y="-111.57" font-family="Helvetica,sans-Serif" font-size="10.00">::lazy</text>
</a>
</g>
</g>
<!-- Node3&#45;&gt;Node6 -->
<g id="edge6" class="edge">
<title>Node3&#45;&gt;Node6</title>
<path fill="none" stroke="midnightblue" d="M194.35,-148.55C208.33,-144.89 223.4,-140.94 237.8,-137.17"/>
<polygon fill="midnightblue" stroke="midnightblue" points="238.84,-140.52 247.63,-134.6 237.07,-133.75 238.84,-140.52"/>
</g>
<!-- Node5 -->
<g id="node5" class="node">
<title>Node5</title>
<g id="a_node5"><a target="_blank" xlink:href="http://en.cppreference.com/w/cpp/numeric/math/log.html#" xlink:title=" ">
<polygon fill="white" stroke="black" points="451.5,-154.07 451.5,-173.07 500.5,-173.07 500.5,-154.07 451.5,-154.07"/>
<text text-anchor="middle" x="476" y="-161.07" font-family="Helvetica,sans-Serif" font-size="10.00">std::log</text>
</a>
</g>
</g>
<!-- Node4&#45;&gt;Node5 -->
<g id="edge5" class="edge">
<title>Node4&#45;&gt;Node5</title>
<path fill="none" stroke="midnightblue" d="M320.75,-163.57C346.78,-163.57 403.97,-163.57 440.93,-163.57"/>
<polygon fill="midnightblue" stroke="midnightblue" points="441.23,-167.07 451.23,-163.57 441.23,-160.07 441.23,-167.07"/>
</g>
<!-- Node7 -->
<g id="node7" class="node">
<title>Node7</title>
<g id="a_node7"><a xlink:href="../../d8/d28/classrange__queries_1_1per_seg_tree.html#a0cec4b77d264521717cf9b0482c45817" target="_top" xlink:title="Creating a new node with the same values of curr node.">
<polygon fill="white" stroke="black" points="409,-82.57 409,-112.57 543,-112.57 543,-82.57 409,-82.57"/>
<text text-anchor="start" x="417" y="-100.57" font-family="Helvetica,sans-Serif" font-size="10.00">range_queries::perSegTree</text>
<text text-anchor="middle" x="476" y="-89.57" font-family="Helvetica,sans-Serif" font-size="10.00">::newKid</text>
</a>
</g>
</g>
<!-- Node6&#45;&gt;Node7 -->
<g id="edge7" class="edge">
<title>Node6&#45;&gt;Node7</title>
<path fill="none" stroke="midnightblue" d="M373.4,-110.88C381.77,-109.78 390.39,-108.65 398.89,-107.54"/>
<polygon fill="midnightblue" stroke="midnightblue" points="399.35,-111.01 408.81,-106.24 398.44,-104.07 399.35,-111.01"/>
</g>
<!-- Node8&#45;&gt;Node9 -->
<g id="edge10" class="edge">
<title>Node8&#45;&gt;Node9</title>
<path fill="none" stroke="midnightblue" d="M203.4,-36.9C219.65,-34.29 236.82,-31.53 252.33,-29.04"/>
<polygon fill="midnightblue" stroke="midnightblue" points="252.94,-32.48 262.25,-27.44 251.82,-25.57 252.94,-32.48"/>
</g>
<!-- Node10&#45;&gt;Node4 -->
<g id="edge13" class="edge">
<title>Node10&#45;&gt;Node4</title>
<path fill="none" stroke="midnightblue" d="M165.92,-111.7C186.06,-121.85 213.72,-135.06 239,-144.57 252.86,-149.79 268.81,-154.42 281.56,-157.8"/>
<polygon fill="midnightblue" stroke="midnightblue" points="280.84,-161.23 291.4,-160.33 282.58,-154.45 280.84,-161.23"/>
</g>
<!-- Node10&#45;&gt;Node6 -->
<g id="edge14" class="edge">
<title>Node10&#45;&gt;Node6</title>
<path fill="none" stroke="midnightblue" d="M203.4,-105.66C211.77,-106.81 220.39,-107.99 228.89,-109.15"/>
<polygon fill="midnightblue" stroke="midnightblue" points="228.43,-112.62 238.81,-110.51 229.38,-105.69 228.43,-112.62"/>
</g>
<!-- Node10&#45;&gt;Node7 -->
<g id="edge15" class="edge">
<title>Node10&#45;&gt;Node7</title>
<path fill="none" stroke="midnightblue" d="M203.12,-95.8C250.44,-95.36 315.64,-95.01 373,-95.57 381.34,-95.65 390.06,-95.77 398.74,-95.91"/>
<polygon fill="midnightblue" stroke="midnightblue" points="398.83,-99.41 408.89,-96.09 398.95,-92.42 398.83,-99.41"/>
</g>
<!-- Node10&#45;&gt;Node10 -->
<g id="edge16" class="edge">
<title>Node10&#45;&gt;Node10</title>
<path fill="none" stroke="midnightblue" d="M115.44,-111.73C110.48,-121.13 117.33,-130.07 136,-130.07 147.38,-130.07 154.36,-126.75 156.97,-122.03"/>
<polygon fill="midnightblue" stroke="midnightblue" points="160.45,-121.59 156.56,-111.73 153.46,-121.86 160.45,-121.59"/>
</g>
</g>
</svg>
