<?xml version="1.0" encoding="UTF-8" standalone="no"?>
<!DOCTYPE svg PUBLIC "-//W3C//DTD SVG 1.1//EN"
 "http://www.w3.org/Graphics/SVG/1.1/DTD/svg11.dtd">
<!-- Generated by graphviz version 5.0.0 (20220707.1540)
 -->
<!-- Title: simpson_method::evaluate_by_simpson Pages: 1 -->
<svg width="263pt" height="142pt"
 viewBox="0.00 0.00 263.00 142.00" xmlns="http://www.w3.org/2000/svg" xmlns:xlink="http://www.w3.org/1999/xlink">
<g id="graph0" class="graph" transform="scale(1 1) rotate(0) translate(4 138)">
<title>simpson_method::evaluate_by_simpson</title>
<polygon fill="white" stroke="transparent" points="-4,4 -4,-138 259,-138 259,4 -4,4"/>
<!-- Node1 -->
<g id="node1" class="node">
<title>Node1</title>
<g id="a_node1"><a xlink:title="Calculate integral or assert if integral is not a number (Nan)">
<polygon fill="#bfbfbf" stroke="black" points="0,-52 0,-82 134,-82 134,-52 0,-52"/>
<text text-anchor="start" x="8" y="-70" font-family="Helvetica,sans-Serif" font-size="10.00">simpson_method::evaluate</text>
<text text-anchor="middle" x="67" y="-59" font-family="Helvetica,sans-Serif" font-size="10.00">_by_simpson</text>
</a>
</g>
</g>
<!-- Node2 -->
<g id="node2" class="node">
<title>Node2</title>
<g id="a_node2"><a target="_blank" xlink:href="http://en.cppreference.com/w/cpp/container/map/at.html#" xlink:title=" ">
<polygon fill="white" stroke="black" points="178,-114.5 178,-133.5 247,-133.5 247,-114.5 178,-114.5"/>
<text text-anchor="middle" x="212.5" y="-121.5" font-family="Helvetica,sans-Serif" font-size="10.00">std::map::at</text>
</a>
</g>
</g>
<!-- Node1&#45;&gt;Node2 -->
<g id="edge1" class="edge">
<title>Node1&#45;&gt;Node2</title>
<path fill="none" stroke="midnightblue" d="M106.08,-82.13C128.4,-90.99 156.34,-102.09 177.85,-110.64"/>
<polygon fill="midnightblue" stroke="midnightblue" points="176.65,-113.92 187.24,-114.36 179.24,-107.42 176.65,-113.92"/>
</g>
<!-- Node3 -->
<g id="node3" class="node">
<title>Node3</title>
<g id="a_node3"><a xlink:href="../../d1/df3/hash__search_8cpp.html#a566eaf0ffafd50bc61e644561fd27001" target="_top" xlink:title=" ">
<polygon fill="white" stroke="black" points="198,-76.5 198,-95.5 227,-95.5 227,-76.5 198,-76.5"/>
<text text-anchor="middle" x="212.5" y="-83.5" font-family="Helvetica,sans-Serif" font-size="10.00">h</text>
</a>
</g>
</g>
<!-- Node1&#45;&gt;Node3 -->
<g id="edge2" class="edge">
<title>Node1&#45;&gt;Node3</title>
<path fill="none" stroke="midnightblue" d="M134.29,-75.78C153.37,-78.3 172.96,-80.9 187.64,-82.84"/>
<polygon fill="midnightblue" stroke="midnightblue" points="187.44,-86.34 197.81,-84.19 188.36,-79.41 187.44,-86.34"/>
</g>
<!-- Node4 -->
<g id="node4" class="node">
<title>Node4</title>
<g id="a_node4"><a target="_blank" xlink:href="http://en.cppreference.com/w/cpp/container/map/insert.html#" xlink:title=" ">
<polygon fill="white" stroke="black" points="170,-38.5 170,-57.5 255,-57.5 255,-38.5 170,-38.5"/>
<text text-anchor="middle" x="212.5" y="-45.5" font-family="Helvetica,sans-Serif" font-size="10.00">std::map::insert</text>
</a>
</g>
</g>
<!-- Node1&#45;&gt;Node4 -->
<g id="edge3" class="edge">
<title>Node1&#45;&gt;Node4</title>
<path fill="none" stroke="midnightblue" d="M134.29,-58.22C142.76,-57.1 151.33,-55.97 159.52,-54.88"/>
<polygon fill="midnightblue" stroke="midnightblue" points="160.22,-58.32 169.67,-53.54 159.3,-51.38 160.22,-58.32"/>
</g>
<!-- Node5 -->
<g id="node5" class="node">
<title>Node5</title>
<g id="a_node5"><a target="_blank" xlink:href="http://en.cppreference.com/w/cpp/numeric/math/isnan.html#" xlink:title=" ">
<polygon fill="white" stroke="black" points="183,-0.5 183,-19.5 242,-19.5 242,-0.5 183,-0.5"/>
<text text-anchor="middle" x="212.5" y="-7.5" font-family="Helvetica,sans-Serif" font-size="10.00">std::isnan</text>
</a>
</g>
</g>
<!-- Node1&#45;&gt;Node5 -->
<g id="edge4" class="edge">
<title>Node1&#45;&gt;Node5</title>
<path fill="none" stroke="midnightblue" d="M106.08,-51.87C128.4,-43.01 156.34,-31.91 177.85,-23.36"/>
<polygon fill="midnightblue" stroke="midnightblue" points="179.24,-26.58 187.24,-19.64 176.65,-20.08 179.24,-26.58"/>
</g>
</g>
</svg>
