<?xml version="1.0" encoding="UTF-8" standalone="no"?>
<!DOCTYPE svg PUBLIC "-//W3C//DTD SVG 1.1//EN"
 "http://www.w3.org/Graphics/SVG/1.1/DTD/svg11.dtd">
<!-- Generated by graphviz version 5.0.0 (20220707.1540)
 -->
<!-- Title: hashing::md5::hash Pages: 1 -->
<svg width="620pt" height="272pt"
 viewBox="0.00 0.00 620.00 272.00" xmlns="http://www.w3.org/2000/svg" xmlns:xlink="http://www.w3.org/1999/xlink">
<g id="graph0" class="graph" transform="scale(1 1) rotate(0) translate(4 268)">
<title>hashing::md5::hash</title>
<polygon fill="white" stroke="transparent" points="-4,4 -4,-268 616,-268 616,4 -4,4"/>
<!-- Node1 -->
<g id="node1" class="node">
<title>Node1</title>
<g id="a_node1"><a xlink:title="Converts the string to bytestring and calls the main algorithm.">
<polygon fill="#bfbfbf" stroke="black" points="0,-121.5 0,-140.5 102,-140.5 102,-121.5 0,-121.5"/>
<text text-anchor="middle" x="51" y="-128.5" font-family="Helvetica,sans-Serif" font-size="10.00">hashing::md5::hash</text>
</a>
</g>
</g>
<!-- Node1&#45;&gt;Node1 -->
<g id="edge1" class="edge">
<title>Node1&#45;&gt;Node1</title>
<path fill="none" stroke="midnightblue" d="M28.5,-140.76C17.55,-149.57 25.05,-159 51,-159 68.03,-159 77.11,-154.94 78.25,-149.65"/>
<polygon fill="midnightblue" stroke="midnightblue" points="81.3,-147.93 73.5,-140.76 75.12,-151.23 81.3,-147.93"/>
</g>
<!-- Node2 -->
<g id="node2" class="node">
<title>Node2</title>
<g id="a_node2"><a xlink:href="../../d5/d96/md5_8cpp.html#a5341431cef7fcfc33794326e1deb2425" target="_top" xlink:title="The MD5 algorithm itself, taking in a bytestring.">
<polygon fill="white" stroke="black" points="138,-140.5 138,-159.5 256,-159.5 256,-140.5 138,-140.5"/>
<text text-anchor="middle" x="197" y="-147.5" font-family="Helvetica,sans-Serif" font-size="10.00">hashing::md5::hash_bs</text>
</a>
</g>
</g>
<!-- Node1&#45;&gt;Node2 -->
<g id="edge2" class="edge">
<title>Node1&#45;&gt;Node2</title>
<path fill="none" stroke="midnightblue" d="M102.36,-137.65C110.53,-138.72 119.1,-139.85 127.6,-140.97"/>
<polygon fill="midnightblue" stroke="midnightblue" points="127.15,-144.45 137.52,-142.28 128.06,-137.51 127.15,-144.45"/>
</g>
<!-- Node12 -->
<g id="node12" class="node">
<title>Node12</title>
<g id="a_node12"><a target="_blank" xlink:href="http://en.cppreference.com/w/cpp/string/basic_string/size.html#" xlink:title=" ">
<polygon fill="white" stroke="black" points="155,-102.5 155,-121.5 239,-121.5 239,-102.5 155,-102.5"/>
<text text-anchor="middle" x="197" y="-109.5" font-family="Helvetica,sans-Serif" font-size="10.00">std::string::size</text>
</a>
</g>
</g>
<!-- Node1&#45;&gt;Node12 -->
<g id="edge18" class="edge">
<title>Node1&#45;&gt;Node12</title>
<path fill="none" stroke="midnightblue" d="M102.36,-124.35C116.07,-122.55 130.92,-120.59 144.67,-118.77"/>
<polygon fill="midnightblue" stroke="midnightblue" points="145.48,-122.2 154.94,-117.42 144.57,-115.26 145.48,-122.2"/>
</g>
<!-- Node2&#45;&gt;Node2 -->
<g id="edge8" class="edge">
<title>Node2&#45;&gt;Node2</title>
<path fill="none" stroke="midnightblue" d="M174.5,-159.76C163.55,-168.57 171.05,-178 197,-178 214.03,-178 223.11,-173.94 224.25,-168.65"/>
<polygon fill="midnightblue" stroke="midnightblue" points="227.3,-166.93 219.5,-159.76 221.12,-170.23 227.3,-166.93"/>
</g>
<!-- Node3 -->
<g id="node3" class="node">
<title>Node3</title>
<g id="a_node3"><a target="_blank" xlink:href="http://en.cppreference.com/w/cpp/container/vector/begin.html#" xlink:title=" ">
<polygon fill="white" stroke="black" points="321.5,-244.5 321.5,-263.5 413.5,-263.5 413.5,-244.5 321.5,-244.5"/>
<text text-anchor="middle" x="367.5" y="-251.5" font-family="Helvetica,sans-Serif" font-size="10.00">std::vector::begin</text>
</a>
</g>
</g>
<!-- Node2&#45;&gt;Node3 -->
<g id="edge3" class="edge">
<title>Node2&#45;&gt;Node3</title>
<path fill="none" stroke="midnightblue" d="M205.71,-159.54C220.51,-177.2 254.78,-215.03 292,-235 298.09,-238.26 304.75,-240.99 311.52,-243.25"/>
<polygon fill="midnightblue" stroke="midnightblue" points="310.86,-246.71 321.45,-246.25 312.89,-240.01 310.86,-246.71"/>
</g>
<!-- Node4 -->
<g id="node4" class="node">
<title>Node4</title>
<g id="a_node4"><a target="_blank" xlink:href="http://en.cppreference.com/w/cpp/algorithm/copy.html#" xlink:title=" ">
<polygon fill="white" stroke="black" points="339,-206.5 339,-225.5 396,-225.5 396,-206.5 339,-206.5"/>
<text text-anchor="middle" x="367.5" y="-213.5" font-family="Helvetica,sans-Serif" font-size="10.00">std::copy</text>
</a>
</g>
</g>
<!-- Node2&#45;&gt;Node4 -->
<g id="edge4" class="edge">
<title>Node2&#45;&gt;Node4</title>
<path fill="none" stroke="midnightblue" d="M214.49,-159.61C232.89,-170 263.79,-186.49 292,-197 303.82,-201.41 317.07,-205.15 329.08,-208.12"/>
<polygon fill="midnightblue" stroke="midnightblue" points="328.29,-211.52 338.82,-210.43 329.9,-204.71 328.29,-211.52"/>
</g>
<!-- Node5 -->
<g id="node5" class="node">
<title>Node5</title>
<g id="a_node5"><a xlink:href="../../d4/d18/composite__simpson__rule_8cpp.html#ac84831571c8f3d0bca83c1747a32e8d6" target="_top" xlink:title="Another test function.">
<polygon fill="white" stroke="black" points="353,-168.5 353,-187.5 382,-187.5 382,-168.5 353,-168.5"/>
<text text-anchor="middle" x="367.5" y="-175.5" font-family="Helvetica,sans-Serif" font-size="10.00">g</text>
</a>
</g>
</g>
<!-- Node2&#45;&gt;Node5 -->
<g id="edge5" class="edge">
<title>Node2&#45;&gt;Node5</title>
<path fill="none" stroke="midnightblue" d="M255.52,-159.56C285.34,-164.51 320.15,-170.3 342.72,-174.05"/>
<polygon fill="midnightblue" stroke="midnightblue" points="342.3,-177.53 352.74,-175.71 343.45,-170.62 342.3,-177.53"/>
</g>
<!-- Node8 -->
<g id="node8" class="node">
<title>Node8</title>
<g id="a_node8"><a xlink:href="../../d5/d96/md5_8cpp.html#add2bf982d5dd64a45d13cba52c2b371d" target="_top" xlink:title="Rotates the bits of a 32&#45;bit unsigned integer.">
<polygon fill="white" stroke="black" points="292.5,-112.5 292.5,-131.5 442.5,-131.5 442.5,-112.5 292.5,-112.5"/>
<text text-anchor="middle" x="367.5" y="-119.5" font-family="Helvetica,sans-Serif" font-size="10.00">hashing::md5::leftRotate32bits</text>
</a>
</g>
</g>
<!-- Node2&#45;&gt;Node8 -->
<g id="edge9" class="edge">
<title>Node2&#45;&gt;Node8</title>
<path fill="none" stroke="midnightblue" d="M255.52,-140.44C269.61,-138.1 284.83,-135.57 299.33,-133.16"/>
<polygon fill="midnightblue" stroke="midnightblue" points="299.95,-136.61 309.24,-131.51 298.8,-129.7 299.95,-136.61"/>
</g>
<!-- Node9 -->
<g id="node9" class="node">
<title>Node9</title>
<g id="a_node9"><a xlink:href="../../d5/d96/md5_8cpp.html#a694712c9665051ba52b686387b87a689" target="_top" xlink:title="Sets 32&#45;bit integer to little&#45;endian if needed.">
<polygon fill="white" stroke="black" points="292,-56.5 292,-75.5 443,-75.5 443,-56.5 292,-56.5"/>
<text text-anchor="middle" x="367.5" y="-63.5" font-family="Helvetica,sans-Serif" font-size="10.00">hashing::md5::toLittleEndian32</text>
</a>
</g>
</g>
<!-- Node2&#45;&gt;Node9 -->
<g id="edge11" class="edge">
<title>Node2&#45;&gt;Node9</title>
<path fill="none" stroke="midnightblue" d="M233.77,-140.43C241.31,-137.82 249.08,-134.68 256,-131 273.9,-121.48 274.84,-113.78 292,-103 305.58,-94.47 321.4,-86.38 334.95,-79.95"/>
<polygon fill="midnightblue" stroke="midnightblue" points="336.77,-82.96 344.36,-75.58 333.82,-76.62 336.77,-82.96"/>
</g>
<!-- Node11 -->
<g id="node11" class="node">
<title>Node11</title>
<g id="a_node11"><a xlink:href="../../d5/d96/md5_8cpp.html#a6be48c1e6e742f9bd329f501d61dcaef" target="_top" xlink:title="Sets 64&#45;bit integer to little&#45;endian if needed.">
<polygon fill="white" stroke="black" points="292,-0.5 292,-19.5 443,-19.5 443,-0.5 292,-0.5"/>
<text text-anchor="middle" x="367.5" y="-7.5" font-family="Helvetica,sans-Serif" font-size="10.00">hashing::md5::toLittleEndian64</text>
</a>
</g>
</g>
<!-- Node2&#45;&gt;Node11 -->
<g id="edge15" class="edge">
<title>Node2&#45;&gt;Node11</title>
<path fill="none" stroke="midnightblue" d="M241.46,-140.4C246.76,-137.94 251.78,-134.86 256,-131 285.96,-103.58 264.1,-76.51 292,-47 301.49,-36.97 314.28,-29.26 326.59,-23.55"/>
<polygon fill="midnightblue" stroke="midnightblue" points="328.04,-26.74 335.84,-19.57 325.27,-20.31 328.04,-26.74"/>
</g>
<!-- Node6 -->
<g id="node6" class="node">
<title>Node6</title>
<g id="a_node6"><a target="_blank" xlink:href="http://en.cppreference.com/w/cpp/numeric/math/exp.html#" xlink:title=" ">
<polygon fill="white" stroke="black" points="519.5,-187.5 519.5,-206.5 571.5,-206.5 571.5,-187.5 519.5,-187.5"/>
<text text-anchor="middle" x="545.5" y="-194.5" font-family="Helvetica,sans-Serif" font-size="10.00">std::exp</text>
</a>
</g>
</g>
<!-- Node5&#45;&gt;Node6 -->
<g id="edge6" class="edge">
<title>Node5&#45;&gt;Node6</title>
<path fill="none" stroke="midnightblue" d="M382.02,-179.46C408.93,-182.36 469.98,-188.96 509.11,-193.18"/>
<polygon fill="midnightblue" stroke="midnightblue" points="508.96,-196.68 519.28,-194.28 509.71,-189.72 508.96,-196.68"/>
</g>
<!-- Node7 -->
<g id="node7" class="node">
<title>Node7</title>
<g id="a_node7"><a target="_blank" xlink:href="http://en.cppreference.com/w/cpp/numeric/math/pow.html#" xlink:title=" ">
<polygon fill="white" stroke="black" points="518.5,-149.5 518.5,-168.5 572.5,-168.5 572.5,-149.5 518.5,-149.5"/>
<text text-anchor="middle" x="545.5" y="-156.5" font-family="Helvetica,sans-Serif" font-size="10.00">std::pow</text>
</a>
</g>
</g>
<!-- Node5&#45;&gt;Node7 -->
<g id="edge7" class="edge">
<title>Node5&#45;&gt;Node7</title>
<path fill="none" stroke="midnightblue" d="M382.02,-176.54C408.77,-173.65 469.24,-167.12 508.39,-162.9"/>
<polygon fill="midnightblue" stroke="midnightblue" points="508.77,-166.38 518.34,-161.82 508.02,-159.42 508.77,-166.38"/>
</g>
<!-- Node8&#45;&gt;Node8 -->
<g id="edge10" class="edge">
<title>Node8&#45;&gt;Node8</title>
<path fill="none" stroke="midnightblue" d="M341.3,-131.76C328.55,-140.57 337.29,-150 367.5,-150 387.8,-150 398.4,-145.74 399.31,-140.27"/>
<polygon fill="midnightblue" stroke="midnightblue" points="402.13,-138.18 393.7,-131.76 396.28,-142.03 402.13,-138.18"/>
</g>
<!-- Node9&#45;&gt;Node9 -->
<g id="edge14" class="edge">
<title>Node9&#45;&gt;Node9</title>
<path fill="none" stroke="midnightblue" d="M341.3,-75.76C328.55,-84.57 337.29,-94 367.5,-94 387.8,-94 398.4,-89.74 399.31,-84.27"/>
<polygon fill="midnightblue" stroke="midnightblue" points="402.13,-82.18 393.7,-75.76 396.28,-86.03 402.13,-82.18"/>
</g>
<!-- Node10 -->
<g id="node10" class="node">
<title>Node10</title>
<g id="a_node10"><a xlink:href="../../d5/d96/md5_8cpp.html#af8e96bde0183c4b0a7ff04668f11e446" target="_top" xlink:title="Checks whether integers are stored as big endian or not.">
<polygon fill="white" stroke="black" points="479,-28.5 479,-47.5 612,-47.5 612,-28.5 479,-28.5"/>
<text text-anchor="middle" x="545.5" y="-35.5" font-family="Helvetica,sans-Serif" font-size="10.00">hashing::md5::isBigEndian</text>
</a>
</g>
</g>
<!-- Node9&#45;&gt;Node10 -->
<g id="edge12" class="edge">
<title>Node9&#45;&gt;Node10</title>
<path fill="none" stroke="midnightblue" d="M428.58,-56.44C443.44,-54.08 459.5,-51.52 474.78,-49.09"/>
<polygon fill="midnightblue" stroke="midnightblue" points="475.37,-52.54 484.69,-47.51 474.27,-45.63 475.37,-52.54"/>
</g>
<!-- Node10&#45;&gt;Node10 -->
<g id="edge13" class="edge">
<title>Node10&#45;&gt;Node10</title>
<path fill="none" stroke="midnightblue" d="M518.07,-47.76C504.72,-56.57 513.86,-66 545.5,-66 567.25,-66 578.37,-61.54 578.86,-55.89"/>
<polygon fill="midnightblue" stroke="midnightblue" points="581.65,-53.78 572.93,-47.76 575.99,-57.9 581.65,-53.78"/>
</g>
<!-- Node11&#45;&gt;Node10 -->
<g id="edge16" class="edge">
<title>Node11&#45;&gt;Node10</title>
<path fill="none" stroke="midnightblue" d="M428.58,-19.56C443.44,-21.92 459.5,-24.48 474.78,-26.91"/>
<polygon fill="midnightblue" stroke="midnightblue" points="474.27,-30.37 484.69,-28.49 475.37,-23.46 474.27,-30.37"/>
</g>
<!-- Node11&#45;&gt;Node11 -->
<g id="edge17" class="edge">
<title>Node11&#45;&gt;Node11</title>
<path fill="none" stroke="midnightblue" d="M341.3,-19.76C328.55,-28.57 337.29,-38 367.5,-38 387.8,-38 398.4,-33.74 399.31,-28.27"/>
<polygon fill="midnightblue" stroke="midnightblue" points="402.13,-26.18 393.7,-19.76 396.28,-30.03 402.13,-26.18"/>
</g>
</g>
</svg>
