<?xml version="1.0" encoding="UTF-8" standalone="no"?>
<!DOCTYPE svg PUBLIC "-//W3C//DTD SVG 1.1//EN"
 "http://www.w3.org/Graphics/SVG/1.1/DTD/svg11.dtd">
<!-- Generated by graphviz version 5.0.0 (20220707.1540)
 -->
<!-- Title: hashing::md5::hash_bs Pages: 1 -->
<svg width="482pt" height="272pt"
 viewBox="0.00 0.00 482.00 272.00" xmlns="http://www.w3.org/2000/svg" xmlns:xlink="http://www.w3.org/1999/xlink">
<g id="graph0" class="graph" transform="scale(1 1) rotate(0) translate(4 268)">
<title>hashing::md5::hash_bs</title>
<polygon fill="white" stroke="transparent" points="-4,4 -4,-268 478,-268 478,4 -4,4"/>
<!-- Node1 -->
<g id="node1" class="node">
<title>Node1</title>
<g id="a_node1"><a xlink:title="The MD5 algorithm itself, taking in a bytestring.">
<polygon fill="#bfbfbf" stroke="black" points="0,-140.5 0,-159.5 118,-159.5 118,-140.5 0,-140.5"/>
<text text-anchor="middle" x="59" y="-147.5" font-family="Helvetica,sans-Serif" font-size="10.00">hashing::md5::hash_bs</text>
</a>
</g>
</g>
<!-- Node1&#45;&gt;Node1 -->
<g id="edge6" class="edge">
<title>Node1&#45;&gt;Node1</title>
<path fill="none" stroke="midnightblue" d="M32.8,-159.76C20.05,-168.57 28.79,-178 59,-178 79.3,-178 89.9,-173.74 90.81,-168.27"/>
<polygon fill="midnightblue" stroke="midnightblue" points="93.63,-166.18 85.2,-159.76 87.78,-170.03 93.63,-166.18"/>
</g>
<!-- Node2 -->
<g id="node2" class="node">
<title>Node2</title>
<g id="a_node2"><a target="_blank" xlink:href="http://en.cppreference.com/w/cpp/container/vector/begin.html#" xlink:title=" ">
<polygon fill="white" stroke="black" points="183.5,-244.5 183.5,-263.5 275.5,-263.5 275.5,-244.5 183.5,-244.5"/>
<text text-anchor="middle" x="229.5" y="-251.5" font-family="Helvetica,sans-Serif" font-size="10.00">std::vector::begin</text>
</a>
</g>
</g>
<!-- Node1&#45;&gt;Node2 -->
<g id="edge1" class="edge">
<title>Node1&#45;&gt;Node2</title>
<path fill="none" stroke="midnightblue" d="M67.71,-159.54C82.51,-177.2 116.78,-215.03 154,-235 160.09,-238.26 166.75,-240.99 173.52,-243.25"/>
<polygon fill="midnightblue" stroke="midnightblue" points="172.86,-246.71 183.45,-246.25 174.89,-240.01 172.86,-246.71"/>
</g>
<!-- Node3 -->
<g id="node3" class="node">
<title>Node3</title>
<g id="a_node3"><a target="_blank" xlink:href="http://en.cppreference.com/w/cpp/algorithm/copy.html#" xlink:title=" ">
<polygon fill="white" stroke="black" points="201,-206.5 201,-225.5 258,-225.5 258,-206.5 201,-206.5"/>
<text text-anchor="middle" x="229.5" y="-213.5" font-family="Helvetica,sans-Serif" font-size="10.00">std::copy</text>
</a>
</g>
</g>
<!-- Node1&#45;&gt;Node3 -->
<g id="edge2" class="edge">
<title>Node1&#45;&gt;Node3</title>
<path fill="none" stroke="midnightblue" d="M76.49,-159.61C94.89,-170 125.79,-186.49 154,-197 165.82,-201.41 179.07,-205.15 191.08,-208.12"/>
<polygon fill="midnightblue" stroke="midnightblue" points="190.29,-211.52 200.82,-210.43 191.9,-204.71 190.29,-211.52"/>
</g>
<!-- Node4 -->
<g id="node4" class="node">
<title>Node4</title>
<g id="a_node4"><a xlink:href="../../d4/d18/composite__simpson__rule_8cpp.html#ac84831571c8f3d0bca83c1747a32e8d6" target="_top" xlink:title="Another test function.">
<polygon fill="white" stroke="black" points="215,-168.5 215,-187.5 244,-187.5 244,-168.5 215,-168.5"/>
<text text-anchor="middle" x="229.5" y="-175.5" font-family="Helvetica,sans-Serif" font-size="10.00">g</text>
</a>
</g>
</g>
<!-- Node1&#45;&gt;Node4 -->
<g id="edge3" class="edge">
<title>Node1&#45;&gt;Node4</title>
<path fill="none" stroke="midnightblue" d="M117.52,-159.56C147.34,-164.51 182.15,-170.3 204.72,-174.05"/>
<polygon fill="midnightblue" stroke="midnightblue" points="204.3,-177.53 214.74,-175.71 205.45,-170.62 204.3,-177.53"/>
</g>
<!-- Node7 -->
<g id="node7" class="node">
<title>Node7</title>
<g id="a_node7"><a xlink:href="../../d5/d96/md5_8cpp.html#add2bf982d5dd64a45d13cba52c2b371d" target="_top" xlink:title="Rotates the bits of a 32&#45;bit unsigned integer.">
<polygon fill="white" stroke="black" points="154.5,-112.5 154.5,-131.5 304.5,-131.5 304.5,-112.5 154.5,-112.5"/>
<text text-anchor="middle" x="229.5" y="-119.5" font-family="Helvetica,sans-Serif" font-size="10.00">hashing::md5::leftRotate32bits</text>
</a>
</g>
</g>
<!-- Node1&#45;&gt;Node7 -->
<g id="edge7" class="edge">
<title>Node1&#45;&gt;Node7</title>
<path fill="none" stroke="midnightblue" d="M117.52,-140.44C131.61,-138.1 146.83,-135.57 161.33,-133.16"/>
<polygon fill="midnightblue" stroke="midnightblue" points="161.95,-136.61 171.24,-131.51 160.8,-129.7 161.95,-136.61"/>
</g>
<!-- Node8 -->
<g id="node8" class="node">
<title>Node8</title>
<g id="a_node8"><a xlink:href="../../d5/d96/md5_8cpp.html#a694712c9665051ba52b686387b87a689" target="_top" xlink:title="Sets 32&#45;bit integer to little&#45;endian if needed.">
<polygon fill="white" stroke="black" points="154,-56.5 154,-75.5 305,-75.5 305,-56.5 154,-56.5"/>
<text text-anchor="middle" x="229.5" y="-63.5" font-family="Helvetica,sans-Serif" font-size="10.00">hashing::md5::toLittleEndian32</text>
</a>
</g>
</g>
<!-- Node1&#45;&gt;Node8 -->
<g id="edge9" class="edge">
<title>Node1&#45;&gt;Node8</title>
<path fill="none" stroke="midnightblue" d="M79.08,-140.44C98.06,-130.94 128.03,-115.94 154,-103 169.23,-95.41 186.22,-86.97 200.12,-80.07"/>
<polygon fill="midnightblue" stroke="midnightblue" points="201.8,-83.15 209.2,-75.57 198.68,-76.88 201.8,-83.15"/>
</g>
<!-- Node10 -->
<g id="node10" class="node">
<title>Node10</title>
<g id="a_node10"><a xlink:href="../../d5/d96/md5_8cpp.html#a6be48c1e6e742f9bd329f501d61dcaef" target="_top" xlink:title="Sets 64&#45;bit integer to little&#45;endian if needed.">
<polygon fill="white" stroke="black" points="154,-0.5 154,-19.5 305,-19.5 305,-0.5 154,-0.5"/>
<text text-anchor="middle" x="229.5" y="-7.5" font-family="Helvetica,sans-Serif" font-size="10.00">hashing::md5::toLittleEndian64</text>
</a>
</g>
</g>
<!-- Node1&#45;&gt;Node10 -->
<g id="edge13" class="edge">
<title>Node1&#45;&gt;Node10</title>
<path fill="none" stroke="midnightblue" d="M66.83,-140.39C81.14,-120.77 116.11,-75.57 154,-47 166.25,-37.77 181.16,-29.82 194.41,-23.69"/>
<polygon fill="midnightblue" stroke="midnightblue" points="196,-26.82 203.71,-19.56 193.15,-20.42 196,-26.82"/>
</g>
<!-- Node5 -->
<g id="node5" class="node">
<title>Node5</title>
<g id="a_node5"><a target="_blank" xlink:href="http://en.cppreference.com/w/cpp/numeric/math/exp.html#" xlink:title=" ">
<polygon fill="white" stroke="black" points="381.5,-187.5 381.5,-206.5 433.5,-206.5 433.5,-187.5 381.5,-187.5"/>
<text text-anchor="middle" x="407.5" y="-194.5" font-family="Helvetica,sans-Serif" font-size="10.00">std::exp</text>
</a>
</g>
</g>
<!-- Node4&#45;&gt;Node5 -->
<g id="edge4" class="edge">
<title>Node4&#45;&gt;Node5</title>
<path fill="none" stroke="midnightblue" d="M244.02,-179.46C270.93,-182.36 331.98,-188.96 371.11,-193.18"/>
<polygon fill="midnightblue" stroke="midnightblue" points="370.96,-196.68 381.28,-194.28 371.71,-189.72 370.96,-196.68"/>
</g>
<!-- Node6 -->
<g id="node6" class="node">
<title>Node6</title>
<g id="a_node6"><a target="_blank" xlink:href="http://en.cppreference.com/w/cpp/numeric/math/pow.html#" xlink:title=" ">
<polygon fill="white" stroke="black" points="380.5,-149.5 380.5,-168.5 434.5,-168.5 434.5,-149.5 380.5,-149.5"/>
<text text-anchor="middle" x="407.5" y="-156.5" font-family="Helvetica,sans-Serif" font-size="10.00">std::pow</text>
</a>
</g>
</g>
<!-- Node4&#45;&gt;Node6 -->
<g id="edge5" class="edge">
<title>Node4&#45;&gt;Node6</title>
<path fill="none" stroke="midnightblue" d="M244.02,-176.54C270.77,-173.65 331.24,-167.12 370.39,-162.9"/>
<polygon fill="midnightblue" stroke="midnightblue" points="370.77,-166.38 380.34,-161.82 370.02,-159.42 370.77,-166.38"/>
</g>
<!-- Node7&#45;&gt;Node7 -->
<g id="edge8" class="edge">
<title>Node7&#45;&gt;Node7</title>
<path fill="none" stroke="midnightblue" d="M203.3,-131.76C190.55,-140.57 199.29,-150 229.5,-150 249.8,-150 260.4,-145.74 261.31,-140.27"/>
<polygon fill="midnightblue" stroke="midnightblue" points="264.13,-138.18 255.7,-131.76 258.28,-142.03 264.13,-138.18"/>
</g>
<!-- Node8&#45;&gt;Node8 -->
<g id="edge12" class="edge">
<title>Node8&#45;&gt;Node8</title>
<path fill="none" stroke="midnightblue" d="M203.3,-75.76C190.55,-84.57 199.29,-94 229.5,-94 249.8,-94 260.4,-89.74 261.31,-84.27"/>
<polygon fill="midnightblue" stroke="midnightblue" points="264.13,-82.18 255.7,-75.76 258.28,-86.03 264.13,-82.18"/>
</g>
<!-- Node9 -->
<g id="node9" class="node">
<title>Node9</title>
<g id="a_node9"><a xlink:href="../../d5/d96/md5_8cpp.html#af8e96bde0183c4b0a7ff04668f11e446" target="_top" xlink:title="Checks whether integers are stored as big endian or not.">
<polygon fill="white" stroke="black" points="341,-28.5 341,-47.5 474,-47.5 474,-28.5 341,-28.5"/>
<text text-anchor="middle" x="407.5" y="-35.5" font-family="Helvetica,sans-Serif" font-size="10.00">hashing::md5::isBigEndian</text>
</a>
</g>
</g>
<!-- Node8&#45;&gt;Node9 -->
<g id="edge10" class="edge">
<title>Node8&#45;&gt;Node9</title>
<path fill="none" stroke="midnightblue" d="M290.58,-56.44C305.44,-54.08 321.5,-51.52 336.78,-49.09"/>
<polygon fill="midnightblue" stroke="midnightblue" points="337.37,-52.54 346.69,-47.51 336.27,-45.63 337.37,-52.54"/>
</g>
<!-- Node9&#45;&gt;Node9 -->
<g id="edge11" class="edge">
<title>Node9&#45;&gt;Node9</title>
<path fill="none" stroke="midnightblue" d="M380.07,-47.76C366.72,-56.57 375.86,-66 407.5,-66 429.25,-66 440.37,-61.54 440.86,-55.89"/>
<polygon fill="midnightblue" stroke="midnightblue" points="443.65,-53.78 434.93,-47.76 437.99,-57.9 443.65,-53.78"/>
</g>
<!-- Node10&#45;&gt;Node9 -->
<g id="edge14" class="edge">
<title>Node10&#45;&gt;Node9</title>
<path fill="none" stroke="midnightblue" d="M290.58,-19.56C305.44,-21.92 321.5,-24.48 336.78,-26.91"/>
<polygon fill="midnightblue" stroke="midnightblue" points="336.27,-30.37 346.69,-28.49 337.37,-23.46 336.27,-30.37"/>
</g>
<!-- Node10&#45;&gt;Node10 -->
<g id="edge15" class="edge">
<title>Node10&#45;&gt;Node10</title>
<path fill="none" stroke="midnightblue" d="M203.3,-19.76C190.55,-28.57 199.29,-38 229.5,-38 249.8,-38 260.4,-33.74 261.31,-28.27"/>
<polygon fill="midnightblue" stroke="midnightblue" points="264.13,-26.18 255.7,-19.76 258.28,-30.03 264.13,-26.18"/>
</g>
</g>
</svg>
