<?xml version="1.0" encoding="UTF-8" standalone="no"?>
<!DOCTYPE svg PUBLIC "-//W3C//DTD SVG 1.1//EN"
 "http://www.w3.org/Graphics/SVG/1.1/DTD/svg11.dtd">
<!-- Generated by graphviz version 2.49.1 (20210923.0004)
 -->
<!-- Title: numerical_methods::simpson_method::evaluate_by_simpson Pages: 1 -->
<svg width="265pt" height="142pt"
 viewBox="0.00 0.00 265.00 142.00" xmlns="http://www.w3.org/2000/svg" xmlns:xlink="http://www.w3.org/1999/xlink">
<g id="graph0" class="graph" transform="scale(1 1) rotate(0) translate(4 138)">
<title>numerical_methods::simpson_method::evaluate_by_simpson</title>
<polygon fill="white" stroke="transparent" points="-4,4 -4,-138 261,-138 261,4 -4,4"/>
<!-- Node1 -->
<g id="node1" class="node">
<title>Node1</title>
<g id="a_node1"><a xlink:title="Calculate integral or assert if integral is not a number (Nan)">
<polygon fill="#bfbfbf" stroke="black" points="0,-46.5 0,-87.5 136,-87.5 136,-46.5 0,-46.5"/>
<text text-anchor="start" x="8" y="-75.5" font-family="Helvetica,sans-Serif" font-size="10.00">numerical_methods::</text>
<text text-anchor="start" x="8" y="-64.5" font-family="Helvetica,sans-Serif" font-size="10.00">simpson_method::evaluate</text>
<text text-anchor="middle" x="68" y="-53.5" font-family="Helvetica,sans-Serif" font-size="10.00">_by_simpson</text>
</a>
</g>
</g>
<!-- Node1&#45;&gt;Node1 -->
<g id="edge2" class="edge">
<title>Node1&#45;&gt;Node1</title>
<path fill="none" stroke="midnightblue" d="M41.17,-87.86C38.24,-97.54 47.18,-106 68,-106 81.01,-106 89.38,-102.7 93.12,-97.86"/>
<polygon fill="midnightblue" stroke="midnightblue" points="96.59,-98.31 94.83,-87.86 89.69,-97.13 96.59,-98.31"/>
</g>
<!-- Node2 -->
<g id="node2" class="node">
<title>Node2</title>
<g id="a_node2"><a target="_blank" xlink:href="http://en.cppreference.com/w/cpp/container/map/at.html#" xlink:title=" ">
<polygon fill="white" stroke="black" points="180,-114.5 180,-133.5 249,-133.5 249,-114.5 180,-114.5"/>
<text text-anchor="middle" x="214.5" y="-121.5" font-family="Helvetica,sans-Serif" font-size="10.00">std::map::at</text>
</a>
</g>
</g>
<!-- Node1&#45;&gt;Node2 -->
<g id="edge1" class="edge">
<title>Node1&#45;&gt;Node2</title>
<path fill="none" stroke="midnightblue" d="M121.17,-87.58C140.63,-95.26 162.2,-103.77 179.6,-110.63"/>
<polygon fill="midnightblue" stroke="midnightblue" points="178.73,-114.05 189.31,-114.46 181.3,-107.53 178.73,-114.05"/>
</g>
<!-- Node3 -->
<g id="node3" class="node">
<title>Node3</title>
<g id="a_node3"><a xlink:href="../../d1/df3/hash__search_8cpp.html#a566eaf0ffafd50bc61e644561fd27001" target="_top" xlink:title=" ">
<polygon fill="white" stroke="black" points="200,-76.5 200,-95.5 229,-95.5 229,-76.5 200,-76.5"/>
<text text-anchor="middle" x="214.5" y="-83.5" font-family="Helvetica,sans-Serif" font-size="10.00">h</text>
</a>
</g>
</g>
<!-- Node1&#45;&gt;Node3 -->
<g id="edge3" class="edge">
<title>Node1&#45;&gt;Node3</title>
<path fill="none" stroke="midnightblue" d="M136.17,-75.83C155.32,-78.35 174.94,-80.93 189.63,-82.86"/>
<polygon fill="midnightblue" stroke="midnightblue" points="189.44,-86.37 199.81,-84.2 190.35,-79.43 189.44,-86.37"/>
</g>
<!-- Node4 -->
<g id="node4" class="node">
<title>Node4</title>
<g id="a_node4"><a target="_blank" xlink:href="http://en.cppreference.com/w/cpp/container/map/insert.html#" xlink:title=" ">
<polygon fill="white" stroke="black" points="172,-38.5 172,-57.5 257,-57.5 257,-38.5 172,-38.5"/>
<text text-anchor="middle" x="214.5" y="-45.5" font-family="Helvetica,sans-Serif" font-size="10.00">std::map::insert</text>
</a>
</g>
</g>
<!-- Node1&#45;&gt;Node4 -->
<g id="edge4" class="edge">
<title>Node1&#45;&gt;Node4</title>
<path fill="none" stroke="midnightblue" d="M136.17,-58.17C144.67,-57.05 153.27,-55.92 161.48,-54.84"/>
<polygon fill="midnightblue" stroke="midnightblue" points="162.19,-58.28 171.64,-53.5 161.27,-51.34 162.19,-58.28"/>
</g>
<!-- Node5 -->
<g id="node5" class="node">
<title>Node5</title>
<g id="a_node5"><a target="_blank" xlink:href="http://en.cppreference.com/w/cpp/numeric/math/isnan.html#" xlink:title=" ">
<polygon fill="white" stroke="black" points="185,-0.5 185,-19.5 244,-19.5 244,-0.5 185,-0.5"/>
<text text-anchor="middle" x="214.5" y="-7.5" font-family="Helvetica,sans-Serif" font-size="10.00">std::isnan</text>
</a>
</g>
</g>
<!-- Node1&#45;&gt;Node5 -->
<g id="edge5" class="edge">
<title>Node1&#45;&gt;Node5</title>
<path fill="none" stroke="midnightblue" d="M121.17,-46.42C140.63,-38.74 162.2,-30.23 179.6,-23.37"/>
<polygon fill="midnightblue" stroke="midnightblue" points="181.3,-26.47 189.31,-19.54 178.73,-19.95 181.3,-26.47"/>
</g>
</g>
</svg>
