<?xml version="1.0" encoding="UTF-8" standalone="no"?>
<!DOCTYPE svg PUBLIC "-//W3C//DTD SVG 1.1//EN"
 "http://www.w3.org/Graphics/SVG/1.1/DTD/svg11.dtd">
<!-- Generated by graphviz version 5.0.0 (20220707.1540)
 -->
<!-- Title: main Pages: 1 -->
<svg width="337pt" height="379pt"
 viewBox="0.00 0.00 337.00 379.00" xmlns="http://www.w3.org/2000/svg" xmlns:xlink="http://www.w3.org/1999/xlink">
<g id="graph0" class="graph" transform="scale(1 1) rotate(0) translate(4 375)">
<title>main</title>
<polygon fill="white" stroke="transparent" points="-4,4 -4,-375 333,-375 333,4 -4,4"/>
<!-- Node1 -->
<g id="node1" class="node">
<title>Node1</title>
<g id="a_node1"><a xlink:title=" ">
<polygon fill="#bfbfbf" stroke="black" points="0,-193.5 0,-212.5 38,-212.5 38,-193.5 0,-193.5"/>
<text text-anchor="middle" x="19" y="-200.5" font-family="Helvetica,sans-Serif" font-size="10.00">main</text>
</a>
</g>
</g>
<!-- Node2 -->
<g id="node2" class="node">
<title>Node2</title>
<g id="a_node2"><a target="_blank" xlink:href="http://en.cppreference.com/w/cpp/string/byte/atof.html#" xlink:title=" ">
<polygon fill="white" stroke="black" points="114.5,-351.5 114.5,-370.5 167.5,-370.5 167.5,-351.5 114.5,-351.5"/>
<text text-anchor="middle" x="141" y="-358.5" font-family="Helvetica,sans-Serif" font-size="10.00">std::atof</text>
</a>
</g>
</g>
<!-- Node1&#45;&gt;Node2 -->
<g id="edge1" class="edge">
<title>Node1&#45;&gt;Node2</title>
<path fill="none" stroke="midnightblue" d="M20.87,-212.72C23.65,-237.94 34.63,-306.03 74,-342 82.42,-349.7 93.77,-354.29 104.68,-357.03"/>
<polygon fill="midnightblue" stroke="midnightblue" points="103.98,-360.46 114.48,-359.06 105.4,-353.61 103.98,-360.46"/>
</g>
<!-- Node3 -->
<g id="node3" class="node">
<title>Node3</title>
<g id="a_node3"><a target="_blank" xlink:href="http://en.cppreference.com/w/cpp/string/byte/atoi.html#" xlink:title=" ">
<polygon fill="white" stroke="black" points="115,-313.5 115,-332.5 167,-332.5 167,-313.5 115,-313.5"/>
<text text-anchor="middle" x="141" y="-320.5" font-family="Helvetica,sans-Serif" font-size="10.00">std::atoi</text>
</a>
</g>
</g>
<!-- Node1&#45;&gt;Node3 -->
<g id="edge2" class="edge">
<title>Node1&#45;&gt;Node3</title>
<path fill="none" stroke="midnightblue" d="M22.43,-212.7C27.98,-232.84 43.54,-279.37 74,-304 82.78,-311.1 94.1,-315.55 104.88,-318.34"/>
<polygon fill="midnightblue" stroke="midnightblue" points="104.43,-321.82 114.94,-320.53 105.92,-314.98 104.43,-321.82"/>
</g>
<!-- Node4 -->
<g id="node4" class="node">
<title>Node4</title>
<g id="a_node4"><a target="_blank" xlink:href="http://en.cppreference.com/w/cpp/io/manip/endl.html#" xlink:title=" ">
<polygon fill="white" stroke="black" points="114,-275.5 114,-294.5 168,-294.5 168,-275.5 114,-275.5"/>
<text text-anchor="middle" x="141" y="-282.5" font-family="Helvetica,sans-Serif" font-size="10.00">std::endl</text>
</a>
</g>
</g>
<!-- Node1&#45;&gt;Node4 -->
<g id="edge3" class="edge">
<title>Node1&#45;&gt;Node4</title>
<path fill="none" stroke="midnightblue" d="M26.61,-212.54C35.86,-225.23 53.81,-247.63 74,-261 83.17,-267.07 94.07,-271.84 104.34,-275.48"/>
<polygon fill="midnightblue" stroke="midnightblue" points="103.33,-278.83 113.92,-278.62 105.51,-272.18 103.33,-278.83"/>
</g>
<!-- Node5 -->
<g id="node5" class="node">
<title>Node5</title>
<g id="a_node5"><a xlink:href="../../d3/d6d/namespacesimpson__method.html#a4dd31f153726d493f7b1ea7ffc22eceb" target="_top" xlink:title="Calculate integral or assert if integral is not a number (Nan)">
<polygon fill="white" stroke="black" points="74,-188 74,-218 208,-218 208,-188 74,-188"/>
<text text-anchor="start" x="82" y="-206" font-family="Helvetica,sans-Serif" font-size="10.00">simpson_method::evaluate</text>
<text text-anchor="middle" x="141" y="-195" font-family="Helvetica,sans-Serif" font-size="10.00">_by_simpson</text>
</a>
</g>
</g>
<!-- Node1&#45;&gt;Node5 -->
<g id="edge4" class="edge">
<title>Node1&#45;&gt;Node5</title>
<path fill="none" stroke="midnightblue" d="M38.23,-203C45.48,-203 54.34,-203 63.79,-203"/>
<polygon fill="midnightblue" stroke="midnightblue" points="63.8,-206.5 73.8,-203 63.8,-199.5 63.8,-206.5"/>
</g>
<!-- Node7 -->
<g id="node7" class="node">
<title>Node7</title>
<g id="a_node7"><a xlink:href="../../d1/df3/hash__search_8cpp.html#a566eaf0ffafd50bc61e644561fd27001" target="_top" xlink:title=" ">
<polygon fill="white" stroke="black" points="272,-266.5 272,-285.5 301,-285.5 301,-266.5 272,-266.5"/>
<text text-anchor="middle" x="286.5" y="-273.5" font-family="Helvetica,sans-Serif" font-size="10.00">h</text>
</a>
</g>
</g>
<!-- Node1&#45;&gt;Node7 -->
<g id="edge15" class="edge">
<title>Node1&#45;&gt;Node7</title>
<path fill="none" stroke="midnightblue" d="M38.1,-212.55C48.4,-217.68 61.68,-223.8 74,-228 140.46,-250.64 222.31,-265.77 261.88,-272.31"/>
<polygon fill="midnightblue" stroke="midnightblue" points="261.43,-275.79 271.87,-273.93 262.55,-268.88 261.43,-275.79"/>
</g>
<!-- Node10 -->
<g id="node10" class="node">
<title>Node10</title>
<g id="a_node10"><a xlink:href="../../d4/d18/composite__simpson__rule_8cpp.html#a3de2b7b41a8e4b07da05298510d17ed2" target="_top" xlink:title="A function f(x) that will be used to test the method.">
<polygon fill="white" stroke="black" points="126.5,-111.5 126.5,-130.5 155.5,-130.5 155.5,-111.5 126.5,-111.5"/>
<text text-anchor="middle" x="141" y="-118.5" font-family="Helvetica,sans-Serif" font-size="10.00">f</text>
</a>
</g>
</g>
<!-- Node1&#45;&gt;Node10 -->
<g id="edge9" class="edge">
<title>Node1&#45;&gt;Node10</title>
<path fill="none" stroke="midnightblue" d="M25.68,-193.35C34.35,-179.47 52.19,-154.02 74,-140 86.69,-131.84 102.97,-127.11 116.18,-124.4"/>
<polygon fill="midnightblue" stroke="midnightblue" points="117.18,-127.78 126.41,-122.58 115.95,-120.89 117.18,-127.78"/>
</g>
<!-- Node13 -->
<g id="node13" class="node">
<title>Node13</title>
<g id="a_node13"><a xlink:href="../../d4/d18/composite__simpson__rule_8cpp.html#ac84831571c8f3d0bca83c1747a32e8d6" target="_top" xlink:title="Another test function.">
<polygon fill="white" stroke="black" points="126.5,-35.5 126.5,-54.5 155.5,-54.5 155.5,-35.5 126.5,-35.5"/>
<text text-anchor="middle" x="141" y="-42.5" font-family="Helvetica,sans-Serif" font-size="10.00">g</text>
</a>
</g>
</g>
<!-- Node1&#45;&gt;Node13 -->
<g id="edge12" class="edge">
<title>Node1&#45;&gt;Node13</title>
<path fill="none" stroke="midnightblue" d="M20.87,-193.28C23.65,-168.06 34.63,-99.97 74,-64 85.46,-53.53 102.34,-48.79 116.15,-46.67"/>
<polygon fill="midnightblue" stroke="midnightblue" points="116.89,-50.11 126.42,-45.47 116.08,-43.15 116.89,-50.11"/>
</g>
<!-- Node16 -->
<g id="node16" class="node">
<title>Node16</title>
<g id="a_node16"><a xlink:href="../../d4/d18/composite__simpson__rule_8cpp.html#a6d50f1b8eb533b54721812d16a3699cc" target="_top" xlink:title="Another test function.">
<polygon fill="white" stroke="black" points="126.5,-73.5 126.5,-92.5 155.5,-92.5 155.5,-73.5 126.5,-73.5"/>
<text text-anchor="middle" x="141" y="-80.5" font-family="Helvetica,sans-Serif" font-size="10.00">k</text>
</a>
</g>
</g>
<!-- Node1&#45;&gt;Node16 -->
<g id="edge16" class="edge">
<title>Node1&#45;&gt;Node16</title>
<path fill="none" stroke="midnightblue" d="M22.43,-193.3C27.98,-173.16 43.54,-126.63 74,-102 86,-92.3 102.73,-87.55 116.35,-85.23"/>
<polygon fill="midnightblue" stroke="midnightblue" points="117.02,-88.67 126.45,-83.83 116.06,-81.73 117.02,-88.67"/>
</g>
<!-- Node17 -->
<g id="node17" class="node">
<title>Node17</title>
<g id="a_node17"><a xlink:href="../../d4/d18/composite__simpson__rule_8cpp.html#a995716bc040dc6cf32b5cb3df51c4529" target="_top" xlink:title="Another test function.">
<polygon fill="white" stroke="black" points="126.5,-149.5 126.5,-168.5 155.5,-168.5 155.5,-149.5 126.5,-149.5"/>
<text text-anchor="middle" x="141" y="-156.5" font-family="Helvetica,sans-Serif" font-size="10.00">l</text>
</a>
</g>
</g>
<!-- Node1&#45;&gt;Node17 -->
<g id="edge19" class="edge">
<title>Node1&#45;&gt;Node17</title>
<path fill="none" stroke="midnightblue" d="M38.26,-194.21C48.61,-189.39 61.88,-183.51 74,-179 87.94,-173.81 103.89,-168.95 116.62,-165.32"/>
<polygon fill="midnightblue" stroke="midnightblue" points="117.75,-168.64 126.44,-162.58 115.87,-161.9 117.75,-168.64"/>
</g>
<!-- Node6 -->
<g id="node6" class="node">
<title>Node6</title>
<g id="a_node6"><a target="_blank" xlink:href="http://en.cppreference.com/w/cpp/container/map/at.html#" xlink:title=" ">
<polygon fill="white" stroke="black" points="252,-228.5 252,-247.5 321,-247.5 321,-228.5 252,-228.5"/>
<text text-anchor="middle" x="286.5" y="-235.5" font-family="Helvetica,sans-Serif" font-size="10.00">std::map::at</text>
</a>
</g>
</g>
<!-- Node5&#45;&gt;Node6 -->
<g id="edge5" class="edge">
<title>Node5&#45;&gt;Node6</title>
<path fill="none" stroke="midnightblue" d="M203.69,-218.05C216.63,-221.2 230.01,-224.47 242.11,-227.42"/>
<polygon fill="midnightblue" stroke="midnightblue" points="241.39,-230.84 251.93,-229.81 243.05,-224.04 241.39,-230.84"/>
</g>
<!-- Node5&#45;&gt;Node7 -->
<g id="edge6" class="edge">
<title>Node5&#45;&gt;Node7</title>
<path fill="none" stroke="midnightblue" d="M177.8,-218.01C187.74,-222.51 198.43,-227.68 208,-233 224.81,-242.34 227.21,-247.63 244,-257 249.9,-260.29 256.48,-263.5 262.63,-266.31"/>
<polygon fill="midnightblue" stroke="midnightblue" points="261.21,-269.52 271.77,-270.37 264.05,-263.12 261.21,-269.52"/>
</g>
<!-- Node8 -->
<g id="node8" class="node">
<title>Node8</title>
<g id="a_node8"><a target="_blank" xlink:href="http://en.cppreference.com/w/cpp/container/map/insert.html#" xlink:title=" ">
<polygon fill="white" stroke="black" points="244,-190.5 244,-209.5 329,-209.5 329,-190.5 244,-190.5"/>
<text text-anchor="middle" x="286.5" y="-197.5" font-family="Helvetica,sans-Serif" font-size="10.00">std::map::insert</text>
</a>
</g>
</g>
<!-- Node5&#45;&gt;Node8 -->
<g id="edge7" class="edge">
<title>Node5&#45;&gt;Node8</title>
<path fill="none" stroke="midnightblue" d="M208.29,-201.61C216.76,-201.44 225.33,-201.26 233.52,-201.09"/>
<polygon fill="midnightblue" stroke="midnightblue" points="233.75,-204.58 243.67,-200.87 233.6,-197.58 233.75,-204.58"/>
</g>
<!-- Node9 -->
<g id="node9" class="node">
<title>Node9</title>
<g id="a_node9"><a target="_blank" xlink:href="http://en.cppreference.com/w/cpp/numeric/math/isnan.html#" xlink:title=" ">
<polygon fill="white" stroke="black" points="257,-152.5 257,-171.5 316,-171.5 316,-152.5 257,-152.5"/>
<text text-anchor="middle" x="286.5" y="-159.5" font-family="Helvetica,sans-Serif" font-size="10.00">std::isnan</text>
</a>
</g>
</g>
<!-- Node5&#45;&gt;Node9 -->
<g id="edge8" class="edge">
<title>Node5&#45;&gt;Node9</title>
<path fill="none" stroke="midnightblue" d="M194.62,-187.97C211.81,-183.05 230.58,-177.69 246.58,-173.12"/>
<polygon fill="midnightblue" stroke="midnightblue" points="247.99,-176.36 256.65,-170.24 246.07,-169.63 247.99,-176.36"/>
</g>
<!-- Node11 -->
<g id="node11" class="node">
<title>Node11</title>
<g id="a_node11"><a target="_blank" xlink:href="http://en.cppreference.com/w/cpp/numeric/math/log.html#" xlink:title=" ">
<polygon fill="white" stroke="black" points="262,-114.5 262,-133.5 311,-133.5 311,-114.5 262,-114.5"/>
<text text-anchor="middle" x="286.5" y="-121.5" font-family="Helvetica,sans-Serif" font-size="10.00">std::log</text>
</a>
</g>
</g>
<!-- Node10&#45;&gt;Node11 -->
<g id="edge10" class="edge">
<title>Node10&#45;&gt;Node11</title>
<path fill="none" stroke="midnightblue" d="M155.5,-121.28C177.28,-121.74 220.83,-122.65 251.51,-123.29"/>
<polygon fill="midnightblue" stroke="midnightblue" points="251.69,-126.79 261.77,-123.5 251.84,-119.8 251.69,-126.79"/>
</g>
<!-- Node12 -->
<g id="node12" class="node">
<title>Node12</title>
<g id="a_node12"><a target="_blank" xlink:href="http://en.cppreference.com/w/cpp/numeric/math/sqrt.html#" xlink:title=" ">
<polygon fill="white" stroke="black" points="260,-76.5 260,-95.5 313,-95.5 313,-76.5 260,-76.5"/>
<text text-anchor="middle" x="286.5" y="-83.5" font-family="Helvetica,sans-Serif" font-size="10.00">std::sqrt</text>
</a>
</g>
</g>
<!-- Node10&#45;&gt;Node12 -->
<g id="edge11" class="edge">
<title>Node10&#45;&gt;Node12</title>
<path fill="none" stroke="midnightblue" d="M155.5,-117.71C176.94,-112.48 219.46,-102.11 250.05,-94.65"/>
<polygon fill="midnightblue" stroke="midnightblue" points="251.03,-98.01 259.91,-92.24 249.37,-91.21 251.03,-98.01"/>
</g>
<!-- Node14 -->
<g id="node14" class="node">
<title>Node14</title>
<g id="a_node14"><a target="_blank" xlink:href="http://en.cppreference.com/w/cpp/numeric/math/exp.html#" xlink:title=" ">
<polygon fill="white" stroke="black" points="260.5,-0.5 260.5,-19.5 312.5,-19.5 312.5,-0.5 260.5,-0.5"/>
<text text-anchor="middle" x="286.5" y="-7.5" font-family="Helvetica,sans-Serif" font-size="10.00">std::exp</text>
</a>
</g>
</g>
<!-- Node13&#45;&gt;Node14 -->
<g id="edge13" class="edge">
<title>Node13&#45;&gt;Node14</title>
<path fill="none" stroke="midnightblue" d="M155.5,-41.71C177.06,-36.45 219.96,-25.98 250.58,-18.52"/>
<polygon fill="midnightblue" stroke="midnightblue" points="251.56,-21.88 260.45,-16.11 249.9,-15.08 251.56,-21.88"/>
</g>
<!-- Node15 -->
<g id="node15" class="node">
<title>Node15</title>
<g id="a_node15"><a target="_blank" xlink:href="http://en.cppreference.com/w/cpp/numeric/math/pow.html#" xlink:title=" ">
<polygon fill="white" stroke="black" points="259.5,-38.5 259.5,-57.5 313.5,-57.5 313.5,-38.5 259.5,-38.5"/>
<text text-anchor="middle" x="286.5" y="-45.5" font-family="Helvetica,sans-Serif" font-size="10.00">std::pow</text>
</a>
</g>
</g>
<!-- Node13&#45;&gt;Node15 -->
<g id="edge14" class="edge">
<title>Node13&#45;&gt;Node15</title>
<path fill="none" stroke="midnightblue" d="M155.5,-45.28C176.72,-45.73 218.6,-46.6 249.11,-47.24"/>
<polygon fill="midnightblue" stroke="midnightblue" points="249.3,-50.74 259.38,-47.45 249.45,-43.75 249.3,-50.74"/>
</g>
<!-- Node16&#45;&gt;Node12 -->
<g id="edge18" class="edge">
<title>Node16&#45;&gt;Node12</title>
<path fill="none" stroke="midnightblue" d="M155.5,-83.28C176.84,-83.73 219.1,-84.61 249.65,-85.25"/>
<polygon fill="midnightblue" stroke="midnightblue" points="249.84,-88.76 259.91,-85.47 249.99,-81.76 249.84,-88.76"/>
</g>
<!-- Node16&#45;&gt;Node15 -->
<g id="edge17" class="edge">
<title>Node16&#45;&gt;Node15</title>
<path fill="none" stroke="midnightblue" d="M155.5,-79.71C176.81,-74.51 218.97,-64.23 249.51,-56.78"/>
<polygon fill="midnightblue" stroke="midnightblue" points="250.49,-60.14 259.38,-54.37 248.83,-53.34 250.49,-60.14"/>
</g>
<!-- Node17&#45;&gt;Node11 -->
<g id="edge20" class="edge">
<title>Node17&#45;&gt;Node11</title>
<path fill="none" stroke="midnightblue" d="M155.5,-155.71C177.38,-150.37 221.21,-139.68 251.91,-132.19"/>
<polygon fill="midnightblue" stroke="midnightblue" points="252.88,-135.56 261.77,-129.79 251.22,-128.76 252.88,-135.56"/>
</g>
</g>
</svg>
