<?xml version="1.0" encoding="UTF-8" standalone="no"?>
<!DOCTYPE svg PUBLIC "-//W3C//DTD SVG 1.1//EN"
 "http://www.w3.org/Graphics/SVG/1.1/DTD/svg11.dtd">
<!-- Generated by graphviz version 5.0.0 (20220707.1540)
 -->
<!-- Title: probability::geometric_dist::geometric_distribution::probability_density Pages: 1 -->
<svg width="302pt" height="66pt"
 viewBox="0.00 0.00 302.00 66.00" xmlns="http://www.w3.org/2000/svg" xmlns:xlink="http://www.w3.org/1999/xlink">
<g id="graph0" class="graph" transform="scale(1 1) rotate(0) translate(4 62)">
<title>probability::geometric_dist::geometric_distribution::probability_density</title>
<polygon fill="white" stroke="transparent" points="-4,4 -4,-62 298,-62 298,4 -4,4"/>
<!-- Node1 -->
<g id="node1" class="node">
<title>Node1</title>
<g id="a_node1"><a xlink:title="The probability density function.">
<polygon fill="#bfbfbf" stroke="black" points="0,-8.5 0,-49.5 139,-49.5 139,-8.5 0,-8.5"/>
<text text-anchor="start" x="8" y="-37.5" font-family="Helvetica,sans-Serif" font-size="10.00">probability::geometric</text>
<text text-anchor="start" x="8" y="-26.5" font-family="Helvetica,sans-Serif" font-size="10.00">_dist::geometric_distribution</text>
<text text-anchor="middle" x="69.5" y="-15.5" font-family="Helvetica,sans-Serif" font-size="10.00">::probability_density</text>
</a>
</g>
</g>
<!-- Node2 -->
<g id="node2" class="node">
<title>Node2</title>
<g id="a_node2"><a xlink:href="../../d4/d18/composite__simpson__rule_8cpp.html#a6d50f1b8eb533b54721812d16a3699cc" target="_top" xlink:title="Another test function.">
<polygon fill="white" stroke="black" points="175,-0.5 175,-19.5 204,-19.5 204,-0.5 175,-0.5"/>
<text text-anchor="middle" x="189.5" y="-7.5" font-family="Helvetica,sans-Serif" font-size="10.00">k</text>
</a>
</g>
</g>
<!-- Node1&#45;&gt;Node2 -->
<g id="edge1" class="edge">
<title>Node1&#45;&gt;Node2</title>
<path fill="none" stroke="midnightblue" d="M139.14,-17.95C148.38,-16.46 157.29,-15.03 164.94,-13.79"/>
<polygon fill="midnightblue" stroke="midnightblue" points="165.5,-17.25 174.81,-12.2 164.38,-10.34 165.5,-17.25"/>
</g>
<!-- Node3 -->
<g id="node3" class="node">
<title>Node3</title>
<g id="a_node3"><a target="_blank" xlink:href="http://en.cppreference.com/w/cpp/numeric/math/pow.html#" xlink:title=" ">
<polygon fill="white" stroke="black" points="240,-38.5 240,-57.5 294,-57.5 294,-38.5 240,-38.5"/>
<text text-anchor="middle" x="267" y="-45.5" font-family="Helvetica,sans-Serif" font-size="10.00">std::pow</text>
</a>
</g>
</g>
<!-- Node1&#45;&gt;Node3 -->
<g id="edge4" class="edge">
<title>Node1&#45;&gt;Node3</title>
<path fill="none" stroke="midnightblue" d="M139.15,-35.67C169.57,-38.63 204.13,-41.99 229.49,-44.45"/>
<polygon fill="midnightblue" stroke="midnightblue" points="229.46,-47.97 239.75,-45.45 230.14,-41 229.46,-47.97"/>
</g>
<!-- Node2&#45;&gt;Node3 -->
<g id="edge2" class="edge">
<title>Node2&#45;&gt;Node3</title>
<path fill="none" stroke="midnightblue" d="M204.35,-16.97C213.73,-21.69 226.45,-28.09 237.9,-33.86"/>
<polygon fill="midnightblue" stroke="midnightblue" points="236.62,-37.13 247.12,-38.5 239.76,-30.88 236.62,-37.13"/>
</g>
<!-- Node4 -->
<g id="node4" class="node">
<title>Node4</title>
<g id="a_node4"><a target="_blank" xlink:href="http://en.cppreference.com/w/cpp/numeric/math/sqrt.html#" xlink:title=" ">
<polygon fill="white" stroke="black" points="240.5,-0.5 240.5,-19.5 293.5,-19.5 293.5,-0.5 240.5,-0.5"/>
<text text-anchor="middle" x="267" y="-7.5" font-family="Helvetica,sans-Serif" font-size="10.00">std::sqrt</text>
</a>
</g>
</g>
<!-- Node2&#45;&gt;Node4 -->
<g id="edge3" class="edge">
<title>Node2&#45;&gt;Node4</title>
<path fill="none" stroke="midnightblue" d="M204.35,-10C211.65,-10 220.97,-10 230.15,-10"/>
<polygon fill="midnightblue" stroke="midnightblue" points="230.33,-13.5 240.33,-10 230.33,-6.5 230.33,-13.5"/>
</g>
</g>
</svg>
