<?xml version="1.0" encoding="UTF-8" standalone="no"?>
<!DOCTYPE svg PUBLIC "-//W3C//DTD SVG 1.1//EN"
 "http://www.w3.org/Graphics/SVG/1.1/DTD/svg11.dtd">
<!-- Generated by graphviz version 5.0.0 (20220707.1540)
 -->
<!-- Title: probability::geometric_dist::geometric_distribution::range_tries Pages: 1 -->
<svg width="477pt" height="96pt"
 viewBox="0.00 0.00 477.00 96.00" xmlns="http://www.w3.org/2000/svg" xmlns:xlink="http://www.w3.org/1999/xlink">
<g id="graph0" class="graph" transform="scale(1 1) rotate(0) translate(4 92)">
<title>probability::geometric_dist::geometric_distribution::range_tries</title>
<polygon fill="white" stroke="transparent" points="-4,4 -4,-92 473,-92 473,4 -4,4"/>
<!-- Node1 -->
<g id="node1" class="node">
<title>Node1</title>
<g id="a_node1"><a xlink:title="This function computes the probability to have success in a given range of tries.">
<polygon fill="#bfbfbf" stroke="black" points="0,-13.5 0,-54.5 139,-54.5 139,-13.5 0,-13.5"/>
<text text-anchor="start" x="8" y="-42.5" font-family="Helvetica,sans-Serif" font-size="10.00">probability::geometric</text>
<text text-anchor="start" x="8" y="-31.5" font-family="Helvetica,sans-Serif" font-size="10.00">_dist::geometric_distribution</text>
<text text-anchor="middle" x="69.5" y="-20.5" font-family="Helvetica,sans-Serif" font-size="10.00">::range_tries</text>
</a>
</g>
</g>
<!-- Node2 -->
<g id="node2" class="node">
<title>Node2</title>
<g id="a_node2"><a xlink:href="../../da/d19/classprobability_1_1geometric__dist_1_1geometric__distribution.html#a08328dc7d62188427111f176b56a105a" target="_top" xlink:title="The cumulative distribution function.">
<polygon fill="white" stroke="black" points="175,-38.5 175,-79.5 314,-79.5 314,-38.5 175,-38.5"/>
<text text-anchor="start" x="183" y="-67.5" font-family="Helvetica,sans-Serif" font-size="10.00">probability::geometric</text>
<text text-anchor="start" x="183" y="-56.5" font-family="Helvetica,sans-Serif" font-size="10.00">_dist::geometric_distribution</text>
<text text-anchor="middle" x="244.5" y="-45.5" font-family="Helvetica,sans-Serif" font-size="10.00">::cumulative_distribution</text>
</a>
</g>
</g>
<!-- Node1&#45;&gt;Node2 -->
<g id="edge1" class="edge">
<title>Node1&#45;&gt;Node2</title>
<path fill="none" stroke="midnightblue" d="M139.37,-43.95C147.77,-45.17 156.4,-46.41 164.92,-47.65"/>
<polygon fill="midnightblue" stroke="midnightblue" points="164.47,-51.12 174.87,-49.08 165.47,-44.19 164.47,-51.12"/>
</g>
<!-- Node6 -->
<g id="node6" class="node">
<title>Node6</title>
<g id="a_node6"><a target="_blank" xlink:href="http://en.cppreference.com/w/cpp/types/numeric_limits/max.html#" xlink:title=" ">
<polygon fill="white" stroke="black" points="182.5,-0.5 182.5,-19.5 306.5,-19.5 306.5,-0.5 182.5,-0.5"/>
<text text-anchor="middle" x="244.5" y="-7.5" font-family="Helvetica,sans-Serif" font-size="10.00">std::numeric_limits::max</text>
</a>
</g>
</g>
<!-- Node1&#45;&gt;Node6 -->
<g id="edge6" class="edge">
<title>Node1&#45;&gt;Node6</title>
<path fill="none" stroke="midnightblue" d="M139.37,-24.45C150.26,-22.93 161.55,-21.37 172.49,-19.85"/>
<polygon fill="midnightblue" stroke="midnightblue" points="173,-23.31 182.42,-18.47 172.03,-16.38 173,-23.31"/>
</g>
<!-- Node3 -->
<g id="node3" class="node">
<title>Node3</title>
<g id="a_node3"><a xlink:href="../../d4/d18/composite__simpson__rule_8cpp.html#a6d50f1b8eb533b54721812d16a3699cc" target="_top" xlink:title="Another test function.">
<polygon fill="white" stroke="black" points="350,-30.5 350,-49.5 379,-49.5 379,-30.5 350,-30.5"/>
<text text-anchor="middle" x="364.5" y="-37.5" font-family="Helvetica,sans-Serif" font-size="10.00">k</text>
</a>
</g>
</g>
<!-- Node2&#45;&gt;Node3 -->
<g id="edge2" class="edge">
<title>Node2&#45;&gt;Node3</title>
<path fill="none" stroke="midnightblue" d="M314.14,-47.95C323.38,-46.46 332.29,-45.03 339.94,-43.79"/>
<polygon fill="midnightblue" stroke="midnightblue" points="340.5,-47.25 349.81,-42.2 339.38,-40.34 340.5,-47.25"/>
</g>
<!-- Node4 -->
<g id="node4" class="node">
<title>Node4</title>
<g id="a_node4"><a target="_blank" xlink:href="http://en.cppreference.com/w/cpp/numeric/math/pow.html#" xlink:title=" ">
<polygon fill="white" stroke="black" points="415,-68.5 415,-87.5 469,-87.5 469,-68.5 415,-68.5"/>
<text text-anchor="middle" x="442" y="-75.5" font-family="Helvetica,sans-Serif" font-size="10.00">std::pow</text>
</a>
</g>
</g>
<!-- Node2&#45;&gt;Node4 -->
<g id="edge5" class="edge">
<title>Node2&#45;&gt;Node4</title>
<path fill="none" stroke="midnightblue" d="M314.15,-65.67C344.57,-68.63 379.13,-71.99 404.49,-74.45"/>
<polygon fill="midnightblue" stroke="midnightblue" points="404.46,-77.97 414.75,-75.45 405.14,-71 404.46,-77.97"/>
</g>
<!-- Node3&#45;&gt;Node4 -->
<g id="edge3" class="edge">
<title>Node3&#45;&gt;Node4</title>
<path fill="none" stroke="midnightblue" d="M379.35,-46.97C388.73,-51.69 401.45,-58.09 412.9,-63.86"/>
<polygon fill="midnightblue" stroke="midnightblue" points="411.62,-67.13 422.12,-68.5 414.76,-60.88 411.62,-67.13"/>
</g>
<!-- Node5 -->
<g id="node5" class="node">
<title>Node5</title>
<g id="a_node5"><a target="_blank" xlink:href="http://en.cppreference.com/w/cpp/numeric/math/sqrt.html#" xlink:title=" ">
<polygon fill="white" stroke="black" points="415.5,-30.5 415.5,-49.5 468.5,-49.5 468.5,-30.5 415.5,-30.5"/>
<text text-anchor="middle" x="442" y="-37.5" font-family="Helvetica,sans-Serif" font-size="10.00">std::sqrt</text>
</a>
</g>
</g>
<!-- Node3&#45;&gt;Node5 -->
<g id="edge4" class="edge">
<title>Node3&#45;&gt;Node5</title>
<path fill="none" stroke="midnightblue" d="M379.35,-40C386.65,-40 395.97,-40 405.15,-40"/>
<polygon fill="midnightblue" stroke="midnightblue" points="405.33,-43.5 415.33,-40 405.33,-36.5 405.33,-43.5"/>
</g>
</g>
</svg>
