<?xml version="1.0" encoding="UTF-8" standalone="no"?>
<!DOCTYPE svg PUBLIC "-//W3C//DTD SVG 1.1//EN"
 "http://www.w3.org/Graphics/SVG/1.1/DTD/svg11.dtd">
<!-- Generated by graphviz version 5.0.0 (20220707.1540)
 -->
<!-- Title: spirograph::test Pages: 1 -->
<svg width="420pt" height="256pt"
 viewBox="0.00 0.00 420.00 256.00" xmlns="http://www.w3.org/2000/svg" xmlns:xlink="http://www.w3.org/1999/xlink">
<g id="graph0" class="graph" transform="scale(1 1) rotate(0) translate(4 252)">
<title>spirograph::test</title>
<polygon fill="white" stroke="transparent" points="-4,4 -4,-252 416,-252 416,4 -4,4"/>
<!-- Node1 -->
<g id="node1" class="node">
<title>Node1</title>
<g id="a_node1"><a xlink:title="Test function to save resulting points to a CSV file.">
<polygon fill="#bfbfbf" stroke="black" points="0,-114.5 0,-133.5 84,-133.5 84,-114.5 0,-114.5"/>
<text text-anchor="middle" x="42" y="-121.5" font-family="Helvetica,sans-Serif" font-size="10.00">spirograph::test</text>
</a>
</g>
</g>
<!-- Node2 -->
<g id="node2" class="node">
<title>Node2</title>
<g id="a_node2"><a target="_blank" xlink:href="http://en.cppreference.com/w/cpp/io/basic_ofstream/close.html#" xlink:title=" ">
<polygon fill="white" stroke="black" points="125,-228.5 125,-247.5 229,-247.5 229,-228.5 125,-228.5"/>
<text text-anchor="middle" x="177" y="-235.5" font-family="Helvetica,sans-Serif" font-size="10.00">std::ofstream::close</text>
</a>
</g>
</g>
<!-- Node1&#45;&gt;Node2 -->
<g id="edge1" class="edge">
<title>Node1&#45;&gt;Node2</title>
<path fill="none" stroke="midnightblue" d="M48.25,-133.58C59.13,-152.6 86.03,-195.34 120,-219 122.74,-220.91 125.68,-222.64 128.74,-224.2"/>
<polygon fill="midnightblue" stroke="midnightblue" points="127.59,-227.52 138.14,-228.42 130.45,-221.13 127.59,-227.52"/>
</g>
<!-- Node3 -->
<g id="node3" class="node">
<title>Node3</title>
<g id="a_node3"><a target="_blank" xlink:href="http://en.cppreference.com/w/cpp/io/basic_ofstream/is_open.html#" xlink:title=" ">
<polygon fill="white" stroke="black" points="120,-190.5 120,-209.5 234,-209.5 234,-190.5 120,-190.5"/>
<text text-anchor="middle" x="177" y="-197.5" font-family="Helvetica,sans-Serif" font-size="10.00">std::ofstream::is_open</text>
</a>
</g>
</g>
<!-- Node1&#45;&gt;Node3 -->
<g id="edge2" class="edge">
<title>Node1&#45;&gt;Node3</title>
<path fill="none" stroke="midnightblue" d="M55.61,-133.61C70.48,-144.68 96.21,-163.02 120,-176 126.77,-179.69 134.22,-183.23 141.42,-186.39"/>
<polygon fill="midnightblue" stroke="midnightblue" points="140.42,-189.77 150.99,-190.47 143.16,-183.33 140.42,-189.77"/>
</g>
<!-- Node4 -->
<g id="node4" class="node">
<title>Node4</title>
<g id="a_node4"><a xlink:href="../../d4/d18/composite__simpson__rule_8cpp.html#a6d50f1b8eb533b54721812d16a3699cc" target="_top" xlink:title="Another test function.">
<polygon fill="white" stroke="black" points="281.5,-152.5 281.5,-171.5 310.5,-171.5 310.5,-152.5 281.5,-152.5"/>
<text text-anchor="middle" x="296" y="-159.5" font-family="Helvetica,sans-Serif" font-size="10.00">k</text>
</a>
</g>
</g>
<!-- Node1&#45;&gt;Node4 -->
<g id="edge3" class="edge">
<title>Node1&#45;&gt;Node4</title>
<path fill="none" stroke="midnightblue" d="M84.1,-131.82C95.69,-133.93 108.33,-136.14 120,-138 173.87,-146.59 237.38,-154.83 271.11,-159.06"/>
<polygon fill="midnightblue" stroke="midnightblue" points="271,-162.57 281.36,-160.33 271.86,-155.63 271,-162.57"/>
</g>
<!-- Node7 -->
<g id="node7" class="node">
<title>Node7</title>
<g id="a_node7"><a xlink:href="../../d4/d18/composite__simpson__rule_8cpp.html#a995716bc040dc6cf32b5cb3df51c4529" target="_top" xlink:title="Another test function.">
<polygon fill="white" stroke="black" points="281.5,-114.5 281.5,-133.5 310.5,-133.5 310.5,-114.5 281.5,-114.5"/>
<text text-anchor="middle" x="296" y="-121.5" font-family="Helvetica,sans-Serif" font-size="10.00">l</text>
</a>
</g>
</g>
<!-- Node1&#45;&gt;Node7 -->
<g id="edge6" class="edge">
<title>Node1&#45;&gt;Node7</title>
<path fill="none" stroke="midnightblue" d="M84.05,-124C137.29,-124 228.42,-124 271.33,-124"/>
<polygon fill="midnightblue" stroke="midnightblue" points="271.39,-127.5 281.39,-124 271.39,-120.5 271.39,-127.5"/>
</g>
<!-- Node9 -->
<g id="node9" class="node">
<title>Node9</title>
<g id="a_node9"><a target="_blank" xlink:href="http://en.cppreference.com/w/cpp/io/manip/setw.html#" xlink:title=" ">
<polygon fill="white" stroke="black" points="148.5,-38.5 148.5,-57.5 205.5,-57.5 205.5,-38.5 148.5,-38.5"/>
<text text-anchor="middle" x="177" y="-45.5" font-family="Helvetica,sans-Serif" font-size="10.00">std::setw</text>
</a>
</g>
</g>
<!-- Node1&#45;&gt;Node9 -->
<g id="edge8" class="edge">
<title>Node1&#45;&gt;Node9</title>
<path fill="none" stroke="midnightblue" d="M53.75,-114.33C68,-101.93 94.36,-80.42 120,-67 125.79,-63.97 132.16,-61.27 138.47,-58.93"/>
<polygon fill="midnightblue" stroke="midnightblue" points="139.94,-62.12 148.24,-55.54 137.64,-55.51 139.94,-62.12"/>
</g>
<!-- Node10 -->
<g id="node10" class="node">
<title>Node10</title>
<g id="a_node10"><a xlink:href="../../da/dd3/namespacespirograph.html#aeca22dbe4563358960e907a40cd3e1ac" target="_top" xlink:title=" ">
<polygon fill="white" stroke="black" points="120.5,-76.5 120.5,-95.5 233.5,-95.5 233.5,-76.5 120.5,-76.5"/>
<text text-anchor="middle" x="177" y="-83.5" font-family="Helvetica,sans-Serif" font-size="10.00">spirograph::spirograph</text>
</a>
</g>
</g>
<!-- Node1&#45;&gt;Node10 -->
<g id="edge9" class="edge">
<title>Node1&#45;&gt;Node10</title>
<path fill="none" stroke="midnightblue" d="M76.56,-114.41C93.57,-109.55 114.43,-103.59 132.64,-98.39"/>
<polygon fill="midnightblue" stroke="midnightblue" points="133.8,-101.7 142.45,-95.59 131.87,-94.97 133.8,-101.7"/>
</g>
<!-- Node13 -->
<g id="node13" class="node">
<title>Node13</title>
<g id="a_node13"><a target="_blank" xlink:href="http://en.cppreference.com/w/cpp/io/basic_stringstream/str.html#" xlink:title=" ">
<polygon fill="white" stroke="black" points="123.5,-0.5 123.5,-19.5 230.5,-19.5 230.5,-0.5 123.5,-0.5"/>
<text text-anchor="middle" x="177" y="-7.5" font-family="Helvetica,sans-Serif" font-size="10.00">std::stringstream::str</text>
</a>
</g>
</g>
<!-- Node1&#45;&gt;Node13 -->
<g id="edge14" class="edge">
<title>Node1&#45;&gt;Node13</title>
<path fill="none" stroke="midnightblue" d="M48.25,-114.42C59.13,-95.4 86.03,-52.66 120,-29 122.74,-27.09 125.68,-25.36 128.74,-23.8"/>
<polygon fill="midnightblue" stroke="midnightblue" points="130.45,-26.87 138.14,-19.58 127.59,-20.48 130.45,-26.87"/>
</g>
<!-- Node5 -->
<g id="node5" class="node">
<title>Node5</title>
<g id="a_node5"><a target="_blank" xlink:href="http://en.cppreference.com/w/cpp/numeric/math/pow.html#" xlink:title=" ">
<polygon fill="white" stroke="black" points="358,-152.5 358,-171.5 412,-171.5 412,-152.5 358,-152.5"/>
<text text-anchor="middle" x="385" y="-159.5" font-family="Helvetica,sans-Serif" font-size="10.00">std::pow</text>
</a>
</g>
</g>
<!-- Node4&#45;&gt;Node5 -->
<g id="edge4" class="edge">
<title>Node4&#45;&gt;Node5</title>
<path fill="none" stroke="midnightblue" d="M310.59,-162C320.55,-162 334.55,-162 347.67,-162"/>
<polygon fill="midnightblue" stroke="midnightblue" points="347.9,-165.5 357.9,-162 347.9,-158.5 347.9,-165.5"/>
</g>
<!-- Node6 -->
<g id="node6" class="node">
<title>Node6</title>
<g id="a_node6"><a target="_blank" xlink:href="http://en.cppreference.com/w/cpp/numeric/math/sqrt.html#" xlink:title=" ">
<polygon fill="white" stroke="black" points="358.5,-190.5 358.5,-209.5 411.5,-209.5 411.5,-190.5 358.5,-190.5"/>
<text text-anchor="middle" x="385" y="-197.5" font-family="Helvetica,sans-Serif" font-size="10.00">std::sqrt</text>
</a>
</g>
</g>
<!-- Node4&#45;&gt;Node6 -->
<g id="edge5" class="edge">
<title>Node4&#45;&gt;Node6</title>
<path fill="none" stroke="midnightblue" d="M310.59,-167.94C321.78,-172.82 338.07,-179.94 352.47,-186.23"/>
<polygon fill="midnightblue" stroke="midnightblue" points="351.48,-189.62 362.05,-190.41 354.28,-183.2 351.48,-189.62"/>
</g>
<!-- Node8 -->
<g id="node8" class="node">
<title>Node8</title>
<g id="a_node8"><a target="_blank" xlink:href="http://en.cppreference.com/w/cpp/numeric/math/log.html#" xlink:title=" ">
<polygon fill="white" stroke="black" points="360.5,-114.5 360.5,-133.5 409.5,-133.5 409.5,-114.5 360.5,-114.5"/>
<text text-anchor="middle" x="385" y="-121.5" font-family="Helvetica,sans-Serif" font-size="10.00">std::log</text>
</a>
</g>
</g>
<!-- Node7&#45;&gt;Node8 -->
<g id="edge7" class="edge">
<title>Node7&#45;&gt;Node8</title>
<path fill="none" stroke="midnightblue" d="M310.59,-124C321.18,-124 336.35,-124 350.15,-124"/>
<polygon fill="midnightblue" stroke="midnightblue" points="350.34,-127.5 360.34,-124 350.34,-120.5 350.34,-127.5"/>
</g>
<!-- Node10&#45;&gt;Node4 -->
<g id="edge11" class="edge">
<title>Node10&#45;&gt;Node4</title>
<path fill="none" stroke="midnightblue" d="M192.82,-95.63C213.01,-108.74 249.34,-132.34 272.8,-147.58"/>
<polygon fill="midnightblue" stroke="midnightblue" points="271.1,-150.65 281.39,-153.16 274.91,-144.78 271.1,-150.65"/>
</g>
<!-- Node10&#45;&gt;Node7 -->
<g id="edge12" class="edge">
<title>Node10&#45;&gt;Node7</title>
<path fill="none" stroke="midnightblue" d="M207.52,-95.59C227.42,-102.05 253.31,-110.46 271.74,-116.45"/>
<polygon fill="midnightblue" stroke="midnightblue" points="270.79,-119.82 281.39,-119.58 272.96,-113.16 270.79,-119.82"/>
</g>
<!-- Node11 -->
<g id="node11" class="node">
<title>Node11</title>
<g id="a_node11"><a target="_blank" xlink:href="http://en.cppreference.com/w/cpp/numeric/math/cos.html#" xlink:title=" ">
<polygon fill="white" stroke="black" points="270,-76.5 270,-95.5 322,-95.5 322,-76.5 270,-76.5"/>
<text text-anchor="middle" x="296" y="-83.5" font-family="Helvetica,sans-Serif" font-size="10.00">std::cos</text>
</a>
</g>
</g>
<!-- Node10&#45;&gt;Node11 -->
<g id="edge10" class="edge">
<title>Node10&#45;&gt;Node11</title>
<path fill="none" stroke="midnightblue" d="M233.76,-86C242.52,-86 251.36,-86 259.49,-86"/>
<polygon fill="midnightblue" stroke="midnightblue" points="259.71,-89.5 269.71,-86 259.71,-82.5 259.71,-89.5"/>
</g>
<!-- Node12 -->
<g id="node12" class="node">
<title>Node12</title>
<g id="a_node12"><a target="_blank" xlink:href="http://en.cppreference.com/w/cpp/numeric/math/sin.html#" xlink:title=" ">
<polygon fill="white" stroke="black" points="271.5,-38.5 271.5,-57.5 320.5,-57.5 320.5,-38.5 271.5,-38.5"/>
<text text-anchor="middle" x="296" y="-45.5" font-family="Helvetica,sans-Serif" font-size="10.00">std::sin</text>
</a>
</g>
</g>
<!-- Node10&#45;&gt;Node12 -->
<g id="edge13" class="edge">
<title>Node10&#45;&gt;Node12</title>
<path fill="none" stroke="midnightblue" d="M207.52,-76.41C224.05,-71.04 244.7,-64.34 261.79,-58.79"/>
<polygon fill="midnightblue" stroke="midnightblue" points="262.95,-62.09 271.38,-55.67 260.78,-55.43 262.95,-62.09"/>
</g>
</g>
</svg>
