<?xml version="1.0" encoding="UTF-8" standalone="no"?>
<!DOCTYPE svg PUBLIC "-//W3C//DTD SVG 1.1//EN"
 "http://www.w3.org/Graphics/SVG/1.1/DTD/svg11.dtd">
<!-- Generated by graphviz version 5.0.0 (20220707.1540)
 -->
<!-- Title: sorting::merge_insertion::mergeSort Pages: 1 -->
<svg width="560pt" height="238pt"
 viewBox="0.00 0.00 560.00 237.50" xmlns="http://www.w3.org/2000/svg" xmlns:xlink="http://www.w3.org/1999/xlink">
<g id="graph0" class="graph" transform="scale(1 1) rotate(0) translate(4 233.5)">
<title>sorting::merge_insertion::mergeSort</title>
<polygon fill="white" stroke="transparent" points="-4,4 -4,-233.5 556,-233.5 556,4 -4,4"/>
<!-- Node1 -->
<g id="node1" class="node">
<title>Node1</title>
<g id="a_node1"><a xlink:title="Final combined algorithm. Algorithm utilizes ::sorting::merge_insertion::InsertionSort if window leng...">
<polygon fill="#bfbfbf" stroke="black" points="0,-134 0,-164 121,-164 121,-134 0,-134"/>
<text text-anchor="start" x="8" y="-152" font-family="Helvetica,sans-Serif" font-size="10.00">sorting::merge_insertion</text>
<text text-anchor="middle" x="60.5" y="-141" font-family="Helvetica,sans-Serif" font-size="10.00">::mergeSort</text>
</a>
</g>
</g>
<!-- Node2 -->
<g id="node2" class="node">
<title>Node2</title>
<g id="a_node2"><a xlink:href="../../de/d7b/merge__insertion__sort_8cpp.html#a0cba4fbf287ab8cb978ed7f8fef886b1" target="_top" xlink:title="Insertion merge algorithm.">
<polygon fill="white" stroke="black" points="157,-181 157,-211 278,-211 278,-181 157,-181"/>
<text text-anchor="start" x="165" y="-199" font-family="Helvetica,sans-Serif" font-size="10.00">sorting::merge_insertion</text>
<text text-anchor="middle" x="217.5" y="-188" font-family="Helvetica,sans-Serif" font-size="10.00">::InsertionSort</text>
</a>
</g>
</g>
<!-- Node1&#45;&gt;Node2 -->
<g id="edge1" class="edge">
<title>Node1&#45;&gt;Node2</title>
<path fill="none" stroke="midnightblue" d="M110.97,-164C125.65,-168.45 141.88,-173.37 157.12,-178"/>
<polygon fill="midnightblue" stroke="midnightblue" points="156.38,-181.43 166.97,-180.98 158.42,-174.73 156.38,-181.43"/>
</g>
<!-- Node4 -->
<g id="node4" class="node">
<title>Node4</title>
<g id="a_node4"><a xlink:href="../../d5/d91/namespacesorting.html#aa26de383227859210f14dcf12201a079" target="_top" xlink:title="merges 2 sorted adjacent segments into a larger sorted segment">
<polygon fill="white" stroke="black" points="178,-139.5 178,-158.5 257,-158.5 257,-139.5 178,-139.5"/>
<text text-anchor="middle" x="217.5" y="-146.5" font-family="Helvetica,sans-Serif" font-size="10.00">sorting::merge</text>
</a>
</g>
</g>
<!-- Node1&#45;&gt;Node4 -->
<g id="edge4" class="edge">
<title>Node1&#45;&gt;Node4</title>
<path fill="none" stroke="midnightblue" d="M121.43,-149C136.65,-149 152.82,-149 167.43,-149"/>
<polygon fill="midnightblue" stroke="midnightblue" points="167.75,-152.5 177.75,-149 167.75,-145.5 167.75,-152.5"/>
</g>
<!-- Node8 -->
<g id="node8" class="node">
<title>Node8</title>
<g id="a_node8"><a xlink:href="../../d5/d4c/group__sorting.html#gab6b14fea48d9841e29b9fc26be6e05d7" target="_top" xlink:title=" ">
<polygon fill="white" stroke="black" points="186.5,-76.5 186.5,-95.5 248.5,-95.5 248.5,-76.5 186.5,-76.5"/>
<text text-anchor="middle" x="217.5" y="-83.5" font-family="Helvetica,sans-Serif" font-size="10.00">mergeSort</text>
</a>
</g>
</g>
<!-- Node1&#45;&gt;Node8 -->
<g id="edge8" class="edge">
<title>Node1&#45;&gt;Node8</title>
<path fill="none" stroke="midnightblue" d="M98.63,-133.91C124.4,-123.43 158.44,-109.6 183.31,-99.49"/>
<polygon fill="midnightblue" stroke="midnightblue" points="184.75,-102.68 192.69,-95.68 182.11,-96.2 184.75,-102.68"/>
</g>
<!-- Node2&#45;&gt;Node2 -->
<g id="edge3" class="edge">
<title>Node2&#45;&gt;Node2</title>
<path fill="none" stroke="midnightblue" d="M193.45,-211.16C187.65,-220.56 195.67,-229.5 217.5,-229.5 230.8,-229.5 238.98,-226.18 242.02,-221.46"/>
<polygon fill="midnightblue" stroke="midnightblue" points="245.5,-220.99 241.55,-211.16 238.51,-221.31 245.5,-220.99"/>
</g>
<!-- Node3 -->
<g id="node3" class="node">
<title>Node3</title>
<g id="a_node3"><a target="_blank" xlink:href="http://en.cppreference.com/w/cpp/container/array/data.html#" xlink:title=" ">
<polygon fill="white" stroke="black" points="314,-190.5 314,-209.5 397,-209.5 397,-190.5 314,-190.5"/>
<text text-anchor="middle" x="355.5" y="-197.5" font-family="Helvetica,sans-Serif" font-size="10.00">std::array::data</text>
</a>
</g>
</g>
<!-- Node2&#45;&gt;Node3 -->
<g id="edge2" class="edge">
<title>Node2&#45;&gt;Node3</title>
<path fill="none" stroke="midnightblue" d="M278.15,-197.75C286.58,-198 295.19,-198.26 303.44,-198.5"/>
<polygon fill="midnightblue" stroke="midnightblue" points="303.56,-202 313.66,-198.8 303.76,-195.01 303.56,-202"/>
</g>
<!-- Node5 -->
<g id="node5" class="node">
<title>Node5</title>
<g id="a_node5"><a xlink:href="../../d4/d18/composite__simpson__rule_8cpp.html#a995716bc040dc6cf32b5cb3df51c4529" target="_top" xlink:title="Another test function.">
<polygon fill="white" stroke="black" points="433,-76.5 433,-95.5 462,-95.5 462,-76.5 433,-76.5"/>
<text text-anchor="middle" x="447.5" y="-83.5" font-family="Helvetica,sans-Serif" font-size="10.00">l</text>
</a>
</g>
</g>
<!-- Node4&#45;&gt;Node5 -->
<g id="edge5" class="edge">
<title>Node4&#45;&gt;Node5</title>
<path fill="none" stroke="midnightblue" d="M257.15,-156.25C294.78,-161.4 352.63,-164.14 397,-143 413.95,-134.92 427.43,-118.04 436.01,-104.74"/>
<polygon fill="midnightblue" stroke="midnightblue" points="439.2,-106.22 441.38,-95.86 433.21,-102.6 439.2,-106.22"/>
</g>
<!-- Node7 -->
<g id="node7" class="node">
<title>Node7</title>
<g id="a_node7"><a target="_blank" xlink:href="http://en.cppreference.com/w/cpp/utility/move.html#" xlink:title=" ">
<polygon fill="white" stroke="black" points="325.5,-114.5 325.5,-133.5 385.5,-133.5 385.5,-114.5 325.5,-114.5"/>
<text text-anchor="middle" x="355.5" y="-121.5" font-family="Helvetica,sans-Serif" font-size="10.00">std::move</text>
</a>
</g>
</g>
<!-- Node4&#45;&gt;Node7 -->
<g id="edge7" class="edge">
<title>Node4&#45;&gt;Node7</title>
<path fill="none" stroke="midnightblue" d="M257.11,-141.9C275.31,-138.56 296.99,-134.57 315.27,-131.21"/>
<polygon fill="midnightblue" stroke="midnightblue" points="316.11,-134.62 325.31,-129.37 314.85,-127.73 316.11,-134.62"/>
</g>
<!-- Node6 -->
<g id="node6" class="node">
<title>Node6</title>
<g id="a_node6"><a target="_blank" xlink:href="http://en.cppreference.com/w/cpp/numeric/math/log.html#" xlink:title=" ">
<polygon fill="white" stroke="black" points="500.5,-76.5 500.5,-95.5 549.5,-95.5 549.5,-76.5 500.5,-76.5"/>
<text text-anchor="middle" x="525" y="-83.5" font-family="Helvetica,sans-Serif" font-size="10.00">std::log</text>
</a>
</g>
</g>
<!-- Node5&#45;&gt;Node6 -->
<g id="edge6" class="edge">
<title>Node5&#45;&gt;Node6</title>
<path fill="none" stroke="midnightblue" d="M462.35,-86C470.25,-86 480.52,-86 490.4,-86"/>
<polygon fill="midnightblue" stroke="midnightblue" points="490.45,-89.5 500.45,-86 490.45,-82.5 490.45,-89.5"/>
</g>
<!-- Node8&#45;&gt;Node5 -->
<g id="edge9" class="edge">
<title>Node8&#45;&gt;Node5</title>
<path fill="none" stroke="midnightblue" d="M248.78,-86C294.7,-86 381.03,-86 422.74,-86"/>
<polygon fill="midnightblue" stroke="midnightblue" points="422.79,-89.5 432.79,-86 422.79,-82.5 422.79,-89.5"/>
</g>
<!-- Node8&#45;&gt;Node8 -->
<g id="edge15" class="edge">
<title>Node8&#45;&gt;Node8</title>
<path fill="none" stroke="midnightblue" d="M196.23,-95.76C185.88,-104.57 192.97,-114 217.5,-114 233.21,-114 241.77,-110.13 243.17,-105.03"/>
<polygon fill="midnightblue" stroke="midnightblue" points="246.22,-103.29 238.77,-95.76 239.89,-106.29 246.22,-103.29"/>
</g>
<!-- Node9 -->
<g id="node9" class="node">
<title>Node9</title>
<g id="a_node9"><a xlink:href="../../d5/d4c/group__sorting.html#ga460c61cd948203b4816bef2accb3fc73" target="_top" xlink:title=" ">
<polygon fill="white" stroke="black" points="333.5,-38.5 333.5,-57.5 377.5,-57.5 377.5,-38.5 333.5,-38.5"/>
<text text-anchor="middle" x="355.5" y="-45.5" font-family="Helvetica,sans-Serif" font-size="10.00">merge</text>
</a>
</g>
</g>
<!-- Node8&#45;&gt;Node9 -->
<g id="edge10" class="edge">
<title>Node8&#45;&gt;Node9</title>
<path fill="none" stroke="midnightblue" d="M248.68,-77.57C270.94,-71.35 301.13,-62.91 323.56,-56.64"/>
<polygon fill="midnightblue" stroke="midnightblue" points="324.58,-59.99 333.27,-53.93 322.7,-53.25 324.58,-59.99"/>
</g>
<!-- Node9&#45;&gt;Node5 -->
<g id="edge14" class="edge">
<title>Node9&#45;&gt;Node5</title>
<path fill="none" stroke="midnightblue" d="M377.83,-57.01C391.55,-62.8 409.37,-70.32 423.42,-76.26"/>
<polygon fill="midnightblue" stroke="midnightblue" points="422.3,-79.58 432.87,-80.25 425.02,-73.13 422.3,-79.58"/>
</g>
<!-- Node10 -->
<g id="node10" class="node">
<title>Node10</title>
<g id="a_node10"><a xlink:href="../../d4/d18/composite__simpson__rule_8cpp.html#a6d50f1b8eb533b54721812d16a3699cc" target="_top" xlink:title="Another test function.">
<polygon fill="white" stroke="black" points="433,-38.5 433,-57.5 462,-57.5 462,-38.5 433,-38.5"/>
<text text-anchor="middle" x="447.5" y="-45.5" font-family="Helvetica,sans-Serif" font-size="10.00">k</text>
</a>
</g>
</g>
<!-- Node9&#45;&gt;Node10 -->
<g id="edge11" class="edge">
<title>Node9&#45;&gt;Node10</title>
<path fill="none" stroke="midnightblue" d="M377.83,-48C391.28,-48 408.68,-48 422.6,-48"/>
<polygon fill="midnightblue" stroke="midnightblue" points="422.87,-51.5 432.87,-48 422.87,-44.5 422.87,-51.5"/>
</g>
<!-- Node11 -->
<g id="node11" class="node">
<title>Node11</title>
<g id="a_node11"><a target="_blank" xlink:href="http://en.cppreference.com/w/cpp/numeric/math/pow.html#" xlink:title=" ">
<polygon fill="white" stroke="black" points="498,-38.5 498,-57.5 552,-57.5 552,-38.5 498,-38.5"/>
<text text-anchor="middle" x="525" y="-45.5" font-family="Helvetica,sans-Serif" font-size="10.00">std::pow</text>
</a>
</g>
</g>
<!-- Node10&#45;&gt;Node11 -->
<g id="edge12" class="edge">
<title>Node10&#45;&gt;Node11</title>
<path fill="none" stroke="midnightblue" d="M462.35,-48C469.52,-48 478.66,-48 487.68,-48"/>
<polygon fill="midnightblue" stroke="midnightblue" points="487.71,-51.5 497.71,-48 487.71,-44.5 487.71,-51.5"/>
</g>
<!-- Node12 -->
<g id="node12" class="node">
<title>Node12</title>
<g id="a_node12"><a target="_blank" xlink:href="http://en.cppreference.com/w/cpp/numeric/math/sqrt.html#" xlink:title=" ">
<polygon fill="white" stroke="black" points="498.5,-0.5 498.5,-19.5 551.5,-19.5 551.5,-0.5 498.5,-0.5"/>
<text text-anchor="middle" x="525" y="-7.5" font-family="Helvetica,sans-Serif" font-size="10.00">std::sqrt</text>
</a>
</g>
</g>
<!-- Node10&#45;&gt;Node12 -->
<g id="edge13" class="edge">
<title>Node10&#45;&gt;Node12</title>
<path fill="none" stroke="midnightblue" d="M462.35,-41.03C471.73,-36.31 484.45,-29.91 495.9,-24.14"/>
<polygon fill="midnightblue" stroke="midnightblue" points="497.76,-27.12 505.12,-19.5 494.62,-20.87 497.76,-27.12"/>
</g>
</g>
</svg>
