<?xml version="1.0" encoding="UTF-8" standalone="no"?>
<!DOCTYPE svg PUBLIC "-//W3C//DTD SVG 1.1//EN"
 "http://www.w3.org/Graphics/SVG/1.1/DTD/svg11.dtd">
<!-- Generated by graphviz version 5.0.0 (20220707.1540)
 -->
<!-- Title: tests::test1 Pages: 1 -->
<svg width="624pt" height="249pt"
 viewBox="0.00 0.00 624.00 249.00" xmlns="http://www.w3.org/2000/svg" xmlns:xlink="http://www.w3.org/1999/xlink">
<g id="graph0" class="graph" transform="scale(1 1) rotate(0) translate(4 245)">
<title>tests::test1</title>
<polygon fill="white" stroke="transparent" points="-4,4 -4,-245 620,-245 620,4 -4,4"/>
<!-- Node1 -->
<g id="node1" class="node">
<title>Node1</title>
<g id="a_node1"><a xlink:title="&lt; Use the BinaryTree">
<polygon fill="#bfbfbf" stroke="black" points="0,-104.5 0,-123.5 66,-123.5 66,-104.5 0,-104.5"/>
<text text-anchor="middle" x="33" y="-111.5" font-family="Helvetica,sans-Serif" font-size="10.00">tests::test1</text>
</a>
</g>
</g>
<!-- Node2 -->
<g id="node2" class="node">
<title>Node2</title>
<g id="a_node2"><a xlink:href="../../de/dcf/classoperations__on__datastructures_1_1reverse__binary__tree_1_1_binary_tree.html#a534645d1aabdf1a7e5897c85376f173d" target="_top" xlink:title="Adds a new Node to the Binary Tree.">
<polygon fill="white" stroke="black" points="103.5,-187 103.5,-217 286.5,-217 286.5,-187 103.5,-187"/>
<text text-anchor="start" x="111.5" y="-205" font-family="Helvetica,sans-Serif" font-size="10.00">operations_on_datastructures</text>
<text text-anchor="middle" x="195" y="-194" font-family="Helvetica,sans-Serif" font-size="10.00">::reverse_binary_tree::BinaryTree::add</text>
</a>
</g>
</g>
<!-- Node1&#45;&gt;Node2 -->
<g id="edge1" class="edge">
<title>Node1&#45;&gt;Node2</title>
<path fill="none" stroke="midnightblue" d="M42.79,-123.54C54.97,-136.24 78.18,-158.65 102,-172 109.67,-176.3 118.04,-180.09 126.52,-183.4"/>
<polygon fill="midnightblue" stroke="midnightblue" points="125.5,-186.76 136.09,-186.95 127.93,-180.2 125.5,-186.76"/>
</g>
<!-- Node4 -->
<g id="node4" class="node">
<title>Node4</title>
<g id="a_node4"><a xlink:href="../../de/dcf/classoperations__on__datastructures_1_1reverse__binary__tree_1_1_binary_tree.html#a2e683b271d8d5cd63e0d09cf8aaa325c" target="_top" xlink:title="Level order traversal of a tree consists of visiting its elements, top to bottom, left to right....">
<polygon fill="white" stroke="black" points="324,-119.5 324,-160.5 485,-160.5 485,-119.5 324,-119.5"/>
<text text-anchor="start" x="332" y="-148.5" font-family="Helvetica,sans-Serif" font-size="10.00">operations_on_datastructures</text>
<text text-anchor="start" x="332" y="-137.5" font-family="Helvetica,sans-Serif" font-size="10.00">::reverse_binary_tree::BinaryTree</text>
<text text-anchor="middle" x="404.5" y="-126.5" font-family="Helvetica,sans-Serif" font-size="10.00">::get_level_order</text>
</a>
</g>
</g>
<!-- Node1&#45;&gt;Node4 -->
<g id="edge4" class="edge">
<title>Node1&#45;&gt;Node4</title>
<path fill="none" stroke="midnightblue" d="M54.31,-123.59C67.56,-129.31 85.41,-136.02 102,-139 172.25,-151.62 253.21,-151.08 313.53,-147.82"/>
<polygon fill="midnightblue" stroke="midnightblue" points="314,-151.3 323.79,-147.23 313.6,-144.31 314,-151.3"/>
</g>
<!-- Node9 -->
<g id="node9" class="node">
<title>Node9</title>
<g id="a_node9"><a xlink:href="../../de/dcf/classoperations__on__datastructures_1_1reverse__binary__tree_1_1_binary_tree.html#a5cf972a2c994a4fa1a89fc77bd5ad503" target="_top" xlink:title="Prints all of the elements in the tree to stdout level&#45;by&#45;level, using the get_level_order() function...">
<polygon fill="white" stroke="black" points="102,-99 102,-129 288,-129 288,-99 102,-99"/>
<text text-anchor="start" x="110" y="-117" font-family="Helvetica,sans-Serif" font-size="10.00">operations_on_datastructures</text>
<text text-anchor="middle" x="195" y="-106" font-family="Helvetica,sans-Serif" font-size="10.00">::reverse_binary_tree::BinaryTree::print</text>
</a>
</g>
</g>
<!-- Node1&#45;&gt;Node9 -->
<g id="edge9" class="edge">
<title>Node1&#45;&gt;Node9</title>
<path fill="none" stroke="midnightblue" d="M66.38,-114C74.01,-114 82.55,-114 91.49,-114"/>
<polygon fill="midnightblue" stroke="midnightblue" points="91.74,-117.5 101.74,-114 91.74,-110.5 91.74,-117.5"/>
</g>
<!-- Node10 -->
<g id="node10" class="node">
<title>Node10</title>
<g id="a_node10"><a xlink:href="../../de/dcf/classoperations__on__datastructures_1_1reverse__binary__tree_1_1_binary_tree.html#a1c0d27198372b36ef71bc58af8336b9c" target="_top" xlink:title=" ">
<polygon fill="white" stroke="black" points="114.5,-38.5 114.5,-79.5 275.5,-79.5 275.5,-38.5 114.5,-38.5"/>
<text text-anchor="start" x="122.5" y="-67.5" font-family="Helvetica,sans-Serif" font-size="10.00">operations_on_datastructures</text>
<text text-anchor="start" x="122.5" y="-56.5" font-family="Helvetica,sans-Serif" font-size="10.00">::reverse_binary_tree::BinaryTree</text>
<text text-anchor="middle" x="195" y="-45.5" font-family="Helvetica,sans-Serif" font-size="10.00">::reverse</text>
</a>
</g>
</g>
<!-- Node1&#45;&gt;Node10 -->
<g id="edge11" class="edge">
<title>Node1&#45;&gt;Node10</title>
<path fill="none" stroke="midnightblue" d="M59.43,-104.4C72.17,-99.65 87.86,-93.9 102,-89 107.94,-86.94 114.1,-84.84 120.31,-82.76"/>
<polygon fill="midnightblue" stroke="midnightblue" points="121.67,-86 130.05,-79.51 119.46,-79.36 121.67,-86"/>
</g>
<!-- Node12 -->
<g id="node12" class="node">
<title>Node12</title>
<g id="a_node12"><a target="_blank" xlink:href="http://en.cppreference.com/w/cpp/container/vector/size.html#" xlink:title=" ">
<polygon fill="white" stroke="black" points="151.5,-0.5 151.5,-19.5 238.5,-19.5 238.5,-0.5 151.5,-0.5"/>
<text text-anchor="middle" x="195" y="-7.5" font-family="Helvetica,sans-Serif" font-size="10.00">std::vector::size</text>
</a>
</g>
</g>
<!-- Node1&#45;&gt;Node12 -->
<g id="edge14" class="edge">
<title>Node1&#45;&gt;Node12</title>
<path fill="none" stroke="midnightblue" d="M38.82,-104.27C48.28,-86.29 71.06,-47.96 102,-29 113.75,-21.8 127.76,-17.28 141.26,-14.46"/>
<polygon fill="midnightblue" stroke="midnightblue" points="142.22,-17.85 151.44,-12.62 140.98,-10.96 142.22,-17.85"/>
</g>
<!-- Node3 -->
<g id="node3" class="node">
<title>Node3</title>
<g id="a_node3"><a xlink:href="../../de/dcf/classoperations__on__datastructures_1_1reverse__binary__tree_1_1_binary_tree.html#adb2b6be741b0500ee75d89b6d06b5d50" target="_top" xlink:title="inserts a node in the Binary Tree, with the behaviouur of a Binary Search Tree.">
<polygon fill="white" stroke="black" points="324,-181.5 324,-222.5 485,-222.5 485,-181.5 324,-181.5"/>
<text text-anchor="start" x="332" y="-210.5" font-family="Helvetica,sans-Serif" font-size="10.00">operations_on_datastructures</text>
<text text-anchor="start" x="332" y="-199.5" font-family="Helvetica,sans-Serif" font-size="10.00">::reverse_binary_tree::BinaryTree</text>
<text text-anchor="middle" x="404.5" y="-188.5" font-family="Helvetica,sans-Serif" font-size="10.00">::insert</text>
</a>
</g>
</g>
<!-- Node2&#45;&gt;Node3 -->
<g id="edge2" class="edge">
<title>Node2&#45;&gt;Node3</title>
<path fill="none" stroke="midnightblue" d="M286.71,-202C295.66,-202 304.75,-202 313.69,-202"/>
<polygon fill="midnightblue" stroke="midnightblue" points="313.72,-205.5 323.72,-202 313.72,-198.5 313.72,-205.5"/>
</g>
<!-- Node3&#45;&gt;Node3 -->
<g id="edge3" class="edge">
<title>Node3&#45;&gt;Node3</title>
<path fill="none" stroke="midnightblue" d="M374.36,-222.86C371.07,-232.54 381.12,-241 404.5,-241 419.11,-241 428.52,-237.7 432.72,-232.86"/>
<polygon fill="midnightblue" stroke="midnightblue" points="436.19,-233.35 434.64,-222.86 429.31,-232.02 436.19,-233.35"/>
</g>
<!-- Node5 -->
<g id="node5" class="node">
<title>Node5</title>
<g id="a_node5"><a target="_blank" xlink:href="http://en.cppreference.com/w/cpp/container/queue/empty.html#" xlink:title=" ">
<polygon fill="white" stroke="black" points="521,-187.5 521,-206.5 616,-206.5 616,-187.5 521,-187.5"/>
<text text-anchor="middle" x="568.5" y="-194.5" font-family="Helvetica,sans-Serif" font-size="10.00">std::queue::empty</text>
</a>
</g>
</g>
<!-- Node4&#45;&gt;Node5 -->
<g id="edge5" class="edge">
<title>Node4&#45;&gt;Node5</title>
<path fill="none" stroke="midnightblue" d="M463.99,-160.58C486.31,-168.43 511.12,-177.16 530.86,-184.11"/>
<polygon fill="midnightblue" stroke="midnightblue" points="529.79,-187.44 540.38,-187.46 532.11,-180.84 529.79,-187.44"/>
</g>
<!-- Node6 -->
<g id="node6" class="node">
<title>Node6</title>
<g id="a_node6"><a target="_blank" xlink:href="http://en.cppreference.com/w/cpp/container/queue/front.html#" xlink:title=" ">
<polygon fill="white" stroke="black" points="524.5,-149.5 524.5,-168.5 612.5,-168.5 612.5,-149.5 524.5,-149.5"/>
<text text-anchor="middle" x="568.5" y="-156.5" font-family="Helvetica,sans-Serif" font-size="10.00">std::queue::front</text>
</a>
</g>
</g>
<!-- Node4&#45;&gt;Node6 -->
<g id="edge6" class="edge">
<title>Node4&#45;&gt;Node6</title>
<path fill="none" stroke="midnightblue" d="M485.08,-149.33C494.84,-150.48 504.64,-151.63 513.89,-152.71"/>
<polygon fill="midnightblue" stroke="midnightblue" points="513.74,-156.22 524.08,-153.91 514.56,-149.27 513.74,-156.22"/>
</g>
<!-- Node7 -->
<g id="node7" class="node">
<title>Node7</title>
<g id="a_node7"><a target="_blank" xlink:href="http://en.cppreference.com/w/cpp/container/queue/pop.html#" xlink:title=" ">
<polygon fill="white" stroke="black" points="526.5,-111.5 526.5,-130.5 610.5,-130.5 610.5,-111.5 526.5,-111.5"/>
<text text-anchor="middle" x="568.5" y="-118.5" font-family="Helvetica,sans-Serif" font-size="10.00">std::queue::pop</text>
</a>
</g>
</g>
<!-- Node4&#45;&gt;Node7 -->
<g id="edge7" class="edge">
<title>Node4&#45;&gt;Node7</title>
<path fill="none" stroke="midnightblue" d="M485.08,-130.67C495.65,-129.43 506.25,-128.18 516.17,-127.02"/>
<polygon fill="midnightblue" stroke="midnightblue" points="516.7,-130.48 526.22,-125.84 515.88,-123.53 516.7,-130.48"/>
</g>
<!-- Node8 -->
<g id="node8" class="node">
<title>Node8</title>
<g id="a_node8"><a target="_blank" xlink:href="http://en.cppreference.com/w/cpp/container/queue/push.html#" xlink:title=" ">
<polygon fill="white" stroke="black" points="524,-73.5 524,-92.5 613,-92.5 613,-73.5 524,-73.5"/>
<text text-anchor="middle" x="568.5" y="-80.5" font-family="Helvetica,sans-Serif" font-size="10.00">std::queue::push</text>
</a>
</g>
</g>
<!-- Node4&#45;&gt;Node8 -->
<g id="edge8" class="edge">
<title>Node4&#45;&gt;Node8</title>
<path fill="none" stroke="midnightblue" d="M463.99,-119.42C486.31,-111.57 511.12,-102.84 530.86,-95.89"/>
<polygon fill="midnightblue" stroke="midnightblue" points="532.11,-99.16 540.38,-92.54 529.79,-92.56 532.11,-99.16"/>
</g>
<!-- Node9&#45;&gt;Node4 -->
<g id="edge10" class="edge">
<title>Node9&#45;&gt;Node4</title>
<path fill="none" stroke="midnightblue" d="M288.22,-125.56C296.78,-126.63 305.44,-127.71 313.97,-128.78"/>
<polygon fill="midnightblue" stroke="midnightblue" points="313.56,-132.26 323.92,-130.03 314.43,-125.31 313.56,-132.26"/>
</g>
<!-- Node11 -->
<g id="node11" class="node">
<title>Node11</title>
<g id="a_node11"><a xlink:href="../../de/dcf/classoperations__on__datastructures_1_1reverse__binary__tree_1_1_binary_tree.html#af6f974381f523fdb981fc2d843bbf4a1" target="_top" xlink:title="Reverses a Binary Tree recursively by swapping the left and right subtrees and their children.">
<polygon fill="white" stroke="black" points="324,-38.5 324,-79.5 485,-79.5 485,-38.5 324,-38.5"/>
<text text-anchor="start" x="332" y="-67.5" font-family="Helvetica,sans-Serif" font-size="10.00">operations_on_datastructures</text>
<text text-anchor="start" x="332" y="-56.5" font-family="Helvetica,sans-Serif" font-size="10.00">::reverse_binary_tree::BinaryTree</text>
<text text-anchor="middle" x="404.5" y="-45.5" font-family="Helvetica,sans-Serif" font-size="10.00">::reverseBinaryTree</text>
</a>
</g>
</g>
<!-- Node10&#45;&gt;Node11 -->
<g id="edge12" class="edge">
<title>Node10&#45;&gt;Node11</title>
<path fill="none" stroke="midnightblue" d="M275.63,-59C288.08,-59 301.01,-59 313.67,-59"/>
<polygon fill="midnightblue" stroke="midnightblue" points="313.74,-62.5 323.74,-59 313.74,-55.5 313.74,-62.5"/>
</g>
<!-- Node11&#45;&gt;Node11 -->
<g id="edge13" class="edge">
<title>Node11&#45;&gt;Node11</title>
<path fill="none" stroke="midnightblue" d="M374.36,-79.86C371.07,-89.54 381.12,-98 404.5,-98 419.11,-98 428.52,-94.7 432.72,-89.86"/>
<polygon fill="midnightblue" stroke="midnightblue" points="436.19,-90.35 434.64,-79.86 429.31,-89.02 436.19,-90.35"/>
</g>
</g>
</svg>
