<?xml version="1.0" encoding="UTF-8" standalone="no"?>
<!DOCTYPE svg PUBLIC "-//W3C//DTD SVG 1.1//EN"
 "http://www.w3.org/Graphics/SVG/1.1/DTD/svg11.dtd">
<!-- Generated by graphviz version 5.0.0 (20220707.1540)
 -->
<!-- Title: tests::test4 Pages: 1 -->
<svg width="407pt" height="180pt"
 viewBox="0.00 0.00 407.00 180.00" xmlns="http://www.w3.org/2000/svg" xmlns:xlink="http://www.w3.org/1999/xlink">
<g id="graph0" class="graph" transform="scale(1 1) rotate(0) translate(4 176)">
<title>tests::test4</title>
<polygon fill="white" stroke="transparent" points="-4,4 -4,-176 403,-176 403,4 -4,4"/>
<!-- Node1 -->
<g id="node1" class="node">
<title>Node1</title>
<g id="a_node1"><a xlink:title="A Test to check correct functionality with duplicate values.">
<polygon fill="#bfbfbf" stroke="black" points="0,-60.5 0,-79.5 66,-79.5 66,-60.5 0,-60.5"/>
<text text-anchor="middle" x="33" y="-67.5" font-family="Helvetica,sans-Serif" font-size="10.00">tests::test4</text>
</a>
</g>
</g>
<!-- Node2 -->
<g id="node2" class="node">
<title>Node2</title>
<g id="a_node2"><a xlink:href="../../da/d6d/namespaceoperations__on__datastructures.html#a2b8ff06a84b041457873840bf82e2d74" target="_top" xlink:title="Gets the union of two sorted arrays, and returns them in a vector.">
<polygon fill="white" stroke="black" points="102,-93 102,-123 247,-123 247,-93 102,-93"/>
<text text-anchor="start" x="110" y="-111" font-family="Helvetica,sans-Serif" font-size="10.00">operations_on_datastructures</text>
<text text-anchor="middle" x="174.5" y="-100" font-family="Helvetica,sans-Serif" font-size="10.00">::get_union</text>
</a>
</g>
</g>
<!-- Node1&#45;&gt;Node2 -->
<g id="edge1" class="edge">
<title>Node1&#45;&gt;Node2</title>
<path fill="none" stroke="midnightblue" d="M66,-78.72C78.74,-82.19 93.88,-86.31 108.71,-90.35"/>
<polygon fill="midnightblue" stroke="midnightblue" points="107.82,-93.74 118.39,-92.99 109.66,-86.98 107.82,-93.74"/>
</g>
<!-- Node6 -->
<g id="node6" class="node">
<title>Node6</title>
<g id="a_node6"><a xlink:href="../../d8/ddf/sieve__of__eratosthenes_8cpp.html#a235843bdf82d2a6cc8596ae8fd3b8df9" target="_top" xlink:title=" ">
<polygon fill="white" stroke="black" points="157,-38.5 157,-57.5 192,-57.5 192,-38.5 157,-38.5"/>
<text text-anchor="middle" x="174.5" y="-45.5" font-family="Helvetica,sans-Serif" font-size="10.00">print</text>
</a>
</g>
</g>
<!-- Node1&#45;&gt;Node6 -->
<g id="edge5" class="edge">
<title>Node1&#45;&gt;Node6</title>
<path fill="none" stroke="midnightblue" d="M66,-64.95C90.45,-61.1 123.74,-55.85 146.77,-52.22"/>
<polygon fill="midnightblue" stroke="midnightblue" points="147.53,-55.64 156.86,-50.62 146.44,-48.72 147.53,-55.64"/>
</g>
<!-- Node3 -->
<g id="node3" class="node">
<title>Node3</title>
<g id="a_node3"><a target="_blank" xlink:href="http://en.cppreference.com/w/cpp/container/vector/back.html#" xlink:title=" ">
<polygon fill="white" stroke="black" points="296,-152.5 296,-171.5 386,-171.5 386,-152.5 296,-152.5"/>
<text text-anchor="middle" x="341" y="-159.5" font-family="Helvetica,sans-Serif" font-size="10.00">std::vector::back</text>
</a>
</g>
</g>
<!-- Node2&#45;&gt;Node3 -->
<g id="edge2" class="edge">
<title>Node2&#45;&gt;Node3</title>
<path fill="none" stroke="midnightblue" d="M221.32,-123.04C246.44,-131.29 277.25,-141.4 301.17,-149.25"/>
<polygon fill="midnightblue" stroke="midnightblue" points="300.38,-152.68 310.97,-152.47 302.56,-146.03 300.38,-152.68"/>
</g>
<!-- Node4 -->
<g id="node4" class="node">
<title>Node4</title>
<g id="a_node4"><a target="_blank" xlink:href="http://en.cppreference.com/w/cpp/container/vector/push_back.html#" xlink:title=" ">
<polygon fill="white" stroke="black" points="283,-114.5 283,-133.5 399,-133.5 399,-114.5 283,-114.5"/>
<text text-anchor="middle" x="341" y="-121.5" font-family="Helvetica,sans-Serif" font-size="10.00">std::vector::push_back</text>
</a>
</g>
</g>
<!-- Node2&#45;&gt;Node4 -->
<g id="edge3" class="edge">
<title>Node2&#45;&gt;Node4</title>
<path fill="none" stroke="midnightblue" d="M247.17,-114.97C255.67,-115.8 264.32,-116.64 272.75,-117.46"/>
<polygon fill="midnightblue" stroke="midnightblue" points="272.6,-120.96 282.9,-118.45 273.28,-113.99 272.6,-120.96"/>
</g>
<!-- Node5 -->
<g id="node5" class="node">
<title>Node5</title>
<g id="a_node5"><a target="_blank" xlink:href="http://en.cppreference.com/w/cpp/container/vector/size.html#" xlink:title=" ">
<polygon fill="white" stroke="black" points="297.5,-76.5 297.5,-95.5 384.5,-95.5 384.5,-76.5 297.5,-76.5"/>
<text text-anchor="middle" x="341" y="-83.5" font-family="Helvetica,sans-Serif" font-size="10.00">std::vector::size</text>
</a>
</g>
</g>
<!-- Node2&#45;&gt;Node5 -->
<g id="edge4" class="edge">
<title>Node2&#45;&gt;Node5</title>
<path fill="none" stroke="midnightblue" d="M247.17,-98.41C260.7,-96.61 274.62,-94.74 287.42,-93.03"/>
<polygon fill="midnightblue" stroke="midnightblue" points="287.98,-96.49 297.43,-91.69 287.05,-89.55 287.98,-96.49"/>
</g>
<!-- Node7 -->
<g id="node7" class="node">
<title>Node7</title>
<g id="a_node7"><a target="_blank" xlink:href="http://en.cppreference.com/w/cpp/io/manip/endl.html#" xlink:title=" ">
<polygon fill="white" stroke="black" points="314,-38.5 314,-57.5 368,-57.5 368,-38.5 314,-38.5"/>
<text text-anchor="middle" x="341" y="-45.5" font-family="Helvetica,sans-Serif" font-size="10.00">std::endl</text>
</a>
</g>
</g>
<!-- Node6&#45;&gt;Node7 -->
<g id="edge6" class="edge">
<title>Node6&#45;&gt;Node7</title>
<path fill="none" stroke="midnightblue" d="M192.18,-48C218.16,-48 268.92,-48 303.63,-48"/>
<polygon fill="midnightblue" stroke="midnightblue" points="303.85,-51.5 313.85,-48 303.85,-44.5 303.85,-51.5"/>
</g>
<!-- Node8 -->
<g id="node8" class="node">
<title>Node8</title>
<g id="a_node8"><a xlink:href="../../db/d93/check__prime_8cpp.html#aa18b3517017d99bb4024853bddba5532" target="_top" xlink:title=" ">
<polygon fill="white" stroke="black" points="314.5,-0.5 314.5,-19.5 367.5,-19.5 367.5,-0.5 314.5,-0.5"/>
<text text-anchor="middle" x="341" y="-7.5" font-family="Helvetica,sans-Serif" font-size="10.00">is_prime</text>
</a>
</g>
</g>
<!-- Node6&#45;&gt;Node8 -->
<g id="edge7" class="edge">
<title>Node6&#45;&gt;Node8</title>
<path fill="none" stroke="midnightblue" d="M192.18,-44.15C218.42,-38.09 269.94,-26.18 304.67,-18.16"/>
<polygon fill="midnightblue" stroke="midnightblue" points="305.47,-21.57 314.43,-15.91 303.9,-14.75 305.47,-21.57"/>
</g>
</g>
</svg>
