<?xml version="1.0" encoding="UTF-8" standalone="no"?>
<!DOCTYPE svg PUBLIC "-//W3C//DTD SVG 1.1//EN"
 "http://www.w3.org/Graphics/SVG/1.1/DTD/svg11.dtd">
<!-- Generated by graphviz version 5.0.0 (20220707.1540)
 -->
<!-- Title: tests::test2 Pages: 1 -->
<svg width="624pt" height="222pt"
 viewBox="0.00 0.00 624.00 222.00" xmlns="http://www.w3.org/2000/svg" xmlns:xlink="http://www.w3.org/1999/xlink">
<g id="graph0" class="graph" transform="scale(1 1) rotate(0) translate(4 218)">
<title>tests::test2</title>
<polygon fill="white" stroke="transparent" points="-4,4 -4,-218 620,-218 620,4 -4,4"/>
<!-- Node1 -->
<g id="node1" class="node">
<title>Node1</title>
<g id="a_node1"><a xlink:title="A Test to check an edge case (NULL root element)">
<polygon fill="#bfbfbf" stroke="black" points="0,-76.5 0,-95.5 66,-95.5 66,-76.5 0,-76.5"/>
<text text-anchor="middle" x="33" y="-83.5" font-family="Helvetica,sans-Serif" font-size="10.00">tests::test2</text>
</a>
</g>
</g>
<!-- Node2 -->
<g id="node2" class="node">
<title>Node2</title>
<g id="a_node2"><a xlink:href="../../de/dcf/classoperations__on__datastructures_1_1reverse__binary__tree_1_1_binary_tree.html#a2e683b271d8d5cd63e0d09cf8aaa325c" target="_top" xlink:title="Level order traversal of a tree consists of visiting its elements, top to bottom, left to right....">
<polygon fill="white" stroke="black" points="324,-126.5 324,-167.5 485,-167.5 485,-126.5 324,-126.5"/>
<text text-anchor="start" x="332" y="-155.5" font-family="Helvetica,sans-Serif" font-size="10.00">operations_on_datastructures</text>
<text text-anchor="start" x="332" y="-144.5" font-family="Helvetica,sans-Serif" font-size="10.00">::reverse_binary_tree::BinaryTree</text>
<text text-anchor="middle" x="404.5" y="-133.5" font-family="Helvetica,sans-Serif" font-size="10.00">::get_level_order</text>
</a>
</g>
</g>
<!-- Node1&#45;&gt;Node2 -->
<g id="edge1" class="edge">
<title>Node1&#45;&gt;Node2</title>
<path fill="none" stroke="midnightblue" d="M42.51,-95.69C54.36,-108.39 77.2,-130.11 102,-139 170.05,-163.4 252.39,-163.81 313.82,-159.01"/>
<polygon fill="midnightblue" stroke="midnightblue" points="314.21,-162.49 323.88,-158.16 313.62,-155.51 314.21,-162.49"/>
</g>
<!-- Node7 -->
<g id="node7" class="node">
<title>Node7</title>
<g id="a_node7"><a xlink:href="../../de/dcf/classoperations__on__datastructures_1_1reverse__binary__tree_1_1_binary_tree.html#a5cf972a2c994a4fa1a89fc77bd5ad503" target="_top" xlink:title="Prints all of the elements in the tree to stdout level&#45;by&#45;level, using the get_level_order() function...">
<polygon fill="white" stroke="black" points="102,-99 102,-129 288,-129 288,-99 102,-99"/>
<text text-anchor="start" x="110" y="-117" font-family="Helvetica,sans-Serif" font-size="10.00">operations_on_datastructures</text>
<text text-anchor="middle" x="195" y="-106" font-family="Helvetica,sans-Serif" font-size="10.00">::reverse_binary_tree::BinaryTree::print</text>
</a>
</g>
</g>
<!-- Node1&#45;&gt;Node7 -->
<g id="edge6" class="edge">
<title>Node1&#45;&gt;Node7</title>
<path fill="none" stroke="midnightblue" d="M66.38,-91.67C75.84,-93.32 86.7,-95.22 98.01,-97.2"/>
<polygon fill="midnightblue" stroke="midnightblue" points="97.58,-100.68 108.04,-98.96 98.79,-93.78 97.58,-100.68"/>
</g>
<!-- Node8 -->
<g id="node8" class="node">
<title>Node8</title>
<g id="a_node8"><a xlink:href="../../de/dcf/classoperations__on__datastructures_1_1reverse__binary__tree_1_1_binary_tree.html#a1c0d27198372b36ef71bc58af8336b9c" target="_top" xlink:title=" ">
<polygon fill="white" stroke="black" points="114.5,-38.5 114.5,-79.5 275.5,-79.5 275.5,-38.5 114.5,-38.5"/>
<text text-anchor="start" x="122.5" y="-67.5" font-family="Helvetica,sans-Serif" font-size="10.00">operations_on_datastructures</text>
<text text-anchor="start" x="122.5" y="-56.5" font-family="Helvetica,sans-Serif" font-size="10.00">::reverse_binary_tree::BinaryTree</text>
<text text-anchor="middle" x="195" y="-45.5" font-family="Helvetica,sans-Serif" font-size="10.00">::reverse</text>
</a>
</g>
</g>
<!-- Node1&#45;&gt;Node8 -->
<g id="edge8" class="edge">
<title>Node1&#45;&gt;Node8</title>
<path fill="none" stroke="midnightblue" d="M66.38,-80.54C77.62,-78.64 90.84,-76.41 104.42,-74.12"/>
<polygon fill="midnightblue" stroke="midnightblue" points="105.08,-77.55 114.36,-72.44 103.92,-70.65 105.08,-77.55"/>
</g>
<!-- Node10 -->
<g id="node10" class="node">
<title>Node10</title>
<g id="a_node10"><a target="_blank" xlink:href="http://en.cppreference.com/w/cpp/container/vector/size.html#" xlink:title=" ">
<polygon fill="white" stroke="black" points="151.5,-0.5 151.5,-19.5 238.5,-19.5 238.5,-0.5 151.5,-0.5"/>
<text text-anchor="middle" x="195" y="-7.5" font-family="Helvetica,sans-Serif" font-size="10.00">std::vector::size</text>
</a>
</g>
</g>
<!-- Node1&#45;&gt;Node10 -->
<g id="edge11" class="edge">
<title>Node1&#45;&gt;Node10</title>
<path fill="none" stroke="midnightblue" d="M42.62,-76.24C54.61,-63.32 77.59,-40.81 102,-29 114.17,-23.11 128.1,-19.05 141.38,-16.24"/>
<polygon fill="midnightblue" stroke="midnightblue" points="142.2,-19.64 151.36,-14.33 140.88,-12.77 142.2,-19.64"/>
</g>
<!-- Node3 -->
<g id="node3" class="node">
<title>Node3</title>
<g id="a_node3"><a target="_blank" xlink:href="http://en.cppreference.com/w/cpp/container/queue/empty.html#" xlink:title=" ">
<polygon fill="white" stroke="black" points="521,-194.5 521,-213.5 616,-213.5 616,-194.5 521,-194.5"/>
<text text-anchor="middle" x="568.5" y="-201.5" font-family="Helvetica,sans-Serif" font-size="10.00">std::queue::empty</text>
</a>
</g>
</g>
<!-- Node2&#45;&gt;Node3 -->
<g id="edge2" class="edge">
<title>Node2&#45;&gt;Node3</title>
<path fill="none" stroke="midnightblue" d="M463.99,-167.58C486.31,-175.43 511.12,-184.16 530.86,-191.11"/>
<polygon fill="midnightblue" stroke="midnightblue" points="529.79,-194.44 540.38,-194.46 532.11,-187.84 529.79,-194.44"/>
</g>
<!-- Node4 -->
<g id="node4" class="node">
<title>Node4</title>
<g id="a_node4"><a target="_blank" xlink:href="http://en.cppreference.com/w/cpp/container/queue/front.html#" xlink:title=" ">
<polygon fill="white" stroke="black" points="524.5,-156.5 524.5,-175.5 612.5,-175.5 612.5,-156.5 524.5,-156.5"/>
<text text-anchor="middle" x="568.5" y="-163.5" font-family="Helvetica,sans-Serif" font-size="10.00">std::queue::front</text>
</a>
</g>
</g>
<!-- Node2&#45;&gt;Node4 -->
<g id="edge3" class="edge">
<title>Node2&#45;&gt;Node4</title>
<path fill="none" stroke="midnightblue" d="M485.08,-156.33C494.84,-157.48 504.64,-158.63 513.89,-159.71"/>
<polygon fill="midnightblue" stroke="midnightblue" points="513.74,-163.22 524.08,-160.91 514.56,-156.27 513.74,-163.22"/>
</g>
<!-- Node5 -->
<g id="node5" class="node">
<title>Node5</title>
<g id="a_node5"><a target="_blank" xlink:href="http://en.cppreference.com/w/cpp/container/queue/pop.html#" xlink:title=" ">
<polygon fill="white" stroke="black" points="526.5,-118.5 526.5,-137.5 610.5,-137.5 610.5,-118.5 526.5,-118.5"/>
<text text-anchor="middle" x="568.5" y="-125.5" font-family="Helvetica,sans-Serif" font-size="10.00">std::queue::pop</text>
</a>
</g>
</g>
<!-- Node2&#45;&gt;Node5 -->
<g id="edge4" class="edge">
<title>Node2&#45;&gt;Node5</title>
<path fill="none" stroke="midnightblue" d="M485.08,-137.67C495.65,-136.43 506.25,-135.18 516.17,-134.02"/>
<polygon fill="midnightblue" stroke="midnightblue" points="516.7,-137.48 526.22,-132.84 515.88,-130.53 516.7,-137.48"/>
</g>
<!-- Node6 -->
<g id="node6" class="node">
<title>Node6</title>
<g id="a_node6"><a target="_blank" xlink:href="http://en.cppreference.com/w/cpp/container/queue/push.html#" xlink:title=" ">
<polygon fill="white" stroke="black" points="524,-80.5 524,-99.5 613,-99.5 613,-80.5 524,-80.5"/>
<text text-anchor="middle" x="568.5" y="-87.5" font-family="Helvetica,sans-Serif" font-size="10.00">std::queue::push</text>
</a>
</g>
</g>
<!-- Node2&#45;&gt;Node6 -->
<g id="edge5" class="edge">
<title>Node2&#45;&gt;Node6</title>
<path fill="none" stroke="midnightblue" d="M463.99,-126.42C486.31,-118.57 511.12,-109.84 530.86,-102.89"/>
<polygon fill="midnightblue" stroke="midnightblue" points="532.11,-106.16 540.38,-99.54 529.79,-99.56 532.11,-106.16"/>
</g>
<!-- Node7&#45;&gt;Node2 -->
<g id="edge7" class="edge">
<title>Node7&#45;&gt;Node2</title>
<path fill="none" stroke="midnightblue" d="M288.22,-128.67C296.78,-130.03 305.44,-131.41 313.97,-132.76"/>
<polygon fill="midnightblue" stroke="midnightblue" points="313.49,-136.23 323.92,-134.34 314.59,-129.32 313.49,-136.23"/>
</g>
<!-- Node9 -->
<g id="node9" class="node">
<title>Node9</title>
<g id="a_node9"><a xlink:href="../../de/dcf/classoperations__on__datastructures_1_1reverse__binary__tree_1_1_binary_tree.html#af6f974381f523fdb981fc2d843bbf4a1" target="_top" xlink:title="Reverses a Binary Tree recursively by swapping the left and right subtrees and their children.">
<polygon fill="white" stroke="black" points="324,-38.5 324,-79.5 485,-79.5 485,-38.5 324,-38.5"/>
<text text-anchor="start" x="332" y="-67.5" font-family="Helvetica,sans-Serif" font-size="10.00">operations_on_datastructures</text>
<text text-anchor="start" x="332" y="-56.5" font-family="Helvetica,sans-Serif" font-size="10.00">::reverse_binary_tree::BinaryTree</text>
<text text-anchor="middle" x="404.5" y="-45.5" font-family="Helvetica,sans-Serif" font-size="10.00">::reverseBinaryTree</text>
</a>
</g>
</g>
<!-- Node8&#45;&gt;Node9 -->
<g id="edge9" class="edge">
<title>Node8&#45;&gt;Node9</title>
<path fill="none" stroke="midnightblue" d="M275.63,-59C288.08,-59 301.01,-59 313.67,-59"/>
<polygon fill="midnightblue" stroke="midnightblue" points="313.74,-62.5 323.74,-59 313.74,-55.5 313.74,-62.5"/>
</g>
<!-- Node9&#45;&gt;Node9 -->
<g id="edge10" class="edge">
<title>Node9&#45;&gt;Node9</title>
<path fill="none" stroke="midnightblue" d="M374.36,-79.86C371.07,-89.54 381.12,-98 404.5,-98 419.11,-98 428.52,-94.7 432.72,-89.86"/>
<polygon fill="midnightblue" stroke="midnightblue" points="436.19,-90.35 434.64,-79.86 429.31,-89.02 436.19,-90.35"/>
</g>
</g>
</svg>
