<?xml version="1.0" encoding="UTF-8" standalone="no"?>
<!DOCTYPE svg PUBLIC "-//W3C//DTD SVG 1.1//EN"
 "http://www.w3.org/Graphics/SVG/1.1/DTD/svg11.dtd">
<!-- Generated by graphviz version 5.0.0 (20220707.1540)
 -->
<!-- Title: main Pages: 1 -->
<svg width="745pt" height="714pt"
 viewBox="0.00 0.00 745.00 713.65" xmlns="http://www.w3.org/2000/svg" xmlns:xlink="http://www.w3.org/1999/xlink">
<g id="graph0" class="graph" transform="scale(1 1) rotate(0) translate(4 709.65)">
<title>main</title>
<polygon fill="white" stroke="transparent" points="-4,4 -4,-709.65 741,-709.65 741,4 -4,4"/>
<!-- Node1 -->
<g id="node1" class="node">
<title>Node1</title>
<g id="a_node1"><a xlink:title=" ">
<polygon fill="#bfbfbf" stroke="black" points="0,-466.5 0,-485.5 38,-485.5 38,-466.5 0,-466.5"/>
<text text-anchor="middle" x="19" y="-473.5" font-family="Helvetica,sans-Serif" font-size="10.00">main</text>
</a>
</g>
</g>
<!-- Node2 -->
<g id="node2" class="node">
<title>Node2</title>
<g id="a_node2"><a xlink:href="../../d2/de9/heavy__light__decomposition_8cpp.html#a34b8683a2b429de5cce57e6d733ec817" target="_top" xlink:title=" ">
<polygon fill="white" stroke="black" points="74,-404.5 74,-423.5 118,-423.5 118,-404.5 74,-404.5"/>
<text text-anchor="middle" x="96" y="-411.5" font-family="Helvetica,sans-Serif" font-size="10.00">test_1</text>
</a>
</g>
</g>
<!-- Node1&#45;&gt;Node2 -->
<g id="edge1" class="edge">
<title>Node1&#45;&gt;Node2</title>
<path fill="none" stroke="midnightblue" d="M31.72,-466.31C43.32,-456.72 61.3,-441.86 75.13,-430.42"/>
<polygon fill="midnightblue" stroke="midnightblue" points="77.64,-432.89 83.12,-423.82 73.18,-427.5 77.64,-432.89"/>
</g>
<!-- Node27 -->
<g id="node27" class="node">
<title>Node27</title>
<g id="a_node27"><a xlink:href="../../d2/de9/heavy__light__decomposition_8cpp.html#a458410412185a5f09199deaff7157a8d" target="_top" xlink:title=" ">
<polygon fill="white" stroke="black" points="74,-515.5 74,-534.5 118,-534.5 118,-515.5 74,-515.5"/>
<text text-anchor="middle" x="96" y="-522.5" font-family="Helvetica,sans-Serif" font-size="10.00">test_2</text>
</a>
</g>
</g>
<!-- Node1&#45;&gt;Node27 -->
<g id="edge36" class="edge">
<title>Node1&#45;&gt;Node27</title>
<path fill="none" stroke="midnightblue" d="M34.82,-485.68C45.3,-492.53 59.56,-501.84 71.57,-509.69"/>
<polygon fill="midnightblue" stroke="midnightblue" points="69.93,-512.8 80.21,-515.34 73.76,-506.94 69.93,-512.8"/>
</g>
<!-- Node28 -->
<g id="node28" class="node">
<title>Node28</title>
<g id="a_node28"><a xlink:href="../../d2/de9/heavy__light__decomposition_8cpp.html#af31ec5409537703d9c8a47350386b32a" target="_top" xlink:title=" ">
<polygon fill="white" stroke="black" points="74,-466.5 74,-485.5 118,-485.5 118,-466.5 74,-466.5"/>
<text text-anchor="middle" x="96" y="-473.5" font-family="Helvetica,sans-Serif" font-size="10.00">test_3</text>
</a>
</g>
</g>
<!-- Node1&#45;&gt;Node28 -->
<g id="edge44" class="edge">
<title>Node1&#45;&gt;Node28</title>
<path fill="none" stroke="midnightblue" d="M38.16,-476C45.8,-476 54.92,-476 63.59,-476"/>
<polygon fill="midnightblue" stroke="midnightblue" points="63.82,-479.5 73.82,-476 63.82,-472.5 63.82,-479.5"/>
</g>
<!-- Node3 -->
<g id="node3" class="node">
<title>Node3</title>
<g id="a_node3"><a xlink:href="../../d1/d51/classrange__queries_1_1heavy__light__decomposition_1_1_tree.html#a79ab4601c4a95c0902ac04e779e5f54d" target="_top" xlink:title="Adds an undirected edge from node u to node v in the tree.">
<polygon fill="white" stroke="black" points="154,-455.5 154,-496.5 264,-496.5 264,-455.5 154,-455.5"/>
<text text-anchor="start" x="162" y="-484.5" font-family="Helvetica,sans-Serif" font-size="10.00">range_queries::heavy</text>
<text text-anchor="start" x="162" y="-473.5" font-family="Helvetica,sans-Serif" font-size="10.00">_light_decomposition</text>
<text text-anchor="middle" x="209" y="-462.5" font-family="Helvetica,sans-Serif" font-size="10.00">::Tree::add_edge</text>
</a>
</g>
</g>
<!-- Node2&#45;&gt;Node3 -->
<g id="edge2" class="edge">
<title>Node2&#45;&gt;Node3</title>
<path fill="none" stroke="midnightblue" d="M114.34,-423.69C127.1,-430.81 145.08,-440.85 161.87,-450.23"/>
<polygon fill="midnightblue" stroke="midnightblue" points="160.6,-453.53 171.04,-455.35 164.01,-447.42 160.6,-453.53"/>
</g>
<!-- Node4 -->
<g id="node4" class="node">
<title>Node4</title>
<g id="a_node4"><a target="_blank" xlink:href="http://en.cppreference.com/w/cpp/container/vector/push_back.html#" xlink:title=" ">
<polygon fill="white" stroke="black" points="300,-487.5 300,-506.5 416,-506.5 416,-487.5 300,-487.5"/>
<text text-anchor="middle" x="358" y="-494.5" font-family="Helvetica,sans-Serif" font-size="10.00">std::vector::push_back</text>
</a>
</g>
</g>
<!-- Node2&#45;&gt;Node4 -->
<g id="edge20" class="edge">
<title>Node2&#45;&gt;Node4</title>
<path fill="none" stroke="midnightblue" d="M106.91,-404.41C117.55,-394.83 135.44,-380.74 154,-375 200.7,-360.55 224.13,-346.7 264,-375 303.54,-403.07 265.46,-443.96 300,-478 301.48,-479.46 303.07,-480.8 304.75,-482.04"/>
<polygon fill="midnightblue" stroke="midnightblue" points="303.37,-485.29 313.75,-487.43 306.96,-479.29 303.37,-485.29"/>
</g>
<!-- Node5 -->
<g id="node5" class="node">
<title>Node5</title>
<g id="a_node5"><a xlink:href="../../d2/d8a/classrange__queries_1_1heavy__light__decomposition_1_1_h_l_d.html#ae9e979edd69678b85665c01e2ee97828" target="_top" xlink:title="This function must be called after the tree adjacency list and node values are populated The function...">
<polygon fill="white" stroke="black" points="154,-281.5 154,-322.5 264,-322.5 264,-281.5 154,-281.5"/>
<text text-anchor="start" x="162" y="-310.5" font-family="Helvetica,sans-Serif" font-size="10.00">range_queries::heavy</text>
<text text-anchor="start" x="162" y="-299.5" font-family="Helvetica,sans-Serif" font-size="10.00">_light_decomposition</text>
<text text-anchor="middle" x="209" y="-288.5" font-family="Helvetica,sans-Serif" font-size="10.00">::HLD::init</text>
</a>
</g>
</g>
<!-- Node2&#45;&gt;Node5 -->
<g id="edge4" class="edge">
<title>Node2&#45;&gt;Node5</title>
<path fill="none" stroke="midnightblue" d="M102.7,-404.13C112.01,-388.57 131.7,-357.96 154,-337 157.07,-334.12 160.4,-331.32 163.86,-328.66"/>
<polygon fill="midnightblue" stroke="midnightblue" points="166.05,-331.39 172.08,-322.68 161.93,-325.73 166.05,-331.39"/>
</g>
<!-- Node16 -->
<g id="node16" class="node">
<title>Node16</title>
<g id="a_node16"><a xlink:href="../../d2/d8a/classrange__queries_1_1heavy__light__decomposition_1_1_h_l_d.html#a4dfbf5d9df825eeb63b294c6849bdcab" target="_top" xlink:title="This function returns the sum of node values in the simple path from from node_1 to node_2.">
<polygon fill="white" stroke="black" points="154,-221.5 154,-262.5 264,-262.5 264,-221.5 154,-221.5"/>
<text text-anchor="start" x="162" y="-250.5" font-family="Helvetica,sans-Serif" font-size="10.00">range_queries::heavy</text>
<text text-anchor="start" x="162" y="-239.5" font-family="Helvetica,sans-Serif" font-size="10.00">_light_decomposition</text>
<text text-anchor="middle" x="209" y="-228.5" font-family="Helvetica,sans-Serif" font-size="10.00">::HLD::query</text>
</a>
</g>
</g>
<!-- Node2&#45;&gt;Node16 -->
<g id="edge21" class="edge">
<title>Node2&#45;&gt;Node16</title>
<path fill="none" stroke="midnightblue" d="M98.6,-404.2C103.1,-379.33 117.98,-312.84 154,-272 154.86,-271.03 155.76,-270.08 156.69,-269.16"/>
<polygon fill="midnightblue" stroke="midnightblue" points="159.07,-271.72 164.39,-262.56 154.52,-266.4 159.07,-271.72"/>
</g>
<!-- Node23 -->
<g id="node23" class="node">
<title>Node23</title>
<g id="a_node23"><a xlink:href="../../d1/d51/classrange__queries_1_1heavy__light__decomposition_1_1_tree.html#a04cd96efaba147b19d3afc769b90ff70" target="_top" xlink:title="Set the values for all the nodes.">
<polygon fill="white" stroke="black" points="154,-613.5 154,-654.5 264,-654.5 264,-613.5 154,-613.5"/>
<text text-anchor="start" x="162" y="-642.5" font-family="Helvetica,sans-Serif" font-size="10.00">range_queries::heavy</text>
<text text-anchor="start" x="162" y="-631.5" font-family="Helvetica,sans-Serif" font-size="10.00">_light_decomposition</text>
<text text-anchor="middle" x="209" y="-620.5" font-family="Helvetica,sans-Serif" font-size="10.00">::Tree::set_node_val</text>
</a>
</g>
</g>
<!-- Node2&#45;&gt;Node23 -->
<g id="edge31" class="edge">
<title>Node2&#45;&gt;Node23</title>
<path fill="none" stroke="midnightblue" d="M102.22,-423.73C106.73,-432.34 113.24,-445.3 118,-457 137.24,-504.25 129.76,-521.11 154,-566 161.56,-580.01 172.08,-594.04 181.82,-605.68"/>
<polygon fill="midnightblue" stroke="midnightblue" points="179.23,-608.03 188.4,-613.33 184.53,-603.46 179.23,-608.03"/>
</g>
<!-- Node24 -->
<g id="node24" class="node">
<title>Node24</title>
<g id="a_node24"><a target="_blank" xlink:href="http://en.cppreference.com/w/cpp/container/vector/size.html#" xlink:title=" ">
<polygon fill="white" stroke="black" points="314.5,-599.5 314.5,-618.5 401.5,-618.5 401.5,-599.5 314.5,-599.5"/>
<text text-anchor="middle" x="358" y="-606.5" font-family="Helvetica,sans-Serif" font-size="10.00">std::vector::size</text>
</a>
</g>
</g>
<!-- Node2&#45;&gt;Node24 -->
<g id="edge33" class="edge">
<title>Node2&#45;&gt;Node24</title>
<path fill="none" stroke="midnightblue" d="M118.01,-411.56C153.02,-408.75 223.42,-408.57 264,-446 308.07,-486.65 263.33,-528.57 300,-576 305.91,-583.64 314.12,-589.83 322.47,-594.7"/>
<polygon fill="midnightblue" stroke="midnightblue" points="321.02,-597.89 331.49,-599.46 324.29,-591.7 321.02,-597.89"/>
</g>
<!-- Node25 -->
<g id="node25" class="node">
<title>Node25</title>
<g id="a_node25"><a xlink:href="../../d2/d8a/classrange__queries_1_1heavy__light__decomposition_1_1_h_l_d.html#a9f1cb54ed09fde931bf3220d75ee4c57" target="_top" xlink:title="This function updates the value at node with val.">
<polygon fill="white" stroke="black" points="154,-515.5 154,-556.5 264,-556.5 264,-515.5 154,-515.5"/>
<text text-anchor="start" x="162" y="-544.5" font-family="Helvetica,sans-Serif" font-size="10.00">range_queries::heavy</text>
<text text-anchor="start" x="162" y="-533.5" font-family="Helvetica,sans-Serif" font-size="10.00">_light_decomposition</text>
<text text-anchor="middle" x="209" y="-522.5" font-family="Helvetica,sans-Serif" font-size="10.00">::HLD::update</text>
</a>
</g>
</g>
<!-- Node2&#45;&gt;Node25 -->
<g id="edge34" class="edge">
<title>Node2&#45;&gt;Node25</title>
<path fill="none" stroke="midnightblue" d="M102.21,-423.73C113.53,-444.66 140.47,-493.1 154,-506 155.12,-507.06 156.28,-508.1 157.47,-509.12"/>
<polygon fill="midnightblue" stroke="midnightblue" points="155.73,-512.18 165.81,-515.43 159.95,-506.6 155.73,-512.18"/>
</g>
<!-- Node3&#45;&gt;Node4 -->
<g id="edge3" class="edge">
<title>Node3&#45;&gt;Node4</title>
<path fill="none" stroke="midnightblue" d="M264.32,-483.76C272.67,-484.95 281.37,-486.2 289.95,-487.42"/>
<polygon fill="midnightblue" stroke="midnightblue" points="289.55,-490.9 299.95,-488.85 290.54,-483.97 289.55,-490.9"/>
</g>
<!-- Node6 -->
<g id="node6" class="node">
<title>Node6</title>
<g id="a_node6"><a xlink:href="../../d9/d35/classrange__queries_1_1heavy__light__decomposition_1_1_s_g.html#a41c733f5f5e262b308f7cb95c88c1e74" target="_top" xlink:title="Function that specifies the type of operation involved when segments are combined.">
<polygon fill="white" stroke="black" points="452,-76.5 452,-117.5 562,-117.5 562,-76.5 452,-76.5"/>
<text text-anchor="start" x="460" y="-105.5" font-family="Helvetica,sans-Serif" font-size="10.00">range_queries::heavy</text>
<text text-anchor="start" x="460" y="-94.5" font-family="Helvetica,sans-Serif" font-size="10.00">_light_decomposition</text>
<text text-anchor="middle" x="507" y="-83.5" font-family="Helvetica,sans-Serif" font-size="10.00">::SG::combine</text>
</a>
</g>
</g>
<!-- Node5&#45;&gt;Node6 -->
<g id="edge5" class="edge">
<title>Node5&#45;&gt;Node6</title>
<path fill="none" stroke="midnightblue" d="M254.65,-281.46C258.14,-278.64 261.33,-275.5 264,-272 305.03,-218.16 249.61,-169.21 300,-124 337.94,-89.96 396.76,-85.27 441.85,-87.91"/>
<polygon fill="midnightblue" stroke="midnightblue" points="441.61,-91.4 451.83,-88.62 442.11,-84.42 441.61,-91.4"/>
</g>
<!-- Node7 -->
<g id="node7" class="node">
<title>Node7</title>
<g id="a_node7"><a xlink:href="../../d2/d8a/classrange__queries_1_1heavy__light__decomposition_1_1_h_l_d.html#af64848d6630c39d0f09ce2359cc7c4f8" target="_top" xlink:title="Utility function to assign heavy child to each node (&#45;1 for a leaf node)">
<polygon fill="white" stroke="black" points="303,-193.5 303,-234.5 413,-234.5 413,-193.5 303,-193.5"/>
<text text-anchor="start" x="311" y="-222.5" font-family="Helvetica,sans-Serif" font-size="10.00">range_queries::heavy</text>
<text text-anchor="start" x="311" y="-211.5" font-family="Helvetica,sans-Serif" font-size="10.00">_light_decomposition</text>
<text text-anchor="middle" x="358" y="-200.5" font-family="Helvetica,sans-Serif" font-size="10.00">::HLD::dfs_hc</text>
</a>
</g>
</g>
<!-- Node5&#45;&gt;Node7 -->
<g id="edge6" class="edge">
<title>Node5&#45;&gt;Node7</title>
<path fill="none" stroke="midnightblue" d="M247.61,-281.42C253.13,-278.31 258.73,-275.1 264,-272 281.29,-261.81 300.12,-250.18 316.29,-240.01"/>
<polygon fill="midnightblue" stroke="midnightblue" points="318.38,-242.83 324.96,-234.54 314.64,-236.91 318.38,-242.83"/>
</g>
<!-- Node8 -->
<g id="node8" class="node">
<title>Node8</title>
<g id="a_node8"><a xlink:href="../../d2/d8a/classrange__queries_1_1heavy__light__decomposition_1_1_h_l_d.html#a0579062b384e54b611b80c6337c7f2c8" target="_top" xlink:title="Utility function to lable the nodes so that heavy chains have a contigous lable.">
<polygon fill="white" stroke="black" points="303,-409.5 303,-450.5 413,-450.5 413,-409.5 303,-409.5"/>
<text text-anchor="start" x="311" y="-438.5" font-family="Helvetica,sans-Serif" font-size="10.00">range_queries::heavy</text>
<text text-anchor="start" x="311" y="-427.5" font-family="Helvetica,sans-Serif" font-size="10.00">_light_decomposition</text>
<text text-anchor="middle" x="358" y="-416.5" font-family="Helvetica,sans-Serif" font-size="10.00">::HLD::dfs_labels</text>
</a>
</g>
</g>
<!-- Node5&#45;&gt;Node8 -->
<g id="edge8" class="edge">
<title>Node5&#45;&gt;Node8</title>
<path fill="none" stroke="midnightblue" d="M246.99,-322.57C253.07,-326.87 259.01,-331.72 264,-337 286.16,-360.43 276.8,-377.6 300,-400 301.11,-401.07 302.26,-402.11 303.45,-403.12"/>
<polygon fill="midnightblue" stroke="midnightblue" points="301.66,-406.16 311.75,-409.39 305.88,-400.57 301.66,-406.16"/>
</g>
<!-- Node9 -->
<g id="node9" class="node">
<title>Node9</title>
<g id="a_node9"><a xlink:href="../../d2/d8a/classrange__queries_1_1heavy__light__decomposition_1_1_h_l_d.html#a2dfbda148aad0bfaba2ebfda9ebc915a" target="_top" xlink:title="Utility function to assign highest parent that can be reached though heavy chains.">
<polygon fill="white" stroke="black" points="303,-331.5 303,-372.5 413,-372.5 413,-331.5 303,-331.5"/>
<text text-anchor="start" x="311" y="-360.5" font-family="Helvetica,sans-Serif" font-size="10.00">range_queries::heavy</text>
<text text-anchor="start" x="311" y="-349.5" font-family="Helvetica,sans-Serif" font-size="10.00">_light_decomposition</text>
<text text-anchor="middle" x="358" y="-338.5" font-family="Helvetica,sans-Serif" font-size="10.00">::HLD::dfs_par</text>
</a>
</g>
</g>
<!-- Node5&#45;&gt;Node9 -->
<g id="edge10" class="edge">
<title>Node5&#45;&gt;Node9</title>
<path fill="none" stroke="midnightblue" d="M264.32,-320.48C273.77,-323.69 283.67,-327.06 293.34,-330.35"/>
<polygon fill="midnightblue" stroke="midnightblue" points="292.31,-333.69 302.9,-333.6 294.56,-327.07 292.31,-333.69"/>
</g>
<!-- Node10 -->
<g id="node10" class="node">
<title>Node10</title>
<g id="a_node10"><a xlink:href="../../d1/d51/classrange__queries_1_1heavy__light__decomposition_1_1_tree.html#ad22d760a5a33545a70e7ea5e1786c8dc" target="_top" xlink:title="This function must be called after the tree adjacency list and node values are populated The function...">
<polygon fill="white" stroke="black" points="303,-271.5 303,-312.5 413,-312.5 413,-271.5 303,-271.5"/>
<text text-anchor="start" x="311" y="-300.5" font-family="Helvetica,sans-Serif" font-size="10.00">range_queries::heavy</text>
<text text-anchor="start" x="311" y="-289.5" font-family="Helvetica,sans-Serif" font-size="10.00">_light_decomposition</text>
<text text-anchor="middle" x="358" y="-278.5" font-family="Helvetica,sans-Serif" font-size="10.00">::Tree::init</text>
</a>
</g>
</g>
<!-- Node5&#45;&gt;Node10 -->
<g id="edge12" class="edge">
<title>Node5&#45;&gt;Node10</title>
<path fill="none" stroke="midnightblue" d="M264.32,-298.3C273.57,-297.68 283.25,-297.02 292.73,-296.37"/>
<polygon fill="midnightblue" stroke="midnightblue" points="293.16,-299.85 302.9,-295.68 292.69,-292.87 293.16,-299.85"/>
</g>
<!-- Node7&#45;&gt;Node7 -->
<g id="edge7" class="edge">
<title>Node7&#45;&gt;Node7</title>
<path fill="none" stroke="midnightblue" d="M330.8,-234.86C327.83,-244.54 336.9,-253 358,-253 371.19,-253 379.68,-249.7 383.46,-244.86"/>
<polygon fill="midnightblue" stroke="midnightblue" points="386.93,-245.32 385.2,-234.86 380.04,-244.12 386.93,-245.32"/>
</g>
<!-- Node8&#45;&gt;Node8 -->
<g id="edge9" class="edge">
<title>Node8&#45;&gt;Node8</title>
<path fill="none" stroke="midnightblue" d="M330.8,-450.86C327.83,-460.54 336.9,-469 358,-469 371.19,-469 379.68,-465.7 383.46,-460.86"/>
<polygon fill="midnightblue" stroke="midnightblue" points="386.93,-461.32 385.2,-450.86 380.04,-460.12 386.93,-461.32"/>
</g>
<!-- Node9&#45;&gt;Node9 -->
<g id="edge11" class="edge">
<title>Node9&#45;&gt;Node9</title>
<path fill="none" stroke="midnightblue" d="M330.8,-372.86C327.83,-382.54 336.9,-391 358,-391 371.19,-391 379.68,-387.7 383.46,-382.86"/>
<polygon fill="midnightblue" stroke="midnightblue" points="386.93,-383.32 385.2,-372.86 380.04,-382.12 386.93,-383.32"/>
</g>
<!-- Node11 -->
<g id="node11" class="node">
<title>Node11</title>
<g id="a_node11"><a xlink:href="../../d1/d51/classrange__queries_1_1heavy__light__decomposition_1_1_tree.html#ae8de7aefcb6635d3dacdd174cd4890c4" target="_top" xlink:title="Utility function to populate the t_par vector.">
<polygon fill="white" stroke="black" points="452,-234.5 452,-275.5 562,-275.5 562,-234.5 452,-234.5"/>
<text text-anchor="start" x="460" y="-263.5" font-family="Helvetica,sans-Serif" font-size="10.00">range_queries::heavy</text>
<text text-anchor="start" x="460" y="-252.5" font-family="Helvetica,sans-Serif" font-size="10.00">_light_decomposition</text>
<text text-anchor="middle" x="507" y="-241.5" font-family="Helvetica,sans-Serif" font-size="10.00">::Tree::dfs_lca</text>
</a>
</g>
</g>
<!-- Node10&#45;&gt;Node11 -->
<g id="edge13" class="edge">
<title>Node10&#45;&gt;Node11</title>
<path fill="none" stroke="midnightblue" d="M413.32,-278.33C422.67,-275.97 432.46,-273.51 442.03,-271.1"/>
<polygon fill="midnightblue" stroke="midnightblue" points="443.06,-274.45 451.9,-268.62 441.35,-267.66 443.06,-274.45"/>
</g>
<!-- Node15 -->
<g id="node15" class="node">
<title>Node15</title>
<g id="a_node15"><a xlink:href="../../d1/d51/classrange__queries_1_1heavy__light__decomposition_1_1_tree.html#aa339c31ec74cd86a4842a8b09653d460" target="_top" xlink:title="Utility function to compute sub&#45;tree sizes.">
<polygon fill="white" stroke="black" points="452,-312.5 452,-353.5 562,-353.5 562,-312.5 452,-312.5"/>
<text text-anchor="start" x="460" y="-341.5" font-family="Helvetica,sans-Serif" font-size="10.00">range_queries::heavy</text>
<text text-anchor="start" x="460" y="-330.5" font-family="Helvetica,sans-Serif" font-size="10.00">_light_decomposition</text>
<text text-anchor="middle" x="507" y="-319.5" font-family="Helvetica,sans-Serif" font-size="10.00">::Tree::dfs_size</text>
</a>
</g>
</g>
<!-- Node10&#45;&gt;Node15 -->
<g id="edge18" class="edge">
<title>Node10&#45;&gt;Node15</title>
<path fill="none" stroke="midnightblue" d="M413.32,-307.15C422.67,-309.76 432.46,-312.49 442.03,-315.16"/>
<polygon fill="midnightblue" stroke="midnightblue" points="441.33,-318.6 451.9,-317.91 443.21,-311.85 441.33,-318.6"/>
</g>
<!-- Node11&#45;&gt;Node11 -->
<g id="edge14" class="edge">
<title>Node11&#45;&gt;Node11</title>
<path fill="none" stroke="midnightblue" d="M486.05,-275.86C483.76,-285.54 490.75,-294 507,-294 517.16,-294 523.7,-290.7 526.61,-285.86"/>
<polygon fill="midnightblue" stroke="midnightblue" points="530.09,-286.24 527.95,-275.86 523.15,-285.31 530.09,-286.24"/>
</g>
<!-- Node12 -->
<g id="node12" class="node">
<title>Node12</title>
<g id="a_node12"><a xlink:href="../../d4/d18/composite__simpson__rule_8cpp.html#a6d50f1b8eb533b54721812d16a3699cc" target="_top" xlink:title="Another test function.">
<polygon fill="white" stroke="black" points="608,-196.5 608,-215.5 637,-215.5 637,-196.5 608,-196.5"/>
<text text-anchor="middle" x="622.5" y="-203.5" font-family="Helvetica,sans-Serif" font-size="10.00">k</text>
</a>
</g>
</g>
<!-- Node11&#45;&gt;Node12 -->
<g id="edge15" class="edge">
<title>Node11&#45;&gt;Node12</title>
<path fill="none" stroke="midnightblue" d="M555.81,-234.36C570.57,-227.99 586.17,-221.25 598.46,-215.95"/>
<polygon fill="midnightblue" stroke="midnightblue" points="600.12,-219.04 607.91,-211.87 597.34,-212.62 600.12,-219.04"/>
</g>
<!-- Node13 -->
<g id="node13" class="node">
<title>Node13</title>
<g id="a_node13"><a target="_blank" xlink:href="http://en.cppreference.com/w/cpp/numeric/math/pow.html#" xlink:title=" ">
<polygon fill="white" stroke="black" points="683,-215.5 683,-234.5 737,-234.5 737,-215.5 683,-215.5"/>
<text text-anchor="middle" x="710" y="-222.5" font-family="Helvetica,sans-Serif" font-size="10.00">std::pow</text>
</a>
</g>
</g>
<!-- Node12&#45;&gt;Node13 -->
<g id="edge16" class="edge">
<title>Node12&#45;&gt;Node13</title>
<path fill="none" stroke="midnightblue" d="M637.24,-209.05C646.92,-211.2 660.37,-214.19 673,-217"/>
<polygon fill="midnightblue" stroke="midnightblue" points="672.36,-220.44 682.88,-219.2 673.88,-213.61 672.36,-220.44"/>
</g>
<!-- Node14 -->
<g id="node14" class="node">
<title>Node14</title>
<g id="a_node14"><a target="_blank" xlink:href="http://en.cppreference.com/w/cpp/numeric/math/sqrt.html#" xlink:title=" ">
<polygon fill="white" stroke="black" points="683.5,-177.5 683.5,-196.5 736.5,-196.5 736.5,-177.5 683.5,-177.5"/>
<text text-anchor="middle" x="710" y="-184.5" font-family="Helvetica,sans-Serif" font-size="10.00">std::sqrt</text>
</a>
</g>
</g>
<!-- Node12&#45;&gt;Node14 -->
<g id="edge17" class="edge">
<title>Node12&#45;&gt;Node14</title>
<path fill="none" stroke="midnightblue" d="M637.24,-202.95C647,-200.78 660.57,-197.76 673.3,-194.93"/>
<polygon fill="midnightblue" stroke="midnightblue" points="674.22,-198.31 683.23,-192.73 672.7,-191.48 674.22,-198.31"/>
</g>
<!-- Node15&#45;&gt;Node15 -->
<g id="edge19" class="edge">
<title>Node15&#45;&gt;Node15</title>
<path fill="none" stroke="midnightblue" d="M486.05,-353.86C483.76,-363.54 490.75,-372 507,-372 517.16,-372 523.7,-368.7 526.61,-363.86"/>
<polygon fill="midnightblue" stroke="midnightblue" points="530.09,-364.24 527.95,-353.86 523.15,-363.31 530.09,-364.24"/>
</g>
<!-- Node17 -->
<g id="node17" class="node">
<title>Node17</title>
<g id="a_node17"><a xlink:href="../../d2/d8a/classrange__queries_1_1heavy__light__decomposition_1_1_h_l_d.html#a7d5b40c076347a6aabfb37a0590f2f24" target="_top" xlink:title="Utility function to break down a path query into two chain queries.">
<polygon fill="white" stroke="black" points="303,-32.5 303,-73.5 413,-73.5 413,-32.5 303,-32.5"/>
<text text-anchor="start" x="311" y="-61.5" font-family="Helvetica,sans-Serif" font-size="10.00">range_queries::heavy</text>
<text text-anchor="start" x="311" y="-50.5" font-family="Helvetica,sans-Serif" font-size="10.00">_light_decomposition</text>
<text text-anchor="middle" x="358" y="-39.5" font-family="Helvetica,sans-Serif" font-size="10.00">::HLD::chain_query</text>
</a>
</g>
</g>
<!-- Node16&#45;&gt;Node17 -->
<g id="edge22" class="edge">
<title>Node16&#45;&gt;Node17</title>
<path fill="none" stroke="midnightblue" d="M218.11,-221.46C231.41,-189.8 260.37,-128.51 300,-88 302.92,-85.01 306.15,-82.17 309.54,-79.5"/>
<polygon fill="midnightblue" stroke="midnightblue" points="311.66,-82.29 317.68,-73.57 307.53,-76.63 311.66,-82.29"/>
</g>
<!-- Node21 -->
<g id="node21" class="node">
<title>Node21</title>
<g id="a_node21"><a xlink:href="../../d1/d51/classrange__queries_1_1heavy__light__decomposition_1_1_tree.html#ae2b407e64aaf9878fbee7ee6efe9c7d4" target="_top" xlink:title="The function returns the least common ancestor of two nodes.">
<polygon fill="white" stroke="black" points="303,-133.5 303,-174.5 413,-174.5 413,-133.5 303,-133.5"/>
<text text-anchor="start" x="311" y="-162.5" font-family="Helvetica,sans-Serif" font-size="10.00">range_queries::heavy</text>
<text text-anchor="start" x="311" y="-151.5" font-family="Helvetica,sans-Serif" font-size="10.00">_light_decomposition</text>
<text text-anchor="middle" x="358" y="-140.5" font-family="Helvetica,sans-Serif" font-size="10.00">::Tree::lca</text>
</a>
</g>
</g>
<!-- Node16&#45;&gt;Node21 -->
<g id="edge27" class="edge">
<title>Node16&#45;&gt;Node21</title>
<path fill="none" stroke="midnightblue" d="M240.41,-221.46C257.66,-210.04 279.77,-195.81 300,-184 302.62,-182.47 305.32,-180.93 308.07,-179.39"/>
<polygon fill="midnightblue" stroke="midnightblue" points="309.82,-182.43 316.89,-174.54 306.44,-176.29 309.82,-182.43"/>
</g>
<!-- Node17&#45;&gt;Node6 -->
<g id="edge23" class="edge">
<title>Node17&#45;&gt;Node6</title>
<path fill="none" stroke="midnightblue" d="M413.32,-69.26C422.67,-72.06 432.46,-74.99 442.03,-77.85"/>
<polygon fill="midnightblue" stroke="midnightblue" points="441.32,-81.29 451.9,-80.81 443.33,-74.59 441.32,-81.29"/>
</g>
<!-- Node18 -->
<g id="node18" class="node">
<title>Node18</title>
<g id="a_node18"><a xlink:href="../../d4/d18/composite__simpson__rule_8cpp.html#a995716bc040dc6cf32b5cb3df51c4529" target="_top" xlink:title="Another test function.">
<polygon fill="white" stroke="black" points="492.5,-38.5 492.5,-57.5 521.5,-57.5 521.5,-38.5 492.5,-38.5"/>
<text text-anchor="middle" x="507" y="-45.5" font-family="Helvetica,sans-Serif" font-size="10.00">l</text>
</a>
</g>
</g>
<!-- Node17&#45;&gt;Node18 -->
<g id="edge24" class="edge">
<title>Node17&#45;&gt;Node18</title>
<path fill="none" stroke="midnightblue" d="M413.32,-51.15C437,-50.35 463.54,-49.44 482.13,-48.81"/>
<polygon fill="midnightblue" stroke="midnightblue" points="482.45,-52.3 492.33,-48.47 482.21,-45.31 482.45,-52.3"/>
</g>
<!-- Node20 -->
<g id="node20" class="node">
<title>Node20</title>
<g id="a_node20"><a target="_blank" xlink:href="http://en.cppreference.com/w/cpp/algorithm/swap.html#" xlink:title=" ">
<polygon fill="white" stroke="black" points="477.5,-0.5 477.5,-19.5 536.5,-19.5 536.5,-0.5 477.5,-0.5"/>
<text text-anchor="middle" x="507" y="-7.5" font-family="Helvetica,sans-Serif" font-size="10.00">std::swap</text>
</a>
</g>
</g>
<!-- Node17&#45;&gt;Node20 -->
<g id="edge26" class="edge">
<title>Node17&#45;&gt;Node20</title>
<path fill="none" stroke="midnightblue" d="M413.32,-37.11C431.34,-31.84 451,-26.09 467.57,-21.24"/>
<polygon fill="midnightblue" stroke="midnightblue" points="468.83,-24.52 477.44,-18.35 466.86,-17.8 468.83,-24.52"/>
</g>
<!-- Node19 -->
<g id="node19" class="node">
<title>Node19</title>
<g id="a_node19"><a target="_blank" xlink:href="http://en.cppreference.com/w/cpp/numeric/math/log.html#" xlink:title=" ">
<polygon fill="white" stroke="black" points="598,-38.5 598,-57.5 647,-57.5 647,-38.5 598,-38.5"/>
<text text-anchor="middle" x="622.5" y="-45.5" font-family="Helvetica,sans-Serif" font-size="10.00">std::log</text>
</a>
</g>
</g>
<!-- Node18&#45;&gt;Node19 -->
<g id="edge25" class="edge">
<title>Node18&#45;&gt;Node19</title>
<path fill="none" stroke="midnightblue" d="M521.92,-48C538.2,-48 565.72,-48 587.71,-48"/>
<polygon fill="midnightblue" stroke="midnightblue" points="587.98,-51.5 597.98,-48 587.98,-44.5 587.98,-51.5"/>
</g>
<!-- Node21&#45;&gt;Node12 -->
<g id="edge28" class="edge">
<title>Node21&#45;&gt;Node12</title>
<path fill="none" stroke="midnightblue" d="M410.51,-174.64C423.85,-179.33 438.31,-183.85 452,-187 503.07,-198.76 564.55,-203.34 597.63,-205.05"/>
<polygon fill="midnightblue" stroke="midnightblue" points="597.55,-208.55 607.7,-205.52 597.87,-201.56 597.55,-208.55"/>
</g>
<!-- Node22 -->
<g id="node22" class="node">
<title>Node22</title>
<g id="a_node22"><a xlink:href="../../d1/d51/classrange__queries_1_1heavy__light__decomposition_1_1_tree.html#ac7761255f2ba06b398b9aae5e4dce5f3" target="_top" xlink:title="The function lifts a node, k units up the tree. The lifting is done in place, and the result is store...">
<polygon fill="white" stroke="black" points="452,-136.5 452,-177.5 562,-177.5 562,-136.5 452,-136.5"/>
<text text-anchor="start" x="460" y="-165.5" font-family="Helvetica,sans-Serif" font-size="10.00">range_queries::heavy</text>
<text text-anchor="start" x="460" y="-154.5" font-family="Helvetica,sans-Serif" font-size="10.00">_light_decomposition</text>
<text text-anchor="middle" x="507" y="-143.5" font-family="Helvetica,sans-Serif" font-size="10.00">::Tree::lift</text>
</a>
</g>
</g>
<!-- Node21&#45;&gt;Node22 -->
<g id="edge29" class="edge">
<title>Node21&#45;&gt;Node22</title>
<path fill="none" stroke="midnightblue" d="M413.32,-155.11C422.57,-155.3 432.25,-155.49 441.73,-155.69"/>
<polygon fill="midnightblue" stroke="midnightblue" points="441.83,-159.19 451.9,-155.9 441.98,-152.19 441.83,-159.19"/>
</g>
<!-- Node22&#45;&gt;Node12 -->
<g id="edge30" class="edge">
<title>Node22&#45;&gt;Node12</title>
<path fill="none" stroke="midnightblue" d="M555.81,-177.64C570.57,-184.01 586.17,-190.75 598.46,-196.05"/>
<polygon fill="midnightblue" stroke="midnightblue" points="597.34,-199.38 607.91,-200.13 600.12,-192.96 597.34,-199.38"/>
</g>
<!-- Node23&#45;&gt;Node24 -->
<g id="edge32" class="edge">
<title>Node23&#45;&gt;Node24</title>
<path fill="none" stroke="midnightblue" d="M264.32,-624.76C277.36,-622.54 291.26,-620.18 304.22,-617.98"/>
<polygon fill="midnightblue" stroke="midnightblue" points="305.11,-621.37 314.38,-616.25 303.94,-614.47 305.11,-621.37"/>
</g>
<!-- Node26 -->
<g id="node26" class="node">
<title>Node26</title>
<g id="a_node26"><a xlink:href="../../d9/d35/classrange__queries_1_1heavy__light__decomposition_1_1_s_g.html#a3c75bf5770790f8eba8cc92227b5400c" target="_top" xlink:title="Update the value at a node.">
<polygon fill="white" stroke="black" points="303,-525.5 303,-566.5 413,-566.5 413,-525.5 303,-525.5"/>
<text text-anchor="start" x="311" y="-554.5" font-family="Helvetica,sans-Serif" font-size="10.00">range_queries::heavy</text>
<text text-anchor="start" x="311" y="-543.5" font-family="Helvetica,sans-Serif" font-size="10.00">_light_decomposition</text>
<text text-anchor="middle" x="358" y="-532.5" font-family="Helvetica,sans-Serif" font-size="10.00">::SG::update</text>
</a>
</g>
</g>
<!-- Node25&#45;&gt;Node26 -->
<g id="edge35" class="edge">
<title>Node25&#45;&gt;Node26</title>
<path fill="none" stroke="midnightblue" d="M264.32,-539.7C273.57,-540.32 283.25,-540.98 292.73,-541.63"/>
<polygon fill="midnightblue" stroke="midnightblue" points="292.69,-545.13 302.9,-542.32 293.16,-538.15 292.69,-545.13"/>
</g>
<!-- Node27&#45;&gt;Node3 -->
<g id="edge37" class="edge">
<title>Node27&#45;&gt;Node3</title>
<path fill="none" stroke="midnightblue" d="M118.14,-515.67C127.86,-511.38 139.91,-506.06 151.98,-500.73"/>
<polygon fill="midnightblue" stroke="midnightblue" points="153.45,-503.9 161.19,-496.66 150.63,-497.5 153.45,-503.9"/>
</g>
<!-- Node27&#45;&gt;Node4 -->
<g id="edge39" class="edge">
<title>Node27&#45;&gt;Node4</title>
<path fill="none" stroke="midnightblue" d="M97.51,-534.64C99.48,-560.91 108.95,-633.78 154,-664 194.6,-691.23 225.56,-694.21 264,-664 317.23,-622.17 254.16,-565.82 300,-516 301.35,-514.53 302.82,-513.18 304.38,-511.93"/>
<polygon fill="midnightblue" stroke="midnightblue" points="306.29,-514.86 312.81,-506.51 302.51,-508.97 306.29,-514.86"/>
</g>
<!-- Node27&#45;&gt;Node5 -->
<g id="edge38" class="edge">
<title>Node27&#45;&gt;Node5</title>
<path fill="none" stroke="midnightblue" d="M104.45,-515.29C108.68,-509.55 113.93,-502.05 118,-495 149.98,-439.6 179.85,-370.91 195.85,-332.21"/>
<polygon fill="midnightblue" stroke="midnightblue" points="199.24,-333.17 199.8,-322.59 192.76,-330.51 199.24,-333.17"/>
</g>
<!-- Node27&#45;&gt;Node16 -->
<g id="edge40" class="edge">
<title>Node27&#45;&gt;Node16</title>
<path fill="none" stroke="midnightblue" d="M105.42,-515.39C109.85,-509.81 114.99,-502.42 118,-495 155.74,-401.97 96.33,-354.18 154,-272 154.54,-271.23 155.1,-270.48 155.69,-269.75"/>
<polygon fill="midnightblue" stroke="midnightblue" points="158.28,-272.11 162.81,-262.53 153.29,-267.2 158.28,-272.11"/>
</g>
<!-- Node27&#45;&gt;Node23 -->
<g id="edge41" class="edge">
<title>Node27&#45;&gt;Node23</title>
<path fill="none" stroke="midnightblue" d="M102.94,-534.71C112.43,-549.71 132.18,-578.89 154,-599 157.14,-601.9 160.55,-604.71 164.08,-607.4"/>
<polygon fill="midnightblue" stroke="midnightblue" points="162.28,-610.42 172.44,-613.43 166.38,-604.74 162.28,-610.42"/>
</g>
<!-- Node27&#45;&gt;Node24 -->
<g id="edge42" class="edge">
<title>Node27&#45;&gt;Node24</title>
<path fill="none" stroke="midnightblue" d="M96.88,-534.53C97.09,-563.57 102.17,-651.22 154,-688 193.87,-716.29 218.11,-704.86 264,-688 297.26,-675.78 326.75,-645.81 343.21,-626.5"/>
<polygon fill="midnightblue" stroke="midnightblue" points="345.96,-628.66 349.63,-618.71 340.56,-624.2 345.96,-628.66"/>
</g>
<!-- Node27&#45;&gt;Node25 -->
<g id="edge43" class="edge">
<title>Node27&#45;&gt;Node25</title>
<path fill="none" stroke="midnightblue" d="M118.14,-527.09C125.62,-527.84 134.48,-528.71 143.67,-529.62"/>
<polygon fill="midnightblue" stroke="midnightblue" points="143.42,-533.12 153.72,-530.62 144.11,-526.15 143.42,-533.12"/>
</g>
<!-- Node28&#45;&gt;Node3 -->
<g id="edge45" class="edge">
<title>Node28&#45;&gt;Node3</title>
<path fill="none" stroke="midnightblue" d="M118.14,-476C125.62,-476 134.48,-476 143.67,-476"/>
<polygon fill="midnightblue" stroke="midnightblue" points="143.72,-479.5 153.72,-476 143.72,-472.5 143.72,-479.5"/>
</g>
<!-- Node28&#45;&gt;Node4 -->
<g id="edge47" class="edge">
<title>Node28&#45;&gt;Node4</title>
<path fill="none" stroke="midnightblue" d="M110.75,-466.31C121.84,-459.12 138.15,-449.92 154,-446 201.46,-434.27 218.3,-428.63 264,-446 284.01,-453.61 281.47,-467.29 300,-478 303.66,-480.11 307.58,-482.04 311.6,-483.77"/>
<polygon fill="midnightblue" stroke="midnightblue" points="310.48,-487.09 321.07,-487.49 313.04,-480.57 310.48,-487.09"/>
</g>
<!-- Node28&#45;&gt;Node5 -->
<g id="edge46" class="edge">
<title>Node28&#45;&gt;Node5</title>
<path fill="none" stroke="midnightblue" d="M103.13,-466.4C119.35,-440.96 163.94,-371.07 189.45,-331.08"/>
<polygon fill="midnightblue" stroke="midnightblue" points="192.46,-332.87 194.89,-322.56 186.56,-329.11 192.46,-332.87"/>
</g>
<!-- Node28&#45;&gt;Node16 -->
<g id="edge48" class="edge">
<title>Node28&#45;&gt;Node16</title>
<path fill="none" stroke="midnightblue" d="M102.51,-466.38C107.2,-457.84 113.82,-444.92 118,-433 142.25,-363.81 110.1,-330.73 154,-272 154.56,-271.25 155.15,-270.51 155.76,-269.79"/>
<polygon fill="midnightblue" stroke="midnightblue" points="158.32,-272.18 163.03,-262.69 153.43,-267.18 158.32,-272.18"/>
</g>
<!-- Node28&#45;&gt;Node23 -->
<g id="edge49" class="edge">
<title>Node28&#45;&gt;Node23</title>
<path fill="none" stroke="midnightblue" d="M104.63,-485.61C108.92,-491.32 114.17,-498.82 118,-506 138.86,-545.11 126.04,-564.61 154,-599 156.32,-601.86 158.94,-604.56 161.74,-607.09"/>
<polygon fill="midnightblue" stroke="midnightblue" points="159.53,-609.81 169.5,-613.42 163.96,-604.39 159.53,-609.81"/>
</g>
<!-- Node28&#45;&gt;Node24 -->
<g id="edge50" class="edge">
<title>Node28&#45;&gt;Node24</title>
<path fill="none" stroke="midnightblue" d="M103.98,-485.61C108.16,-491.44 113.5,-499.07 118,-506 134.93,-532.09 128.68,-547.94 154,-566 177.72,-582.91 252.48,-595.62 304.33,-602.68"/>
<polygon fill="midnightblue" stroke="midnightblue" points="304,-606.17 314.37,-604.02 304.92,-599.23 304,-606.17"/>
</g>
<!-- Node28&#45;&gt;Node25 -->
<g id="edge51" class="edge">
<title>Node28&#45;&gt;Node25</title>
<path fill="none" stroke="midnightblue" d="M114.83,-485.64C127.35,-492.4 144.7,-501.78 161.04,-510.61"/>
<polygon fill="midnightblue" stroke="midnightblue" points="159.51,-513.77 169.97,-515.44 162.84,-507.61 159.51,-513.77"/>
</g>
</g>
</svg>
