<?xml version="1.0" encoding="UTF-8" standalone="no"?>
<!DOCTYPE svg PUBLIC "-//W3C//DTD SVG 1.1//EN"
 "http://www.w3.org/Graphics/SVG/1.1/DTD/svg11.dtd">
<!-- Generated by graphviz version 5.0.0 (20220707.1540)
 -->
<!-- Title: test_1 Pages: 1 -->
<svg width="671pt" height="578pt"
 viewBox="0.00 0.00 671.00 578.00" xmlns="http://www.w3.org/2000/svg" xmlns:xlink="http://www.w3.org/1999/xlink">
<g id="graph0" class="graph" transform="scale(1 1) rotate(0) translate(4 574)">
<title>test_1</title>
<polygon fill="white" stroke="transparent" points="-4,4 -4,-574 667,-574 667,4 -4,4"/>
<!-- Node1 -->
<g id="node1" class="node">
<title>Node1</title>
<g id="a_node1"><a xlink:title=" ">
<polygon fill="#bfbfbf" stroke="black" points="0,-227.5 0,-246.5 44,-246.5 44,-227.5 0,-227.5"/>
<text text-anchor="middle" x="22" y="-234.5" font-family="Helvetica,sans-Serif" font-size="10.00">test_1</text>
</a>
</g>
</g>
<!-- Node2 -->
<g id="node2" class="node">
<title>Node2</title>
<g id="a_node2"><a xlink:href="../../d1/d51/classrange__queries_1_1heavy__light__decomposition_1_1_tree.html#a79ab4601c4a95c0902ac04e779e5f54d" target="_top" xlink:title="Adds an undirected edge from node u to node v in the tree.">
<polygon fill="white" stroke="black" points="80,-415.5 80,-456.5 190,-456.5 190,-415.5 80,-415.5"/>
<text text-anchor="start" x="88" y="-444.5" font-family="Helvetica,sans-Serif" font-size="10.00">range_queries::heavy</text>
<text text-anchor="start" x="88" y="-433.5" font-family="Helvetica,sans-Serif" font-size="10.00">_light_decomposition</text>
<text text-anchor="middle" x="135" y="-422.5" font-family="Helvetica,sans-Serif" font-size="10.00">::Tree::add_edge</text>
</a>
</g>
</g>
<!-- Node1&#45;&gt;Node2 -->
<g id="edge1" class="edge">
<title>Node1&#45;&gt;Node2</title>
<path fill="none" stroke="midnightblue" d="M28.35,-246.6C44.32,-275.22 92.05,-360.8 117.54,-406.49"/>
<polygon fill="midnightblue" stroke="midnightblue" points="114.54,-408.3 122.47,-415.33 120.66,-404.89 114.54,-408.3"/>
</g>
<!-- Node3 -->
<g id="node3" class="node">
<title>Node3</title>
<g id="a_node3"><a target="_blank" xlink:href="http://en.cppreference.com/w/cpp/container/vector/push_back.html#" xlink:title=" ">
<polygon fill="white" stroke="black" points="226,-550.5 226,-569.5 342,-569.5 342,-550.5 226,-550.5"/>
<text text-anchor="middle" x="284" y="-557.5" font-family="Helvetica,sans-Serif" font-size="10.00">std::vector::push_back</text>
</a>
</g>
</g>
<!-- Node1&#45;&gt;Node3 -->
<g id="edge19" class="edge">
<title>Node1&#45;&gt;Node3</title>
<path fill="none" stroke="midnightblue" d="M22.62,-246.55C21.79,-280.58 23.37,-397.46 80,-466 116.88,-510.63 179.63,-535.16 225.63,-547.86"/>
<polygon fill="midnightblue" stroke="midnightblue" points="224.9,-551.29 235.47,-550.47 226.7,-544.52 224.9,-551.29"/>
</g>
<!-- Node4 -->
<g id="node4" class="node">
<title>Node4</title>
<g id="a_node4"><a xlink:href="../../d2/d8a/classrange__queries_1_1heavy__light__decomposition_1_1_h_l_d.html#ae9e979edd69678b85665c01e2ee97828" target="_top" xlink:title="This function must be called after the tree adjacency list and node values are populated The function...">
<polygon fill="white" stroke="black" points="80,-280.5 80,-321.5 190,-321.5 190,-280.5 80,-280.5"/>
<text text-anchor="start" x="88" y="-309.5" font-family="Helvetica,sans-Serif" font-size="10.00">range_queries::heavy</text>
<text text-anchor="start" x="88" y="-298.5" font-family="Helvetica,sans-Serif" font-size="10.00">_light_decomposition</text>
<text text-anchor="middle" x="135" y="-287.5" font-family="Helvetica,sans-Serif" font-size="10.00">::HLD::init</text>
</a>
</g>
</g>
<!-- Node1&#45;&gt;Node4 -->
<g id="edge3" class="edge">
<title>Node1&#45;&gt;Node4</title>
<path fill="none" stroke="midnightblue" d="M39.86,-246.72C52.98,-254.28 71.81,-265.14 89.19,-275.17"/>
<polygon fill="midnightblue" stroke="midnightblue" points="87.7,-278.35 98.11,-280.31 91.2,-272.28 87.7,-278.35"/>
</g>
<!-- Node15 -->
<g id="node15" class="node">
<title>Node15</title>
<g id="a_node15"><a xlink:href="../../d2/d8a/classrange__queries_1_1heavy__light__decomposition_1_1_h_l_d.html#a4dfbf5d9df825eeb63b294c6849bdcab" target="_top" xlink:title="This function returns the sum of node values in the simple path from from node_1 to node_2.">
<polygon fill="white" stroke="black" points="80,-216.5 80,-257.5 190,-257.5 190,-216.5 80,-216.5"/>
<text text-anchor="start" x="88" y="-245.5" font-family="Helvetica,sans-Serif" font-size="10.00">range_queries::heavy</text>
<text text-anchor="start" x="88" y="-234.5" font-family="Helvetica,sans-Serif" font-size="10.00">_light_decomposition</text>
<text text-anchor="middle" x="135" y="-223.5" font-family="Helvetica,sans-Serif" font-size="10.00">::HLD::query</text>
</a>
</g>
</g>
<!-- Node1&#45;&gt;Node15 -->
<g id="edge20" class="edge">
<title>Node1&#45;&gt;Node15</title>
<path fill="none" stroke="midnightblue" d="M44.14,-237C51.62,-237 60.48,-237 69.67,-237"/>
<polygon fill="midnightblue" stroke="midnightblue" points="69.72,-240.5 79.72,-237 69.72,-233.5 69.72,-240.5"/>
</g>
<!-- Node22 -->
<g id="node22" class="node">
<title>Node22</title>
<g id="a_node22"><a xlink:href="../../d1/d51/classrange__queries_1_1heavy__light__decomposition_1_1_tree.html#a04cd96efaba147b19d3afc769b90ff70" target="_top" xlink:title="Set the values for all the nodes.">
<polygon fill="white" stroke="black" points="80,-96.5 80,-137.5 190,-137.5 190,-96.5 80,-96.5"/>
<text text-anchor="start" x="88" y="-125.5" font-family="Helvetica,sans-Serif" font-size="10.00">range_queries::heavy</text>
<text text-anchor="start" x="88" y="-114.5" font-family="Helvetica,sans-Serif" font-size="10.00">_light_decomposition</text>
<text text-anchor="middle" x="135" y="-103.5" font-family="Helvetica,sans-Serif" font-size="10.00">::Tree::set_node_val</text>
</a>
</g>
</g>
<!-- Node1&#45;&gt;Node22 -->
<g id="edge30" class="edge">
<title>Node1&#45;&gt;Node22</title>
<path fill="none" stroke="midnightblue" d="M30.33,-227.13C40.81,-213.24 60.91,-187.34 80,-167 87.08,-159.45 95.09,-151.68 102.73,-144.57"/>
<polygon fill="midnightblue" stroke="midnightblue" points="105.19,-147.06 110.19,-137.72 100.46,-141.9 105.19,-147.06"/>
</g>
<!-- Node23 -->
<g id="node23" class="node">
<title>Node23</title>
<g id="a_node23"><a target="_blank" xlink:href="http://en.cppreference.com/w/cpp/container/vector/size.html#" xlink:title=" ">
<polygon fill="white" stroke="black" points="240.5,-60.5 240.5,-79.5 327.5,-79.5 327.5,-60.5 240.5,-60.5"/>
<text text-anchor="middle" x="284" y="-67.5" font-family="Helvetica,sans-Serif" font-size="10.00">std::vector::size</text>
</a>
</g>
</g>
<!-- Node1&#45;&gt;Node23 -->
<g id="edge32" class="edge">
<title>Node1&#45;&gt;Node23</title>
<path fill="none" stroke="midnightblue" d="M41.12,-227.39C83.73,-204.78 186.96,-149.86 190,-147 212.1,-126.21 202.19,-107.81 226,-89 228.3,-87.18 230.79,-85.53 233.39,-84.04"/>
<polygon fill="midnightblue" stroke="midnightblue" points="235.13,-87.08 242.56,-79.54 232.04,-80.8 235.13,-87.08"/>
</g>
<!-- Node24 -->
<g id="node24" class="node">
<title>Node24</title>
<g id="a_node24"><a xlink:href="../../d2/d8a/classrange__queries_1_1heavy__light__decomposition_1_1_h_l_d.html#a9f1cb54ed09fde931bf3220d75ee4c57" target="_top" xlink:title="This function updates the value at node with val.">
<polygon fill="white" stroke="black" points="80,-6.5 80,-47.5 190,-47.5 190,-6.5 80,-6.5"/>
<text text-anchor="start" x="88" y="-35.5" font-family="Helvetica,sans-Serif" font-size="10.00">range_queries::heavy</text>
<text text-anchor="start" x="88" y="-24.5" font-family="Helvetica,sans-Serif" font-size="10.00">_light_decomposition</text>
<text text-anchor="middle" x="135" y="-13.5" font-family="Helvetica,sans-Serif" font-size="10.00">::HLD::update</text>
</a>
</g>
</g>
<!-- Node1&#45;&gt;Node24 -->
<g id="edge33" class="edge">
<title>Node1&#45;&gt;Node24</title>
<path fill="none" stroke="midnightblue" d="M25.34,-227.32C31.59,-202.61 50.25,-135.75 80,-87 86.91,-75.67 96.1,-64.52 104.93,-54.95"/>
<polygon fill="midnightblue" stroke="midnightblue" points="107.52,-57.31 111.89,-47.66 102.46,-52.48 107.52,-57.31"/>
</g>
<!-- Node2&#45;&gt;Node3 -->
<g id="edge2" class="edge">
<title>Node2&#45;&gt;Node3</title>
<path fill="none" stroke="midnightblue" d="M150.42,-456.86C166.63,-479 194.79,-513.8 226,-536 231.58,-539.97 237.93,-543.46 244.3,-546.45"/>
<polygon fill="midnightblue" stroke="midnightblue" points="243.02,-549.7 253.59,-550.48 245.81,-543.28 243.02,-549.7"/>
</g>
<!-- Node5 -->
<g id="node5" class="node">
<title>Node5</title>
<g id="a_node5"><a xlink:href="../../d9/d35/classrange__queries_1_1heavy__light__decomposition_1_1_s_g.html#a41c733f5f5e262b308f7cb95c88c1e74" target="_top" xlink:title="Function that specifies the type of operation involved when segments are combined.">
<polygon fill="white" stroke="black" points="378,-439.5 378,-480.5 488,-480.5 488,-439.5 378,-439.5"/>
<text text-anchor="start" x="386" y="-468.5" font-family="Helvetica,sans-Serif" font-size="10.00">range_queries::heavy</text>
<text text-anchor="start" x="386" y="-457.5" font-family="Helvetica,sans-Serif" font-size="10.00">_light_decomposition</text>
<text text-anchor="middle" x="433" y="-446.5" font-family="Helvetica,sans-Serif" font-size="10.00">::SG::combine</text>
</a>
</g>
</g>
<!-- Node4&#45;&gt;Node5 -->
<g id="edge4" class="edge">
<title>Node4&#45;&gt;Node5</title>
<path fill="none" stroke="midnightblue" d="M147.5,-321.56C158.98,-342.48 176.77,-375.99 190,-406 208.55,-448.08 188.25,-476.74 226,-503 275.53,-537.45 346.87,-509.57 391.28,-485.43"/>
<polygon fill="midnightblue" stroke="midnightblue" points="393.04,-488.46 400.06,-480.52 389.62,-482.35 393.04,-488.46"/>
</g>
<!-- Node6 -->
<g id="node6" class="node">
<title>Node6</title>
<g id="a_node6"><a xlink:href="../../d2/d8a/classrange__queries_1_1heavy__light__decomposition_1_1_h_l_d.html#af64848d6630c39d0f09ce2359cc7c4f8" target="_top" xlink:title="Utility function to assign heavy child to each node (&#45;1 for a leaf node)">
<polygon fill="white" stroke="black" points="229,-434.5 229,-475.5 339,-475.5 339,-434.5 229,-434.5"/>
<text text-anchor="start" x="237" y="-463.5" font-family="Helvetica,sans-Serif" font-size="10.00">range_queries::heavy</text>
<text text-anchor="start" x="237" y="-452.5" font-family="Helvetica,sans-Serif" font-size="10.00">_light_decomposition</text>
<text text-anchor="middle" x="284" y="-441.5" font-family="Helvetica,sans-Serif" font-size="10.00">::HLD::dfs_hc</text>
</a>
</g>
</g>
<!-- Node4&#45;&gt;Node6 -->
<g id="edge5" class="edge">
<title>Node4&#45;&gt;Node6</title>
<path fill="none" stroke="midnightblue" d="M147.02,-321.69C162.01,-348.3 191.01,-394.7 226,-425 227.34,-426.16 228.73,-427.29 230.16,-428.39"/>
<polygon fill="midnightblue" stroke="midnightblue" points="228.51,-431.5 238.71,-434.36 232.51,-425.76 228.51,-431.5"/>
</g>
<!-- Node7 -->
<g id="node7" class="node">
<title>Node7</title>
<g id="a_node7"><a xlink:href="../../d2/d8a/classrange__queries_1_1heavy__light__decomposition_1_1_h_l_d.html#a0579062b384e54b611b80c6337c7f2c8" target="_top" xlink:title="Utility function to lable the nodes so that heavy chains have a contigous lable.">
<polygon fill="white" stroke="black" points="229,-356.5 229,-397.5 339,-397.5 339,-356.5 229,-356.5"/>
<text text-anchor="start" x="237" y="-385.5" font-family="Helvetica,sans-Serif" font-size="10.00">range_queries::heavy</text>
<text text-anchor="start" x="237" y="-374.5" font-family="Helvetica,sans-Serif" font-size="10.00">_light_decomposition</text>
<text text-anchor="middle" x="284" y="-363.5" font-family="Helvetica,sans-Serif" font-size="10.00">::HLD::dfs_labels</text>
</a>
</g>
</g>
<!-- Node4&#45;&gt;Node7 -->
<g id="edge7" class="edge">
<title>Node4&#45;&gt;Node7</title>
<path fill="none" stroke="midnightblue" d="M175.78,-321.57C193.76,-330.86 215.17,-341.93 234.11,-351.72"/>
<polygon fill="midnightblue" stroke="midnightblue" points="232.7,-354.93 243.19,-356.42 235.91,-348.72 232.7,-354.93"/>
</g>
<!-- Node8 -->
<g id="node8" class="node">
<title>Node8</title>
<g id="a_node8"><a xlink:href="../../d2/d8a/classrange__queries_1_1heavy__light__decomposition_1_1_h_l_d.html#a2dfbda148aad0bfaba2ebfda9ebc915a" target="_top" xlink:title="Utility function to assign highest parent that can be reached though heavy chains.">
<polygon fill="white" stroke="black" points="229,-278.5 229,-319.5 339,-319.5 339,-278.5 229,-278.5"/>
<text text-anchor="start" x="237" y="-307.5" font-family="Helvetica,sans-Serif" font-size="10.00">range_queries::heavy</text>
<text text-anchor="start" x="237" y="-296.5" font-family="Helvetica,sans-Serif" font-size="10.00">_light_decomposition</text>
<text text-anchor="middle" x="284" y="-285.5" font-family="Helvetica,sans-Serif" font-size="10.00">::HLD::dfs_par</text>
</a>
</g>
</g>
<!-- Node4&#45;&gt;Node8 -->
<g id="edge9" class="edge">
<title>Node4&#45;&gt;Node8</title>
<path fill="none" stroke="midnightblue" d="M190.32,-300.26C199.57,-300.14 209.25,-300 218.73,-299.87"/>
<polygon fill="midnightblue" stroke="midnightblue" points="218.95,-303.37 228.9,-299.74 218.86,-296.37 218.95,-303.37"/>
</g>
<!-- Node9 -->
<g id="node9" class="node">
<title>Node9</title>
<g id="a_node9"><a xlink:href="../../d1/d51/classrange__queries_1_1heavy__light__decomposition_1_1_tree.html#ad22d760a5a33545a70e7ea5e1786c8dc" target="_top" xlink:title="This function must be called after the tree adjacency list and node values are populated The function...">
<polygon fill="white" stroke="black" points="229,-158.5 229,-199.5 339,-199.5 339,-158.5 229,-158.5"/>
<text text-anchor="start" x="237" y="-187.5" font-family="Helvetica,sans-Serif" font-size="10.00">range_queries::heavy</text>
<text text-anchor="start" x="237" y="-176.5" font-family="Helvetica,sans-Serif" font-size="10.00">_light_decomposition</text>
<text text-anchor="middle" x="284" y="-165.5" font-family="Helvetica,sans-Serif" font-size="10.00">::Tree::init</text>
</a>
</g>
</g>
<!-- Node4&#45;&gt;Node9 -->
<g id="edge11" class="edge">
<title>Node4&#45;&gt;Node9</title>
<path fill="none" stroke="midnightblue" d="M173.69,-280.41C179.5,-276.38 185.16,-271.87 190,-267 211.38,-245.48 203.8,-229.68 226,-209 227.27,-207.82 228.59,-206.67 229.95,-205.56"/>
<polygon fill="midnightblue" stroke="midnightblue" points="232.16,-208.28 238.17,-199.56 228.03,-202.63 232.16,-208.28"/>
</g>
<!-- Node6&#45;&gt;Node6 -->
<g id="edge6" class="edge">
<title>Node6&#45;&gt;Node6</title>
<path fill="none" stroke="midnightblue" d="M256.8,-475.86C253.83,-485.54 262.9,-494 284,-494 297.19,-494 305.68,-490.7 309.46,-485.86"/>
<polygon fill="midnightblue" stroke="midnightblue" points="312.93,-486.32 311.2,-475.86 306.04,-485.12 312.93,-486.32"/>
</g>
<!-- Node7&#45;&gt;Node7 -->
<g id="edge8" class="edge">
<title>Node7&#45;&gt;Node7</title>
<path fill="none" stroke="midnightblue" d="M256.8,-397.86C253.83,-407.54 262.9,-416 284,-416 297.19,-416 305.68,-412.7 309.46,-407.86"/>
<polygon fill="midnightblue" stroke="midnightblue" points="312.93,-408.32 311.2,-397.86 306.04,-407.12 312.93,-408.32"/>
</g>
<!-- Node8&#45;&gt;Node8 -->
<g id="edge10" class="edge">
<title>Node8&#45;&gt;Node8</title>
<path fill="none" stroke="midnightblue" d="M256.8,-319.86C253.83,-329.54 262.9,-338 284,-338 297.19,-338 305.68,-334.7 309.46,-329.86"/>
<polygon fill="midnightblue" stroke="midnightblue" points="312.93,-330.32 311.2,-319.86 306.04,-329.12 312.93,-330.32"/>
</g>
<!-- Node10 -->
<g id="node10" class="node">
<title>Node10</title>
<g id="a_node10"><a xlink:href="../../d1/d51/classrange__queries_1_1heavy__light__decomposition_1_1_tree.html#ae8de7aefcb6635d3dacdd174cd4890c4" target="_top" xlink:title="Utility function to populate the t_par vector.">
<polygon fill="white" stroke="black" points="378,-113.5 378,-154.5 488,-154.5 488,-113.5 378,-113.5"/>
<text text-anchor="start" x="386" y="-142.5" font-family="Helvetica,sans-Serif" font-size="10.00">range_queries::heavy</text>
<text text-anchor="start" x="386" y="-131.5" font-family="Helvetica,sans-Serif" font-size="10.00">_light_decomposition</text>
<text text-anchor="middle" x="433" y="-120.5" font-family="Helvetica,sans-Serif" font-size="10.00">::Tree::dfs_lca</text>
</a>
</g>
</g>
<!-- Node9&#45;&gt;Node10 -->
<g id="edge12" class="edge">
<title>Node9&#45;&gt;Node10</title>
<path fill="none" stroke="midnightblue" d="M339.32,-162.37C348.77,-159.48 358.67,-156.45 368.34,-153.49"/>
<polygon fill="midnightblue" stroke="midnightblue" points="369.37,-156.83 377.9,-150.56 367.32,-150.14 369.37,-156.83"/>
</g>
<!-- Node14 -->
<g id="node14" class="node">
<title>Node14</title>
<g id="a_node14"><a xlink:href="../../d1/d51/classrange__queries_1_1heavy__light__decomposition_1_1_tree.html#aa339c31ec74cd86a4842a8b09653d460" target="_top" xlink:title="Utility function to compute sub&#45;tree sizes.">
<polygon fill="white" stroke="black" points="378,-191.5 378,-232.5 488,-232.5 488,-191.5 378,-191.5"/>
<text text-anchor="start" x="386" y="-220.5" font-family="Helvetica,sans-Serif" font-size="10.00">range_queries::heavy</text>
<text text-anchor="start" x="386" y="-209.5" font-family="Helvetica,sans-Serif" font-size="10.00">_light_decomposition</text>
<text text-anchor="middle" x="433" y="-198.5" font-family="Helvetica,sans-Serif" font-size="10.00">::Tree::dfs_size</text>
</a>
</g>
</g>
<!-- Node9&#45;&gt;Node14 -->
<g id="edge17" class="edge">
<title>Node9&#45;&gt;Node14</title>
<path fill="none" stroke="midnightblue" d="M339.32,-191.19C348.67,-193.29 358.46,-195.49 368.03,-197.64"/>
<polygon fill="midnightblue" stroke="midnightblue" points="367.38,-201.08 377.9,-199.86 368.91,-194.25 367.38,-201.08"/>
</g>
<!-- Node10&#45;&gt;Node10 -->
<g id="edge13" class="edge">
<title>Node10&#45;&gt;Node10</title>
<path fill="none" stroke="midnightblue" d="M412.05,-154.86C409.76,-164.54 416.75,-173 433,-173 443.16,-173 449.7,-169.7 452.61,-164.86"/>
<polygon fill="midnightblue" stroke="midnightblue" points="456.09,-165.24 453.95,-154.86 449.15,-164.31 456.09,-165.24"/>
</g>
<!-- Node11 -->
<g id="node11" class="node">
<title>Node11</title>
<g id="a_node11"><a xlink:href="../../d4/d18/composite__simpson__rule_8cpp.html#a6d50f1b8eb533b54721812d16a3699cc" target="_top" xlink:title="Another test function.">
<polygon fill="white" stroke="black" points="534,-75.5 534,-94.5 563,-94.5 563,-75.5 534,-75.5"/>
<text text-anchor="middle" x="548.5" y="-82.5" font-family="Helvetica,sans-Serif" font-size="10.00">k</text>
</a>
</g>
</g>
<!-- Node10&#45;&gt;Node11 -->
<g id="edge14" class="edge">
<title>Node10&#45;&gt;Node11</title>
<path fill="none" stroke="midnightblue" d="M481.81,-113.36C496.57,-106.99 512.17,-100.25 524.46,-94.95"/>
<polygon fill="midnightblue" stroke="midnightblue" points="526.12,-98.04 533.91,-90.87 523.34,-91.62 526.12,-98.04"/>
</g>
<!-- Node12 -->
<g id="node12" class="node">
<title>Node12</title>
<g id="a_node12"><a target="_blank" xlink:href="http://en.cppreference.com/w/cpp/numeric/math/pow.html#" xlink:title=" ">
<polygon fill="white" stroke="black" points="609,-94.5 609,-113.5 663,-113.5 663,-94.5 609,-94.5"/>
<text text-anchor="middle" x="636" y="-101.5" font-family="Helvetica,sans-Serif" font-size="10.00">std::pow</text>
</a>
</g>
</g>
<!-- Node11&#45;&gt;Node12 -->
<g id="edge15" class="edge">
<title>Node11&#45;&gt;Node12</title>
<path fill="none" stroke="midnightblue" d="M563.24,-88.05C572.92,-90.2 586.37,-93.19 599,-96"/>
<polygon fill="midnightblue" stroke="midnightblue" points="598.36,-99.44 608.88,-98.2 599.88,-92.61 598.36,-99.44"/>
</g>
<!-- Node13 -->
<g id="node13" class="node">
<title>Node13</title>
<g id="a_node13"><a target="_blank" xlink:href="http://en.cppreference.com/w/cpp/numeric/math/sqrt.html#" xlink:title=" ">
<polygon fill="white" stroke="black" points="609.5,-56.5 609.5,-75.5 662.5,-75.5 662.5,-56.5 609.5,-56.5"/>
<text text-anchor="middle" x="636" y="-63.5" font-family="Helvetica,sans-Serif" font-size="10.00">std::sqrt</text>
</a>
</g>
</g>
<!-- Node11&#45;&gt;Node13 -->
<g id="edge16" class="edge">
<title>Node11&#45;&gt;Node13</title>
<path fill="none" stroke="midnightblue" d="M563.24,-81.95C573,-79.78 586.57,-76.76 599.3,-73.93"/>
<polygon fill="midnightblue" stroke="midnightblue" points="600.22,-77.31 609.23,-71.73 598.7,-70.48 600.22,-77.31"/>
</g>
<!-- Node14&#45;&gt;Node14 -->
<g id="edge18" class="edge">
<title>Node14&#45;&gt;Node14</title>
<path fill="none" stroke="midnightblue" d="M412.05,-232.86C409.76,-242.54 416.75,-251 433,-251 443.16,-251 449.7,-247.7 452.61,-242.86"/>
<polygon fill="midnightblue" stroke="midnightblue" points="456.09,-243.24 453.95,-232.86 449.15,-242.31 456.09,-243.24"/>
</g>
<!-- Node16 -->
<g id="node16" class="node">
<title>Node16</title>
<g id="a_node16"><a xlink:href="../../d2/d8a/classrange__queries_1_1heavy__light__decomposition_1_1_h_l_d.html#a7d5b40c076347a6aabfb37a0590f2f24" target="_top" xlink:title="Utility function to break down a path query into two chain queries.">
<polygon fill="white" stroke="black" points="229,-218.5 229,-259.5 339,-259.5 339,-218.5 229,-218.5"/>
<text text-anchor="start" x="237" y="-247.5" font-family="Helvetica,sans-Serif" font-size="10.00">range_queries::heavy</text>
<text text-anchor="start" x="237" y="-236.5" font-family="Helvetica,sans-Serif" font-size="10.00">_light_decomposition</text>
<text text-anchor="middle" x="284" y="-225.5" font-family="Helvetica,sans-Serif" font-size="10.00">::HLD::chain_query</text>
</a>
</g>
</g>
<!-- Node15&#45;&gt;Node16 -->
<g id="edge21" class="edge">
<title>Node15&#45;&gt;Node16</title>
<path fill="none" stroke="midnightblue" d="M190.32,-237.74C199.57,-237.86 209.25,-238 218.73,-238.13"/>
<polygon fill="midnightblue" stroke="midnightblue" points="218.86,-241.63 228.9,-238.26 218.95,-234.63 218.86,-241.63"/>
</g>
<!-- Node20 -->
<g id="node20" class="node">
<title>Node20</title>
<g id="a_node20"><a xlink:href="../../d1/d51/classrange__queries_1_1heavy__light__decomposition_1_1_tree.html#ae2b407e64aaf9878fbee7ee6efe9c7d4" target="_top" xlink:title="The function returns the least common ancestor of two nodes.">
<polygon fill="white" stroke="black" points="229,-98.5 229,-139.5 339,-139.5 339,-98.5 229,-98.5"/>
<text text-anchor="start" x="237" y="-127.5" font-family="Helvetica,sans-Serif" font-size="10.00">range_queries::heavy</text>
<text text-anchor="start" x="237" y="-116.5" font-family="Helvetica,sans-Serif" font-size="10.00">_light_decomposition</text>
<text text-anchor="middle" x="284" y="-105.5" font-family="Helvetica,sans-Serif" font-size="10.00">::Tree::lca</text>
</a>
</g>
</g>
<!-- Node15&#45;&gt;Node20 -->
<g id="edge26" class="edge">
<title>Node15&#45;&gt;Node20</title>
<path fill="none" stroke="midnightblue" d="M165.12,-216.44C173.51,-209.98 182.43,-202.55 190,-195 208.38,-176.67 206.07,-165.64 226,-149 227.51,-147.74 229.09,-146.51 230.71,-145.31"/>
<polygon fill="midnightblue" stroke="midnightblue" points="232.81,-148.11 239.13,-139.6 228.88,-142.32 232.81,-148.11"/>
</g>
<!-- Node16&#45;&gt;Node5 -->
<g id="edge22" class="edge">
<title>Node16&#45;&gt;Node5</title>
<path fill="none" stroke="midnightblue" d="M330.81,-259.53C334.86,-262.37 338.68,-265.53 342,-269 353.94,-281.48 397.07,-379.07 419,-429.72"/>
<polygon fill="midnightblue" stroke="midnightblue" points="415.91,-431.39 423.09,-439.18 422.33,-428.61 415.91,-431.39"/>
</g>
<!-- Node17 -->
<g id="node17" class="node">
<title>Node17</title>
<g id="a_node17"><a xlink:href="../../d4/d18/composite__simpson__rule_8cpp.html#a995716bc040dc6cf32b5cb3df51c4529" target="_top" xlink:title="Another test function.">
<polygon fill="white" stroke="black" points="418.5,-307.5 418.5,-326.5 447.5,-326.5 447.5,-307.5 418.5,-307.5"/>
<text text-anchor="middle" x="433" y="-314.5" font-family="Helvetica,sans-Serif" font-size="10.00">l</text>
</a>
</g>
</g>
<!-- Node16&#45;&gt;Node17 -->
<g id="edge23" class="edge">
<title>Node16&#45;&gt;Node17</title>
<path fill="none" stroke="midnightblue" d="M326.34,-259.54C331.7,-262.55 337.05,-265.75 342,-269 359.17,-280.28 360.05,-288 378,-298 387.44,-303.26 398.59,-307.47 408.31,-310.59"/>
<polygon fill="midnightblue" stroke="midnightblue" points="407.55,-314.02 418.14,-313.53 409.56,-307.31 407.55,-314.02"/>
</g>
<!-- Node19 -->
<g id="node19" class="node">
<title>Node19</title>
<g id="a_node19"><a target="_blank" xlink:href="http://en.cppreference.com/w/cpp/algorithm/swap.html#" xlink:title=" ">
<polygon fill="white" stroke="black" points="403.5,-269.5 403.5,-288.5 462.5,-288.5 462.5,-269.5 403.5,-269.5"/>
<text text-anchor="middle" x="433" y="-276.5" font-family="Helvetica,sans-Serif" font-size="10.00">std::swap</text>
</a>
</g>
</g>
<!-- Node16&#45;&gt;Node19 -->
<g id="edge25" class="edge">
<title>Node16&#45;&gt;Node19</title>
<path fill="none" stroke="midnightblue" d="M339.32,-253.78C357.34,-258.68 377,-264.04 393.57,-268.54"/>
<polygon fill="midnightblue" stroke="midnightblue" points="392.87,-271.98 403.44,-271.23 394.71,-265.23 392.87,-271.98"/>
</g>
<!-- Node18 -->
<g id="node18" class="node">
<title>Node18</title>
<g id="a_node18"><a target="_blank" xlink:href="http://en.cppreference.com/w/cpp/numeric/math/log.html#" xlink:title=" ">
<polygon fill="white" stroke="black" points="524,-307.5 524,-326.5 573,-326.5 573,-307.5 524,-307.5"/>
<text text-anchor="middle" x="548.5" y="-314.5" font-family="Helvetica,sans-Serif" font-size="10.00">std::log</text>
</a>
</g>
</g>
<!-- Node17&#45;&gt;Node18 -->
<g id="edge24" class="edge">
<title>Node17&#45;&gt;Node18</title>
<path fill="none" stroke="midnightblue" d="M447.92,-317C464.2,-317 491.72,-317 513.71,-317"/>
<polygon fill="midnightblue" stroke="midnightblue" points="513.98,-320.5 523.98,-317 513.98,-313.5 513.98,-320.5"/>
</g>
<!-- Node20&#45;&gt;Node11 -->
<g id="edge27" class="edge">
<title>Node20&#45;&gt;Node11</title>
<path fill="none" stroke="midnightblue" d="M339.03,-109.83C351.79,-107.79 365.36,-105.73 378,-104 429.93,-96.91 491.07,-90.54 523.87,-87.29"/>
<polygon fill="midnightblue" stroke="midnightblue" points="524.24,-90.77 533.85,-86.3 523.56,-83.8 524.24,-90.77"/>
</g>
<!-- Node21 -->
<g id="node21" class="node">
<title>Node21</title>
<g id="a_node21"><a xlink:href="../../d1/d51/classrange__queries_1_1heavy__light__decomposition_1_1_tree.html#ac7761255f2ba06b398b9aae5e4dce5f3" target="_top" xlink:title="The function lifts a node, k units up the tree. The lifting is done in place, and the result is store...">
<polygon fill="white" stroke="black" points="378,-15.5 378,-56.5 488,-56.5 488,-15.5 378,-15.5"/>
<text text-anchor="start" x="386" y="-44.5" font-family="Helvetica,sans-Serif" font-size="10.00">range_queries::heavy</text>
<text text-anchor="start" x="386" y="-33.5" font-family="Helvetica,sans-Serif" font-size="10.00">_light_decomposition</text>
<text text-anchor="middle" x="433" y="-22.5" font-family="Helvetica,sans-Serif" font-size="10.00">::Tree::lift</text>
</a>
</g>
</g>
<!-- Node20&#45;&gt;Node21 -->
<g id="edge28" class="edge">
<title>Node20&#45;&gt;Node21</title>
<path fill="none" stroke="midnightblue" d="M324.69,-98.42C330.52,-95.31 336.43,-92.1 342,-89 357.48,-80.38 374.25,-70.61 389.08,-61.84"/>
<polygon fill="midnightblue" stroke="midnightblue" points="391.22,-64.64 398.03,-56.52 387.65,-58.62 391.22,-64.64"/>
</g>
<!-- Node21&#45;&gt;Node11 -->
<g id="edge29" class="edge">
<title>Node21&#45;&gt;Node11</title>
<path fill="none" stroke="midnightblue" d="M481.81,-56.64C496.57,-63.01 512.17,-69.75 524.46,-75.05"/>
<polygon fill="midnightblue" stroke="midnightblue" points="523.34,-78.38 533.91,-79.13 526.12,-71.96 523.34,-78.38"/>
</g>
<!-- Node22&#45;&gt;Node23 -->
<g id="edge31" class="edge">
<title>Node22&#45;&gt;Node23</title>
<path fill="none" stroke="midnightblue" d="M190.32,-99.63C207.93,-94 227.12,-87.87 243.44,-82.65"/>
<polygon fill="midnightblue" stroke="midnightblue" points="244.74,-85.91 253.2,-79.53 242.61,-79.24 244.74,-85.91"/>
</g>
<!-- Node25 -->
<g id="node25" class="node">
<title>Node25</title>
<g id="a_node25"><a xlink:href="../../d9/d35/classrange__queries_1_1heavy__light__decomposition_1_1_s_g.html#a3c75bf5770790f8eba8cc92227b5400c" target="_top" xlink:title="Update the value at a node.">
<polygon fill="white" stroke="black" points="229,-0.5 229,-41.5 339,-41.5 339,-0.5 229,-0.5"/>
<text text-anchor="start" x="237" y="-29.5" font-family="Helvetica,sans-Serif" font-size="10.00">range_queries::heavy</text>
<text text-anchor="start" x="237" y="-18.5" font-family="Helvetica,sans-Serif" font-size="10.00">_light_decomposition</text>
<text text-anchor="middle" x="284" y="-7.5" font-family="Helvetica,sans-Serif" font-size="10.00">::SG::update</text>
</a>
</g>
</g>
<!-- Node24&#45;&gt;Node25 -->
<g id="edge34" class="edge">
<title>Node24&#45;&gt;Node25</title>
<path fill="none" stroke="midnightblue" d="M190.32,-24.78C199.57,-24.41 209.25,-24.01 218.73,-23.62"/>
<polygon fill="midnightblue" stroke="midnightblue" points="219.05,-27.11 228.9,-23.21 218.77,-20.12 219.05,-27.11"/>
</g>
</g>
</svg>
