<?xml version="1.0" encoding="UTF-8" standalone="no"?>
<!DOCTYPE svg PUBLIC "-//W3C//DTD SVG 1.1//EN"
 "http://www.w3.org/Graphics/SVG/1.1/DTD/svg11.dtd">
<!-- Generated by graphviz version 5.0.0 (20220707.1540)
 -->
<!-- Title: test Pages: 1 -->
<!--zoomable 318 -->
<svg id="main" version="1.1" xmlns="http://www.w3.org/2000/svg" xmlns:xlink="http://www.w3.org/1999/xlink" xml:space="preserve" onload="init(evt)">
<style type="text/css"><![CDATA[
.edge:hover path { stroke: red; }
.edge:hover polygon { stroke: red; fill: red; }
]]></style>
<script type="text/javascript"><![CDATA[
var edges = document.getElementsByTagName('g');
if (edges && edges.length) {
  for (var i=0;i<edges.length;i++) {
    if (edges[i].id.substr(0,4)=='edge') {
      edges[i].setAttribute('class','edge');
    }
  }
}
]]></script>
        <defs>
                <circle id="rim" cx="0" cy="0" r="7"/>
                <circle id="rim2" cx="0" cy="0" r="3.5"/>
                <g id="zoomPlus">
                        <use xlink:href="#rim" fill="#404040">
                                <set attributeName="fill" to="#808080" begin="zoomplus.mouseover" end="zoomplus.mouseout"/>
                        </use>
                        <path d="M-4,0h8M0,-4v8" fill="none" stroke="white" stroke-width="1.5" pointer-events="none"/>
                </g>
                <g id="zoomMin">
                        <use xlink:href="#rim" fill="#404040">
                                <set attributeName="fill" to="#808080" begin="zoomminus.mouseover" end="zoomminus.mouseout"/>
                        </use>
                        <path d="M-4,0h8" fill="none" stroke="white" stroke-width="1.5" pointer-events="none"/>
                </g>
                <g id="dirArrow">
                        <path fill="none" stroke="white" stroke-width="1.5" d="M0,-3.0v7 M-2.5,-0.5L0,-3.0L2.5,-0.5"/>
                </g>
               <g id="resetDef">
                       <use xlink:href="#rim2" fill="#404040">
                               <set attributeName="fill" to="#808080" begin="reset.mouseover" end="reset.mouseout"/>
                       </use>
               </g>
        </defs>

<script type="text/javascript">
var viewWidth = 693;
var viewHeight = 318;
var sectionId = 'dynsection-2';
</script>
<script xlink:href="../../svgpan.js"/>
<svg id="graph" class="graph">
<g id="viewport">
<title>test</title>
<polygon fill="white" stroke="transparent" points="-4,4 -4,-313.69 689,-313.69 689,4 -4,4"/>
<!-- Node1 -->
<g id="node1" class="node">
<title>Node1</title>
<g id="a_node1"><a xlink:title="Function to test the correctness of the Tree Reversal.">
<polygon fill="#bfbfbf" stroke="black" points="0,-121.19 0,-140.19 33,-140.19 33,-121.19 0,-121.19"/>
<text text-anchor="middle" x="16.5" y="-128.19" font-family="Helvetica,sans-Serif" font-size="10.00">test</text>
</a>
</g>
</g>
<!-- Node2 -->
<g id="node2" class="node">
<title>Node2</title>
<g id="a_node2"><a xlink:href="../../d9/df4/namespacetests.html#a167c24bd817469ae47358d12e034f2d5" target="_top" xlink:title="&lt; Use the BinaryTree">
<polygon fill="white" stroke="black" points="69,-121.19 69,-140.19 135,-140.19 135,-121.19 69,-121.19"/>
<text text-anchor="middle" x="102" y="-128.19" font-family="Helvetica,sans-Serif" font-size="10.00">tests::test1</text>
</a>
</g>
</g>
<!-- Node1&#45;&gt;Node2 -->
<g id="edge1" class="edge">
<title>Node1&#45;&gt;Node2</title>
<path fill="none" stroke="midnightblue" d="M33.21,-130.69C40.48,-130.69 49.52,-130.69 58.59,-130.69"/>
<polygon fill="midnightblue" stroke="midnightblue" points="58.77,-134.19 68.77,-130.69 58.77,-127.19 58.77,-134.19"/>
</g>
<!-- Node14 -->
<g id="node14" class="node">
<title>Node14</title>
<g id="a_node14"><a xlink:href="../../d9/df4/namespacetests.html#abdd77344d4af8fd56d14a5cabbf2f669" target="_top" xlink:title="A Test to check an edge case (NULL root element)">
<polygon fill="white" stroke="black" points="69,-83.19 69,-102.19 135,-102.19 135,-83.19 69,-83.19"/>
<text text-anchor="middle" x="102" y="-90.19" font-family="Helvetica,sans-Serif" font-size="10.00">tests::test2</text>
</a>
</g>
</g>
<!-- Node1&#45;&gt;Node14 -->
<g id="edge16" class="edge">
<title>Node1&#45;&gt;Node14</title>
<path fill="none" stroke="midnightblue" d="M33.21,-123.54C43.75,-118.74 57.98,-112.27 70.68,-106.49"/>
<polygon fill="midnightblue" stroke="midnightblue" points="72.35,-109.57 80,-102.24 69.45,-103.2 72.35,-109.57"/>
</g>
<!-- Node15 -->
<g id="node15" class="node">
<title>Node15</title>
<g id="a_node15"><a xlink:href="../../d9/df4/namespacetests.html#aa515639572647508b94986489aab6d76" target="_top" xlink:title="A Test to check correct reversal of a Binary Tree.">
<polygon fill="white" stroke="black" points="69,-168.19 69,-187.19 135,-187.19 135,-168.19 69,-168.19"/>
<text text-anchor="middle" x="102" y="-175.19" font-family="Helvetica,sans-Serif" font-size="10.00">tests::test3</text>
</a>
</g>
</g>
<!-- Node1&#45;&gt;Node15 -->
<g id="edge21" class="edge">
<title>Node1&#45;&gt;Node15</title>
<path fill="none" stroke="midnightblue" d="M33.21,-139.53C44.95,-146.14 61.28,-155.33 74.96,-163.03"/>
<polygon fill="midnightblue" stroke="midnightblue" points="73.5,-166.22 83.93,-168.08 76.93,-160.12 73.5,-166.22"/>
</g>
<!-- Node3 -->
<g id="node3" class="node">
<title>Node3</title>
<g id="a_node3"><a xlink:href="../../de/dcf/classoperations__on__datastructures_1_1reverse__binary__tree_1_1_binary_tree.html#a534645d1aabdf1a7e5897c85376f173d" target="_top" xlink:title="Adds a new Node to the Binary Tree.">
<polygon fill="white" stroke="black" points="172.5,-255.69 172.5,-285.69 355.5,-285.69 355.5,-255.69 172.5,-255.69"/>
<text text-anchor="start" x="180.5" y="-273.69" font-family="Helvetica,sans-Serif" font-size="10.00">operations_on_datastructures</text>
<text text-anchor="middle" x="264" y="-262.69" font-family="Helvetica,sans-Serif" font-size="10.00">::reverse_binary_tree::BinaryTree::add</text>
</a>
</g>
</g>
<!-- Node2&#45;&gt;Node3 -->
<g id="edge2" class="edge">
<title>Node2&#45;&gt;Node3</title>
<path fill="none" stroke="midnightblue" d="M115.12,-140.22C121.36,-145.38 128.91,-152.05 135,-158.69 153.28,-178.59 151.58,-188.9 171,-207.69 187.71,-223.85 208.98,-238.71 226.86,-249.93"/>
<polygon fill="midnightblue" stroke="midnightblue" points="225.51,-253.21 235.86,-255.46 229.17,-247.24 225.51,-253.21"/>
</g>
<!-- Node5 -->
<g id="node5" class="node">
<title>Node5</title>
<g id="a_node5"><a xlink:href="../../de/dcf/classoperations__on__datastructures_1_1reverse__binary__tree_1_1_binary_tree.html#a2e683b271d8d5cd63e0d09cf8aaa325c" target="_top" xlink:title="Level order traversal of a tree consists of visiting its elements, top to bottom, left to right....">
<polygon fill="white" stroke="black" points="393,-78.19 393,-119.19 554,-119.19 554,-78.19 393,-78.19"/>
<text text-anchor="start" x="401" y="-107.19" font-family="Helvetica,sans-Serif" font-size="10.00">operations_on_datastructures</text>
<text text-anchor="start" x="401" y="-96.19" font-family="Helvetica,sans-Serif" font-size="10.00">::reverse_binary_tree::BinaryTree</text>
<text text-anchor="middle" x="473.5" y="-85.19" font-family="Helvetica,sans-Serif" font-size="10.00">::get_level_order</text>
</a>
</g>
</g>
<!-- Node2&#45;&gt;Node5 -->
<g id="edge5" class="edge">
<title>Node2&#45;&gt;Node5</title>
<path fill="none" stroke="midnightblue" d="M120.51,-121.07C137.06,-112.19 160.83,-100.02 171,-97.69 240.68,-81.67 321.84,-83.03 382.39,-87.78"/>
<polygon fill="midnightblue" stroke="midnightblue" points="382.43,-91.3 392.69,-88.64 383.01,-84.32 382.43,-91.3"/>
</g>
<!-- Node10 -->
<g id="node10" class="node">
<title>Node10</title>
<g id="a_node10"><a xlink:href="../../de/dcf/classoperations__on__datastructures_1_1reverse__binary__tree_1_1_binary_tree.html#a5cf972a2c994a4fa1a89fc77bd5ad503" target="_top" xlink:title="Prints all of the elements in the tree to stdout level&#45;by&#45;level, using the get_level_order() function...">
<polygon fill="white" stroke="black" points="171,-107.69 171,-137.69 357,-137.69 357,-107.69 171,-107.69"/>
<text text-anchor="start" x="179" y="-125.69" font-family="Helvetica,sans-Serif" font-size="10.00">operations_on_datastructures</text>
<text text-anchor="middle" x="264" y="-114.69" font-family="Helvetica,sans-Serif" font-size="10.00">::reverse_binary_tree::BinaryTree::print</text>
</a>
</g>
</g>
<!-- Node2&#45;&gt;Node10 -->
<g id="edge10" class="edge">
<title>Node2&#45;&gt;Node10</title>
<path fill="none" stroke="midnightblue" d="M135.38,-129.07C143.01,-128.69 151.55,-128.26 160.49,-127.81"/>
<polygon fill="midnightblue" stroke="midnightblue" points="160.93,-131.29 170.74,-127.3 160.58,-124.3 160.93,-131.29"/>
</g>
<!-- Node11 -->
<g id="node11" class="node">
<title>Node11</title>
<g id="a_node11"><a xlink:href="../../de/dcf/classoperations__on__datastructures_1_1reverse__binary__tree_1_1_binary_tree.html#a1c0d27198372b36ef71bc58af8336b9c" target="_top" xlink:title=" ">
<polygon fill="white" stroke="black" points="183.5,-157.19 183.5,-198.19 344.5,-198.19 344.5,-157.19 183.5,-157.19"/>
<text text-anchor="start" x="191.5" y="-186.19" font-family="Helvetica,sans-Serif" font-size="10.00">operations_on_datastructures</text>
<text text-anchor="start" x="191.5" y="-175.19" font-family="Helvetica,sans-Serif" font-size="10.00">::reverse_binary_tree::BinaryTree</text>
<text text-anchor="middle" x="264" y="-164.19" font-family="Helvetica,sans-Serif" font-size="10.00">::reverse</text>
</a>
</g>
</g>
<!-- Node2&#45;&gt;Node11 -->
<g id="edge12" class="edge">
<title>Node2&#45;&gt;Node11</title>
<path fill="none" stroke="midnightblue" d="M135.38,-140.2C149.27,-144.28 166.18,-149.24 183.08,-154.21"/>
<polygon fill="midnightblue" stroke="midnightblue" points="182.42,-157.66 193,-157.12 184.4,-150.95 182.42,-157.66"/>
</g>
<!-- Node13 -->
<g id="node13" class="node">
<title>Node13</title>
<g id="a_node13"><a target="_blank" xlink:href="http://en.cppreference.com/w/cpp/container/vector/size.html#" xlink:title=" ">
<polygon fill="white" stroke="black" points="220.5,-31.19 220.5,-50.19 307.5,-50.19 307.5,-31.19 220.5,-31.19"/>
<text text-anchor="middle" x="264" y="-38.19" font-family="Helvetica,sans-Serif" font-size="10.00">std::vector::size</text>
</a>
</g>
</g>
<!-- Node2&#45;&gt;Node13 -->
<g id="edge15" class="edge">
<title>Node2&#45;&gt;Node13</title>
<path fill="none" stroke="midnightblue" d="M121.76,-121.16C126.33,-118.42 131.04,-115.21 135,-111.69 154.67,-94.21 149.08,-79.24 171,-64.69 182.73,-56.9 196.86,-51.63 210.48,-48.08"/>
<polygon fill="midnightblue" stroke="midnightblue" points="211.34,-51.47 220.27,-45.78 209.74,-44.66 211.34,-51.47"/>
</g>
<!-- Node4 -->
<g id="node4" class="node">
<title>Node4</title>
<g id="a_node4"><a xlink:href="../../de/dcf/classoperations__on__datastructures_1_1reverse__binary__tree_1_1_binary_tree.html#adb2b6be741b0500ee75d89b6d06b5d50" target="_top" xlink:title="inserts a node in the Binary Tree, with the behaviouur of a Binary Search Tree.">
<polygon fill="white" stroke="black" points="393,-250.19 393,-291.19 554,-291.19 554,-250.19 393,-250.19"/>
<text text-anchor="start" x="401" y="-279.19" font-family="Helvetica,sans-Serif" font-size="10.00">operations_on_datastructures</text>
<text text-anchor="start" x="401" y="-268.19" font-family="Helvetica,sans-Serif" font-size="10.00">::reverse_binary_tree::BinaryTree</text>
<text text-anchor="middle" x="473.5" y="-257.19" font-family="Helvetica,sans-Serif" font-size="10.00">::insert</text>
</a>
</g>
</g>
<!-- Node3&#45;&gt;Node4 -->
<g id="edge3" class="edge">
<title>Node3&#45;&gt;Node4</title>
<path fill="none" stroke="midnightblue" d="M355.71,-270.69C364.66,-270.69 373.75,-270.69 382.69,-270.69"/>
<polygon fill="midnightblue" stroke="midnightblue" points="382.72,-274.19 392.72,-270.69 382.72,-267.19 382.72,-274.19"/>
</g>
<!-- Node4&#45;&gt;Node4 -->
<g id="edge4" class="edge">
<title>Node4&#45;&gt;Node4</title>
<path fill="none" stroke="midnightblue" d="M443.36,-291.55C440.07,-301.23 450.12,-309.69 473.5,-309.69 488.11,-309.69 497.52,-306.38 501.72,-301.54"/>
<polygon fill="midnightblue" stroke="midnightblue" points="505.19,-302.03 503.64,-291.55 498.31,-300.71 505.19,-302.03"/>
</g>
<!-- Node6 -->
<g id="node6" class="node">
<title>Node6</title>
<g id="a_node6"><a target="_blank" xlink:href="http://en.cppreference.com/w/cpp/container/queue/empty.html#" xlink:title=" ">
<polygon fill="white" stroke="black" points="590,-146.19 590,-165.19 685,-165.19 685,-146.19 590,-146.19"/>
<text text-anchor="middle" x="637.5" y="-153.19" font-family="Helvetica,sans-Serif" font-size="10.00">std::queue::empty</text>
</a>
</g>
</g>
<!-- Node5&#45;&gt;Node6 -->
<g id="edge6" class="edge">
<title>Node5&#45;&gt;Node6</title>
<path fill="none" stroke="midnightblue" d="M532.99,-119.26C555.31,-127.12 580.12,-135.85 599.86,-142.79"/>
<polygon fill="midnightblue" stroke="midnightblue" points="598.79,-146.13 609.38,-146.15 601.11,-139.52 598.79,-146.13"/>
</g>
<!-- Node7 -->
<g id="node7" class="node">
<title>Node7</title>
<g id="a_node7"><a target="_blank" xlink:href="http://en.cppreference.com/w/cpp/container/queue/front.html#" xlink:title=" ">
<polygon fill="white" stroke="black" points="593.5,-108.19 593.5,-127.19 681.5,-127.19 681.5,-108.19 593.5,-108.19"/>
<text text-anchor="middle" x="637.5" y="-115.19" font-family="Helvetica,sans-Serif" font-size="10.00">std::queue::front</text>
</a>
</g>
</g>
<!-- Node5&#45;&gt;Node7 -->
<g id="edge7" class="edge">
<title>Node5&#45;&gt;Node7</title>
<path fill="none" stroke="midnightblue" d="M554.08,-108.02C563.84,-109.16 573.64,-110.31 582.89,-111.4"/>
<polygon fill="midnightblue" stroke="midnightblue" points="582.74,-114.9 593.08,-112.59 583.56,-107.95 582.74,-114.9"/>
</g>
<!-- Node8 -->
<g id="node8" class="node">
<title>Node8</title>
<g id="a_node8"><a target="_blank" xlink:href="http://en.cppreference.com/w/cpp/container/queue/pop.html#" xlink:title=" ">
<polygon fill="white" stroke="black" points="595.5,-70.19 595.5,-89.19 679.5,-89.19 679.5,-70.19 595.5,-70.19"/>
<text text-anchor="middle" x="637.5" y="-77.19" font-family="Helvetica,sans-Serif" font-size="10.00">std::queue::pop</text>
</a>
</g>
</g>
<!-- Node5&#45;&gt;Node8 -->
<g id="edge8" class="edge">
<title>Node5&#45;&gt;Node8</title>
<path fill="none" stroke="midnightblue" d="M554.08,-89.35C564.65,-88.11 575.25,-86.87 585.17,-85.71"/>
<polygon fill="midnightblue" stroke="midnightblue" points="585.7,-89.17 595.22,-84.53 584.88,-82.22 585.7,-89.17"/>
</g>
<!-- Node9 -->
<g id="node9" class="node">
<title>Node9</title>
<g id="a_node9"><a target="_blank" xlink:href="http://en.cppreference.com/w/cpp/container/queue/push.html#" xlink:title=" ">
<polygon fill="white" stroke="black" points="593,-32.19 593,-51.19 682,-51.19 682,-32.19 593,-32.19"/>
<text text-anchor="middle" x="637.5" y="-39.19" font-family="Helvetica,sans-Serif" font-size="10.00">std::queue::push</text>
</a>
</g>
</g>
<!-- Node5&#45;&gt;Node9 -->
<g id="edge9" class="edge">
<title>Node5&#45;&gt;Node9</title>
<path fill="none" stroke="midnightblue" d="M532.99,-78.11C555.31,-70.25 580.12,-61.52 599.86,-54.58"/>
<polygon fill="midnightblue" stroke="midnightblue" points="601.11,-57.85 609.38,-51.23 598.79,-51.24 601.11,-57.85"/>
</g>
<!-- Node10&#45;&gt;Node5 -->
<g id="edge11" class="edge">
<title>Node10&#45;&gt;Node5</title>
<path fill="none" stroke="midnightblue" d="M357.22,-112.02C365.78,-111.03 374.44,-110.03 382.97,-109.04"/>
<polygon fill="midnightblue" stroke="midnightblue" points="383.39,-112.52 392.92,-107.89 382.58,-105.56 383.39,-112.52"/>
</g>
<!-- Node12 -->
<g id="node12" class="node">
<title>Node12</title>
<g id="a_node12"><a xlink:href="../../de/dcf/classoperations__on__datastructures_1_1reverse__binary__tree_1_1_binary_tree.html#af6f974381f523fdb981fc2d843bbf4a1" target="_top" xlink:title="Reverses a Binary Tree recursively by swapping the left and right subtrees and their children.">
<polygon fill="white" stroke="black" points="393,-157.19 393,-198.19 554,-198.19 554,-157.19 393,-157.19"/>
<text text-anchor="start" x="401" y="-186.19" font-family="Helvetica,sans-Serif" font-size="10.00">operations_on_datastructures</text>
<text text-anchor="start" x="401" y="-175.19" font-family="Helvetica,sans-Serif" font-size="10.00">::reverse_binary_tree::BinaryTree</text>
<text text-anchor="middle" x="473.5" y="-164.19" font-family="Helvetica,sans-Serif" font-size="10.00">::reverseBinaryTree</text>
</a>
</g>
</g>
<!-- Node11&#45;&gt;Node12 -->
<g id="edge13" class="edge">
<title>Node11&#45;&gt;Node12</title>
<path fill="none" stroke="midnightblue" d="M344.63,-177.69C357.08,-177.69 370.01,-177.69 382.67,-177.69"/>
<polygon fill="midnightblue" stroke="midnightblue" points="382.74,-181.19 392.74,-177.69 382.74,-174.19 382.74,-181.19"/>
</g>
<!-- Node12&#45;&gt;Node12 -->
<g id="edge14" class="edge">
<title>Node12&#45;&gt;Node12</title>
<path fill="none" stroke="midnightblue" d="M443.36,-198.55C440.07,-208.23 450.12,-216.69 473.5,-216.69 488.11,-216.69 497.52,-213.38 501.72,-208.54"/>
<polygon fill="midnightblue" stroke="midnightblue" points="505.19,-209.03 503.64,-198.55 498.31,-207.71 505.19,-209.03"/>
</g>
<!-- Node14&#45;&gt;Node5 -->
<g id="edge17" class="edge">
<title>Node14&#45;&gt;Node5</title>
<path fill="none" stroke="midnightblue" d="M108.6,-82.99C118.65,-66.67 141.49,-34.28 171,-21.69 247.03,10.77 277.88,2.27 357,-21.69 389.11,-31.41 420.45,-53.33 442.37,-71.3"/>
<polygon fill="midnightblue" stroke="midnightblue" points="440.38,-74.21 450.29,-77.97 444.89,-68.85 440.38,-74.21"/>
</g>
<!-- Node14&#45;&gt;Node10 -->
<g id="edge18" class="edge">
<title>Node14&#45;&gt;Node10</title>
<path fill="none" stroke="midnightblue" d="M135.38,-98.76C146.37,-100.82 159.24,-103.23 172.5,-105.72"/>
<polygon fill="midnightblue" stroke="midnightblue" points="172.22,-109.23 182.7,-107.63 173.51,-102.35 172.22,-109.23"/>
</g>
<!-- Node14&#45;&gt;Node11 -->
<g id="edge19" class="edge">
<title>Node14&#45;&gt;Node11</title>
<path fill="none" stroke="midnightblue" d="M121.12,-102.38C125.8,-105.17 130.71,-108.36 135,-111.69 152.87,-125.57 151.71,-135.85 171,-147.69 173.95,-149.5 177.03,-151.21 180.19,-152.83"/>
<polygon fill="midnightblue" stroke="midnightblue" points="178.74,-156.02 189.27,-157.16 181.75,-149.7 178.74,-156.02"/>
</g>
<!-- Node14&#45;&gt;Node13 -->
<g id="edge20" class="edge">
<title>Node14&#45;&gt;Node13</title>
<path fill="none" stroke="midnightblue" d="M124.16,-83.11C137.44,-77.31 155.02,-70.03 171,-64.69 183.97,-60.35 198.19,-56.3 211.48,-52.81"/>
<polygon fill="midnightblue" stroke="midnightblue" points="212.62,-56.14 221.43,-50.26 210.88,-49.36 212.62,-56.14"/>
</g>
<!-- Node15&#45;&gt;Node3 -->
<g id="edge22" class="edge">
<title>Node15&#45;&gt;Node3</title>
<path fill="none" stroke="midnightblue" d="M111.21,-187.63C123.07,-201.38 146.3,-226.17 171,-240.69 178.29,-244.97 186.26,-248.73 194.38,-252"/>
<polygon fill="midnightblue" stroke="midnightblue" points="193.34,-255.35 203.93,-255.62 195.82,-248.8 193.34,-255.35"/>
</g>
<!-- Node15&#45;&gt;Node5 -->
<g id="edge23" class="edge">
<title>Node15&#45;&gt;Node5</title>
<path fill="none" stroke="midnightblue" d="M119.39,-187.24C132.77,-194.46 152.44,-203.77 171,-207.69 251.89,-224.74 285.06,-248.42 357,-207.69 384.06,-192.36 371.14,-169.81 393,-147.69 401.55,-139.04 411.91,-131.25 422.29,-124.56"/>
<polygon fill="midnightblue" stroke="midnightblue" points="424.3,-127.44 430.97,-119.21 420.63,-121.48 424.3,-127.44"/>
</g>
<!-- Node15&#45;&gt;Node10 -->
<g id="edge24" class="edge">
<title>Node15&#45;&gt;Node10</title>
<path fill="none" stroke="midnightblue" d="M122.62,-168.09C136.03,-161.77 154.34,-153.59 171,-147.69 177.86,-145.25 185.09,-142.92 192.34,-140.72"/>
<polygon fill="midnightblue" stroke="midnightblue" points="193.62,-143.99 202.22,-137.81 191.64,-137.28 193.62,-143.99"/>
</g>
<!-- Node15&#45;&gt;Node11 -->
<g id="edge25" class="edge">
<title>Node15&#45;&gt;Node11</title>
<path fill="none" stroke="midnightblue" d="M135.38,-177.69C146.51,-177.69 159.58,-177.69 173.03,-177.69"/>
<polygon fill="midnightblue" stroke="midnightblue" points="173.36,-181.19 183.36,-177.69 173.36,-174.19 173.36,-181.19"/>
</g>
</g>
</svg>
        <g id="navigator" transform="translate(0 0)" fill="#404254">
                <rect fill="#f2f5e9" fill-opacity="0.5" stroke="#606060" stroke-width=".5" x="0" y="0" width="60" height="60"/>
                <use id="zoomplus" xlink:href="#zoomPlus" x="17" y="9" onmousedown="handleZoom(evt,'in')"/>
                <use id="zoomminus" xlink:href="#zoomMin" x="42" y="9" onmousedown="handleZoom(evt,'out')"/>
                <use id="reset" xlink:href="#resetDef" x="30" y="36" onmousedown="handleReset()"/>
                <g id="arrowUp" xlink:href="#dirArrow" transform="translate(30 24)" onmousedown="handlePan(0,-1)">
                  <use xlink:href="#rim" fill="#404040">
                        <set attributeName="fill" to="#808080" begin="arrowUp.mouseover" end="arrowUp.mouseout"/>
                  </use>
                  <path fill="none" stroke="white" stroke-width="1.5" d="M0,-3.0v7 M-2.5,-0.5L0,-3.0L2.5,-0.5"/>
                </g>
                <g id="arrowRight" xlink:href="#dirArrow" transform="rotate(90) translate(36 -43)" onmousedown="handlePan(1,0)">
                  <use xlink:href="#rim" fill="#404040">
                        <set attributeName="fill" to="#808080" begin="arrowRight.mouseover" end="arrowRight.mouseout"/>
                  </use>
                  <path fill="none" stroke="white" stroke-width="1.5" d="M0,-3.0v7 M-2.5,-0.5L0,-3.0L2.5,-0.5"/>
                </g>
                <g id="arrowDown" xlink:href="#dirArrow" transform="rotate(180) translate(-30 -48)" onmousedown="handlePan(0,1)">
                  <use xlink:href="#rim" fill="#404040">
                        <set attributeName="fill" to="#808080" begin="arrowDown.mouseover" end="arrowDown.mouseout"/>
                  </use>
                  <path fill="none" stroke="white" stroke-width="1.5" d="M0,-3.0v7 M-2.5,-0.5L0,-3.0L2.5,-0.5"/>
                </g>
                <g id="arrowLeft" xlink:href="#dirArrow" transform="rotate(270) translate(-36 17)" onmousedown="handlePan(-1,0)">
                  <use xlink:href="#rim" fill="#404040">
                        <set attributeName="fill" to="#808080" begin="arrowLeft.mouseover" end="arrowLeft.mouseout"/>
                  </use>
                  <path fill="none" stroke="white" stroke-width="1.5" d="M0,-3.0v7 M-2.5,-0.5L0,-3.0L2.5,-0.5"/>
                </g>
        </g>
        <svg viewBox="0 0 15 15" width="100%" height="30px" preserveAspectRatio="xMaxYMin meet">
         <g id="arrow_out" transform="scale(0.3 0.3)">
          <a xlink:href="reverse__binary__tree_8cpp_aa8dca7b867074164d5f45b0f3851269d_cgraph_org.svg" target="_base">
           <rect id="button" ry="5" rx="5" y="6" x="6" height="38" width="38"
                fill="#f2f5e9" fill-opacity="0.5" stroke="#606060" stroke-width="1.0"/>
           <path id="arrow"
             d="M 11.500037,31.436501 C 11.940474,20.09759 22.043105,11.32322 32.158766,21.979434 L 37.068811,17.246167 C 37.068811,17.246167 37.088388,32 37.088388,32 L 22.160133,31.978069 C 22.160133,31.978069 26.997745,27.140456 26.997745,27.140456 C 18.528582,18.264221 13.291696,25.230495 11.500037,31.436501 z"
             style="fill:#404040;"/>
          </a>
         </g>
        </svg>
</svg>
