<?xml version="1.0" encoding="UTF-8" standalone="no"?>
<!DOCTYPE svg PUBLIC "-//W3C//DTD SVG 1.1//EN"
 "http://www.w3.org/Graphics/SVG/1.1/DTD/svg11.dtd">
<!-- Generated by graphviz version 5.0.0 (20220707.1540)
 -->
<!-- Title: main Pages: 1 -->
<svg width="767pt" height="318pt"
 viewBox="0.00 0.00 767.00 317.69" xmlns="http://www.w3.org/2000/svg" xmlns:xlink="http://www.w3.org/1999/xlink">
<g id="graph0" class="graph" transform="scale(1 1) rotate(0) translate(4 313.69)">
<title>main</title>
<polygon fill="white" stroke="transparent" points="-4,4 -4,-313.69 763,-313.69 763,4 -4,4"/>
<!-- Node1 -->
<g id="node1" class="node">
<title>Node1</title>
<g id="a_node1"><a xlink:title="main function">
<polygon fill="#bfbfbf" stroke="black" points="0,-121.19 0,-140.19 38,-140.19 38,-121.19 0,-121.19"/>
<text text-anchor="middle" x="19" y="-128.19" font-family="Helvetica,sans-Serif" font-size="10.00">main</text>
</a>
</g>
</g>
<!-- Node2 -->
<g id="node2" class="node">
<title>Node2</title>
<g id="a_node2"><a xlink:href="../../d4/db6/reverse__binary__tree_8cpp.html#aa8dca7b867074164d5f45b0f3851269d" target="_top" xlink:title="Function to test the correctness of the Tree Reversal.">
<polygon fill="white" stroke="black" points="74,-121.19 74,-140.19 107,-140.19 107,-121.19 74,-121.19"/>
<text text-anchor="middle" x="90.5" y="-128.19" font-family="Helvetica,sans-Serif" font-size="10.00">test</text>
</a>
</g>
</g>
<!-- Node1&#45;&gt;Node2 -->
<g id="edge1" class="edge">
<title>Node1&#45;&gt;Node2</title>
<path fill="none" stroke="midnightblue" d="M38.26,-130.69C46.07,-130.69 55.31,-130.69 63.79,-130.69"/>
<polygon fill="midnightblue" stroke="midnightblue" points="63.95,-134.19 73.95,-130.69 63.95,-127.19 63.95,-134.19"/>
</g>
<!-- Node3 -->
<g id="node3" class="node">
<title>Node3</title>
<g id="a_node3"><a xlink:href="../../d9/df4/namespacetests.html#a167c24bd817469ae47358d12e034f2d5" target="_top" xlink:title="&lt; Use the BinaryTree">
<polygon fill="white" stroke="black" points="143,-121.19 143,-140.19 209,-140.19 209,-121.19 143,-121.19"/>
<text text-anchor="middle" x="176" y="-128.19" font-family="Helvetica,sans-Serif" font-size="10.00">tests::test1</text>
</a>
</g>
</g>
<!-- Node2&#45;&gt;Node3 -->
<g id="edge2" class="edge">
<title>Node2&#45;&gt;Node3</title>
<path fill="none" stroke="midnightblue" d="M107.21,-130.69C114.48,-130.69 123.52,-130.69 132.59,-130.69"/>
<polygon fill="midnightblue" stroke="midnightblue" points="132.77,-134.19 142.77,-130.69 132.77,-127.19 132.77,-134.19"/>
</g>
<!-- Node15 -->
<g id="node15" class="node">
<title>Node15</title>
<g id="a_node15"><a xlink:href="../../d9/df4/namespacetests.html#abdd77344d4af8fd56d14a5cabbf2f669" target="_top" xlink:title="A Test to check an edge case (NULL root element)">
<polygon fill="white" stroke="black" points="143,-83.19 143,-102.19 209,-102.19 209,-83.19 143,-83.19"/>
<text text-anchor="middle" x="176" y="-90.19" font-family="Helvetica,sans-Serif" font-size="10.00">tests::test2</text>
</a>
</g>
</g>
<!-- Node2&#45;&gt;Node15 -->
<g id="edge17" class="edge">
<title>Node2&#45;&gt;Node15</title>
<path fill="none" stroke="midnightblue" d="M107.21,-123.54C117.75,-118.74 131.98,-112.27 144.68,-106.49"/>
<polygon fill="midnightblue" stroke="midnightblue" points="146.35,-109.57 154,-102.24 143.45,-103.2 146.35,-109.57"/>
</g>
<!-- Node16 -->
<g id="node16" class="node">
<title>Node16</title>
<g id="a_node16"><a xlink:href="../../d9/df4/namespacetests.html#aa515639572647508b94986489aab6d76" target="_top" xlink:title="A Test to check correct reversal of a Binary Tree.">
<polygon fill="white" stroke="black" points="143,-168.19 143,-187.19 209,-187.19 209,-168.19 143,-168.19"/>
<text text-anchor="middle" x="176" y="-175.19" font-family="Helvetica,sans-Serif" font-size="10.00">tests::test3</text>
</a>
</g>
</g>
<!-- Node2&#45;&gt;Node16 -->
<g id="edge22" class="edge">
<title>Node2&#45;&gt;Node16</title>
<path fill="none" stroke="midnightblue" d="M107.21,-139.53C118.95,-146.14 135.28,-155.33 148.96,-163.03"/>
<polygon fill="midnightblue" stroke="midnightblue" points="147.5,-166.22 157.93,-168.08 150.93,-160.12 147.5,-166.22"/>
</g>
<!-- Node4 -->
<g id="node4" class="node">
<title>Node4</title>
<g id="a_node4"><a xlink:href="../../de/dcf/classoperations__on__datastructures_1_1reverse__binary__tree_1_1_binary_tree.html#a534645d1aabdf1a7e5897c85376f173d" target="_top" xlink:title="Adds a new Node to the Binary Tree.">
<polygon fill="white" stroke="black" points="246.5,-255.69 246.5,-285.69 429.5,-285.69 429.5,-255.69 246.5,-255.69"/>
<text text-anchor="start" x="254.5" y="-273.69" font-family="Helvetica,sans-Serif" font-size="10.00">operations_on_datastructures</text>
<text text-anchor="middle" x="338" y="-262.69" font-family="Helvetica,sans-Serif" font-size="10.00">::reverse_binary_tree::BinaryTree::add</text>
</a>
</g>
</g>
<!-- Node3&#45;&gt;Node4 -->
<g id="edge3" class="edge">
<title>Node3&#45;&gt;Node4</title>
<path fill="none" stroke="midnightblue" d="M189.12,-140.22C195.36,-145.38 202.91,-152.05 209,-158.69 227.28,-178.59 225.58,-188.9 245,-207.69 261.71,-223.85 282.98,-238.71 300.86,-249.93"/>
<polygon fill="midnightblue" stroke="midnightblue" points="299.51,-253.21 309.86,-255.46 303.17,-247.24 299.51,-253.21"/>
</g>
<!-- Node6 -->
<g id="node6" class="node">
<title>Node6</title>
<g id="a_node6"><a xlink:href="../../de/dcf/classoperations__on__datastructures_1_1reverse__binary__tree_1_1_binary_tree.html#a2e683b271d8d5cd63e0d09cf8aaa325c" target="_top" xlink:title="Level order traversal of a tree consists of visiting its elements, top to bottom, left to right....">
<polygon fill="white" stroke="black" points="467,-78.19 467,-119.19 628,-119.19 628,-78.19 467,-78.19"/>
<text text-anchor="start" x="475" y="-107.19" font-family="Helvetica,sans-Serif" font-size="10.00">operations_on_datastructures</text>
<text text-anchor="start" x="475" y="-96.19" font-family="Helvetica,sans-Serif" font-size="10.00">::reverse_binary_tree::BinaryTree</text>
<text text-anchor="middle" x="547.5" y="-85.19" font-family="Helvetica,sans-Serif" font-size="10.00">::get_level_order</text>
</a>
</g>
</g>
<!-- Node3&#45;&gt;Node6 -->
<g id="edge6" class="edge">
<title>Node3&#45;&gt;Node6</title>
<path fill="none" stroke="midnightblue" d="M194.51,-121.07C211.06,-112.19 234.83,-100.02 245,-97.69 314.68,-81.67 395.84,-83.03 456.39,-87.78"/>
<polygon fill="midnightblue" stroke="midnightblue" points="456.43,-91.3 466.69,-88.64 457.01,-84.32 456.43,-91.3"/>
</g>
<!-- Node11 -->
<g id="node11" class="node">
<title>Node11</title>
<g id="a_node11"><a xlink:href="../../de/dcf/classoperations__on__datastructures_1_1reverse__binary__tree_1_1_binary_tree.html#a5cf972a2c994a4fa1a89fc77bd5ad503" target="_top" xlink:title="Prints all of the elements in the tree to stdout level&#45;by&#45;level, using the get_level_order() function...">
<polygon fill="white" stroke="black" points="245,-107.69 245,-137.69 431,-137.69 431,-107.69 245,-107.69"/>
<text text-anchor="start" x="253" y="-125.69" font-family="Helvetica,sans-Serif" font-size="10.00">operations_on_datastructures</text>
<text text-anchor="middle" x="338" y="-114.69" font-family="Helvetica,sans-Serif" font-size="10.00">::reverse_binary_tree::BinaryTree::print</text>
</a>
</g>
</g>
<!-- Node3&#45;&gt;Node11 -->
<g id="edge11" class="edge">
<title>Node3&#45;&gt;Node11</title>
<path fill="none" stroke="midnightblue" d="M209.38,-129.07C217.01,-128.69 225.55,-128.26 234.49,-127.81"/>
<polygon fill="midnightblue" stroke="midnightblue" points="234.93,-131.29 244.74,-127.3 234.58,-124.3 234.93,-131.29"/>
</g>
<!-- Node12 -->
<g id="node12" class="node">
<title>Node12</title>
<g id="a_node12"><a xlink:href="../../de/dcf/classoperations__on__datastructures_1_1reverse__binary__tree_1_1_binary_tree.html#a1c0d27198372b36ef71bc58af8336b9c" target="_top" xlink:title=" ">
<polygon fill="white" stroke="black" points="257.5,-157.19 257.5,-198.19 418.5,-198.19 418.5,-157.19 257.5,-157.19"/>
<text text-anchor="start" x="265.5" y="-186.19" font-family="Helvetica,sans-Serif" font-size="10.00">operations_on_datastructures</text>
<text text-anchor="start" x="265.5" y="-175.19" font-family="Helvetica,sans-Serif" font-size="10.00">::reverse_binary_tree::BinaryTree</text>
<text text-anchor="middle" x="338" y="-164.19" font-family="Helvetica,sans-Serif" font-size="10.00">::reverse</text>
</a>
</g>
</g>
<!-- Node3&#45;&gt;Node12 -->
<g id="edge13" class="edge">
<title>Node3&#45;&gt;Node12</title>
<path fill="none" stroke="midnightblue" d="M209.38,-140.2C223.27,-144.28 240.18,-149.24 257.08,-154.21"/>
<polygon fill="midnightblue" stroke="midnightblue" points="256.42,-157.66 267,-157.12 258.4,-150.95 256.42,-157.66"/>
</g>
<!-- Node14 -->
<g id="node14" class="node">
<title>Node14</title>
<g id="a_node14"><a target="_blank" xlink:href="http://en.cppreference.com/w/cpp/container/vector/size.html#" xlink:title=" ">
<polygon fill="white" stroke="black" points="294.5,-31.19 294.5,-50.19 381.5,-50.19 381.5,-31.19 294.5,-31.19"/>
<text text-anchor="middle" x="338" y="-38.19" font-family="Helvetica,sans-Serif" font-size="10.00">std::vector::size</text>
</a>
</g>
</g>
<!-- Node3&#45;&gt;Node14 -->
<g id="edge16" class="edge">
<title>Node3&#45;&gt;Node14</title>
<path fill="none" stroke="midnightblue" d="M195.76,-121.16C200.33,-118.42 205.04,-115.21 209,-111.69 228.67,-94.21 223.08,-79.24 245,-64.69 256.73,-56.9 270.86,-51.63 284.48,-48.08"/>
<polygon fill="midnightblue" stroke="midnightblue" points="285.34,-51.47 294.27,-45.78 283.74,-44.66 285.34,-51.47"/>
</g>
<!-- Node5 -->
<g id="node5" class="node">
<title>Node5</title>
<g id="a_node5"><a xlink:href="../../de/dcf/classoperations__on__datastructures_1_1reverse__binary__tree_1_1_binary_tree.html#adb2b6be741b0500ee75d89b6d06b5d50" target="_top" xlink:title="inserts a node in the Binary Tree, with the behaviouur of a Binary Search Tree.">
<polygon fill="white" stroke="black" points="467,-250.19 467,-291.19 628,-291.19 628,-250.19 467,-250.19"/>
<text text-anchor="start" x="475" y="-279.19" font-family="Helvetica,sans-Serif" font-size="10.00">operations_on_datastructures</text>
<text text-anchor="start" x="475" y="-268.19" font-family="Helvetica,sans-Serif" font-size="10.00">::reverse_binary_tree::BinaryTree</text>
<text text-anchor="middle" x="547.5" y="-257.19" font-family="Helvetica,sans-Serif" font-size="10.00">::insert</text>
</a>
</g>
</g>
<!-- Node4&#45;&gt;Node5 -->
<g id="edge4" class="edge">
<title>Node4&#45;&gt;Node5</title>
<path fill="none" stroke="midnightblue" d="M429.71,-270.69C438.66,-270.69 447.75,-270.69 456.69,-270.69"/>
<polygon fill="midnightblue" stroke="midnightblue" points="456.72,-274.19 466.72,-270.69 456.72,-267.19 456.72,-274.19"/>
</g>
<!-- Node5&#45;&gt;Node5 -->
<g id="edge5" class="edge">
<title>Node5&#45;&gt;Node5</title>
<path fill="none" stroke="midnightblue" d="M517.36,-291.55C514.07,-301.23 524.12,-309.69 547.5,-309.69 562.11,-309.69 571.52,-306.38 575.72,-301.54"/>
<polygon fill="midnightblue" stroke="midnightblue" points="579.19,-302.03 577.64,-291.55 572.31,-300.71 579.19,-302.03"/>
</g>
<!-- Node7 -->
<g id="node7" class="node">
<title>Node7</title>
<g id="a_node7"><a target="_blank" xlink:href="http://en.cppreference.com/w/cpp/container/queue/empty.html#" xlink:title=" ">
<polygon fill="white" stroke="black" points="664,-146.19 664,-165.19 759,-165.19 759,-146.19 664,-146.19"/>
<text text-anchor="middle" x="711.5" y="-153.19" font-family="Helvetica,sans-Serif" font-size="10.00">std::queue::empty</text>
</a>
</g>
</g>
<!-- Node6&#45;&gt;Node7 -->
<g id="edge7" class="edge">
<title>Node6&#45;&gt;Node7</title>
<path fill="none" stroke="midnightblue" d="M606.99,-119.26C629.31,-127.12 654.12,-135.85 673.86,-142.79"/>
<polygon fill="midnightblue" stroke="midnightblue" points="672.79,-146.13 683.38,-146.15 675.11,-139.52 672.79,-146.13"/>
</g>
<!-- Node8 -->
<g id="node8" class="node">
<title>Node8</title>
<g id="a_node8"><a target="_blank" xlink:href="http://en.cppreference.com/w/cpp/container/queue/front.html#" xlink:title=" ">
<polygon fill="white" stroke="black" points="667.5,-108.19 667.5,-127.19 755.5,-127.19 755.5,-108.19 667.5,-108.19"/>
<text text-anchor="middle" x="711.5" y="-115.19" font-family="Helvetica,sans-Serif" font-size="10.00">std::queue::front</text>
</a>
</g>
</g>
<!-- Node6&#45;&gt;Node8 -->
<g id="edge8" class="edge">
<title>Node6&#45;&gt;Node8</title>
<path fill="none" stroke="midnightblue" d="M628.08,-108.02C637.84,-109.16 647.64,-110.31 656.89,-111.4"/>
<polygon fill="midnightblue" stroke="midnightblue" points="656.74,-114.9 667.08,-112.59 657.56,-107.95 656.74,-114.9"/>
</g>
<!-- Node9 -->
<g id="node9" class="node">
<title>Node9</title>
<g id="a_node9"><a target="_blank" xlink:href="http://en.cppreference.com/w/cpp/container/queue/pop.html#" xlink:title=" ">
<polygon fill="white" stroke="black" points="669.5,-70.19 669.5,-89.19 753.5,-89.19 753.5,-70.19 669.5,-70.19"/>
<text text-anchor="middle" x="711.5" y="-77.19" font-family="Helvetica,sans-Serif" font-size="10.00">std::queue::pop</text>
</a>
</g>
</g>
<!-- Node6&#45;&gt;Node9 -->
<g id="edge9" class="edge">
<title>Node6&#45;&gt;Node9</title>
<path fill="none" stroke="midnightblue" d="M628.08,-89.35C638.65,-88.11 649.25,-86.87 659.17,-85.71"/>
<polygon fill="midnightblue" stroke="midnightblue" points="659.7,-89.17 669.22,-84.53 658.88,-82.22 659.7,-89.17"/>
</g>
<!-- Node10 -->
<g id="node10" class="node">
<title>Node10</title>
<g id="a_node10"><a target="_blank" xlink:href="http://en.cppreference.com/w/cpp/container/queue/push.html#" xlink:title=" ">
<polygon fill="white" stroke="black" points="667,-32.19 667,-51.19 756,-51.19 756,-32.19 667,-32.19"/>
<text text-anchor="middle" x="711.5" y="-39.19" font-family="Helvetica,sans-Serif" font-size="10.00">std::queue::push</text>
</a>
</g>
</g>
<!-- Node6&#45;&gt;Node10 -->
<g id="edge10" class="edge">
<title>Node6&#45;&gt;Node10</title>
<path fill="none" stroke="midnightblue" d="M606.99,-78.11C629.31,-70.25 654.12,-61.52 673.86,-54.58"/>
<polygon fill="midnightblue" stroke="midnightblue" points="675.11,-57.85 683.38,-51.23 672.79,-51.24 675.11,-57.85"/>
</g>
<!-- Node11&#45;&gt;Node6 -->
<g id="edge12" class="edge">
<title>Node11&#45;&gt;Node6</title>
<path fill="none" stroke="midnightblue" d="M431.22,-112.02C439.78,-111.03 448.44,-110.03 456.97,-109.04"/>
<polygon fill="midnightblue" stroke="midnightblue" points="457.39,-112.52 466.92,-107.89 456.58,-105.56 457.39,-112.52"/>
</g>
<!-- Node13 -->
<g id="node13" class="node">
<title>Node13</title>
<g id="a_node13"><a xlink:href="../../de/dcf/classoperations__on__datastructures_1_1reverse__binary__tree_1_1_binary_tree.html#af6f974381f523fdb981fc2d843bbf4a1" target="_top" xlink:title="Reverses a Binary Tree recursively by swapping the left and right subtrees and their children.">
<polygon fill="white" stroke="black" points="467,-157.19 467,-198.19 628,-198.19 628,-157.19 467,-157.19"/>
<text text-anchor="start" x="475" y="-186.19" font-family="Helvetica,sans-Serif" font-size="10.00">operations_on_datastructures</text>
<text text-anchor="start" x="475" y="-175.19" font-family="Helvetica,sans-Serif" font-size="10.00">::reverse_binary_tree::BinaryTree</text>
<text text-anchor="middle" x="547.5" y="-164.19" font-family="Helvetica,sans-Serif" font-size="10.00">::reverseBinaryTree</text>
</a>
</g>
</g>
<!-- Node12&#45;&gt;Node13 -->
<g id="edge14" class="edge">
<title>Node12&#45;&gt;Node13</title>
<path fill="none" stroke="midnightblue" d="M418.63,-177.69C431.08,-177.69 444.01,-177.69 456.67,-177.69"/>
<polygon fill="midnightblue" stroke="midnightblue" points="456.74,-181.19 466.74,-177.69 456.74,-174.19 456.74,-181.19"/>
</g>
<!-- Node13&#45;&gt;Node13 -->
<g id="edge15" class="edge">
<title>Node13&#45;&gt;Node13</title>
<path fill="none" stroke="midnightblue" d="M517.36,-198.55C514.07,-208.23 524.12,-216.69 547.5,-216.69 562.11,-216.69 571.52,-213.38 575.72,-208.54"/>
<polygon fill="midnightblue" stroke="midnightblue" points="579.19,-209.03 577.64,-198.55 572.31,-207.71 579.19,-209.03"/>
</g>
<!-- Node15&#45;&gt;Node6 -->
<g id="edge18" class="edge">
<title>Node15&#45;&gt;Node6</title>
<path fill="none" stroke="midnightblue" d="M182.6,-82.99C192.65,-66.67 215.49,-34.28 245,-21.69 321.03,10.77 351.88,2.27 431,-21.69 463.11,-31.41 494.45,-53.33 516.37,-71.3"/>
<polygon fill="midnightblue" stroke="midnightblue" points="514.38,-74.21 524.29,-77.97 518.89,-68.85 514.38,-74.21"/>
</g>
<!-- Node15&#45;&gt;Node11 -->
<g id="edge19" class="edge">
<title>Node15&#45;&gt;Node11</title>
<path fill="none" stroke="midnightblue" d="M209.38,-98.76C220.37,-100.82 233.24,-103.23 246.5,-105.72"/>
<polygon fill="midnightblue" stroke="midnightblue" points="246.22,-109.23 256.7,-107.63 247.51,-102.35 246.22,-109.23"/>
</g>
<!-- Node15&#45;&gt;Node12 -->
<g id="edge20" class="edge">
<title>Node15&#45;&gt;Node12</title>
<path fill="none" stroke="midnightblue" d="M195.12,-102.38C199.8,-105.17 204.71,-108.36 209,-111.69 226.87,-125.57 225.71,-135.85 245,-147.69 247.95,-149.5 251.03,-151.21 254.19,-152.83"/>
<polygon fill="midnightblue" stroke="midnightblue" points="252.74,-156.02 263.27,-157.16 255.75,-149.7 252.74,-156.02"/>
</g>
<!-- Node15&#45;&gt;Node14 -->
<g id="edge21" class="edge">
<title>Node15&#45;&gt;Node14</title>
<path fill="none" stroke="midnightblue" d="M198.16,-83.11C211.44,-77.31 229.02,-70.03 245,-64.69 257.97,-60.35 272.19,-56.3 285.48,-52.81"/>
<polygon fill="midnightblue" stroke="midnightblue" points="286.62,-56.14 295.43,-50.26 284.88,-49.36 286.62,-56.14"/>
</g>
<!-- Node16&#45;&gt;Node4 -->
<g id="edge23" class="edge">
<title>Node16&#45;&gt;Node4</title>
<path fill="none" stroke="midnightblue" d="M185.21,-187.63C197.07,-201.38 220.3,-226.17 245,-240.69 252.29,-244.97 260.26,-248.73 268.38,-252"/>
<polygon fill="midnightblue" stroke="midnightblue" points="267.34,-255.35 277.93,-255.62 269.82,-248.8 267.34,-255.35"/>
</g>
<!-- Node16&#45;&gt;Node6 -->
<g id="edge24" class="edge">
<title>Node16&#45;&gt;Node6</title>
<path fill="none" stroke="midnightblue" d="M193.39,-187.24C206.77,-194.46 226.44,-203.77 245,-207.69 325.89,-224.74 359.06,-248.42 431,-207.69 458.06,-192.36 445.14,-169.81 467,-147.69 475.55,-139.04 485.91,-131.25 496.29,-124.56"/>
<polygon fill="midnightblue" stroke="midnightblue" points="498.3,-127.44 504.97,-119.21 494.63,-121.48 498.3,-127.44"/>
</g>
<!-- Node16&#45;&gt;Node11 -->
<g id="edge25" class="edge">
<title>Node16&#45;&gt;Node11</title>
<path fill="none" stroke="midnightblue" d="M196.62,-168.09C210.03,-161.77 228.34,-153.59 245,-147.69 251.86,-145.25 259.09,-142.92 266.34,-140.72"/>
<polygon fill="midnightblue" stroke="midnightblue" points="267.62,-143.99 276.22,-137.81 265.64,-137.28 267.62,-143.99"/>
</g>
<!-- Node16&#45;&gt;Node12 -->
<g id="edge26" class="edge">
<title>Node16&#45;&gt;Node12</title>
<path fill="none" stroke="midnightblue" d="M209.38,-177.69C220.51,-177.69 233.58,-177.69 247.03,-177.69"/>
<polygon fill="midnightblue" stroke="midnightblue" points="247.36,-181.19 257.36,-177.69 247.36,-174.19 247.36,-181.19"/>
</g>
</g>
</svg>
