<?xml version="1.0" encoding="UTF-8" standalone="no"?>
<!DOCTYPE svg PUBLIC "-//W3C//DTD SVG 1.1//EN"
 "http://www.w3.org/Graphics/SVG/1.1/DTD/svg11.dtd">
<!-- Generated by graphviz version 5.0.0 (20220707.1540)
 -->
<!-- Title: range_queries::perSegTree::query Pages: 1 -->
<svg width="482pt" height="79pt"
 viewBox="0.00 0.00 482.00 79.00" xmlns="http://www.w3.org/2000/svg" xmlns:xlink="http://www.w3.org/1999/xlink">
<g id="graph0" class="graph" transform="scale(1 1) rotate(0) translate(4 75)">
<title>range_queries::perSegTree::query</title>
<polygon fill="white" stroke="transparent" points="-4,4 -4,-75 478,-75 478,4 -4,4"/>
<!-- Node1 -->
<g id="node1" class="node">
<title>Node1</title>
<g id="a_node1"><a xlink:title="Querying the range from index l to index r, checking at every node if it has some value to be propaga...">
<polygon fill="#bfbfbf" stroke="black" points="0,-22.5 0,-52.5 134,-52.5 134,-22.5 0,-22.5"/>
<text text-anchor="start" x="8" y="-40.5" font-family="Helvetica,sans-Serif" font-size="10.00">range_queries::perSegTree</text>
<text text-anchor="middle" x="67" y="-29.5" font-family="Helvetica,sans-Serif" font-size="10.00">::query</text>
</a>
</g>
</g>
<!-- Node1&#45;&gt;Node1 -->
<g id="edge5" class="edge">
<title>Node1&#45;&gt;Node1</title>
<path fill="none" stroke="midnightblue" d="M37.37,-52.66C30.23,-62.06 40.11,-71 67,-71 83.39,-71 93.46,-67.68 97.21,-62.96"/>
<polygon fill="midnightblue" stroke="midnightblue" points="100.68,-62.45 96.63,-52.66 93.69,-62.84 100.68,-62.45"/>
</g>
<!-- Node2 -->
<g id="node2" class="node">
<title>Node2</title>
<g id="a_node2"><a xlink:href="../../d4/d18/composite__simpson__rule_8cpp.html#a995716bc040dc6cf32b5cb3df51c4529" target="_top" xlink:title="Another test function.">
<polygon fill="white" stroke="black" points="222.5,-50 222.5,-69 251.5,-69 251.5,-50 222.5,-50"/>
<text text-anchor="middle" x="237" y="-57" font-family="Helvetica,sans-Serif" font-size="10.00">l</text>
</a>
</g>
</g>
<!-- Node1&#45;&gt;Node2 -->
<g id="edge1" class="edge">
<title>Node1&#45;&gt;Node2</title>
<path fill="none" stroke="midnightblue" d="M134.4,-46.19C161.79,-49.78 191.8,-53.71 212.05,-56.36"/>
<polygon fill="midnightblue" stroke="midnightblue" points="211.85,-59.87 222.22,-57.7 212.76,-52.93 211.85,-59.87"/>
</g>
<!-- Node4 -->
<g id="node4" class="node">
<title>Node4</title>
<g id="a_node4"><a xlink:href="../../d8/d28/classrange__queries_1_1per_seg_tree.html#ace7f57935b3bb9446f11c239fd89ae79" target="_top" xlink:title="If there is some value to be propagated to the passed node, value is added to the node and the childr...">
<polygon fill="white" stroke="black" points="170,-0.5 170,-30.5 304,-30.5 304,-0.5 170,-0.5"/>
<text text-anchor="start" x="178" y="-18.5" font-family="Helvetica,sans-Serif" font-size="10.00">range_queries::perSegTree</text>
<text text-anchor="middle" x="237" y="-7.5" font-family="Helvetica,sans-Serif" font-size="10.00">::lazy</text>
</a>
</g>
</g>
<!-- Node1&#45;&gt;Node4 -->
<g id="edge3" class="edge">
<title>Node1&#45;&gt;Node4</title>
<path fill="none" stroke="midnightblue" d="M134.4,-28.81C142.77,-27.71 151.39,-26.58 159.89,-25.47"/>
<polygon fill="midnightblue" stroke="midnightblue" points="160.35,-28.94 169.81,-24.17 159.44,-22 160.35,-28.94"/>
</g>
<!-- Node3 -->
<g id="node3" class="node">
<title>Node3</title>
<g id="a_node3"><a target="_blank" xlink:href="http://en.cppreference.com/w/cpp/numeric/math/log.html#" xlink:title=" ">
<polygon fill="white" stroke="black" points="382.5,-50 382.5,-69 431.5,-69 431.5,-50 382.5,-50"/>
<text text-anchor="middle" x="407" y="-57" font-family="Helvetica,sans-Serif" font-size="10.00">std::log</text>
</a>
</g>
</g>
<!-- Node2&#45;&gt;Node3 -->
<g id="edge2" class="edge">
<title>Node2&#45;&gt;Node3</title>
<path fill="none" stroke="midnightblue" d="M251.75,-59.5C277.78,-59.5 334.97,-59.5 371.93,-59.5"/>
<polygon fill="midnightblue" stroke="midnightblue" points="372.23,-63 382.23,-59.5 372.23,-56 372.23,-63"/>
</g>
<!-- Node5 -->
<g id="node5" class="node">
<title>Node5</title>
<g id="a_node5"><a xlink:href="../../d8/d28/classrange__queries_1_1per_seg_tree.html#a0cec4b77d264521717cf9b0482c45817" target="_top" xlink:title="Creating a new node with the same values of curr node.">
<polygon fill="white" stroke="black" points="340,-0.5 340,-30.5 474,-30.5 474,-0.5 340,-0.5"/>
<text text-anchor="start" x="348" y="-18.5" font-family="Helvetica,sans-Serif" font-size="10.00">range_queries::perSegTree</text>
<text text-anchor="middle" x="407" y="-7.5" font-family="Helvetica,sans-Serif" font-size="10.00">::newKid</text>
</a>
</g>
</g>
<!-- Node4&#45;&gt;Node5 -->
<g id="edge4" class="edge">
<title>Node4&#45;&gt;Node5</title>
<path fill="none" stroke="midnightblue" d="M304.4,-15.5C312.68,-15.5 321.2,-15.5 329.62,-15.5"/>
<polygon fill="midnightblue" stroke="midnightblue" points="329.81,-19 339.81,-15.5 329.81,-12 329.81,-19"/>
</g>
</g>
</svg>
