<?xml version="1.0" encoding="UTF-8" standalone="no"?>
<!DOCTYPE svg PUBLIC "-//W3C//DTD SVG 1.1//EN"
 "http://www.w3.org/Graphics/SVG/1.1/DTD/svg11.dtd">
<!-- Generated by graphviz version 5.0.0 (20220707.1540)
 -->
<!-- Title: range_queries::perSegTree::query Pages: 1 -->
<svg width="652pt" height="87pt"
 viewBox="0.00 0.00 652.00 86.50" xmlns="http://www.w3.org/2000/svg" xmlns:xlink="http://www.w3.org/1999/xlink">
<g id="graph0" class="graph" transform="scale(1 1) rotate(0) translate(4 82.5)">
<title>range_queries::perSegTree::query</title>
<polygon fill="white" stroke="transparent" points="-4,4 -4,-82.5 648,-82.5 648,4 -4,4"/>
<!-- Node1 -->
<g id="node1" class="node">
<title>Node1</title>
<g id="a_node1"><a xlink:title="Querying the range from index l to index r, getting the sum of the elements whose index x satisfies l...">
<polygon fill="#bfbfbf" stroke="black" points="0,-31.5 0,-61.5 134,-61.5 134,-31.5 0,-31.5"/>
<text text-anchor="start" x="8" y="-49.5" font-family="Helvetica,sans-Serif" font-size="10.00">range_queries::perSegTree</text>
<text text-anchor="middle" x="67" y="-38.5" font-family="Helvetica,sans-Serif" font-size="10.00">::query</text>
</a>
</g>
</g>
<!-- Node2 -->
<g id="node2" class="node">
<title>Node2</title>
<g id="a_node2"><a xlink:href="../../d4/d18/composite__simpson__rule_8cpp.html#a995716bc040dc6cf32b5cb3df51c4529" target="_top" xlink:title="Another test function.">
<polygon fill="white" stroke="black" points="392.5,-59 392.5,-78 421.5,-78 421.5,-59 392.5,-59"/>
<text text-anchor="middle" x="407" y="-66" font-family="Helvetica,sans-Serif" font-size="10.00">l</text>
</a>
</g>
</g>
<!-- Node1&#45;&gt;Node2 -->
<g id="edge1" class="edge">
<title>Node1&#45;&gt;Node2</title>
<path fill="none" stroke="midnightblue" d="M134.06,-54.22C146.01,-55.44 158.37,-56.6 170,-57.5 247.52,-63.48 339.64,-66.64 382.23,-67.87"/>
<polygon fill="midnightblue" stroke="midnightblue" points="382.32,-71.37 392.41,-68.16 382.52,-64.38 382.32,-71.37"/>
</g>
<!-- Node4 -->
<g id="node4" class="node">
<title>Node4</title>
<g id="a_node4"><a xlink:href="../../d8/d28/classrange__queries_1_1per_seg_tree.html#ae8ae4b1835e5e8aec32f68c5059ed4d4" target="_top" xlink:title="Querying the range from index l to index r, checking at every node if it has some value to be propaga...">
<polygon fill="white" stroke="black" points="170,-0.5 170,-30.5 304,-30.5 304,-0.5 170,-0.5"/>
<text text-anchor="start" x="178" y="-18.5" font-family="Helvetica,sans-Serif" font-size="10.00">range_queries::perSegTree</text>
<text text-anchor="middle" x="237" y="-7.5" font-family="Helvetica,sans-Serif" font-size="10.00">::query</text>
</a>
</g>
</g>
<!-- Node1&#45;&gt;Node4 -->
<g id="edge3" class="edge">
<title>Node1&#45;&gt;Node4</title>
<path fill="none" stroke="midnightblue" d="M134.4,-34.25C142.77,-32.7 151.39,-31.11 159.89,-29.54"/>
<polygon fill="midnightblue" stroke="midnightblue" points="160.61,-32.97 169.81,-27.71 159.34,-26.09 160.61,-32.97"/>
</g>
<!-- Node3 -->
<g id="node3" class="node">
<title>Node3</title>
<g id="a_node3"><a target="_blank" xlink:href="http://en.cppreference.com/w/cpp/numeric/math/log.html#" xlink:title=" ">
<polygon fill="white" stroke="black" points="552.5,-59 552.5,-78 601.5,-78 601.5,-59 552.5,-59"/>
<text text-anchor="middle" x="577" y="-66" font-family="Helvetica,sans-Serif" font-size="10.00">std::log</text>
</a>
</g>
</g>
<!-- Node2&#45;&gt;Node3 -->
<g id="edge2" class="edge">
<title>Node2&#45;&gt;Node3</title>
<path fill="none" stroke="midnightblue" d="M421.75,-68.5C447.78,-68.5 504.97,-68.5 541.93,-68.5"/>
<polygon fill="midnightblue" stroke="midnightblue" points="542.23,-72 552.23,-68.5 542.23,-65 542.23,-72"/>
</g>
<!-- Node4&#45;&gt;Node2 -->
<g id="edge4" class="edge">
<title>Node4&#45;&gt;Node2</title>
<path fill="none" stroke="midnightblue" d="M285.69,-30.55C317.44,-40.56 357.75,-53.28 382.71,-61.15"/>
<polygon fill="midnightblue" stroke="midnightblue" points="381.81,-64.54 392.4,-64.21 383.91,-57.86 381.81,-64.54"/>
</g>
<!-- Node4&#45;&gt;Node4 -->
<g id="edge7" class="edge">
<title>Node4&#45;&gt;Node4</title>
<path fill="none" stroke="midnightblue" d="M207.37,-30.66C200.23,-40.06 210.11,-49 237,-49 253.39,-49 263.46,-45.68 267.21,-40.96"/>
<polygon fill="midnightblue" stroke="midnightblue" points="270.68,-40.45 266.63,-30.66 263.69,-40.84 270.68,-40.45"/>
</g>
<!-- Node5 -->
<g id="node5" class="node">
<title>Node5</title>
<g id="a_node5"><a xlink:href="../../d8/d28/classrange__queries_1_1per_seg_tree.html#ace7f57935b3bb9446f11c239fd89ae79" target="_top" xlink:title="If there is some value to be propagated to the passed node, value is added to the node and the childr...">
<polygon fill="white" stroke="black" points="340,-0.5 340,-30.5 474,-30.5 474,-0.5 340,-0.5"/>
<text text-anchor="start" x="348" y="-18.5" font-family="Helvetica,sans-Serif" font-size="10.00">range_queries::perSegTree</text>
<text text-anchor="middle" x="407" y="-7.5" font-family="Helvetica,sans-Serif" font-size="10.00">::lazy</text>
</a>
</g>
</g>
<!-- Node4&#45;&gt;Node5 -->
<g id="edge5" class="edge">
<title>Node4&#45;&gt;Node5</title>
<path fill="none" stroke="midnightblue" d="M304.4,-15.5C312.68,-15.5 321.2,-15.5 329.62,-15.5"/>
<polygon fill="midnightblue" stroke="midnightblue" points="329.81,-19 339.81,-15.5 329.81,-12 329.81,-19"/>
</g>
<!-- Node6 -->
<g id="node6" class="node">
<title>Node6</title>
<g id="a_node6"><a xlink:href="../../d8/d28/classrange__queries_1_1per_seg_tree.html#a0cec4b77d264521717cf9b0482c45817" target="_top" xlink:title="Creating a new node with the same values of curr node.">
<polygon fill="white" stroke="black" points="510,-0.5 510,-30.5 644,-30.5 644,-0.5 510,-0.5"/>
<text text-anchor="start" x="518" y="-18.5" font-family="Helvetica,sans-Serif" font-size="10.00">range_queries::perSegTree</text>
<text text-anchor="middle" x="577" y="-7.5" font-family="Helvetica,sans-Serif" font-size="10.00">::newKid</text>
</a>
</g>
</g>
<!-- Node5&#45;&gt;Node6 -->
<g id="edge6" class="edge">
<title>Node5&#45;&gt;Node6</title>
<path fill="none" stroke="midnightblue" d="M474.4,-15.5C482.68,-15.5 491.2,-15.5 499.62,-15.5"/>
<polygon fill="midnightblue" stroke="midnightblue" points="499.81,-19 509.81,-15.5 499.81,-12 499.81,-19"/>
</g>
</g>
</svg>
