<?xml version="1.0" encoding="UTF-8" standalone="no"?>
<!DOCTYPE svg PUBLIC "-//W3C//DTD SVG 1.1//EN"
 "http://www.w3.org/Graphics/SVG/1.1/DTD/svg11.dtd">
<!-- Generated by graphviz version 5.0.0 (20220707.1540)
 -->
<!-- Title: range_queries::perSegTree::update Pages: 1 -->
<svg width="482pt" height="100pt"
 viewBox="0.00 0.00 482.00 99.50" xmlns="http://www.w3.org/2000/svg" xmlns:xlink="http://www.w3.org/1999/xlink">
<g id="graph0" class="graph" transform="scale(1 1) rotate(0) translate(4 95.5)">
<title>range_queries::perSegTree::update</title>
<polygon fill="white" stroke="transparent" points="-4,4 -4,-95.5 478,-95.5 478,4 -4,4"/>
<!-- Node1 -->
<g id="node1" class="node">
<title>Node1</title>
<g id="a_node1"><a xlink:title="Doing range update, checking at every node if it has some value to be propagated. All nodes affected ...">
<polygon fill="#bfbfbf" stroke="black" points="0,-22.5 0,-52.5 134,-52.5 134,-22.5 0,-22.5"/>
<text text-anchor="start" x="8" y="-40.5" font-family="Helvetica,sans-Serif" font-size="10.00">range_queries::perSegTree</text>
<text text-anchor="middle" x="67" y="-29.5" font-family="Helvetica,sans-Serif" font-size="10.00">::update</text>
</a>
</g>
</g>
<!-- Node1&#45;&gt;Node1 -->
<g id="edge6" class="edge">
<title>Node1&#45;&gt;Node1</title>
<path fill="none" stroke="midnightblue" d="M37.37,-52.66C30.23,-62.06 40.11,-71 67,-71 83.39,-71 93.46,-67.68 97.21,-62.96"/>
<polygon fill="midnightblue" stroke="midnightblue" points="100.68,-62.45 96.63,-52.66 93.69,-62.84 100.68,-62.45"/>
</g>
<!-- Node2 -->
<g id="node2" class="node">
<title>Node2</title>
<g id="a_node2"><a xlink:href="../../d4/d18/composite__simpson__rule_8cpp.html#a995716bc040dc6cf32b5cb3df51c4529" target="_top" xlink:title="Another test function.">
<polygon fill="white" stroke="black" points="222.5,-72 222.5,-91 251.5,-91 251.5,-72 222.5,-72"/>
<text text-anchor="middle" x="237" y="-79" font-family="Helvetica,sans-Serif" font-size="10.00">l</text>
</a>
</g>
</g>
<!-- Node1&#45;&gt;Node2 -->
<g id="edge1" class="edge">
<title>Node1&#45;&gt;Node2</title>
<path fill="none" stroke="midnightblue" d="M125.35,-52.52C155.22,-60.34 190.1,-69.48 212.6,-75.37"/>
<polygon fill="midnightblue" stroke="midnightblue" points="211.72,-78.76 222.28,-77.91 213.49,-71.99 211.72,-78.76"/>
</g>
<!-- Node4 -->
<g id="node4" class="node">
<title>Node4</title>
<g id="a_node4"><a xlink:href="../../d8/d28/classrange__queries_1_1per_seg_tree.html#ace7f57935b3bb9446f11c239fd89ae79" target="_top" xlink:title="If there is some value to be propagated to the passed node, value is added to the node and the childr...">
<polygon fill="white" stroke="black" points="170,-22.5 170,-52.5 304,-52.5 304,-22.5 170,-22.5"/>
<text text-anchor="start" x="178" y="-40.5" font-family="Helvetica,sans-Serif" font-size="10.00">range_queries::perSegTree</text>
<text text-anchor="middle" x="237" y="-29.5" font-family="Helvetica,sans-Serif" font-size="10.00">::lazy</text>
</a>
</g>
</g>
<!-- Node1&#45;&gt;Node4 -->
<g id="edge3" class="edge">
<title>Node1&#45;&gt;Node4</title>
<path fill="none" stroke="midnightblue" d="M134.4,-37.5C142.68,-37.5 151.2,-37.5 159.62,-37.5"/>
<polygon fill="midnightblue" stroke="midnightblue" points="159.81,-41 169.81,-37.5 159.81,-34 159.81,-41"/>
</g>
<!-- Node5 -->
<g id="node5" class="node">
<title>Node5</title>
<g id="a_node5"><a xlink:href="../../d8/d28/classrange__queries_1_1per_seg_tree.html#a0cec4b77d264521717cf9b0482c45817" target="_top" xlink:title="Creating a new node with the same values of curr node.">
<polygon fill="white" stroke="black" points="340,-0.5 340,-30.5 474,-30.5 474,-0.5 340,-0.5"/>
<text text-anchor="start" x="348" y="-18.5" font-family="Helvetica,sans-Serif" font-size="10.00">range_queries::perSegTree</text>
<text text-anchor="middle" x="407" y="-7.5" font-family="Helvetica,sans-Serif" font-size="10.00">::newKid</text>
</a>
</g>
</g>
<!-- Node1&#45;&gt;Node5 -->
<g id="edge5" class="edge">
<title>Node1&#45;&gt;Node5</title>
<path fill="none" stroke="midnightblue" d="M118.92,-22.47C135.1,-18.39 153.17,-14.53 170,-12.5 223.04,-6.09 283.27,-6.99 329.61,-9.42"/>
<polygon fill="midnightblue" stroke="midnightblue" points="329.7,-12.93 339.88,-9.99 330.09,-5.94 329.7,-12.93"/>
</g>
<!-- Node3 -->
<g id="node3" class="node">
<title>Node3</title>
<g id="a_node3"><a target="_blank" xlink:href="http://en.cppreference.com/w/cpp/numeric/math/log.html#" xlink:title=" ">
<polygon fill="white" stroke="black" points="382.5,-72 382.5,-91 431.5,-91 431.5,-72 382.5,-72"/>
<text text-anchor="middle" x="407" y="-79" font-family="Helvetica,sans-Serif" font-size="10.00">std::log</text>
</a>
</g>
</g>
<!-- Node2&#45;&gt;Node3 -->
<g id="edge2" class="edge">
<title>Node2&#45;&gt;Node3</title>
<path fill="none" stroke="midnightblue" d="M251.75,-81.5C277.78,-81.5 334.97,-81.5 371.93,-81.5"/>
<polygon fill="midnightblue" stroke="midnightblue" points="372.23,-85 382.23,-81.5 372.23,-78 372.23,-85"/>
</g>
<!-- Node4&#45;&gt;Node5 -->
<g id="edge4" class="edge">
<title>Node4&#45;&gt;Node5</title>
<path fill="none" stroke="midnightblue" d="M304.4,-28.81C312.77,-27.71 321.39,-26.58 329.89,-25.47"/>
<polygon fill="midnightblue" stroke="midnightblue" points="330.35,-28.94 339.81,-24.17 329.44,-22 330.35,-28.94"/>
</g>
</g>
</svg>
