<?xml version="1.0" encoding="UTF-8" standalone="no"?>
<!DOCTYPE svg PUBLIC "-//W3C//DTD SVG 1.1//EN"
 "http://www.w3.org/Graphics/SVG/1.1/DTD/svg11.dtd">
<!-- Generated by graphviz version 5.0.0 (20220707.1540)
 -->
<!-- Title: range_queries::perSegTree::update Pages: 1 -->
<svg width="652pt" height="152pt"
 viewBox="0.00 0.00 652.00 151.98" xmlns="http://www.w3.org/2000/svg" xmlns:xlink="http://www.w3.org/1999/xlink">
<g id="graph0" class="graph" transform="scale(1 1) rotate(0) translate(4 147.98)">
<title>range_queries::perSegTree::update</title>
<polygon fill="white" stroke="transparent" points="-4,4 -4,-147.98 648,-147.98 648,4 -4,4"/>
<!-- Node1 -->
<g id="node1" class="node">
<title>Node1</title>
<g id="a_node1"><a xlink:title="Doing range update by passing the left and right indexes of the range as well as the value to be adde...">
<polygon fill="#bfbfbf" stroke="black" points="0,-81.5 0,-111.5 134,-111.5 134,-81.5 0,-81.5"/>
<text text-anchor="start" x="8" y="-99.5" font-family="Helvetica,sans-Serif" font-size="10.00">range_queries::perSegTree</text>
<text text-anchor="middle" x="67" y="-88.5" font-family="Helvetica,sans-Serif" font-size="10.00">::update</text>
</a>
</g>
</g>
<!-- Node2 -->
<g id="node2" class="node">
<title>Node2</title>
<g id="a_node2"><a xlink:href="../../d4/d18/composite__simpson__rule_8cpp.html#a995716bc040dc6cf32b5cb3df51c4529" target="_top" xlink:title="Another test function.">
<polygon fill="white" stroke="black" points="392.5,-72 392.5,-91 421.5,-91 421.5,-72 392.5,-72"/>
<text text-anchor="middle" x="407" y="-79" font-family="Helvetica,sans-Serif" font-size="10.00">l</text>
</a>
</g>
</g>
<!-- Node1&#45;&gt;Node2 -->
<g id="edge1" class="edge">
<title>Node1&#45;&gt;Node2</title>
<path fill="none" stroke="midnightblue" d="M99.78,-111.69C119.5,-120.26 145.64,-130.11 170,-134.5 228.61,-145.06 246.15,-148.63 304,-134.5 333.62,-127.26 364.22,-109.78 384.08,-96.87"/>
<polygon fill="midnightblue" stroke="midnightblue" points="386.29,-99.6 392.66,-91.13 382.4,-93.78 386.29,-99.6"/>
</g>
<!-- Node4 -->
<g id="node4" class="node">
<title>Node4</title>
<g id="a_node4"><a target="_blank" xlink:href="http://en.cppreference.com/w/cpp/container/vector/push_back.html#" xlink:title=" ">
<polygon fill="white" stroke="black" points="179,-106 179,-125 295,-125 295,-106 179,-106"/>
<text text-anchor="middle" x="237" y="-113" font-family="Helvetica,sans-Serif" font-size="10.00">std::vector::push_back</text>
</a>
</g>
</g>
<!-- Node1&#45;&gt;Node4 -->
<g id="edge3" class="edge">
<title>Node1&#45;&gt;Node4</title>
<path fill="none" stroke="midnightblue" d="M134.4,-104.01C145.63,-105.28 157.31,-106.6 168.57,-107.87"/>
<polygon fill="midnightblue" stroke="midnightblue" points="168.44,-111.38 178.77,-109.03 169.23,-104.43 168.44,-111.38"/>
</g>
<!-- Node5 -->
<g id="node5" class="node">
<title>Node5</title>
<g id="a_node5"><a target="_blank" xlink:href="http://en.cppreference.com/w/cpp/container/vector/size.html#" xlink:title=" ">
<polygon fill="white" stroke="black" points="193.5,-68 193.5,-87 280.5,-87 280.5,-68 193.5,-68"/>
<text text-anchor="middle" x="237" y="-75" font-family="Helvetica,sans-Serif" font-size="10.00">std::vector::size</text>
</a>
</g>
</g>
<!-- Node1&#45;&gt;Node5 -->
<g id="edge4" class="edge">
<title>Node1&#45;&gt;Node5</title>
<path fill="none" stroke="midnightblue" d="M134.4,-88.99C150.49,-87.17 167.49,-85.25 182.89,-83.51"/>
<polygon fill="midnightblue" stroke="midnightblue" points="183.71,-86.94 193.25,-82.33 182.92,-79.98 183.71,-86.94"/>
</g>
<!-- Node6 -->
<g id="node6" class="node">
<title>Node6</title>
<g id="a_node6"><a xlink:href="../../d8/d28/classrange__queries_1_1per_seg_tree.html#a24487eda25123bc4d112e8430821a6c6" target="_top" xlink:title="Doing range update, checking at every node if it has some value to be propagated. All nodes affected ...">
<polygon fill="white" stroke="black" points="170,-0.5 170,-30.5 304,-30.5 304,-0.5 170,-0.5"/>
<text text-anchor="start" x="178" y="-18.5" font-family="Helvetica,sans-Serif" font-size="10.00">range_queries::perSegTree</text>
<text text-anchor="middle" x="237" y="-7.5" font-family="Helvetica,sans-Serif" font-size="10.00">::update</text>
</a>
</g>
</g>
<!-- Node1&#45;&gt;Node6 -->
<g id="edge5" class="edge">
<title>Node1&#45;&gt;Node6</title>
<path fill="none" stroke="midnightblue" d="M99.21,-81.45C126.35,-68.37 165.86,-49.32 195.45,-35.05"/>
<polygon fill="midnightblue" stroke="midnightblue" points="197.19,-38.1 204.68,-30.6 194.15,-31.79 197.19,-38.1"/>
</g>
<!-- Node3 -->
<g id="node3" class="node">
<title>Node3</title>
<g id="a_node3"><a target="_blank" xlink:href="http://en.cppreference.com/w/cpp/numeric/math/log.html#" xlink:title=" ">
<polygon fill="white" stroke="black" points="552.5,-72 552.5,-91 601.5,-91 601.5,-72 552.5,-72"/>
<text text-anchor="middle" x="577" y="-79" font-family="Helvetica,sans-Serif" font-size="10.00">std::log</text>
</a>
</g>
</g>
<!-- Node2&#45;&gt;Node3 -->
<g id="edge2" class="edge">
<title>Node2&#45;&gt;Node3</title>
<path fill="none" stroke="midnightblue" d="M421.75,-81.5C447.78,-81.5 504.97,-81.5 541.93,-81.5"/>
<polygon fill="midnightblue" stroke="midnightblue" points="542.23,-85 552.23,-81.5 542.23,-78 542.23,-85"/>
</g>
<!-- Node6&#45;&gt;Node2 -->
<g id="edge6" class="edge">
<title>Node6&#45;&gt;Node2</title>
<path fill="none" stroke="midnightblue" d="M267.84,-30.71C287.91,-40.57 315.15,-53.26 340,-62.5 353.88,-67.66 369.83,-72.29 382.57,-75.68"/>
<polygon fill="midnightblue" stroke="midnightblue" points="381.85,-79.11 392.41,-78.23 383.6,-72.33 381.85,-79.11"/>
</g>
<!-- Node6&#45;&gt;Node6 -->
<g id="edge10" class="edge">
<title>Node6&#45;&gt;Node6</title>
<path fill="none" stroke="midnightblue" d="M207.37,-30.66C200.23,-40.06 210.11,-49 237,-49 253.39,-49 263.46,-45.68 267.21,-40.96"/>
<polygon fill="midnightblue" stroke="midnightblue" points="270.68,-40.45 266.63,-30.66 263.69,-40.84 270.68,-40.45"/>
</g>
<!-- Node7 -->
<g id="node7" class="node">
<title>Node7</title>
<g id="a_node7"><a xlink:href="../../d8/d28/classrange__queries_1_1per_seg_tree.html#ace7f57935b3bb9446f11c239fd89ae79" target="_top" xlink:title="If there is some value to be propagated to the passed node, value is added to the node and the childr...">
<polygon fill="white" stroke="black" points="340,-22.5 340,-52.5 474,-52.5 474,-22.5 340,-22.5"/>
<text text-anchor="start" x="348" y="-40.5" font-family="Helvetica,sans-Serif" font-size="10.00">range_queries::perSegTree</text>
<text text-anchor="middle" x="407" y="-29.5" font-family="Helvetica,sans-Serif" font-size="10.00">::lazy</text>
</a>
</g>
</g>
<!-- Node6&#45;&gt;Node7 -->
<g id="edge7" class="edge">
<title>Node6&#45;&gt;Node7</title>
<path fill="none" stroke="midnightblue" d="M304.4,-24.19C312.77,-25.29 321.39,-26.42 329.89,-27.53"/>
<polygon fill="midnightblue" stroke="midnightblue" points="329.44,-31 339.81,-28.83 330.35,-24.06 329.44,-31"/>
</g>
<!-- Node8 -->
<g id="node8" class="node">
<title>Node8</title>
<g id="a_node8"><a xlink:href="../../d8/d28/classrange__queries_1_1per_seg_tree.html#a0cec4b77d264521717cf9b0482c45817" target="_top" xlink:title="Creating a new node with the same values of curr node.">
<polygon fill="white" stroke="black" points="510,-0.5 510,-30.5 644,-30.5 644,-0.5 510,-0.5"/>
<text text-anchor="start" x="518" y="-18.5" font-family="Helvetica,sans-Serif" font-size="10.00">range_queries::perSegTree</text>
<text text-anchor="middle" x="577" y="-7.5" font-family="Helvetica,sans-Serif" font-size="10.00">::newKid</text>
</a>
</g>
</g>
<!-- Node6&#45;&gt;Node8 -->
<g id="edge9" class="edge">
<title>Node6&#45;&gt;Node8</title>
<path fill="none" stroke="midnightblue" d="M304.11,-13.27C316.05,-12.95 328.4,-12.67 340,-12.5 399.55,-11.62 414.45,-11.62 474,-12.5 482.34,-12.62 491.06,-12.8 499.74,-13.01"/>
<polygon fill="midnightblue" stroke="midnightblue" points="499.8,-16.51 509.89,-13.27 499.98,-9.52 499.8,-16.51"/>
</g>
<!-- Node7&#45;&gt;Node8 -->
<g id="edge8" class="edge">
<title>Node7&#45;&gt;Node8</title>
<path fill="none" stroke="midnightblue" d="M474.4,-28.81C482.77,-27.71 491.39,-26.58 499.89,-25.47"/>
<polygon fill="midnightblue" stroke="midnightblue" points="500.35,-28.94 509.81,-24.17 499.44,-22 500.35,-28.94"/>
</g>
</g>
</svg>
